G04*
G04 #@! TF.GenerationSoftware,Altium Limited,Altium Designer,20.0.12 (288)*
G04*
G04 Layer_Physical_Order=1*
G04 Layer_Color=32768*
%FSLAX25Y25*%
%MOIN*%
G70*
G01*
G75*
%ADD10C,0.01000*%
%ADD15R,0.05118X0.16535*%
%ADD16R,0.07090X0.14567*%
%ADD24C,0.00500*%
%ADD25C,0.02600*%
%ADD26R,0.05906X0.05906*%
%ADD27C,0.05906*%
%ADD28C,0.12598*%
%ADD29C,0.06200*%
%ADD30C,0.07087*%
%ADD31C,0.02400*%
D10*
X590480Y69326D02*
X590851Y68955D01*
X569000Y69697D02*
X569371Y69326D01*
D15*
X357501Y49166D02*
D03*
X367499D02*
D03*
X377499D02*
D03*
D16*
X344899Y70228D02*
D03*
X390101D02*
D03*
D24*
X779070Y70563D02*
X778399Y71308D01*
X777557Y71852D01*
X776602Y72157D01*
X775600Y72202D01*
X774622Y71983D01*
X773735Y71516D01*
X773000Y70834D01*
X798633Y68413D02*
X798511Y69369D01*
X798153Y70264D01*
X797581Y71039D01*
X796833Y71646D01*
X795956Y72046D01*
X795007Y72212D01*
X794047Y72134D01*
X793137Y71818D01*
X792335Y71283D01*
X791694Y70563D01*
X796981Y65277D02*
X797671Y65885D01*
X798195Y66641D01*
X798522Y67500D01*
X798633Y68413D01*
X791694Y66263D02*
X792681Y65277D01*
X772627Y66534D02*
X773203Y65767D01*
X773952Y65167D01*
X774827Y64775D01*
X775773Y64614D01*
X776729Y64695D01*
X777635Y65013D01*
X778432Y65547D01*
X779070Y66263D01*
X749669Y70834D02*
X749087Y71609D01*
X748328Y72211D01*
X747442Y72601D01*
X746486Y72756D01*
X745522Y72664D01*
X744612Y72331D01*
X743816Y71779D01*
X743186Y71044D01*
X742761Y70174D01*
X742570Y69224D01*
X742625Y68257D01*
X745665Y65217D02*
X746674Y65165D01*
X747660Y65380D01*
X748555Y65848D01*
X749296Y66534D01*
X643122Y68413D02*
X642992Y69398D01*
X642612Y70315D01*
X642008Y71102D01*
X641220Y71707D01*
X640303Y72087D01*
X639319Y72216D01*
X638335Y72087D01*
X637418Y71707D01*
X636630Y71102D01*
X636026Y70315D01*
X635646Y69398D01*
X635516Y68413D01*
X635646Y67429D01*
X636026Y66512D01*
X636630Y65724D01*
X637418Y65120D01*
X638335Y64740D01*
X639319Y64611D01*
X640303Y64740D01*
X641220Y65120D01*
X642008Y65724D01*
X642612Y66512D01*
X642992Y67429D01*
X643122Y68413D01*
X624224D02*
X624094Y69398D01*
X623714Y70315D01*
X623110Y71102D01*
X622323Y71707D01*
X621406Y72087D01*
X620421Y72216D01*
X619437Y72087D01*
X618520Y71707D01*
X617732Y71102D01*
X617128Y70315D01*
X616748Y69398D01*
X616618Y68413D01*
X616748Y67429D01*
X617128Y66512D01*
X617732Y65724D01*
X618520Y65120D01*
X619437Y64740D01*
X620421Y64611D01*
X621406Y64740D01*
X622323Y65120D01*
X623110Y65724D01*
X623714Y66512D01*
X624094Y67429D01*
X624224Y68413D01*
X562950Y69697D02*
X562823Y70691D01*
X562450Y71621D01*
X561855Y72427D01*
X561076Y73058D01*
X560163Y73472D01*
X559176Y73643D01*
X558177Y73560D01*
X554717Y77020D02*
X554221Y77390D01*
X554717Y77020D02*
X554221Y77390D01*
X594654Y68955D02*
X594524Y69939D01*
X594144Y70856D01*
X593540Y71644D01*
X592753Y72248D01*
X591835Y72628D01*
X590851Y72758D01*
X589867Y72628D01*
X588950Y72248D01*
X588162Y71644D01*
X587558Y70856D01*
X587178Y69939D01*
X587048Y68955D01*
X587178Y67971D01*
X587558Y67054D01*
X588162Y66266D01*
X588950Y65662D01*
X589867Y65282D01*
X590851Y65152D01*
X591835Y65282D01*
X592753Y65662D01*
X593540Y66266D01*
X594144Y67054D01*
X594524Y67971D01*
X594654Y68955D01*
X572950Y69697D02*
X572826Y70679D01*
X572461Y71600D01*
X571879Y72401D01*
X571116Y73032D01*
X570221Y73453D01*
X569248Y73639D01*
X568260Y73577D01*
X567318Y73271D01*
X566482Y72740D01*
X565804Y72019D01*
X565327Y71151D01*
X565081Y70192D01*
Y69202D01*
X565327Y68243D01*
X565804Y67375D01*
X566482Y66653D01*
X567318Y66123D01*
X568260Y65817D01*
X569248Y65755D01*
X570221Y65940D01*
X571116Y66362D01*
X571879Y66993D01*
X572461Y67794D01*
X572826Y68714D01*
X572950Y69697D01*
X555137Y70520D02*
X555055Y69507D01*
X555233Y68508D01*
X555661Y67587D01*
X556309Y66805D01*
X557135Y66215D01*
X558085Y65854D01*
X559095Y65748D01*
X560098Y65903D01*
X561029Y66308D01*
X561826Y66938D01*
X562436Y67749D01*
X562819Y68690D01*
X562950Y69697D01*
X494973Y71105D02*
X494188Y71701D01*
X493277Y72075D01*
X492300Y72203D01*
X491323Y72075D01*
X490412Y71701D01*
X489627Y71105D01*
X541262Y70475D02*
X540564Y70942D01*
X539742Y71105D01*
X541262Y70475D02*
X540564Y70942D01*
X539742Y71105D01*
X464325D02*
X463509Y71803D01*
X462531Y72246D01*
X461469Y72397D01*
X460406Y72246D01*
X459428Y71803D01*
X458612Y71105D01*
X445427D02*
X444612Y71803D01*
X443634Y72246D01*
X442571Y72397D01*
X441508Y72246D01*
X440530Y71803D01*
X439715Y71105D01*
X458113Y66805D02*
X458712Y65974D01*
X459512Y65334D01*
X460453Y64930D01*
X461469Y64792D01*
X462484Y64930D01*
X463425Y65334D01*
X464224Y65974D01*
X464824Y66805D01*
X488848D02*
X489357Y65992D01*
X490053Y65332D01*
X490892Y64868D01*
X491820Y64628D01*
X492780D01*
X493708Y64868D01*
X494547Y65332D01*
X495243Y65992D01*
X495752Y66805D01*
X439215D02*
X439815Y65974D01*
X440614Y65334D01*
X441556Y64930D01*
X442571Y64792D01*
X443586Y64930D01*
X444527Y65334D01*
X445327Y65974D01*
X445926Y66805D01*
X425522Y65271D02*
X426386Y65930D01*
X427029Y66805D01*
X572863Y58874D02*
X572950Y59697D01*
X798633Y49516D02*
X798522Y50429D01*
X798195Y51288D01*
X797671Y52044D01*
X796981Y52652D01*
X792681D02*
X791954Y52003D01*
X791417Y51190D01*
X791103Y50267D01*
X791034Y49295D01*
X791215Y48338D01*
X791633Y47458D01*
X792261Y46712D01*
X793058Y46152D01*
X793971Y45811D01*
X794941Y45715D01*
X795903Y45867D01*
X796795Y46260D01*
X797558Y46866D01*
X798142Y47646D01*
X798509Y48549D01*
X798633Y49516D01*
X572950Y59697D02*
X572818Y60709D01*
X572432Y61653D01*
X571816Y62467D01*
X571012Y63096D01*
X570074Y63498D01*
X569065Y63646D01*
X568051Y63531D01*
X567100Y63160D01*
X566277Y62558D01*
X565634Y61765D01*
X565217Y60834D01*
X565052Y59826D01*
X565151Y58811D01*
X565506Y57854D01*
X566095Y57021D01*
X566877Y56366D01*
X567802Y55933D01*
X568806Y55752D01*
X569823Y55834D01*
X652818Y59055D02*
X652749Y60050D01*
X652542Y61026D01*
X652200Y61963D01*
X651732Y62844D01*
X651146Y63651D01*
X650453Y64368D01*
X649667Y64982D01*
X648803Y65481D01*
X647879Y65854D01*
X646911Y66096D01*
X645919Y66200D01*
X644922Y66165D01*
X643940Y65992D01*
X642991Y65684D01*
X642095Y65246D01*
X641268Y64689D01*
X640527Y64021D01*
X639886Y63257D01*
X639357Y62411D01*
X638951Y61500D01*
X638676Y60541D01*
X638538Y59554D01*
Y58556D01*
X638676Y57569D01*
X638951Y56610D01*
X639357Y55699D01*
X639886Y54853D01*
X640527Y54089D01*
X641268Y53421D01*
X642095Y52864D01*
X642991Y52426D01*
X643940Y52118D01*
X644922Y51945D01*
X645919Y51910D01*
X646911Y52014D01*
X647879Y52256D01*
X648803Y52629D01*
X649667Y53128D01*
X650453Y53742D01*
X651146Y54460D01*
X651732Y55267D01*
X652200Y56147D01*
X652542Y57085D01*
X652749Y58060D01*
X652818Y59055D01*
X652749Y60050D01*
X652542Y61026D01*
X652200Y61963D01*
X651732Y62844D01*
X651146Y63651D01*
X650453Y64368D01*
X649667Y64982D01*
X648803Y65481D01*
X647879Y65854D01*
X646911Y66096D01*
X645919Y66200D01*
X644922Y66165D01*
X643940Y65992D01*
X642991Y65684D01*
X642095Y65246D01*
X641268Y64689D01*
X640527Y64021D01*
X639886Y63257D01*
X639357Y62411D01*
X638951Y61500D01*
X638676Y60541D01*
X638538Y59554D01*
Y58556D01*
X638676Y57569D01*
X638951Y56610D01*
X639357Y55699D01*
X639886Y54853D01*
X640527Y54089D01*
X641268Y53421D01*
X642095Y52864D01*
X642991Y52426D01*
X643940Y52118D01*
X644922Y51945D01*
X645919Y51910D01*
X646911Y52014D01*
X647879Y52256D01*
X648803Y52629D01*
X649667Y53128D01*
X650453Y53742D01*
X651146Y54460D01*
X651732Y55267D01*
X652200Y56147D01*
X652542Y57085D01*
X652749Y58060D01*
X652818Y59055D01*
X643122Y49516D02*
X642992Y50500D01*
X642612Y51417D01*
X642008Y52205D01*
X641220Y52809D01*
X640303Y53189D01*
X639319Y53319D01*
X638335Y53189D01*
X637418Y52809D01*
X636630Y52205D01*
X636026Y51417D01*
X635646Y50500D01*
X635516Y49516D01*
X635646Y48531D01*
X636026Y47614D01*
X636630Y46827D01*
X637418Y46222D01*
X638335Y45843D01*
X639319Y45713D01*
X640303Y45843D01*
X641220Y46222D01*
X642008Y46827D01*
X642612Y47614D01*
X642992Y48531D01*
X643122Y49516D01*
X581150Y49697D02*
X580986Y50520D01*
X580520Y51217D01*
X581150Y49697D02*
X580986Y50520D01*
X580520Y51217D01*
X720414Y40850D02*
X721234Y41015D01*
X721928Y41480D01*
X720414Y40850D02*
X721234Y41015D01*
X721928Y41480D01*
X562950Y59697D02*
X562826Y60679D01*
X562461Y61600D01*
X561879Y62401D01*
X561117Y63032D01*
X560221Y63454D01*
X559248Y63639D01*
X558260Y63577D01*
X557318Y63271D01*
X556482Y62740D01*
X555804Y62019D01*
X555327Y61151D01*
X555081Y60192D01*
Y59202D01*
X555327Y58243D01*
X555804Y57375D01*
X556482Y56653D01*
X557318Y56123D01*
X558260Y55817D01*
X559248Y55755D01*
X560221Y55940D01*
X561117Y56362D01*
X561879Y56993D01*
X562461Y57794D01*
X562826Y58714D01*
X562950Y59697D01*
Y49697D02*
X562823Y50691D01*
X562450Y51621D01*
X561855Y52427D01*
X561076Y53057D01*
X560163Y53472D01*
X559176Y53643D01*
X558177Y53560D01*
X542582Y59055D02*
X542513Y60050D01*
X542305Y61026D01*
X541964Y61963D01*
X541496Y62844D01*
X540910Y63651D01*
X540217Y64368D01*
X539431Y64982D01*
X538567Y65481D01*
X537642Y65854D01*
X536674Y66096D01*
X535683Y66200D01*
X534686Y66165D01*
X533704Y65992D01*
X532755Y65684D01*
X531858Y65246D01*
X531032Y64689D01*
X530290Y64021D01*
X529649Y63257D01*
X529121Y62411D01*
X528715Y61500D01*
X528440Y60541D01*
X528301Y59554D01*
Y58556D01*
X528440Y57569D01*
X528715Y56610D01*
X529121Y55699D01*
X529649Y54853D01*
X530290Y54089D01*
X531032Y53421D01*
X531858Y52864D01*
X532755Y52426D01*
X533704Y52118D01*
X534686Y51945D01*
X535683Y51910D01*
X536674Y52014D01*
X537642Y52256D01*
X538567Y52629D01*
X539431Y53128D01*
X540217Y53742D01*
X540910Y54460D01*
X541496Y55267D01*
X541964Y56147D01*
X542305Y57085D01*
X542513Y58060D01*
X542582Y59055D01*
X542513Y60050D01*
X542305Y61026D01*
X541964Y61963D01*
X541496Y62844D01*
X540910Y63651D01*
X540217Y64368D01*
X539431Y64982D01*
X538567Y65481D01*
X537642Y65854D01*
X536674Y66096D01*
X535683Y66200D01*
X534686Y66165D01*
X533704Y65992D01*
X532755Y65684D01*
X531858Y65246D01*
X531032Y64689D01*
X530290Y64021D01*
X529649Y63257D01*
X529121Y62411D01*
X528715Y61500D01*
X528440Y60541D01*
X528301Y59554D01*
Y58556D01*
X528440Y57569D01*
X528715Y56610D01*
X529121Y55699D01*
X529649Y54853D01*
X530290Y54089D01*
X531032Y53421D01*
X531858Y52864D01*
X532755Y52426D01*
X533704Y52118D01*
X534686Y51945D01*
X535683Y51910D01*
X536674Y52014D01*
X537642Y52256D01*
X538567Y52629D01*
X539431Y53128D01*
X540217Y53742D01*
X540910Y54460D01*
X541496Y55267D01*
X541964Y56147D01*
X542305Y57085D01*
X542513Y58060D01*
X542582Y59055D01*
X555137Y50520D02*
X555055Y49507D01*
X555233Y48508D01*
X555661Y47587D01*
X556309Y46805D01*
X557135Y46215D01*
X558085Y45854D01*
X559095Y45748D01*
X560098Y45903D01*
X561029Y46308D01*
X561826Y46938D01*
X562436Y47749D01*
X562819Y48690D01*
X562950Y49697D01*
X458000Y45150D02*
X457177Y44986D01*
X456480Y44520D01*
X476369Y40850D02*
X475397Y40428D01*
X475030Y39435D01*
X458000Y45150D02*
X457177Y44986D01*
X456480Y44520D01*
X427476Y49697D02*
X427343Y50696D01*
X426951Y51624D01*
X426330Y52418D01*
X425522Y53020D01*
X425823Y46560D02*
X426513Y47168D01*
X427037Y47924D01*
X427365Y48784D01*
X427476Y49697D01*
X452893Y33500D02*
X452729Y34689D01*
X466365Y27112D02*
X467360Y27108D01*
X468347Y27225D01*
X469313Y27461D01*
X470243Y27813D01*
X471123Y28275D01*
X471940Y28841D01*
X472683Y29502D01*
X473340Y30249D01*
X473901Y31069D01*
X474358Y31952D01*
X474704Y32884D01*
X474935Y33851D01*
X475046Y34839D01*
X447311Y29271D02*
X448309Y29111D01*
X449318Y29183D01*
X450282Y29485D01*
X451153Y29998D01*
X451883Y30697D01*
X452434Y31545D01*
X452777Y32496D01*
X452893Y33500D01*
X449689Y37729D02*
X448669Y37890D01*
X447641Y37808D01*
X446660Y37489D01*
X445780Y36950D01*
X445050Y36220D01*
X444511Y35340D01*
X444192Y34359D01*
X444110Y33331D01*
X444271Y32311D01*
X466365Y27112D02*
X465615Y26941D01*
X441342Y30150D02*
X441996Y30840D01*
X442487Y31654D01*
X442791Y32555D01*
X442893Y33500D01*
X442785Y34470D01*
X442465Y35393D01*
X441949Y36222D01*
X441262Y36916D01*
X440440Y37442D01*
X439521Y37773D01*
X438552Y37893D01*
X437580Y37796D01*
X436654Y37487D01*
X435819Y36981D01*
X435117Y36303D01*
X434581Y35486D01*
X434239Y34571D01*
X434108Y33604D01*
X434194Y32631D01*
X434492Y31701D01*
X434988Y30860D01*
X435658Y30150D01*
X431342D02*
X431996Y30840D01*
X432487Y31654D01*
X432791Y32555D01*
X432893Y33500D01*
X432777Y34504D01*
X432434Y35455D01*
X431883Y36303D01*
X431153Y37002D01*
X430282Y37515D01*
X429318Y37817D01*
X428309Y37889D01*
X427311Y37729D01*
X424271Y34689D02*
X424111Y33701D01*
X424180Y32703D01*
X424472Y31746D01*
X424973Y30880D01*
X425658Y30150D01*
X426529Y71105D02*
X425810Y71740D01*
X424954Y72175D01*
X424016Y72382D01*
X423057Y72347D01*
X422136Y72073D01*
X421314Y71577D01*
X420643Y70891D01*
X420164Y70059D01*
X419909Y69134D01*
X419894Y68174D01*
X420120Y67241D01*
X420572Y66394D01*
X421222Y65687D01*
X363800Y62950D02*
X362977Y62786D01*
X362280Y62320D01*
X363800Y62950D02*
X362977Y62786D01*
X362280Y62320D01*
X393037Y58650D02*
X393500Y57959D01*
X393037Y58650D02*
X393500Y57959D01*
X300325Y76320D02*
X299627Y76786D01*
X298804Y76950D01*
X300325Y76320D02*
X299627Y76786D01*
X298804Y76950D01*
X279693Y68955D02*
X279559Y69956D01*
X279166Y70887D01*
X278542Y71681D01*
X277731Y72283D01*
X276790Y72650D01*
X274991D02*
X274061Y72289D01*
X273257Y71698D01*
X272634Y70919D01*
X272235Y70004D01*
X272088Y69017D01*
X272203Y68026D01*
X272572Y67098D01*
X273169Y66299D01*
X273954Y65683D01*
X274871Y65291D01*
X275860Y65153D01*
X276850Y65275D01*
X277774Y65652D01*
X278569Y66255D01*
X279179Y67045D01*
X279562Y67966D01*
X279693Y68955D01*
X249523Y68594D02*
X249394Y69579D01*
X249014Y70496D01*
X248409Y71284D01*
X247622Y71888D01*
X246705Y72268D01*
X245721Y72397D01*
X244736Y72268D01*
X243819Y71888D01*
X243032Y71284D01*
X242427Y70496D01*
X242047Y69579D01*
X241918Y68594D01*
X242047Y67610D01*
X242427Y66693D01*
X243032Y65905D01*
X243819Y65301D01*
X244736Y64921D01*
X245721Y64792D01*
X246705Y64921D01*
X247622Y65301D01*
X248409Y65905D01*
X249014Y66693D01*
X249394Y67610D01*
X249523Y68594D01*
X230626D02*
X230496Y69579D01*
X230116Y70496D01*
X229512Y71284D01*
X228724Y71888D01*
X227807Y72268D01*
X226823Y72397D01*
X225839Y72268D01*
X224921Y71888D01*
X224134Y71284D01*
X223530Y70496D01*
X223150Y69579D01*
X223020Y68594D01*
X223150Y67610D01*
X223530Y66693D01*
X224134Y65905D01*
X224921Y65301D01*
X225839Y64921D01*
X226823Y64792D01*
X227807Y64921D01*
X228724Y65301D01*
X229512Y65905D01*
X230116Y66693D01*
X230496Y67610D01*
X230626Y68594D01*
X126224Y76950D02*
X125401Y76786D01*
X124703Y76320D01*
X126224Y76950D02*
X125401Y76786D01*
X124703Y76320D01*
X124181Y68955D02*
X124117Y69653D01*
X121076Y72693D02*
X120137Y72750D01*
X119212Y72575D01*
X118359Y72177D01*
X117629Y71582D01*
X117068Y70826D01*
X93135D02*
X92400Y71506D01*
X91513Y71970D01*
X90535Y72186D01*
X89536Y72140D01*
X88582Y71835D01*
X87742Y71292D01*
X87072Y70548D01*
X117453Y66526D02*
X118213Y65829D01*
X119133Y65362D01*
X120144Y65160D01*
X121173Y65236D01*
X122143Y65586D01*
X122983Y66184D01*
X123632Y66986D01*
X124042Y67933D01*
X124181Y68955D01*
X74448Y70548D02*
X73760Y71307D01*
X72896Y71855D01*
X71916Y72152D01*
X70893Y72177D01*
X69899Y71929D01*
X69008Y71424D01*
X68285Y70700D01*
X67780Y69809D01*
X67531Y68816D01*
X67557Y67793D01*
X67854Y66813D01*
X68402Y65948D01*
X69161Y65261D01*
X87072Y66248D02*
X87711Y65530D01*
X88509Y64996D01*
X89416Y64679D01*
X90373Y64598D01*
X91320Y64761D01*
X92196Y65155D01*
X92945Y65756D01*
X93519Y66526D01*
X73461Y65261D02*
X74448Y66248D01*
X421222Y52604D02*
X420551Y51867D01*
X420094Y50981D01*
X419883Y50007D01*
X419933Y49011D01*
X420239Y48063D01*
X420782Y47227D01*
X421523Y46560D01*
X410650Y46000D02*
X410486Y46823D01*
X410020Y47520D01*
X410650Y46000D02*
X410486Y46823D01*
X410020Y47520D01*
X386161Y50020D02*
X385463Y50486D01*
X384641Y50650D01*
X386161Y50020D02*
X385463Y50486D01*
X384641Y50650D01*
X421523Y38327D02*
X421687Y37504D01*
X422153Y36806D01*
X421523Y38327D02*
X421687Y37504D01*
X422153Y36806D01*
X421342Y30150D02*
X421996Y30840D01*
X422487Y31654D01*
X422790Y32555D01*
X422893Y33500D01*
X422785Y34470D01*
X422465Y35393D01*
X421949Y36222D01*
X421262Y36916D01*
X420439Y37442D01*
X419521Y37773D01*
X418552Y37893D01*
X417580Y37796D01*
X416654Y37487D01*
X415819Y36981D01*
X415117Y36303D01*
X414581Y35486D01*
X414239Y34571D01*
X414108Y33604D01*
X414193Y32631D01*
X414492Y31701D01*
X414988Y30860D01*
X415658Y30150D01*
X411342D02*
X411996Y30840D01*
X412487Y31654D01*
X412790Y32555D01*
X412893Y33500D01*
X412795Y34424D01*
X412505Y35307D01*
X412035Y36108D01*
X411408Y36794D01*
X410650Y37331D01*
X406350D02*
X405591Y36792D01*
X404962Y36105D01*
X404493Y35300D01*
X404203Y34415D01*
X404107Y33489D01*
X404208Y32563D01*
X404502Y31679D01*
X337858Y59055D02*
X337788Y60050D01*
X337581Y61026D01*
X337240Y61963D01*
X336771Y62844D01*
X336185Y63651D01*
X335492Y64368D01*
X334706Y64982D01*
X333843Y65481D01*
X332918Y65854D01*
X331950Y66096D01*
X330958Y66200D01*
X329961Y66165D01*
X328979Y65992D01*
X328030Y65684D01*
X327134Y65246D01*
X326307Y64689D01*
X325566Y64021D01*
X324925Y63257D01*
X324396Y62411D01*
X323991Y61500D01*
X323716Y60541D01*
X323577Y59554D01*
Y58556D01*
X323716Y57569D01*
X323991Y56610D01*
X324396Y55699D01*
X324925Y54853D01*
X325566Y54089D01*
X326307Y53421D01*
X327134Y52864D01*
X328030Y52426D01*
X328979Y52118D01*
X329961Y51945D01*
X330958Y51910D01*
X331950Y52014D01*
X332918Y52256D01*
X333843Y52629D01*
X334706Y53128D01*
X335492Y53742D01*
X336185Y54460D01*
X336771Y55267D01*
X337240Y56147D01*
X337581Y57085D01*
X337788Y58060D01*
X337858Y59055D01*
X337788Y60050D01*
X337581Y61026D01*
X337240Y61963D01*
X336771Y62844D01*
X336185Y63651D01*
X335492Y64368D01*
X334706Y64982D01*
X333843Y65481D01*
X332918Y65854D01*
X331950Y66096D01*
X330958Y66200D01*
X329961Y66165D01*
X328979Y65992D01*
X328030Y65684D01*
X327134Y65246D01*
X326307Y64689D01*
X325566Y64021D01*
X324925Y63257D01*
X324396Y62411D01*
X323991Y61500D01*
X323716Y60541D01*
X323577Y59554D01*
Y58556D01*
X323716Y57569D01*
X323991Y56610D01*
X324396Y55699D01*
X324925Y54853D01*
X325566Y54089D01*
X326307Y53421D01*
X327134Y52864D01*
X328030Y52426D01*
X328979Y52118D01*
X329961Y51945D01*
X330958Y51910D01*
X331950Y52014D01*
X332918Y52256D01*
X333843Y52629D01*
X334706Y53128D01*
X335492Y53742D01*
X336185Y54460D01*
X336771Y55267D01*
X337240Y56147D01*
X337581Y57085D01*
X337788Y58060D01*
X337858Y59055D01*
X230626Y49697D02*
X230496Y50681D01*
X230116Y51598D01*
X229512Y52386D01*
X228724Y52990D01*
X227807Y53370D01*
X226823Y53500D01*
X225839Y53370D01*
X224921Y52990D01*
X224134Y52386D01*
X223530Y51598D01*
X223150Y50681D01*
X223020Y49697D01*
X223150Y48713D01*
X223530Y47796D01*
X224134Y47008D01*
X224921Y46404D01*
X225839Y46024D01*
X226823Y45894D01*
X227807Y46024D01*
X228724Y46404D01*
X229512Y47008D01*
X230116Y47796D01*
X230496Y48713D01*
X230626Y49697D01*
X227622Y59055D02*
X227552Y60050D01*
X227345Y61026D01*
X227004Y61963D01*
X226535Y62844D01*
X225949Y63651D01*
X225256Y64368D01*
X224470Y64982D01*
X223606Y65481D01*
X222682Y65854D01*
X221714Y66096D01*
X220722Y66200D01*
X219725Y66165D01*
X218743Y65992D01*
X217794Y65684D01*
X216898Y65246D01*
X216071Y64689D01*
X215330Y64021D01*
X214689Y63257D01*
X214160Y62411D01*
X213754Y61500D01*
X213479Y60541D01*
X213341Y59554D01*
Y58556D01*
X213479Y57569D01*
X213754Y56610D01*
X214160Y55699D01*
X214689Y54853D01*
X215330Y54089D01*
X216071Y53421D01*
X216898Y52864D01*
X217794Y52426D01*
X218743Y52118D01*
X219725Y51945D01*
X220722Y51910D01*
X221714Y52014D01*
X222682Y52256D01*
X223606Y52629D01*
X224470Y53128D01*
X225256Y53742D01*
X225949Y54460D01*
X226535Y55267D01*
X227004Y56147D01*
X227345Y57085D01*
X227552Y58060D01*
X227622Y59055D01*
X227552Y60050D01*
X227345Y61026D01*
X227004Y61963D01*
X226535Y62844D01*
X225949Y63651D01*
X225256Y64368D01*
X224470Y64982D01*
X223606Y65481D01*
X222682Y65854D01*
X221714Y66096D01*
X220722Y66200D01*
X219725Y66165D01*
X218743Y65992D01*
X217794Y65684D01*
X216898Y65246D01*
X216071Y64689D01*
X215330Y64021D01*
X214689Y63257D01*
X214160Y62411D01*
X213754Y61500D01*
X213479Y60541D01*
X213341Y59554D01*
Y58556D01*
X213479Y57569D01*
X213754Y56610D01*
X214160Y55699D01*
X214689Y54853D01*
X215330Y54089D01*
X216071Y53421D01*
X216898Y52864D01*
X217794Y52426D01*
X218743Y52118D01*
X219725Y51945D01*
X220722Y51910D01*
X221714Y52014D01*
X222682Y52256D01*
X223606Y52629D01*
X224470Y53128D01*
X225256Y53742D01*
X225949Y54460D01*
X226535Y55267D01*
X227004Y56147D01*
X227345Y57085D01*
X227552Y58060D01*
X227622Y59055D01*
X75114Y49500D02*
X75002Y50413D01*
X74675Y51273D01*
X74151Y52029D01*
X73461Y52637D01*
X69161D02*
X68434Y51987D01*
X67897Y51174D01*
X67583Y50252D01*
X67515Y49280D01*
X67695Y48322D01*
X68113Y47442D01*
X68742Y46697D01*
X69538Y46136D01*
X70451Y45796D01*
X71421Y45699D01*
X72384Y45852D01*
X73276Y46244D01*
X74039Y46850D01*
X74622Y47631D01*
X74989Y48533D01*
X75114Y49500D01*
X322919Y47645D02*
X323616Y47179D01*
X324439Y47015D01*
X322919Y47645D02*
X323616Y47179D01*
X324439Y47015D01*
X796906Y71600D02*
X825422D01*
X796095Y72000D02*
X825422D01*
X797418Y71200D02*
X825422D01*
X747973Y72400D02*
X825422D01*
X777197Y72000D02*
X793567D01*
X778008Y71600D02*
X792756D01*
X798551Y69200D02*
X825422D01*
X798444Y69600D02*
X825422D01*
X798614Y68800D02*
X825422D01*
X798073Y70400D02*
X825422D01*
X797791Y70800D02*
X825422D01*
X798287Y70000D02*
X825422D01*
X778521Y71200D02*
X792243D01*
X749669Y70834D02*
X773000D01*
X748641Y72000D02*
X774669D01*
X749095Y71600D02*
X773858D01*
X749432Y71200D02*
X773345D01*
X778894Y70800D02*
X791870D01*
X779070Y70563D02*
X791694D01*
X643039Y69200D02*
X742568D01*
X642561Y70400D02*
X742845D01*
X642775Y70000D02*
X742707D01*
X642932Y69600D02*
X742615D01*
X798611Y68000D02*
X825422D01*
X798633Y68400D02*
X825422D01*
X798546Y67600D02*
X825422D01*
X798435Y67200D02*
X825422D01*
X798057Y66400D02*
X825422D01*
X798274Y66800D02*
X825422D01*
X797769Y66000D02*
X825422D01*
X779070Y66263D02*
X791694D01*
X643122Y68400D02*
X742601D01*
X643102Y68800D02*
X742563D01*
X643099Y68000D02*
X742367D01*
X643034Y67600D02*
X741967D01*
X642923Y67200D02*
X741567D01*
X749179Y66400D02*
X772707D01*
X749296Y66534D02*
X772627D01*
X748756Y66000D02*
X772994D01*
X642762Y66800D02*
X741167D01*
X555737Y76000D02*
X825422D01*
X555337Y76400D02*
X825422D01*
X556137Y75600D02*
X825422D01*
X554513Y77200D02*
X825422D01*
X554221Y77390D02*
X825422D01*
X554937Y76800D02*
X825422D01*
X569607Y73600D02*
X825422D01*
X557737Y74000D02*
X825422D01*
X570825Y73200D02*
X825422D01*
X556937Y74800D02*
X825422D01*
X556537Y75200D02*
X825422D01*
X557337Y74400D02*
X825422D01*
X640583Y72000D02*
X744085D01*
X621685D02*
X638055D01*
X593583Y71600D02*
X618346D01*
X571444Y72800D02*
X825422D01*
X592462Y72400D02*
X744753D01*
X593129Y72000D02*
X619157D01*
X641394Y71600D02*
X743631D01*
X641906Y71200D02*
X743294D01*
X642279Y70800D02*
X743038D01*
X622497Y71600D02*
X637244D01*
X623009Y71200D02*
X636731D01*
X593921D02*
X617834D01*
X624034Y69600D02*
X635706D01*
X624142Y69200D02*
X635598D01*
X623382Y70800D02*
X636358D01*
X623664Y70400D02*
X636076D01*
X623877Y70000D02*
X635863D01*
X642545Y66400D02*
X740767D01*
X624136Y67600D02*
X635604D01*
X642258Y66000D02*
X643972D01*
X623865Y66800D02*
X635875D01*
X624025Y67200D02*
X635715D01*
X623647Y66400D02*
X636093D01*
X624204Y68800D02*
X635536D01*
X594599Y69600D02*
X616808D01*
X594176Y70800D02*
X617461D01*
X594369Y70400D02*
X617179D01*
X594508Y70000D02*
X616965D01*
X624201Y68000D02*
X635539D01*
X624224Y68400D02*
X635516D01*
X594225Y67200D02*
X616817D01*
X593984Y66800D02*
X616978D01*
X593668Y66400D02*
X617195D01*
X796981Y65200D02*
X825422D01*
X797389Y65600D02*
X825422D01*
X796981Y64800D02*
X825422D01*
X796981Y64400D02*
X825422D01*
X777118Y64800D02*
X792681D01*
X796981Y64000D02*
X825422D01*
X796981Y63200D02*
X825422D01*
X796981Y63600D02*
X825422D01*
X796981Y62800D02*
X825422D01*
X796981Y62000D02*
X825422D01*
X796981Y62400D02*
X825422D01*
X742448Y62000D02*
X792681D01*
X778492Y65600D02*
X792272D01*
X778872Y66000D02*
X791892D01*
X777967Y65200D02*
X792681D01*
X746963D02*
X773900D01*
X748153Y65600D02*
X773375D01*
X745248Y64800D02*
X774748D01*
X744448Y64000D02*
X792681D01*
X744848Y64400D02*
X792681D01*
X744048Y63600D02*
X792681D01*
X743248Y62800D02*
X792681D01*
X743648Y63200D02*
X792681D01*
X742848Y62400D02*
X792681D01*
X796981Y61200D02*
X825422D01*
X796981Y61600D02*
X825422D01*
X796981Y60800D02*
X825422D01*
X796981Y60400D02*
X825422D01*
X741248Y60800D02*
X792681D01*
X796981Y60000D02*
X825422D01*
X796981Y58400D02*
X825422D01*
X796981Y58800D02*
X825422D01*
X796981Y58000D02*
X825422D01*
X796981Y59600D02*
X825422D01*
X740448Y60000D02*
X792681D01*
X796981Y59200D02*
X825422D01*
X741648Y61200D02*
X792681D01*
X742048Y61600D02*
X792681D01*
X740848Y60400D02*
X792681D01*
X740048Y59600D02*
X792681D01*
X652798D02*
X733967D01*
X652817Y59200D02*
X733567D01*
X739248Y58800D02*
X792681D01*
X739648Y59200D02*
X792681D01*
X738848Y58400D02*
X792681D01*
X652814Y58800D02*
X733167D01*
X738448Y58000D02*
X792681D01*
X648546Y65600D02*
X739967D01*
X649323Y65200D02*
X739567D01*
X649925Y64800D02*
X739167D01*
X647366Y66000D02*
X740367D01*
X641877Y65600D02*
X642793D01*
X641352Y65200D02*
X642015D01*
X651188Y63600D02*
X737967D01*
X651494Y63200D02*
X737567D01*
X651759Y62800D02*
X737167D01*
X650417Y64400D02*
X738767D01*
X640504Y64800D02*
X641414D01*
X650833Y64000D02*
X738367D01*
X622980Y65600D02*
X636760D01*
X623360Y66000D02*
X636380D01*
X622455Y65200D02*
X637285D01*
X592641Y65600D02*
X617863D01*
X593245Y66000D02*
X617483D01*
X591451Y65200D02*
X618388D01*
X569607Y63600D02*
X640151D01*
X621606Y64800D02*
X638134D01*
X570825Y63200D02*
X639844D01*
X547337Y64400D02*
X640921D01*
X546937Y64800D02*
X619236D01*
X547737Y64000D02*
X640506D01*
X652184Y62000D02*
X736367D01*
X652350Y61600D02*
X735967D01*
X652489Y61200D02*
X735567D01*
X571444Y62800D02*
X639579D01*
X571880Y62400D02*
X639351D01*
X651988D02*
X736767D01*
X652756Y60000D02*
X734367D01*
X652788Y58400D02*
X732767D01*
X652740Y58000D02*
X732367D01*
X652602Y60800D02*
X735167D01*
X652691Y60400D02*
X734767D01*
X652669Y57600D02*
X731967D01*
X572793Y60800D02*
X638736D01*
X572887Y60400D02*
X638648D01*
X572938Y60000D02*
X638583D01*
X572209Y62000D02*
X639155D01*
X572461Y61600D02*
X638988D01*
X572653Y61200D02*
X638849D01*
X573337Y58400D02*
X638550D01*
X572949Y59600D02*
X638541D01*
X573737Y58000D02*
X638598D01*
X572919Y59200D02*
X638521D01*
X572937Y58800D02*
X638525D01*
X571880Y72400D02*
X589241D01*
X561880D02*
X566120D01*
X572209Y72000D02*
X588573D01*
X559607Y73600D02*
X568393D01*
X560825Y73200D02*
X567175D01*
X561444Y72800D02*
X566556D01*
X572887Y70400D02*
X587334D01*
X572938Y70000D02*
X587195D01*
X572949Y69600D02*
X587104D01*
X572461Y71600D02*
X588119D01*
X572653Y71200D02*
X587782D01*
X572793Y70800D02*
X587526D01*
X562209Y72000D02*
X565791D01*
X554717Y77020D02*
X558177Y73560D01*
X552306Y73350D02*
X555137Y70520D01*
X562887Y70400D02*
X565113D01*
X562938Y70000D02*
X565062D01*
X562949Y69600D02*
X565051D01*
X562461Y71600D02*
X565539D01*
X562653Y71200D02*
X565347D01*
X562793Y70800D02*
X565207D01*
X594646Y69200D02*
X616701D01*
X594651Y68800D02*
X616638D01*
X594613Y68400D02*
X616618D01*
X594532Y68000D02*
X616641D01*
X572731Y68400D02*
X587089D01*
X594404Y67600D02*
X616707D01*
X572567Y68000D02*
X587170D01*
X572347Y67600D02*
X587298D01*
X571685Y66800D02*
X587718D01*
X572061Y67200D02*
X587478D01*
X571176Y66400D02*
X588035D01*
X572919Y69200D02*
X587056D01*
X572847Y68800D02*
X587052D01*
X562847D02*
X565153D01*
X562919Y69200D02*
X565081D01*
X562567Y68000D02*
X565433D01*
X562731Y68400D02*
X565269D01*
X562348Y67600D02*
X565653D01*
X562061Y67200D02*
X565939D01*
X561685Y66800D02*
X566315D01*
X494354Y71600D02*
X554056D01*
X493525Y72000D02*
X553656D01*
X494873Y71200D02*
X554456D01*
X463161Y72000D02*
X491075D01*
X463798Y71600D02*
X490245D01*
X541337Y70400D02*
X555113D01*
X540846Y70800D02*
X554856D01*
X541737Y70000D02*
X555062D01*
X494973Y71105D02*
X539742D01*
X444263Y72000D02*
X459776D01*
X444901Y71600D02*
X459139D01*
X425365Y72000D02*
X440879D01*
X426003Y71600D02*
X440241D01*
X464238Y71200D02*
X489727D01*
X464325Y71105D02*
X489627D01*
X445427D02*
X458612D01*
X445341Y71200D02*
X458699D01*
X426443D02*
X439801D01*
X426529Y71105D02*
X439715D01*
X543737Y68000D02*
X555433D01*
X543337Y68400D02*
X555269D01*
X544137Y67600D02*
X555653D01*
X542537Y69200D02*
X555081D01*
X542137Y69600D02*
X555051D01*
X542937Y68800D02*
X555153D01*
X544937Y66800D02*
X556315D01*
X544537Y67200D02*
X555939D01*
X545337Y66400D02*
X556824D01*
X495750Y66800D02*
X538856D01*
X495752Y66805D02*
X538851D01*
X495534Y66400D02*
X539256D01*
X464824Y66805D02*
X488848D01*
X445926D02*
X458113D01*
X427029D02*
X439215D01*
X445924Y66800D02*
X458116D01*
X427026D02*
X439218D01*
X464821D02*
X488850D01*
X426779Y66400D02*
X439465D01*
X570391Y66000D02*
X588458D01*
X561176Y66400D02*
X566824D01*
X560391Y66000D02*
X567609D01*
X546537Y65200D02*
X590251D01*
X546137Y65600D02*
X589061D01*
X559607Y63600D02*
X568393D01*
X562209Y62000D02*
X565791D01*
X562461Y61600D02*
X565539D01*
X562653Y61200D02*
X565347D01*
X560825Y63200D02*
X567175D01*
X561444Y62800D02*
X566556D01*
X561880Y62400D02*
X566120D01*
X548937Y62800D02*
X556556D01*
X549337Y62400D02*
X556120D01*
X549737Y62000D02*
X555791D01*
X548137Y63600D02*
X558393D01*
X545737Y66000D02*
X557609D01*
X548537Y63200D02*
X557175D01*
X550137Y61600D02*
X555539D01*
X550537Y61200D02*
X555347D01*
X562793Y60800D02*
X565207D01*
X542253Y61200D02*
X544456D01*
X542114Y61600D02*
X544056D01*
X542366Y60800D02*
X544856D01*
X562938Y60000D02*
X565062D01*
X562949Y59600D02*
X565051D01*
X562887Y60400D02*
X565113D01*
X550937Y60800D02*
X555207D01*
X562919Y59200D02*
X565081D01*
X562731Y58400D02*
X565269D01*
X562847Y58800D02*
X565153D01*
X562567Y58000D02*
X565433D01*
X553337Y58400D02*
X555269D01*
X552937Y58800D02*
X555153D01*
X553737Y58000D02*
X555433D01*
X551337Y60400D02*
X555113D01*
X551737Y60000D02*
X555062D01*
X552137Y59600D02*
X555051D01*
X542520Y60000D02*
X545656D01*
X542455Y60400D02*
X545256D01*
X542561Y59600D02*
X546056D01*
X552537Y59200D02*
X555081D01*
X542581D02*
X546456D01*
X542578Y58800D02*
X546856D01*
X542552Y58400D02*
X547256D01*
X542504Y58000D02*
X547656D01*
X538310Y65600D02*
X540056D01*
X537130Y66000D02*
X539656D01*
X539087Y65200D02*
X540456D01*
X495250Y66000D02*
X533736D01*
X494873Y65600D02*
X532556D01*
X463812D02*
X489727D01*
X539688Y64800D02*
X540856D01*
X494354Y65200D02*
X531779D01*
X540181Y64400D02*
X541256D01*
X493525Y64800D02*
X531178D01*
X463183Y65200D02*
X490245D01*
X461719Y64800D02*
X491075D01*
X464574Y66400D02*
X489066D01*
X445677D02*
X458363D01*
X464249Y66000D02*
X489350D01*
X445351D02*
X458688D01*
X426453D02*
X439791D01*
X444915Y65600D02*
X459125D01*
X444285Y65200D02*
X459754D01*
X426017Y65600D02*
X440227D01*
X442822Y64800D02*
X461218D01*
X425522Y65200D02*
X440857D01*
X425522Y64800D02*
X442320D01*
X540952Y63600D02*
X542056D01*
X540596Y64000D02*
X541656D01*
X541258Y63200D02*
X542456D01*
X425522Y64400D02*
X530685D01*
X425522Y64000D02*
X530270D01*
X425522Y63600D02*
X529914D01*
X541751Y62400D02*
X543256D01*
X541523Y62800D02*
X542856D01*
X541948Y62000D02*
X543656D01*
X425522Y63200D02*
X529608D01*
X425522Y62800D02*
X529343D01*
X425522Y62400D02*
X529115D01*
X425522Y60800D02*
X528500D01*
X425522Y60400D02*
X528411D01*
X425522Y60000D02*
X528347D01*
X425522Y62000D02*
X528919D01*
X425522Y61600D02*
X528752D01*
X425522Y61200D02*
X528613D01*
X425522Y58400D02*
X528314D01*
X425522Y58800D02*
X528288D01*
X425522Y58000D02*
X528362D01*
X425522Y59600D02*
X528305D01*
X425522Y59200D02*
X528285D01*
X796981Y57200D02*
X825422D01*
X796981Y57600D02*
X825422D01*
X796981Y56400D02*
X825422D01*
X737648Y57200D02*
X792681D01*
X738048Y57600D02*
X792681D01*
X796981Y56800D02*
X825422D01*
X796981Y54800D02*
X825422D01*
X796981Y55200D02*
X825422D01*
X796981Y54400D02*
X825422D01*
X796981Y56000D02*
X825422D01*
X736848Y56400D02*
X792681D01*
X796981Y55600D02*
X825422D01*
X737248Y56800D02*
X792681D01*
X652574Y57200D02*
X731567D01*
X736448Y56000D02*
X792681D01*
X652454Y56800D02*
X731167D01*
X652307Y56400D02*
X730767D01*
X652133Y56000D02*
X730367D01*
X735648Y55200D02*
X792681D01*
X736048Y55600D02*
X792681D01*
X735248Y54800D02*
X792681D01*
X651928Y55600D02*
X729967D01*
X651690Y55200D02*
X729567D01*
X734848Y54400D02*
X792681D01*
X796981Y54000D02*
X825422D01*
X796981Y52652D02*
Y65277D01*
X825422Y40850D02*
Y77390D01*
X796981Y53200D02*
X825422D01*
X796981Y53600D02*
X825422D01*
X796981Y52800D02*
X825422D01*
X798011Y51600D02*
X825422D01*
X797710Y52000D02*
X825422D01*
X798240Y51200D02*
X825422D01*
X797309Y52400D02*
X825422D01*
X734048Y53600D02*
X792681D01*
X734448Y54000D02*
X792681D01*
Y52652D02*
Y65277D01*
X733648Y53200D02*
X792681D01*
X719517Y45150D02*
X742625Y68257D01*
X721928Y41480D02*
X745665Y65217D01*
X733248Y52800D02*
X792681D01*
X732848Y52400D02*
X792352D01*
X732448Y52000D02*
X791952D01*
X732048Y51600D02*
X791650D01*
X731648Y51200D02*
X791421D01*
X651414Y54800D02*
X729167D01*
X651095Y54400D02*
X728767D01*
X577737Y54000D02*
X640614D01*
X576937Y54800D02*
X639924D01*
X576537Y55200D02*
X639648D01*
X577337Y54400D02*
X640243D01*
X650725Y54000D02*
X728367D01*
X650290Y53600D02*
X727967D01*
X649772Y53200D02*
X727567D01*
X640261D02*
X641567D01*
X578137Y53600D02*
X641048D01*
X641236Y52800D02*
X642207D01*
X575337Y56400D02*
X639031D01*
X574937Y56800D02*
X638885D01*
X575737Y56000D02*
X639206D01*
X574537Y57200D02*
X638765D01*
X574137Y57600D02*
X638670D01*
X576137Y55600D02*
X639410D01*
X578537Y53200D02*
X638377D01*
X560825D02*
X572456D01*
X557737Y54000D02*
X571656D01*
X557337Y54400D02*
X571256D01*
X559607Y53600D02*
X572056D01*
X649131Y52800D02*
X727167D01*
X648281Y52400D02*
X726767D01*
X578937Y52800D02*
X637402D01*
X646825Y52000D02*
X726367D01*
X642198D02*
X644513D01*
X642500Y51600D02*
X725967D01*
X641797Y52400D02*
X643058D01*
X579337D02*
X636841D01*
X579737Y52000D02*
X636440D01*
X580137Y51600D02*
X636138D01*
X572863Y58874D02*
X580520Y51217D01*
X569823Y55834D02*
X576850Y48806D01*
X561880Y52400D02*
X573256D01*
X561444Y52800D02*
X572856D01*
X562209Y52000D02*
X573656D01*
X580537Y51200D02*
X635910D01*
X562461Y51600D02*
X574056D01*
X562653Y51200D02*
X574456D01*
X798632Y49600D02*
X825422D01*
X798602Y50000D02*
X825422D01*
X798620Y49200D02*
X825422D01*
X798410Y50800D02*
X825422D01*
X731248D02*
X791251D01*
X798529Y50400D02*
X825422D01*
X798466Y48400D02*
X825422D01*
X798565Y48800D02*
X825422D01*
X798318Y48000D02*
X825422D01*
X798116Y47600D02*
X825422D01*
X728448Y48000D02*
X791343D01*
X728048Y47600D02*
X791546D01*
X730848Y50400D02*
X791132D01*
X730448Y50000D02*
X791059D01*
X730048Y49600D02*
X791029D01*
X643017Y50400D02*
X724767D01*
X643091Y50000D02*
X724367D01*
X643121Y49600D02*
X723967D01*
X729248Y48800D02*
X791096D01*
X729648Y49200D02*
X791041D01*
X728848Y48400D02*
X791195D01*
X643109Y49200D02*
X723567D01*
X643054Y48800D02*
X723167D01*
X642954Y48400D02*
X722767D01*
X797493Y46800D02*
X825422D01*
X797847Y47200D02*
X825422D01*
X797011Y46400D02*
X825422D01*
X726048Y45600D02*
X825422D01*
X796280Y46000D02*
X825422D01*
X725648Y45200D02*
X825422D01*
X724848Y44400D02*
X825422D01*
X725248Y44800D02*
X825422D01*
X724448Y44000D02*
X825422D01*
X722048Y41600D02*
X825422D01*
X724048Y43600D02*
X825422D01*
X721584Y41200D02*
X825422D01*
X727248Y46800D02*
X792169D01*
X727648Y47200D02*
X791814D01*
X726848Y46400D02*
X792651D01*
X723648Y43200D02*
X825422D01*
X726448Y46000D02*
X793381D01*
X723248Y42800D02*
X825422D01*
X722448Y42000D02*
X825422D01*
X722848Y42400D02*
X825422D01*
X720414Y40850D02*
X825422Y40850D01*
X642728Y51200D02*
X725567D01*
X642898Y50800D02*
X725167D01*
X581150Y48800D02*
X635584D01*
X580845Y50800D02*
X635740D01*
X581032Y50400D02*
X635620D01*
X581129Y50000D02*
X635547D01*
X642806Y48000D02*
X722367D01*
X581150Y48400D02*
X635683D01*
X642604Y47600D02*
X721967D01*
X581150D02*
X636034D01*
X581150Y48000D02*
X635831D01*
X581150Y47200D02*
X636303D01*
X581150Y49600D02*
X635517D01*
X562949D02*
X576056D01*
X581150Y49200D02*
X635529D01*
X562887Y50400D02*
X575256D01*
X562793Y50800D02*
X574856D01*
X562938Y50000D02*
X575656D01*
X562847Y48800D02*
X576850D01*
X562919Y49200D02*
X576456D01*
X562731Y48400D02*
X576850D01*
X562567Y48000D02*
X576850D01*
X562348Y47600D02*
X576850D01*
X642335Y47200D02*
X721567D01*
X641981Y46800D02*
X721167D01*
X641499Y46400D02*
X720767D01*
X581150D02*
X637139D01*
X581150Y46800D02*
X636657D01*
X640768Y46000D02*
X720367D01*
X581150Y45600D02*
X719967D01*
X581150Y46000D02*
X637870D01*
X581150Y45200D02*
X719567D01*
X579010Y40850D02*
X720402Y40850D01*
X581150Y45150D02*
X719517D01*
X579000Y40850D02*
X720408D01*
X576850Y45150D02*
Y48806D01*
X562061Y47200D02*
X576850D01*
X581150Y45150D02*
Y49697D01*
X561176Y46400D02*
X576850D01*
X561685Y46800D02*
X576850D01*
X560391Y46000D02*
X576850D01*
X476378Y40850D02*
X578990Y40850D01*
X458000Y45150D02*
X576850D01*
X476369Y40850D02*
X579000D01*
X425823Y45600D02*
X576850D01*
X425823Y45200D02*
X576850D01*
X562061Y57200D02*
X565939D01*
X562348Y57600D02*
X565653D01*
X561685Y56800D02*
X566315D01*
X561176Y56400D02*
X566824D01*
X554937Y56800D02*
X556315D01*
X556537Y55200D02*
X570456D01*
X560391Y56000D02*
X567609D01*
X556937Y54800D02*
X570856D01*
X555737Y56000D02*
X557609D01*
X555337Y56400D02*
X556824D01*
X556137Y55600D02*
X570056D01*
X554137Y57600D02*
X555653D01*
X542433D02*
X548056D01*
X554537Y57200D02*
X555939D01*
X542217Y56800D02*
X548856D01*
X542337Y57200D02*
X548456D01*
X542071Y56400D02*
X549256D01*
X541692Y55600D02*
X550056D01*
X541897Y56000D02*
X549656D01*
X541454Y55200D02*
X550456D01*
X540859Y54400D02*
X551256D01*
X541178Y54800D02*
X550856D01*
X540488Y54000D02*
X551656D01*
X541262Y70475D02*
X558177Y53560D01*
X540054Y53600D02*
X552056D01*
X538851Y66805D02*
X555137Y50520D01*
X538895Y52800D02*
X552856D01*
X539535Y53200D02*
X552456D01*
X536589Y52000D02*
X553656D01*
X538045Y52400D02*
X553256D01*
X427475Y49600D02*
X555051D01*
X458891Y40850D02*
X476369D01*
X449689Y37729D02*
X456480Y44520D01*
X452729Y34689D02*
X458891Y40850D01*
X458841Y40800D02*
X476014D01*
X458441Y40400D02*
X475372D01*
X475028Y36000D02*
Y39370D01*
X458041Y40000D02*
X475124D01*
X457641Y39600D02*
X475032D01*
X426699Y52000D02*
X534277D01*
X426348Y52400D02*
X532821D01*
X426966Y51600D02*
X554056D01*
X425522Y53200D02*
X531331D01*
X425522Y53600D02*
X530812D01*
X425871Y52800D02*
X531971D01*
X427410Y50400D02*
X555113D01*
X427464Y50000D02*
X555062D01*
X427443Y49200D02*
X555081D01*
X427313Y50800D02*
X554856D01*
X427166Y51200D02*
X554456D01*
X427369Y48800D02*
X555153D01*
X425522Y56400D02*
X528795D01*
X425522Y56800D02*
X528649D01*
X425522Y56000D02*
X528969D01*
X425522Y57200D02*
X528529D01*
X425522Y57600D02*
X528434D01*
X425522Y53020D02*
Y65271D01*
Y54000D02*
X530378D01*
X425522Y54400D02*
X530007D01*
X425522Y55200D02*
X529412D01*
X425522Y55600D02*
X529174D01*
X425522Y54800D02*
X529688D01*
X427076Y48000D02*
X555433D01*
X427248Y48400D02*
X555269D01*
X426846Y47600D02*
X555653D01*
X426137Y46800D02*
X556315D01*
X426542Y47200D02*
X555939D01*
X425823Y46400D02*
X556824D01*
X425823Y44000D02*
X455959D01*
X425823Y43600D02*
X455559D01*
X425823Y43200D02*
X455159D01*
X425823Y46000D02*
X557609D01*
X425823Y44800D02*
X456824D01*
X425823Y44400D02*
X456359D01*
X425823Y42400D02*
X454359D01*
X425823Y42000D02*
X453959D01*
X425823Y41600D02*
X453559D01*
X425823Y42800D02*
X454759D01*
X425823Y39217D02*
Y46560D01*
Y40400D02*
X452359D01*
X425823Y40000D02*
X451959D01*
X425823Y39600D02*
X451559D01*
X425823Y41200D02*
X453159D01*
X425823Y40800D02*
X452759D01*
X456841Y38800D02*
X475028D01*
X457241Y39200D02*
X475028D01*
X456441Y38400D02*
X475028D01*
X455641Y37600D02*
X475028D01*
X456041Y38000D02*
X475028D01*
X455241Y37200D02*
X475028D01*
X454441Y36400D02*
X475028D01*
X454841Y36800D02*
X475028D01*
X454041Y36000D02*
X475028D01*
X453241Y35200D02*
X475028D01*
X453641Y35600D02*
X475028D01*
X452841Y34800D02*
X475044D01*
X475028Y35061D02*
Y36000D01*
X452800Y34400D02*
X475012D01*
X452865Y34000D02*
X474960D01*
X442697Y34800D02*
X444303D01*
X442800Y34400D02*
X444200D01*
X452892Y33600D02*
X474887D01*
X452883Y33200D02*
X474793D01*
X452837Y32800D02*
X474678D01*
X442865Y34000D02*
X444135D01*
X442892Y33600D02*
X444108D01*
X442883Y33200D02*
X444117D01*
X452753Y32400D02*
X474541D01*
X452629Y32000D02*
X474379D01*
X452461Y31600D02*
X474192D01*
X452243Y31200D02*
X473977D01*
X451966Y30800D02*
X473733D01*
X451613Y30400D02*
X473454D01*
X451155Y30000D02*
X473139D01*
X450523Y29600D02*
X472779D01*
X449401Y29200D02*
X472366D01*
X446841Y28800D02*
X471888D01*
X446441Y28400D02*
X471322D01*
X447241Y29200D02*
X447599D01*
X444981Y26941D02*
X447311Y29271D01*
X442753Y32400D02*
X444247D01*
X442837Y32800D02*
X444163D01*
X446041Y28000D02*
X470631D01*
X445641Y27600D02*
X469722D01*
X445241Y27200D02*
X468203D01*
X444981Y26941D02*
X465615D01*
X427041Y38000D02*
X449959D01*
X430078Y37600D02*
X436922D01*
X440078D02*
X446922D01*
X425841Y39200D02*
X451159D01*
X426241Y38800D02*
X450759D01*
X426641Y38400D02*
X450359D01*
X442113Y36000D02*
X444887D01*
X442359Y35600D02*
X444641D01*
X442551Y35200D02*
X444449D01*
X440869Y37200D02*
X446131D01*
X441400Y36800D02*
X445600D01*
X441800Y36400D02*
X445200D01*
X431800D02*
X435200D01*
X432113Y36000D02*
X434887D01*
X432359Y35600D02*
X434641D01*
X430869Y37200D02*
X436131D01*
X425823Y39217D02*
X427311Y37729D01*
X431400Y36800D02*
X435600D01*
X432697Y34800D02*
X434303D01*
X432800Y34400D02*
X434200D01*
X432865Y34000D02*
X434135D01*
X432551Y35200D02*
X434449D01*
X422892Y33600D02*
X424108D01*
X442629Y32000D02*
X443959D01*
X442461Y31600D02*
X443559D01*
X442243Y31200D02*
X443159D01*
X442109Y30150D02*
X444271Y32311D01*
X441966Y30800D02*
X442759D01*
X441613Y30400D02*
X442359D01*
X441342Y30150D02*
X442109D01*
X431613Y30400D02*
X435387D01*
X431966Y30800D02*
X435034D01*
X431342Y30150D02*
X435658D01*
X432883Y33200D02*
X434117D01*
X432892Y33600D02*
X434108D01*
X422883Y33200D02*
X424117D01*
X432753Y32400D02*
X434247D01*
X432837Y32800D02*
X434163D01*
X432629Y32000D02*
X434371D01*
X432461Y31600D02*
X434539D01*
X432243Y31200D02*
X434757D01*
X349294Y74800D02*
X385706D01*
X349294Y75200D02*
X385706D01*
X411931Y73350D02*
X552306D01*
X349294Y76000D02*
X385706D01*
X349294Y77200D02*
X385706D01*
X349294Y75600D02*
X385706D01*
X411381Y72800D02*
X552856D01*
X411781Y73200D02*
X552456D01*
X410981Y72400D02*
X553256D01*
X410581Y72000D02*
X421981D01*
X410181Y71600D02*
X421344D01*
X409781Y71200D02*
X420903D01*
X349294Y74000D02*
X385706D01*
X349294Y74400D02*
X385706D01*
X349294Y73600D02*
X385706D01*
X349294Y76800D02*
X385706D01*
X349294Y77390D02*
X385706D01*
X349294Y76400D02*
X385706D01*
X349294Y71600D02*
X385706D01*
X349294Y72000D02*
X385706D01*
X349294Y71200D02*
X385706D01*
X349294Y72800D02*
X385706D01*
X349294Y73200D02*
X385706D01*
X349294Y72400D02*
X385706D01*
X409381Y70800D02*
X420575D01*
X408981Y70400D02*
X420326D01*
X408581Y70000D02*
X420140D01*
X408181Y69600D02*
X420006D01*
X406181Y67600D02*
X420003D01*
X405381Y66800D02*
X420321D01*
X405781Y67200D02*
X420135D01*
X404981Y66400D02*
X420568D01*
X404181Y65600D02*
X421222D01*
X404581Y66000D02*
X420893D01*
X403781Y65200D02*
X421222D01*
X407781Y69200D02*
X419919D01*
X407381Y68800D02*
X419876D01*
X398061Y59480D02*
X411931Y73350D01*
X385706Y62950D02*
Y77390D01*
X349294Y70800D02*
X385706D01*
X349294Y62095D02*
Y77390D01*
X406581Y68000D02*
X419917D01*
X406981Y68400D02*
X419875D01*
X349294Y68000D02*
X385706D01*
X349294Y67600D02*
X385706D01*
X349294Y67200D02*
X385706D01*
X301045Y75600D02*
X340504D01*
X300645Y76000D02*
X340504D01*
X301445Y75200D02*
X340504D01*
X40720Y77200D02*
X340504D01*
X40720Y77390D02*
X340504D01*
X299593Y76800D02*
X340504D01*
X349294Y70000D02*
X385706D01*
X349294Y70400D02*
X385706D01*
X349294Y69600D02*
X385706D01*
X302245Y74400D02*
X340504D01*
X301845Y74800D02*
X340504D01*
X302645Y74000D02*
X340504D01*
X304245Y72400D02*
X340504D01*
X303845Y72800D02*
X340504D01*
X304645Y72000D02*
X340504D01*
X303045Y73600D02*
X340504D01*
X300241Y76400D02*
X340504D01*
X303445Y73200D02*
X340504D01*
X306645Y70000D02*
X340504D01*
X306245Y70400D02*
X340504D01*
X307045Y69600D02*
X340504D01*
X305445Y71200D02*
X340504D01*
X305045Y71600D02*
X340504D01*
X305845Y70800D02*
X340504D01*
X349294Y68800D02*
X385706D01*
X349294Y69200D02*
X385706D01*
X349294Y68400D02*
X385706D01*
X308645Y68000D02*
X340504D01*
X308245Y68400D02*
X340504D01*
Y62095D02*
Y77390D01*
X349294Y65600D02*
X385706D01*
X349294Y66000D02*
X385706D01*
X349294Y65200D02*
X385706D01*
X349294Y66800D02*
X385706D01*
X309045Y67600D02*
X340504D01*
X349294Y66400D02*
X385706D01*
X310245D02*
X340504D01*
X309845Y66800D02*
X340504D01*
X332406Y66000D02*
X340504D01*
X307845Y68800D02*
X340504D01*
X307445Y69200D02*
X340504D01*
X309445Y67200D02*
X340504D01*
X334363Y65200D02*
X340504D01*
X333585Y65600D02*
X340504D01*
X311445Y65200D02*
X327055D01*
X310645Y66000D02*
X329012D01*
X311045Y65600D02*
X327832D01*
X402981Y64400D02*
X421222D01*
X403381Y64800D02*
X421222D01*
X402581Y64000D02*
X421222D01*
X401781Y63200D02*
X421222D01*
X402181Y63600D02*
X421222D01*
X401381Y62800D02*
X421222D01*
X400581Y62000D02*
X421222D01*
X400981Y62400D02*
X421222D01*
X400181Y61600D02*
X421222D01*
X399381Y60800D02*
X421222D01*
X399781Y61200D02*
X421222D01*
X398981Y60400D02*
X421222D01*
X349294Y63200D02*
X385706D01*
X349294Y63600D02*
X385706D01*
X363800Y62950D02*
X385706D01*
X349294Y64400D02*
X385706D01*
X349294Y64800D02*
X385706D01*
X349294Y64000D02*
X385706D01*
X349294Y62800D02*
X363011D01*
X349294Y62400D02*
X362364D01*
X340504Y62095D02*
X349294D01*
X337730Y60400D02*
X360359D01*
X398341Y59200D02*
X421222D01*
X398581Y60000D02*
X421222D01*
X398741Y58800D02*
X421222D01*
X398181Y59600D02*
X421222D01*
X399541Y58000D02*
X421222D01*
X399141Y58400D02*
X421222D01*
X380908Y57600D02*
X393859D01*
X364441Y58400D02*
X393161D01*
X364691Y58650D02*
X393037D01*
X380908Y58000D02*
X393460D01*
X337856Y59200D02*
X359159D01*
X337853Y58800D02*
X358759D01*
X358243Y58283D02*
X362280Y62320D01*
X337795Y60000D02*
X359959D01*
X337837Y59600D02*
X359559D01*
X337828Y58400D02*
X358359D01*
X374090Y58283D02*
X380908D01*
X364041Y58000D02*
X374090D01*
X363641Y57600D02*
X374090D01*
X354091Y58283D02*
X358243D01*
X337780Y58000D02*
X354091D01*
X335457Y64400D02*
X340504D01*
X334964Y64800D02*
X340504D01*
X335872Y64000D02*
X340504D01*
X311845Y64800D02*
X326453D01*
X312245Y64400D02*
X325961D01*
X312645Y64000D02*
X325545D01*
X337027Y62400D02*
X340504D01*
X336799Y62800D02*
X340504D01*
X337223Y62000D02*
X361959D01*
X336227Y63600D02*
X340504D01*
X313045D02*
X325190D01*
X336534Y63200D02*
X340504D01*
X313445D02*
X324884D01*
X313845Y62800D02*
X324619D01*
X226562D02*
X307764D01*
X225991Y63600D02*
X306964D01*
X225636Y64000D02*
X306564D01*
X226297Y63200D02*
X307364D01*
X314245Y62400D02*
X324390D01*
X314645Y62000D02*
X324194D01*
X315045Y61600D02*
X324028D01*
X226791Y62400D02*
X308164D01*
X226987Y62000D02*
X308564D01*
X337390Y61600D02*
X361559D01*
X337528Y61200D02*
X361159D01*
X337642Y60800D02*
X360759D01*
X315445Y61200D02*
X323889D01*
X315845Y60800D02*
X323776D01*
X316245Y60400D02*
X323687D01*
X318645Y58000D02*
X323638D01*
X318245Y58400D02*
X323589D01*
X337708Y57600D02*
X354091D01*
X316645Y60000D02*
X323622D01*
X317045Y59600D02*
X323580D01*
X317845Y58800D02*
X323564D01*
X227559Y60000D02*
X310564D01*
X227494Y60400D02*
X310164D01*
X227601Y59600D02*
X310964D01*
X227292Y61200D02*
X309364D01*
X227153Y61600D02*
X308964D01*
X227406Y60800D02*
X309764D01*
X317445Y59200D02*
X323561D01*
X227620D02*
X311364D01*
X227617Y58800D02*
X311764D01*
X227592Y58400D02*
X312164D01*
X227543Y58000D02*
X312564D01*
X277501Y72400D02*
X298164D01*
X126224Y76950D02*
X298804D01*
X127114Y72650D02*
X274991D01*
X276790D02*
X297914D01*
X278960Y71200D02*
X299364D01*
X278623Y71600D02*
X298964D01*
X279216Y70800D02*
X299764D01*
X126864Y72400D02*
X274280D01*
X247413Y72000D02*
X273612D01*
X278169D02*
X298564D01*
X228515D02*
X244028D01*
X229153Y71600D02*
X243391D01*
X248050D02*
X273158D01*
X126464Y72000D02*
X225131D01*
X126064Y71600D02*
X224493D01*
X125664Y71200D02*
X224053D01*
X248490D02*
X272821D01*
X248818Y70800D02*
X272565D01*
X249067Y70400D02*
X272373D01*
X229593Y71200D02*
X242951D01*
X229921Y70800D02*
X242623D01*
X125264D02*
X223725D01*
X279547Y70000D02*
X300564D01*
X279408Y70400D02*
X300164D01*
X279638Y69600D02*
X300964D01*
X249254Y70000D02*
X272234D01*
X279690Y68800D02*
X301764D01*
X279685Y69200D02*
X301364D01*
X279653Y68400D02*
X302164D01*
X249388Y69600D02*
X272143D01*
X249475Y69200D02*
X272096D01*
X249518Y68400D02*
X272129D01*
X230356Y70000D02*
X242187D01*
X230490Y69600D02*
X242053D01*
X230170Y70400D02*
X242374D01*
X124864D02*
X223476D01*
X249518Y68800D02*
X272091D01*
X230620D02*
X241923D01*
X230621Y68400D02*
X241923D01*
X230577Y69200D02*
X241966D01*
X230579Y68000D02*
X241965D01*
X121076Y72693D02*
X124703Y76320D01*
X40720Y76800D02*
X125435D01*
X40720Y76400D02*
X124787D01*
X40720Y76000D02*
X124383D01*
X40720Y74400D02*
X122783D01*
X40720Y74000D02*
X122383D01*
X40720Y73600D02*
X121983D01*
X40720Y75600D02*
X123983D01*
X40720Y75200D02*
X123583D01*
X40720Y74800D02*
X123183D01*
X40720Y72800D02*
X121183D01*
X72529Y72000D02*
X88990D01*
X91427D02*
X118101D01*
X40720Y73200D02*
X121583D01*
X40720Y72400D02*
X118768D01*
X40720Y72000D02*
X70093D01*
X92260Y71600D02*
X117646D01*
X92779Y71200D02*
X117309D01*
X73882D02*
X87638D01*
X73362Y71600D02*
X88158D01*
X40720D02*
X69260D01*
X40720Y71200D02*
X68740D01*
X124464Y70000D02*
X223289D01*
X124117Y69653D02*
X127114Y72650D01*
X93135Y70826D02*
X117068D01*
X124174Y69200D02*
X223069D01*
X124178Y68800D02*
X223026D01*
X124141Y68400D02*
X223025D01*
X124126Y69600D02*
X223155D01*
X124060Y68000D02*
X223067D01*
X74259Y70800D02*
X87261D01*
X74448Y70548D02*
X87072D01*
X40720Y70800D02*
X68363D01*
X40720Y70400D02*
X68078D01*
X40720Y70000D02*
X67862D01*
X40720Y68800D02*
X67530D01*
X40720Y68400D02*
X67508D01*
X40720Y68000D02*
X67529D01*
X40720Y69600D02*
X67703D01*
X40720Y69200D02*
X67594D01*
X279444Y67600D02*
X302964D01*
X279571Y68000D02*
X302564D01*
X279264Y67200D02*
X303364D01*
X249391Y67600D02*
X272337D01*
X249477Y68000D02*
X272210D01*
X249258Y67200D02*
X272517D01*
X279024Y66800D02*
X303764D01*
X249073D02*
X272757D01*
X278707Y66400D02*
X304164D01*
X248826D02*
X273074D01*
X229928D02*
X242615D01*
X229603Y66000D02*
X242940D01*
X230361Y67200D02*
X242183D01*
X230493Y67600D02*
X242050D01*
X230176Y66800D02*
X242368D01*
X123752Y67200D02*
X223285D01*
X123932Y67600D02*
X223152D01*
X123512Y66800D02*
X223470D01*
X123195Y66400D02*
X223717D01*
X93519Y66526D02*
X117453D01*
X222169Y66000D02*
X224043D01*
X93445Y66400D02*
X117562D01*
X74448Y66248D02*
X87072D01*
X74263Y66000D02*
X87257D01*
X277681Y65600D02*
X304964D01*
X278284Y66000D02*
X304564D01*
X276491Y65200D02*
X305364D01*
X248064Y65600D02*
X274100D01*
X248501Y66000D02*
X273497D01*
X229167Y65600D02*
X243376D01*
X247435Y65200D02*
X275290D01*
X228537D02*
X244006D01*
X245971Y64800D02*
X305764D01*
X227074D02*
X245470D01*
X224728D02*
X226572D01*
X225220Y64400D02*
X306164D01*
X223349Y65600D02*
X224479D01*
X122772Y66000D02*
X218775D01*
X122169Y65600D02*
X217596D01*
X93160Y66000D02*
X117985D01*
X73887Y65600D02*
X87633D01*
X120979Y65200D02*
X216818D01*
X92784Y65600D02*
X118589D01*
X224127Y65200D02*
X225109D01*
X92267D02*
X119779D01*
X91441Y64800D02*
X216217D01*
X73461D02*
X88977D01*
X73461Y65200D02*
X88151D01*
X73461Y64400D02*
X215724D01*
X40720Y65200D02*
X69161D01*
X40720Y64800D02*
X69161D01*
X73461Y64000D02*
X215309D01*
X73461Y63600D02*
X214954D01*
X73461Y63200D02*
X214647D01*
X73461Y62800D02*
X214383D01*
X40720Y63600D02*
X69161D01*
X73461Y62400D02*
X214154D01*
X40720Y66000D02*
X68359D01*
X40720Y66400D02*
X68075D01*
X40720Y65600D02*
X68735D01*
X40720Y67200D02*
X67702D01*
X40720Y67600D02*
X67593D01*
X40720Y66800D02*
X67860D01*
X40720Y62800D02*
X69161D01*
X40720Y63200D02*
X69161D01*
X40720Y62400D02*
X69161D01*
X40720Y64400D02*
X69161D01*
X40720Y64000D02*
X69161D01*
X73461Y60800D02*
X213539D01*
X73461Y60400D02*
X213451D01*
X73461Y60000D02*
X213386D01*
X73461Y62000D02*
X213958D01*
X73461Y61600D02*
X213791D01*
X73461Y61200D02*
X213653D01*
X73461Y58000D02*
X213402D01*
X73461Y58400D02*
X213353D01*
X73461Y57600D02*
X213473D01*
X73461Y59600D02*
X213344D01*
X73461Y59200D02*
X213325D01*
X73461Y58800D02*
X213328D01*
X40720Y60400D02*
X69161D01*
X40720Y60800D02*
X69161D01*
X40720Y60000D02*
X69161D01*
X40720Y61600D02*
X69161D01*
X40720Y62000D02*
X69161D01*
X40720Y61200D02*
X69161D01*
X40720Y58400D02*
X69161D01*
X40720Y58800D02*
X69161D01*
X40720Y58000D02*
X69161D01*
X40720Y59600D02*
X69161D01*
X40720Y59200D02*
X69161D01*
X401541Y56000D02*
X421222D01*
X401141Y56400D02*
X421222D01*
X401941Y55600D02*
X421222D01*
X400341Y57200D02*
X421222D01*
X399941Y57600D02*
X421222D01*
X400741Y56800D02*
X421222D01*
X403941Y53600D02*
X421222D01*
X403541Y54000D02*
X421222D01*
X404341Y53200D02*
X421222D01*
X402741Y54800D02*
X421222D01*
X402341Y55200D02*
X421222D01*
X403141Y54400D02*
X421222D01*
Y52604D02*
Y65687D01*
X405941Y51600D02*
X420381D01*
X406341Y51200D02*
X420180D01*
X404741Y52800D02*
X421222D01*
X405141Y52400D02*
X420998D01*
X405541Y52000D02*
X420647D01*
X408341Y49200D02*
X419903D01*
X407941Y49600D02*
X419872D01*
X408741Y48800D02*
X419978D01*
X406741Y50800D02*
X420034D01*
X407141Y50400D02*
X419936D01*
X407541Y50000D02*
X419883D01*
X410612Y46400D02*
X421523D01*
Y38327D02*
Y46560D01*
X410284Y47200D02*
X420805D01*
X409941Y47600D02*
X420501D01*
X410496Y46800D02*
X421210D01*
X410650Y44400D02*
X421523D01*
X410650Y44800D02*
X421523D01*
X410650Y44000D02*
X421523D01*
X410650Y45600D02*
X421523D01*
X410650Y46000D02*
X421523D01*
X410650Y45200D02*
X421523D01*
X409541Y48000D02*
X420270D01*
X409141Y48400D02*
X420098D01*
X398061Y59480D02*
X410020Y47520D01*
X393500Y57959D02*
X406350Y45109D01*
Y37331D02*
Y45109D01*
X392181Y44000D02*
X406350D01*
X410650Y37331D02*
Y46000D01*
X391381Y44800D02*
X406350D01*
X391781Y44400D02*
X406350D01*
X380908Y53600D02*
X397859D01*
X380908Y54000D02*
X397459D01*
X380908Y53200D02*
X398259D01*
X380908Y54800D02*
X396659D01*
X380908Y55200D02*
X396259D01*
X380908Y54400D02*
X397059D01*
X380908Y51200D02*
X400259D01*
X380908Y51600D02*
X399859D01*
X380908Y50800D02*
X400659D01*
X380908Y52400D02*
X399059D01*
X380908Y52800D02*
X398659D01*
X380908Y52000D02*
X399459D01*
X380908Y56000D02*
X395459D01*
X380908Y56400D02*
X395059D01*
X380908Y55600D02*
X395859D01*
X380908Y56800D02*
X394659D01*
X380908Y57200D02*
X394259D01*
X380908Y50650D02*
Y58283D01*
X360910Y54800D02*
X374090D01*
X361241Y55200D02*
X374090D01*
X380908Y50650D02*
X384641D01*
X360910Y53600D02*
X374090D01*
X360910Y54400D02*
X374090D01*
X360910Y53200D02*
X374090D01*
X388181Y48000D02*
X403459D01*
X387781Y48400D02*
X403059D01*
X388581Y47600D02*
X403859D01*
X387381Y48800D02*
X402659D01*
X386981Y49200D02*
X402259D01*
X386161Y50020D02*
X404502Y31679D01*
X390581Y45600D02*
X405859D01*
X390181Y46000D02*
X405459D01*
X390981Y45200D02*
X406259D01*
X389381Y46800D02*
X404659D01*
X388981Y47200D02*
X404259D01*
X389781Y46400D02*
X405059D01*
X386181Y50000D02*
X401459D01*
X385647Y50400D02*
X401059D01*
X386581Y49600D02*
X401859D01*
X360910D02*
X374090D01*
X360910Y44400D02*
X374090D01*
X360910Y44800D02*
X374090D01*
X360910Y44000D02*
X374090D01*
X360910Y49200D02*
X374090D01*
X360910Y46800D02*
X374090D01*
X422153Y36806D02*
X424271Y34689D01*
X420869Y37200D02*
X421842D01*
X420078Y37600D02*
X421650D01*
X421400Y36800D02*
X422159D01*
X422697Y34800D02*
X424159D01*
X422551Y35200D02*
X423759D01*
X422800Y34400D02*
X424200D01*
X422113Y36000D02*
X422959D01*
X421800Y36400D02*
X422559D01*
X422359Y35600D02*
X423359D01*
X410650Y38000D02*
X421548D01*
X410869Y37200D02*
X416131D01*
X411400Y36800D02*
X415600D01*
X410650Y38800D02*
X421523D01*
X410650Y42800D02*
X421523D01*
X410650Y38400D02*
X421523D01*
X412551Y35200D02*
X414449D01*
X412697Y34800D02*
X414303D01*
X412800Y34400D02*
X414200D01*
X411800Y36400D02*
X415200D01*
X412113Y36000D02*
X414887D01*
X412359Y35600D02*
X414641D01*
X422837Y32800D02*
X424163D01*
X422865Y34000D02*
X424135D01*
X422753Y32400D02*
X424247D01*
X422629Y32000D02*
X424371D01*
X422243Y31200D02*
X424757D01*
X422461Y31600D02*
X424539D01*
X421966Y30800D02*
X425034D01*
X421342Y30150D02*
X425658D01*
X421613Y30400D02*
X425387D01*
X411342Y30150D02*
X415658D01*
X412865Y34000D02*
X414135D01*
X412892Y33600D02*
X414108D01*
X412883Y33200D02*
X414117D01*
X412753Y32400D02*
X414247D01*
X412837Y32800D02*
X414163D01*
X412461Y31600D02*
X414539D01*
X412629Y32000D02*
X414371D01*
X412243Y31200D02*
X414757D01*
X411966Y30800D02*
X415034D01*
X411613Y30400D02*
X415387D01*
X410650Y43200D02*
X421523D01*
X410650Y43600D02*
X421523D01*
X410650Y42400D02*
X421523D01*
X392981Y43200D02*
X406350D01*
X392581Y43600D02*
X406350D01*
X393781Y42400D02*
X406350D01*
X410650Y40400D02*
X421523D01*
X410650Y40800D02*
X421523D01*
X410650Y40000D02*
X421523D01*
X410650Y41600D02*
X421523D01*
X410650Y42000D02*
X421523D01*
X410650Y41200D02*
X421523D01*
X394181Y42000D02*
X406350D01*
X393381Y42800D02*
X406350D01*
X394581Y41600D02*
X406350D01*
X360910Y42400D02*
X374090D01*
X360910Y42800D02*
X374090D01*
X360910Y42000D02*
X374090D01*
X396181Y40000D02*
X406350D01*
X395781Y40400D02*
X406350D01*
X396581Y39600D02*
X406350D01*
X394981Y41200D02*
X406350D01*
X395381Y40800D02*
X406350D01*
X410650Y39200D02*
X421523D01*
X410650Y39600D02*
X421523D01*
X398181Y38000D02*
X406350D01*
X397381Y38800D02*
X406350D01*
X396981Y39200D02*
X406350D01*
X397781Y38400D02*
X406350D01*
X410650Y37600D02*
X416922D01*
X398581D02*
X406350D01*
X398981Y37200D02*
X406131D01*
X399381Y36800D02*
X405600D01*
X400981Y35200D02*
X404449D01*
X401381Y34800D02*
X404303D01*
X401781Y34400D02*
X404200D01*
X399781Y36400D02*
X405200D01*
X400181Y36000D02*
X404887D01*
X400581Y35600D02*
X404641D01*
X403381Y32800D02*
X404163D01*
X402981Y33200D02*
X404117D01*
X403781Y32400D02*
X404247D01*
X402181Y34000D02*
X404135D01*
X402581Y33600D02*
X404108D01*
X362841Y56800D02*
X374090D01*
X363241Y57200D02*
X374090D01*
X360910Y54869D02*
X364691Y58650D01*
X337493Y56800D02*
X354091D01*
X337613Y57200D02*
X354091D01*
X337347Y56400D02*
X354091D01*
X362041Y56000D02*
X374090D01*
X362441Y56400D02*
X374090D01*
X361641Y55600D02*
X374090D01*
X336967D02*
X354091D01*
X337172Y56000D02*
X354091D01*
X336454Y54800D02*
X354091D01*
X319845Y56800D02*
X323924D01*
X319445Y57200D02*
X323804D01*
X320245Y56400D02*
X324071D01*
X319045Y57600D02*
X323709D01*
X227472D02*
X312964D01*
X227377Y57200D02*
X313364D01*
X336729Y55200D02*
X354091D01*
X321845Y54800D02*
X324964D01*
X322245Y54400D02*
X325283D01*
X321045Y55600D02*
X324450D01*
X320645Y56000D02*
X324245D01*
X321445Y55200D02*
X324688D01*
X360910Y54000D02*
X374090D01*
X360910Y40720D02*
Y54869D01*
X374090Y40720D02*
Y58283D01*
X335764Y54000D02*
X354091D01*
X336135Y54400D02*
X354091D01*
Y51315D02*
Y58283D01*
X360910Y52800D02*
X374090D01*
X335330Y53600D02*
X354091D01*
X360910Y52400D02*
X374090D01*
X334171Y52800D02*
X354091D01*
X334811Y53200D02*
X354091D01*
X333320Y52400D02*
X354091D01*
X323045Y53600D02*
X326088D01*
X322645Y54000D02*
X325653D01*
X300325Y76320D02*
X325330Y51315D01*
X297914Y72650D02*
X322919Y47645D01*
X323845Y52800D02*
X327247D01*
X323445Y53200D02*
X326606D01*
X229498Y52400D02*
X318164D01*
X228302Y53200D02*
X317364D01*
X229021Y52800D02*
X317764D01*
X227110Y56400D02*
X314164D01*
X227257Y56800D02*
X313764D01*
X226936Y56000D02*
X314564D01*
X73461Y55600D02*
X214214D01*
X73461Y56000D02*
X214009D01*
X226731Y55600D02*
X314964D01*
X226218Y54800D02*
X315764D01*
X226493Y55200D02*
X315364D01*
X225898Y54400D02*
X316164D01*
X73461Y54800D02*
X214727D01*
X73461Y55200D02*
X214452D01*
X73461Y54400D02*
X215047D01*
X73461Y57200D02*
X213568D01*
X40720D02*
X69161D01*
X73461Y56800D02*
X213688D01*
X40720D02*
X69161D01*
X40720Y57600D02*
X69161D01*
X40720Y56400D02*
X69161D01*
X73461D02*
X213835D01*
X40720Y56000D02*
X69161D01*
X40720Y55600D02*
X69161D01*
X40720Y54800D02*
X69161D01*
X40720Y55200D02*
X69161D01*
X40720Y54400D02*
X69161D01*
X225093Y53600D02*
X316964D01*
X225528Y54000D02*
X316564D01*
X73461Y53600D02*
X215851D01*
X224575Y53200D02*
X225343D01*
X223934Y52800D02*
X224625D01*
X223084Y52400D02*
X224148D01*
X73461Y52800D02*
X217010D01*
X73461Y53200D02*
X216370D01*
X73771Y52400D02*
X217861D01*
X73461Y54000D02*
X215417D01*
X73461Y52637D02*
Y65261D01*
X69161Y52637D02*
Y65261D01*
X40720Y53600D02*
X69161D01*
X40720Y54000D02*
X69161D01*
X40720Y40720D02*
Y77390D01*
Y53200D02*
X69161D01*
X40720Y52800D02*
X69161D01*
X40720Y52400D02*
X68851D01*
X360910Y52000D02*
X374090D01*
X331865D02*
X354091D01*
X360910Y51600D02*
X374090D01*
X325045D02*
X354091D01*
X324645Y52000D02*
X329553D01*
X325330Y51315D02*
X354091D01*
X360910Y48800D02*
X374090D01*
X360910Y50000D02*
X374090D01*
X360910Y48400D02*
X374090D01*
X360910Y50800D02*
X374090D01*
X360910Y51200D02*
X374090D01*
X360910Y50400D02*
X374090D01*
X324245Y52400D02*
X328097D01*
X230316Y51200D02*
X319364D01*
X230462Y50800D02*
X319764D01*
X229849Y52000D02*
X318564D01*
X221629D02*
X223797D01*
X230115Y51600D02*
X318964D01*
X230624Y49600D02*
X320964D01*
X230613Y50000D02*
X320564D01*
X230593Y49200D02*
X321364D01*
X230518Y48800D02*
X321764D01*
X230560Y50400D02*
X320164D01*
X230398Y48400D02*
X322164D01*
X360910Y46000D02*
X374090D01*
X360910Y46400D02*
X374090D01*
X360910Y45600D02*
X374090D01*
X360910Y47600D02*
X374090D01*
X360910Y48000D02*
X374090D01*
X360910Y47200D02*
X374090D01*
X360910Y40800D02*
X374090D01*
X360910Y41600D02*
X374090D01*
X360910Y40720D02*
X374090D01*
X360910Y43600D02*
X374090D01*
X360910Y45200D02*
X374090D01*
X360910Y43200D02*
X374090D01*
X354091Y40720D02*
Y47015D01*
X229995Y47600D02*
X322965D01*
X230226Y48000D02*
X322564D01*
X229691Y47200D02*
X323568D01*
X229286Y46800D02*
X354091D01*
X324439Y47015D02*
X354091D01*
X360910Y41200D02*
X374090D01*
X228718Y46400D02*
X354091D01*
X227714Y46000D02*
X354091D01*
X74713Y51200D02*
X223330D01*
X74885Y50800D02*
X223184D01*
X75006Y50400D02*
X223086D01*
X74177Y52000D02*
X219316D01*
X40720D02*
X68445D01*
X74481Y51600D02*
X223531D01*
X75081Y50000D02*
X223032D01*
X75112Y49600D02*
X223021D01*
X75102Y49200D02*
X223053D01*
X74951Y48400D02*
X223248D01*
X75049Y48800D02*
X223127D01*
X74805Y48000D02*
X223420D01*
X40720Y50400D02*
X67616D01*
X40720Y50000D02*
X67541D01*
X40720Y49600D02*
X67510D01*
X40720Y51600D02*
X68141D01*
X40720Y51200D02*
X67909D01*
X40720Y50800D02*
X67737D01*
X40720Y48000D02*
X67817D01*
X40720Y48400D02*
X67671D01*
X40720Y47600D02*
X68017D01*
X40720Y49200D02*
X67520D01*
X40720Y48800D02*
X67573D01*
X40720Y44000D02*
X354091D01*
X40720Y44400D02*
X354091D01*
X40720Y43600D02*
X354091D01*
X40720Y45200D02*
X354091D01*
X40720Y45600D02*
X354091D01*
X40720Y44800D02*
X354091D01*
X40720Y40800D02*
X354091D01*
X40720Y41200D02*
X354091D01*
X40720Y40720D02*
X354091D01*
X40720Y42800D02*
X354091D01*
X40720Y43200D02*
X354091D01*
X40720Y41600D02*
X354091D01*
X74339Y47200D02*
X223955D01*
X74605Y47600D02*
X223650D01*
X73989Y46800D02*
X224359D01*
X40720D02*
X68633D01*
X40720Y47200D02*
X68283D01*
X73514Y46400D02*
X224928D01*
X72798Y46000D02*
X225932D01*
X40720Y46400D02*
X69108D01*
X40720Y46000D02*
X69824D01*
X40720Y42400D02*
X354091D01*
X40720Y42000D02*
X354091D01*
D25*
X405141Y28000D02*
X443000D01*
X384641Y48500D02*
X405141Y28000D01*
X378164Y48500D02*
X384641D01*
X448500Y33500D02*
X458000Y43000D01*
X579000D02*
X720408D01*
X458000D02*
X579000D01*
X569000Y59697D02*
X579000Y49697D01*
Y43000D02*
Y49697D01*
X720408Y43000D02*
X746363Y68955D01*
X395020Y59480D02*
X411041Y75500D01*
X395020Y59480D02*
X408500Y46000D01*
X363800Y60800D02*
X395859D01*
X357500Y54500D02*
X363800Y60800D01*
X411041Y75500D02*
X553197D01*
X324439Y49165D02*
X357500D01*
X298804Y74800D02*
X324439Y49165D01*
X126224Y74800D02*
X298804D01*
X120379Y68955D02*
X126224Y74800D01*
X423372Y68955D02*
X539742D01*
X423372Y49697D02*
Y68955D01*
X539742D02*
X559000Y49697D01*
X553197Y75500D02*
X559000Y69697D01*
X357500Y49165D02*
Y54500D01*
X408500Y33500D02*
Y46000D01*
X377499Y49165D02*
X378164Y48500D01*
X443000Y28000D02*
X448500Y33500D01*
X423673Y38327D02*
X428500Y33500D01*
X423673Y38327D02*
Y49697D01*
X746363Y68955D02*
X746634Y68684D01*
X775662D01*
X775933Y68413D01*
X794831D01*
Y49516D02*
Y68413D01*
X120100Y68676D02*
X120379Y68955D01*
X90487Y68676D02*
X120100D01*
X90209Y68398D02*
X90487Y68676D01*
X71311Y68398D02*
X90209D01*
X71311Y49500D02*
Y68398D01*
D26*
X746363Y49255D02*
D03*
X590851D02*
D03*
X492300Y48700D02*
D03*
X275890Y49255D02*
D03*
X120379D02*
D03*
D27*
X746363Y68955D02*
D03*
X794831Y68413D02*
D03*
Y49516D02*
D03*
X775933Y68413D02*
D03*
Y49516D02*
D03*
X590851Y68955D02*
D03*
X639319Y68413D02*
D03*
Y49516D02*
D03*
X620421Y68413D02*
D03*
Y49516D02*
D03*
X492300Y68400D02*
D03*
X442571Y49697D02*
D03*
Y68594D02*
D03*
X423673Y49697D02*
D03*
Y68594D02*
D03*
X461469Y49697D02*
D03*
Y68594D02*
D03*
X275890Y68955D02*
D03*
X226823Y49697D02*
D03*
Y68594D02*
D03*
X245721Y49697D02*
D03*
Y68594D02*
D03*
X120379Y68955D02*
D03*
X71311Y49500D02*
D03*
Y68398D02*
D03*
X90209Y49500D02*
D03*
Y68398D02*
D03*
D28*
X645669Y59055D02*
D03*
X220472D02*
D03*
X535433D02*
D03*
X330709D02*
D03*
D29*
X559000Y69697D02*
D03*
X569000D02*
D03*
X559000Y59697D02*
D03*
X569000D02*
D03*
X559000Y49697D02*
D03*
X569000D02*
D03*
D30*
X458500Y33500D02*
D03*
X408500D02*
D03*
X418500D02*
D03*
X428500D02*
D03*
X448500D02*
D03*
X438500D02*
D03*
D31*
X415500Y47200D02*
D03*
X398500Y44800D02*
D03*
X703000Y50800D02*
D03*
X703500Y61200D02*
D03*
X449500Y49600D02*
D03*
X436000D02*
D03*
X513500Y54000D02*
D03*
Y62800D02*
D03*
X367499Y42800D02*
D03*
X311000Y53600D02*
D03*
X297000Y62800D02*
D03*
M02*
