G04*
G04 #@! TF.GenerationSoftware,Altium Limited,Altium Designer,20.0.12 (288)*
G04*
G04 Layer_Color=16711935*
%FSLAX25Y25*%
%MOIN*%
G70*
G01*
G75*
%ADD19R,0.06706X0.06706*%
%ADD20C,0.06706*%
%ADD21C,0.13398*%
%ADD22C,0.07000*%
%ADD23C,0.07887*%
D19*
X746363Y49255D02*
D03*
X590851D02*
D03*
X492300Y48700D02*
D03*
X275890Y49255D02*
D03*
X120379D02*
D03*
D20*
X746363Y68955D02*
D03*
X794831Y68413D02*
D03*
Y49516D02*
D03*
X775933Y68413D02*
D03*
Y49516D02*
D03*
X590851Y68955D02*
D03*
X639319Y68413D02*
D03*
Y49516D02*
D03*
X620421Y68413D02*
D03*
Y49516D02*
D03*
X492300Y68400D02*
D03*
X442571Y49697D02*
D03*
Y68594D02*
D03*
X423673Y49697D02*
D03*
Y68594D02*
D03*
X461469Y49697D02*
D03*
Y68594D02*
D03*
X275890Y68955D02*
D03*
X226823Y49697D02*
D03*
Y68594D02*
D03*
X245721Y49697D02*
D03*
Y68594D02*
D03*
X120379Y68955D02*
D03*
X71311Y49500D02*
D03*
Y68398D02*
D03*
X90209Y49500D02*
D03*
Y68398D02*
D03*
D21*
X645669Y59055D02*
D03*
X220472D02*
D03*
X535433D02*
D03*
X330709D02*
D03*
D22*
X559000Y69697D02*
D03*
X569000D02*
D03*
X559000Y59697D02*
D03*
X569000D02*
D03*
X559000Y49697D02*
D03*
X569000D02*
D03*
D23*
X458500Y33500D02*
D03*
X408500D02*
D03*
X418500D02*
D03*
X428500D02*
D03*
X448500D02*
D03*
X438500D02*
D03*
M02*
