G04*
G04 #@! TF.GenerationSoftware,Altium Limited,Altium Designer,20.0.12 (288)*
G04*
G04 Layer_Color=16711935*
%FSLAX25Y25*%
%MOIN*%
G70*
G01*
G75*
%ADD10C,0.01000*%
D10*
X466278Y25764D02*
X467296Y25753D01*
X468310Y25850D01*
X469308Y26056D01*
X470278Y26366D01*
X471209Y26779D01*
X472090Y27289D01*
X472912Y27890D01*
X473665Y28576D01*
X474341Y29338D01*
X474931Y30168D01*
X475429Y31056D01*
X475829Y31993D01*
X476127Y32967D01*
X476319Y33967D01*
X476403Y34982D01*
X476378Y36000D01*
X389764Y35827D02*
X389739Y34809D01*
X389823Y33794D01*
X390015Y32794D01*
X390313Y31820D01*
X390713Y30883D01*
X391211Y29995D01*
X391801Y29165D01*
X392476Y28403D01*
X393229Y27717D01*
X394052Y27116D01*
X394933Y26606D01*
X395864Y26193D01*
X396834Y25883D01*
X397832Y25677D01*
X398845Y25580D01*
X399864Y25591D01*
X389764Y35827D02*
Y39370D01*
X476378Y35061D02*
Y39370D01*
X39370D02*
Y78740D01*
X826772Y39500D02*
Y78740D01*
X400000Y25591D02*
X466642D01*
X476378Y39500D02*
X826772Y39500D01*
X39370Y39370D02*
X389500D01*
X39370Y78740D02*
X826772D01*
M02*
