G04*
G04 #@! TF.GenerationSoftware,Altium Limited,Altium Designer,20.0.12 (288)*
G04*
G04 Layer_Color=65535*
%FSLAX25Y25*%
%MOIN*%
G70*
G01*
G75*
%ADD10C,0.01000*%
%ADD11C,0.00591*%
%ADD12C,0.00800*%
%ADD13C,0.00787*%
%ADD14C,0.00600*%
D10*
X764080Y59155D02*
X764051Y60157D01*
X763966Y61156D01*
X763825Y62149D01*
X763627Y63132D01*
X763375Y64103D01*
X763067Y65057D01*
X762707Y65993D01*
X762294Y66906D01*
X761830Y67795D01*
X761316Y68657D01*
X760755Y69487D01*
X760147Y70285D01*
X759495Y71047D01*
X758802Y71771D01*
X758068Y72454D01*
X757297Y73095D01*
X756491Y73692D01*
X755652Y74241D01*
X754783Y74743D01*
X753888Y75194D01*
X752969Y75594D01*
X752028Y75941D01*
X751069Y76235D01*
X750096Y76474D01*
X749110Y76657D01*
X748115Y76785D01*
X747115Y76856D01*
X746112Y76870D01*
X745111Y76827D01*
X744113Y76728D01*
X743122Y76573D01*
X742142Y76362D01*
X741175Y76095D01*
X740225Y75775D01*
X739295Y75401D01*
X738387Y74975D01*
X737505Y74498D01*
X736651Y73972D01*
X735828Y73399D01*
X735039Y72780D01*
X734286Y72118D01*
X733572Y71414D01*
X732899Y70671D01*
X732269Y69890D01*
X731685Y69076D01*
X731147Y68230D01*
X730658Y67354D01*
X730219Y66453D01*
X729832Y65528D01*
X729498Y64582D01*
X729218Y63619D01*
X728993Y62642D01*
X728824Y61654D01*
X728710Y60658D01*
X728653Y59657D01*
X728653Y58654D01*
X728710Y57653D01*
X728824Y56656D01*
X728993Y55668D01*
X729218Y54691D01*
X729498Y53728D01*
X729832Y52783D01*
X730219Y51858D01*
X730658Y50956D01*
X731147Y50081D01*
X731685Y49234D01*
X732269Y48420D01*
X732899Y47640D01*
X733572Y46896D01*
X734286Y46192D01*
X735039Y45530D01*
X735828Y44911D01*
X736651Y44338D01*
X737505Y43812D01*
X738387Y43336D01*
X739295Y42910D01*
X740225Y42536D01*
X741175Y42215D01*
X742142Y41949D01*
X743122Y41737D01*
X744113Y41582D01*
X745110Y41483D01*
X746112Y41440D01*
X747115Y41454D01*
X748115Y41525D01*
X749110Y41653D01*
X750096Y41836D01*
X751069Y42075D01*
X752028Y42369D01*
X752969Y42716D01*
X753888Y43116D01*
X754783Y43568D01*
X755652Y44069D01*
X756491Y44619D01*
X757297Y45215D01*
X758068Y45856D01*
X758802Y46539D01*
X759495Y47263D01*
X760147Y48025D01*
X760755Y48823D01*
X761316Y49654D01*
X761830Y50515D01*
X762294Y51404D01*
X762707Y52318D01*
X763067Y53253D01*
X763375Y54208D01*
X763627Y55178D01*
X763825Y56161D01*
X763966Y57154D01*
X764051Y58153D01*
X764080Y59155D01*
X608568D02*
X608539Y60157D01*
X608454Y61156D01*
X608313Y62149D01*
X608115Y63132D01*
X607863Y64103D01*
X607556Y65057D01*
X607195Y65993D01*
X606782Y66906D01*
X606318Y67795D01*
X605804Y68657D01*
X605243Y69487D01*
X604635Y70285D01*
X603983Y71047D01*
X603290Y71771D01*
X602556Y72454D01*
X601785Y73095D01*
X600979Y73692D01*
X600140Y74241D01*
X599272Y74743D01*
X598376Y75194D01*
X597457Y75594D01*
X596516Y75941D01*
X595557Y76235D01*
X594584Y76474D01*
X593598Y76657D01*
X592603Y76785D01*
X591603Y76856D01*
X590600Y76870D01*
X589599Y76827D01*
X588601Y76728D01*
X587610Y76573D01*
X586630Y76362D01*
X585663Y76095D01*
X584713Y75775D01*
X583783Y75401D01*
X582875Y74975D01*
X581993Y74498D01*
X581139Y73972D01*
X580316Y73399D01*
X579527Y72780D01*
X578775Y72118D01*
X578061Y71414D01*
X577388Y70671D01*
X576758Y69890D01*
X576173Y69076D01*
X575635Y68230D01*
X575146Y67354D01*
X574707Y66453D01*
X574320Y65528D01*
X573986Y64582D01*
X573706Y63619D01*
X573481Y62642D01*
X573312Y61654D01*
X573199Y60658D01*
X573142Y59657D01*
X573142Y58654D01*
X573199Y57653D01*
X573312Y56656D01*
X573481Y55668D01*
X573706Y54691D01*
X573986Y53728D01*
X574320Y52783D01*
X574707Y51858D01*
X575146Y50956D01*
X575635Y50081D01*
X576173Y49234D01*
X576758Y48420D01*
X577388Y47640D01*
X578061Y46896D01*
X578775Y46192D01*
X579527Y45530D01*
X580316Y44911D01*
X581139Y44338D01*
X581993Y43812D01*
X582875Y43336D01*
X583783Y42910D01*
X584713Y42536D01*
X585663Y42215D01*
X586630Y41949D01*
X587610Y41737D01*
X588601Y41582D01*
X589599Y41483D01*
X590600Y41440D01*
X591603Y41454D01*
X592603Y41525D01*
X593598Y41653D01*
X594584Y41836D01*
X595557Y42075D01*
X596516Y42369D01*
X597457Y42716D01*
X598376Y43116D01*
X599272Y43568D01*
X600140Y44069D01*
X600979Y44619D01*
X601785Y45215D01*
X602556Y45856D01*
X603290Y46539D01*
X603984Y47263D01*
X604635Y48025D01*
X605243Y48823D01*
X605804Y49654D01*
X606318Y50515D01*
X606782Y51404D01*
X607195Y52318D01*
X607556Y53253D01*
X607863Y54208D01*
X608115Y55178D01*
X608313Y56161D01*
X608454Y57154D01*
X608539Y58153D01*
X608568Y59155D01*
X510016Y58600D02*
X509988Y59602D01*
X509903Y60601D01*
X509762Y61594D01*
X509564Y62577D01*
X509312Y63548D01*
X509004Y64502D01*
X508644Y65438D01*
X508231Y66351D01*
X507767Y67240D01*
X507253Y68102D01*
X506692Y68932D01*
X506084Y69730D01*
X505432Y70492D01*
X504739Y71216D01*
X504005Y71899D01*
X503234Y72540D01*
X502427Y73137D01*
X501589Y73686D01*
X500721Y74187D01*
X499825Y74639D01*
X498906Y75039D01*
X497965Y75386D01*
X497006Y75680D01*
X496032Y75919D01*
X495047Y76102D01*
X494052Y76230D01*
X493052Y76301D01*
X492049Y76315D01*
X491047Y76272D01*
X490050Y76173D01*
X489059Y76018D01*
X488079Y75806D01*
X487112Y75540D01*
X486162Y75219D01*
X485232Y74845D01*
X484324Y74420D01*
X483442Y73943D01*
X482588Y73417D01*
X481765Y72844D01*
X480976Y72225D01*
X480224Y71563D01*
X479509Y70859D01*
X478836Y70116D01*
X478206Y69335D01*
X477622Y68521D01*
X477084Y67674D01*
X476595Y66799D01*
X476156Y65898D01*
X475769Y64973D01*
X475435Y64027D01*
X475155Y63064D01*
X474930Y62087D01*
X474761Y61099D01*
X474647Y60102D01*
X474591Y59101D01*
X474590Y58099D01*
X474647Y57098D01*
X474761Y56101D01*
X474930Y55113D01*
X475155Y54136D01*
X475435Y53173D01*
X475769Y52228D01*
X476156Y51303D01*
X476595Y50401D01*
X477084Y49525D01*
X477622Y48679D01*
X478206Y47865D01*
X478836Y47085D01*
X479509Y46341D01*
X480223Y45637D01*
X480976Y44975D01*
X481765Y44356D01*
X482588Y43783D01*
X483442Y43257D01*
X484324Y42781D01*
X485232Y42355D01*
X486162Y41981D01*
X487112Y41660D01*
X488079Y41394D01*
X489059Y41182D01*
X490050Y41027D01*
X491047Y40928D01*
X492049Y40885D01*
X493052Y40899D01*
X494052Y40970D01*
X495047Y41098D01*
X496032Y41281D01*
X497006Y41520D01*
X497965Y41814D01*
X498906Y42161D01*
X499825Y42561D01*
X500721Y43012D01*
X501589Y43514D01*
X502427Y44063D01*
X503234Y44660D01*
X504005Y45301D01*
X504739Y45984D01*
X505432Y46708D01*
X506084Y47470D01*
X506692Y48268D01*
X507253Y49099D01*
X507767Y49960D01*
X508231Y50849D01*
X508644Y51762D01*
X509004Y52698D01*
X509312Y53653D01*
X509564Y54623D01*
X509762Y55606D01*
X509903Y56599D01*
X509988Y57598D01*
X510016Y58600D01*
X293607Y59155D02*
X293579Y60157D01*
X293494Y61156D01*
X293352Y62149D01*
X293155Y63132D01*
X292902Y64103D01*
X292595Y65057D01*
X292234Y65993D01*
X291821Y66906D01*
X291357Y67795D01*
X290844Y68657D01*
X290282Y69487D01*
X289675Y70285D01*
X289023Y71047D01*
X288329Y71771D01*
X287595Y72454D01*
X286824Y73095D01*
X286018Y73692D01*
X285179Y74241D01*
X284311Y74743D01*
X283416Y75194D01*
X282496Y75594D01*
X281556Y75941D01*
X280597Y76235D01*
X279623Y76474D01*
X278637Y76657D01*
X277643Y76785D01*
X276642Y76856D01*
X275640Y76870D01*
X274638Y76827D01*
X273640Y76728D01*
X272650Y76573D01*
X271669Y76362D01*
X270703Y76095D01*
X269753Y75775D01*
X268822Y75401D01*
X267915Y74975D01*
X267032Y74498D01*
X266178Y73972D01*
X265356Y73399D01*
X264567Y72780D01*
X263814Y72118D01*
X263100Y71414D01*
X262427Y70671D01*
X261797Y69890D01*
X261212Y69076D01*
X260675Y68230D01*
X260185Y67354D01*
X259747Y66453D01*
X259360Y65528D01*
X259026Y64582D01*
X258746Y63619D01*
X258521Y62642D01*
X258351Y61654D01*
X258238Y60658D01*
X258181Y59657D01*
X258181Y58654D01*
X258238Y57653D01*
X258351Y56656D01*
X258521Y55668D01*
X258746Y54691D01*
X259026Y53728D01*
X259360Y52783D01*
X259747Y51858D01*
X260185Y50956D01*
X260674Y50081D01*
X261212Y49234D01*
X261797Y48420D01*
X262427Y47640D01*
X263100Y46896D01*
X263814Y46192D01*
X264567Y45530D01*
X265356Y44911D01*
X266178Y44338D01*
X267032Y43812D01*
X267915Y43336D01*
X268822Y42910D01*
X269753Y42536D01*
X270703Y42215D01*
X271669Y41949D01*
X272650Y41737D01*
X273640Y41582D01*
X274638Y41483D01*
X275640Y41440D01*
X276642Y41454D01*
X277643Y41525D01*
X278637Y41653D01*
X279623Y41836D01*
X280597Y42075D01*
X281556Y42369D01*
X282496Y42716D01*
X283416Y43116D01*
X284311Y43568D01*
X285179Y44069D01*
X286018Y44619D01*
X286824Y45215D01*
X287595Y45856D01*
X288329Y46539D01*
X289023Y47263D01*
X289675Y48025D01*
X290282Y48823D01*
X290844Y49654D01*
X291357Y50515D01*
X291821Y51404D01*
X292234Y52318D01*
X292595Y53253D01*
X292902Y54208D01*
X293155Y55178D01*
X293352Y56161D01*
X293494Y57154D01*
X293579Y58153D01*
X293607Y59155D01*
X138095D02*
X138067Y60157D01*
X137982Y61156D01*
X137840Y62149D01*
X137643Y63132D01*
X137390Y64103D01*
X137083Y65057D01*
X136723Y65993D01*
X136310Y66906D01*
X135845Y67795D01*
X135332Y68657D01*
X134770Y69487D01*
X134163Y70285D01*
X133511Y71047D01*
X132817Y71771D01*
X132084Y72454D01*
X131312Y73095D01*
X130506Y73692D01*
X129668Y74241D01*
X128799Y74743D01*
X127904Y75194D01*
X126985Y75594D01*
X126044Y75941D01*
X125085Y76235D01*
X124111Y76474D01*
X123126Y76657D01*
X122131Y76785D01*
X121131Y76856D01*
X120128Y76870D01*
X119126Y76827D01*
X118128Y76728D01*
X117138Y76573D01*
X116158Y76362D01*
X115191Y76095D01*
X114241Y75775D01*
X113311Y75401D01*
X112403Y74975D01*
X111521Y74498D01*
X110667Y73972D01*
X109844Y73399D01*
X109055Y72780D01*
X108302Y72118D01*
X107588Y71414D01*
X106915Y70671D01*
X106285Y69890D01*
X105700Y69076D01*
X105163Y68230D01*
X104674Y67354D01*
X104235Y66453D01*
X103848Y65528D01*
X103514Y64582D01*
X103234Y63619D01*
X103009Y62642D01*
X102839Y61654D01*
X102726Y60658D01*
X102669Y59657D01*
X102669Y58654D01*
X102726Y57653D01*
X102839Y56656D01*
X103009Y55668D01*
X103234Y54691D01*
X103514Y53728D01*
X103848Y52783D01*
X104235Y51858D01*
X104674Y50956D01*
X105163Y50081D01*
X105700Y49234D01*
X106285Y48420D01*
X106915Y47640D01*
X107588Y46896D01*
X108302Y46192D01*
X109055Y45530D01*
X109844Y44911D01*
X110667Y44338D01*
X111520Y43812D01*
X112403Y43336D01*
X113310Y42910D01*
X114241Y42536D01*
X115191Y42215D01*
X116158Y41949D01*
X117138Y41737D01*
X118128Y41582D01*
X119126Y41483D01*
X120128Y41440D01*
X121131Y41454D01*
X122131Y41525D01*
X123125Y41653D01*
X124111Y41836D01*
X125085Y42075D01*
X126044Y42369D01*
X126985Y42716D01*
X127904Y43116D01*
X128799Y43568D01*
X129668Y44069D01*
X130506Y44619D01*
X131313Y45215D01*
X132084Y45856D01*
X132817Y46539D01*
X133511Y47263D01*
X134163Y48025D01*
X134771Y48823D01*
X135332Y49654D01*
X135846Y50515D01*
X136310Y51404D01*
X136723Y52318D01*
X137083Y53253D01*
X137390Y54208D01*
X137643Y55178D01*
X137840Y56161D01*
X137982Y57154D01*
X138067Y58153D01*
X138095Y59155D01*
X746063Y40913D02*
Y76630D01*
Y76913D02*
X785433D01*
X746063Y40913D02*
X785433D01*
Y76913D02*
X824803D01*
X785433Y40913D02*
X824803D01*
X785433Y41197D02*
Y76913D01*
X824803Y41197D02*
Y76913D01*
X590551Y40913D02*
Y76630D01*
Y76913D02*
X629921D01*
X590551Y40913D02*
X629921D01*
Y76913D02*
X669291D01*
X629921Y40913D02*
X669291D01*
X629921Y41197D02*
Y76913D01*
X669291Y41197D02*
Y76913D01*
X472441Y41480D02*
Y77197D01*
X433071Y41197D02*
X472441D01*
X433071Y77197D02*
X472441D01*
X393701Y41197D02*
X433071D01*
X393701Y77197D02*
X433071D01*
Y41197D02*
Y76913D01*
X393701Y41197D02*
Y76913D01*
X491441Y41378D02*
Y77095D01*
X452071Y41378D02*
Y77095D01*
Y41094D02*
X491441D01*
X452071Y77095D02*
X491441D01*
X275590Y41480D02*
Y77197D01*
X236221Y41197D02*
X275590D01*
X236221Y77197D02*
X275590D01*
X196850Y41197D02*
X236221D01*
X196850Y77197D02*
X236221D01*
Y41197D02*
Y76913D01*
X196850Y41197D02*
Y76913D01*
X120079Y41284D02*
Y77000D01*
X80709Y41000D02*
X120079D01*
X80709Y77000D02*
X120079D01*
X41339Y41000D02*
X80709D01*
X41339Y77000D02*
X80709D01*
Y41000D02*
Y76717D01*
X41339Y41000D02*
Y76717D01*
X342504Y55228D02*
Y61638D01*
Y78818D02*
Y79088D01*
X392499Y55228D02*
Y61638D01*
Y78818D02*
Y79088D01*
X380968Y55228D02*
X392499D01*
X370969D02*
X374030D01*
X360969D02*
X364030D01*
X342504D02*
X354030D01*
X342504Y79088D02*
X392499D01*
X556100Y80697D02*
Y78698D01*
Y79697D01*
X562098D01*
X561098Y80697D01*
X566500Y77798D02*
Y81797D01*
X570499Y77798D01*
X571498D01*
X572498Y78798D01*
Y80797D01*
X571498Y81797D01*
X551099Y99095D02*
X549099D01*
X550099D01*
Y94096D01*
X549099Y93097D01*
X548100D01*
X547100Y94096D01*
X553098Y93097D02*
X555097D01*
X554098D01*
Y99095D01*
X553098Y98095D01*
X331999Y74398D02*
X329999D01*
X330999D01*
Y69400D01*
X329999Y68400D01*
X329000D01*
X328000Y69400D01*
X333998Y73398D02*
X334998Y74398D01*
X336997D01*
X337997Y73398D01*
Y72399D01*
X336997Y71399D01*
X335997D01*
X336997D01*
X337997Y70399D01*
Y69400D01*
X336997Y68400D01*
X334998D01*
X333998Y69400D01*
X396000Y74398D02*
Y68400D01*
X399999D01*
X401998Y73398D02*
X402998Y74398D01*
X404997D01*
X405997Y73398D01*
Y72399D01*
X404997Y71399D01*
X403997D01*
X404997D01*
X405997Y70399D01*
Y69400D01*
X404997Y68400D01*
X402998D01*
X401998Y69400D01*
X128999Y62598D02*
X127999Y63598D01*
X126000D01*
X125000Y62598D01*
Y58600D01*
X126000Y57600D01*
X127999D01*
X128999Y58600D01*
X130998Y57600D02*
X132997D01*
X131998D01*
Y63598D01*
X130998Y62598D01*
X283999Y61798D02*
X282999Y62798D01*
X281000D01*
X280000Y61798D01*
Y57800D01*
X281000Y56800D01*
X282999D01*
X283999Y57800D01*
X289997Y56800D02*
X285998D01*
X289997Y60799D01*
Y61798D01*
X288997Y62798D01*
X286998D01*
X285998Y61798D01*
X498999Y62198D02*
X497999Y63198D01*
X496000D01*
X495000Y62198D01*
Y58200D01*
X496000Y57200D01*
X497999D01*
X498999Y58200D01*
X500998Y62198D02*
X501998Y63198D01*
X503997D01*
X504997Y62198D01*
Y61199D01*
X503997Y60199D01*
X502997D01*
X503997D01*
X504997Y59199D01*
Y58200D01*
X503997Y57200D01*
X501998D01*
X500998Y58200D01*
X588999Y62198D02*
X587999Y63198D01*
X586000D01*
X585000Y62198D01*
Y58200D01*
X586000Y57200D01*
X587999D01*
X588999Y58200D01*
X593997Y57200D02*
Y63198D01*
X590998Y60199D01*
X594997D01*
X736999Y61398D02*
X735999Y62398D01*
X734000D01*
X733000Y61398D01*
Y57400D01*
X734000Y56400D01*
X735999D01*
X736999Y57400D01*
X742997Y62398D02*
X738998D01*
Y59399D01*
X740997Y60399D01*
X741997D01*
X742997Y59399D01*
Y57400D01*
X741997Y56400D01*
X739998D01*
X738998Y57400D01*
X44500Y73998D02*
Y68000D01*
X48499D01*
X50498D02*
X52497D01*
X51498D01*
Y73998D01*
X50498Y72998D01*
X199500Y74798D02*
Y68800D01*
X203499D01*
X209497D02*
X205498D01*
X209497Y72799D01*
Y73798D01*
X208497Y74798D01*
X206498D01*
X205498Y73798D01*
X656500Y74398D02*
Y68400D01*
X660499D01*
X665497D02*
Y74398D01*
X662498Y71399D01*
X666497D01*
X812500Y73998D02*
Y68000D01*
X816499D01*
X822497Y73998D02*
X818498D01*
Y70999D01*
X820497Y71999D01*
X821497D01*
X822497Y70999D01*
Y69000D01*
X821497Y68000D01*
X819498D01*
X818498Y69000D01*
X408128Y47934D02*
X406129D01*
X407128D01*
Y42935D01*
X406129Y41935D01*
X405129D01*
X404129Y42935D01*
X414126Y41935D02*
X410127D01*
X414126Y45934D01*
Y46934D01*
X413126Y47934D01*
X411127D01*
X410127Y46934D01*
D11*
X812547Y58965D02*
X812519Y59967D01*
X812434Y60966D01*
X812292Y61959D01*
X812095Y62942D01*
X811842Y63912D01*
X811535Y64867D01*
X811175Y65802D01*
X810762Y66716D01*
X810297Y67605D01*
X809784Y68466D01*
X809222Y69297D01*
X808615Y70095D01*
X807963Y70856D01*
X807269Y71580D01*
X806536Y72264D01*
X805764Y72905D01*
X804958Y73501D01*
X804120Y74051D01*
X803251Y74552D01*
X802356Y75003D01*
X801436Y75403D01*
X800496Y75751D01*
X799537Y76045D01*
X798563Y76284D01*
X797577Y76467D01*
X796583Y76594D01*
X795583Y76665D01*
X794580Y76679D01*
X793578Y76637D01*
X792580Y76538D01*
X791590Y76382D01*
X790610Y76171D01*
X789643Y75905D01*
X788693Y75584D01*
X787762Y75210D01*
X786855Y74784D01*
X785972Y74308D01*
X785119Y73782D01*
X784296Y73209D01*
X783507Y72590D01*
X782754Y71927D01*
X782040Y71223D01*
X781367Y70480D01*
X780737Y69700D01*
X780152Y68885D01*
X779615Y68039D01*
X779126Y67164D01*
X778687Y66262D01*
X778300Y65337D01*
X777966Y64392D01*
X777686Y63429D01*
X777461Y62452D01*
X777291Y61463D01*
X777178Y60467D01*
X777121Y59466D01*
X777121Y58463D01*
X777178Y57462D01*
X777291Y56466D01*
X777461Y55477D01*
X777686Y54500D01*
X777966Y53538D01*
X778300Y52592D01*
X778687Y51667D01*
X779126Y50766D01*
X779615Y49890D01*
X780152Y49044D01*
X780737Y48229D01*
X781367Y47449D01*
X782040Y46706D01*
X782754Y46002D01*
X783507Y45339D01*
X784296Y44721D01*
X785119Y44147D01*
X785972Y43622D01*
X786855Y43145D01*
X787762Y42719D01*
X788693Y42345D01*
X789643Y42025D01*
X790610Y41758D01*
X791590Y41547D01*
X792580Y41392D01*
X793578Y41292D01*
X794580Y41250D01*
X795583Y41264D01*
X796583Y41335D01*
X797577Y41462D01*
X798563Y41646D01*
X799537Y41885D01*
X800496Y42178D01*
X801436Y42526D01*
X802356Y42926D01*
X803251Y43377D01*
X804120Y43878D01*
X804958Y44428D01*
X805764Y45024D01*
X806536Y45665D01*
X807269Y46349D01*
X807963Y47073D01*
X808615Y47835D01*
X809222Y48632D01*
X809784Y49463D01*
X810297Y50324D01*
X810762Y51213D01*
X811175Y52127D01*
X811535Y53062D01*
X811842Y54017D01*
X812095Y54987D01*
X812292Y55971D01*
X812434Y56963D01*
X812519Y57962D01*
X812547Y58965D01*
X793650D02*
X793621Y59967D01*
X793536Y60966D01*
X793395Y61959D01*
X793197Y62942D01*
X792945Y63912D01*
X792638Y64867D01*
X792277Y65802D01*
X791864Y66716D01*
X791400Y67605D01*
X790886Y68466D01*
X790325Y69297D01*
X789717Y70095D01*
X789065Y70856D01*
X788372Y71580D01*
X787638Y72264D01*
X786867Y72905D01*
X786061Y73501D01*
X785222Y74051D01*
X784354Y74552D01*
X783458Y75003D01*
X782539Y75403D01*
X781598Y75751D01*
X780639Y76045D01*
X779666Y76284D01*
X778680Y76467D01*
X777685Y76594D01*
X776685Y76665D01*
X775682Y76679D01*
X774681Y76637D01*
X773683Y76538D01*
X772692Y76382D01*
X771712Y76171D01*
X770745Y75905D01*
X769795Y75584D01*
X768865Y75210D01*
X767957Y74784D01*
X767075Y74308D01*
X766221Y73782D01*
X765398Y73209D01*
X764609Y72590D01*
X763857Y71927D01*
X763142Y71223D01*
X762469Y70480D01*
X761839Y69700D01*
X761255Y68885D01*
X760717Y68039D01*
X760228Y67164D01*
X759789Y66262D01*
X759402Y65337D01*
X759068Y64392D01*
X758788Y63429D01*
X758563Y62452D01*
X758394Y61463D01*
X758280Y60467D01*
X758224Y59466D01*
X758224Y58463D01*
X758280Y57462D01*
X758394Y56466D01*
X758563Y55477D01*
X758788Y54500D01*
X759068Y53538D01*
X759402Y52592D01*
X759789Y51667D01*
X760228Y50766D01*
X760717Y49890D01*
X761255Y49044D01*
X761839Y48229D01*
X762469Y47449D01*
X763142Y46706D01*
X763857Y46002D01*
X764609Y45339D01*
X765398Y44721D01*
X766221Y44147D01*
X767075Y43622D01*
X767957Y43145D01*
X768865Y42719D01*
X769795Y42345D01*
X770745Y42025D01*
X771712Y41758D01*
X772692Y41547D01*
X773683Y41392D01*
X774681Y41292D01*
X775682Y41250D01*
X776685Y41264D01*
X777685Y41335D01*
X778680Y41462D01*
X779666Y41646D01*
X780639Y41885D01*
X781598Y42178D01*
X782539Y42526D01*
X783458Y42926D01*
X784354Y43377D01*
X785222Y43878D01*
X786061Y44428D01*
X786867Y45024D01*
X787638Y45665D01*
X788372Y46349D01*
X789065Y47073D01*
X789717Y47835D01*
X790325Y48632D01*
X790886Y49463D01*
X791400Y50324D01*
X791864Y51213D01*
X792277Y52127D01*
X792638Y53062D01*
X792945Y54017D01*
X793197Y54987D01*
X793395Y55971D01*
X793536Y56963D01*
X793621Y57962D01*
X793650Y58965D01*
X657035D02*
X657007Y59967D01*
X656922Y60966D01*
X656781Y61959D01*
X656583Y62942D01*
X656331Y63912D01*
X656023Y64867D01*
X655663Y65802D01*
X655250Y66716D01*
X654786Y67605D01*
X654272Y68466D01*
X653711Y69297D01*
X653103Y70095D01*
X652451Y70856D01*
X651757Y71580D01*
X651024Y72264D01*
X650253Y72905D01*
X649446Y73501D01*
X648608Y74051D01*
X647739Y74552D01*
X646844Y75003D01*
X645925Y75403D01*
X644984Y75751D01*
X644025Y76045D01*
X643051Y76284D01*
X642066Y76467D01*
X641071Y76594D01*
X640071Y76665D01*
X639068Y76679D01*
X638066Y76637D01*
X637069Y76538D01*
X636078Y76382D01*
X635098Y76171D01*
X634131Y75905D01*
X633181Y75584D01*
X632251Y75210D01*
X631343Y74784D01*
X630461Y74308D01*
X629607Y73782D01*
X628784Y73209D01*
X627995Y72590D01*
X627242Y71927D01*
X626528Y71223D01*
X625855Y70480D01*
X625225Y69700D01*
X624641Y68885D01*
X624103Y68039D01*
X623614Y67164D01*
X623175Y66262D01*
X622788Y65337D01*
X622454Y64392D01*
X622174Y63429D01*
X621949Y62452D01*
X621779Y61463D01*
X621666Y60467D01*
X621609Y59466D01*
X621609Y58463D01*
X621666Y57462D01*
X621779Y56466D01*
X621949Y55477D01*
X622174Y54500D01*
X622454Y53538D01*
X622788Y52592D01*
X623175Y51667D01*
X623614Y50766D01*
X624103Y49890D01*
X624641Y49044D01*
X625225Y48229D01*
X625855Y47449D01*
X626528Y46706D01*
X627242Y46002D01*
X627995Y45339D01*
X628784Y44721D01*
X629607Y44147D01*
X630461Y43622D01*
X631343Y43145D01*
X632251Y42719D01*
X633181Y42345D01*
X634131Y42025D01*
X635098Y41758D01*
X636078Y41547D01*
X637069Y41392D01*
X638066Y41292D01*
X639068Y41250D01*
X640071Y41264D01*
X641071Y41335D01*
X642066Y41462D01*
X643051Y41646D01*
X644025Y41885D01*
X644984Y42178D01*
X645925Y42526D01*
X646844Y42926D01*
X647739Y43377D01*
X648608Y43878D01*
X649446Y44428D01*
X650253Y45024D01*
X651024Y45665D01*
X651757Y46349D01*
X652451Y47073D01*
X653103Y47835D01*
X653711Y48632D01*
X654272Y49463D01*
X654786Y50324D01*
X655250Y51213D01*
X655663Y52127D01*
X656023Y53062D01*
X656331Y54017D01*
X656583Y54987D01*
X656781Y55971D01*
X656922Y56963D01*
X657007Y57962D01*
X657035Y58965D01*
X638138D02*
X638109Y59967D01*
X638024Y60966D01*
X637883Y61959D01*
X637686Y62942D01*
X637433Y63912D01*
X637126Y64867D01*
X636765Y65802D01*
X636352Y66716D01*
X635888Y67605D01*
X635374Y68466D01*
X634813Y69297D01*
X634205Y70095D01*
X633554Y70856D01*
X632860Y71580D01*
X632126Y72264D01*
X631355Y72905D01*
X630549Y73501D01*
X629710Y74051D01*
X628842Y74552D01*
X627946Y75003D01*
X627027Y75403D01*
X626086Y75751D01*
X625128Y76045D01*
X624154Y76284D01*
X623168Y76467D01*
X622173Y76594D01*
X621173Y76665D01*
X620171Y76679D01*
X619169Y76637D01*
X618171Y76538D01*
X617180Y76382D01*
X616200Y76171D01*
X615234Y75905D01*
X614283Y75584D01*
X613353Y75210D01*
X612445Y74784D01*
X611563Y74308D01*
X610709Y73782D01*
X609886Y73209D01*
X609097Y72590D01*
X608345Y71927D01*
X607631Y71223D01*
X606958Y70480D01*
X606328Y69700D01*
X605743Y68885D01*
X605205Y68039D01*
X604716Y67164D01*
X604278Y66262D01*
X603890Y65337D01*
X603556Y64392D01*
X603276Y63429D01*
X603051Y62452D01*
X602882Y61463D01*
X602769Y60467D01*
X602712Y59466D01*
X602712Y58463D01*
X602769Y57462D01*
X602882Y56466D01*
X603051Y55477D01*
X603276Y54500D01*
X603556Y53538D01*
X603890Y52592D01*
X604277Y51667D01*
X604716Y50766D01*
X605205Y49890D01*
X605743Y49044D01*
X606328Y48229D01*
X606958Y47449D01*
X607631Y46706D01*
X608345Y46002D01*
X609097Y45339D01*
X609886Y44721D01*
X610709Y44147D01*
X611563Y43622D01*
X612445Y43145D01*
X613353Y42719D01*
X614283Y42345D01*
X615233Y42025D01*
X616200Y41758D01*
X617180Y41547D01*
X618171Y41392D01*
X619169Y41292D01*
X620170Y41250D01*
X621173Y41264D01*
X622173Y41335D01*
X623168Y41462D01*
X624154Y41646D01*
X625128Y41885D01*
X626086Y42178D01*
X627027Y42526D01*
X627946Y42926D01*
X628842Y43377D01*
X629710Y43878D01*
X630549Y44428D01*
X631355Y45024D01*
X632126Y45665D01*
X632860Y46349D01*
X633554Y47073D01*
X634205Y47835D01*
X634813Y48632D01*
X635374Y49463D01*
X635888Y50324D01*
X636352Y51213D01*
X636765Y52127D01*
X637126Y53062D01*
X637433Y54017D01*
X637686Y54987D01*
X637883Y55971D01*
X638024Y56963D01*
X638109Y57962D01*
X638138Y58965D01*
X441390Y59146D02*
X441361Y60148D01*
X441276Y61147D01*
X441135Y62140D01*
X440938Y63123D01*
X440685Y64093D01*
X440378Y65048D01*
X440017Y65983D01*
X439604Y66897D01*
X439140Y67786D01*
X438626Y68647D01*
X438065Y69478D01*
X437457Y70276D01*
X436806Y71038D01*
X436112Y71762D01*
X435378Y72445D01*
X434607Y73086D01*
X433801Y73682D01*
X432962Y74232D01*
X432094Y74733D01*
X431198Y75185D01*
X430279Y75585D01*
X429338Y75932D01*
X428380Y76226D01*
X427406Y76465D01*
X426420Y76648D01*
X425425Y76775D01*
X424425Y76846D01*
X423422Y76860D01*
X422421Y76818D01*
X421423Y76719D01*
X420432Y76563D01*
X419452Y76352D01*
X418485Y76086D01*
X417535Y75765D01*
X416605Y75391D01*
X415697Y74965D01*
X414815Y74489D01*
X413961Y73963D01*
X413138Y73390D01*
X412349Y72771D01*
X411597Y72108D01*
X410883Y71404D01*
X410210Y70661D01*
X409580Y69881D01*
X408995Y69067D01*
X408457Y68220D01*
X407968Y67345D01*
X407529Y66443D01*
X407142Y65518D01*
X406808Y64573D01*
X406528Y63610D01*
X406303Y62633D01*
X406134Y61645D01*
X406020Y60648D01*
X405964Y59647D01*
X405964Y58644D01*
X406020Y57643D01*
X406134Y56647D01*
X406303Y55659D01*
X406528Y54681D01*
X406808Y53719D01*
X407142Y52773D01*
X407529Y51848D01*
X407968Y50947D01*
X408457Y50071D01*
X408995Y49225D01*
X409580Y48410D01*
X410210Y47630D01*
X410883Y46887D01*
X411597Y46183D01*
X412349Y45520D01*
X413138Y44902D01*
X413961Y44328D01*
X414815Y43803D01*
X415697Y43326D01*
X416605Y42900D01*
X417535Y42526D01*
X418485Y42206D01*
X419452Y41939D01*
X420432Y41728D01*
X421423Y41573D01*
X422421Y41473D01*
X423422Y41431D01*
X424425Y41445D01*
X425425Y41516D01*
X426420Y41643D01*
X427406Y41827D01*
X428380Y42066D01*
X429338Y42359D01*
X430279Y42707D01*
X431198Y43107D01*
X432094Y43558D01*
X432962Y44060D01*
X433801Y44609D01*
X434607Y45206D01*
X435378Y45846D01*
X436112Y46530D01*
X436806Y47254D01*
X437457Y48016D01*
X438065Y48814D01*
X438626Y49644D01*
X439140Y50505D01*
X439604Y51394D01*
X440017Y52308D01*
X440378Y53244D01*
X440685Y54198D01*
X440938Y55168D01*
X441135Y56152D01*
X441276Y57144D01*
X441361Y58143D01*
X441390Y59146D01*
X460287D02*
X460259Y60148D01*
X460174Y61147D01*
X460033Y62140D01*
X459835Y63123D01*
X459583Y64093D01*
X459275Y65048D01*
X458915Y65983D01*
X458502Y66897D01*
X458038Y67786D01*
X457524Y68647D01*
X456963Y69478D01*
X456355Y70276D01*
X455703Y71038D01*
X455009Y71762D01*
X454276Y72445D01*
X453505Y73086D01*
X452698Y73682D01*
X451860Y74232D01*
X450991Y74733D01*
X450096Y75185D01*
X449177Y75585D01*
X448236Y75932D01*
X447277Y76226D01*
X446303Y76465D01*
X445318Y76648D01*
X444323Y76775D01*
X443323Y76846D01*
X442320Y76860D01*
X441318Y76818D01*
X440321Y76719D01*
X439330Y76563D01*
X438350Y76352D01*
X437383Y76086D01*
X436433Y75765D01*
X435503Y75391D01*
X434595Y74965D01*
X433713Y74489D01*
X432859Y73963D01*
X432036Y73390D01*
X431247Y72771D01*
X430494Y72108D01*
X429780Y71404D01*
X429107Y70661D01*
X428477Y69881D01*
X427893Y69067D01*
X427355Y68220D01*
X426866Y67345D01*
X426427Y66443D01*
X426040Y65518D01*
X425706Y64573D01*
X425426Y63610D01*
X425201Y62633D01*
X425031Y61645D01*
X424918Y60648D01*
X424861Y59647D01*
X424861Y58644D01*
X424918Y57643D01*
X425031Y56647D01*
X425201Y55659D01*
X425426Y54681D01*
X425706Y53719D01*
X426040Y52773D01*
X426427Y51848D01*
X426866Y50947D01*
X427355Y50071D01*
X427892Y49225D01*
X428477Y48410D01*
X429107Y47630D01*
X429780Y46887D01*
X430494Y46183D01*
X431247Y45520D01*
X432036Y44902D01*
X432859Y44328D01*
X433713Y43803D01*
X434595Y43326D01*
X435502Y42900D01*
X436433Y42526D01*
X437383Y42206D01*
X438350Y41939D01*
X439330Y41728D01*
X440320Y41573D01*
X441318Y41473D01*
X442320Y41431D01*
X443323Y41445D01*
X444323Y41516D01*
X445318Y41643D01*
X446303Y41827D01*
X447277Y42066D01*
X448236Y42359D01*
X449177Y42707D01*
X450096Y43107D01*
X450991Y43558D01*
X451860Y44060D01*
X452698Y44609D01*
X453505Y45206D01*
X454276Y45846D01*
X455009Y46530D01*
X455703Y47254D01*
X456355Y48016D01*
X456963Y48814D01*
X457524Y49644D01*
X458038Y50505D01*
X458502Y51394D01*
X458915Y52308D01*
X459275Y53244D01*
X459583Y54198D01*
X459835Y55168D01*
X460033Y56152D01*
X460174Y57144D01*
X460259Y58143D01*
X460287Y59146D01*
X479185D02*
X479157Y60148D01*
X479072Y61147D01*
X478930Y62140D01*
X478733Y63123D01*
X478480Y64093D01*
X478173Y65048D01*
X477812Y65983D01*
X477399Y66897D01*
X476935Y67786D01*
X476422Y68647D01*
X475860Y69478D01*
X475253Y70276D01*
X474601Y71038D01*
X473907Y71762D01*
X473173Y72445D01*
X472402Y73086D01*
X471596Y73682D01*
X470757Y74232D01*
X469889Y74733D01*
X468994Y75185D01*
X468074Y75585D01*
X467134Y75932D01*
X466175Y76226D01*
X465201Y76465D01*
X464215Y76648D01*
X463221Y76775D01*
X462220Y76846D01*
X461218Y76860D01*
X460216Y76818D01*
X459218Y76719D01*
X458228Y76563D01*
X457247Y76352D01*
X456281Y76086D01*
X455331Y75765D01*
X454400Y75391D01*
X453492Y74965D01*
X452610Y74489D01*
X451756Y73963D01*
X450934Y73390D01*
X450145Y72771D01*
X449392Y72108D01*
X448678Y71404D01*
X448005Y70661D01*
X447375Y69881D01*
X446790Y69067D01*
X446252Y68220D01*
X445763Y67345D01*
X445325Y66443D01*
X444938Y65518D01*
X444604Y64573D01*
X444324Y63610D01*
X444099Y62633D01*
X443929Y61645D01*
X443816Y60648D01*
X443759Y59647D01*
X443759Y58644D01*
X443816Y57643D01*
X443929Y56647D01*
X444099Y55659D01*
X444324Y54681D01*
X444604Y53719D01*
X444938Y52773D01*
X445325Y51848D01*
X445763Y50947D01*
X446252Y50071D01*
X446790Y49225D01*
X447375Y48410D01*
X448005Y47630D01*
X448678Y46887D01*
X449392Y46183D01*
X450145Y45520D01*
X450934Y44902D01*
X451756Y44328D01*
X452610Y43803D01*
X453492Y43326D01*
X454400Y42900D01*
X455331Y42526D01*
X456281Y42206D01*
X457247Y41939D01*
X458228Y41728D01*
X459218Y41573D01*
X460216Y41473D01*
X461218Y41431D01*
X462220Y41445D01*
X463221Y41516D01*
X464215Y41643D01*
X465201Y41827D01*
X466175Y42066D01*
X467134Y42359D01*
X468074Y42707D01*
X468994Y43107D01*
X469889Y43558D01*
X470757Y44060D01*
X471596Y44609D01*
X472402Y45206D01*
X473173Y45846D01*
X473907Y46530D01*
X474601Y47254D01*
X475253Y48016D01*
X475860Y48814D01*
X476422Y49644D01*
X476935Y50505D01*
X477399Y51394D01*
X477812Y52308D01*
X478173Y53244D01*
X478480Y54198D01*
X478733Y55168D01*
X478930Y56152D01*
X479072Y57144D01*
X479157Y58143D01*
X479185Y59146D01*
X244539D02*
X244511Y60148D01*
X244426Y61147D01*
X244285Y62140D01*
X244087Y63123D01*
X243834Y64093D01*
X243527Y65048D01*
X243167Y65983D01*
X242754Y66897D01*
X242290Y67786D01*
X241776Y68647D01*
X241214Y69478D01*
X240607Y70276D01*
X239955Y71038D01*
X239261Y71762D01*
X238528Y72445D01*
X237756Y73086D01*
X236950Y73682D01*
X236112Y74232D01*
X235243Y74733D01*
X234348Y75185D01*
X233429Y75585D01*
X232488Y75932D01*
X231529Y76226D01*
X230555Y76465D01*
X229570Y76648D01*
X228575Y76775D01*
X227575Y76846D01*
X226572Y76860D01*
X225570Y76818D01*
X224572Y76719D01*
X223582Y76563D01*
X222602Y76352D01*
X221635Y76086D01*
X220685Y75765D01*
X219755Y75391D01*
X218847Y74965D01*
X217965Y74489D01*
X217111Y73963D01*
X216288Y73390D01*
X215499Y72771D01*
X214746Y72108D01*
X214032Y71404D01*
X213359Y70661D01*
X212729Y69881D01*
X212144Y69067D01*
X211607Y68220D01*
X211118Y67345D01*
X210679Y66443D01*
X210292Y65518D01*
X209958Y64573D01*
X209678Y63610D01*
X209453Y62633D01*
X209283Y61645D01*
X209170Y60648D01*
X209113Y59647D01*
X209113Y58644D01*
X209170Y57643D01*
X209283Y56647D01*
X209453Y55659D01*
X209678Y54681D01*
X209958Y53719D01*
X210292Y52773D01*
X210679Y51848D01*
X211118Y50947D01*
X211607Y50071D01*
X212144Y49225D01*
X212729Y48410D01*
X213359Y47630D01*
X214032Y46887D01*
X214746Y46183D01*
X215499Y45520D01*
X216288Y44902D01*
X217111Y44328D01*
X217965Y43803D01*
X218847Y43326D01*
X219755Y42900D01*
X220685Y42526D01*
X221635Y42206D01*
X222602Y41939D01*
X223582Y41728D01*
X224572Y41573D01*
X225570Y41473D01*
X226572Y41431D01*
X227575Y41445D01*
X228575Y41516D01*
X229570Y41643D01*
X230555Y41827D01*
X231529Y42066D01*
X232488Y42359D01*
X233429Y42707D01*
X234348Y43107D01*
X235243Y43558D01*
X236112Y44060D01*
X236950Y44609D01*
X237757Y45206D01*
X238528Y45846D01*
X239261Y46530D01*
X239955Y47254D01*
X240607Y48016D01*
X241215Y48814D01*
X241776Y49644D01*
X242290Y50505D01*
X242754Y51394D01*
X243167Y52308D01*
X243527Y53244D01*
X243834Y54198D01*
X244087Y55168D01*
X244285Y56152D01*
X244426Y57144D01*
X244511Y58143D01*
X244539Y59146D01*
X263437D02*
X263409Y60148D01*
X263324Y61147D01*
X263182Y62140D01*
X262985Y63123D01*
X262732Y64093D01*
X262425Y65048D01*
X262064Y65983D01*
X261651Y66897D01*
X261187Y67786D01*
X260674Y68647D01*
X260112Y69478D01*
X259505Y70276D01*
X258853Y71038D01*
X258159Y71762D01*
X257425Y72445D01*
X256654Y73086D01*
X255848Y73682D01*
X255009Y74232D01*
X254141Y74733D01*
X253246Y75185D01*
X252326Y75585D01*
X251386Y75932D01*
X250427Y76226D01*
X249453Y76465D01*
X248467Y76648D01*
X247473Y76775D01*
X246472Y76846D01*
X245470Y76860D01*
X244468Y76818D01*
X243470Y76719D01*
X242480Y76563D01*
X241499Y76352D01*
X240533Y76086D01*
X239583Y75765D01*
X238652Y75391D01*
X237744Y74965D01*
X236862Y74489D01*
X236008Y73963D01*
X235186Y73390D01*
X234397Y72771D01*
X233644Y72108D01*
X232930Y71404D01*
X232257Y70661D01*
X231627Y69881D01*
X231042Y69067D01*
X230504Y68220D01*
X230015Y67345D01*
X229577Y66443D01*
X229190Y65518D01*
X228856Y64573D01*
X228576Y63610D01*
X228350Y62633D01*
X228181Y61645D01*
X228068Y60648D01*
X228011Y59647D01*
X228011Y58644D01*
X228068Y57643D01*
X228181Y56647D01*
X228350Y55659D01*
X228576Y54681D01*
X228856Y53719D01*
X229190Y52773D01*
X229577Y51848D01*
X230015Y50947D01*
X230504Y50071D01*
X231042Y49225D01*
X231627Y48410D01*
X232257Y47630D01*
X232930Y46887D01*
X233644Y46183D01*
X234397Y45520D01*
X235186Y44902D01*
X236008Y44328D01*
X236862Y43803D01*
X237744Y43326D01*
X238652Y42900D01*
X239582Y42526D01*
X240533Y42206D01*
X241499Y41939D01*
X242479Y41728D01*
X243470Y41573D01*
X244468Y41473D01*
X245470Y41431D01*
X246472Y41445D01*
X247473Y41516D01*
X248467Y41643D01*
X249453Y41827D01*
X250427Y42066D01*
X251386Y42359D01*
X252326Y42707D01*
X253246Y43107D01*
X254141Y43558D01*
X255009Y44060D01*
X255848Y44609D01*
X256654Y45206D01*
X257425Y45846D01*
X258159Y46530D01*
X258853Y47254D01*
X259505Y48016D01*
X260112Y48814D01*
X260674Y49644D01*
X261187Y50505D01*
X261651Y51394D01*
X262064Y52308D01*
X262425Y53244D01*
X262732Y54198D01*
X262985Y55168D01*
X263182Y56152D01*
X263324Y57144D01*
X263409Y58143D01*
X263437Y59146D01*
X89028Y58949D02*
X88999Y59951D01*
X88914Y60950D01*
X88773Y61943D01*
X88575Y62926D01*
X88323Y63896D01*
X88016Y64851D01*
X87655Y65786D01*
X87242Y66700D01*
X86778Y67589D01*
X86264Y68450D01*
X85703Y69281D01*
X85095Y70079D01*
X84443Y70841D01*
X83750Y71565D01*
X83016Y72248D01*
X82245Y72889D01*
X81438Y73485D01*
X80600Y74035D01*
X79732Y74536D01*
X78836Y74988D01*
X77917Y75388D01*
X76976Y75735D01*
X76017Y76029D01*
X75043Y76268D01*
X74058Y76451D01*
X73063Y76578D01*
X72063Y76649D01*
X71060Y76664D01*
X70059Y76621D01*
X69061Y76522D01*
X68070Y76366D01*
X67090Y76155D01*
X66123Y75889D01*
X65173Y75568D01*
X64243Y75194D01*
X63335Y74768D01*
X62453Y74292D01*
X61599Y73766D01*
X60776Y73193D01*
X59987Y72574D01*
X59234Y71912D01*
X58521Y71208D01*
X57847Y70464D01*
X57218Y69684D01*
X56633Y68870D01*
X56095Y68023D01*
X55606Y67148D01*
X55167Y66246D01*
X54780Y65321D01*
X54446Y64376D01*
X54166Y63413D01*
X53941Y62436D01*
X53772Y61448D01*
X53658Y60451D01*
X53602Y59450D01*
X53602Y58447D01*
X53658Y57446D01*
X53772Y56450D01*
X53941Y55462D01*
X54166Y54485D01*
X54446Y53522D01*
X54780Y52576D01*
X55167Y51651D01*
X55606Y50750D01*
X56095Y49874D01*
X56633Y49028D01*
X57217Y48213D01*
X57847Y47433D01*
X58520Y46690D01*
X59234Y45986D01*
X59987Y45324D01*
X60776Y44705D01*
X61599Y44132D01*
X62453Y43606D01*
X63335Y43129D01*
X64243Y42703D01*
X65173Y42329D01*
X66123Y42009D01*
X67090Y41743D01*
X68070Y41531D01*
X69061Y41376D01*
X70059Y41277D01*
X71060Y41234D01*
X72063Y41248D01*
X73063Y41319D01*
X74058Y41447D01*
X75043Y41630D01*
X76017Y41869D01*
X76976Y42162D01*
X77917Y42510D01*
X78836Y42910D01*
X79732Y43361D01*
X80600Y43863D01*
X81439Y44412D01*
X82245Y45009D01*
X83016Y45649D01*
X83750Y46333D01*
X84443Y47057D01*
X85095Y47819D01*
X85703Y48617D01*
X86264Y49447D01*
X86778Y50309D01*
X87242Y51197D01*
X87655Y52111D01*
X88016Y53047D01*
X88323Y54001D01*
X88575Y54972D01*
X88773Y55955D01*
X88914Y56947D01*
X88999Y57947D01*
X89028Y58949D01*
X107925D02*
X107897Y59951D01*
X107812Y60950D01*
X107670Y61943D01*
X107473Y62926D01*
X107220Y63896D01*
X106913Y64851D01*
X106553Y65786D01*
X106140Y66700D01*
X105675Y67589D01*
X105162Y68450D01*
X104600Y69281D01*
X103993Y70079D01*
X103341Y70841D01*
X102647Y71565D01*
X101913Y72248D01*
X101142Y72889D01*
X100336Y73485D01*
X99498Y74035D01*
X98629Y74536D01*
X97734Y74988D01*
X96814Y75388D01*
X95874Y75735D01*
X94915Y76029D01*
X93941Y76268D01*
X92955Y76451D01*
X91961Y76578D01*
X90961Y76649D01*
X89958Y76664D01*
X88956Y76621D01*
X87958Y76522D01*
X86968Y76366D01*
X85988Y76155D01*
X85021Y75889D01*
X84071Y75568D01*
X83140Y75194D01*
X82233Y74768D01*
X81350Y74292D01*
X80497Y73766D01*
X79674Y73193D01*
X78885Y72574D01*
X78132Y71912D01*
X77418Y71208D01*
X76745Y70464D01*
X76115Y69684D01*
X75530Y68870D01*
X74993Y68023D01*
X74504Y67148D01*
X74065Y66246D01*
X73678Y65321D01*
X73344Y64376D01*
X73064Y63413D01*
X72839Y62436D01*
X72669Y61448D01*
X72556Y60451D01*
X72499Y59450D01*
X72499Y58447D01*
X72556Y57446D01*
X72669Y56450D01*
X72839Y55462D01*
X73064Y54485D01*
X73344Y53522D01*
X73678Y52576D01*
X74065Y51651D01*
X74503Y50750D01*
X74993Y49874D01*
X75530Y49028D01*
X76115Y48213D01*
X76745Y47433D01*
X77418Y46690D01*
X78132Y45986D01*
X78885Y45324D01*
X79674Y44705D01*
X80497Y44132D01*
X81350Y43606D01*
X82233Y43129D01*
X83140Y42703D01*
X84071Y42329D01*
X85021Y42009D01*
X85988Y41743D01*
X86968Y41531D01*
X87958Y41376D01*
X88956Y41277D01*
X89958Y41234D01*
X90961Y41248D01*
X91961Y41319D01*
X92955Y41447D01*
X93941Y41630D01*
X94915Y41869D01*
X95874Y42162D01*
X96814Y42510D01*
X97734Y42910D01*
X98629Y43361D01*
X99498Y43863D01*
X100336Y44412D01*
X101142Y45009D01*
X101913Y45649D01*
X102647Y46333D01*
X103341Y47057D01*
X103993Y47819D01*
X104600Y48617D01*
X105162Y49447D01*
X105675Y50309D01*
X106140Y51197D01*
X106553Y52111D01*
X106913Y53047D01*
X107220Y54001D01*
X107473Y54972D01*
X107670Y55955D01*
X107812Y56947D01*
X107897Y57947D01*
X107925Y58949D01*
D12*
X546500Y29697D02*
Y89697D01*
Y29697D02*
X581500D01*
Y89697D01*
X546500D02*
X581500D01*
X546500Y67197D02*
X549000D01*
Y52197D02*
Y67197D01*
X546500Y52197D02*
X549000D01*
Y57197D02*
Y87197D01*
X579000D01*
Y32197D02*
Y87197D01*
X549000Y32197D02*
X579000D01*
X549000D02*
Y52197D01*
Y72197D02*
X554000Y69697D01*
X549000Y67197D02*
X554000Y69697D01*
X559000Y87197D02*
Y89697D01*
X569000Y87197D02*
Y89697D01*
X559000Y88863D02*
X569000D01*
Y29697D02*
Y32197D01*
X559000Y29697D02*
Y32197D01*
Y30530D02*
X569000D01*
X736099Y50099D02*
X735600Y50599D01*
X734600D01*
X734100Y50099D01*
Y48100D01*
X734600Y47600D01*
X735600D01*
X736099Y48100D01*
Y49099D01*
X735100D01*
X737099Y47600D02*
Y50599D01*
X739098Y47600D01*
Y50599D01*
X740098D02*
Y47600D01*
X741598D01*
X742097Y48100D01*
Y50099D01*
X741598Y50599D01*
X740098D01*
X774099Y44899D02*
X773599Y45399D01*
X772600D01*
X772100Y44899D01*
Y42900D01*
X772600Y42400D01*
X773599D01*
X774099Y42900D01*
Y43900D01*
X773100D01*
X775099Y42400D02*
Y45399D01*
X777098Y42400D01*
Y45399D01*
X778098D02*
Y42400D01*
X779598D01*
X780097Y42900D01*
Y44899D01*
X779598Y45399D01*
X778098D01*
X618599Y45299D02*
X618099Y45799D01*
X617100D01*
X616600Y45299D01*
Y43300D01*
X617100Y42800D01*
X618099D01*
X618599Y43300D01*
Y44300D01*
X617600D01*
X619599Y42800D02*
Y45799D01*
X621598Y42800D01*
Y45799D01*
X622598D02*
Y42800D01*
X624098D01*
X624597Y43300D01*
Y45299D01*
X624098Y45799D01*
X622598D01*
X596599Y50099D02*
X596100Y50599D01*
X595100D01*
X594600Y50099D01*
Y48100D01*
X595100Y47600D01*
X596100D01*
X596599Y48100D01*
Y49099D01*
X595600D01*
X597599Y47600D02*
Y50599D01*
X599598Y47600D01*
Y50599D01*
X600598D02*
Y47600D01*
X602098D01*
X602597Y48100D01*
Y50099D01*
X602098Y50599D01*
X600598D01*
X498099Y49699D02*
X497600Y50199D01*
X496600D01*
X496100Y49699D01*
Y47700D01*
X496600Y47200D01*
X497600D01*
X498099Y47700D01*
Y48700D01*
X497100D01*
X499099Y47200D02*
Y50199D01*
X501098Y47200D01*
Y50199D01*
X502098D02*
Y47200D01*
X503598D01*
X504097Y47700D01*
Y49699D01*
X503598Y50199D01*
X502098D01*
X459099Y45299D02*
X458600Y45799D01*
X457600D01*
X457100Y45299D01*
Y43300D01*
X457600Y42800D01*
X458600D01*
X459099Y43300D01*
Y44300D01*
X458100D01*
X460099Y42800D02*
Y45799D01*
X462098Y42800D01*
Y45799D01*
X463098D02*
Y42800D01*
X464598D01*
X465097Y43300D01*
Y45299D01*
X464598Y45799D01*
X463098D01*
X440599Y45299D02*
X440099Y45799D01*
X439100D01*
X438600Y45299D01*
Y43300D01*
X439100Y42800D01*
X440099D01*
X440599Y43300D01*
Y44300D01*
X439600D01*
X441599Y42800D02*
Y45799D01*
X443598Y42800D01*
Y45799D01*
X444598D02*
Y42800D01*
X446098D01*
X446597Y43300D01*
Y45299D01*
X446098Y45799D01*
X444598D01*
X281599Y49699D02*
X281100Y50199D01*
X280100D01*
X279600Y49699D01*
Y47700D01*
X280100Y47200D01*
X281100D01*
X281599Y47700D01*
Y48700D01*
X280600D01*
X282599Y47200D02*
Y50199D01*
X284598Y47200D01*
Y50199D01*
X285598D02*
Y47200D01*
X287098D01*
X287597Y47700D01*
Y49699D01*
X287098Y50199D01*
X285598D01*
X243599Y44899D02*
X243099Y45399D01*
X242100D01*
X241600Y44899D01*
Y42900D01*
X242100Y42400D01*
X243099D01*
X243599Y42900D01*
Y43900D01*
X242600D01*
X244599Y42400D02*
Y45399D01*
X246598Y42400D01*
Y45399D01*
X247598D02*
Y42400D01*
X249098D01*
X249597Y42900D01*
Y44899D01*
X249098Y45399D01*
X247598D01*
X126099Y49699D02*
X125600Y50199D01*
X124600D01*
X124100Y49699D01*
Y47700D01*
X124600Y47200D01*
X125600D01*
X126099Y47700D01*
Y48700D01*
X125100D01*
X127099Y47200D02*
Y50199D01*
X129098Y47200D01*
Y50199D01*
X130098D02*
Y47200D01*
X131598D01*
X132097Y47700D01*
Y49699D01*
X131598Y50199D01*
X130098D01*
X467590Y34099D02*
X467090Y34599D01*
X466091D01*
X465591Y34099D01*
Y32100D01*
X466091Y31600D01*
X467090D01*
X467590Y32100D01*
Y33099D01*
X466590D01*
X468590Y31600D02*
Y34599D01*
X470589Y31600D01*
Y34599D01*
X471589D02*
Y31600D01*
X473088D01*
X473588Y32100D01*
Y34099D01*
X473088Y34599D01*
X471589D01*
X88099Y45299D02*
X87599Y45799D01*
X86600D01*
X86100Y45299D01*
Y43300D01*
X86600Y42800D01*
X87599D01*
X88099Y43300D01*
Y44300D01*
X87100D01*
X89099Y42800D02*
Y45799D01*
X91098Y42800D01*
Y45799D01*
X92098D02*
Y42800D01*
X93598D01*
X94097Y43300D01*
Y45299D01*
X93598Y45799D01*
X92098D01*
X467590Y34499D02*
X467090Y34999D01*
X466091D01*
X465591Y34499D01*
Y32500D01*
X466091Y32000D01*
X467090D01*
X467590Y32500D01*
Y33500D01*
X466590D01*
X468590Y32000D02*
Y34999D01*
X470589Y32000D01*
Y34999D01*
X471589D02*
Y32000D01*
X473088D01*
X473588Y32500D01*
Y34499D01*
X473088Y34999D01*
X471589D01*
X392991D02*
Y33000D01*
X393990Y32000D01*
X394990Y33000D01*
Y34999D01*
X395990Y32000D02*
X396989D01*
X396490D01*
Y33999D01*
X395990D01*
X398489Y32000D02*
Y33999D01*
X399989D01*
X400488Y33500D01*
Y32000D01*
X401488D02*
X402488D01*
X401988D01*
Y34999D01*
X401488Y34499D01*
X380500Y45999D02*
Y44000D01*
X381500Y43000D01*
X382499Y44000D01*
Y45999D01*
X383499Y43000D02*
X384499D01*
X383999D01*
Y44999D01*
X383499D01*
X385998Y43000D02*
Y44999D01*
X387498D01*
X387998Y44499D01*
Y43000D01*
X390997D02*
X388997D01*
X390997Y44999D01*
Y45499D01*
X390497Y45999D01*
X389497D01*
X388997Y45499D01*
X341000Y46199D02*
Y44200D01*
X342000Y43200D01*
X342999Y44200D01*
Y46199D01*
X343999Y43200D02*
X344999D01*
X344499D01*
Y45199D01*
X343999D01*
X346498Y43200D02*
Y45199D01*
X347998D01*
X348498Y44699D01*
Y43200D01*
X349497D02*
X350497D01*
X349997D01*
Y46199D01*
X349497Y45699D01*
X352700Y56065D02*
X347368Y61397D01*
X352700D02*
X347368Y56065D01*
X352700Y58731D02*
X347368D01*
X350034Y61397D02*
Y56065D01*
D13*
X463500Y28500D02*
Y38500D01*
X403500Y28500D02*
X463500D01*
X403500D02*
Y38500D01*
X463500D01*
X453500Y28500D02*
Y38500D01*
X443500Y28500D02*
Y38500D01*
X433500Y28500D02*
Y38500D01*
X423500Y28500D02*
Y38500D01*
X413500Y28500D02*
Y38500D01*
D14*
X517600Y68115D02*
Y66116D01*
X518600Y65116D01*
X519599Y66116D01*
Y68115D01*
X520599Y65116D02*
X521599D01*
X521099D01*
Y67115D01*
X520599D01*
X523098Y65116D02*
Y67115D01*
X524598D01*
X525098Y66616D01*
Y65116D01*
X517600Y60077D02*
X518600D01*
X518100D01*
Y63076D01*
X517600Y62577D01*
X520599Y59578D02*
X521099Y60077D01*
Y60577D01*
X520599D01*
Y60077D01*
X521099D01*
X520599Y59578D01*
X520099Y59078D01*
X524598Y60077D02*
Y63076D01*
X523098Y61577D01*
X525098D01*
X519599Y55038D02*
X517600D01*
X519599Y57038D01*
Y57538D01*
X519100Y58038D01*
X518100D01*
X517600Y57538D01*
X521099Y54539D02*
X521599Y55038D01*
Y55538D01*
X521099D01*
Y55038D01*
X521599D01*
X521099Y54539D01*
X520599Y54039D01*
X525597Y58038D02*
X523598D01*
Y56538D01*
X524598Y57038D01*
X525098D01*
X525597Y56538D01*
Y55538D01*
X525098Y55038D01*
X524098D01*
X523598Y55538D01*
X517600Y52499D02*
X518100Y52999D01*
X519100D01*
X519599Y52499D01*
Y51999D01*
X519100Y51499D01*
X518600D01*
X519100D01*
X519599Y50999D01*
Y50499D01*
X519100Y50000D01*
X518100D01*
X517600Y50499D01*
X521099Y49500D02*
X521599Y50000D01*
Y50499D01*
X521099D01*
Y50000D01*
X521599D01*
X521099Y49500D01*
X520599Y49000D01*
X525597Y52499D02*
X525098Y52999D01*
X524098D01*
X523598Y52499D01*
Y50499D01*
X524098Y50000D01*
X525098D01*
X525597Y50499D01*
Y51499D01*
X524598D01*
M02*
