M48
;Layer_Color=9474304
;FILE_FORMAT=2:5
INCH,LZ
;TYPE=PLATED
T1F00S00C0.01200
T2F00S00C0.03150
T3F00S00C0.03500
T4F00S00C0.03937
T5F00S00C0.12598
%
T01
X0297Y00628
X0311Y00536
X0367499Y00428
X03985Y00448
X04155Y00472
X0436Y00496
X04495
X05135Y0054
Y00628
X07035Y00612
X0703Y00508
T02
X0071311Y00495
Y0068398
X0090209
Y00495
X0120379Y0049255
Y0068955
X0226823Y0068594
Y0049697
X0245721
Y0068594
X027589Y0068955
Y0049255
X0423673Y0049697
X0442571
Y0068594
X0423673
X0461469
Y0049697
X04923Y00487
Y00684
X0590851Y0068955
Y0049255
X0620421Y0049516
Y0068413
X0639319
Y0049516
X0746363Y0049255
Y0068955
X0775933Y0068413
Y0049516
X0794831
Y0068413
T03
X0559Y0049697
Y0059697
Y0069697
X0569
Y0059697
Y0049697
T04
X04085Y00335
X04185
X04285
X04385
X04485
X04585
T05
X0220472Y0059055
X0330709
X0535433
X0645669
M30
