G04*
G04 #@! TF.GenerationSoftware,Altium Limited,Altium Designer,20.0.12 (288)*
G04*
G04 Layer_Physical_Order=2*
G04 Layer_Color=16711680*
%FSLAX25Y25*%
%MOIN*%
G70*
G01*
G75*
%ADD10C,0.01000*%
%ADD24C,0.00500*%
%ADD25C,0.02600*%
%ADD26R,0.05906X0.05906*%
%ADD27C,0.05906*%
%ADD28C,0.12598*%
%ADD29C,0.06200*%
%ADD30C,0.07087*%
%ADD31C,0.02400*%
D10*
X125634Y44000D02*
X240024D01*
X120379Y49255D02*
X125634Y44000D01*
X461469Y49337D02*
Y49697D01*
X461910Y49255D01*
X240024Y44000D02*
X245721Y49697D01*
X746624Y49516D02*
X775933D01*
X275449Y49697D02*
X275890Y49255D01*
X245721Y49697D02*
X275449D01*
X120134Y49500D02*
X120379Y49255D01*
X90209Y49500D02*
X120134D01*
D24*
X798633Y68413D02*
X798504Y69398D01*
X798124Y70315D01*
X797520Y71102D01*
X796732Y71707D01*
X795815Y72087D01*
X794831Y72216D01*
X793847Y72087D01*
X792929Y71707D01*
X792142Y71102D01*
X791537Y70315D01*
X791157Y69398D01*
X791028Y68413D01*
X791157Y67429D01*
X791537Y66512D01*
X792142Y65724D01*
X792929Y65120D01*
X793847Y64740D01*
X794831Y64611D01*
X795815Y64740D01*
X796732Y65120D01*
X797520Y65724D01*
X798124Y66512D01*
X798504Y67429D01*
X798633Y68413D01*
X779736D02*
X779606Y69398D01*
X779226Y70315D01*
X778622Y71102D01*
X777835Y71707D01*
X776917Y72087D01*
X775933Y72216D01*
X774949Y72087D01*
X774032Y71707D01*
X773244Y71102D01*
X772640Y70315D01*
X772260Y69398D01*
X772130Y68413D01*
X772260Y67429D01*
X772640Y66512D01*
X773244Y65724D01*
X774032Y65120D01*
X774949Y64740D01*
X775933Y64611D01*
X776917Y64740D01*
X777835Y65120D01*
X778622Y65724D01*
X779226Y66512D01*
X779606Y67429D01*
X779736Y68413D01*
X750166Y68955D02*
X750036Y69939D01*
X749656Y70856D01*
X749052Y71644D01*
X748264Y72248D01*
X747347Y72628D01*
X746363Y72758D01*
X745379Y72628D01*
X744462Y72248D01*
X743674Y71644D01*
X743070Y70856D01*
X742690Y69939D01*
X742560Y68955D01*
X742690Y67971D01*
X743070Y67054D01*
X743674Y66266D01*
X744462Y65662D01*
X745379Y65282D01*
X746363Y65152D01*
X747347Y65282D01*
X748264Y65662D01*
X749052Y66266D01*
X749656Y67054D01*
X750036Y67971D01*
X750166Y68955D01*
X623558Y70563D02*
X622887Y71308D01*
X622045Y71852D01*
X621090Y72157D01*
X620089Y72202D01*
X619110Y71983D01*
X618223Y71516D01*
X617489Y70834D01*
X643122Y68413D02*
X643000Y69369D01*
X642641Y70264D01*
X642069Y71039D01*
X641321Y71646D01*
X640444Y72046D01*
X639495Y72212D01*
X638535Y72134D01*
X637625Y71818D01*
X636823Y71283D01*
X636182Y70563D01*
X594157Y70834D02*
X593585Y71598D01*
X592842Y72195D01*
X591972Y72589D01*
X591033Y72754D01*
X590082Y72679D01*
X589179Y72370D01*
X588382Y71847D01*
X636182Y66263D02*
X636823Y65544D01*
X637625Y65009D01*
X638535Y64692D01*
X639495Y64615D01*
X640444Y64781D01*
X641321Y65180D01*
X642069Y65788D01*
X642641Y66563D01*
X643000Y67458D01*
X643122Y68413D01*
X617115Y66534D02*
X617677Y65781D01*
X618406Y65189D01*
X619258Y64793D01*
X620181Y64618D01*
X621119Y64675D01*
X593001Y65819D02*
X593784Y66534D01*
X545217Y76520D02*
X544520Y76986D01*
X543697Y77150D01*
X572314Y71847D02*
X571660Y72617D01*
X570831Y73197D01*
X569883Y73547D01*
X568877Y73645D01*
X567879Y73484D01*
X566954Y73076D01*
X566164Y72446D01*
X565559Y71636D01*
X565179Y70699D01*
X565050Y69697D01*
X565179Y68694D01*
X565559Y67757D01*
X566164Y66948D01*
X566954Y66318D01*
X567879Y65909D01*
X568877Y65749D01*
X569883Y65847D01*
X570831Y66197D01*
X571660Y66776D01*
X572314Y67547D01*
X562950Y69697D02*
X562826Y70679D01*
X562461Y71600D01*
X561879Y72401D01*
X561117Y73032D01*
X560221Y73453D01*
X559248Y73639D01*
X558260Y73577D01*
X557318Y73271D01*
X556482Y72740D01*
X555804Y72019D01*
X555327Y71151D01*
X555081Y70192D01*
Y69202D01*
X555327Y68243D01*
X555804Y67375D01*
X556482Y66653D01*
X557318Y66123D01*
X558260Y65817D01*
X559248Y65755D01*
X560221Y65940D01*
X561117Y66362D01*
X561879Y66993D01*
X562461Y67794D01*
X562826Y68714D01*
X562950Y69697D01*
X545217Y76520D02*
X544520Y76986D01*
X543697Y77150D01*
X496103Y68400D02*
X495973Y69384D01*
X495593Y70301D01*
X494989Y71089D01*
X494201Y71693D01*
X493284Y72073D01*
X492300Y72203D01*
X491316Y72073D01*
X490399Y71693D01*
X489611Y71089D01*
X489007Y70301D01*
X488627Y69384D01*
X488497Y68400D01*
X488627Y67416D01*
X489007Y66499D01*
X489611Y65711D01*
X490399Y65107D01*
X491316Y64727D01*
X492300Y64597D01*
X493284Y64727D01*
X494201Y65107D01*
X494989Y65711D01*
X495593Y66499D01*
X495973Y67416D01*
X496103Y68400D01*
X465271Y68594D02*
X465142Y69579D01*
X464762Y70496D01*
X464157Y71284D01*
X463370Y71888D01*
X462453Y72268D01*
X461469Y72397D01*
X460484Y72268D01*
X459567Y71888D01*
X458780Y71284D01*
X458175Y70496D01*
X457795Y69579D01*
X457666Y68594D01*
X457795Y67610D01*
X458175Y66693D01*
X458780Y65905D01*
X459567Y65301D01*
X460484Y64921D01*
X461469Y64792D01*
X462453Y64921D01*
X463370Y65301D01*
X464157Y65905D01*
X464762Y66693D01*
X465142Y67610D01*
X465271Y68594D01*
X446374D02*
X446244Y69579D01*
X445864Y70496D01*
X445260Y71284D01*
X444472Y71888D01*
X443555Y72268D01*
X442571Y72397D01*
X441587Y72268D01*
X440669Y71888D01*
X439882Y71284D01*
X439278Y70496D01*
X438898Y69579D01*
X438768Y68594D01*
X438898Y67610D01*
X439278Y66693D01*
X439882Y65905D01*
X440669Y65301D01*
X441587Y64921D01*
X442571Y64792D01*
X443555Y64921D01*
X444472Y65301D01*
X445260Y65905D01*
X445864Y66693D01*
X446244Y67610D01*
X446374Y68594D01*
X587319Y67547D02*
X587882Y66580D01*
X588701Y65819D01*
X798633Y49516D02*
X798504Y50500D01*
X798124Y51417D01*
X797520Y52205D01*
X796732Y52809D01*
X795815Y53189D01*
X794831Y53319D01*
X793847Y53189D01*
X792929Y52809D01*
X792142Y52205D01*
X791537Y51417D01*
X791157Y50500D01*
X791028Y49516D01*
X791157Y48531D01*
X791537Y47614D01*
X792142Y46827D01*
X792929Y46222D01*
X793847Y45843D01*
X794831Y45713D01*
X795815Y45843D01*
X796732Y46222D01*
X797520Y46827D01*
X798124Y47614D01*
X798504Y48531D01*
X798633Y49516D01*
X652818Y59055D02*
X652749Y60050D01*
X652542Y61026D01*
X652200Y61963D01*
X651732Y62844D01*
X651146Y63651D01*
X650453Y64368D01*
X649667Y64982D01*
X648803Y65481D01*
X647879Y65854D01*
X646911Y66096D01*
X645919Y66200D01*
X644922Y66165D01*
X643940Y65992D01*
X642991Y65684D01*
X642095Y65246D01*
X641268Y64689D01*
X640527Y64021D01*
X639886Y63257D01*
X639357Y62411D01*
X638951Y61500D01*
X638676Y60541D01*
X638538Y59554D01*
Y58556D01*
X638676Y57569D01*
X638951Y56610D01*
X639357Y55699D01*
X639886Y54853D01*
X640527Y54089D01*
X641268Y53421D01*
X642095Y52864D01*
X642991Y52426D01*
X643940Y52118D01*
X644922Y51945D01*
X645919Y51910D01*
X646911Y52014D01*
X647879Y52256D01*
X648803Y52629D01*
X649667Y53128D01*
X650453Y53742D01*
X651146Y54460D01*
X651732Y55267D01*
X652200Y56147D01*
X652542Y57085D01*
X652749Y58060D01*
X652818Y59055D01*
X652749Y60050D01*
X652542Y61026D01*
X652200Y61963D01*
X651732Y62844D01*
X651146Y63651D01*
X650453Y64368D01*
X649667Y64982D01*
X648803Y65481D01*
X647879Y65854D01*
X646911Y66096D01*
X645919Y66200D01*
X644922Y66165D01*
X643940Y65992D01*
X642991Y65684D01*
X642095Y65246D01*
X641268Y64689D01*
X640527Y64021D01*
X639886Y63257D01*
X639357Y62411D01*
X638951Y61500D01*
X638676Y60541D01*
X638538Y59554D01*
Y58556D01*
X638676Y57569D01*
X638951Y56610D01*
X639357Y55699D01*
X639886Y54853D01*
X640527Y54089D01*
X641268Y53421D01*
X642095Y52864D01*
X642991Y52426D01*
X643940Y52118D01*
X644922Y51945D01*
X645919Y51910D01*
X646911Y52014D01*
X647879Y52256D01*
X648803Y52629D01*
X649667Y53128D01*
X650453Y53742D01*
X651146Y54460D01*
X651732Y55267D01*
X652200Y56147D01*
X652542Y57085D01*
X652749Y58060D01*
X652818Y59055D01*
X643122Y49516D02*
X643003Y50459D01*
X642653Y51344D01*
X642095Y52114D01*
X641364Y52722D01*
X640504Y53129D01*
X639571Y53310D01*
X638621Y53254D01*
X592372Y61131D02*
X592837Y61828D01*
X593001Y62651D01*
X592372Y61131D02*
X592837Y61828D01*
X593001Y62651D01*
X635581Y50213D02*
X635526Y49245D01*
X635718Y48294D01*
X636144Y47422D01*
X636778Y46687D01*
X637576Y46136D01*
X638488Y45805D01*
X639455Y45715D01*
X640412Y45873D01*
X641298Y46269D01*
X642055Y46875D01*
X642635Y47654D01*
X642998Y48553D01*
X643122Y49516D01*
X572950Y59697D02*
X572826Y60679D01*
X572461Y61600D01*
X571879Y62401D01*
X571116Y63032D01*
X570221Y63454D01*
X569248Y63639D01*
X568260Y63577D01*
X567318Y63271D01*
X566482Y62740D01*
X565804Y62019D01*
X565327Y61151D01*
X565081Y60192D01*
Y59202D01*
X565327Y58243D01*
X565804Y57375D01*
X566482Y56653D01*
X567318Y56123D01*
X568260Y55817D01*
X569248Y55755D01*
X570221Y55940D01*
X571116Y56362D01*
X571879Y56993D01*
X572461Y57794D01*
X572826Y58714D01*
X572950Y59697D01*
X562950Y59697D02*
X562823Y60691D01*
X562450Y61621D01*
X561855Y62427D01*
X561076Y63058D01*
X560163Y63472D01*
X559176Y63643D01*
X558177Y63560D01*
X555137Y60520D02*
X555055Y59508D01*
X555233Y58508D01*
X555661Y57587D01*
X556309Y56805D01*
X557135Y56215D01*
X558085Y55854D01*
X559095Y55748D01*
X560098Y55903D01*
X561029Y56308D01*
X561826Y56937D01*
X562436Y57749D01*
X562819Y58690D01*
X562950Y59697D01*
Y49697D02*
X562826Y50679D01*
X562461Y51600D01*
X561879Y52401D01*
X561117Y53032D01*
X560221Y53453D01*
X559248Y53639D01*
X558260Y53577D01*
X557318Y53271D01*
X556482Y52740D01*
X555804Y52019D01*
X555327Y51151D01*
X555081Y50192D01*
Y49202D01*
X555327Y48243D01*
X555804Y47375D01*
X556482Y46653D01*
X557318Y46123D01*
X558260Y45817D01*
X559248Y45755D01*
X560221Y45940D01*
X561117Y46362D01*
X561879Y46993D01*
X562461Y47794D01*
X562826Y48715D01*
X562950Y49697D01*
X542582Y59055D02*
X542513Y60050D01*
X542305Y61026D01*
X541964Y61963D01*
X541496Y62844D01*
X540910Y63651D01*
X540217Y64368D01*
X539431Y64982D01*
X538567Y65481D01*
X537642Y65854D01*
X536674Y66096D01*
X535683Y66200D01*
X534686Y66165D01*
X533704Y65992D01*
X532755Y65684D01*
X531858Y65246D01*
X531032Y64689D01*
X530290Y64021D01*
X529649Y63257D01*
X529121Y62411D01*
X528715Y61500D01*
X528440Y60541D01*
X528301Y59554D01*
Y58556D01*
X528440Y57569D01*
X528715Y56610D01*
X529121Y55699D01*
X529649Y54853D01*
X530290Y54089D01*
X531032Y53421D01*
X531858Y52864D01*
X532755Y52426D01*
X533704Y52118D01*
X534686Y51945D01*
X535683Y51910D01*
X536674Y52014D01*
X537642Y52256D01*
X538567Y52629D01*
X539431Y53128D01*
X540217Y53742D01*
X540910Y54460D01*
X541496Y55267D01*
X541964Y56147D01*
X542305Y57085D01*
X542513Y58060D01*
X542582Y59055D01*
X542513Y60050D01*
X542305Y61026D01*
X541964Y61963D01*
X541496Y62844D01*
X540910Y63651D01*
X540217Y64368D01*
X539431Y64982D01*
X538567Y65481D01*
X537642Y65854D01*
X536674Y66096D01*
X535683Y66200D01*
X534686Y66165D01*
X533704Y65992D01*
X532755Y65684D01*
X531858Y65246D01*
X531032Y64689D01*
X530290Y64021D01*
X529649Y63257D01*
X529121Y62411D01*
X528715Y61500D01*
X528440Y60541D01*
X528301Y59554D01*
Y58556D01*
X528440Y57569D01*
X528715Y56610D01*
X529121Y55699D01*
X529649Y54853D01*
X530290Y54089D01*
X531032Y53421D01*
X531858Y52864D01*
X532755Y52426D01*
X533704Y52118D01*
X534686Y51945D01*
X535683Y51910D01*
X536674Y52014D01*
X537642Y52256D01*
X538567Y52629D01*
X539431Y53128D01*
X540217Y53742D01*
X540910Y54460D01*
X541496Y55267D01*
X541964Y56147D01*
X542305Y57085D01*
X542513Y58060D01*
X542582Y59055D01*
X571700Y41350D02*
X572523Y41514D01*
X573220Y41980D01*
X571700Y41350D02*
X572523Y41514D01*
X573220Y41980D01*
X476378Y40850D02*
X475401Y40431D01*
X475030Y39435D01*
X466365Y27112D02*
X467360Y27108D01*
X468347Y27225D01*
X469313Y27461D01*
X470243Y27813D01*
X471123Y28275D01*
X471940Y28841D01*
X472683Y29502D01*
X473340Y30249D01*
X473901Y31069D01*
X474358Y31952D01*
X474704Y32884D01*
X474935Y33851D01*
X475046Y34839D01*
X466365Y27112D02*
X465615Y26941D01*
X448500Y45650D02*
X447677Y45486D01*
X446980Y45020D01*
X448500Y45650D02*
X447677Y45486D01*
X446980Y45020D01*
X452893Y33500D02*
X452783Y34478D01*
X452458Y35406D01*
X451935Y36239D01*
X451239Y36935D01*
X450406Y37458D01*
X449478Y37783D01*
X448500Y37893D01*
X447522Y37783D01*
X446594Y37458D01*
X445761Y36935D01*
X445065Y36239D01*
X444542Y35406D01*
X444217Y34478D01*
X444107Y33500D01*
X444217Y32522D01*
X444542Y31594D01*
X445065Y30761D01*
X445761Y30065D01*
X446594Y29542D01*
X447522Y29217D01*
X448500Y29107D01*
X449478Y29217D01*
X450406Y29542D01*
X451239Y30065D01*
X451935Y30761D01*
X452458Y31594D01*
X452783Y32522D01*
X452893Y33500D01*
X442893D02*
X442729Y34689D01*
X439689Y37729D02*
X438708Y37888D01*
X437716Y37823D01*
X436765Y37536D01*
X435903Y37043D01*
X435173Y36369D01*
X434613Y35548D01*
X434252Y34622D01*
X434109Y33639D01*
X434190Y32648D01*
X434492Y31702D01*
X434998Y30847D01*
X435684Y30128D01*
X436514Y29581D01*
X437445Y29235D01*
X438431Y29107D01*
X439420Y29204D01*
X440361Y29520D01*
X441208Y30041D01*
X441916Y30738D01*
X442450Y31576D01*
X442781Y32513D01*
X442893Y33500D01*
X389090Y77150D02*
X388267Y76986D01*
X387569Y76520D01*
X389090Y77150D02*
X388267Y76986D01*
X387569Y76520D01*
X427476Y68594D02*
X427346Y69579D01*
X426966Y70496D01*
X426362Y71284D01*
X425575Y71888D01*
X424657Y72268D01*
X423673Y72397D01*
X422689Y72268D01*
X421772Y71888D01*
X420984Y71284D01*
X420380Y70496D01*
X420000Y69579D01*
X419871Y68594D01*
X420000Y67610D01*
X420380Y66693D01*
X420984Y65905D01*
X421772Y65301D01*
X422689Y64921D01*
X423673Y64792D01*
X424657Y64921D01*
X425575Y65301D01*
X426362Y65905D01*
X426966Y66693D01*
X427346Y67610D01*
X427476Y68594D01*
X279027Y71105D02*
X278399Y71813D01*
X277616Y72344D01*
X276725Y72665D01*
X275783Y72756D01*
X274848Y72612D01*
X273977Y72241D01*
X273225Y71667D01*
X272638Y70925D01*
X272885Y66625D02*
X273612Y65911D01*
X274502Y65415D01*
X275492Y65173D01*
X276510Y65203D01*
X277484Y65502D01*
X278344Y66049D01*
X279027Y66805D01*
X248726Y70925D02*
X247999Y71639D01*
X247109Y72135D01*
X246119Y72376D01*
X245101Y72346D01*
X244127Y72047D01*
X243267Y71500D01*
X242584Y70745D01*
X229960D02*
X229280Y71497D01*
X228425Y72043D01*
X227457Y72344D01*
X226444Y72378D01*
X225457Y72144D01*
X224568Y71657D01*
X223839Y70952D01*
X223322Y70079D01*
X223054Y69102D01*
Y68088D01*
X223322Y67110D01*
X223839Y66237D01*
X224568Y65532D01*
X225457Y65045D01*
X226444Y64811D01*
X227457Y64845D01*
X228425Y65146D01*
X229280Y65692D01*
X229960Y66444D01*
X245023Y64856D02*
X245940Y64798D01*
X246844Y64961D01*
X247682Y65337D01*
X248406Y65902D01*
X248973Y66625D01*
X124181Y68955D02*
X124052Y69939D01*
X123672Y70856D01*
X123068Y71644D01*
X122280Y72248D01*
X121363Y72628D01*
X120379Y72758D01*
X119395Y72628D01*
X118477Y72248D01*
X117690Y71644D01*
X117085Y70856D01*
X116706Y69939D01*
X116576Y68955D01*
X116706Y67971D01*
X117085Y67054D01*
X117690Y66266D01*
X118477Y65662D01*
X119395Y65282D01*
X120379Y65152D01*
X121363Y65282D01*
X122280Y65662D01*
X123068Y66266D01*
X123672Y67054D01*
X124052Y67971D01*
X124181Y68955D01*
X94011Y68398D02*
X93882Y69382D01*
X93502Y70299D01*
X92898Y71087D01*
X92110Y71691D01*
X91193Y72071D01*
X90209Y72200D01*
X89224Y72071D01*
X88307Y71691D01*
X87520Y71087D01*
X86915Y70299D01*
X86536Y69382D01*
X86406Y68398D01*
X86536Y67413D01*
X86915Y66496D01*
X87520Y65709D01*
X88307Y65104D01*
X89224Y64724D01*
X90209Y64595D01*
X91193Y64724D01*
X92110Y65104D01*
X92898Y65709D01*
X93502Y66496D01*
X93882Y67413D01*
X94011Y68398D01*
X75114D02*
X74984Y69382D01*
X74604Y70299D01*
X74000Y71087D01*
X73212Y71691D01*
X72295Y72071D01*
X71311Y72200D01*
X70327Y72071D01*
X69410Y71691D01*
X68622Y71087D01*
X68018Y70299D01*
X67638Y69382D01*
X67508Y68398D01*
X67638Y67413D01*
X68018Y66496D01*
X68622Y65709D01*
X69410Y65104D01*
X70327Y64724D01*
X71311Y64595D01*
X72295Y64724D01*
X73212Y65104D01*
X74000Y65709D01*
X74604Y66496D01*
X74984Y67413D01*
X75114Y68398D01*
X427476Y49697D02*
X427346Y50681D01*
X426966Y51598D01*
X426362Y52386D01*
X425575Y52990D01*
X424657Y53370D01*
X423673Y53500D01*
X422689Y53370D01*
X421772Y52990D01*
X420984Y52386D01*
X420380Y51598D01*
X420000Y50681D01*
X419871Y49697D01*
X420000Y48713D01*
X420380Y47796D01*
X420984Y47008D01*
X421772Y46404D01*
X422689Y46024D01*
X423673Y45894D01*
X424657Y46024D01*
X425575Y46404D01*
X426362Y47008D01*
X426966Y47796D01*
X427346Y48713D01*
X427476Y49697D01*
X422893Y33500D02*
X422777Y34504D01*
X422434Y35455D01*
X421883Y36303D01*
X421153Y37002D01*
X420283Y37515D01*
X419318Y37817D01*
X418309Y37889D01*
X417311Y37729D01*
X432893Y33500D02*
X432783Y34478D01*
X432458Y35406D01*
X431935Y36239D01*
X431239Y36935D01*
X430406Y37458D01*
X429478Y37783D01*
X428500Y37893D01*
X427522Y37783D01*
X426594Y37458D01*
X425761Y36935D01*
X425065Y36239D01*
X424542Y35406D01*
X424217Y34478D01*
X424107Y33500D01*
X424217Y32522D01*
X424542Y31594D01*
X425065Y30761D01*
X425761Y30065D01*
X426594Y29542D01*
X427522Y29217D01*
X428500Y29107D01*
X429478Y29217D01*
X430406Y29542D01*
X431239Y30065D01*
X431935Y30761D01*
X432458Y31594D01*
X432783Y32522D01*
X432893Y33500D01*
X412893D02*
X412783Y34478D01*
X412458Y35406D01*
X411935Y36239D01*
X411239Y36935D01*
X410406Y37458D01*
X409478Y37783D01*
X408500Y37893D01*
X407522Y37783D01*
X406594Y37458D01*
X405761Y36935D01*
X405065Y36239D01*
X404542Y35406D01*
X404217Y34478D01*
X404107Y33500D01*
X404217Y32522D01*
X404542Y31594D01*
X405065Y30761D01*
X405761Y30065D01*
X406594Y29542D01*
X407522Y29217D01*
X408500Y29107D01*
X409478Y29217D01*
X410406Y29542D01*
X411239Y30065D01*
X411935Y30761D01*
X412458Y31594D01*
X412783Y32522D01*
X412893Y33500D01*
X414271Y34689D02*
X414111Y33703D01*
X414179Y32707D01*
X414469Y31752D01*
X414968Y30888D01*
X415649Y30158D01*
X416477Y29600D01*
X417409Y29244D01*
X418398Y29108D01*
X419392Y29198D01*
X420340Y29511D01*
X421194Y30029D01*
X421908Y30727D01*
X422445Y31568D01*
X422780Y32508D01*
X422893Y33500D01*
X337858Y59055D02*
X337788Y60050D01*
X337581Y61026D01*
X337240Y61963D01*
X336771Y62844D01*
X336185Y63651D01*
X335492Y64368D01*
X334706Y64982D01*
X333843Y65481D01*
X332918Y65854D01*
X331950Y66096D01*
X330958Y66200D01*
X329961Y66165D01*
X328979Y65992D01*
X328030Y65684D01*
X327134Y65246D01*
X326307Y64689D01*
X325566Y64021D01*
X324925Y63257D01*
X324396Y62411D01*
X323991Y61500D01*
X323716Y60541D01*
X323577Y59554D01*
Y58556D01*
X323716Y57569D01*
X323991Y56610D01*
X324396Y55699D01*
X324925Y54853D01*
X325566Y54089D01*
X326307Y53421D01*
X327134Y52864D01*
X328030Y52426D01*
X328979Y52118D01*
X329961Y51945D01*
X330958Y51910D01*
X331950Y52014D01*
X332918Y52256D01*
X333843Y52629D01*
X334706Y53128D01*
X335492Y53742D01*
X336185Y54460D01*
X336771Y55267D01*
X337240Y56147D01*
X337581Y57085D01*
X337788Y58060D01*
X337858Y59055D01*
X337788Y60050D01*
X337581Y61026D01*
X337240Y61963D01*
X336771Y62844D01*
X336185Y63651D01*
X335492Y64368D01*
X334706Y64982D01*
X333843Y65481D01*
X332918Y65854D01*
X331950Y66096D01*
X330958Y66200D01*
X329961Y66165D01*
X328979Y65992D01*
X328030Y65684D01*
X327134Y65246D01*
X326307Y64689D01*
X325566Y64021D01*
X324925Y63257D01*
X324396Y62411D01*
X323991Y61500D01*
X323716Y60541D01*
X323577Y59554D01*
Y58556D01*
X323716Y57569D01*
X323991Y56610D01*
X324396Y55699D01*
X324925Y54853D01*
X325566Y54089D01*
X326307Y53421D01*
X327134Y52864D01*
X328030Y52426D01*
X328979Y52118D01*
X329961Y51945D01*
X330958Y51910D01*
X331950Y52014D01*
X332918Y52256D01*
X333843Y52629D01*
X334706Y53128D01*
X335492Y53742D01*
X336185Y54460D01*
X336771Y55267D01*
X337240Y56147D01*
X337581Y57085D01*
X337788Y58060D01*
X337858Y59055D01*
X230626Y49697D02*
X230561Y50394D01*
X227622Y59055D02*
X227552Y60050D01*
X227345Y61026D01*
X227004Y61963D01*
X226535Y62844D01*
X225949Y63651D01*
X225256Y64368D01*
X224470Y64982D01*
X223606Y65481D01*
X222682Y65854D01*
X221714Y66096D01*
X220722Y66200D01*
X219725Y66165D01*
X218743Y65992D01*
X217794Y65684D01*
X216898Y65246D01*
X216071Y64689D01*
X215330Y64021D01*
X214689Y63257D01*
X214160Y62411D01*
X213754Y61500D01*
X213479Y60541D01*
X213341Y59554D01*
Y58556D01*
X213479Y57569D01*
X213754Y56610D01*
X214160Y55699D01*
X214689Y54853D01*
X215330Y54089D01*
X216071Y53421D01*
X216898Y52864D01*
X217794Y52426D01*
X218743Y52118D01*
X219725Y51945D01*
X220722Y51910D01*
X221714Y52014D01*
X222682Y52256D01*
X223606Y52629D01*
X224470Y53128D01*
X225256Y53742D01*
X225949Y54460D01*
X226535Y55267D01*
X227004Y56147D01*
X227345Y57085D01*
X227552Y58060D01*
X227622Y59055D01*
X227520Y53435D02*
X226545Y53489D01*
X225587Y53293D01*
X224711Y52859D01*
X223975Y52217D01*
X223427Y51408D01*
X223103Y50485D01*
X223025Y49511D01*
X223197Y48549D01*
X223610Y47663D01*
X224234Y46911D01*
X225030Y46343D01*
X225944Y45997D01*
X226916Y45895D01*
X227882Y46044D01*
X228778Y46435D01*
X229544Y47041D01*
X230132Y47822D01*
X230500Y48728D01*
X230626Y49697D01*
X227622Y59055D02*
X227552Y60050D01*
X227345Y61026D01*
X227004Y61963D01*
X226535Y62844D01*
X225949Y63651D01*
X225256Y64368D01*
X224470Y64982D01*
X223606Y65481D01*
X222682Y65854D01*
X221714Y66096D01*
X220722Y66200D01*
X219725Y66165D01*
X218743Y65992D01*
X217794Y65684D01*
X216898Y65246D01*
X216071Y64689D01*
X215330Y64021D01*
X214689Y63257D01*
X214160Y62411D01*
X213754Y61500D01*
X213479Y60541D01*
X213341Y59554D01*
Y58556D01*
X213479Y57569D01*
X213754Y56610D01*
X214160Y55699D01*
X214689Y54853D01*
X215330Y54089D01*
X216071Y53421D01*
X216898Y52864D01*
X217794Y52426D01*
X218743Y52118D01*
X219725Y51945D01*
X220722Y51910D01*
X221714Y52014D01*
X222682Y52256D01*
X223606Y52629D01*
X224470Y53128D01*
X225256Y53742D01*
X225949Y54460D01*
X226535Y55267D01*
X227004Y56147D01*
X227345Y57085D01*
X227552Y58060D01*
X227622Y59055D01*
X75114Y49500D02*
X74984Y50484D01*
X74604Y51401D01*
X74000Y52189D01*
X73212Y52793D01*
X72295Y53173D01*
X71311Y53303D01*
X70327Y53173D01*
X69410Y52793D01*
X68622Y52189D01*
X68018Y51401D01*
X67638Y50484D01*
X67508Y49500D01*
X67638Y48516D01*
X68018Y47599D01*
X68622Y46811D01*
X69410Y46207D01*
X70327Y45827D01*
X71311Y45697D01*
X72295Y45827D01*
X73212Y46207D01*
X74000Y46811D01*
X74604Y47599D01*
X74984Y48516D01*
X75114Y49500D01*
X391114Y39370D02*
X390671Y40370D01*
X389632Y40714D01*
X391109Y35717D02*
X391093Y34718D01*
X391199Y33726D01*
X391425Y32754D01*
X391768Y31816D01*
X392222Y30927D01*
X392782Y30101D01*
X393439Y29349D01*
X394182Y28683D01*
X395002Y28112D01*
X395884Y27646D01*
X396817Y27291D01*
X397787Y27053D01*
X398778Y26935D01*
X399776Y26938D01*
X796906Y71600D02*
X825422D01*
X796095Y72000D02*
X825422D01*
X778008Y71600D02*
X792756D01*
X747973Y72400D02*
X825422D01*
X777197Y72000D02*
X793567D01*
X798073Y70400D02*
X825422D01*
X797791Y70800D02*
X825422D01*
X798287Y70000D02*
X825422D01*
X778521Y71200D02*
X792243D01*
X797418D02*
X825422D01*
X749432D02*
X773345D01*
X749688Y70800D02*
X772972D01*
X778894D02*
X791870D01*
X748641Y72000D02*
X774669D01*
X749095Y71600D02*
X773858D01*
X779176Y70400D02*
X791588D01*
X779389Y70000D02*
X791375D01*
X749881Y70400D02*
X772690D01*
X750019Y70000D02*
X772477D01*
X798551Y69200D02*
X825422D01*
X798444Y69600D02*
X825422D01*
X779546D02*
X791218D01*
X779654Y69200D02*
X791110D01*
X798614Y68800D02*
X825422D01*
X798633Y68400D02*
X825422D01*
X798611Y68000D02*
X825422D01*
X798546Y67600D02*
X825422D01*
X779716Y68800D02*
X791048D01*
X750163D02*
X772150D01*
X750111Y69600D02*
X772320D01*
X750158Y69200D02*
X772213D01*
X779736Y68400D02*
X791028D01*
X779713Y68000D02*
X791050D01*
X750125Y68400D02*
X772130D01*
X750044Y68000D02*
X772153D01*
X546137Y75600D02*
X825422D01*
X545737Y76000D02*
X825422D01*
X546537Y75200D02*
X825422D01*
X544873Y76800D02*
X825422D01*
X545337Y76400D02*
X825422D01*
X569607Y73600D02*
X825422D01*
X547737Y74000D02*
X825422D01*
X570825Y73200D02*
X825422D01*
X546937Y74800D02*
X825422D01*
X547337Y74400D02*
X825422D01*
X621685Y72000D02*
X638055D01*
X593129D02*
X619157D01*
X640583D02*
X744085D01*
X571444Y72800D02*
X825422D01*
X592462Y72400D02*
X744753D01*
X641394Y71600D02*
X743631D01*
X623009Y71200D02*
X636731D01*
X593583Y71600D02*
X618346D01*
X622497D02*
X637244D01*
X642561Y70400D02*
X742845D01*
X642775Y70000D02*
X742707D01*
X641906Y71200D02*
X743294D01*
X642279Y70800D02*
X743038D01*
X643122Y68400D02*
X742601D01*
X643099Y68000D02*
X742682D01*
X642932Y69600D02*
X742615D01*
X643039Y69200D02*
X742568D01*
X594157Y70834D02*
X617489D01*
X593921Y71200D02*
X617834D01*
X643102Y68800D02*
X742563D01*
X623382Y70800D02*
X636358D01*
X623558Y70563D02*
X636182D01*
X798435Y67200D02*
X825422D01*
X779648Y67600D02*
X791116D01*
X798274Y66800D02*
X825422D01*
X779537Y67200D02*
X791227D01*
X779377Y66800D02*
X791387D01*
X797769Y66000D02*
X825422D01*
X798057Y66400D02*
X825422D01*
X797389Y65600D02*
X825422D01*
X779159Y66400D02*
X791605D01*
X778872Y66000D02*
X791892D01*
X749736Y67200D02*
X772329D01*
X749916Y67600D02*
X772218D01*
X749496Y66800D02*
X772490D01*
X643034Y67600D02*
X742810D01*
X642923Y67200D02*
X742989D01*
X749179Y66400D02*
X772707D01*
X748756Y66000D02*
X772994D01*
X642762Y66800D02*
X743230D01*
X647366Y66000D02*
X743970D01*
X796016Y64800D02*
X825422D01*
X796864Y65200D02*
X825422D01*
X651188Y63600D02*
X825422D01*
X650417Y64400D02*
X825422D01*
X650833Y64000D02*
X825422D01*
X652184Y62000D02*
X825422D01*
X652350Y61600D02*
X825422D01*
X651494Y63200D02*
X825422D01*
X651988Y62400D02*
X825422D01*
X778492Y65600D02*
X792272D01*
X748153D02*
X773375D01*
X777967Y65200D02*
X792797D01*
X648546Y65600D02*
X744573D01*
X649323Y65200D02*
X745763D01*
X746963D02*
X773900D01*
X777118Y64800D02*
X793646D01*
X649925D02*
X774748D01*
X651759Y62800D02*
X825422D01*
X642545Y66400D02*
X743547D01*
X642258Y66000D02*
X643972D01*
X641877Y65600D02*
X642793D01*
X625875Y66000D02*
X636380D01*
X626275Y65600D02*
X636760D01*
X641352Y65200D02*
X642015D01*
X640504Y64800D02*
X641414D01*
X626675Y65200D02*
X637285D01*
X627075Y64800D02*
X638134D01*
X625612Y66263D02*
X636182D01*
X593784Y66534D02*
X617115D01*
X593668Y66400D02*
X617195D01*
X593245Y66000D02*
X617483D01*
X593001Y65600D02*
X617863D01*
X593001Y65200D02*
X618388D01*
X593001Y64800D02*
X619236D01*
X628275Y63600D02*
X640151D01*
X628675Y63200D02*
X639844D01*
X629075Y62800D02*
X639579D01*
X627475Y64400D02*
X640921D01*
X627875Y64000D02*
X640506D01*
X630275Y61600D02*
X638988D01*
X630675Y61200D02*
X638849D01*
X629475Y62400D02*
X639351D01*
X629875Y62000D02*
X639155D01*
X593001Y63200D02*
X622594D01*
X593001Y63600D02*
X622194D01*
X593001Y62800D02*
X622994D01*
X593001Y64400D02*
X621394D01*
X593001Y64000D02*
X621794D01*
X592986Y62400D02*
X623394D01*
X592900Y62000D02*
X623794D01*
X592727Y61600D02*
X624194D01*
X592438Y61200D02*
X624594D01*
X561444Y72800D02*
X566556D01*
X561880Y72400D02*
X566120D01*
X571880D02*
X589241D01*
X559607Y73600D02*
X568393D01*
X560825Y73200D02*
X567175D01*
X572209Y72000D02*
X588573D01*
X572314Y71847D02*
X588382D01*
X562653Y71200D02*
X565347D01*
X562209Y72000D02*
X565791D01*
X562461Y71600D02*
X565539D01*
X548537Y73200D02*
X557175D01*
X548937Y72800D02*
X556556D01*
X549337Y72400D02*
X556120D01*
X548137Y73600D02*
X558393D01*
X550537Y71200D02*
X555347D01*
X550937Y70800D02*
X555207D01*
X549737Y72000D02*
X555791D01*
X550137Y71600D02*
X555539D01*
X562938Y70000D02*
X565062D01*
X562949Y69600D02*
X565051D01*
X562793Y70800D02*
X565207D01*
X562887Y70400D02*
X565113D01*
X562919Y69200D02*
X565081D01*
X562847Y68800D02*
X565153D01*
X562731Y68400D02*
X565269D01*
X562567Y68000D02*
X565433D01*
X551737Y70000D02*
X555062D01*
X552137Y69600D02*
X555051D01*
X551337Y70400D02*
X555113D01*
X545217Y76520D02*
X558177Y63560D01*
X553337Y68400D02*
X555269D01*
X553737Y68000D02*
X555433D01*
X552537Y69200D02*
X555081D01*
X552937Y68800D02*
X555153D01*
X493525Y72000D02*
X543656D01*
X494354Y71600D02*
X544056D01*
X463161Y72000D02*
X491075D01*
X463798Y71600D02*
X490245D01*
X495534Y70400D02*
X545256D01*
X495750Y70000D02*
X545656D01*
X494873Y71200D02*
X544456D01*
X495250Y70800D02*
X544856D01*
X464238Y71200D02*
X489727D01*
X445341D02*
X458699D01*
X464566Y70800D02*
X489350D01*
X444263Y72000D02*
X459776D01*
X444901Y71600D02*
X459139D01*
X464815Y70400D02*
X489066D01*
X465002Y70000D02*
X488850D01*
X445669Y70800D02*
X458371D01*
X445918Y70400D02*
X458122D01*
X496018Y69200D02*
X546456D01*
X495908Y69600D02*
X546056D01*
X465136D02*
X488692D01*
X465223Y69200D02*
X488582D01*
X496082Y68800D02*
X546856D01*
X496103Y68400D02*
X547256D01*
X465266Y68800D02*
X488518D01*
X465225Y68000D02*
X488518D01*
X446238Y69600D02*
X457801D01*
X446325Y69200D02*
X457714D01*
X446104Y70000D02*
X457935D01*
X446369Y68400D02*
X457671D01*
X465266D02*
X488497D01*
X446368Y68800D02*
X457671D01*
X446327Y68000D02*
X457713D01*
X572061Y67200D02*
X587478D01*
X572314Y67547D02*
X587319D01*
X571685Y66800D02*
X587718D01*
X571176Y66400D02*
X588035D01*
X570391Y66000D02*
X588458D01*
X560391D02*
X567609D01*
X556937Y64800D02*
X588701D01*
X556137Y65600D02*
X588701D01*
X556537Y65200D02*
X588701D01*
X562061Y67200D02*
X565939D01*
X562348Y67600D02*
X565653D01*
X554937Y66800D02*
X556315D01*
X554137Y67600D02*
X555653D01*
X554537Y67200D02*
X555939D01*
X561685Y66800D02*
X566315D01*
X561176Y66400D02*
X566824D01*
X555337D02*
X556824D01*
X555737Y66000D02*
X557609D01*
X588701Y63542D02*
Y65819D01*
X569607Y63600D02*
X588701D01*
X593001Y62651D02*
Y65819D01*
X557337Y64400D02*
X588701D01*
X557737Y64000D02*
X588701D01*
X571880Y62400D02*
X587559D01*
X572209Y62000D02*
X587159D01*
X570825Y63200D02*
X588359D01*
X571444Y62800D02*
X587959D01*
X561444D02*
X566556D01*
X561880Y62400D02*
X566120D01*
X562209Y62000D02*
X565791D01*
X559607Y63600D02*
X568393D01*
X560825Y63200D02*
X567175D01*
X572461Y61600D02*
X586759D01*
X572653Y61200D02*
X586359D01*
X542114Y61600D02*
X554056D01*
X562461D02*
X565539D01*
X496018Y67600D02*
X548056D01*
X496082Y68000D02*
X547656D01*
X495908Y67200D02*
X548456D01*
X495750Y66800D02*
X548856D01*
X495534Y66400D02*
X549256D01*
X537130Y66000D02*
X549656D01*
X538310Y65600D02*
X550056D01*
X464249Y66000D02*
X489350D01*
X495250D02*
X533736D01*
X465139Y67600D02*
X488582D01*
X446241D02*
X457798D01*
X465006Y67200D02*
X488692D01*
X446109D02*
X457931D01*
X445924Y66800D02*
X458116D01*
X464821D02*
X488850D01*
X464574Y66400D02*
X489066D01*
X445677D02*
X458363D01*
X445351Y66000D02*
X458688D01*
X540596Y64000D02*
X551656D01*
X540181Y64400D02*
X551256D01*
X540952Y63600D02*
X552056D01*
X539087Y65200D02*
X550456D01*
X539688Y64800D02*
X550856D01*
X541751Y62400D02*
X553256D01*
X541948Y62000D02*
X553656D01*
X541258Y63200D02*
X552456D01*
X541523Y62800D02*
X552856D01*
X494873Y65600D02*
X532556D01*
X463812D02*
X489727D01*
X494354Y65200D02*
X531779D01*
X444915Y65600D02*
X459125D01*
X463183Y65200D02*
X490245D01*
X461719Y64800D02*
X491075D01*
X493525D02*
X531178D01*
X444285Y65200D02*
X459754D01*
X442822Y64800D02*
X461218D01*
X652756Y60000D02*
X825422D01*
X652691Y60400D02*
X825422D01*
X652798Y59600D02*
X825422D01*
X652489Y61200D02*
X825422D01*
X652602Y60800D02*
X825422D01*
X652814Y58800D02*
X825422D01*
X652817Y59200D02*
X825422D01*
X652788Y58400D02*
X825422D01*
X652740Y58000D02*
X825422D01*
X652454Y56800D02*
X825422D01*
X652574Y57200D02*
X825422D01*
X652669Y57600D02*
X825422D01*
X635075Y56800D02*
X638885D01*
X634275Y57600D02*
X638670D01*
X634675Y57200D02*
X638765D01*
X652307Y56400D02*
X825422D01*
X652133Y56000D02*
X825422D01*
X635475Y56400D02*
X639031D01*
X635875Y56000D02*
X639206D01*
X651690Y55200D02*
X825422D01*
X651928Y55600D02*
X825422D01*
Y40850D02*
Y77390D01*
X651414Y54800D02*
X825422D01*
X651095Y54400D02*
X825422D01*
X795773Y53200D02*
X825422D01*
X650725Y54000D02*
X825422D01*
X650290Y53600D02*
X825422D01*
X637075Y54800D02*
X639924D01*
X636275Y55600D02*
X639410D01*
X636675Y55200D02*
X639648D01*
X638275Y53600D02*
X641048D01*
X637475Y54400D02*
X640243D01*
X637875Y54000D02*
X640614D01*
X631875Y60000D02*
X638583D01*
X632275Y59600D02*
X638541D01*
X632675Y59200D02*
X638521D01*
X631075Y60800D02*
X638736D01*
X631475Y60400D02*
X638648D01*
X633075Y58800D02*
X638525D01*
X633475Y58400D02*
X638550D01*
X590041Y58800D02*
X626994D01*
X589641Y58400D02*
X627394D01*
X592041Y60800D02*
X624994D01*
X572793D02*
X585959D01*
X591641Y60400D02*
X625394D01*
X591241Y60000D02*
X625794D01*
X590841Y59600D02*
X626194D01*
X572887Y60400D02*
X585559D01*
X590441Y59200D02*
X626594D01*
X625612Y66263D02*
X638621Y53254D01*
X633875Y58000D02*
X638598D01*
X621119Y64675D02*
X635581Y50213D01*
X586441Y55200D02*
X630594D01*
X586041Y54800D02*
X630994D01*
X585641Y54400D02*
X631394D01*
X585241Y54000D02*
X631794D01*
X584841Y53600D02*
X632194D01*
X584441Y53200D02*
X632594D01*
X588841Y57600D02*
X628194D01*
X589241Y58000D02*
X627794D01*
X588441Y57200D02*
X628594D01*
X570809Y45650D02*
X588701Y63542D01*
X573220Y41980D02*
X592372Y61131D01*
X588041Y56800D02*
X628994D01*
X587641Y56400D02*
X629394D01*
X587241Y56000D02*
X629794D01*
X586841Y55600D02*
X630194D01*
X797309Y52400D02*
X825422D01*
X796748Y52800D02*
X825422D01*
X797710Y52000D02*
X825422D01*
X649772Y53200D02*
X793889D01*
X649131Y52800D02*
X792914D01*
X798529Y50400D02*
X825422D01*
X798410Y50800D02*
X825422D01*
X798602Y50000D02*
X825422D01*
X798011Y51600D02*
X825422D01*
X798240Y51200D02*
X825422D01*
X648281Y52400D02*
X792352D01*
X646825Y52000D02*
X791952D01*
X642500Y51600D02*
X791650D01*
X641797Y52400D02*
X643058D01*
X642198Y52000D02*
X644513D01*
X643017Y50400D02*
X791132D01*
X643091Y50000D02*
X791059D01*
X642728Y51200D02*
X791421D01*
X642898Y50800D02*
X791251D01*
X798620Y49200D02*
X825422D01*
X798632Y49600D02*
X825422D01*
X798565Y48800D02*
X825422D01*
X798466Y48400D02*
X825422D01*
X798318Y48000D02*
X825422D01*
X798116Y47600D02*
X825422D01*
X797847Y47200D02*
X825422D01*
X797493Y46800D02*
X825422D01*
X796280Y46000D02*
X825422D01*
X643109Y49200D02*
X791041D01*
X643121Y49600D02*
X791029D01*
X643054Y48800D02*
X791096D01*
X642954Y48400D02*
X791195D01*
X642806Y48000D02*
X791343D01*
X642604Y47600D02*
X791546D01*
X797011Y46400D02*
X825422D01*
X642335Y47200D02*
X791814D01*
X641981Y46800D02*
X792169D01*
X641236Y52800D02*
X642207D01*
X640261Y53200D02*
X641567D01*
X581241Y50000D02*
X635547D01*
X580041Y48800D02*
X635584D01*
X579641Y48400D02*
X635683D01*
X579241Y48000D02*
X635831D01*
X578841Y47600D02*
X636034D01*
X578441Y47200D02*
X636303D01*
X578041Y46800D02*
X636657D01*
X583641Y52400D02*
X633394D01*
X584041Y52800D02*
X632994D01*
X583241Y52000D02*
X633794D01*
X582841Y51600D02*
X634194D01*
X582441Y51200D02*
X634594D01*
X582041Y50800D02*
X634994D01*
X581641Y50400D02*
X635394D01*
X580841Y49600D02*
X635517D01*
X580441Y49200D02*
X635529D01*
X576441Y45200D02*
X825422D01*
X576841Y45600D02*
X825422D01*
X576041Y44800D02*
X825422D01*
X575641Y44400D02*
X825422D01*
X575241Y44000D02*
X825422D01*
X574841Y43600D02*
X825422D01*
X574441Y43200D02*
X825422D01*
X572706Y41600D02*
X825422D01*
X449241Y41200D02*
X825422D01*
X640768Y46000D02*
X793381D01*
X641499Y46400D02*
X792651D01*
X577641D02*
X637139D01*
X577241Y46000D02*
X637870D01*
X574041Y42800D02*
X825422D01*
X573641Y42400D02*
X825422D01*
X573241Y42000D02*
X825422D01*
X476378Y40850D02*
X825422Y40850D01*
X572938Y60000D02*
X585159D01*
X572949Y59600D02*
X584759D01*
X572919Y59200D02*
X584359D01*
X572847Y58800D02*
X583959D01*
X572731Y58400D02*
X583559D01*
X572567Y58000D02*
X583159D01*
X572347Y57600D02*
X582759D01*
X572061Y57200D02*
X582359D01*
X562348Y57600D02*
X565653D01*
X562061Y57200D02*
X565939D01*
X562887Y60400D02*
X565113D01*
X562938Y60000D02*
X565062D01*
X562949Y59600D02*
X565051D01*
X562653Y61200D02*
X565347D01*
X562793Y60800D02*
X565207D01*
X562919Y59200D02*
X565081D01*
X562847Y58800D02*
X565153D01*
X562731Y58400D02*
X565269D01*
X562567Y58000D02*
X565433D01*
X571685Y56800D02*
X581959D01*
X571176Y56400D02*
X581559D01*
X570391Y56000D02*
X581159D01*
X561880Y52400D02*
X577559D01*
X562209Y52000D02*
X577159D01*
X562793Y50800D02*
X575959D01*
X562887Y50400D02*
X575559D01*
X562461Y51600D02*
X576759D01*
X562653Y51200D02*
X576359D01*
X562938Y50000D02*
X575159D01*
X562949Y49600D02*
X574759D01*
X562919Y49200D02*
X574359D01*
X562847Y48800D02*
X573959D01*
X562731Y48400D02*
X573559D01*
X562567Y48000D02*
X573159D01*
X562348Y47600D02*
X572759D01*
X562061Y47200D02*
X572359D01*
X542504Y58000D02*
X555433D01*
X561685Y56800D02*
X566315D01*
X542433Y57600D02*
X555653D01*
X542337Y57200D02*
X555939D01*
X561176Y56400D02*
X566824D01*
X560391Y56000D02*
X567609D01*
X542217Y56800D02*
X556315D01*
X542071Y56400D02*
X556824D01*
X542806Y72850D02*
X555137Y60520D01*
X542455Y60400D02*
X555113D01*
X542520Y60000D02*
X555062D01*
X542253Y61200D02*
X554456D01*
X542366Y60800D02*
X554856D01*
X542581Y59200D02*
X555081D01*
X542578Y58800D02*
X555153D01*
X542561Y59600D02*
X555051D01*
X542552Y58400D02*
X555269D01*
X541692Y55600D02*
X580759D01*
X541454Y55200D02*
X580359D01*
X541178Y54800D02*
X579959D01*
X540859Y54400D02*
X579559D01*
X560825Y53200D02*
X578359D01*
X561444Y52800D02*
X577959D01*
X540488Y54000D02*
X579159D01*
X559607Y53600D02*
X578759D01*
X540054D02*
X558393D01*
X541897Y56000D02*
X557609D01*
X539535Y53200D02*
X557175D01*
X538895Y52800D02*
X556556D01*
X538045Y52400D02*
X556120D01*
X536589Y52000D02*
X555791D01*
X561685Y46800D02*
X571959D01*
X561176Y46400D02*
X571559D01*
X560391Y46000D02*
X571159D01*
X448500Y45650D02*
X515656D01*
X570809D01*
X515656Y41350D02*
X571700D01*
X449391D02*
X515656D01*
X451400Y36800D02*
X475028D01*
X450869Y37200D02*
X475028D01*
Y36000D02*
Y39370D01*
X448841Y40800D02*
X476014D01*
X450078Y37600D02*
X475028D01*
X452359Y35600D02*
X475028D01*
X452551Y35200D02*
X475028D01*
X451800Y36400D02*
X475028D01*
X452113Y36000D02*
X475028D01*
Y35061D02*
Y36000D01*
X452865Y34000D02*
X474960D01*
X452697Y34800D02*
X475044D01*
X452800Y34400D02*
X475012D01*
X452892Y33600D02*
X474887D01*
X452883Y33200D02*
X474793D01*
X452837Y32800D02*
X474678D01*
X452753Y32400D02*
X474541D01*
X452629Y32000D02*
X474379D01*
X452461Y31600D02*
X474192D01*
X452243Y31200D02*
X473977D01*
X451966Y30800D02*
X473733D01*
X451613Y30400D02*
X473454D01*
X451155Y30000D02*
X473139D01*
X450523Y29600D02*
X472779D01*
X449401Y29200D02*
X472366D01*
X448441Y40400D02*
X475372D01*
X448041Y40000D02*
X475124D01*
X447641Y39600D02*
X475032D01*
X447241Y39200D02*
X475028D01*
X446841Y38800D02*
X475028D01*
X446441Y38400D02*
X475028D01*
X446041Y38000D02*
X475028D01*
X445641Y37600D02*
X446922D01*
X445241Y37200D02*
X446131D01*
X444841Y36800D02*
X445600D01*
X439689Y37729D02*
X446980Y45020D01*
X444441Y36400D02*
X445200D01*
X444041Y36000D02*
X444887D01*
X443641Y35600D02*
X444641D01*
X443241Y35200D02*
X444449D01*
X442841Y34800D02*
X444303D01*
X442729Y34689D02*
X449391Y41350D01*
X442461Y31600D02*
X444539D01*
X442243Y31200D02*
X444757D01*
X441966Y30800D02*
X445034D01*
X441613Y30400D02*
X445387D01*
X441155Y30000D02*
X445845D01*
X440523Y29600D02*
X446477D01*
X439401Y29200D02*
X447599D01*
X442800Y34400D02*
X444200D01*
X442865Y34000D02*
X444135D01*
X442892Y33600D02*
X444108D01*
X442883Y33200D02*
X444117D01*
X442837Y32800D02*
X444163D01*
X442753Y32400D02*
X444247D01*
X442629Y32000D02*
X444371D01*
X389930Y72800D02*
X542856D01*
X389980Y72850D02*
X542806D01*
X425365Y72000D02*
X440879D01*
X389090Y77150D02*
X543697D01*
X389530Y72400D02*
X543256D01*
X426771Y70800D02*
X439473D01*
X427020Y70400D02*
X439224D01*
X427207Y70000D02*
X439037D01*
X426003Y71600D02*
X440241D01*
X426443Y71200D02*
X439801D01*
X389130Y72000D02*
X421981D01*
X388730Y71600D02*
X421344D01*
X388330Y71200D02*
X420903D01*
X387930Y70800D02*
X420575D01*
X427341Y69600D02*
X438903D01*
X387530Y70400D02*
X420326D01*
X387130Y70000D02*
X420140D01*
X427427Y69200D02*
X438817D01*
X427470Y68800D02*
X438774D01*
X427429Y68000D02*
X438815D01*
X427344Y67600D02*
X438901D01*
X427211Y67200D02*
X439033D01*
X427026Y66800D02*
X439218D01*
X426779Y66400D02*
X439465D01*
X426453Y66000D02*
X439791D01*
X426017Y65600D02*
X440227D01*
X427471Y68400D02*
X438773D01*
X387841Y67200D02*
X420135D01*
X387041Y68000D02*
X419917D01*
X387441Y67600D02*
X420003D01*
X389041Y66000D02*
X420893D01*
X389441Y65600D02*
X421329D01*
X388241Y66800D02*
X420321D01*
X388641Y66400D02*
X420568D01*
X40720Y76800D02*
X387914D01*
X40720Y76400D02*
X387449D01*
X40720Y76000D02*
X387049D01*
X40720Y77390D02*
X825422D01*
X40720Y77200D02*
X825422D01*
X40720Y74800D02*
X385849D01*
X40720Y74400D02*
X385449D01*
X40720Y75600D02*
X386649D01*
X40720Y75200D02*
X386249D01*
X40720Y73200D02*
X384249D01*
X40720Y72800D02*
X383849D01*
X277501Y72400D02*
X383449D01*
X40720Y74000D02*
X385049D01*
X40720Y73600D02*
X384649D01*
X278169Y72000D02*
X383049D01*
X278623Y71600D02*
X382649D01*
X121989Y72400D02*
X274280D01*
X247413Y72000D02*
X273612D01*
X386730Y69600D02*
X420006D01*
X386330Y69200D02*
X419919D01*
X386241Y68800D02*
X419876D01*
X382154Y71105D02*
X387569Y76520D01*
X386085Y68955D02*
X389980Y72850D01*
X386641Y68400D02*
X419875D01*
X333585Y65600D02*
X383359D01*
X278707Y66400D02*
X382559D01*
X332406Y66000D02*
X382959D01*
X278960Y71200D02*
X382249D01*
X279027Y71105D02*
X382154D01*
X279027Y66805D02*
X382154D01*
X279024Y66800D02*
X382159D01*
X278284Y66000D02*
X329012D01*
X248064Y65600D02*
X274100D01*
X277681D02*
X327832D01*
X391441Y63600D02*
X529914D01*
X391841Y63200D02*
X529608D01*
X392241Y62800D02*
X529343D01*
X390641Y64400D02*
X530685D01*
X391041Y64000D02*
X530270D01*
X393441Y61600D02*
X528752D01*
X393841Y61200D02*
X528613D01*
X394241Y60800D02*
X528500D01*
X392641Y62400D02*
X529115D01*
X393041Y62000D02*
X528919D01*
X423924Y64800D02*
X442320D01*
X425387Y65200D02*
X440857D01*
X390241Y64800D02*
X423423D01*
X389841Y65200D02*
X421959D01*
X337528Y61200D02*
X387759D01*
X394641Y60400D02*
X528411D01*
X337795Y60000D02*
X388959D01*
X337642Y60800D02*
X388159D01*
X337730Y60400D02*
X388559D01*
X396641Y58400D02*
X528314D01*
X396241Y58800D02*
X528288D01*
X397041Y58000D02*
X528362D01*
X395041Y60000D02*
X528347D01*
X395441Y59600D02*
X528305D01*
X398241Y56800D02*
X528649D01*
X398641Y56400D02*
X528795D01*
X397441Y57600D02*
X528434D01*
X397841Y57200D02*
X528529D01*
X395841Y59200D02*
X528285D01*
X337856D02*
X389759D01*
X337853Y58800D02*
X390159D01*
X337837Y59600D02*
X389359D01*
X337828Y58400D02*
X390559D01*
X337780Y58000D02*
X390959D01*
X337708Y57600D02*
X391359D01*
X337613Y57200D02*
X391759D01*
X337493Y56800D02*
X392159D01*
X335872Y64000D02*
X384959D01*
X335457Y64400D02*
X384559D01*
X336227Y63600D02*
X385359D01*
X334363Y65200D02*
X383759D01*
X334964Y64800D02*
X384159D01*
X337027Y62400D02*
X386559D01*
X337223Y62000D02*
X386959D01*
X336534Y63200D02*
X385759D01*
X336799Y62800D02*
X386159D01*
X276491Y65200D02*
X327055D01*
X247435D02*
X275290D01*
X245971Y64800D02*
X326453D01*
X244566Y64400D02*
X325961D01*
X244166Y64000D02*
X325545D01*
X243766Y63600D02*
X325190D01*
X243367Y63200D02*
X324884D01*
X242967Y62800D02*
X324619D01*
X242566Y62400D02*
X324390D01*
X337390Y61600D02*
X387359D01*
X242166Y62000D02*
X324194D01*
X241767Y61600D02*
X324028D01*
X241367Y61200D02*
X323889D01*
X237367Y57200D02*
X323804D01*
X236966Y56800D02*
X323924D01*
X337347Y56400D02*
X392559D01*
X236566D02*
X324071D01*
X236167Y56000D02*
X324245D01*
X240967Y60800D02*
X323776D01*
X240566Y60400D02*
X323687D01*
X240166Y60000D02*
X323622D01*
X239767Y59600D02*
X323580D01*
X239367Y59200D02*
X323561D01*
X238966Y58800D02*
X323564D01*
X238566Y58400D02*
X323589D01*
X238166Y58000D02*
X323638D01*
X237767Y57600D02*
X323709D01*
X248050Y71600D02*
X273158D01*
X229153D02*
X243391D01*
X122657Y72000D02*
X225131D01*
X228515D02*
X244028D01*
X248490Y71200D02*
X272821D01*
X248726Y70925D02*
X272638D01*
X229960Y70745D02*
X242584D01*
X229593Y71200D02*
X242951D01*
X229921Y70800D02*
X242623D01*
X123704D02*
X223725D01*
X123896Y70400D02*
X223476D01*
X124035Y70000D02*
X223289D01*
X123111Y71600D02*
X224493D01*
X123448Y71200D02*
X224053D01*
X124126Y69600D02*
X223155D01*
X93926Y69200D02*
X116584D01*
X93657Y70000D02*
X116722D01*
X93816Y69600D02*
X116631D01*
X124174Y69200D02*
X223069D01*
X124060Y68000D02*
X223067D01*
X123932Y67600D02*
X223152D01*
X123752Y67200D02*
X223285D01*
X248973Y66625D02*
X272885D01*
X123512Y66800D02*
X223470D01*
X229960Y66444D02*
X240530D01*
X124178Y68800D02*
X223026D01*
X124141Y68400D02*
X223025D01*
X93990Y68800D02*
X116579D01*
X94011Y68400D02*
X116617D01*
X93991Y68000D02*
X116698D01*
X93927Y67600D02*
X116826D01*
X93818Y67200D02*
X117005D01*
X93660Y66800D02*
X117246D01*
X91427Y72000D02*
X118101D01*
X92260Y71600D02*
X117646D01*
X73362D02*
X88158D01*
X40720Y72400D02*
X118768D01*
X72529Y72000D02*
X88990D01*
X93156Y70800D02*
X117053D01*
X93441Y70400D02*
X116861D01*
X73882Y71200D02*
X87638D01*
X92779D02*
X117309D01*
X40720Y72000D02*
X70093D01*
X40720Y71600D02*
X69260D01*
X74259Y70800D02*
X87261D01*
X40720Y71200D02*
X68740D01*
X40720Y70800D02*
X68363D01*
X74544Y70400D02*
X86976D01*
X74760Y70000D02*
X86760D01*
X40720Y70400D02*
X68078D01*
X40720Y70000D02*
X67862D01*
X75092Y68800D02*
X86427D01*
X75114Y68400D02*
X86406D01*
X74919Y69600D02*
X86601D01*
X75028Y69200D02*
X86492D01*
X75093Y68000D02*
X86427D01*
X75029Y67600D02*
X86490D01*
X74920Y67200D02*
X86599D01*
X74762Y66800D02*
X86758D01*
X40720Y69600D02*
X67703D01*
X40720Y69200D02*
X67594D01*
X40720Y68800D02*
X67530D01*
X40720Y68400D02*
X67508D01*
X40720Y67200D02*
X67702D01*
X40720Y66800D02*
X67860D01*
X40720Y68000D02*
X67529D01*
X40720Y67600D02*
X67593D01*
X248826Y66400D02*
X273074D01*
X229928D02*
X240485D01*
X248501Y66000D02*
X273497D01*
X229603D02*
X240085D01*
X229167Y65600D02*
X239685D01*
X244967Y64800D02*
X245470D01*
X228537Y65200D02*
X239285D01*
X227074Y64800D02*
X238885D01*
X225220Y64400D02*
X238485D01*
X225636Y64000D02*
X238085D01*
X222169Y66000D02*
X224043D01*
X123195Y66400D02*
X223717D01*
X223349Y65600D02*
X224479D01*
X122772Y66000D02*
X218775D01*
X122169Y65600D02*
X217596D01*
X224728Y64800D02*
X226572D01*
X225991Y63600D02*
X237685D01*
X120979Y65200D02*
X216818D01*
X224127D02*
X225109D01*
X226791Y62400D02*
X236485D01*
X226987Y62000D02*
X236085D01*
X227153Y61600D02*
X235685D01*
X226297Y63200D02*
X237285D01*
X226562Y62800D02*
X236885D01*
X227494Y60400D02*
X234485D01*
X227559Y60000D02*
X234085D01*
X227292Y61200D02*
X235285D01*
X227406Y60800D02*
X234885D01*
X227601Y59600D02*
X233685D01*
X227620Y59200D02*
X233285D01*
X227617Y58800D02*
X232885D01*
X227592Y58400D02*
X232485D01*
X227543Y58000D02*
X232085D01*
X227472Y57600D02*
X231685D01*
X227377Y57200D02*
X231285D01*
X227257Y56800D02*
X230885D01*
X227110Y56400D02*
X230485D01*
X93160Y66000D02*
X117985D01*
X93445Y66400D02*
X117562D01*
X92784Y65600D02*
X118589D01*
X92267Y65200D02*
X119779D01*
X91441Y64800D02*
X216217D01*
X72543D02*
X88977D01*
X40720Y64400D02*
X215724D01*
X40720Y64000D02*
X215309D01*
X40720Y63600D02*
X214954D01*
X74263Y66000D02*
X87257D01*
X74547Y66400D02*
X86973D01*
X40720Y65600D02*
X68735D01*
X40720Y66400D02*
X68075D01*
X40720Y66000D02*
X68359D01*
X73887Y65600D02*
X87633D01*
X73369Y65200D02*
X88151D01*
X40720D02*
X69253D01*
X40720Y64800D02*
X70079D01*
X40720Y62400D02*
X214154D01*
X40720Y62000D02*
X213958D01*
X40720Y61600D02*
X213791D01*
X40720Y63200D02*
X214647D01*
X40720Y62800D02*
X214383D01*
X40720Y56800D02*
X213688D01*
X40720Y56400D02*
X213835D01*
X40720Y61200D02*
X213653D01*
X40720Y57200D02*
X213568D01*
X40720Y60000D02*
X213386D01*
X40720Y59600D02*
X213344D01*
X40720Y59200D02*
X213325D01*
X40720Y60800D02*
X213539D01*
X40720Y60400D02*
X213451D01*
X40720Y58000D02*
X213402D01*
X40720Y57600D02*
X213473D01*
X40720Y58800D02*
X213328D01*
X40720Y58400D02*
X213353D01*
X427166Y51200D02*
X555347D01*
X427313Y50800D02*
X555207D01*
X427248Y48400D02*
X555269D01*
X426966Y51600D02*
X555539D01*
X427076Y48000D02*
X555433D01*
X426542Y47200D02*
X555939D01*
X426846Y47600D02*
X555653D01*
X426137Y46800D02*
X556315D01*
X425568Y46400D02*
X556824D01*
X424565Y46000D02*
X557609D01*
X426699Y52000D02*
X534277D01*
X426348Y52400D02*
X532821D01*
X427410Y50400D02*
X555113D01*
X425153Y53200D02*
X531331D01*
X425871Y52800D02*
X531971D01*
X427464Y50000D02*
X555062D01*
X427475Y49600D02*
X555051D01*
X427443Y49200D02*
X555081D01*
X427369Y48800D02*
X555153D01*
X412241Y42800D02*
X444759D01*
X412641Y42400D02*
X444359D01*
X413041Y42000D02*
X443959D01*
X411441Y43600D02*
X445559D01*
X411841Y43200D02*
X445159D01*
X414241Y40800D02*
X442759D01*
X414641Y40400D02*
X442359D01*
X413441Y41600D02*
X443559D01*
X413841Y41200D02*
X443159D01*
X415841Y39200D02*
X441159D01*
X416241Y38800D02*
X440759D01*
X415041Y40000D02*
X441959D01*
X415441Y39600D02*
X441559D01*
X416641Y38400D02*
X440359D01*
X417041Y38000D02*
X439959D01*
X400241Y54800D02*
X529688D01*
X399841Y55200D02*
X529412D01*
X400641Y54400D02*
X530007D01*
X399041Y56000D02*
X528969D01*
X399441Y55600D02*
X529174D01*
X401841Y53200D02*
X422194D01*
X402241Y52800D02*
X421475D01*
X401041Y54000D02*
X530378D01*
X401441Y53600D02*
X530812D01*
X403441Y51600D02*
X420381D01*
X403841Y51200D02*
X420180D01*
X404241Y50800D02*
X420034D01*
X402641Y52400D02*
X420998D01*
X403041Y52000D02*
X420647D01*
X405441Y49600D02*
X419872D01*
X405841Y49200D02*
X419903D01*
X404641Y50400D02*
X419936D01*
X405041Y50000D02*
X419883D01*
X409041Y46000D02*
X422782D01*
X408641Y46400D02*
X421778D01*
X409441Y45600D02*
X448039D01*
X407841Y47200D02*
X420805D01*
X408241Y46800D02*
X421210D01*
X410641Y44400D02*
X446359D01*
X411041Y44000D02*
X445959D01*
X409841Y45200D02*
X447184D01*
X410241Y44800D02*
X446759D01*
X406641Y48400D02*
X420098D01*
X406241Y48800D02*
X419978D01*
X407041Y48000D02*
X420270D01*
X386085Y68955D02*
X417311Y37729D01*
X382154Y66805D02*
X414271Y34689D01*
X407441Y47600D02*
X420501D01*
X391114Y38400D02*
X410559D01*
X391114Y38000D02*
X410959D01*
X431400Y36800D02*
X435600D01*
X431800Y36400D02*
X435200D01*
X432113Y36000D02*
X434887D01*
X430078Y37600D02*
X436922D01*
X430869Y37200D02*
X436131D01*
X432697Y34800D02*
X434303D01*
X432800Y34400D02*
X434200D01*
X432865Y34000D02*
X434135D01*
X432359Y35600D02*
X434641D01*
X432551Y35200D02*
X434449D01*
X422359Y35600D02*
X424641D01*
X422551Y35200D02*
X424449D01*
X422697Y34800D02*
X424303D01*
X421800Y36400D02*
X425200D01*
X422113Y36000D02*
X424887D01*
X422892Y33600D02*
X424108D01*
X432892D02*
X434108D01*
X422800Y34400D02*
X424200D01*
X422865Y34000D02*
X424135D01*
X432629Y32000D02*
X434371D01*
X432753Y32400D02*
X434247D01*
X432461Y31600D02*
X434539D01*
X432243Y31200D02*
X434757D01*
X431966Y30800D02*
X435034D01*
X431613Y30400D02*
X435387D01*
X431155Y30000D02*
X435845D01*
X430523Y29600D02*
X436477D01*
X429401Y29200D02*
X437599D01*
X432883Y33200D02*
X434117D01*
X422883D02*
X424117D01*
X432837Y32800D02*
X434163D01*
X422837D02*
X424163D01*
X422753Y32400D02*
X424247D01*
X422629Y32000D02*
X424371D01*
X422461Y31600D02*
X424539D01*
X422243Y31200D02*
X424757D01*
X421966Y30800D02*
X425034D01*
X420078Y37600D02*
X426922D01*
X420869Y37200D02*
X426131D01*
X421400Y36800D02*
X425600D01*
X412697Y34800D02*
X414159D01*
X412800Y34400D02*
X414200D01*
X412865Y34000D02*
X414135D01*
X412837Y32800D02*
X414163D01*
X412753Y32400D02*
X414247D01*
X412629Y32000D02*
X414371D01*
X411800Y36400D02*
X412559D01*
X411400Y36800D02*
X412159D01*
X412113Y36000D02*
X412959D01*
X410078Y37600D02*
X411359D01*
X410869Y37200D02*
X411759D01*
X412892Y33600D02*
X414108D01*
X412883Y33200D02*
X414117D01*
X412359Y35600D02*
X413359D01*
X412551Y35200D02*
X413759D01*
X420523Y29600D02*
X426477D01*
X421155Y30000D02*
X425845D01*
X419401Y29200D02*
X427599D01*
X394038Y28800D02*
X471888D01*
X394562Y28400D02*
X471322D01*
X397132Y27200D02*
X468203D01*
X400000Y26941D02*
X465615D01*
X395192Y28000D02*
X470631D01*
X395989Y27600D02*
X469722D01*
X421613Y30400D02*
X425387D01*
X412461Y31600D02*
X414539D01*
X412243Y31200D02*
X414757D01*
X411966Y30800D02*
X415034D01*
X411613Y30400D02*
X415387D01*
X411155Y30000D02*
X415845D01*
X410523Y29600D02*
X416477D01*
X409401Y29200D02*
X417599D01*
X336967Y55600D02*
X393359D01*
X337172Y56000D02*
X392959D01*
X336729Y55200D02*
X393759D01*
X336454Y54800D02*
X394159D01*
X336135Y54400D02*
X394559D01*
X335764Y54000D02*
X394959D01*
X234566Y54400D02*
X325283D01*
X335330Y53600D02*
X395359D01*
X234167Y54000D02*
X325653D01*
X233767Y53600D02*
X326088D01*
X235767Y55600D02*
X324450D01*
X226936Y56000D02*
X230085D01*
X235367Y55200D02*
X324688D01*
X226731Y55600D02*
X229685D01*
X226493Y55200D02*
X229285D01*
X226218Y54800D02*
X228885D01*
X234966D02*
X324964D01*
X225898Y54400D02*
X228485D01*
X225528Y54000D02*
X228085D01*
X334171Y52800D02*
X396159D01*
X334811Y53200D02*
X395759D01*
X333320Y52400D02*
X396559D01*
X331865Y52000D02*
X396959D01*
X231767Y51600D02*
X397359D01*
X231366Y51200D02*
X397759D01*
X230966Y50800D02*
X398159D01*
X230567Y50400D02*
X398559D01*
X230613Y50000D02*
X398959D01*
X233366Y53200D02*
X326606D01*
X227520Y53435D02*
X240530Y66444D01*
X230561Y50394D02*
X245023Y64856D01*
X232966Y52800D02*
X327247D01*
X232566Y52400D02*
X328097D01*
X232167Y52000D02*
X329553D01*
X225093Y53600D02*
X227685D01*
X224575Y53200D02*
X225343D01*
X72189D02*
X216370D01*
X40720Y54000D02*
X215417D01*
X40720Y53600D02*
X215851D01*
X223934Y52800D02*
X224625D01*
X223084Y52400D02*
X224148D01*
X73201Y52800D02*
X217010D01*
X73771Y52400D02*
X217861D01*
X40720Y54800D02*
X214727D01*
X40720Y55200D02*
X214452D01*
X40720Y54400D02*
X215047D01*
X40720Y56000D02*
X214009D01*
X40720Y55600D02*
X214214D01*
X40720Y52400D02*
X68851D01*
X40720Y52000D02*
X68445D01*
X40720Y53200D02*
X70433D01*
X40720Y52800D02*
X69421D01*
X221629Y52000D02*
X223797D01*
X74481Y51600D02*
X223531D01*
X75006Y50400D02*
X223086D01*
X75081Y50000D02*
X223032D01*
X74713Y51200D02*
X223330D01*
X74885Y50800D02*
X223184D01*
X74177Y52000D02*
X219316D01*
X40720Y40720D02*
Y77390D01*
Y51600D02*
X68141D01*
X40720Y51200D02*
X67909D01*
X40720Y50000D02*
X67541D01*
X75112Y49600D02*
X223021D01*
X40720Y50800D02*
X67737D01*
X40720Y50400D02*
X67616D01*
X391114Y39200D02*
X409759D01*
X391094Y39600D02*
X409359D01*
X391114Y38800D02*
X410159D01*
X390637Y40400D02*
X408559D01*
X390958Y40000D02*
X408959D01*
X391114Y36800D02*
X405600D01*
X391114Y36400D02*
X405200D01*
X391114Y36000D02*
X404887D01*
X391114Y37600D02*
X406922D01*
X391114Y37200D02*
X406131D01*
X230593Y49200D02*
X399759D01*
X230624Y49600D02*
X399359D01*
X230518Y48800D02*
X400159D01*
X230398Y48400D02*
X400559D01*
X230226Y48000D02*
X400959D01*
X391114Y35827D02*
Y39370D01*
X229995Y47600D02*
X401359D01*
X229691Y47200D02*
X401759D01*
X392068Y31200D02*
X404757D01*
X391866Y31600D02*
X404539D01*
X392299Y30800D02*
X405034D01*
X391101Y35600D02*
X404641D01*
X391086Y35200D02*
X404449D01*
X393201Y29600D02*
X406477D01*
X393590Y29200D02*
X407599D01*
X392563Y30400D02*
X405387D01*
X392861Y30000D02*
X405845D01*
X391113Y34400D02*
X404200D01*
X391157Y34000D02*
X404135D01*
X391221Y33600D02*
X404108D01*
X391090Y34800D02*
X404303D01*
X391539Y32400D02*
X404247D01*
X391690Y32000D02*
X404371D01*
X391305Y33200D02*
X404117D01*
X391411Y32800D02*
X404163D01*
X75049Y48800D02*
X223127D01*
X75102Y49200D02*
X223053D01*
X74951Y48400D02*
X223248D01*
X74805Y48000D02*
X223420D01*
X74605Y47600D02*
X223650D01*
X229286Y46800D02*
X402159D01*
X228718Y46400D02*
X402559D01*
X74339Y47200D02*
X223955D01*
X73989Y46800D02*
X224359D01*
X40720Y48400D02*
X67671D01*
X40720Y48800D02*
X67573D01*
X40720Y48000D02*
X67817D01*
X40720Y49600D02*
X67510D01*
X40720Y49200D02*
X67520D01*
X40720Y46800D02*
X68633D01*
X40720Y46400D02*
X69108D01*
X40720Y47600D02*
X68017D01*
X40720Y47200D02*
X68283D01*
X40720Y42800D02*
X406159D01*
X40720Y43200D02*
X405759D01*
X40720Y42400D02*
X406559D01*
X40720Y44000D02*
X404959D01*
X40720Y43600D02*
X405359D01*
X40720Y41200D02*
X407759D01*
X40720Y40800D02*
X408159D01*
X40720Y42000D02*
X406959D01*
X40720Y41600D02*
X407359D01*
X227714Y46000D02*
X402959D01*
X73514Y46400D02*
X224928D01*
X72798Y46000D02*
X225932D01*
X40720D02*
X69824D01*
X40720Y45600D02*
X403359D01*
X40720Y44400D02*
X404559D01*
X40720Y40720D02*
X389500D01*
X40720Y45200D02*
X403759D01*
X40720Y44800D02*
X404159D01*
D25*
X226823Y68594D02*
X245721D01*
X226823Y49697D02*
X245721Y68594D01*
X438500Y33500D02*
X448500Y43500D01*
X515656D01*
X571700D01*
X590851Y62651D02*
Y68955D01*
X571700Y43500D02*
X590851Y62651D01*
X590109Y69697D02*
X590851Y68955D01*
X569000Y69697D02*
X590109D01*
X620421Y68413D02*
X639319Y49516D01*
X590851Y68955D02*
X591122Y68684D01*
X620150D01*
X620421Y68413D01*
X543697Y75000D02*
X559000Y59697D01*
X383045Y68955D02*
X389090Y75000D01*
X275890Y68955D02*
X383045D01*
X418500Y33500D01*
X389090Y75000D02*
X543697D01*
X620421Y68413D02*
X639319D01*
X275710Y68775D02*
X275890Y68955D01*
X245901Y68775D02*
X275710D01*
X245721Y68594D02*
X245901Y68775D01*
D26*
X746363Y49255D02*
D03*
X590851D02*
D03*
X492300Y48700D02*
D03*
X275890Y49255D02*
D03*
X120379D02*
D03*
D27*
X746363Y68955D02*
D03*
X794831Y68413D02*
D03*
Y49516D02*
D03*
X775933Y68413D02*
D03*
Y49516D02*
D03*
X590851Y68955D02*
D03*
X639319Y68413D02*
D03*
Y49516D02*
D03*
X620421Y68413D02*
D03*
Y49516D02*
D03*
X492300Y68400D02*
D03*
X442571Y49697D02*
D03*
Y68594D02*
D03*
X423673Y49697D02*
D03*
Y68594D02*
D03*
X461469Y49697D02*
D03*
Y68594D02*
D03*
X275890Y68955D02*
D03*
X226823Y49697D02*
D03*
Y68594D02*
D03*
X245721Y49697D02*
D03*
Y68594D02*
D03*
X120379Y68955D02*
D03*
X71311Y49500D02*
D03*
Y68398D02*
D03*
X90209Y49500D02*
D03*
Y68398D02*
D03*
D28*
X645669Y59055D02*
D03*
X220472D02*
D03*
X535433D02*
D03*
X330709D02*
D03*
D29*
X559000Y69697D02*
D03*
X569000D02*
D03*
X559000Y59697D02*
D03*
X569000D02*
D03*
X559000Y49697D02*
D03*
X569000D02*
D03*
D30*
X458500Y33500D02*
D03*
X408500D02*
D03*
X418500D02*
D03*
X428500D02*
D03*
X448500D02*
D03*
X438500D02*
D03*
D31*
X415500Y47200D02*
D03*
X398500Y44800D02*
D03*
X703000Y50800D02*
D03*
X703500Y61200D02*
D03*
X449500Y49600D02*
D03*
X436000D02*
D03*
X513500Y54000D02*
D03*
Y62800D02*
D03*
X367499Y42800D02*
D03*
X311000Y53600D02*
D03*
X297000Y62800D02*
D03*
M02*
