M48
;Layer_Color=9474304
;FILE_FORMAT=2:5
INCH,LZ
;TYPE=PLATED
T1F00S00C0.00800
T2F00S00C0.01181
T3F00S00C0.01200
T4F00S00C0.01575
T5F00S00C0.01600
T6F00S00C0.02362
T7F00S00C0.03346
T8F00S00C0.03500
T9F00S00C0.03543
T10F00S00C0.03740
T11F00S00C0.03937
T13F00S00C0.12598
%
T01
X014402Y0101111
Y0105048
X0147957
Y0101111
T02
X-0046551Y0004413
X-004652Y0018361
T03
X0027906Y-0024
X002817Y-0019711
X002998Y-0016193
X002746Y-0012951
X0032601Y-0011961
X003687Y-0008711
X0040095Y-001143
X0044765Y0005218
X00445Y0009612
X0066952Y0045908
X0083948Y0056079
X0129141Y0059384
X01575Y0081
X01515Y0112
X0140476Y0006665
X0109499Y0012744
X0014213Y0017772
X001032Y0042341
X0007601Y0049894
X0000547Y0055575
X-0004307Y00545
X-0003817Y00765
X-0017399
X-0016271Y0086981
X-0013955Y0086764
X-0014Y0089
X-0025093
X-001919Y0064
X-0050183Y0064301
X-0052232Y0047521
X-0044549Y0049894
X-0034989Y0041245
X-0022763Y0029113
X-0046551Y0021121
X-0037666Y0004752
X-0031Y0001941
X-0024476Y-0005602
X-0023462Y-001932
X-0030301Y-0019435
X-0029709Y-0024513
X-0044549Y-0024
X-0044018Y-0018801
X-0050915Y-0019
X-0054285Y-0024513
X-0061284Y-0025081
X-0062909Y-001763
X-0068938Y-0019
X-007514Y-0011
X-0077116Y-000798
X-0075152Y-0005035
X-0084126Y-0005111
X-0076588Y0003682
X-00885Y0021519
X-0083346Y003075
X-007514Y0048337
X-0089924Y0059989
X-0093545Y0067978
X-0094298Y0075457
X-0103643Y0073751
X-0111029Y0074313
X-0110756Y0067057
X-0118007
X-0118716Y0074313
X-0127909Y0071539
X-0128152Y0085792
X-01325Y00985
X-0137306Y0102923
X-01355Y01155
X-0115951Y0113268
X-0114848Y0109761
X-0112762Y01155
X-0115449Y0098392
X-011232Y0094601
X-0117939Y0093414
X-0101208
X-0098Y0106776
X-0089662Y0103116
X-0083187Y0105028
X-0079402Y0110336
X-0070877Y0109331
X-0073374Y0103425
X-006722
X-0072303Y0116415
X-0075Y0081
X-0082689Y0070961
X-0085023Y0069449
X-0102677Y0066707
X-0107089Y0025781
X-01175Y00225
X-0120381Y00245
X-01285Y00225
X-01315Y0024383
X-0133182Y-00085
X-0054187Y-0004925
X-0049325Y-0008122
X-0044325Y-000685
X-0041763Y-0004615
X-0003185Y-0019711
X0009205Y-0010955
X0017Y-0025594
X0017797Y0107957
X00105Y0113849
X0000615Y011532
X-0157894Y0093802
X-0169451Y0103425
X-0172392Y0064
X-0144681Y0072252
X-0141487Y0014736
X-0162629Y0021965
X-0173255Y002759
X-0171216Y0135937
X-01605Y01465
X-0167331Y0167136
X-014793Y0182654
X-0149Y0129016
X-0136241Y0127047
X-01305Y0138
X-0117164Y0142
X-0112556Y0140827
X-0115951Y0132953
X-0115449Y0127047
Y012311
X-0092818Y01205
X-0096046Y0133844
X-0095828Y0143291
X-0095441Y0152011
X-0091845Y0154939
X-0094Y0165393
X-0097732Y016508
X-0101669
X-0103638Y0178236
X-0107886Y0186142
X-012331Y018929
X-01325Y0190336
X-0137462Y0197
X-0118928Y0207
X-01105Y0203
X-0109543Y0211
X-0118494Y0221924
X-0123986Y0217514
X-0127931Y0224243
X-0103638Y02295
X-0100559Y02355
X-0085205Y0237
X-0083362Y0230968
X-00735Y0233
X-0067503Y0231637
X-0071477Y0224415
X-0072571Y02205
X-0078613Y0217123
X-0085078Y0217172
X-0082494Y02485
X-0085175Y025202
X-0082494Y0260002
X-0096569Y0261202
X-0099701Y02515
X-009263Y02485
X-0069964Y0246637
X-0049742Y0226203
X-00485Y0217123
X-0049968Y0210049
X-0015598Y0208353
X-00055Y0203
X-0008764Y0196558
X-0000292Y0195435
X0009963Y0195112
X0016507Y0192307
X0012556Y0187008
X0007469Y0166929
X-0016496Y0160447
X-0026007Y01594
X-0012421Y0180731
Y0185713
X-005433Y01775
X-0058168Y0179117
X-00645Y01655
X-0066326Y0138331
X-0072893Y0143983
X-0082231Y0146038
X-0081542Y0132858
X-0065497Y01235
X-002919Y0124778
X-0012553Y0119
X-0119526Y0170225
X0021326Y019569
X00195Y0209132
X0033709Y0206484
X00565Y0201664
X0060006Y0201664
X005668Y01945
X0062941Y0193
X00655Y0196
X0066613Y0188445
X0070995Y0184855
X0075497Y01885
X0076027Y0180484
X00745Y0165893
X0057823Y0162157
X0052601Y01692
X00545Y0180468
X0057823Y0185554
X0061439Y0184917
X007081Y020209
X00745Y0201664
X0087871Y02014
X0100269
X01005Y0205589
X0108Y02055
X0108148Y0197793
Y0190429
X0112Y0193
X0105326Y0210859
X0092737
X0090068Y0213526
X008076Y0213988
X0082849Y0223624
X0081571Y0238873
X009139Y023625
X0087398Y0261
X0081497Y0263838
X0068959Y024475
X0069706Y0227718
X0047402Y022489
X0047629Y0148198
X0037531Y0129593
X0029411Y01286
X0026Y01355
Y0119
X0020347Y0120707
X00195Y0124
X0077997Y01355
X0092071Y0128751
X010743Y0134058
X0121234Y0137064
X0120068Y0126987
X0132601Y0129976
X0149674Y0130593
X01385Y0196699
X01285Y02055
X0120049Y0219902
X0177193Y0143939
X0087429Y03485
X0081428Y03545
X00908Y03795
X0091Y0387
X0078679
X0077264Y0416277
X0079Y04235
X00908Y0426
X0102732
X0107319Y0426631
X0099Y0422059
X0095004Y0416031
X0090071Y041297
X0100548Y0399847
X0114Y04
X0111484Y0408948
X0116852Y0419612
X-0072611Y0423004
X-0071293Y0363
X-0071721Y03205
X-0071344Y02765
X-0160048Y0431071
X-0179465Y0443939
X-0128311Y0442978
X-0129239Y0448856
X-0094769Y0453798
X-00905Y0442
X-0073822
X-007713Y0434787
X-0079744Y0450787
X0076897
X0085777Y044503
X0097145Y0448856
X0090296Y045639
X0073263Y0435832
X0131219
X013482Y0435972
X012712Y0441429
X0128926Y0448699
X0169289Y0431999
X0176Y0436704
X01775Y0444
T04
X-0060649Y-00098
X-0058118
Y-0007228
X-00495Y00115
X-0049252Y0013745
X-0051342Y00135
X-0044035Y0013642
X-0043567Y00115
X-0042114Y0014405
X-0084126Y0064
T05
X-0118928Y0250105
X-010764
T06
X-0169291Y0443939
X-0161417
X-0153543
X-0145669
X-0137795
X0137793
X0145667
X0153541
X0161415
X0169289
T07
X-00365Y-0012157
Y-0002315
T08
X00885Y-0018561
Y-0008561
X00985
Y-0018561
X01085
Y-0008561
X0152601
Y-0018561
X0162601
Y-0008561
X0172601
Y-0018561
T09
X0023878Y-00025
X0031752
X0039626
X00475
X0055374
X0052601Y0023939
X0042601
X0032601
X0022601
Y0033939
X0032601
X0042601
X0052601
X0062601
Y0023939
X0072601
Y0033939
X0082601
Y0023939
X0092601
Y0033939
X0102601
Y0023939
X0112601
Y0033939
X0122601
Y0023939
X0132601
Y0033939
X0142601
Y0023939
X0152601
Y0033939
X0162601
Y0023939
X0012601
X0002601
X-0007399
X-0017399
X-0027399
Y0033939
Y004394
X-0017399
Y0033939
X-0007399
X0002601
X0012601
X0016004Y-00025
X-0163591Y0125079
X-0171465
X-0179339
X-0027399Y013394
X-0017399
Y0143939
X-0027399
Y0153939
X-0017399
X-0007399
Y0143939
X0002601
Y0153939
X0012601
Y0143939
X-0003752Y0167
X-0011626
X-00195
X-0003874Y0183126
Y0191
X0004
Y0183126
X0022601Y0153939
Y0143939
X0032601
Y0153939
X0042601
Y0143939
X0052601
Y0153939
X0062601
Y0143939
X0072601
Y0153939
X0082601
Y0143939
X0092601
Y0153939
X0102601
Y0143939
X0112601
Y0153939
X0122601
Y0143939
X0132601
Y0153939
X0142601
Y0143939
X0152601
Y0153939
X0162601
Y0143939
X01185Y01945
Y0202374
Y0210248
T10
X-00365Y-0022
T11
X0212598Y0023939
Y0033939
Y004394
Y0053939
Y0063939
X0001628Y-0024513
X-0008372
X-0018372
X-005738Y-002166
X-00655Y00155
X-0073374
X-0145336Y0139191
Y0147065
Y0154939
Y0162813
Y0170687
X-0137462
Y0162813
Y0154939
Y0147065
Y0139191
T13
X0212598Y0
X0035433Y0068898
X-0035433
X-0212598Y0
X-0035433Y0187008
X0035433
X-0115356Y0450787
X0115353
M30
