G04*
G04 #@! TF.GenerationSoftware,Altium Limited,Altium Designer,20.1.11 (218)*
G04*
G04 Layer_Color=16711935*
%FSLAX25Y25*%
%MOIN*%
G70*
G04*
G04 #@! TF.SameCoordinates,1E5C8DF0-0C21-4807-87EA-DBAC22A10C90*
G04*
G04*
G04 #@! TF.FilePolarity,Negative*
G04*
G01*
G75*
%ADD40R,0.06800X0.05800*%
%ADD41O,0.02099X0.05300*%
%ADD42R,0.02099X0.05300*%
%ADD43R,0.05800X0.06800*%
%ADD44R,0.03162X0.04737*%
%ADD48R,0.03353X0.03550*%
%ADD49R,0.02684X0.03550*%
%ADD50R,0.04300X0.04600*%
%ADD51R,0.04600X0.04300*%
%ADD54R,0.03800X0.03100*%
%ADD55R,0.03300X0.02800*%
%ADD56R,0.02800X0.03300*%
%ADD57O,0.05300X0.02099*%
%ADD58R,0.05300X0.02099*%
%ADD63R,0.03100X0.03800*%
%ADD64C,0.02368*%
%ADD65P,0.22514X8X22.5*%
%ADD66C,0.06706*%
%ADD67R,0.06706X0.06706*%
G04:AMPARAMS|DCode=68|XSize=8mil|YSize=8mil|CornerRadius=0mil|HoleSize=0mil|Usage=FLASHONLY|Rotation=90.000|XOffset=0mil|YOffset=0mil|HoleType=Round|Shape=RoundedRectangle|*
%AMROUNDEDRECTD68*
21,1,0.00800,0.00800,0,0,90.0*
21,1,0.00800,0.00800,0,0,90.0*
1,1,0.00000,0.00400,0.00400*
1,1,0.00000,0.00400,-0.00400*
1,1,0.00000,-0.00400,-0.00400*
1,1,0.00000,-0.00400,0.00400*
%
%ADD68ROUNDEDRECTD68*%
%ADD69C,0.07887*%
%ADD70R,0.07887X0.07887*%
%ADD71C,0.07099*%
%ADD72C,0.06706*%
%ADD73C,0.00800*%
G04:AMPARAMS|DCode=74|XSize=126.11mil|YSize=67.06mil|CornerRadius=18.76mil|HoleSize=0mil|Usage=FLASHONLY|Rotation=90.000|XOffset=0mil|YOffset=0mil|HoleType=Round|Shape=RoundedRectangle|*
%AMROUNDEDRECTD74*
21,1,0.12611,0.02953,0,0,90.0*
21,1,0.08858,0.06706,0,0,90.0*
1,1,0.03753,0.01476,0.04429*
1,1,0.03753,0.01476,-0.04429*
1,1,0.03753,-0.01476,-0.04429*
1,1,0.03753,-0.01476,0.04429*
%
%ADD74ROUNDEDRECTD74*%
%ADD75C,0.07000*%
%ADD131R,0.04737X0.03162*%
%ADD132O,0.07700X0.02178*%
%ADD133O,0.02178X0.07700*%
%ADD134R,0.07099X0.10839*%
G04:AMPARAMS|DCode=135|XSize=37.53mil|YSize=17.84mil|CornerRadius=6.46mil|HoleSize=0mil|Usage=FLASHONLY|Rotation=270.000|XOffset=0mil|YOffset=0mil|HoleType=Round|Shape=RoundedRectangle|*
%AMROUNDEDRECTD135*
21,1,0.03753,0.00492,0,0,270.0*
21,1,0.02461,0.01784,0,0,270.0*
1,1,0.01292,-0.00246,-0.01230*
1,1,0.01292,-0.00246,0.01230*
1,1,0.01292,0.00246,0.01230*
1,1,0.01292,0.00246,-0.01230*
%
%ADD135ROUNDEDRECTD135*%
G04:AMPARAMS|DCode=136|XSize=31.62mil|YSize=17.84mil|CornerRadius=6.46mil|HoleSize=0mil|Usage=FLASHONLY|Rotation=90.000|XOffset=0mil|YOffset=0mil|HoleType=Round|Shape=RoundedRectangle|*
%AMROUNDEDRECTD136*
21,1,0.03162,0.00492,0,0,90.0*
21,1,0.01870,0.01784,0,0,90.0*
1,1,0.01292,0.00246,0.00935*
1,1,0.01292,0.00246,-0.00935*
1,1,0.01292,-0.00246,-0.00935*
1,1,0.01292,-0.00246,0.00935*
%
%ADD136ROUNDEDRECTD136*%
G04:AMPARAMS|DCode=137|XSize=31.62mil|YSize=17.84mil|CornerRadius=6.46mil|HoleSize=0mil|Usage=FLASHONLY|Rotation=0.000|XOffset=0mil|YOffset=0mil|HoleType=Round|Shape=RoundedRectangle|*
%AMROUNDEDRECTD137*
21,1,0.03162,0.00492,0,0,0.0*
21,1,0.01870,0.01784,0,0,0.0*
1,1,0.01292,0.00935,-0.00246*
1,1,0.01292,-0.00935,-0.00246*
1,1,0.01292,-0.00935,0.00246*
1,1,0.01292,0.00935,0.00246*
%
%ADD137ROUNDEDRECTD137*%
G04:AMPARAMS|DCode=138|XSize=61.15mil|YSize=17.84mil|CornerRadius=6.46mil|HoleSize=0mil|Usage=FLASHONLY|Rotation=270.000|XOffset=0mil|YOffset=0mil|HoleType=Round|Shape=RoundedRectangle|*
%AMROUNDEDRECTD138*
21,1,0.06115,0.00492,0,0,270.0*
21,1,0.04823,0.01784,0,0,270.0*
1,1,0.01292,-0.00246,-0.02411*
1,1,0.01292,-0.00246,0.02411*
1,1,0.01292,0.00246,0.02411*
1,1,0.01292,0.00246,-0.02411*
%
%ADD138ROUNDEDRECTD138*%
G04:AMPARAMS|DCode=139|XSize=74.93mil|YSize=17.84mil|CornerRadius=6.46mil|HoleSize=0mil|Usage=FLASHONLY|Rotation=270.000|XOffset=0mil|YOffset=0mil|HoleType=Round|Shape=RoundedRectangle|*
%AMROUNDEDRECTD139*
21,1,0.07493,0.00492,0,0,270.0*
21,1,0.06201,0.01784,0,0,270.0*
1,1,0.01292,-0.00246,-0.03100*
1,1,0.01292,-0.00246,0.03100*
1,1,0.01292,0.00246,0.03100*
1,1,0.01292,0.00246,-0.03100*
%
%ADD139ROUNDEDRECTD139*%
%ADD140R,0.01784X0.02375*%
%ADD141R,0.03556X0.01981*%
%ADD142O,0.03162X0.08666*%
%ADD143O,0.02762X0.01581*%
%ADD144R,0.06306X0.07290*%
%ADD145R,0.06800X0.10800*%
%ADD146R,0.02768X0.11036*%
G04:AMPARAMS|DCode=147|XSize=110.36mil|YSize=27.68mil|CornerRadius=8.92mil|HoleSize=0mil|Usage=FLASHONLY|Rotation=90.000|XOffset=0mil|YOffset=0mil|HoleType=Round|Shape=RoundedRectangle|*
%AMROUNDEDRECTD147*
21,1,0.11036,0.00984,0,0,90.0*
21,1,0.09252,0.02768,0,0,90.0*
1,1,0.01784,0.00492,0.04626*
1,1,0.01784,0.00492,-0.04626*
1,1,0.01784,-0.00492,-0.04626*
1,1,0.01784,-0.00492,0.04626*
%
%ADD147ROUNDEDRECTD147*%
%ADD148R,0.03162X0.04934*%
%ADD149R,0.04737X0.05721*%
%ADD150R,0.13202X0.07099*%
%ADD151R,0.09855X0.06706*%
G04:AMPARAMS|DCode=152|XSize=59.18mil|YSize=47.37mil|CornerRadius=0mil|HoleSize=0mil|Usage=FLASHONLY|Rotation=0.000|XOffset=0mil|YOffset=0mil|HoleType=Round|Shape=Octagon|*
%AMOCTAGOND152*
4,1,8,0.02959,-0.01184,0.02959,0.01184,0.01775,0.02368,-0.01775,0.02368,-0.02959,0.01184,-0.02959,-0.01184,-0.01775,-0.02368,0.01775,-0.02368,0.02959,-0.01184,0.0*
%
%ADD152OCTAGOND152*%

%ADD153R,0.05918X0.04737*%
G04:AMPARAMS|DCode=154|XSize=78.87mil|YSize=59.18mil|CornerRadius=16.8mil|HoleSize=0mil|Usage=FLASHONLY|Rotation=270.000|XOffset=0mil|YOffset=0mil|HoleType=Round|Shape=RoundedRectangle|*
%AMROUNDEDRECTD154*
21,1,0.07887,0.02559,0,0,270.0*
21,1,0.04528,0.05918,0,0,270.0*
1,1,0.03359,-0.01280,-0.02264*
1,1,0.03359,-0.01280,0.02264*
1,1,0.03359,0.01280,0.02264*
1,1,0.03359,0.01280,-0.02264*
%
%ADD154ROUNDEDRECTD154*%
%ADD155R,0.05918X0.07887*%
D40*
X-60863Y0D02*
D03*
X-69863D02*
D03*
Y-7000D02*
D03*
X-60863D02*
D03*
X-69863Y7396D02*
D03*
X-60863D02*
D03*
D41*
X58146Y180484D02*
D03*
X73500Y206500D02*
D03*
X63264Y206469D02*
D03*
X58146D02*
D03*
X70941D02*
D03*
Y180484D02*
D03*
X65823D02*
D03*
X60705D02*
D03*
X68382D02*
D03*
X63264D02*
D03*
X65823Y206469D02*
D03*
X60705D02*
D03*
X68300Y206500D02*
D03*
X-100677Y231000D02*
D03*
X-85323Y257016D02*
D03*
X-95559Y256984D02*
D03*
X-100677D02*
D03*
X-87882D02*
D03*
Y231000D02*
D03*
X-93000D02*
D03*
X-98118D02*
D03*
X-90441D02*
D03*
X-95559D02*
D03*
X-93000Y256984D02*
D03*
X-98118D02*
D03*
X-90523Y257016D02*
D03*
D42*
X73500Y180484D02*
D03*
X-85323Y231000D02*
D03*
D43*
X50500Y197500D02*
D03*
Y186500D02*
D03*
D44*
X96341Y171429D02*
D03*
X88861D02*
D03*
X92601Y180484D02*
D03*
X46341Y164287D02*
D03*
X38861D02*
D03*
X42601Y173342D02*
D03*
X88240Y207945D02*
D03*
X80760D02*
D03*
X84500Y217000D02*
D03*
D48*
X-167331Y142000D02*
D03*
X-167331Y135937D02*
D03*
X-156701Y142000D02*
D03*
Y135937D02*
D03*
X29980Y14752D02*
D03*
X29980Y8689D02*
D03*
X40610Y14752D02*
D03*
Y8689D02*
D03*
D49*
X-163591Y142000D02*
D03*
Y135937D02*
D03*
X-160441Y142000D02*
D03*
Y135937D02*
D03*
X33720Y14752D02*
D03*
Y8689D02*
D03*
X36870Y14752D02*
D03*
Y8689D02*
D03*
D50*
X-74110Y182000D02*
D03*
Y188900D02*
D03*
X-130500Y152638D02*
D03*
Y145738D02*
D03*
X-89730Y78372D02*
D03*
Y71472D02*
D03*
X-73374Y30839D02*
D03*
Y23939D02*
D03*
X-82689Y7314D02*
D03*
Y414D02*
D03*
X-7399Y122116D02*
D03*
Y129016D02*
D03*
X8628Y129047D02*
D03*
Y135947D02*
D03*
X-298D02*
D03*
Y129047D02*
D03*
X16700Y135947D02*
D03*
Y129047D02*
D03*
X181500Y-18561D02*
D03*
Y-11660D02*
D03*
X116500Y-18561D02*
D03*
Y-11660D02*
D03*
X-100440Y71100D02*
D03*
Y78000D02*
D03*
X202500Y23939D02*
D03*
Y30839D02*
D03*
X-130500Y167412D02*
D03*
Y160512D02*
D03*
X-95411Y52793D02*
D03*
Y45893D02*
D03*
X-118000Y429240D02*
D03*
Y422340D02*
D03*
D51*
X-32000Y172310D02*
D03*
X-25100D02*
D03*
X-121342Y206000D02*
D03*
X-128029D02*
D03*
X-130500Y132953D02*
D03*
X-137400D02*
D03*
X-147777Y115236D02*
D03*
X-140877D02*
D03*
X-132500Y107362D02*
D03*
X-139400D02*
D03*
X-54425Y79000D02*
D03*
X-61325D02*
D03*
X-112206Y62500D02*
D03*
X-118893D02*
D03*
X140476Y92500D02*
D03*
X147376D02*
D03*
X48474Y4752D02*
D03*
X55374D02*
D03*
X-72400Y39888D02*
D03*
X-65500D02*
D03*
X-58600Y63862D02*
D03*
X-65500D02*
D03*
X-118600Y213000D02*
D03*
X-125500D02*
D03*
X-114475Y70848D02*
D03*
X-107575D02*
D03*
X-114475Y78000D02*
D03*
X-107575D02*
D03*
X-98618Y62500D02*
D03*
X-105306D02*
D03*
X-103600Y199000D02*
D03*
X-110500D02*
D03*
X-103600Y190000D02*
D03*
X-110500D02*
D03*
X-36667Y18500D02*
D03*
X-43567D02*
D03*
X-49500D02*
D03*
X-56400D02*
D03*
X-82979Y79000D02*
D03*
X-76079D02*
D03*
X-21603Y113268D02*
D03*
X-28503D02*
D03*
X-81600Y54000D02*
D03*
X-88500D02*
D03*
X-81600Y46414D02*
D03*
X-88500D02*
D03*
X-157500Y49032D02*
D03*
X-150600D02*
D03*
X-171216D02*
D03*
X-164316D02*
D03*
X-129853Y62762D02*
D03*
X-136753D02*
D03*
X-110500Y182000D02*
D03*
X-103600D02*
D03*
X123972Y415000D02*
D03*
X117072D02*
D03*
X-91827Y264500D02*
D03*
X-84927D02*
D03*
X95100Y432500D02*
D03*
X102000D02*
D03*
D54*
X-145000Y44000D02*
D03*
X-139700D02*
D03*
X86060Y198767D02*
D03*
X80760D02*
D03*
X52601Y206469D02*
D03*
X47301D02*
D03*
X78500Y180484D02*
D03*
X83800D02*
D03*
X89100Y165751D02*
D03*
X83800D02*
D03*
D55*
X73120Y221500D02*
D03*
X68300D02*
D03*
X56680Y169833D02*
D03*
X61500D02*
D03*
X58444Y221500D02*
D03*
X63264D02*
D03*
X85580Y203000D02*
D03*
X80760D02*
D03*
X55680Y174929D02*
D03*
X60500D02*
D03*
X75761Y175529D02*
D03*
X70941D02*
D03*
X74820Y169833D02*
D03*
X70000D02*
D03*
X-52031Y-14500D02*
D03*
X-47212D02*
D03*
X87421Y42000D02*
D03*
X82601D02*
D03*
X-100926Y45061D02*
D03*
X-105746D02*
D03*
X-128130Y175500D02*
D03*
X-123310D02*
D03*
D56*
X-34000Y9572D02*
D03*
Y4752D02*
D03*
X-57152Y-14500D02*
D03*
Y-19320D02*
D03*
X70941Y211700D02*
D03*
Y216520D02*
D03*
X33773Y169107D02*
D03*
Y164287D02*
D03*
X28500Y205389D02*
D03*
Y210209D02*
D03*
X83800Y175391D02*
D03*
Y170571D02*
D03*
X60705Y216520D02*
D03*
Y211700D02*
D03*
X77500Y42000D02*
D03*
Y46820D02*
D03*
Y52000D02*
D03*
Y56820D02*
D03*
D57*
X85469Y421977D02*
D03*
X85500Y414382D02*
D03*
Y419500D02*
D03*
X111484Y416941D02*
D03*
Y422059D02*
D03*
Y414382D02*
D03*
Y419500D02*
D03*
Y424618D02*
D03*
X85500D02*
D03*
Y411823D02*
D03*
Y416941D02*
D03*
X85469Y427177D02*
D03*
X111484Y411823D02*
D03*
D58*
X111484Y427177D02*
D03*
D63*
X-47504Y-9800D02*
D03*
Y-4500D02*
D03*
X123500Y50560D02*
D03*
Y55860D02*
D03*
X136500Y104359D02*
D03*
Y109659D02*
D03*
X155900Y99000D02*
D03*
Y93700D02*
D03*
X65823Y175133D02*
D03*
Y169833D02*
D03*
X23500Y204909D02*
D03*
Y210209D02*
D03*
X50500Y178642D02*
D03*
Y173342D02*
D03*
X75761Y211700D02*
D03*
Y217000D02*
D03*
X28500Y169587D02*
D03*
Y164287D02*
D03*
X-120776Y76721D02*
D03*
Y82021D02*
D03*
D64*
X147957Y105048D02*
D03*
X144020D02*
D03*
Y101111D02*
D03*
X147957D02*
D03*
D65*
X-35433Y187008D02*
D03*
X212598Y0D02*
D03*
X-212598D02*
D03*
X35433Y187008D02*
D03*
X115353Y450787D02*
D03*
X-35433Y68898D02*
D03*
X35433D02*
D03*
X-115356Y450787D02*
D03*
D66*
X-11626Y167000D02*
D03*
X-19500D02*
D03*
X-3752D02*
D03*
X-137462Y170687D02*
D03*
X-145336Y162813D02*
D03*
X-137462D02*
D03*
X-145336Y154939D02*
D03*
X-137462D02*
D03*
X-145336Y147065D02*
D03*
X-137462D02*
D03*
X-145336Y139191D02*
D03*
X-137462D02*
D03*
X31752Y-2500D02*
D03*
X16004D02*
D03*
X39626D02*
D03*
X23878D02*
D03*
X47500D02*
D03*
X55374D02*
D03*
X118500Y202374D02*
D03*
Y194500D02*
D03*
Y210248D02*
D03*
X-3874Y191000D02*
D03*
X4000D02*
D03*
X-3874Y183126D02*
D03*
X4000D02*
D03*
X-163591Y125079D02*
D03*
X-179339D02*
D03*
X-171465D02*
D03*
D67*
X-145336Y170687D02*
D03*
D68*
X-127119Y9968D02*
D03*
D69*
X212598Y43940D02*
D03*
Y33939D02*
D03*
Y23939D02*
D03*
Y53939D02*
D03*
Y63939D02*
D03*
X-36500Y-2315D02*
D03*
Y-12157D02*
D03*
X-8372Y-24513D02*
D03*
X1628D02*
D03*
X-18372D02*
D03*
D70*
X-36500Y-22000D02*
D03*
D71*
X-73374Y15500D02*
D03*
X-65500D02*
D03*
D72*
X-27399Y43940D02*
D03*
X-17399D02*
D03*
X-27399Y33939D02*
D03*
Y23939D02*
D03*
X-17399Y33939D02*
D03*
Y23939D02*
D03*
X-7399Y33939D02*
D03*
Y23939D02*
D03*
X2601Y33939D02*
D03*
Y23939D02*
D03*
X12601Y33939D02*
D03*
Y23939D02*
D03*
X22601Y33939D02*
D03*
Y23939D02*
D03*
X32601Y33939D02*
D03*
Y23939D02*
D03*
X42601Y33939D02*
D03*
Y23939D02*
D03*
X52601Y33939D02*
D03*
Y23939D02*
D03*
X62601Y33939D02*
D03*
Y23939D02*
D03*
X72601Y33939D02*
D03*
Y23939D02*
D03*
X82601Y33939D02*
D03*
Y23939D02*
D03*
X92601Y33939D02*
D03*
Y23939D02*
D03*
X102601Y33939D02*
D03*
Y23939D02*
D03*
X112601Y33939D02*
D03*
Y23939D02*
D03*
X122601Y33939D02*
D03*
Y23939D02*
D03*
X132601Y33939D02*
D03*
Y23939D02*
D03*
X142601Y33939D02*
D03*
Y23939D02*
D03*
X152601Y33939D02*
D03*
Y23939D02*
D03*
X162601Y33939D02*
D03*
Y23939D02*
D03*
X-17399Y133940D02*
D03*
X-27399D02*
D03*
Y143939D02*
D03*
Y153939D02*
D03*
X-17399Y143939D02*
D03*
Y153939D02*
D03*
X-7399Y143939D02*
D03*
Y153939D02*
D03*
X2601Y143939D02*
D03*
Y153939D02*
D03*
X12601Y143939D02*
D03*
Y153939D02*
D03*
X22601Y143939D02*
D03*
Y153939D02*
D03*
X32601Y143939D02*
D03*
Y153939D02*
D03*
X42601Y143939D02*
D03*
Y153939D02*
D03*
X52601Y143939D02*
D03*
Y153939D02*
D03*
X62601Y143939D02*
D03*
Y153939D02*
D03*
X72601Y143939D02*
D03*
Y153939D02*
D03*
X82601Y143939D02*
D03*
Y153939D02*
D03*
X92601Y143939D02*
D03*
Y153939D02*
D03*
X102601Y143939D02*
D03*
Y153939D02*
D03*
X112601Y143939D02*
D03*
Y153939D02*
D03*
X122601Y143939D02*
D03*
Y153939D02*
D03*
X132601Y143939D02*
D03*
Y153939D02*
D03*
X142601Y143939D02*
D03*
Y153939D02*
D03*
X152601Y143939D02*
D03*
Y153939D02*
D03*
X162601Y143939D02*
D03*
Y153939D02*
D03*
D73*
X153541Y450787D02*
D03*
X-153543D02*
D03*
D74*
X153541Y443939D02*
D03*
X145667D02*
D03*
X137793D02*
D03*
X169289D02*
D03*
X161415D02*
D03*
X-161417D02*
D03*
X-169291D02*
D03*
X-137795D02*
D03*
X-145669D02*
D03*
X-153543D02*
D03*
D75*
X152601Y-18561D02*
D03*
Y-8561D02*
D03*
X162601Y-18561D02*
D03*
Y-8561D02*
D03*
X172601Y-18561D02*
D03*
Y-8561D02*
D03*
X88500Y-18561D02*
D03*
Y-8561D02*
D03*
X98500Y-18561D02*
D03*
Y-8561D02*
D03*
X108500Y-18561D02*
D03*
Y-8561D02*
D03*
D131*
X-123972Y429240D02*
D03*
Y421760D02*
D03*
X-133028Y425500D02*
D03*
X123972Y421760D02*
D03*
Y429240D02*
D03*
X133028Y425500D02*
D03*
X33546Y202728D02*
D03*
Y210209D02*
D03*
X42601Y206469D02*
D03*
X82601Y46820D02*
D03*
Y54300D02*
D03*
X91656Y50560D02*
D03*
D132*
X-38690Y95551D02*
D03*
Y97520D02*
D03*
Y99488D02*
D03*
Y101457D02*
D03*
Y103425D02*
D03*
Y105394D02*
D03*
Y107362D02*
D03*
Y109331D02*
D03*
Y111299D02*
D03*
Y113268D02*
D03*
Y115236D02*
D03*
Y117205D02*
D03*
Y119173D02*
D03*
Y121142D02*
D03*
Y123110D02*
D03*
Y125079D02*
D03*
Y127047D02*
D03*
Y129016D02*
D03*
Y130984D02*
D03*
Y132953D02*
D03*
Y134921D02*
D03*
Y136890D02*
D03*
Y138858D02*
D03*
Y140827D02*
D03*
Y142795D02*
D03*
Y144764D02*
D03*
Y146732D02*
D03*
Y148701D02*
D03*
Y150669D02*
D03*
Y152638D02*
D03*
Y154606D02*
D03*
Y156575D02*
D03*
Y158543D02*
D03*
Y160512D02*
D03*
Y162480D02*
D03*
Y164449D02*
D03*
X-123310D02*
D03*
Y162480D02*
D03*
Y160512D02*
D03*
Y158543D02*
D03*
Y156575D02*
D03*
Y154606D02*
D03*
Y152638D02*
D03*
Y150669D02*
D03*
Y148701D02*
D03*
Y146732D02*
D03*
Y144764D02*
D03*
Y142795D02*
D03*
Y140827D02*
D03*
Y138858D02*
D03*
Y136890D02*
D03*
Y134921D02*
D03*
Y132953D02*
D03*
Y130984D02*
D03*
Y129016D02*
D03*
Y127047D02*
D03*
Y125079D02*
D03*
Y123110D02*
D03*
Y121142D02*
D03*
Y119173D02*
D03*
Y117205D02*
D03*
Y115236D02*
D03*
Y113268D02*
D03*
Y111299D02*
D03*
Y109331D02*
D03*
Y107362D02*
D03*
Y105394D02*
D03*
Y103425D02*
D03*
Y101457D02*
D03*
Y99488D02*
D03*
Y97520D02*
D03*
Y95551D02*
D03*
D133*
X-46551Y172310D02*
D03*
X-48520D02*
D03*
X-50488D02*
D03*
X-52457D02*
D03*
X-54425D02*
D03*
X-56394D02*
D03*
X-58362D02*
D03*
X-60331D02*
D03*
X-62299D02*
D03*
X-64268D02*
D03*
X-66236D02*
D03*
X-68205D02*
D03*
X-70173D02*
D03*
X-72142D02*
D03*
X-74110D02*
D03*
X-76079D02*
D03*
X-78047D02*
D03*
X-80016D02*
D03*
X-81984D02*
D03*
X-83953D02*
D03*
X-85921D02*
D03*
X-87890D02*
D03*
X-89858D02*
D03*
X-91827D02*
D03*
X-93795D02*
D03*
X-95764D02*
D03*
X-97732D02*
D03*
X-99701D02*
D03*
X-101669D02*
D03*
X-103638D02*
D03*
X-105606D02*
D03*
X-107575D02*
D03*
X-109543D02*
D03*
X-111512D02*
D03*
X-113480D02*
D03*
X-115449D02*
D03*
X-115449Y87690D02*
D03*
X-113480D02*
D03*
X-111512D02*
D03*
X-109543D02*
D03*
X-107575D02*
D03*
X-105606D02*
D03*
X-103638D02*
D03*
X-101669D02*
D03*
X-99701D02*
D03*
X-97732D02*
D03*
X-95764D02*
D03*
X-93795D02*
D03*
X-91827D02*
D03*
X-89858D02*
D03*
X-87890D02*
D03*
X-85921D02*
D03*
X-83953D02*
D03*
X-81984D02*
D03*
X-80016D02*
D03*
X-78047D02*
D03*
X-76079D02*
D03*
X-74110D02*
D03*
X-72142D02*
D03*
X-70173D02*
D03*
X-68205D02*
D03*
X-66236D02*
D03*
X-64268D02*
D03*
X-62299D02*
D03*
X-60331D02*
D03*
X-58362D02*
D03*
X-56394D02*
D03*
X-54425D02*
D03*
X-52457D02*
D03*
X-50488D02*
D03*
X-48520D02*
D03*
X-46551D02*
D03*
D134*
X-158500Y170687D02*
D03*
Y156908D02*
D03*
D135*
X-51342Y7705D02*
D03*
X-41697D02*
D03*
D136*
X-43567Y1110D02*
D03*
X-45535D02*
D03*
X-47504D02*
D03*
X-49472D02*
D03*
D137*
X-52031Y2784D02*
D03*
Y4752D02*
D03*
Y6720D02*
D03*
Y8689D02*
D03*
X-41008D02*
D03*
Y6720D02*
D03*
Y4752D02*
D03*
Y2784D02*
D03*
D138*
X-48488Y8689D02*
D03*
X-44551D02*
D03*
D139*
X-46520Y8000D02*
D03*
D140*
X-64516Y32808D02*
D03*
X-66484D02*
D03*
X143585Y133531D02*
D03*
X141617D02*
D03*
X155016Y106532D02*
D03*
X156984D02*
D03*
D141*
X-65500Y34776D02*
D03*
Y30839D02*
D03*
X142602Y135500D02*
D03*
Y131563D02*
D03*
X155999Y104563D02*
D03*
Y108500D02*
D03*
D142*
X-27405Y15621D02*
D03*
X-22405D02*
D03*
X-17405D02*
D03*
X-12405D02*
D03*
X-7405D02*
D03*
X-2405D02*
D03*
X2595D02*
D03*
X7595D02*
D03*
X7601Y-12157D02*
D03*
X2601D02*
D03*
X-2399D02*
D03*
X-7399D02*
D03*
X-12399D02*
D03*
X-17399D02*
D03*
X-22399D02*
D03*
X-27405D02*
D03*
D143*
X140476Y99241D02*
D03*
Y101800D02*
D03*
Y104359D02*
D03*
Y106918D02*
D03*
X151500D02*
D03*
Y104359D02*
D03*
Y101800D02*
D03*
Y99241D02*
D03*
D144*
X145988Y103080D02*
D03*
D145*
X142601Y120700D02*
D03*
X156101D02*
D03*
D146*
X-164316Y35436D02*
D03*
X-156044Y35440D02*
D03*
X-158800D02*
D03*
X-147777D02*
D03*
X-150533D02*
D03*
X-139509D02*
D03*
X-142265D02*
D03*
X-131241D02*
D03*
X-133997D02*
D03*
X-122974D02*
D03*
X-125730D02*
D03*
X-114706D02*
D03*
X-117458Y35436D02*
D03*
X-106442Y35440D02*
D03*
X-109194D02*
D03*
X-98171D02*
D03*
X-100926Y35436D02*
D03*
X-92659Y35440D02*
D03*
X-87147D02*
D03*
X-153289D02*
D03*
X-161556D02*
D03*
X-120218D02*
D03*
X-128481D02*
D03*
X-136753D02*
D03*
X-145021D02*
D03*
X-89899D02*
D03*
X-95411Y35436D02*
D03*
X-103682Y35440D02*
D03*
X-111946Y35443D02*
D03*
D147*
X-167068Y35440D02*
D03*
D148*
X-65500Y46165D02*
D03*
X-72980D02*
D03*
X-69240D02*
D03*
X-65500Y56795D02*
D03*
X-72980D02*
D03*
D149*
X-137400Y190000D02*
D03*
Y178386D02*
D03*
X-144000Y51148D02*
D03*
Y62762D02*
D03*
D150*
X16004Y-19000D02*
D03*
X36870D02*
D03*
D151*
X101018Y50560D02*
D03*
X114797D02*
D03*
Y64340D02*
D03*
D152*
X115585Y42000D02*
D03*
D153*
X101018D02*
D03*
D154*
X-118494Y182000D02*
D03*
X-128029Y196961D02*
D03*
Y182000D02*
D03*
D155*
X-118494Y196961D02*
D03*
M02*
