G04*
G04 #@! TF.GenerationSoftware,Altium Limited,Altium Designer,20.1.11 (218)*
G04*
G04 Layer_Color=32896*
%FSLAX25Y25*%
%MOIN*%
G70*
G04*
G04 #@! TF.SameCoordinates,1E5C8DF0-0C21-4807-87EA-DBAC22A10C90*
G04*
G04*
G04 #@! TF.FilePolarity,Positive*
G04*
G01*
G75*
%ADD10C,0.00787*%
%ADD11C,0.01000*%
%ADD12C,0.00800*%
%ADD13C,0.00700*%
%ADD15C,0.01200*%
%ADD79C,0.00600*%
%ADD157C,0.00984*%
D10*
X-41520Y-862D02*
X-42270Y-429D01*
Y-1295D01*
X-41520Y-862D01*
X95868Y428477D02*
X96059Y427521D01*
X96601Y426709D01*
X97412Y426167D01*
X98369Y425977D01*
X99325Y426167D01*
X100136Y426709D01*
X100678Y427521D01*
X100868Y428477D01*
X74800Y196100D02*
X73843Y195910D01*
X73032Y195368D01*
X72490Y194557D01*
X72300Y193600D01*
X72490Y192643D01*
X73032Y191832D01*
X73843Y191290D01*
X74800Y191100D01*
X-84023Y246616D02*
X-84979Y246426D01*
X-85791Y245884D01*
X-86332Y245073D01*
X-86523Y244116D01*
X-86332Y243159D01*
X-85791Y242348D01*
X-84979Y241806D01*
X-84023Y241616D01*
X-166965Y155333D02*
X-163028D01*
X-166965D02*
Y168030D01*
X-163028Y171967D01*
X-153972Y155333D02*
X-150035D01*
Y168030D01*
X-153972Y171967D02*
X-150035Y168030D01*
X-154043Y133181D02*
Y137197D01*
X-169988Y140740D02*
Y144756D01*
X-154043Y140740D02*
Y144756D01*
X-169988Y133181D02*
Y137197D01*
Y144756D02*
X-154043Y144756D01*
X-169988Y133181D02*
X-154043D01*
X-52425Y9638D02*
Y10559D01*
Y716D02*
Y1638D01*
X-40614Y9638D02*
Y10559D01*
Y716D02*
Y1638D01*
X-42020Y10559D02*
X-40614D01*
X-52425D02*
X-51020D01*
X-42020Y716D02*
X-40614D01*
X-52425D02*
X-51020D01*
X-73631Y3347D02*
X-57095D01*
Y-3347D02*
Y3347D01*
X-73631Y-3347D02*
Y3347D01*
Y-3347D02*
X-57095D01*
X43268Y5933D02*
Y9949D01*
X27323Y13492D02*
Y17508D01*
X43268Y13492D02*
Y17508D01*
X27323Y5933D02*
Y9949D01*
Y17508D02*
X43268Y17508D01*
X27323Y5933D02*
X43268D01*
X151795Y96288D02*
X152779D01*
X139197D02*
Y97076D01*
Y96288D02*
X142839D01*
X152779D02*
Y97076D01*
Y109084D02*
Y109871D01*
X151795D02*
X152779D01*
X139197Y109084D02*
Y109871D01*
X139197D02*
X140181D01*
X91957Y428477D02*
X95868D01*
X100905Y428457D02*
X105047D01*
Y410448D02*
Y428457D01*
X91937Y410448D02*
X105047D01*
X91937D02*
Y428457D01*
X55000Y181500D02*
Y189000D01*
X46000Y181500D02*
Y189000D01*
X55000Y195000D02*
Y201000D01*
X46000Y195000D02*
Y201000D01*
Y181500D02*
X55000D01*
X47500Y202500D02*
X53500D01*
X46000Y201000D02*
X47500Y202500D01*
X53500D02*
X55000Y201000D01*
X56771Y200031D02*
X74779D01*
X56771Y186921D02*
Y200031D01*
Y186921D02*
X74779D01*
Y191064D01*
X74800Y196100D02*
Y200011D01*
X-140156Y184980D02*
X-134644Y184980D01*
X-140156Y186161D02*
X-134644D01*
X-140156Y182224D02*
X-134644D01*
Y186161D01*
X-140156Y182224D02*
Y186161D01*
X39429Y-31992D02*
Y-23528D01*
X19941Y-31992D02*
X39429D01*
X13445Y-25496D02*
X19941Y-31992D01*
X13445Y-25496D02*
Y-23528D01*
X39429Y-14472D02*
Y-6008D01*
X19941D02*
X39429D01*
X13445Y-12504D02*
X19941Y-6008D01*
X13445Y-14472D02*
Y-12504D01*
X-73631Y-10346D02*
X-57095D01*
X-73631D02*
Y-3653D01*
X-57095Y-10346D02*
Y-3653D01*
X-73631D02*
X-57095D01*
X-73631Y4050D02*
X-57095D01*
X-73631D02*
Y10743D01*
X-57095Y4050D02*
Y10743D01*
X-73631D02*
X-57095D01*
X-146756Y56168D02*
X-141244Y56168D01*
X-146756Y54987D02*
X-141244D01*
X-146756Y58924D02*
X-141244D01*
X-146756Y54987D02*
Y58924D01*
X-141244Y54987D02*
Y58924D01*
X-102052Y250547D02*
X-84043D01*
X-102052Y237437D02*
Y250547D01*
Y237437D02*
X-84043D01*
Y241580D01*
X-84023Y246616D02*
Y250527D01*
D11*
X-49000Y101000D02*
X-49163Y101974D01*
X-49633Y102843D01*
X-50359Y103512D01*
X-51263Y103908D01*
X-52248Y103990D01*
X-53205Y103747D01*
X-54032Y103207D01*
X-54638Y102428D01*
X-54959Y101494D01*
Y100506D01*
X-54638Y99572D01*
X-54032Y98793D01*
X-53205Y98253D01*
X-52248Y98010D01*
X-51263Y98092D01*
X-50359Y98488D01*
X-49633Y99157D01*
X-49163Y100026D01*
X-49000Y101000D01*
X-34200Y175210D02*
X-34770Y174320D01*
X-35120Y173324D01*
X-35233Y172273D01*
X-35101Y171224D01*
X-34733Y170234D01*
X-34148Y169354D01*
X-23000Y169410D02*
X-22430Y170300D01*
X-22080Y171297D01*
X-21967Y172347D01*
X-22099Y173396D01*
X-22467Y174386D01*
X-23052Y175266D01*
X-77010Y179800D02*
X-76120Y179230D01*
X-75124Y178880D01*
X-74073Y178767D01*
X-73024Y178899D01*
X-72034Y179267D01*
X-71154Y179852D01*
X-71210Y191000D02*
X-72100Y191570D01*
X-73097Y191920D01*
X-74147Y192033D01*
X-75196Y191901D01*
X-76186Y191533D01*
X-77066Y190948D01*
X-128300Y130053D02*
X-127730Y130943D01*
X-127380Y131939D01*
X-127267Y132990D01*
X-127399Y134038D01*
X-127767Y135029D01*
X-128352Y135908D01*
X-139500Y135853D02*
X-140070Y134963D01*
X-140420Y133966D01*
X-140533Y132915D01*
X-140401Y131867D01*
X-140033Y130877D01*
X-139448Y129997D01*
X-130300Y104462D02*
X-129730Y105352D01*
X-129380Y106349D01*
X-129267Y107399D01*
X-129399Y108448D01*
X-129767Y109438D01*
X-130352Y110318D01*
X-141500Y110262D02*
X-142070Y109372D01*
X-142420Y108376D01*
X-142533Y107325D01*
X-142401Y106277D01*
X-142033Y105286D01*
X-141448Y104406D01*
X-52225Y76100D02*
X-51656Y76990D01*
X-51305Y77987D01*
X-51192Y79037D01*
X-51324Y80086D01*
X-51692Y81076D01*
X-52277Y81956D01*
X-63425Y81900D02*
X-63995Y81010D01*
X-64345Y80013D01*
X-64458Y78963D01*
X-64327Y77914D01*
X-63958Y76924D01*
X-63373Y76044D01*
X-30766Y-1925D02*
X-29768Y-1782D01*
X-28850Y-1363D01*
X-28088Y-702D01*
X-27543Y146D01*
X-27259Y1114D01*
Y2122D01*
X-27543Y3090D01*
X-28088Y3939D01*
X-28850Y4599D01*
X-29768Y5018D01*
X-30766Y5161D01*
X138276Y95400D02*
X137707Y94510D01*
X137356Y93513D01*
X137244Y92463D01*
X137375Y91414D01*
X137743Y90424D01*
X138329Y89544D01*
X149476Y89600D02*
X150046Y90490D01*
X150397Y91487D01*
X150509Y92537D01*
X150378Y93586D01*
X150010Y94576D01*
X149424Y95456D01*
X103668Y426377D02*
X102919Y426810D01*
Y425944D01*
X103668Y426377D01*
X73200Y188800D02*
X72450Y189233D01*
Y188367D01*
X73200Y188800D01*
X-10299Y120016D02*
X-9409Y119446D01*
X-8412Y119096D01*
X-7362Y118983D01*
X-6313Y119114D01*
X-5323Y119483D01*
X-4443Y120068D01*
X-4499Y131216D02*
X-5389Y131785D01*
X-6386Y132136D01*
X-7436Y132248D01*
X-8485Y132117D01*
X-9475Y131749D01*
X-10355Y131164D01*
X46374Y7652D02*
X45804Y6762D01*
X45454Y5765D01*
X45341Y4715D01*
X45473Y3666D01*
X45841Y2676D01*
X46426Y1796D01*
X57574Y1852D02*
X58144Y2742D01*
X58494Y3739D01*
X58607Y4789D01*
X58475Y5838D01*
X58107Y6828D01*
X57522Y7708D01*
X-74500Y42788D02*
X-75070Y41898D01*
X-75420Y40901D01*
X-75533Y39851D01*
X-75401Y38802D01*
X-75033Y37812D01*
X-74448Y36932D01*
X-63300Y36988D02*
X-62730Y37878D01*
X-62380Y38875D01*
X-62267Y39925D01*
X-62399Y40974D01*
X-62767Y41964D01*
X-63352Y42844D01*
X-61850Y45180D02*
X-62600Y45613D01*
Y44747D01*
X-61850Y45180D01*
X-56500Y60962D02*
X-55930Y61852D01*
X-55580Y62849D01*
X-55467Y63899D01*
X-55599Y64948D01*
X-55967Y65938D01*
X-56552Y66818D01*
X-67700Y66762D02*
X-68270Y65872D01*
X-68620Y64875D01*
X-68733Y63825D01*
X-68601Y62776D01*
X-68233Y61786D01*
X-67648Y60906D01*
X178600Y-20761D02*
X179490Y-21330D01*
X180487Y-21681D01*
X181537Y-21793D01*
X182586Y-21662D01*
X183576Y-21294D01*
X184456Y-20708D01*
X184400Y-9561D02*
X183510Y-8991D01*
X182513Y-8640D01*
X181463Y-8528D01*
X180414Y-8659D01*
X179424Y-9027D01*
X178544Y-9613D01*
X113600Y-20761D02*
X114490Y-21330D01*
X115487Y-21681D01*
X116537Y-21793D01*
X117586Y-21662D01*
X118576Y-21294D01*
X119456Y-20708D01*
X119400Y-9561D02*
X118510Y-8991D01*
X117513Y-8640D01*
X116463Y-8528D01*
X115414Y-8659D01*
X114424Y-9027D01*
X113544Y-9613D01*
X-116500Y210100D02*
X-115930Y210990D01*
X-115580Y211987D01*
X-115467Y213037D01*
X-115599Y214086D01*
X-115967Y215076D01*
X-116552Y215956D01*
X-127700Y215900D02*
X-128270Y215010D01*
X-128620Y214013D01*
X-128733Y212963D01*
X-128601Y211914D01*
X-128233Y210924D01*
X-127648Y210044D01*
X-116575Y73748D02*
X-117145Y72858D01*
X-117495Y71862D01*
X-117607Y70811D01*
X-117476Y69762D01*
X-117108Y68772D01*
X-116523Y67893D01*
X-105375Y67948D02*
X-104805Y68838D01*
X-104455Y69835D01*
X-104342Y70886D01*
X-104473Y71934D01*
X-104842Y72924D01*
X-105427Y73804D01*
X-116575Y80900D02*
X-117145Y80010D01*
X-117495Y79013D01*
X-117607Y77963D01*
X-117476Y76914D01*
X-117108Y75924D01*
X-116523Y75044D01*
X-105375Y75100D02*
X-104805Y75990D01*
X-104455Y76987D01*
X-104342Y78037D01*
X-104473Y79086D01*
X-104842Y80076D01*
X-105427Y80956D01*
X-103340Y69000D02*
X-102450Y68430D01*
X-101453Y68080D01*
X-100403Y67967D01*
X-99354Y68099D01*
X-98364Y68467D01*
X-97484Y69052D01*
X-97540Y80200D02*
X-98430Y80770D01*
X-99427Y81120D01*
X-100477Y81233D01*
X-101526Y81101D01*
X-102516Y80733D01*
X-103396Y80148D01*
X-101500Y196100D02*
X-100930Y196990D01*
X-100580Y197987D01*
X-100467Y199037D01*
X-100599Y200086D01*
X-100967Y201076D01*
X-101552Y201956D01*
X-112700Y201900D02*
X-113270Y201010D01*
X-113620Y200013D01*
X-113733Y198963D01*
X-113601Y197914D01*
X-113233Y196924D01*
X-112648Y196044D01*
X-34567Y15600D02*
X-33997Y16490D01*
X-33647Y17487D01*
X-33534Y18537D01*
X-33665Y19586D01*
X-34034Y20576D01*
X-34619Y21456D01*
X-45767Y21400D02*
X-46337Y20510D01*
X-46687Y19513D01*
X-46800Y18463D01*
X-46668Y17414D01*
X-46300Y16424D01*
X-45715Y15544D01*
X-47400Y15600D02*
X-46830Y16490D01*
X-46480Y17487D01*
X-46367Y18537D01*
X-46499Y19586D01*
X-46867Y20576D01*
X-47452Y21456D01*
X-58600Y21400D02*
X-59170Y20510D01*
X-59520Y19513D01*
X-59633Y18463D01*
X-59501Y17414D01*
X-59133Y16424D01*
X-58548Y15544D01*
X199600Y21739D02*
X200490Y21170D01*
X201487Y20819D01*
X202537Y20707D01*
X203586Y20838D01*
X204576Y21206D01*
X205456Y21792D01*
X205400Y32939D02*
X204510Y33509D01*
X203513Y33860D01*
X202463Y33972D01*
X201414Y33841D01*
X200424Y33473D01*
X199544Y32887D01*
X-85079Y81900D02*
X-85648Y81010D01*
X-85999Y80013D01*
X-86111Y78963D01*
X-85980Y77914D01*
X-85612Y76924D01*
X-85027Y76044D01*
X-73879Y76100D02*
X-73309Y76990D01*
X-72959Y77987D01*
X-72846Y79037D01*
X-72977Y80086D01*
X-73346Y81076D01*
X-73931Y81956D01*
X-19503Y110368D02*
X-18933Y111258D01*
X-18583Y112254D01*
X-18470Y113305D01*
X-18602Y114354D01*
X-18970Y115344D01*
X-19555Y116223D01*
X-30703Y116168D02*
X-31273Y115278D01*
X-31623Y114281D01*
X-31736Y113230D01*
X-31604Y112182D01*
X-31236Y111192D01*
X-30651Y110312D01*
X-127600Y169512D02*
X-128490Y170081D01*
X-129487Y170432D01*
X-130537Y170545D01*
X-131586Y170413D01*
X-132576Y170045D01*
X-133456Y169460D01*
X-133400Y158312D02*
X-132510Y157742D01*
X-131513Y157392D01*
X-130463Y157279D01*
X-129414Y157410D01*
X-128424Y157779D01*
X-127544Y158364D01*
X-79500Y51100D02*
X-78930Y51990D01*
X-78580Y52987D01*
X-78467Y54037D01*
X-78599Y55086D01*
X-78967Y56076D01*
X-79552Y56956D01*
X-90700Y56900D02*
X-91270Y56010D01*
X-91620Y55013D01*
X-91733Y53963D01*
X-91601Y52914D01*
X-91233Y51924D01*
X-90648Y51044D01*
X-79500Y43514D02*
X-78930Y44404D01*
X-78580Y45401D01*
X-78467Y46451D01*
X-78599Y47500D01*
X-78967Y48490D01*
X-79552Y49370D01*
X-90700Y49314D02*
X-91270Y48424D01*
X-91620Y47427D01*
X-91733Y46377D01*
X-91601Y45328D01*
X-91233Y44338D01*
X-90648Y43458D01*
X-159600Y51932D02*
X-160170Y51042D01*
X-160520Y50045D01*
X-160633Y48994D01*
X-160501Y47946D01*
X-160133Y46955D01*
X-159548Y46076D01*
X-148400Y46132D02*
X-147830Y47022D01*
X-147480Y48018D01*
X-147367Y49069D01*
X-147499Y50117D01*
X-147867Y51108D01*
X-148452Y51987D01*
X-92511Y54893D02*
X-93401Y55463D01*
X-94398Y55813D01*
X-95448Y55926D01*
X-96497Y55795D01*
X-97487Y55426D01*
X-98367Y54841D01*
X-98311Y43693D02*
X-97421Y43123D01*
X-96424Y42773D01*
X-95374Y42660D01*
X-94325Y42792D01*
X-93335Y43160D01*
X-92455Y43745D01*
X-173316Y51932D02*
X-173886Y51042D01*
X-174236Y50045D01*
X-174349Y48994D01*
X-174217Y47946D01*
X-173849Y46955D01*
X-173264Y46076D01*
X-162116Y46132D02*
X-161546Y47022D01*
X-161196Y48018D01*
X-161083Y49069D01*
X-161215Y50117D01*
X-161583Y51108D01*
X-162168Y51987D01*
X-127753Y59862D02*
X-127183Y60752D01*
X-126833Y61749D01*
X-126720Y62800D01*
X-126852Y63848D01*
X-127220Y64838D01*
X-127805Y65718D01*
X-138953Y65662D02*
X-139523Y64772D01*
X-139873Y63776D01*
X-139986Y62725D01*
X-139854Y61677D01*
X-139486Y60686D01*
X-138901Y59807D01*
X126172Y412100D02*
X126742Y412990D01*
X127093Y413987D01*
X127205Y415037D01*
X127074Y416086D01*
X126706Y417076D01*
X126120Y417956D01*
X114972Y417900D02*
X114403Y417010D01*
X114052Y416013D01*
X113940Y414963D01*
X114071Y413914D01*
X114439Y412924D01*
X115025Y412044D01*
X-94027Y267400D02*
X-94596Y266510D01*
X-94947Y265513D01*
X-95060Y264463D01*
X-94928Y263414D01*
X-94560Y262424D01*
X-93975Y261544D01*
X-82827Y261600D02*
X-82257Y262490D01*
X-81907Y263487D01*
X-81794Y264537D01*
X-81925Y265586D01*
X-82294Y266576D01*
X-82879Y267456D01*
X-115100Y431440D02*
X-115990Y432010D01*
X-116987Y432360D01*
X-118037Y432473D01*
X-119086Y432342D01*
X-120076Y431973D01*
X-120956Y431388D01*
X-120900Y420240D02*
X-120010Y419670D01*
X-119013Y419320D01*
X-117963Y419207D01*
X-116914Y419339D01*
X-115924Y419707D01*
X-115044Y420292D01*
X92900Y435400D02*
X92330Y434510D01*
X91980Y433513D01*
X91867Y432463D01*
X91999Y431414D01*
X92367Y430424D01*
X92952Y429544D01*
X104100Y429600D02*
X104670Y430490D01*
X105020Y431487D01*
X105133Y432537D01*
X105001Y433586D01*
X104633Y434576D01*
X104048Y435456D01*
X-85623Y239316D02*
X-86373Y239749D01*
Y238883D01*
X-85623Y239316D01*
X-129563Y419594D02*
X-127437D01*
X-129563Y431405D02*
X-127437D01*
Y419594D02*
Y431405D01*
X-129563Y419594D02*
Y431405D01*
X-46000Y94993D02*
Y165000D01*
X-116000Y94993D02*
X-46000D01*
X-116000D02*
Y165000D01*
X-46000D01*
X-26800Y169310D02*
X-23100D01*
X-26800Y175310D02*
X-23100D01*
X-34100D02*
X-30300D01*
X-34000Y169310D02*
X-30300D01*
X-118129Y203000D02*
Y209000D01*
X-131229Y203000D02*
Y209100D01*
X-123389Y203000D02*
X-118129D01*
X-123369Y209000D02*
X-118129D01*
X-131229Y209100D02*
X-125959D01*
X-131229Y203000D02*
X-126219D01*
X-71110Y187200D02*
Y190900D01*
X-77110Y187200D02*
Y190900D01*
Y179900D02*
Y183700D01*
X-71110Y180000D02*
Y183700D01*
X-133500Y142738D02*
X-127500D01*
X-133500Y155638D02*
X-127400D01*
X-133500Y142738D02*
Y147438D01*
X-127500Y142738D02*
Y147438D01*
X-127400Y150938D02*
Y155638D01*
X-133500Y150938D02*
Y155638D01*
X-139400Y135953D02*
X-135700D01*
X-139400Y129953D02*
X-135700D01*
X-132200D02*
X-128400D01*
X-132200Y135953D02*
X-128500D01*
X-137877Y112236D02*
Y118236D01*
X-150777Y112236D02*
Y118336D01*
X-142577Y112236D02*
X-137877D01*
X-142577Y118236D02*
X-137877D01*
X-150777Y118336D02*
X-146077D01*
X-150777Y112236D02*
X-146077D01*
X-141400Y110362D02*
X-137700D01*
X-141400Y104362D02*
X-137700D01*
X-134200D02*
X-130400D01*
X-134200Y110362D02*
X-130500D01*
X-63325Y82000D02*
X-59625D01*
X-63325Y76000D02*
X-59625D01*
X-56125D02*
X-52325D01*
X-56125Y82000D02*
X-52425D01*
X-92730Y68472D02*
X-86730D01*
X-92730Y81372D02*
X-86630D01*
X-92730Y68472D02*
Y73172D01*
X-86730Y68472D02*
Y73172D01*
X-86630Y76672D02*
Y81372D01*
X-92730Y76672D02*
Y81372D01*
X-108993Y59500D02*
Y65500D01*
X-122093Y59500D02*
Y65600D01*
X-114253Y59500D02*
X-108993D01*
X-114233Y65500D02*
X-108993D01*
X-122093Y65600D02*
X-116823D01*
X-122093Y59500D02*
X-117083D01*
X-76374Y20940D02*
X-70374D01*
X-76374Y33839D02*
X-70274D01*
X-76374Y20940D02*
Y25640D01*
X-70374Y20940D02*
Y25640D01*
X-70274Y29140D02*
Y33839D01*
X-76374Y29140D02*
Y33839D01*
X-85689Y-2586D02*
X-79689D01*
X-85689Y10314D02*
X-79589D01*
X-85689Y-2586D02*
Y2114D01*
X-79689Y-2586D02*
Y2114D01*
X-79589Y5614D02*
Y10314D01*
X-85689Y5614D02*
Y10314D01*
X-30905Y5161D02*
Y9454D01*
X10961D01*
Y-6379D02*
Y9454D01*
X-30766Y-6379D02*
X10961D01*
X-30766D02*
Y-1925D01*
X145676Y89500D02*
X149376D01*
X145676Y95500D02*
X149376D01*
X138376D02*
X142176D01*
X138476Y89500D02*
X142176D01*
X127437Y431405D02*
X129563D01*
X127437Y419594D02*
X129563D01*
X127437D02*
Y431405D01*
X129563Y419594D02*
Y431405D01*
X86695Y174894D02*
Y177020D01*
X98506Y174894D02*
Y177020D01*
X86695Y174894D02*
X98506D01*
X86695Y177020D02*
X98506D01*
X36696Y167752D02*
Y169878D01*
X48507Y167752D02*
Y169878D01*
X36696Y167752D02*
X48507D01*
X36696Y169878D02*
X48507D01*
X78594Y211409D02*
Y213535D01*
X90405Y211409D02*
Y213535D01*
X78594Y211409D02*
X90405D01*
X78594Y213535D02*
X90405D01*
X37010Y212374D02*
X39136D01*
X37010Y200563D02*
X39136D01*
X37010D02*
Y212374D01*
X39136Y200563D02*
Y212374D01*
X-10399Y127316D02*
Y131016D01*
X-4399Y127316D02*
Y131116D01*
Y120116D02*
Y123816D01*
X-10399Y120116D02*
Y123816D01*
X5629Y134247D02*
Y138947D01*
X11728Y134247D02*
Y138947D01*
X11628Y126047D02*
Y130747D01*
X5629Y126047D02*
Y130747D01*
Y138947D02*
X11728D01*
X5629Y126047D02*
X11628D01*
X2702D02*
Y130747D01*
X-3398Y126047D02*
Y130747D01*
X-3298Y134247D02*
Y138947D01*
X2702Y134247D02*
Y138947D01*
X-3398Y126047D02*
X2702D01*
X-3298Y138947D02*
X2702D01*
X19700Y126047D02*
Y130747D01*
X13600Y126047D02*
Y130747D01*
X13700Y134247D02*
Y138947D01*
X19700Y134247D02*
Y138947D01*
X13600Y126047D02*
X19700D01*
X13700Y138947D02*
X19700D01*
X53674Y7752D02*
X57374D01*
X53674Y1752D02*
X57474D01*
X46474D02*
X50174D01*
X46474Y7752D02*
X50174D01*
X-67200Y42888D02*
X-63500D01*
X-67200Y36888D02*
X-63400D01*
X-74400D02*
X-70700D01*
X-74400Y42888D02*
X-70700D01*
X-75146Y49708D02*
Y53251D01*
X-63335Y49708D02*
Y53251D01*
X-75146Y49708D02*
X-63335D01*
X-75146Y53251D02*
X-63335D01*
X-67500Y60862D02*
X-63800D01*
X-67600Y66862D02*
X-63800D01*
X-60300D02*
X-56600D01*
X-60300Y60862D02*
X-56600D01*
X184500Y-13361D02*
Y-9661D01*
X178500Y-13361D02*
Y-9661D01*
Y-20661D02*
Y-16860D01*
X184500Y-20561D02*
Y-16860D01*
X119500Y-13361D02*
Y-9661D01*
X113500Y-13361D02*
Y-9661D01*
Y-20661D02*
Y-16860D01*
X119500Y-20561D02*
Y-16860D01*
X-127500Y210000D02*
X-123800D01*
X-127600Y216000D02*
X-123800D01*
X-120300D02*
X-116600D01*
X-120300Y210000D02*
X-116600D01*
X-109275Y73848D02*
X-105575D01*
X-109275Y67848D02*
X-105475D01*
X-116475D02*
X-112775D01*
X-116475Y73848D02*
X-112775D01*
X-109275Y81000D02*
X-105575D01*
X-109275Y75000D02*
X-105475D01*
X-116475D02*
X-112775D01*
X-116475Y81000D02*
X-112775D01*
X-100428Y65500D02*
X-95418D01*
X-100688Y59400D02*
X-95418D01*
X-108518Y59500D02*
X-103278D01*
X-108518Y65500D02*
X-103258D01*
X-95418Y59400D02*
Y65500D01*
X-108518Y59500D02*
Y65500D01*
X-103440Y76300D02*
Y80000D01*
X-97440Y76300D02*
Y80100D01*
Y69100D02*
Y72800D01*
X-103440Y69100D02*
Y72800D01*
X-112500Y196000D02*
X-108800D01*
X-112600Y202000D02*
X-108800D01*
X-105300D02*
X-101600D01*
X-105300Y196000D02*
X-101600D01*
X-113500Y187000D02*
X-108800D01*
X-113500Y193100D02*
X-108800D01*
X-105300Y193000D02*
X-100600D01*
X-105300Y187000D02*
X-100600D01*
X-113500D02*
Y193100D01*
X-100600Y187000D02*
Y193000D01*
X-45567Y15500D02*
X-41867D01*
X-45667Y21500D02*
X-41867D01*
X-38367D02*
X-34667D01*
X-38367Y15500D02*
X-34667D01*
X-58400D02*
X-54700D01*
X-58500Y21500D02*
X-54700D01*
X-51200D02*
X-47500D01*
X-51200Y15500D02*
X-47500D01*
X205500Y29140D02*
Y32840D01*
X199500Y29140D02*
Y32840D01*
Y21839D02*
Y25640D01*
X205500Y21939D02*
Y25640D01*
X97670Y47605D02*
Y65323D01*
X99637Y67290D01*
X117355D01*
X97670Y47605D02*
X116568D01*
X117355Y48392D02*
Y67290D01*
X108301Y42000D02*
Y43000D01*
Y41000D02*
Y42000D01*
Y41000D02*
X109301Y42000D01*
X107401Y43700D02*
X109301Y42000D01*
X107301Y39800D02*
X107401Y43700D01*
X119501Y40200D02*
Y43800D01*
X117801Y38500D02*
X119501Y40200D01*
X112551Y38500D02*
X117801D01*
X112551Y45500D02*
X117801D01*
X119501Y43800D01*
X109861Y38830D02*
Y45310D01*
X97301Y38500D02*
Y45500D01*
X104051D01*
X97301Y38500D02*
X104051D01*
X106661Y38950D02*
X109861Y42150D01*
X106661Y38950D02*
Y45120D01*
X109701Y42080D01*
X86066Y56466D02*
X88191D01*
X86066Y44655D02*
X88191D01*
X86066D02*
Y56466D01*
X88191Y44655D02*
Y56466D01*
X-77779Y82000D02*
X-74079D01*
X-77779Y76000D02*
X-73979D01*
X-84979D02*
X-81279D01*
X-84979Y82000D02*
X-81279D01*
X-30503Y110268D02*
X-26803D01*
X-30603Y116268D02*
X-26803D01*
X-23303D02*
X-19603D01*
X-23303Y110268D02*
X-19603D01*
X-127500Y158512D02*
Y162212D01*
X-133500Y158412D02*
Y162212D01*
Y165712D02*
Y169412D01*
X-127500Y165712D02*
Y169412D01*
X-90500Y51000D02*
X-86800D01*
X-90600Y57000D02*
X-86800D01*
X-83300D02*
X-79600D01*
X-83300Y51000D02*
X-79600D01*
X-90500Y43414D02*
X-86800D01*
X-90600Y49414D02*
X-86800D01*
X-83300D02*
X-79600D01*
X-83300Y43414D02*
X-79600D01*
X-152300Y52032D02*
X-148600D01*
X-152300Y46032D02*
X-148500D01*
X-159500D02*
X-155800D01*
X-159500Y52032D02*
X-155800D01*
X-92411Y43893D02*
Y47593D01*
X-98411Y43793D02*
Y47593D01*
Y51093D02*
Y54793D01*
X-92411Y51093D02*
Y54793D01*
X-166016Y52032D02*
X-162316D01*
X-166016Y46032D02*
X-162216D01*
X-173216D02*
X-169516D01*
X-173216Y52032D02*
X-169516D01*
X-138753Y59762D02*
X-135053D01*
X-138853Y65762D02*
X-135053D01*
X-131553D02*
X-127853D01*
X-131553Y59762D02*
X-127853D01*
X-105300Y185000D02*
X-100600D01*
X-105300Y178900D02*
X-100600D01*
X-113500Y179000D02*
X-108800D01*
X-113500Y185000D02*
X-108800D01*
X-100600Y178900D02*
Y185000D01*
X-113500Y179000D02*
Y185000D01*
X115072Y418000D02*
X118772D01*
X115072Y412000D02*
X118772D01*
X122272D02*
X126072D01*
X122272Y418000D02*
X125972D01*
X-86627Y261500D02*
X-82927D01*
X-86627Y267500D02*
X-82927D01*
X-93927D02*
X-90127D01*
X-93827Y261500D02*
X-90127D01*
X-121000Y420340D02*
Y424040D01*
X-115000Y420340D02*
Y424040D01*
Y427540D02*
Y431340D01*
X-121000Y427540D02*
Y431240D01*
X100300Y429500D02*
X104000D01*
X100300Y435500D02*
X104000D01*
X93000D02*
X96800D01*
X93100Y429500D02*
X96800D01*
X-113502Y415499D02*
Y410501D01*
X-114502Y409501D01*
X-116501D01*
X-117501Y410501D01*
Y415499D01*
X-119501Y409501D02*
X-121500D01*
X-120500D01*
Y415499D01*
X-119501Y414499D01*
X-128498Y409501D02*
X-124499D01*
X-128498Y413500D01*
Y414499D01*
X-127498Y415499D01*
X-125499D01*
X-124499Y414499D01*
X-47427Y158637D02*
Y153638D01*
X-48426Y152639D01*
X-50426D01*
X-51425Y153638D01*
Y158637D01*
X-57424Y152639D02*
X-53425D01*
X-57424Y156638D01*
Y157637D01*
X-56424Y158637D01*
X-54425D01*
X-53425Y157637D01*
X-18503Y181799D02*
X-17504Y182799D01*
X-15504D01*
X-14505Y181799D01*
Y177801D01*
X-15504Y176801D01*
X-17504D01*
X-18503Y177801D01*
X-20503Y181799D02*
X-21502Y182799D01*
X-23502D01*
X-24501Y181799D01*
Y180800D01*
X-23502Y179800D01*
X-22502D01*
X-23502D01*
X-24501Y178800D01*
Y177801D01*
X-23502Y176801D01*
X-21502D01*
X-20503Y177801D01*
X-103002Y210898D02*
Y204900D01*
X-107000D01*
X-112998D02*
X-109000D01*
X-112998Y208899D01*
Y209898D01*
X-111999Y210898D01*
X-109999D01*
X-109000Y209898D01*
X-61500Y188999D02*
X-60501Y189999D01*
X-58501D01*
X-57502Y188999D01*
Y185001D01*
X-58501Y184001D01*
X-60501D01*
X-61500Y185001D01*
X-67498Y189999D02*
X-65499Y188999D01*
X-63500Y187000D01*
Y185001D01*
X-64499Y184001D01*
X-66499D01*
X-67498Y185001D01*
Y186000D01*
X-66499Y187000D01*
X-63500D01*
X-188001Y181997D02*
X-193999D01*
Y178998D01*
X-192999Y177998D01*
X-191000D01*
X-190000Y178998D01*
Y181997D01*
Y179997D02*
X-188001Y177998D01*
Y172000D02*
Y175998D01*
X-192000Y172000D01*
X-192999D01*
X-193999Y173000D01*
Y174999D01*
X-192999Y175998D01*
X-188001Y170001D02*
X-189001D01*
Y169001D01*
X-188001D01*
Y170001D01*
X-192999Y165002D02*
X-193999Y164002D01*
Y162003D01*
X-192999Y161003D01*
X-192000D01*
X-191000Y162003D01*
X-190000Y161003D01*
X-189001D01*
X-188001Y162003D01*
Y164002D01*
X-189001Y165002D01*
X-190000D01*
X-191000Y164002D01*
X-192000Y165002D01*
X-192999D01*
X-191000Y164002D02*
Y162003D01*
X-171002Y186499D02*
X-170002Y187499D01*
X-168003D01*
X-167003Y186499D01*
Y182501D01*
X-168003Y181501D01*
X-170002D01*
X-171002Y182501D01*
X-173001Y181501D02*
X-175001D01*
X-174001D01*
Y187499D01*
X-173001Y186499D01*
X-178000Y181501D02*
Y182501D01*
X-178999D01*
Y181501D01*
X-178000D01*
X-182998Y186499D02*
X-183998Y187499D01*
X-185997D01*
X-186997Y186499D01*
Y185500D01*
X-185997Y184500D01*
X-186997Y183500D01*
Y182501D01*
X-185997Y181501D01*
X-183998D01*
X-182998Y182501D01*
Y183500D01*
X-183998Y184500D01*
X-182998Y185500D01*
Y186499D01*
X-183998Y184500D02*
X-185997D01*
X-172001Y151497D02*
X-177999D01*
Y148498D01*
X-176999Y147498D01*
X-175000D01*
X-174000Y148498D01*
Y151497D01*
Y149497D02*
X-172001Y147498D01*
Y145499D02*
Y143499D01*
Y144499D01*
X-177999D01*
X-176999Y145499D01*
X-172001Y140500D02*
X-173001D01*
Y139501D01*
X-172001D01*
Y140500D01*
X-176999Y135502D02*
X-177999Y134502D01*
Y132503D01*
X-176999Y131503D01*
X-176000D01*
X-175000Y132503D01*
X-174000Y131503D01*
X-173001D01*
X-172001Y132503D01*
Y134502D01*
X-173001Y135502D01*
X-174000D01*
X-175000Y134502D01*
X-176000Y135502D01*
X-176999D01*
X-175000Y134502D02*
Y132503D01*
X-143500Y127499D02*
X-142501Y128499D01*
X-140501D01*
X-139502Y127499D01*
Y123501D01*
X-140501Y122501D01*
X-142501D01*
X-143500Y123501D01*
X-145500D02*
X-146499Y122501D01*
X-148499D01*
X-149498Y123501D01*
Y127499D01*
X-148499Y128499D01*
X-146499D01*
X-145500Y127499D01*
Y126500D01*
X-146499Y125500D01*
X-149498D01*
X-157002Y112001D02*
Y117999D01*
X-160001D01*
X-161000Y116999D01*
Y115000D01*
X-160001Y114000D01*
X-157002D01*
X-159001D02*
X-161000Y112001D01*
X-165999D02*
Y117999D01*
X-163000Y115000D01*
X-166998D01*
X-136000Y94999D02*
X-135001Y95999D01*
X-133001D01*
X-132002Y94999D01*
Y91001D01*
X-133001Y90001D01*
X-135001D01*
X-136000Y91001D01*
X-141998Y95999D02*
X-138000D01*
Y93000D01*
X-139999Y94000D01*
X-140999D01*
X-141998Y93000D01*
Y91001D01*
X-140999Y90001D01*
X-138999D01*
X-138000Y91001D01*
X-56499Y1652D02*
X-51501D01*
X-50501Y652D01*
Y-1347D01*
X-51501Y-2347D01*
X-56499D01*
X-55499Y-4346D02*
X-56499Y-5346D01*
Y-7345D01*
X-55499Y-8345D01*
X-54500D01*
X-53500Y-7345D01*
Y-6346D01*
Y-7345D01*
X-52500Y-8345D01*
X-51501D01*
X-50501Y-7345D01*
Y-5346D01*
X-51501Y-4346D01*
X-6002Y6346D02*
Y1347D01*
X-7001Y347D01*
X-9001D01*
X-10000Y1347D01*
Y6346D01*
X-12000D02*
X-15998D01*
Y5346D01*
X-12000Y1347D01*
Y347D01*
X24498Y11778D02*
Y17776D01*
X21499D01*
X20499Y16777D01*
Y14777D01*
X21499Y13778D01*
X24498D01*
X22498D02*
X20499Y11778D01*
X14501D02*
X18500D01*
X14501Y15777D01*
Y16777D01*
X15501Y17776D01*
X17500D01*
X18500Y16777D01*
X12502Y11778D02*
X10502D01*
X11502D01*
Y17776D01*
X12502Y16777D01*
X143599Y58465D02*
X144599Y59465D01*
X146598D01*
X147598Y58465D01*
Y54466D01*
X146598Y53467D01*
X144599D01*
X143599Y54466D01*
X141600Y53467D02*
X139600D01*
X140600D01*
Y59465D01*
X141600Y58465D01*
X136601Y53467D02*
Y54466D01*
X135602D01*
Y53467D01*
X136601D01*
X127604D02*
X131603D01*
X127604Y57465D01*
Y58465D01*
X128604Y59465D01*
X130603D01*
X131603Y58465D01*
X130175Y117999D02*
X131175Y118999D01*
X133174D01*
X134174Y117999D01*
Y114001D01*
X133174Y113001D01*
X131175D01*
X130175Y114001D01*
X128176Y117999D02*
X127176Y118999D01*
X125177D01*
X124177Y117999D01*
Y117000D01*
X125177Y116000D01*
X126177D01*
X125177D01*
X124177Y115000D01*
Y114001D01*
X125177Y113001D01*
X127176D01*
X128176Y114001D01*
X122178Y117999D02*
X121178Y118999D01*
X119179D01*
X118179Y117999D01*
Y114001D01*
X119179Y113001D01*
X121178D01*
X122178Y114001D01*
Y117999D01*
X131405Y108499D02*
Y103501D01*
X130405Y102501D01*
X128406D01*
X127406Y103501D01*
Y108499D01*
X121408D02*
X125407D01*
Y105500D01*
X123408Y106500D01*
X122408D01*
X121408Y105500D01*
Y103501D01*
X122408Y102501D01*
X124407D01*
X125407Y103501D01*
X130999Y95999D02*
X131998Y96999D01*
X133998D01*
X134997Y95999D01*
Y92001D01*
X133998Y91001D01*
X131998D01*
X130999Y92001D01*
X125001Y91001D02*
X128999D01*
X125001Y95000D01*
Y95999D01*
X126000Y96999D01*
X128000D01*
X128999Y95999D01*
X123001Y92001D02*
X122002Y91001D01*
X120002D01*
X119003Y92001D01*
Y95999D01*
X120002Y96999D01*
X122002D01*
X123001Y95999D01*
Y95000D01*
X122002Y94000D01*
X119003D01*
X133500Y135499D02*
X134500Y136499D01*
X136499D01*
X137499Y135499D01*
Y131501D01*
X136499Y130501D01*
X134500D01*
X133500Y131501D01*
X131501Y130501D02*
X129501D01*
X130501D01*
Y136499D01*
X131501Y135499D01*
X170000Y124499D02*
X173999D01*
Y121500D01*
X171999D01*
X173999D01*
Y118501D01*
X168001D02*
X166001D01*
X167001D01*
Y124499D01*
X168001Y123499D01*
X167999Y85999D02*
X168998Y86999D01*
X170998D01*
X171997Y85999D01*
Y82001D01*
X170998Y81001D01*
X168998D01*
X167999Y82001D01*
X162001Y81001D02*
X165999D01*
X162001Y85000D01*
Y85999D01*
X163000Y86999D01*
X165000D01*
X165999Y85999D01*
X160001D02*
X159002Y86999D01*
X157002D01*
X156003Y85999D01*
Y85000D01*
X157002Y84000D01*
X156003Y83000D01*
Y82001D01*
X157002Y81001D01*
X159002D01*
X160001Y82001D01*
Y83000D01*
X159002Y84000D01*
X160001Y85000D01*
Y85999D01*
X159002Y84000D02*
X157002D01*
X171999Y107499D02*
X172998Y108499D01*
X174998D01*
X175997Y107499D01*
Y103501D01*
X174998Y102501D01*
X172998D01*
X171999Y103501D01*
X166001Y102501D02*
X169999D01*
X166001Y106500D01*
Y107499D01*
X167000Y108499D01*
X169000D01*
X169999Y107499D01*
X164001Y108499D02*
X160003D01*
Y107499D01*
X164001Y103501D01*
Y102501D01*
X133670Y438499D02*
Y433501D01*
X132670Y432501D01*
X130671D01*
X129671Y433501D01*
Y438499D01*
X127672Y432501D02*
X125673D01*
X126672D01*
Y438499D01*
X127672Y437499D01*
X122674D02*
X121674Y438499D01*
X119675D01*
X118675Y437499D01*
Y436500D01*
X119675Y435500D01*
X120674D01*
X119675D01*
X118675Y434500D01*
Y433501D01*
X119675Y432501D01*
X121674D01*
X122674Y433501D01*
X104998Y405999D02*
Y401001D01*
X103998Y400001D01*
X101999D01*
X100999Y401001D01*
Y405999D01*
X99000Y400001D02*
X97000D01*
X98000D01*
Y405999D01*
X99000Y404999D01*
X94001Y400001D02*
X92002D01*
X93002D01*
Y405999D01*
X94001Y404999D01*
X106998Y-30298D02*
X105998Y-31298D01*
X103999D01*
X102999Y-30298D01*
Y-26300D01*
X103999Y-25300D01*
X105998D01*
X106998Y-26300D01*
X112996Y-31298D02*
X110996Y-30298D01*
X108997Y-28299D01*
Y-26300D01*
X109997Y-25300D01*
X111996D01*
X112996Y-26300D01*
Y-27299D01*
X111996Y-28299D01*
X108997D01*
X114995Y-30298D02*
X115995Y-31298D01*
X117994D01*
X118994Y-30298D01*
Y-26300D01*
X117994Y-25300D01*
X115995D01*
X114995Y-26300D01*
Y-30298D01*
X191002Y-23D02*
X192002Y977D01*
X194001D01*
X195001Y-23D01*
Y-4021D01*
X194001Y-5021D01*
X192002D01*
X191002Y-4021D01*
X185004Y977D02*
X189003D01*
Y-2022D01*
X187004Y-1022D01*
X186004D01*
X185004Y-2022D01*
Y-4021D01*
X186004Y-5021D01*
X188003D01*
X189003Y-4021D01*
X183005D02*
X182005Y-5021D01*
X180006D01*
X179006Y-4021D01*
Y-23D01*
X180006Y977D01*
X182005D01*
X183005Y-23D01*
Y-1022D01*
X182005Y-2022D01*
X179006D01*
X192998Y12202D02*
X191998Y11202D01*
X189999D01*
X188999Y12202D01*
Y16200D01*
X189999Y17200D01*
X191998D01*
X192998Y16200D01*
X198996Y11202D02*
X194997D01*
Y14201D01*
X196996Y13201D01*
X197996D01*
X198996Y14201D01*
Y16200D01*
X197996Y17200D01*
X195997D01*
X194997Y16200D01*
X200995Y12202D02*
X201995Y11202D01*
X203994D01*
X204994Y12202D01*
Y13201D01*
X203994Y14201D01*
X204994Y15201D01*
Y16200D01*
X203994Y17200D01*
X201995D01*
X200995Y16200D01*
Y15201D01*
X201995Y14201D01*
X200995Y13201D01*
Y12202D01*
X201995Y14201D02*
X203994D01*
X126499Y396501D02*
X127499Y395502D01*
Y393502D01*
X126499Y392503D01*
X122501D01*
X121501Y393502D01*
Y395502D01*
X122501Y396501D01*
X127499Y402499D02*
Y398501D01*
X124500D01*
X125500Y400500D01*
Y401500D01*
X124500Y402499D01*
X122501D01*
X121501Y401500D01*
Y399500D01*
X122501Y398501D01*
X127499Y404499D02*
Y408497D01*
X126499D01*
X122501Y404499D01*
X121501D01*
X-102001Y430499D02*
X-101002Y431499D01*
X-99002D01*
X-98003Y430499D01*
Y426501D01*
X-99002Y425501D01*
X-101002D01*
X-102001Y426501D01*
X-107999Y431499D02*
X-104001D01*
Y428500D01*
X-106000Y429500D01*
X-107000D01*
X-107999Y428500D01*
Y426501D01*
X-107000Y425501D01*
X-105000D01*
X-104001Y426501D01*
X-113997Y431499D02*
X-111998Y430499D01*
X-109999Y428500D01*
Y426501D01*
X-110998Y425501D01*
X-112998D01*
X-113997Y426501D01*
Y427500D01*
X-112998Y428500D01*
X-109999D01*
X84501Y442501D02*
X83502Y441501D01*
X81502D01*
X80503Y442501D01*
Y446499D01*
X81502Y447499D01*
X83502D01*
X84501Y446499D01*
X90499Y441501D02*
X86501D01*
Y444500D01*
X88500Y443500D01*
X89500D01*
X90499Y444500D01*
Y446499D01*
X89500Y447499D01*
X87500D01*
X86501Y446499D01*
X96497Y441501D02*
X92499D01*
Y444500D01*
X94498Y443500D01*
X95498D01*
X96497Y444500D01*
Y446499D01*
X95498Y447499D01*
X93498D01*
X92499Y446499D01*
X-103525Y274001D02*
X-104525Y275001D01*
Y277000D01*
X-103525Y278000D01*
X-99526D01*
X-98527Y277000D01*
Y275001D01*
X-99526Y274001D01*
X-104525Y268003D02*
Y272002D01*
X-101526D01*
X-102525Y270003D01*
Y269003D01*
X-101526Y268003D01*
X-99526D01*
X-98527Y269003D01*
Y271002D01*
X-99526Y272002D01*
X-98527Y263005D02*
X-104525D01*
X-101526Y266004D01*
Y262005D01*
X57876Y16290D02*
X58876Y17289D01*
X60875D01*
X61875Y16290D01*
Y12291D01*
X60875Y11291D01*
X58876D01*
X57876Y12291D01*
X51878Y17289D02*
X55877D01*
Y14290D01*
X53878Y15290D01*
X52878D01*
X51878Y14290D01*
Y12291D01*
X52878Y11291D01*
X54877D01*
X55877Y12291D01*
X49879Y16290D02*
X48879Y17289D01*
X46880D01*
X45880Y16290D01*
Y15290D01*
X46880Y14290D01*
X47879D01*
X46880D01*
X45880Y13291D01*
Y12291D01*
X46880Y11291D01*
X48879D01*
X49879Y12291D01*
X38506Y2338D02*
X39506Y3337D01*
X41505D01*
X42505Y2338D01*
Y-1661D01*
X41505Y-2661D01*
X39506D01*
X38506Y-1661D01*
X32508Y3337D02*
X36507D01*
Y338D01*
X34508Y1338D01*
X33508D01*
X32508Y338D01*
Y-1661D01*
X33508Y-2661D01*
X35507D01*
X36507Y-1661D01*
X26510Y-2661D02*
X30509D01*
X26510Y1338D01*
Y2338D01*
X27510Y3337D01*
X29509D01*
X30509Y2338D01*
X-122029Y210898D02*
Y209898D01*
X-124029Y207899D01*
X-126028Y209898D01*
Y210898D01*
X-124029Y207899D02*
Y204900D01*
X-128027D02*
X-130027D01*
X-129027D01*
Y210898D01*
X-128027Y209898D01*
X-84034Y268695D02*
Y263697D01*
X-85033Y262697D01*
X-87033D01*
X-88032Y263697D01*
Y268695D01*
X-90032Y262697D02*
X-92031D01*
X-91031D01*
Y268695D01*
X-90032Y267696D01*
X-95030D02*
X-96030Y268695D01*
X-98029D01*
X-99029Y267696D01*
Y263697D01*
X-98029Y262697D01*
X-96030D01*
X-95030Y263697D01*
Y267696D01*
X24077Y142487D02*
Y148485D01*
X21078D01*
X20078Y147485D01*
Y145486D01*
X21078Y144486D01*
X24077D01*
X22078D02*
X20078Y142487D01*
X18079Y147485D02*
X17079Y148485D01*
X15080D01*
X14080Y147485D01*
Y146485D01*
X15080Y145486D01*
X16080D01*
X15080D01*
X14080Y144486D01*
Y143486D01*
X15080Y142487D01*
X17079D01*
X18079Y143486D01*
X72372Y50221D02*
Y56219D01*
X69373D01*
X68373Y55219D01*
Y53220D01*
X69373Y52220D01*
X72372D01*
X70372D02*
X68373Y50221D01*
X66373Y55219D02*
X65374Y56219D01*
X63375D01*
X62375Y55219D01*
Y54220D01*
X63375Y53220D01*
X64374D01*
X63375D01*
X62375Y52220D01*
Y51221D01*
X63375Y50221D01*
X65374D01*
X66373Y51221D01*
X60375Y50221D02*
Y51221D01*
X59376D01*
Y50221D01*
X60375D01*
X51378D02*
X55377D01*
X51378Y54220D01*
Y55219D01*
X52378Y56219D01*
X54377D01*
X55377Y55219D01*
X7077Y142487D02*
Y148485D01*
X4078D01*
X3078Y147485D01*
Y145486D01*
X4078Y144486D01*
X7077D01*
X5078D02*
X3078Y142487D01*
X-2920D02*
X1079D01*
X-2920Y146485D01*
Y147485D01*
X-1920Y148485D01*
X79D01*
X1079Y147485D01*
X72372Y39001D02*
Y44999D01*
X69373D01*
X68373Y43999D01*
Y42000D01*
X69373Y41000D01*
X72372D01*
X70372D02*
X68373Y39001D01*
X62375D02*
X66373D01*
X62375Y43000D01*
Y43999D01*
X63375Y44999D01*
X65374D01*
X66373Y43999D01*
X60375Y39001D02*
Y40001D01*
X59376D01*
Y39001D01*
X60375D01*
X51378D02*
X55377D01*
X51378Y43000D01*
Y43999D01*
X52378Y44999D01*
X54377D01*
X55377Y43999D01*
X14077Y142487D02*
Y148485D01*
X11078D01*
X10078Y147485D01*
Y145486D01*
X11078Y144486D01*
X14077D01*
X12078D02*
X10078Y142487D01*
X8079D02*
X6080D01*
X7079D01*
Y148485D01*
X8079Y147485D01*
X89003Y60959D02*
Y64958D01*
X90003Y65957D01*
X92002D01*
X93002Y64958D01*
Y60959D01*
X92002Y59960D01*
X90003D01*
X91003Y61959D02*
X89003Y59960D01*
X90003D02*
X89003Y60959D01*
X87004Y59960D02*
X85005D01*
X86004D01*
Y65957D01*
X87004Y64958D01*
X82006Y59960D02*
Y60959D01*
X81006D01*
Y59960D01*
X82006D01*
X73008D02*
X77007D01*
X73008Y63958D01*
Y64958D01*
X74008Y65957D01*
X76007D01*
X77007Y64958D01*
X141402Y45999D02*
Y40001D01*
X138403D01*
X137403Y41001D01*
Y44999D01*
X138403Y45999D01*
X141402D01*
X135404Y40001D02*
X133404D01*
X134404D01*
Y45999D01*
X135404Y44999D01*
X130405Y40001D02*
Y41001D01*
X129406D01*
Y40001D01*
X130405D01*
X121408D02*
X125407D01*
X121408Y44000D01*
Y44999D01*
X122408Y45999D01*
X124407D01*
X125407Y44999D01*
X-75501Y-13701D02*
X-74502Y-12701D01*
X-72502D01*
X-71503Y-13701D01*
Y-17699D01*
X-72502Y-18699D01*
X-74502D01*
X-75501Y-17699D01*
X-81499Y-18699D02*
X-77501D01*
X-81499Y-14700D01*
Y-13701D01*
X-80500Y-12701D01*
X-78500D01*
X-77501Y-13701D01*
X-87497Y-18699D02*
X-83499D01*
X-87497Y-14700D01*
Y-13701D01*
X-86498Y-12701D01*
X-84498D01*
X-83499Y-13701D01*
X-25231Y124806D02*
X-24231Y125805D01*
X-22232D01*
X-21232Y124806D01*
Y120807D01*
X-22232Y119807D01*
X-24231D01*
X-25231Y120807D01*
X-30229Y119807D02*
Y125805D01*
X-27230Y122806D01*
X-31229D01*
X-3899Y140706D02*
X-2899Y141706D01*
X-900D01*
X100Y140706D01*
Y136708D01*
X-900Y135708D01*
X-2899D01*
X-3899Y136708D01*
X-9897Y135708D02*
X-5898D01*
X-9897Y139707D01*
Y140706D01*
X-8897Y141706D01*
X-6898D01*
X-5898Y140706D01*
X126177Y78800D02*
Y72802D01*
X123178D01*
X122178Y73802D01*
Y74801D01*
X123178Y75801D01*
X126177D01*
X123178D01*
X122178Y76801D01*
Y77800D01*
X123178Y78800D01*
X126177D01*
X117179Y72802D02*
X119179D01*
X120178Y73802D01*
Y75801D01*
X119179Y76801D01*
X117179D01*
X116180Y75801D01*
Y74801D01*
X120178D01*
X111181Y72802D02*
X113181D01*
X114180Y73802D01*
Y75801D01*
X113181Y76801D01*
X111181D01*
X110182Y75801D01*
Y74801D01*
X114180D01*
X108182Y70803D02*
Y76801D01*
X105183D01*
X104184Y75801D01*
Y73802D01*
X105183Y72802D01*
X108182D01*
X102184D02*
X100185D01*
X101185D01*
Y78800D01*
X102184Y77800D01*
X97186Y72802D02*
Y73802D01*
X96186D01*
Y72802D01*
X97186D01*
X88189D02*
X92188D01*
X88189Y76801D01*
Y77800D01*
X89188Y78800D01*
X91188D01*
X92188Y77800D01*
D12*
X-146500Y46000D02*
X-147069Y45110D01*
X-147284Y44076D01*
X-147119Y43033D01*
X-146595Y42116D01*
X-138001Y42222D02*
X-137488Y43105D01*
X-137310Y44111D01*
X-137487Y45116D01*
X-138000Y46000D01*
X-49504Y-11300D02*
X-48614Y-11869D01*
X-47580Y-12084D01*
X-46537Y-11919D01*
X-45620Y-11395D01*
X-45726Y-2801D02*
X-46609Y-2288D01*
X-47615Y-2110D01*
X-48620Y-2287D01*
X-49504Y-2800D01*
X121500Y49060D02*
X122390Y48492D01*
X123424Y48276D01*
X124467Y48441D01*
X125384Y48965D01*
X125278Y57559D02*
X124395Y58072D01*
X123389Y58251D01*
X122383Y58073D01*
X121500Y57560D01*
X134500Y102859D02*
X135390Y102291D01*
X136424Y102075D01*
X137467Y102240D01*
X138384Y102764D01*
X138278Y111358D02*
X137395Y111871D01*
X136389Y112050D01*
X135383Y111872D01*
X134500Y111359D01*
X157900Y100500D02*
X157010Y101069D01*
X155976Y101284D01*
X154933Y101119D01*
X154016Y100595D01*
X154122Y92001D02*
X155005Y91488D01*
X156011Y91310D01*
X157017Y91487D01*
X157900Y92000D01*
X87758Y196989D02*
X88272Y197872D01*
X88450Y198878D01*
X88272Y199883D01*
X87760Y200767D01*
X79260D02*
X78691Y199877D01*
X78475Y198843D01*
X78641Y197800D01*
X79165Y196883D01*
X54300Y204690D02*
X54813Y205574D01*
X54991Y206579D01*
X54813Y207585D01*
X54301Y208469D01*
X45801D02*
X45232Y207578D01*
X45017Y206545D01*
X45182Y205502D01*
X45706Y204585D01*
X67601Y176831D02*
X66718Y177345D01*
X65712Y177523D01*
X64706Y177345D01*
X63823Y176833D01*
Y168333D02*
X64713Y167764D01*
X65747Y167548D01*
X66790Y167713D01*
X67706Y168238D01*
X21722Y203210D02*
X22605Y202697D01*
X23611Y202518D01*
X24617Y202696D01*
X25500Y203209D01*
Y211709D02*
X24610Y212277D01*
X23576Y212493D01*
X22533Y212328D01*
X21616Y211804D01*
X76801Y182262D02*
X76288Y181379D01*
X76110Y180374D01*
X76287Y179368D01*
X76800Y178484D01*
X85300D02*
X85869Y179374D01*
X86084Y180408D01*
X85919Y181451D01*
X85395Y182368D01*
X90799Y163973D02*
X91312Y164856D01*
X91490Y165862D01*
X91313Y166868D01*
X90800Y167751D01*
X82300D02*
X81731Y166861D01*
X81516Y165827D01*
X81681Y164784D01*
X82205Y163867D01*
X52278Y180341D02*
X51395Y180854D01*
X50389Y181033D01*
X49384Y180855D01*
X48500Y180342D01*
Y171842D02*
X49390Y171274D01*
X50424Y171058D01*
X51467Y171223D01*
X52384Y171747D01*
X73983Y210001D02*
X74866Y209488D01*
X75872Y209310D01*
X76877Y209487D01*
X77761Y210000D01*
Y218500D02*
X76871Y219069D01*
X75837Y219284D01*
X74794Y219119D01*
X73877Y218595D01*
X30278Y171286D02*
X29395Y171799D01*
X28389Y171978D01*
X27384Y171800D01*
X26500Y171287D01*
Y162787D02*
X27390Y162219D01*
X28424Y162003D01*
X29467Y162168D01*
X30384Y162692D01*
X-122554Y75023D02*
X-121671Y74510D01*
X-120665Y74331D01*
X-119659Y74509D01*
X-118776Y75021D01*
Y83521D02*
X-119666Y84090D01*
X-120699Y84306D01*
X-121742Y84141D01*
X-122659Y83616D01*
X-124659Y208036D02*
X-123597Y209098D01*
X-125759Y209136D02*
X-124659Y208036D01*
X-124769Y204086D02*
X-123671Y202988D01*
X-125882Y202973D02*
X-124769Y204086D01*
X-115523Y64536D02*
X-114461Y65598D01*
X-116623Y65636D02*
X-115523Y64536D01*
X-115633Y60586D02*
X-114535Y59488D01*
X-116746Y59473D02*
X-115633Y60586D01*
X-138123Y42100D02*
X-138001Y42222D01*
X-146500Y46000D02*
X-143300D01*
X-146595Y42100D02*
X-143300D01*
X-141100D02*
X-138123D01*
X-141100Y46000D02*
X-138000D01*
X-36000Y8372D02*
Y11772D01*
X-32000Y8272D02*
Y11772D01*
Y2572D02*
Y5972D01*
X-36000Y2572D02*
Y6072D01*
Y11772D02*
X-32000D01*
X-36000Y2572D02*
X-32000D01*
X-45726Y-2801D02*
X-45604Y-2923D01*
X-49504Y-11300D02*
Y-8100D01*
X-45604Y-11395D02*
Y-8100D01*
Y-5900D02*
Y-2923D01*
X-49504Y-5900D02*
Y-2800D01*
X-59152Y-15700D02*
Y-12300D01*
X-55152Y-15800D02*
Y-12300D01*
Y-21500D02*
Y-18100D01*
X-59152Y-21500D02*
Y-18000D01*
Y-12300D02*
X-55152D01*
X-59152Y-21500D02*
X-55152D01*
X125278Y57559D02*
X125400Y57437D01*
X121500Y49060D02*
Y52260D01*
X125400Y48965D02*
Y52260D01*
Y54460D02*
Y57437D01*
X121500Y54460D02*
Y57560D01*
X138278Y111358D02*
X138400Y111236D01*
X134500Y102859D02*
Y106059D01*
X138400Y102764D02*
Y106059D01*
Y108259D02*
Y111236D01*
X134500Y108259D02*
Y111359D01*
X154000Y92123D02*
X154122Y92001D01*
X157900Y97300D02*
Y100500D01*
X154000Y97300D02*
Y100595D01*
Y92123D02*
Y95100D01*
X157900Y92000D02*
Y95100D01*
X84660Y200767D02*
X87760D01*
X84660Y196867D02*
X87637D01*
X79165D02*
X82460D01*
X79260Y200767D02*
X82460D01*
X87637Y196867D02*
X87758Y196989D01*
X72941Y209500D02*
Y212900D01*
X68941Y209500D02*
Y213000D01*
Y215300D02*
Y218700D01*
X72941Y215200D02*
Y218700D01*
X68941Y209500D02*
X72941D01*
X68941Y218700D02*
X72941D01*
X51201Y208469D02*
X54301D01*
X51201Y204569D02*
X54178D01*
X45706D02*
X49001D01*
X45801Y208469D02*
X49001D01*
X54178Y204569D02*
X54300Y204690D01*
X63823Y173733D02*
Y176833D01*
X67723Y173733D02*
Y176709D01*
Y168238D02*
Y171533D01*
X63823Y168333D02*
Y171533D01*
X67601Y176831D02*
X67723Y176709D01*
X75300Y219500D02*
Y223500D01*
X66100Y219500D02*
Y223500D01*
X71800Y219500D02*
X75300D01*
X71900Y223500D02*
X75300D01*
X66100D02*
X69600D01*
X66100Y219500D02*
X69500D01*
X54500Y167833D02*
Y171833D01*
X63700Y167833D02*
Y171833D01*
X54500D02*
X58000D01*
X54500Y167833D02*
X57900D01*
X60200D02*
X63700D01*
X60300Y171833D02*
X63700D01*
X25500Y203209D02*
Y206309D01*
X21600Y203332D02*
Y206309D01*
Y208509D02*
Y211804D01*
X25500Y208509D02*
Y211709D01*
X21600Y203332D02*
X21722Y203210D01*
X76800Y178484D02*
X79900D01*
X76923Y182384D02*
X79900D01*
X82100D02*
X85395D01*
X82100Y178484D02*
X85300D01*
X76801Y182262D02*
X76923Y182384D01*
X56264Y219500D02*
Y223500D01*
X65464Y219500D02*
Y223500D01*
X56264D02*
X59764D01*
X56264Y219500D02*
X59664D01*
X61964D02*
X65464D01*
X62064Y223500D02*
X65464D01*
X87700Y167751D02*
X90800D01*
X87700Y163851D02*
X90677D01*
X82205D02*
X85500D01*
X82300Y167751D02*
X85500D01*
X90677Y163851D02*
X90799Y163973D01*
X31773Y171287D02*
X35773D01*
X31773Y162087D02*
X35773D01*
Y167787D02*
Y171287D01*
X31773Y167887D02*
Y171287D01*
Y162087D02*
Y165587D01*
X35773Y162087D02*
Y165487D01*
X26500Y203209D02*
X30500D01*
X26500Y212409D02*
X30500D01*
X26500Y203209D02*
Y206709D01*
X30500Y203209D02*
Y206609D01*
Y208909D02*
Y212409D01*
X26500Y209009D02*
Y212409D01*
X48500Y177242D02*
Y180342D01*
X52400Y177242D02*
Y180219D01*
Y171747D02*
Y175042D01*
X48500Y171842D02*
Y175042D01*
X52278Y180341D02*
X52400Y180219D01*
X87760Y201000D02*
Y205000D01*
X78560Y201000D02*
Y205000D01*
X84260Y201000D02*
X87760D01*
X84360Y205000D02*
X87760D01*
X78560D02*
X82060D01*
X78560Y201000D02*
X81960D01*
X81800Y177571D02*
X85800D01*
X81800Y168371D02*
X85800D01*
Y174071D02*
Y177571D01*
X81800Y174171D02*
Y177571D01*
Y168371D02*
Y171871D01*
X85800Y168371D02*
Y171771D01*
X53500Y172929D02*
Y176929D01*
X62700Y172929D02*
Y176929D01*
X53500D02*
X57000D01*
X53500Y172929D02*
X56900D01*
X59200D02*
X62700D01*
X59300Y176929D02*
X62700D01*
X58705Y218700D02*
X62705D01*
X58705Y209500D02*
X62705D01*
Y215200D02*
Y218700D01*
X58705Y215300D02*
Y218700D01*
Y209500D02*
Y213000D01*
X62705Y209500D02*
Y212900D01*
X77761Y210000D02*
Y213100D01*
X73861Y210123D02*
Y213100D01*
Y215300D02*
Y218595D01*
X77761Y215300D02*
Y218500D01*
X73861Y210123D02*
X73983Y210001D01*
X26500Y168187D02*
Y171287D01*
X30400Y168187D02*
Y171164D01*
Y162692D02*
Y165987D01*
X26500Y162787D02*
Y165987D01*
X30278Y171286D02*
X30400Y171164D01*
X-118776Y75021D02*
Y78121D01*
X-122676Y75145D02*
Y78121D01*
Y80321D02*
Y83616D01*
X-118776Y80321D02*
Y83521D01*
X-122676Y75145D02*
X-122554Y75023D01*
X77941Y173529D02*
Y177529D01*
X68741Y173529D02*
Y177529D01*
X74441Y173529D02*
X77941D01*
X74541Y177529D02*
X77941D01*
X68741D02*
X72241D01*
X68741Y173529D02*
X72141D01*
X77000Y167833D02*
Y171833D01*
X67800Y167833D02*
Y171833D01*
X73500Y167833D02*
X77000D01*
X73600Y171833D02*
X77000D01*
X67800D02*
X71300D01*
X67800Y167833D02*
X71200D01*
X-101878Y64414D02*
X-100765Y65527D01*
X-102977Y65512D02*
X-101878Y64414D01*
X-101988Y60464D02*
X-100888Y59364D01*
X-103050Y59402D02*
X-101988Y60464D01*
X-54211Y-16500D02*
Y-12500D01*
X-45011Y-16500D02*
Y-12500D01*
X-54211D02*
X-50712D01*
X-54211Y-16500D02*
X-50811D01*
X-48511D02*
X-45011D01*
X-48412Y-12500D02*
X-45011D01*
X89601Y40000D02*
Y44000D01*
X80401Y40000D02*
Y44000D01*
X86101Y40000D02*
X89601D01*
X86201Y44000D02*
X89601D01*
X80401D02*
X83901D01*
X80401Y40000D02*
X83801D01*
X75500Y39820D02*
X79500D01*
X75500Y49020D02*
X79500D01*
X75500Y39820D02*
Y43320D01*
X79500Y39820D02*
Y43220D01*
Y45520D02*
Y49020D01*
X75500Y45620D02*
Y49020D01*
Y49820D02*
X79500D01*
X75500Y59020D02*
X79500D01*
X75500Y49820D02*
Y53320D01*
X79500Y49820D02*
Y53220D01*
Y55520D02*
Y59020D01*
X75500Y55620D02*
Y59020D01*
X-98746Y43061D02*
Y47061D01*
X-107946Y43061D02*
Y47061D01*
X-102246Y43061D02*
X-98746D01*
X-102146Y47061D02*
X-98746D01*
X-107946D02*
X-104446D01*
X-107946Y43061D02*
X-104546D01*
X-130310Y173500D02*
Y177500D01*
X-121110Y173500D02*
Y177500D01*
X-130310D02*
X-126810D01*
X-130310Y173500D02*
X-126910D01*
X-124610D02*
X-121110D01*
X-124510Y177500D02*
X-121110D01*
X-115021Y196980D02*
Y201480D01*
X-119021Y201480D02*
X-115021Y201480D01*
X-129521Y186480D02*
Y192480D01*
X-124521Y199480D02*
X-122021Y199480D01*
X-124521Y179480D02*
X-122021Y179480D01*
X-116521Y186480D02*
X-116521Y192480D01*
X126407Y50449D02*
X121075D01*
X123741Y53115D02*
Y47783D01*
D13*
X122500Y190748D02*
Y214248D01*
X114500Y190748D02*
X122500D01*
X114500Y214248D02*
X122500D01*
X114500Y190748D02*
Y214248D01*
D15*
X161101Y113700D02*
Y127700D01*
X137601Y113700D02*
X137601Y127700D01*
X153601Y113700D02*
X161101Y113700D01*
X153601Y127700D02*
X161101D01*
X137601Y127700D02*
X145101Y127700D01*
X137601Y113700D02*
X145101D01*
D79*
X-64922Y28183D02*
X-65504Y28765D01*
X-66086Y28183D01*
X-65504Y27601D01*
X-64922Y28183D01*
X143179Y128907D02*
X142597Y129489D01*
X142015Y128907D01*
X142597Y128324D01*
X143179Y128907D01*
X156586Y111156D02*
X156004Y111739D01*
X155422Y111156D01*
X156004Y110574D01*
X156586Y111156D01*
X-67680Y29508D02*
X-63320D01*
X-67680D02*
Y36108D01*
X-67680D02*
X-63320D01*
Y29508D02*
Y36108D01*
X140421Y130231D02*
X144781D01*
X140421D02*
Y136831D01*
X140421D02*
X144781D01*
Y130231D02*
Y136831D01*
X153820Y109832D02*
X158180D01*
Y103232D02*
Y109832D01*
X153820Y103232D02*
X158180D01*
X153820D02*
Y109832D01*
X-123021Y196980D02*
X-122021D01*
X-123021Y194980D02*
Y196980D01*
X-124021Y181980D02*
X-123021Y181980D01*
Y183980D01*
X-123022Y191980D02*
Y194980D01*
X-123022Y186980D02*
X-123022Y183980D01*
X-127022Y186980D02*
X-119022Y186980D01*
X-127022Y191980D02*
X-119022Y191980D01*
X-127022Y188480D02*
Y190480D01*
Y188480D02*
X-119022Y188480D01*
Y190480D01*
X-127022Y190480D02*
X-119022Y190480D01*
D157*
X-163126Y174625D02*
X-163864Y175051D01*
Y174198D01*
X-163126Y174625D01*
X11378Y-24118D02*
X10640Y-23692D01*
Y-24544D01*
X11378Y-24118D01*
M02*
