G04*
G04 #@! TF.GenerationSoftware,Altium Limited,Altium Designer,20.1.11 (218)*
G04*
G04 Layer_Color=8388736*
%FSLAX25Y25*%
%MOIN*%
G70*
G04*
G04 #@! TF.SameCoordinates,1E5C8DF0-0C21-4807-87EA-DBAC22A10C90*
G04*
G04*
G04 #@! TF.FilePolarity,Negative*
G04*
G01*
G75*
%ADD40R,0.06800X0.05800*%
%ADD41O,0.02099X0.05300*%
%ADD42R,0.02099X0.05300*%
%ADD43R,0.05800X0.06800*%
%ADD44R,0.03162X0.04737*%
%ADD45R,0.03162X0.07493*%
%ADD46R,0.04737X0.11824*%
%ADD47R,0.06312X0.06312*%
%ADD48R,0.03353X0.03550*%
%ADD49R,0.02684X0.03550*%
%ADD50R,0.04300X0.04600*%
%ADD51R,0.04600X0.04300*%
G04:AMPARAMS|DCode=52|XSize=47.37mil|YSize=74.93mil|CornerRadius=0mil|HoleSize=0mil|Usage=FLASHONLY|Rotation=315.000|XOffset=0mil|YOffset=0mil|HoleType=Round|Shape=Rectangle|*
%AMROTATEDRECTD52*
4,1,4,-0.04324,-0.00974,0.00974,0.04324,0.04324,0.00974,-0.00974,-0.04324,-0.04324,-0.00974,0.0*
%
%ADD52ROTATEDRECTD52*%

%ADD53R,0.07493X0.04737*%
%ADD54R,0.03800X0.03100*%
%ADD55R,0.03300X0.02800*%
%ADD56R,0.02800X0.03300*%
%ADD57O,0.05300X0.02099*%
%ADD58R,0.05300X0.02099*%
%ADD59R,0.08674X0.18517*%
%ADD60R,0.04934X0.03359*%
%ADD61R,0.03359X0.04934*%
%ADD62R,0.04461X0.04658*%
%ADD63R,0.03100X0.03800*%
%ADD64C,0.02368*%
%ADD65P,0.22514X8X22.5*%
%ADD66C,0.06706*%
%ADD67R,0.06706X0.06706*%
G04:AMPARAMS|DCode=68|XSize=8mil|YSize=8mil|CornerRadius=0mil|HoleSize=0mil|Usage=FLASHONLY|Rotation=90.000|XOffset=0mil|YOffset=0mil|HoleType=Round|Shape=RoundedRectangle|*
%AMROUNDEDRECTD68*
21,1,0.00800,0.00800,0,0,90.0*
21,1,0.00800,0.00800,0,0,90.0*
1,1,0.00000,0.00400,0.00400*
1,1,0.00000,0.00400,-0.00400*
1,1,0.00000,-0.00400,-0.00400*
1,1,0.00000,-0.00400,0.00400*
%
%ADD68ROUNDEDRECTD68*%
%ADD69C,0.07887*%
%ADD70R,0.07887X0.07887*%
%ADD71C,0.07099*%
%ADD72C,0.06706*%
%ADD73C,0.00800*%
G04:AMPARAMS|DCode=74|XSize=126.11mil|YSize=67.06mil|CornerRadius=18.76mil|HoleSize=0mil|Usage=FLASHONLY|Rotation=90.000|XOffset=0mil|YOffset=0mil|HoleType=Round|Shape=RoundedRectangle|*
%AMROUNDEDRECTD74*
21,1,0.12611,0.02953,0,0,90.0*
21,1,0.08858,0.06706,0,0,90.0*
1,1,0.03753,0.01476,0.04429*
1,1,0.03753,0.01476,-0.04429*
1,1,0.03753,-0.01476,-0.04429*
1,1,0.03753,-0.01476,0.04429*
%
%ADD74ROUNDEDRECTD74*%
%ADD75C,0.07000*%
G36*
X175192Y135967D02*
X172810D01*
Y123403D01*
X175192D01*
Y120707D01*
X170451D01*
Y123860D01*
X170427D01*
X170403Y123812D01*
X170258Y123715D01*
X170042Y123547D01*
X169753Y123330D01*
X169416Y123090D01*
X169079Y122825D01*
X168333Y122223D01*
X166961Y124245D01*
X166985Y124269D01*
X167009Y124293D01*
X167081Y124365D01*
X167177Y124438D01*
X167322Y124558D01*
X167466Y124678D01*
X167803Y124967D01*
X168236Y125328D01*
X168742Y125713D01*
X169295Y126147D01*
X169873Y126580D01*
X170451Y125737D01*
Y128939D01*
X170427D01*
X170378Y128915D01*
X170306Y128867D01*
X170186Y128794D01*
X170066Y128722D01*
X169897Y128650D01*
X169536Y128457D01*
X169127Y128217D01*
X168694Y127976D01*
X168260Y127711D01*
X167851Y127446D01*
X166816Y129805D01*
X166840D01*
X166864Y129829D01*
X166937Y129877D01*
X167033Y129950D01*
X167129Y130022D01*
X167273Y130094D01*
X167634Y130311D01*
X168068Y130576D01*
X168573Y130888D01*
X169175Y131225D01*
X169849Y131611D01*
X170451Y130263D01*
Y132621D01*
X170427Y132645D01*
X170378Y132670D01*
X170258Y132742D01*
X170138Y132838D01*
X169969Y132958D01*
X169777Y133079D01*
X169343Y133392D01*
X168814Y133753D01*
X168284Y134114D01*
X167707Y134499D01*
X167177Y134860D01*
X168597Y137435D01*
X170451Y135895D01*
Y138663D01*
X175192D01*
Y135967D01*
D02*
G37*
G36*
X181066Y131562D02*
X183039D01*
X183063D01*
X183088D01*
X183160D01*
X183256D01*
X183497Y131514D01*
X183785Y131466D01*
X184098Y131370D01*
X184435Y131249D01*
X184772Y131057D01*
X185061Y130816D01*
X185085Y130792D01*
X185182Y130672D01*
X185302Y130503D01*
X185422Y130263D01*
X185567Y129926D01*
X185687Y129541D01*
X185783Y129083D01*
X185807Y128554D01*
Y127591D01*
X185831Y127134D01*
Y125425D01*
X185807D01*
X185783D01*
X185711Y125400D01*
X185615Y125376D01*
X185350Y125328D01*
X185013Y125256D01*
X184628Y125160D01*
X184219Y125039D01*
X183328Y124775D01*
Y125160D01*
X183352Y125304D01*
Y126074D01*
X183376Y126532D01*
Y127495D01*
X183352Y127663D01*
X183304Y127880D01*
X183232Y128120D01*
X183088Y128361D01*
X182895Y128578D01*
X182606Y128746D01*
X182413Y128770D01*
X182221Y128794D01*
X181066D01*
Y120394D01*
X178683D01*
Y128794D01*
X178177D01*
X176516Y131370D01*
Y124341D01*
X174158D01*
Y135149D01*
X176492D01*
X178683Y131851D01*
Y139024D01*
X181066D01*
Y131562D01*
D02*
G37*
G36*
X183232Y119479D02*
X183280Y119455D01*
X183352Y119383D01*
X183473Y119287D01*
X183593Y119166D01*
X183761Y119022D01*
X184123Y118709D01*
X184532Y118372D01*
X184965Y118011D01*
X185398Y117650D01*
X185831Y117313D01*
Y117289D01*
X185807Y117265D01*
X185759Y117193D01*
X185711Y117072D01*
X185639Y116952D01*
X185567Y116807D01*
X185350Y116471D01*
X185085Y116037D01*
X184772Y115556D01*
X184387Y115002D01*
X183930Y114425D01*
X183400Y113847D01*
X182823Y113221D01*
X182173Y112619D01*
X181475Y112018D01*
X180681Y111464D01*
X179838Y110910D01*
X178923Y110429D01*
X177936Y110020D01*
X177961D01*
X177985Y109996D01*
X178057Y109972D01*
X178153Y109948D01*
X178273Y109899D01*
X178418Y109827D01*
X178755Y109683D01*
X179188Y109466D01*
X179670Y109201D01*
X180223Y108888D01*
X180825Y108503D01*
X181451Y108046D01*
X182101Y107516D01*
X182775Y106915D01*
X183449Y106241D01*
X184098Y105471D01*
X184748Y104628D01*
X185374Y103689D01*
X185687Y103184D01*
X185976Y102654D01*
X185928Y102630D01*
X185807Y102510D01*
X185591Y102341D01*
X185302Y102101D01*
X184941Y101788D01*
X184508Y101403D01*
X184026Y100969D01*
X183497Y100464D01*
Y100488D01*
X183449Y100536D01*
X183424Y100632D01*
X183352Y100777D01*
X183280Y100921D01*
X183160Y101114D01*
X183063Y101330D01*
X182919Y101571D01*
X182582Y102101D01*
X182197Y102726D01*
X181740Y103376D01*
X181210Y104050D01*
X180608Y104748D01*
X179934Y105422D01*
X179212Y106072D01*
X178418Y106650D01*
X177551Y107179D01*
X177094Y107420D01*
X176613Y107613D01*
X176131Y107805D01*
X175626Y107950D01*
X175096Y108070D01*
X174567Y108142D01*
Y100825D01*
X171919D01*
Y108407D01*
X171895D01*
X171823D01*
X171702Y108431D01*
X171558D01*
X171341D01*
X171101Y108455D01*
X170836D01*
X170523Y108479D01*
X170186D01*
X169825Y108503D01*
X169416D01*
X168983Y108527D01*
X168068D01*
X167081D01*
Y111440D01*
X167105D01*
X167201D01*
X167346D01*
X167562D01*
X167803Y111416D01*
X168092D01*
X168405D01*
X168742D01*
X169512Y111392D01*
X170330Y111368D01*
X171149Y111319D01*
X171919Y111295D01*
Y119238D01*
X174567D01*
Y111512D01*
X174591D01*
X174639Y111536D01*
X174735Y111560D01*
X174855Y111608D01*
X175000Y111656D01*
X175169Y111705D01*
X175385Y111777D01*
X175602Y111873D01*
X176131Y112090D01*
X176709Y112379D01*
X177359Y112715D01*
X178057Y113125D01*
X178779Y113630D01*
X179501Y114184D01*
X180223Y114834D01*
X180921Y115580D01*
X181258Y115989D01*
X181595Y116422D01*
X181908Y116856D01*
X182197Y117337D01*
X182486Y117842D01*
X182750Y118372D01*
X182991Y118926D01*
X183208Y119503D01*
X183232Y119479D01*
D02*
G37*
G36*
X170836Y91847D02*
X172256D01*
Y98875D01*
X182750D01*
X182775D01*
X182871D01*
X183015Y98851D01*
X183208Y98827D01*
X183424Y98803D01*
X183665Y98731D01*
X183930Y98659D01*
X184195Y98538D01*
X184484Y98394D01*
X184748Y98201D01*
X185013Y97985D01*
X185230Y97720D01*
X185446Y97407D01*
X185615Y97046D01*
X185711Y96637D01*
X185783Y96155D01*
Y96035D01*
X185807Y95939D01*
Y95674D01*
X185831Y95313D01*
Y93821D01*
X185807Y93195D01*
X185783D01*
X185759D01*
X185687Y93171D01*
X185591D01*
X185326Y93123D01*
X185013Y93050D01*
X184628Y92978D01*
X184195Y92882D01*
X183737Y92761D01*
X183256Y92641D01*
Y92689D01*
X183280Y92834D01*
Y93050D01*
X183304Y93339D01*
X183328Y93700D01*
Y94085D01*
X183352Y94519D01*
Y95024D01*
X183328Y95169D01*
X183280Y95385D01*
X183208Y95626D01*
X183063Y95842D01*
X182847Y96059D01*
X182702Y96131D01*
X182534Y96204D01*
X182365Y96228D01*
X182149Y96252D01*
X174495D01*
Y84481D01*
X185904D01*
Y81858D01*
X172256D01*
Y89031D01*
X170836D01*
Y80991D01*
X168621D01*
Y89031D01*
X166961D01*
Y91847D01*
X168621D01*
Y99621D01*
X170836D01*
Y91847D01*
D02*
G37*
G36*
X182004Y91582D02*
X185470D01*
Y89055D01*
X182004D01*
Y84963D01*
X179982D01*
Y89055D01*
X178562D01*
Y85300D01*
X176516D01*
Y87009D01*
X176492Y86985D01*
X176396Y86937D01*
X176276Y86864D01*
X176107Y86768D01*
X175915Y86648D01*
X175698Y86503D01*
X175241Y86215D01*
X174543Y88429D01*
X174591Y88453D01*
X174711Y88549D01*
X174904Y88670D01*
X175169Y88838D01*
X175457Y89007D01*
X175794Y89223D01*
X176516Y89657D01*
Y90980D01*
X176468Y91004D01*
X176348Y91101D01*
X176155Y91221D01*
X175915Y91390D01*
X175602Y91582D01*
X175265Y91799D01*
X174928Y92015D01*
X174543Y92232D01*
X175313Y94519D01*
X175337Y94494D01*
X175409Y94446D01*
X175530Y94350D01*
X175674Y94254D01*
X175866Y94109D01*
X176059Y93941D01*
X176516Y93604D01*
Y95361D01*
X178562D01*
Y91582D01*
X179982D01*
Y95674D01*
X182004D01*
Y91582D01*
D02*
G37*
G36*
X181138Y76394D02*
X179814D01*
Y72061D01*
X186000D01*
Y69149D01*
X179814D01*
Y64816D01*
X181210D01*
Y61976D01*
X170354D01*
Y69149D01*
X166961D01*
Y72061D01*
X170354D01*
Y79234D01*
X181138D01*
Y76394D01*
D02*
G37*
%LPC*%
G36*
X177166D02*
X173026D01*
Y72061D01*
X177166D01*
Y76394D01*
D02*
G37*
G36*
Y69149D02*
X173026D01*
Y64816D01*
X177166D01*
Y69149D01*
D02*
G37*
%LPD*%
D40*
X93000Y404500D02*
D03*
X104000D02*
D03*
X-38969Y219500D02*
D03*
X-49968D02*
D03*
D41*
X-90405Y230968D02*
D03*
X-98000Y231000D02*
D03*
X-92882D02*
D03*
X-95441Y256984D02*
D03*
X-90323D02*
D03*
X-98000D02*
D03*
X-92882D02*
D03*
X-87764D02*
D03*
Y231000D02*
D03*
X-100559D02*
D03*
X-95441D02*
D03*
X-85205Y230968D02*
D03*
X-100559Y256984D02*
D03*
X67977Y180468D02*
D03*
X60382Y180500D02*
D03*
X65500D02*
D03*
X62941Y206484D02*
D03*
X68059D02*
D03*
X60382D02*
D03*
X65500D02*
D03*
X70618D02*
D03*
Y180500D02*
D03*
X57823D02*
D03*
X62941D02*
D03*
X73177Y180468D02*
D03*
X57823Y206484D02*
D03*
D42*
X-85205Y256984D02*
D03*
X73177Y206484D02*
D03*
D43*
X-76000Y237000D02*
D03*
Y248000D02*
D03*
D44*
X-65693Y213532D02*
D03*
X-58212D02*
D03*
X-61953Y222587D02*
D03*
D45*
X-91039Y200095D02*
D03*
X-95961Y200095D02*
D03*
X95961Y199594D02*
D03*
X91039Y199595D02*
D03*
D46*
X-83362Y186906D02*
D03*
X-103638D02*
D03*
X103638Y186406D02*
D03*
X83362D02*
D03*
D47*
X-109543Y199000D02*
D03*
X-129228D02*
D03*
D48*
X2682Y50002D02*
D03*
Y43940D02*
D03*
X-7948Y50002D02*
D03*
X-7948Y43940D02*
D03*
D49*
X-1058Y50002D02*
D03*
Y43940D02*
D03*
X-4208Y50002D02*
D03*
Y43940D02*
D03*
D50*
X11102Y135500D02*
D03*
Y128600D02*
D03*
X18230Y135500D02*
D03*
Y128600D02*
D03*
X100429Y173400D02*
D03*
Y166500D02*
D03*
X108000Y173400D02*
D03*
Y166500D02*
D03*
D51*
X122601D02*
D03*
X115701D02*
D03*
X-81500Y15500D02*
D03*
X-88400D02*
D03*
D52*
X133731Y200558D02*
D03*
X122601Y175500D02*
D03*
X147650Y186638D02*
D03*
D53*
X-95721Y-1158D02*
D03*
X-121310Y-11006D02*
D03*
X-95722Y-20843D02*
D03*
D54*
X-109548Y105028D02*
D03*
X-114848D02*
D03*
X79500Y419500D02*
D03*
X74200D02*
D03*
X85500Y437570D02*
D03*
X90800D02*
D03*
X-107777Y114500D02*
D03*
X-102477D02*
D03*
X74680Y403000D02*
D03*
X79980D02*
D03*
X-112168Y143121D02*
D03*
X-106868D02*
D03*
X-96339Y210500D02*
D03*
X-91039D02*
D03*
X-82980Y220680D02*
D03*
X-77680D02*
D03*
D55*
X-102957Y119500D02*
D03*
X-107777D02*
D03*
X-58212Y207852D02*
D03*
X-53392D02*
D03*
X60382Y174500D02*
D03*
X55562D02*
D03*
X73177Y175500D02*
D03*
X77997D02*
D03*
X-112762Y148000D02*
D03*
X-107942D02*
D03*
X79500Y427177D02*
D03*
X74680D02*
D03*
X-82500Y263500D02*
D03*
X-77680D02*
D03*
X-112168Y138858D02*
D03*
X-107348D02*
D03*
X79500Y408062D02*
D03*
X74680D02*
D03*
X-102820Y263500D02*
D03*
X-107640D02*
D03*
X79500Y412882D02*
D03*
X74680D02*
D03*
X-53392Y171915D02*
D03*
X-48572D02*
D03*
X-98000Y225500D02*
D03*
X-102820D02*
D03*
X118052Y404500D02*
D03*
X113232D02*
D03*
X-88254Y166929D02*
D03*
X-83434D02*
D03*
X-114848Y109344D02*
D03*
X-110028D02*
D03*
X-82500Y225500D02*
D03*
X-77680D02*
D03*
D56*
X79713Y437820D02*
D03*
Y433000D02*
D03*
X-65693Y207852D02*
D03*
Y203032D02*
D03*
X-70892Y207852D02*
D03*
Y203032D02*
D03*
X77997Y206484D02*
D03*
Y201664D02*
D03*
X53500Y201664D02*
D03*
Y206484D02*
D03*
X-128500Y-16977D02*
D03*
Y-12157D02*
D03*
X-133182Y-12180D02*
D03*
Y-17000D02*
D03*
X-87764Y263500D02*
D03*
Y268320D02*
D03*
X-102820Y168500D02*
D03*
Y173320D02*
D03*
X-98000Y269320D02*
D03*
Y264500D02*
D03*
Y168500D02*
D03*
Y173320D02*
D03*
X-96339Y220500D02*
D03*
Y215680D02*
D03*
X118052Y414382D02*
D03*
Y409562D02*
D03*
X-87764Y225500D02*
D03*
Y220680D02*
D03*
X118052Y430500D02*
D03*
Y435320D02*
D03*
Y424618D02*
D03*
Y419798D02*
D03*
D57*
X85500Y411823D02*
D03*
X111516Y427177D02*
D03*
X111484Y416941D02*
D03*
Y411823D02*
D03*
Y424618D02*
D03*
X85500D02*
D03*
Y419500D02*
D03*
Y414382D02*
D03*
Y422059D02*
D03*
Y416941D02*
D03*
X111484Y419500D02*
D03*
Y414382D02*
D03*
X111516Y421977D02*
D03*
D58*
X85500Y427177D02*
D03*
D59*
X-54969Y20000D02*
D03*
X-38669Y19900D02*
D03*
D60*
X-190667Y4331D02*
D03*
X-174131D02*
D03*
X-190667Y-4330D02*
D03*
X-174131D02*
D03*
X-190667Y-24730D02*
D03*
X-174131D02*
D03*
X-190667Y-33391D02*
D03*
X-174131D02*
D03*
X-190667Y-51230D02*
D03*
X-174131D02*
D03*
X-190667Y-59891D02*
D03*
X-174131D02*
D03*
D61*
X-216929Y-38328D02*
D03*
Y-21792D02*
D03*
X-208268Y-38328D02*
D03*
Y-21792D02*
D03*
X-156730Y-38328D02*
D03*
Y-21792D02*
D03*
X-148069Y-38328D02*
D03*
Y-21792D02*
D03*
X-216331Y24732D02*
D03*
Y41268D02*
D03*
X-207670Y24732D02*
D03*
Y41268D02*
D03*
D62*
X-133182Y-24000D02*
D03*
X-127119D02*
D03*
D63*
X67977Y174500D02*
D03*
Y169200D02*
D03*
X-92882Y263500D02*
D03*
Y268800D02*
D03*
X-87764Y274000D02*
D03*
Y279300D02*
D03*
X-118006Y143939D02*
D03*
Y149240D02*
D03*
X-112941Y263500D02*
D03*
Y268800D02*
D03*
X-102820Y162813D02*
D03*
Y157513D02*
D03*
X123500Y409562D02*
D03*
Y414862D02*
D03*
X-98000Y162813D02*
D03*
Y157513D02*
D03*
X-58168Y172500D02*
D03*
Y167200D02*
D03*
X123500Y435320D02*
D03*
Y430020D02*
D03*
X-92882Y165997D02*
D03*
Y160697D02*
D03*
D64*
X147957Y105048D02*
D03*
X144020D02*
D03*
Y101111D02*
D03*
X147957D02*
D03*
D65*
X-35433Y187008D02*
D03*
X212598Y0D02*
D03*
X-212598D02*
D03*
X35433Y187008D02*
D03*
X115353Y450787D02*
D03*
X-35433Y68898D02*
D03*
X35433D02*
D03*
X-115356Y450787D02*
D03*
D66*
X-11626Y167000D02*
D03*
X-19500D02*
D03*
X-3752D02*
D03*
X-137462Y170687D02*
D03*
X-145336Y162813D02*
D03*
X-137462D02*
D03*
X-145336Y154939D02*
D03*
X-137462D02*
D03*
X-145336Y147065D02*
D03*
X-137462D02*
D03*
X-145336Y139191D02*
D03*
X-137462D02*
D03*
X31752Y-2500D02*
D03*
X16004D02*
D03*
X39626D02*
D03*
X23878D02*
D03*
X47500D02*
D03*
X55374D02*
D03*
X118500Y202374D02*
D03*
Y194500D02*
D03*
Y210248D02*
D03*
X-3874Y191000D02*
D03*
X4000D02*
D03*
X-3874Y183126D02*
D03*
X4000D02*
D03*
X-163591Y125079D02*
D03*
X-179339D02*
D03*
X-171465D02*
D03*
D67*
X-145336Y170687D02*
D03*
D68*
X-127119Y9968D02*
D03*
D69*
X212598Y43940D02*
D03*
Y33939D02*
D03*
Y23939D02*
D03*
Y53939D02*
D03*
Y63939D02*
D03*
X-36500Y-2315D02*
D03*
Y-12157D02*
D03*
X-8372Y-24513D02*
D03*
X1628D02*
D03*
X-18372D02*
D03*
D70*
X-36500Y-22000D02*
D03*
D71*
X-73374Y15500D02*
D03*
X-65500D02*
D03*
D72*
X-27399Y43940D02*
D03*
X-17399D02*
D03*
X-27399Y33939D02*
D03*
Y23939D02*
D03*
X-17399Y33939D02*
D03*
Y23939D02*
D03*
X-7399Y33939D02*
D03*
Y23939D02*
D03*
X2601Y33939D02*
D03*
Y23939D02*
D03*
X12601Y33939D02*
D03*
Y23939D02*
D03*
X22601Y33939D02*
D03*
Y23939D02*
D03*
X32601Y33939D02*
D03*
Y23939D02*
D03*
X42601Y33939D02*
D03*
Y23939D02*
D03*
X52601Y33939D02*
D03*
Y23939D02*
D03*
X62601Y33939D02*
D03*
Y23939D02*
D03*
X72601Y33939D02*
D03*
Y23939D02*
D03*
X82601Y33939D02*
D03*
Y23939D02*
D03*
X92601Y33939D02*
D03*
Y23939D02*
D03*
X102601Y33939D02*
D03*
Y23939D02*
D03*
X112601Y33939D02*
D03*
Y23939D02*
D03*
X122601Y33939D02*
D03*
Y23939D02*
D03*
X132601Y33939D02*
D03*
Y23939D02*
D03*
X142601Y33939D02*
D03*
Y23939D02*
D03*
X152601Y33939D02*
D03*
Y23939D02*
D03*
X162601Y33939D02*
D03*
Y23939D02*
D03*
X-17399Y133940D02*
D03*
X-27399D02*
D03*
Y143939D02*
D03*
Y153939D02*
D03*
X-17399Y143939D02*
D03*
Y153939D02*
D03*
X-7399Y143939D02*
D03*
Y153939D02*
D03*
X2601Y143939D02*
D03*
Y153939D02*
D03*
X12601Y143939D02*
D03*
Y153939D02*
D03*
X22601Y143939D02*
D03*
Y153939D02*
D03*
X32601Y143939D02*
D03*
Y153939D02*
D03*
X42601Y143939D02*
D03*
Y153939D02*
D03*
X52601Y143939D02*
D03*
Y153939D02*
D03*
X62601Y143939D02*
D03*
Y153939D02*
D03*
X72601Y143939D02*
D03*
Y153939D02*
D03*
X82601Y143939D02*
D03*
Y153939D02*
D03*
X92601Y143939D02*
D03*
Y153939D02*
D03*
X102601Y143939D02*
D03*
Y153939D02*
D03*
X112601Y143939D02*
D03*
Y153939D02*
D03*
X122601Y143939D02*
D03*
Y153939D02*
D03*
X132601Y143939D02*
D03*
Y153939D02*
D03*
X142601Y143939D02*
D03*
Y153939D02*
D03*
X152601Y143939D02*
D03*
Y153939D02*
D03*
X162601Y143939D02*
D03*
Y153939D02*
D03*
D73*
X153541Y450787D02*
D03*
X-153543D02*
D03*
D74*
X153541Y443939D02*
D03*
X145667D02*
D03*
X137793D02*
D03*
X169289D02*
D03*
X161415D02*
D03*
X-161417D02*
D03*
X-169291D02*
D03*
X-137795D02*
D03*
X-145669D02*
D03*
X-153543D02*
D03*
D75*
X152601Y-18561D02*
D03*
Y-8561D02*
D03*
X162601Y-18561D02*
D03*
Y-8561D02*
D03*
X172601Y-18561D02*
D03*
Y-8561D02*
D03*
X88500Y-18561D02*
D03*
Y-8561D02*
D03*
X98500Y-18561D02*
D03*
Y-8561D02*
D03*
X108500Y-18561D02*
D03*
Y-8561D02*
D03*
M02*
