G04*
G04 #@! TF.GenerationSoftware,Altium Limited,Altium Designer,20.1.11 (218)*
G04*
G04 Layer_Color=255*
%FSLAX25Y25*%
%MOIN*%
G70*
G04*
G04 #@! TF.SameCoordinates,1E5C8DF0-0C21-4807-87EA-DBAC22A10C90*
G04*
G04*
G04 #@! TF.FilePolarity,Positive*
G04*
G01*
G75*
%ADD16R,0.06000X0.05000*%
%ADD17O,0.01299X0.04500*%
%ADD18R,0.01299X0.04500*%
%ADD19R,0.05000X0.06000*%
%ADD20R,0.02362X0.03937*%
%ADD21R,0.02362X0.06693*%
%ADD22R,0.03937X0.11024*%
%ADD23R,0.05512X0.05512*%
%ADD24R,0.02953X0.03150*%
%ADD25R,0.02284X0.03150*%
%ADD26R,0.03500X0.03800*%
%ADD27R,0.03800X0.03500*%
G04:AMPARAMS|DCode=28|XSize=39.37mil|YSize=66.93mil|CornerRadius=0mil|HoleSize=0mil|Usage=FLASHONLY|Rotation=315.000|XOffset=0mil|YOffset=0mil|HoleType=Round|Shape=Rectangle|*
%AMROTATEDRECTD28*
4,1,4,-0.03758,-0.00974,0.00974,0.03758,0.03758,0.00974,-0.00974,-0.03758,-0.03758,-0.00974,0.0*
%
%ADD28ROTATEDRECTD28*%

%ADD29R,0.06693X0.03937*%
%ADD30R,0.03000X0.02300*%
%ADD31R,0.02500X0.02000*%
%ADD32R,0.02000X0.02500*%
%ADD33O,0.04500X0.01299*%
%ADD34R,0.04500X0.01299*%
%ADD35R,0.07874X0.17717*%
%ADD36R,0.04134X0.02559*%
%ADD37R,0.02559X0.04134*%
%ADD38R,0.03661X0.03858*%
%ADD39R,0.02300X0.03000*%
%ADD86C,0.01968*%
%ADD87P,0.21648X8X22.5*%
%ADD88C,0.05906*%
%ADD89R,0.05906X0.05906*%
%ADD90C,0.07087*%
%ADD91R,0.07087X0.07087*%
%ADD92C,0.06299*%
%ADD93C,0.05906*%
G04:AMPARAMS|DCode=94|XSize=118.11mil|YSize=59.06mil|CornerRadius=14.76mil|HoleSize=0mil|Usage=FLASHONLY|Rotation=90.000|XOffset=0mil|YOffset=0mil|HoleType=Round|Shape=RoundedRectangle|*
%AMROUNDEDRECTD94*
21,1,0.11811,0.02953,0,0,90.0*
21,1,0.08858,0.05906,0,0,90.0*
1,1,0.02953,0.01476,0.04429*
1,1,0.02953,0.01476,-0.04429*
1,1,0.02953,-0.01476,-0.04429*
1,1,0.02953,-0.01476,0.04429*
%
%ADD94ROUNDEDRECTD94*%
%ADD95C,0.06200*%
D16*
X93000Y404500D02*
D03*
X104000D02*
D03*
X-38969Y219500D02*
D03*
X-49968D02*
D03*
D17*
X-90405Y230968D02*
D03*
X-98000Y231000D02*
D03*
X-92882D02*
D03*
X-95441Y256984D02*
D03*
X-90323D02*
D03*
X-98000D02*
D03*
X-92882D02*
D03*
X-87764D02*
D03*
Y231000D02*
D03*
X-100559D02*
D03*
X-95441D02*
D03*
X-85205Y230968D02*
D03*
X-100559Y256984D02*
D03*
X67977Y180468D02*
D03*
X60382Y180500D02*
D03*
X65500D02*
D03*
X62941Y206484D02*
D03*
X68059D02*
D03*
X60382D02*
D03*
X65500D02*
D03*
X70618D02*
D03*
Y180500D02*
D03*
X57823D02*
D03*
X62941D02*
D03*
X73177Y180468D02*
D03*
X57823Y206484D02*
D03*
D18*
X-85205Y256984D02*
D03*
X73177Y206484D02*
D03*
D19*
X-76000Y237000D02*
D03*
Y248000D02*
D03*
D20*
X-65693Y213532D02*
D03*
X-58212D02*
D03*
X-61953Y222587D02*
D03*
D21*
X-91039Y200095D02*
D03*
X-95961Y200095D02*
D03*
X95961Y199594D02*
D03*
X91039Y199595D02*
D03*
D22*
X-83362Y186906D02*
D03*
X-103638D02*
D03*
X103638Y186406D02*
D03*
X83362D02*
D03*
D23*
X-109543Y199000D02*
D03*
X-129228D02*
D03*
D24*
X2682Y50002D02*
D03*
Y43940D02*
D03*
X-7948Y50002D02*
D03*
X-7948Y43940D02*
D03*
D25*
X-1058Y50002D02*
D03*
Y43940D02*
D03*
X-4208Y50002D02*
D03*
Y43940D02*
D03*
D26*
X11102Y135500D02*
D03*
Y128600D02*
D03*
X18230Y135500D02*
D03*
Y128600D02*
D03*
X100429Y173400D02*
D03*
Y166500D02*
D03*
X108000Y173400D02*
D03*
Y166500D02*
D03*
D27*
X122601D02*
D03*
X115701D02*
D03*
X-81500Y15500D02*
D03*
X-88400D02*
D03*
D28*
X133731Y200558D02*
D03*
X122601Y175500D02*
D03*
X147650Y186638D02*
D03*
D29*
X-95721Y-1158D02*
D03*
X-121310Y-11006D02*
D03*
X-95722Y-20843D02*
D03*
D30*
X-109548Y105028D02*
D03*
X-114848D02*
D03*
X79500Y419500D02*
D03*
X74200D02*
D03*
X85500Y437570D02*
D03*
X90800D02*
D03*
X-107777Y114500D02*
D03*
X-102477D02*
D03*
X74680Y403000D02*
D03*
X79980D02*
D03*
X-112168Y143121D02*
D03*
X-106868D02*
D03*
X-96339Y210500D02*
D03*
X-91039D02*
D03*
X-82980Y220680D02*
D03*
X-77680D02*
D03*
D31*
X-102957Y119500D02*
D03*
X-107777D02*
D03*
X-58212Y207852D02*
D03*
X-53392D02*
D03*
X60382Y174500D02*
D03*
X55562D02*
D03*
X73177Y175500D02*
D03*
X77997D02*
D03*
X-112762Y148000D02*
D03*
X-107942D02*
D03*
X79500Y427177D02*
D03*
X74680D02*
D03*
X-82500Y263500D02*
D03*
X-77680D02*
D03*
X-112168Y138858D02*
D03*
X-107348D02*
D03*
X79500Y408062D02*
D03*
X74680D02*
D03*
X-102820Y263500D02*
D03*
X-107640D02*
D03*
X79500Y412882D02*
D03*
X74680D02*
D03*
X-53392Y171915D02*
D03*
X-48572D02*
D03*
X-98000Y225500D02*
D03*
X-102820D02*
D03*
X118052Y404500D02*
D03*
X113232D02*
D03*
X-88254Y166929D02*
D03*
X-83434D02*
D03*
X-114848Y109344D02*
D03*
X-110028D02*
D03*
X-82500Y225500D02*
D03*
X-77680D02*
D03*
D32*
X79713Y437820D02*
D03*
Y433000D02*
D03*
X-65693Y207852D02*
D03*
Y203032D02*
D03*
X-70892Y207852D02*
D03*
Y203032D02*
D03*
X77997Y206484D02*
D03*
Y201664D02*
D03*
X53500Y201664D02*
D03*
Y206484D02*
D03*
X-128500Y-16977D02*
D03*
Y-12157D02*
D03*
X-133182Y-12180D02*
D03*
Y-17000D02*
D03*
X-87764Y263500D02*
D03*
Y268320D02*
D03*
X-102820Y168500D02*
D03*
Y173320D02*
D03*
X-98000Y269320D02*
D03*
Y264500D02*
D03*
Y168500D02*
D03*
Y173320D02*
D03*
X-96339Y220500D02*
D03*
Y215680D02*
D03*
X118052Y414382D02*
D03*
Y409562D02*
D03*
X-87764Y225500D02*
D03*
Y220680D02*
D03*
X118052Y430500D02*
D03*
Y435320D02*
D03*
Y424618D02*
D03*
Y419798D02*
D03*
D33*
X85500Y411823D02*
D03*
X111516Y427177D02*
D03*
X111484Y416941D02*
D03*
Y411823D02*
D03*
Y424618D02*
D03*
X85500D02*
D03*
Y419500D02*
D03*
Y414382D02*
D03*
Y422059D02*
D03*
Y416941D02*
D03*
X111484Y419500D02*
D03*
Y414382D02*
D03*
X111516Y421977D02*
D03*
D34*
X85500Y427177D02*
D03*
D35*
X-54969Y20000D02*
D03*
X-38669Y19900D02*
D03*
D36*
X-190667Y4331D02*
D03*
X-174131D02*
D03*
X-190667Y-4330D02*
D03*
X-174131D02*
D03*
X-190667Y-24730D02*
D03*
X-174131D02*
D03*
X-190667Y-33391D02*
D03*
X-174131D02*
D03*
X-190667Y-51230D02*
D03*
X-174131D02*
D03*
X-190667Y-59891D02*
D03*
X-174131D02*
D03*
D37*
X-216929Y-38328D02*
D03*
Y-21792D02*
D03*
X-208268Y-38328D02*
D03*
Y-21792D02*
D03*
X-156730Y-38328D02*
D03*
Y-21792D02*
D03*
X-148069Y-38328D02*
D03*
Y-21792D02*
D03*
X-216331Y24732D02*
D03*
Y41268D02*
D03*
X-207670Y24732D02*
D03*
Y41268D02*
D03*
D38*
X-133182Y-24000D02*
D03*
X-127119D02*
D03*
D39*
X67977Y174500D02*
D03*
Y169200D02*
D03*
X-92882Y263500D02*
D03*
Y268800D02*
D03*
X-87764Y274000D02*
D03*
Y279300D02*
D03*
X-118006Y143939D02*
D03*
Y149240D02*
D03*
X-112941Y263500D02*
D03*
Y268800D02*
D03*
X-102820Y162813D02*
D03*
Y157513D02*
D03*
X123500Y409562D02*
D03*
Y414862D02*
D03*
X-98000Y162813D02*
D03*
Y157513D02*
D03*
X-58168Y172500D02*
D03*
Y167200D02*
D03*
X123500Y435320D02*
D03*
Y430020D02*
D03*
X-92882Y165997D02*
D03*
Y160697D02*
D03*
D86*
X147957Y105048D02*
D03*
X144020D02*
D03*
Y101111D02*
D03*
X147957D02*
D03*
D87*
X-35433Y187008D02*
D03*
X212598Y0D02*
D03*
X-212598D02*
D03*
X35433Y187008D02*
D03*
X115353Y450787D02*
D03*
X-35433Y68898D02*
D03*
X35433D02*
D03*
X-115356Y450787D02*
D03*
D88*
X-11626Y167000D02*
D03*
X-19500D02*
D03*
X-3752D02*
D03*
X-137462Y170687D02*
D03*
X-145336Y162813D02*
D03*
X-137462D02*
D03*
X-145336Y154939D02*
D03*
X-137462D02*
D03*
X-145336Y147065D02*
D03*
X-137462D02*
D03*
X-145336Y139191D02*
D03*
X-137462D02*
D03*
X31752Y-2500D02*
D03*
X16004D02*
D03*
X39626D02*
D03*
X23878D02*
D03*
X47500D02*
D03*
X55374D02*
D03*
X118500Y202374D02*
D03*
Y194500D02*
D03*
Y210248D02*
D03*
X-3874Y191000D02*
D03*
X4000D02*
D03*
X-3874Y183126D02*
D03*
X4000D02*
D03*
X-163591Y125079D02*
D03*
X-179339D02*
D03*
X-171465D02*
D03*
D89*
X-145336Y170687D02*
D03*
D90*
X212598Y43940D02*
D03*
Y33939D02*
D03*
Y23939D02*
D03*
Y53939D02*
D03*
Y63939D02*
D03*
X-36500Y-2315D02*
D03*
Y-12157D02*
D03*
X-8372Y-24513D02*
D03*
X1628D02*
D03*
X-18372D02*
D03*
D91*
X-36500Y-22000D02*
D03*
D92*
X-73374Y15500D02*
D03*
X-65500D02*
D03*
D93*
X-27399Y43940D02*
D03*
X-17399D02*
D03*
X-27399Y33939D02*
D03*
Y23939D02*
D03*
X-17399Y33939D02*
D03*
Y23939D02*
D03*
X-7399Y33939D02*
D03*
Y23939D02*
D03*
X2601Y33939D02*
D03*
Y23939D02*
D03*
X12601Y33939D02*
D03*
Y23939D02*
D03*
X22601Y33939D02*
D03*
Y23939D02*
D03*
X32601Y33939D02*
D03*
Y23939D02*
D03*
X42601Y33939D02*
D03*
Y23939D02*
D03*
X52601Y33939D02*
D03*
Y23939D02*
D03*
X62601Y33939D02*
D03*
Y23939D02*
D03*
X72601Y33939D02*
D03*
Y23939D02*
D03*
X82601Y33939D02*
D03*
Y23939D02*
D03*
X92601Y33939D02*
D03*
Y23939D02*
D03*
X102601Y33939D02*
D03*
Y23939D02*
D03*
X112601Y33939D02*
D03*
Y23939D02*
D03*
X122601Y33939D02*
D03*
Y23939D02*
D03*
X132601Y33939D02*
D03*
Y23939D02*
D03*
X142601Y33939D02*
D03*
Y23939D02*
D03*
X152601Y33939D02*
D03*
Y23939D02*
D03*
X162601Y33939D02*
D03*
Y23939D02*
D03*
X-17399Y133940D02*
D03*
X-27399D02*
D03*
Y143939D02*
D03*
Y153939D02*
D03*
X-17399Y143939D02*
D03*
Y153939D02*
D03*
X-7399Y143939D02*
D03*
Y153939D02*
D03*
X2601Y143939D02*
D03*
Y153939D02*
D03*
X12601Y143939D02*
D03*
Y153939D02*
D03*
X22601Y143939D02*
D03*
Y153939D02*
D03*
X32601Y143939D02*
D03*
Y153939D02*
D03*
X42601Y143939D02*
D03*
Y153939D02*
D03*
X52601Y143939D02*
D03*
Y153939D02*
D03*
X62601Y143939D02*
D03*
Y153939D02*
D03*
X72601Y143939D02*
D03*
Y153939D02*
D03*
X82601Y143939D02*
D03*
Y153939D02*
D03*
X92601Y143939D02*
D03*
Y153939D02*
D03*
X102601Y143939D02*
D03*
Y153939D02*
D03*
X112601Y143939D02*
D03*
Y153939D02*
D03*
X122601Y143939D02*
D03*
Y153939D02*
D03*
X132601Y143939D02*
D03*
Y153939D02*
D03*
X142601Y143939D02*
D03*
Y153939D02*
D03*
X152601Y143939D02*
D03*
Y153939D02*
D03*
X162601Y143939D02*
D03*
Y153939D02*
D03*
D94*
X153541Y443939D02*
D03*
X145667D02*
D03*
X137793D02*
D03*
X169289D02*
D03*
X161415D02*
D03*
X-161417D02*
D03*
X-169291D02*
D03*
X-137795D02*
D03*
X-145669D02*
D03*
X-153543D02*
D03*
D95*
X152601Y-18561D02*
D03*
Y-8561D02*
D03*
X162601Y-18561D02*
D03*
Y-8561D02*
D03*
X172601Y-18561D02*
D03*
Y-8561D02*
D03*
X88500Y-18561D02*
D03*
Y-8561D02*
D03*
X98500Y-18561D02*
D03*
Y-8561D02*
D03*
X108500Y-18561D02*
D03*
Y-8561D02*
D03*
M02*
