G04*
G04 #@! TF.GenerationSoftware,Altium Limited,Altium Designer,20.1.11 (218)*
G04*
G04 Layer_Color=15441517*
%FSLAX25Y25*%
%MOIN*%
G70*
G04*
G04 #@! TF.SameCoordinates,1E5C8DF0-0C21-4807-87EA-DBAC22A10C90*
G04*
G04*
G04 #@! TF.FilePolarity,Positive*
G04*
G01*
G75*
%ADD11C,0.01000*%
%ADD12C,0.00800*%
%ADD79C,0.00600*%
%ADD101C,0.01968*%
%ADD158C,0.00394*%
%ADD159C,0.00197*%
D11*
X-225000Y-70500D02*
X-219000Y-68500D01*
X-225000Y-70500D02*
X-219000Y-72500D01*
X218500D02*
X224500Y-70500D01*
X218500Y-68500D02*
X224500Y-70500D01*
X-225000D02*
X-30441D01*
X26741D02*
X224500D01*
X-225000Y-71500D02*
Y-37500D01*
X224500Y-71500D02*
Y-11500D01*
X-245000Y-57061D02*
X-243000Y-63061D01*
X-241000Y-57061D01*
X-243000Y462500D02*
X-241000Y456500D01*
X-245000D02*
X-243000Y462500D01*
Y-63061D02*
Y168529D01*
Y227711D02*
Y462500D01*
X-244000Y-63061D02*
X-203899D01*
X-244000Y462500D02*
X-122500D01*
D12*
X-121095Y-25969D02*
Y-22031D01*
X-139206Y-25969D02*
Y-22031D01*
X-141174Y-24000D02*
X-137237D01*
D79*
X-28841Y-74099D02*
X-26842D01*
X-27842D01*
Y-68101D01*
X-28841Y-69101D01*
X-23843Y-74099D02*
X-21844D01*
X-22843D01*
Y-68101D01*
X-23843Y-69101D01*
X-15845Y-74099D02*
Y-68101D01*
X-18845Y-71100D01*
X-14846D01*
X-12846Y-74099D02*
Y-73099D01*
X-11847D01*
Y-74099D01*
X-12846D01*
X-7848D02*
X-5849D01*
X-6848D01*
Y-68101D01*
X-7848Y-69101D01*
X-2850Y-68101D02*
X1149D01*
Y-69101D01*
X-2850Y-73099D01*
Y-74099D01*
X3148Y-69101D02*
X4148Y-68101D01*
X6147D01*
X7147Y-69101D01*
Y-70100D01*
X6147Y-71100D01*
X5148D01*
X6147D01*
X7147Y-72100D01*
Y-73099D01*
X6147Y-74099D01*
X4148D01*
X3148Y-73099D01*
X9146Y-69101D02*
X10146Y-68101D01*
X12145D01*
X13145Y-69101D01*
Y-73099D01*
X12145Y-74099D01*
X10146D01*
X9146Y-73099D01*
Y-69101D01*
X15145D02*
X16144Y-68101D01*
X18144D01*
X19143Y-69101D01*
Y-73099D01*
X18144Y-74099D01*
X16144D01*
X15145Y-73099D01*
Y-69101D01*
X21143D02*
X22142Y-68101D01*
X24142D01*
X25141Y-69101D01*
Y-73099D01*
X24142Y-74099D01*
X22142D01*
X21143Y-73099D01*
Y-69101D01*
X-239401Y170129D02*
Y172128D01*
Y171128D01*
X-245399D01*
X-244399Y170129D01*
Y175127D02*
X-245399Y176127D01*
Y178126D01*
X-244399Y179126D01*
X-243400D01*
X-242400Y178126D01*
Y177127D01*
Y178126D01*
X-241400Y179126D01*
X-240401D01*
X-239401Y178126D01*
Y176127D01*
X-240401Y175127D01*
X-244399Y181125D02*
X-245399Y182125D01*
Y184124D01*
X-244399Y185124D01*
X-243400D01*
X-242400Y184124D01*
Y183125D01*
Y184124D01*
X-241400Y185124D01*
X-240401D01*
X-239401Y184124D01*
Y182125D01*
X-240401Y181125D01*
X-239401Y187123D02*
X-240401D01*
Y188123D01*
X-239401D01*
Y187123D01*
Y195121D02*
X-245399D01*
X-242400Y192122D01*
Y196120D01*
X-240401Y198120D02*
X-239401Y199119D01*
Y201119D01*
X-240401Y202118D01*
X-244399D01*
X-245399Y201119D01*
Y199119D01*
X-244399Y198120D01*
X-243400D01*
X-242400Y199119D01*
Y202118D01*
X-239401Y208117D02*
Y204118D01*
X-243400Y208117D01*
X-244399D01*
X-245399Y207117D01*
Y205118D01*
X-244399Y204118D01*
Y210116D02*
X-245399Y211116D01*
Y213115D01*
X-244399Y214114D01*
X-240401D01*
X-239401Y213115D01*
Y211116D01*
X-240401Y210116D01*
X-244399D01*
Y216114D02*
X-245399Y217114D01*
Y219113D01*
X-244399Y220113D01*
X-240401D01*
X-239401Y219113D01*
Y217114D01*
X-240401Y216114D01*
X-244399D01*
Y222112D02*
X-245399Y223112D01*
Y225111D01*
X-244399Y226111D01*
X-240401D01*
X-239401Y225111D01*
Y223112D01*
X-240401Y222112D01*
X-244399D01*
D101*
X-0Y450787D02*
X115353D01*
X-115356Y450787D02*
X-0Y450787D01*
Y187008D02*
Y450787D01*
X-35433Y187008D02*
X35433D01*
X-0D02*
X0Y0D01*
X-212598D02*
X212598D01*
X-35433Y68898D02*
X35433D01*
D158*
X-138581Y193248D02*
X-136219D01*
X-137400Y172776D02*
Y175138D01*
X-138581Y173957D02*
X-136219D01*
X-145181Y47900D02*
X-142819D01*
X-144000Y66010D02*
Y68372D01*
X-145181Y67191D02*
X-142819D01*
D159*
X109679Y42000D02*
X109357Y42886D01*
X108540Y43357D01*
X107612Y43193D01*
X107006Y42471D01*
Y41529D01*
X107612Y40807D01*
X108540Y40643D01*
X109357Y41114D01*
X109679Y42000D01*
X108301Y40031D02*
Y43968D01*
X106333Y42000D02*
X110270D01*
M02*
