G04*
G04 #@! TF.GenerationSoftware,Altium Limited,Altium Designer,20.1.11 (218)*
G04*
G04 Layer_Color=16711935*
%FSLAX25Y25*%
%MOIN*%
G70*
G04*
G04 #@! TF.SameCoordinates,1E5C8DF0-0C21-4807-87EA-DBAC22A10C90*
G04*
G04*
G04 #@! TF.FilePolarity,Positive*
G04*
G01*
G75*
%ADD101C,0.01968*%
D101*
X-161899Y-63061D02*
X-161899Y-63061D01*
Y-63060D02*
X-160847Y-63015D01*
X-159803Y-62877D01*
X-158775Y-62649D01*
X-157771Y-62333D01*
X-156798Y-61930D01*
X-155863Y-61443D01*
X-154975Y-60878D01*
X-154140Y-60237D01*
X-153364Y-59525D01*
X-121633Y-32794D02*
X-122685Y-32840D01*
X-123729Y-32978D01*
X-124757Y-33206D01*
X-125761Y-33522D01*
X-126734Y-33925D01*
X-127668Y-34412D01*
X-128557Y-34977D01*
X-129392Y-35618D01*
X-130168Y-36330D01*
X205367Y-32794D02*
X206419Y-32748D01*
X207463Y-32611D01*
X208491Y-32383D01*
X209496Y-32066D01*
X210469Y-31664D01*
X211403Y-31177D01*
X212291Y-30611D01*
X213126Y-29970D01*
X213903Y-29259D01*
X220832Y-22330D02*
X221543Y-21553D01*
X222184Y-20718D01*
X222750Y-19830D01*
X223236Y-18896D01*
X223639Y-17923D01*
X223956Y-16919D01*
X224184Y-15890D01*
X224321Y-14846D01*
X224367Y-13794D01*
X-224399Y-41561D02*
X-224353Y-42613D01*
X-224216Y-43657D01*
X-223988Y-44685D01*
X-223671Y-45689D01*
X-223268Y-46662D01*
X-222782Y-47596D01*
X-222216Y-48484D01*
X-221575Y-49320D01*
X-220864Y-50096D01*
X-211435Y-59525D02*
X-210658Y-60237D01*
X-209823Y-60878D01*
X-208934Y-61443D01*
X-208000Y-61930D01*
X-207028Y-62333D01*
X-206023Y-62649D01*
X-204995Y-62877D01*
X-203951Y-63015D01*
X-202899Y-63061D01*
X178603Y161158D02*
X178527Y162118D01*
X178302Y163055D01*
X177934Y163944D01*
X177430Y164766D01*
X176805Y165498D01*
X130945Y215753D02*
X130991Y214701D01*
X131128Y213657D01*
X131356Y212629D01*
X131673Y211625D01*
X132076Y210652D01*
X132562Y209718D01*
X133128Y208830D01*
X133769Y207994D01*
X134480Y207218D01*
X-178695Y163608D02*
X-178966Y162955D01*
X81396Y462439D02*
X80344Y462394D01*
X79300Y462256D01*
X78272Y462028D01*
X77268Y461712D01*
X76295Y461308D01*
X75361Y460822D01*
X74473Y460256D01*
X73637Y459615D01*
X72861Y458904D01*
X72432Y458475D02*
X71720Y457699D01*
X71079Y456863D01*
X70513Y455975D01*
X70027Y455041D01*
X69624Y454068D01*
X69308Y453064D01*
X69080Y452036D01*
X68942Y450991D01*
X68896Y449939D01*
X37512Y226650D02*
X38518Y226666D01*
X39524Y226715D01*
X40527Y226795D01*
X41527Y226908D01*
X42524Y227053D01*
X43515Y227229D01*
X44500Y227438D01*
X45477Y227677D01*
X46447Y227948D01*
X47407Y228250D01*
X48357Y228583D01*
X49297Y228945D01*
X50224Y229338D01*
X51137Y229760D01*
X52037Y230211D01*
X52922Y230691D01*
X53791Y231199D01*
X54644Y231735D01*
X55479Y232298D01*
X56295Y232887D01*
X57092Y233502D01*
X57869Y234142D01*
X58625Y234807D01*
X59359Y235495D01*
X60071Y236207D01*
X60760Y236941D01*
X61424Y237697D01*
X62064Y238474D01*
X62679Y239271D01*
X63269Y240088D01*
X63831Y240922D01*
X64367Y241775D01*
X64875Y242644D01*
X65355Y243529D01*
X65806Y244429D01*
X66228Y245343D01*
X66621Y246270D01*
X66984Y247209D01*
X67316Y248159D01*
X67618Y249119D01*
X67889Y250089D01*
X68129Y251066D01*
X68337Y252051D01*
X68514Y253043D01*
X68658Y254039D01*
X68771Y255039D01*
X68852Y256043D01*
X68900Y257048D01*
X68916Y258055D01*
X128896Y459939D02*
X128182Y460577D01*
X127402Y461131D01*
X126564Y461594D01*
X125680Y461961D01*
X124760Y462225D01*
X123816Y462386D01*
X122861Y462439D01*
X130942Y383329D02*
X130896Y383439D01*
X129361Y459475D02*
X130137Y458764D01*
X130973Y458122D01*
X131861Y457557D01*
X132795Y457070D01*
X133768Y456667D01*
X134772Y456351D01*
X135800Y456123D01*
X136844Y455985D01*
X137896Y455939D01*
X169396Y427940D02*
X170395Y427975D01*
X171389Y428082D01*
X172372Y428259D01*
X173340Y428507D01*
X174289Y428822D01*
X175212Y429205D01*
X176106Y429652D01*
X176965Y430162D01*
X177786Y430732D01*
X178564Y431359D01*
X179296Y432040D01*
X179977Y432771D01*
X180604Y433550D01*
X181174Y434371D01*
X181684Y435230D01*
X182131Y436124D01*
X182514Y437047D01*
X182829Y437995D01*
X183076Y438964D01*
X183254Y439947D01*
X183361Y440941D01*
X183396Y441939D01*
X183361Y442938D01*
X183254Y443932D01*
X183076Y444915D01*
X182829Y445884D01*
X182514Y446832D01*
X182131Y447755D01*
X181684Y448649D01*
X181174Y449508D01*
X180604Y450329D01*
X179977Y451108D01*
X179296Y451839D01*
X178564Y452520D01*
X177786Y453147D01*
X176965Y453717D01*
X176106Y454227D01*
X175212Y454674D01*
X174289Y455057D01*
X173340Y455372D01*
X172372Y455619D01*
X171389Y455797D01*
X170395Y455904D01*
X169396Y455939D01*
X150896Y427940D02*
X149900Y427867D01*
X148908Y427747D01*
X147924Y427581D01*
X146948Y427367D01*
X145983Y427108D01*
X145032Y426803D01*
X144096Y426453D01*
X143178Y426059D01*
X142280Y425622D01*
X141404Y425142D01*
X140552Y424622D01*
X139725Y424061D01*
X138926Y423462D01*
X138156Y422826D01*
X137417Y422154D01*
X136711Y421447D01*
X136040Y420707D01*
X135404Y419937D01*
X134806Y419137D01*
X134246Y418309D01*
X133727Y417456D01*
X133248Y416579D01*
X132812Y415681D01*
X132420Y414763D01*
X132071Y413827D01*
X131767Y412875D01*
X131508Y411910D01*
X131296Y410934D01*
X131131Y409949D01*
X131012Y408957D01*
X130941Y407961D01*
X130917Y406962D01*
X-130920Y406962D02*
X-130944Y407961D01*
X-131015Y408957D01*
X-131133Y409949D01*
X-131299Y410934D01*
X-131511Y411910D01*
X-131770Y412875D01*
X-132073Y413827D01*
X-132422Y414763D01*
X-132815Y415681D01*
X-133251Y416579D01*
X-133730Y417456D01*
X-134249Y418309D01*
X-134809Y419137D01*
X-135407Y419937D01*
X-136042Y420707D01*
X-136714Y421447D01*
X-137420Y422154D01*
X-138159Y422826D01*
X-138928Y423462D01*
X-139728Y424061D01*
X-140554Y424622D01*
X-141407Y425142D01*
X-142283Y425622D01*
X-143181Y426059D01*
X-144099Y426453D01*
X-145035Y426803D01*
X-145986Y427108D01*
X-146950Y427367D01*
X-147926Y427581D01*
X-148911Y427747D01*
X-149903Y427867D01*
X-150899Y427940D01*
X-169399Y455939D02*
X-170398Y455904D01*
X-171391Y455797D01*
X-172375Y455619D01*
X-173343Y455372D01*
X-174292Y455057D01*
X-175215Y454674D01*
X-176109Y454227D01*
X-176968Y453717D01*
X-177789Y453147D01*
X-178567Y452520D01*
X-179298Y451839D01*
X-179980Y451108D01*
X-180607Y450329D01*
X-181177Y449508D01*
X-181686Y448649D01*
X-182134Y447755D01*
X-182516Y446832D01*
X-182832Y445884D01*
X-183079Y444915D01*
X-183256Y443932D01*
X-183363Y442938D01*
X-183399Y441939D01*
X-183363Y440941D01*
X-183256Y439947D01*
X-183079Y438964D01*
X-182832Y437995D01*
X-182516Y437047D01*
X-182134Y436124D01*
X-181686Y435230D01*
X-181177Y434371D01*
X-180607Y433550D01*
X-179980Y432771D01*
X-179298Y432040D01*
X-178567Y431359D01*
X-177789Y430732D01*
X-176968Y430162D01*
X-176109Y429652D01*
X-175215Y429205D01*
X-174292Y428822D01*
X-173343Y428507D01*
X-172375Y428259D01*
X-171391Y428082D01*
X-170398Y427975D01*
X-169399Y427940D01*
X-137899Y455939D02*
X-136847Y455985D01*
X-135803Y456123D01*
X-134775Y456351D01*
X-133771Y456667D01*
X-132798Y457070D01*
X-131863Y457557D01*
X-130975Y458122D01*
X-130140Y458764D01*
X-129364Y459475D01*
X-130899Y383439D02*
X-130945Y383329D01*
X-122863Y462439D02*
X-123819Y462386D01*
X-124763Y462225D01*
X-125683Y461961D01*
X-126567Y461594D01*
X-127405Y461131D01*
X-128185Y460577D01*
X-128899Y459939D01*
X-68919Y258055D02*
X-68903Y257048D01*
X-68854Y256043D01*
X-68774Y255039D01*
X-68661Y254039D01*
X-68516Y253043D01*
X-68340Y252051D01*
X-68132Y251067D01*
X-67892Y250089D01*
X-67621Y249119D01*
X-67319Y248159D01*
X-66987Y247209D01*
X-66624Y246270D01*
X-66231Y245343D01*
X-65809Y244429D01*
X-65358Y243529D01*
X-64878Y242644D01*
X-64370Y241775D01*
X-63834Y240922D01*
X-63271Y240088D01*
X-62682Y239271D01*
X-62067Y238474D01*
X-61427Y237698D01*
X-60762Y236942D01*
X-60074Y236207D01*
X-59362Y235495D01*
X-58628Y234807D01*
X-57872Y234142D01*
X-57095Y233502D01*
X-56298Y232887D01*
X-55481Y232298D01*
X-54647Y231735D01*
X-53794Y231199D01*
X-52925Y230691D01*
X-52040Y230211D01*
X-51140Y229760D01*
X-50226Y229338D01*
X-49299Y228945D01*
X-48360Y228583D01*
X-47410Y228250D01*
X-46450Y227948D01*
X-45480Y227677D01*
X-44503Y227438D01*
X-43518Y227229D01*
X-42527Y227053D01*
X-41530Y226908D01*
X-40530Y226795D01*
X-39527Y226715D01*
X-38521Y226666D01*
X-37514Y226650D01*
X-68899Y449939D02*
X-68945Y450991D01*
X-69082Y452036D01*
X-69310Y453064D01*
X-69627Y454068D01*
X-70030Y455041D01*
X-70516Y455975D01*
X-71082Y456863D01*
X-71723Y457699D01*
X-72435Y458475D01*
X-72864Y458904D02*
X-73640Y459615D01*
X-74475Y460256D01*
X-75363Y460822D01*
X-76298Y461308D01*
X-77271Y461712D01*
X-78275Y462028D01*
X-79303Y462256D01*
X-80347Y462394D01*
X-81399Y462439D01*
X-134480Y207218D02*
X-133769Y207994D01*
X-133128Y208830D01*
X-132562Y209718D01*
X-132076Y210652D01*
X-131673Y211625D01*
X-131356Y212629D01*
X-131128Y213657D01*
X-130991Y214701D01*
X-130945Y215753D01*
X178603Y161158D02*
X178818Y160179D01*
X179037Y159201D01*
X179260Y158224D01*
X179488Y157248D01*
X179719Y156273D01*
X179954Y155298D01*
X180193Y154325D01*
X180436Y153353D01*
X180683Y152382D01*
X180934Y151411D01*
X181189Y150442D01*
X181448Y149474D01*
X181710Y148507D01*
X181977Y147540D01*
X182248Y146576D01*
X182522Y145612D01*
X182801Y144649D01*
X183083Y143687D01*
X183369Y142727D01*
X183659Y141768D01*
X183953Y140810D01*
X184251Y139853D01*
X184553Y138897D01*
X184859Y137943D01*
X185169Y136989D01*
X185482Y136038D01*
X185800Y135087D01*
X186121Y134137D01*
X186446Y133189D01*
X186775Y132243D01*
X187108Y131298D01*
X187444Y130353D01*
X187785Y129411D01*
X188129Y128470D01*
X188477Y127530D01*
X188829Y126592D01*
X189185Y125655D01*
X189544Y124719D01*
X189908Y123785D01*
X190275Y122853D01*
X190646Y121922D01*
X191021Y120992D01*
X191399Y120064D01*
X191781Y119138D01*
X192167Y118213D01*
X192557Y117289D01*
X192951Y116368D01*
X193348Y115448D01*
X193749Y114529D01*
X194154Y113612D01*
X194562Y112697D01*
X194975Y111784D01*
X195391Y110872D01*
X195810Y109962D01*
X196233Y109053D01*
X196661Y108147D01*
X197091Y107242D01*
X197526Y106339D01*
X197964Y105437D01*
X198405Y104538D01*
X198851Y103640D01*
X199300Y102744D01*
X199752Y101850D01*
X200209Y100957D01*
X200669Y100067D01*
X201132Y99178D01*
X201599Y98292D01*
X202070Y97407D01*
X202544Y96524D01*
X203022Y95643D01*
X203504Y94764D01*
X203989Y93887D01*
X204478Y93012D01*
X204970Y92139D01*
X205466Y91268D01*
X205965Y90399D01*
X206468Y89532D01*
X206974Y88667D01*
X207484Y87805D01*
X207997Y86944D01*
X208514Y86085D01*
X209034Y85229D01*
X209558Y84374D01*
X210086Y83522D01*
X210616Y82672D01*
X211151Y81824D01*
X211688Y80978D01*
X212229Y80134D01*
X212774Y79293D01*
X213322Y78454D01*
X213873Y77617D01*
X214428Y76782D01*
X214986Y75950D01*
X215547Y75120D01*
X216112Y74292D01*
X216681Y73466D01*
X217252Y72643D01*
X217827Y71822D01*
X218405Y71004D01*
X218987Y70188D01*
X219572Y69374D01*
X220160Y68562D01*
X220752Y67753D01*
X221346Y66947D01*
X221944Y66143D01*
X222546Y65341D01*
X223150Y64542D01*
X223758Y63745D01*
X224367Y62953D01*
X-224399Y67898D02*
X-223783Y68688D01*
X-223170Y69481D01*
X-222560Y70276D01*
X-221954Y71073D01*
X-221351Y71873D01*
X-220751Y72676D01*
X-220155Y73481D01*
X-219561Y74289D01*
X-218972Y75099D01*
X-218385Y75911D01*
X-217802Y76726D01*
X-217222Y77543D01*
X-216646Y78363D01*
X-216073Y79185D01*
X-215503Y80009D01*
X-214937Y80835D01*
X-214374Y81664D01*
X-213815Y82496D01*
X-213259Y83329D01*
X-212707Y84165D01*
X-212158Y85003D01*
X-211612Y85844D01*
X-211070Y86686D01*
X-210531Y87531D01*
X-209996Y88378D01*
X-209465Y89228D01*
X-208937Y90079D01*
X-208412Y90933D01*
X-207891Y91789D01*
X-207373Y92647D01*
X-206859Y93507D01*
X-206349Y94369D01*
X-205842Y95233D01*
X-205339Y96100D01*
X-204839Y96968D01*
X-204343Y97838D01*
X-203851Y98711D01*
X-203362Y99586D01*
X-202876Y100462D01*
X-202395Y101341D01*
X-201916Y102221D01*
X-201442Y103104D01*
X-200971Y103988D01*
X-200504Y104875D01*
X-200041Y105763D01*
X-199581Y106653D01*
X-199125Y107545D01*
X-198672Y108439D01*
X-198223Y109335D01*
X-197778Y110233D01*
X-197337Y111132D01*
X-196899Y112033D01*
X-196465Y112937D01*
X-196035Y113841D01*
X-195609Y114748D01*
X-195186Y115657D01*
X-194767Y116567D01*
X-194352Y117479D01*
X-193940Y118392D01*
X-193533Y119307D01*
X-193129Y120224D01*
X-192729Y121143D01*
X-192332Y122063D01*
X-191940Y122985D01*
X-191551Y123909D01*
X-191166Y124834D01*
X-190785Y125760D01*
X-190408Y126689D01*
X-190034Y127618D01*
X-189665Y128550D01*
X-189299Y129482D01*
X-188937Y130417D01*
X-188579Y131352D01*
X-188225Y132290D01*
X-187875Y133229D01*
X-187528Y134169D01*
X-187186Y135110D01*
X-186847Y136053D01*
X-186512Y136998D01*
X-186181Y137943D01*
X-185854Y138891D01*
X-185531Y139839D01*
X-185212Y140789D01*
X-184897Y141740D01*
X-184586Y142692D01*
X-184278Y143646D01*
X-183975Y144601D01*
X-183675Y145557D01*
X-183380Y146514D01*
X-183088Y147473D01*
X-182801Y148433D01*
X-182517Y149393D01*
X-182237Y150356D01*
X-181962Y151319D01*
X-181690Y152283D01*
X-181422Y153249D01*
X-181158Y154215D01*
X-180898Y155183D01*
X-180643Y156152D01*
X-180391Y157122D01*
X-180143Y158092D01*
X-179899Y159064D01*
X-179659Y160037D01*
X-179423Y161011D01*
X-179192Y161986D01*
X-178966Y162955D01*
X224367Y-13561D02*
Y62953D01*
X-201399Y-63061D02*
X-161899D01*
X-153364Y-59525D02*
X-130168Y-36330D01*
X-121633Y-32794D02*
X205367D01*
X213903Y-29259D02*
X220832Y-22330D01*
X224367Y-13794D02*
Y-13561D01*
X-224399Y-41561D02*
Y67898D01*
X-220864Y-50096D02*
X-211435Y-59525D01*
X-202899Y-63061D02*
X-201399D01*
X174886Y167417D02*
X176805Y165498D01*
X134480Y207218D02*
X140566Y201133D01*
X174886Y167417D01*
X-178695Y163608D02*
X-174886Y167417D01*
X-140566Y201133D01*
X-37514Y226650D02*
X37512D01*
X130942Y215753D02*
Y226670D01*
X72432Y458475D02*
X72861Y458904D01*
X68896Y258035D02*
Y449939D01*
X81396Y462439D02*
X122861D01*
X130942Y226512D02*
X130942Y406962D01*
X128896Y459939D02*
X129361Y459475D01*
X137896Y455939D02*
X169396D01*
X150896Y427940D02*
X169396D01*
X-169399D02*
X-150899D01*
X-169399Y455939D02*
X-137899D01*
X-129364Y459475D02*
X-128899Y459939D01*
X-130945Y406962D02*
X-130945Y226512D01*
X-122863Y462439D02*
X-81399D01*
X-68899Y258035D02*
Y449939D01*
X-72864Y458904D02*
X-72435Y458475D01*
X-140566Y201133D02*
X-134480Y207218D01*
X-130945Y215753D02*
Y226670D01*
X130945Y215596D02*
Y226512D01*
M02*
