G04*
G04 #@! TF.GenerationSoftware,Altium Limited,Altium Designer,20.1.11 (218)*
G04*
G04 Layer_Color=65535*
%FSLAX25Y25*%
%MOIN*%
G70*
G04*
G04 #@! TF.SameCoordinates,9EE67B27-E454-41D5-82AA-807338E90DDB*
G04*
G04*
G04 #@! TF.FilePolarity,Positive*
G04*
G01*
G75*
%ADD10C,0.01000*%
%ADD11C,0.01000*%
%ADD12C,0.00800*%
%ADD13C,0.00984*%
%ADD14C,0.00591*%
%ADD15C,0.00787*%
%ADD16C,0.01200*%
%ADD17C,0.00700*%
G36*
X-206399Y-101746D02*
X-206382Y-101763D01*
X-206354Y-101785D01*
X-206321Y-101813D01*
X-206276Y-101846D01*
X-206226Y-101885D01*
X-206116Y-101963D01*
Y-101968D01*
X-206121Y-101979D01*
X-206132Y-102002D01*
X-206143Y-102029D01*
X-206160Y-102068D01*
X-206182Y-102107D01*
X-206226Y-102207D01*
X-206288Y-102324D01*
X-206349Y-102446D01*
X-206421Y-102573D01*
X-206499Y-102695D01*
X-205660D01*
Y-103001D01*
X-206460D01*
Y-104871D01*
X-205638D01*
Y-105171D01*
X-206493D01*
Y-105176D01*
X-206482Y-105187D01*
X-206471Y-105210D01*
X-206449Y-105237D01*
X-206426Y-105271D01*
X-206404Y-105315D01*
X-206376Y-105359D01*
X-206343Y-105409D01*
X-206276Y-105531D01*
X-206204Y-105665D01*
X-206132Y-105803D01*
X-206066Y-105953D01*
X-206071Y-105959D01*
X-206093Y-105970D01*
X-206121Y-105992D01*
X-206160Y-106020D01*
X-206243Y-106086D01*
X-206282Y-106120D01*
X-206321Y-106153D01*
X-206327Y-106142D01*
X-206332Y-106120D01*
X-206349Y-106081D01*
X-206371Y-106031D01*
X-206399Y-105970D01*
X-206432Y-105898D01*
X-206471Y-105815D01*
X-206515Y-105726D01*
X-206559Y-105626D01*
X-206615Y-105526D01*
X-206737Y-105309D01*
X-206881Y-105087D01*
X-207037Y-104871D01*
Y-106042D01*
X-207292D01*
Y-104727D01*
X-207575D01*
Y-105665D01*
X-207825D01*
Y-104727D01*
X-208108D01*
Y-105576D01*
X-208358D01*
Y-104727D01*
X-208574D01*
Y-104432D01*
X-208358D01*
Y-103450D01*
X-208574D01*
Y-103156D01*
X-208358D01*
Y-102318D01*
X-208108D01*
Y-103156D01*
X-207825D01*
Y-102201D01*
X-207575D01*
Y-103156D01*
X-207292D01*
Y-101852D01*
X-207037D01*
Y-102967D01*
X-207031Y-102962D01*
X-207020Y-102945D01*
X-206998Y-102917D01*
X-206970Y-102884D01*
X-206937Y-102840D01*
X-206898Y-102779D01*
X-206859Y-102718D01*
X-206809Y-102640D01*
X-206759Y-102557D01*
X-206709Y-102468D01*
X-206660Y-102362D01*
X-206604Y-102257D01*
X-206554Y-102140D01*
X-206499Y-102013D01*
X-206449Y-101880D01*
X-206404Y-101741D01*
X-206399Y-101746D01*
D02*
G37*
G36*
X-205006Y-102163D02*
X-205011Y-102174D01*
X-205017Y-102201D01*
X-205033Y-102246D01*
X-205055Y-102307D01*
X-205083Y-102385D01*
X-205111Y-102479D01*
X-205144Y-102584D01*
X-205183Y-102707D01*
X-205228Y-102834D01*
X-205272Y-102978D01*
X-205322Y-103128D01*
X-205366Y-103284D01*
X-205422Y-103456D01*
X-205472Y-103628D01*
X-205577Y-103989D01*
X-205572Y-103994D01*
X-205561Y-104005D01*
X-205538Y-104027D01*
X-205511Y-104061D01*
X-205477Y-104105D01*
X-205444Y-104161D01*
X-205400Y-104233D01*
X-205355Y-104322D01*
X-205311Y-104421D01*
X-205261Y-104544D01*
X-205211Y-104677D01*
X-205167Y-104832D01*
X-205122Y-105010D01*
X-205078Y-105204D01*
X-205055Y-105309D01*
X-205033Y-105426D01*
X-205017Y-105543D01*
X-205000Y-105665D01*
X-205011Y-105670D01*
X-205022Y-105676D01*
X-205050Y-105692D01*
X-205089Y-105715D01*
X-205144Y-105742D01*
X-205222Y-105781D01*
X-205266Y-105803D01*
X-205316Y-105831D01*
Y-105815D01*
X-205322Y-105798D01*
Y-105776D01*
X-205327Y-105748D01*
X-205333Y-105715D01*
X-205344Y-105631D01*
X-205361Y-105531D01*
X-205377Y-105420D01*
X-205400Y-105298D01*
X-205422Y-105171D01*
X-205483Y-104904D01*
X-205516Y-104777D01*
X-205549Y-104655D01*
X-205588Y-104544D01*
X-205633Y-104444D01*
X-205677Y-104360D01*
X-205699Y-104327D01*
X-205721Y-104299D01*
X-205733Y-104288D01*
X-205755Y-104266D01*
X-205799Y-104233D01*
X-205866Y-104188D01*
X-205905Y-104172D01*
X-205949Y-104149D01*
X-206005Y-104133D01*
X-206060Y-104116D01*
X-206127Y-104105D01*
X-206193Y-104094D01*
X-206271Y-104083D01*
X-206354D01*
Y-103772D01*
X-206349D01*
X-206343D01*
X-206327D01*
X-206304D01*
X-206243Y-103778D01*
X-206171Y-103783D01*
X-206088Y-103789D01*
X-205993Y-103805D01*
X-205905Y-103822D01*
X-205821Y-103850D01*
Y-103839D01*
X-205810Y-103811D01*
X-205799Y-103761D01*
X-205783Y-103694D01*
X-205760Y-103611D01*
X-205738Y-103517D01*
X-205710Y-103406D01*
X-205677Y-103284D01*
X-205644Y-103150D01*
X-205605Y-103006D01*
X-205561Y-102856D01*
X-205522Y-102701D01*
X-205427Y-102368D01*
X-205327Y-102029D01*
X-205006Y-102163D01*
D02*
G37*
G36*
X-208269Y-102257D02*
X-208718D01*
Y-105637D01*
X-208263D01*
Y-105959D01*
X-208985D01*
Y-104088D01*
X-208991Y-104094D01*
X-209013Y-104105D01*
X-209040Y-104122D01*
X-209079Y-104144D01*
X-209124Y-104172D01*
X-209174Y-104200D01*
X-209274Y-104261D01*
X-209418Y-103944D01*
X-209412Y-103939D01*
X-209390Y-103928D01*
X-209351Y-103900D01*
X-209301Y-103872D01*
X-209240Y-103833D01*
X-209168Y-103789D01*
X-209079Y-103739D01*
X-208985Y-103683D01*
Y-101929D01*
X-208269D01*
Y-102257D01*
D02*
G37*
G36*
X-207880Y-110654D02*
X-208163D01*
Y-109455D01*
X-208175Y-109461D01*
X-208197Y-109477D01*
X-208230Y-109500D01*
X-208275Y-109527D01*
X-208330Y-109561D01*
X-208385Y-109605D01*
X-208502Y-109688D01*
X-208658Y-109411D01*
X-208652D01*
X-208646Y-109400D01*
X-208630Y-109389D01*
X-208608Y-109378D01*
X-208558Y-109333D01*
X-208485Y-109289D01*
X-208408Y-109233D01*
X-208330Y-109172D01*
X-208241Y-109117D01*
X-208163Y-109067D01*
Y-107918D01*
X-208169D01*
X-208175Y-107912D01*
X-208208Y-107890D01*
X-208252Y-107862D01*
X-208319Y-107824D01*
X-208397Y-107785D01*
X-208480Y-107735D01*
X-208574Y-107685D01*
X-208674Y-107635D01*
Y-110477D01*
X-208957D01*
Y-108601D01*
X-208963Y-108606D01*
X-208985Y-108617D01*
X-209018Y-108634D01*
X-209063Y-108656D01*
X-209113Y-108689D01*
X-209168Y-108723D01*
X-209296Y-108800D01*
X-209440Y-108495D01*
X-209429Y-108490D01*
X-209401Y-108473D01*
X-209357Y-108445D01*
X-209296Y-108406D01*
X-209224Y-108368D01*
X-209140Y-108318D01*
X-209051Y-108268D01*
X-208957Y-108212D01*
Y-106481D01*
X-208674D01*
Y-107624D01*
X-208524Y-107319D01*
X-208513Y-107324D01*
X-208491Y-107341D01*
X-208452Y-107369D01*
X-208402Y-107396D01*
X-208341Y-107435D01*
X-208286Y-107474D01*
X-208225Y-107513D01*
X-208163Y-107552D01*
Y-106303D01*
X-207880D01*
Y-110654D01*
D02*
G37*
G36*
X-206032Y-106286D02*
X-206010D01*
X-205943Y-106297D01*
X-205866Y-106308D01*
X-205783Y-106325D01*
X-205694Y-106342D01*
X-205610Y-106358D01*
X-205533Y-106381D01*
X-205527D01*
X-205516Y-106386D01*
X-205494Y-106392D01*
X-205472Y-106403D01*
X-205411Y-106436D01*
X-205339Y-106486D01*
X-205300Y-106519D01*
X-205261Y-106558D01*
X-205228Y-106603D01*
X-205200Y-106652D01*
X-205178Y-106714D01*
X-205155Y-106775D01*
X-205144Y-106847D01*
X-205139Y-106924D01*
Y-107618D01*
X-205144Y-107646D01*
X-205150Y-107679D01*
X-205155Y-107718D01*
X-205167Y-107768D01*
X-205183Y-107812D01*
X-205211Y-107862D01*
X-205239Y-107918D01*
X-205277Y-107962D01*
X-205322Y-108007D01*
X-205377Y-108051D01*
X-205438Y-108084D01*
X-205516Y-108112D01*
X-205599Y-108129D01*
X-205699Y-108134D01*
X-206304D01*
Y-108928D01*
X-206293D01*
X-206260Y-108934D01*
X-206210Y-108945D01*
X-206143Y-108961D01*
X-206066Y-108989D01*
X-205977Y-109028D01*
X-205877Y-109083D01*
X-205777Y-109150D01*
X-205666Y-109233D01*
X-205561Y-109339D01*
X-205505Y-109400D01*
X-205455Y-109466D01*
X-205405Y-109539D01*
X-205355Y-109616D01*
X-205305Y-109699D01*
X-205261Y-109794D01*
X-205216Y-109888D01*
X-205178Y-109994D01*
X-205139Y-110105D01*
X-205100Y-110227D01*
X-205072Y-110354D01*
X-205044Y-110488D01*
X-205050Y-110493D01*
X-205072Y-110504D01*
X-205105Y-110521D01*
X-205150Y-110549D01*
X-205200Y-110576D01*
X-205255Y-110610D01*
X-205377Y-110693D01*
Y-110676D01*
X-205383Y-110660D01*
X-205388Y-110632D01*
X-205394Y-110604D01*
X-205400Y-110565D01*
X-205422Y-110477D01*
X-205444Y-110377D01*
X-205477Y-110260D01*
X-205516Y-110132D01*
X-205566Y-110005D01*
X-205622Y-109872D01*
X-205688Y-109749D01*
X-205766Y-109627D01*
X-205849Y-109522D01*
X-205949Y-109427D01*
X-205999Y-109389D01*
X-206054Y-109355D01*
X-206110Y-109322D01*
X-206171Y-109300D01*
X-206238Y-109283D01*
X-206304Y-109278D01*
Y-109738D01*
X-206138D01*
Y-110049D01*
X-207520D01*
Y-106930D01*
X-206138D01*
Y-107241D01*
X-206304D01*
Y-107785D01*
X-205744D01*
X-205738D01*
X-205733D01*
X-205699Y-107779D01*
X-205655Y-107774D01*
X-205599Y-107751D01*
X-205544Y-107724D01*
X-205500Y-107679D01*
X-205466Y-107613D01*
X-205461Y-107574D01*
X-205455Y-107529D01*
Y-107008D01*
X-205461Y-106974D01*
X-205466Y-106930D01*
X-205483Y-106875D01*
X-205505Y-106819D01*
X-205544Y-106769D01*
X-205594Y-106725D01*
X-205666Y-106697D01*
X-205672D01*
X-205699Y-106691D01*
X-205738Y-106680D01*
X-205794Y-106669D01*
X-205866Y-106658D01*
X-205960Y-106647D01*
X-206066Y-106630D01*
X-206193Y-106619D01*
X-206188Y-106614D01*
X-206182Y-106591D01*
X-206171Y-106564D01*
X-206154Y-106519D01*
X-206132Y-106469D01*
X-206110Y-106414D01*
X-206088Y-106347D01*
X-206066Y-106281D01*
X-206060D01*
X-206049D01*
X-206032Y-106286D01*
D02*
G37*
G36*
X-205949Y-112674D02*
X-205022D01*
Y-113024D01*
X-205949D01*
Y-115183D01*
X-206276D01*
Y-113024D01*
X-207037D01*
Y-114650D01*
X-207359D01*
X-207364Y-114645D01*
X-207381Y-114639D01*
X-207414Y-114622D01*
X-207453Y-114600D01*
X-207498Y-114572D01*
X-207553Y-114545D01*
X-207620Y-114506D01*
X-207692Y-114467D01*
X-207769Y-114428D01*
X-207847Y-114384D01*
X-208025Y-114289D01*
X-208208Y-114195D01*
X-208397Y-114101D01*
Y-115011D01*
X-208724D01*
Y-113940D01*
X-208730D01*
X-208741Y-113934D01*
X-208757Y-113923D01*
X-208785Y-113912D01*
X-208818Y-113895D01*
X-208857Y-113879D01*
X-208946Y-113834D01*
X-209057Y-113784D01*
X-209174Y-113734D01*
X-209301Y-113679D01*
X-209429Y-113623D01*
X-209324Y-113290D01*
X-209318D01*
X-209307Y-113296D01*
X-209290Y-113307D01*
X-209268Y-113313D01*
X-209207Y-113340D01*
X-209129Y-113379D01*
X-209040Y-113424D01*
X-208935Y-113468D01*
X-208724Y-113568D01*
Y-111076D01*
X-208397D01*
Y-113729D01*
X-208391Y-113734D01*
X-208369Y-113740D01*
X-208341Y-113757D01*
X-208297Y-113779D01*
X-208247Y-113806D01*
X-208186Y-113834D01*
X-208114Y-113868D01*
X-208041Y-113906D01*
X-207880Y-113990D01*
X-207703Y-114078D01*
X-207525Y-114167D01*
X-207353Y-114262D01*
Y-113024D01*
X-208213D01*
Y-112674D01*
X-207353D01*
Y-111398D01*
X-207037D01*
Y-112674D01*
X-206276D01*
Y-110909D01*
X-205949D01*
Y-112674D01*
D02*
G37*
G36*
X-208336Y-115416D02*
X-208308D01*
X-208247Y-115427D01*
X-208163Y-115433D01*
X-208075Y-115444D01*
X-207975Y-115460D01*
X-207880Y-115471D01*
X-207792Y-115488D01*
X-207786D01*
X-207775Y-115494D01*
X-207758Y-115499D01*
X-207731Y-115505D01*
X-207669Y-115538D01*
X-207636Y-115560D01*
X-207597Y-115588D01*
X-207564Y-115621D01*
X-207525Y-115666D01*
X-207492Y-115710D01*
X-207464Y-115771D01*
X-207436Y-115832D01*
X-207420Y-115910D01*
X-207409Y-115993D01*
X-207403Y-116088D01*
Y-116753D01*
X-207409Y-116781D01*
X-207414Y-116815D01*
X-207420Y-116853D01*
X-207431Y-116903D01*
X-207448Y-116948D01*
X-207470Y-116998D01*
X-207498Y-117053D01*
X-207531Y-117098D01*
X-207575Y-117142D01*
X-207631Y-117186D01*
X-207692Y-117220D01*
X-207758Y-117247D01*
X-207842Y-117264D01*
X-207936Y-117270D01*
X-209384D01*
Y-116926D01*
X-208624D01*
X-208630Y-116920D01*
X-208635Y-116898D01*
X-208646Y-116865D01*
X-208669Y-116820D01*
X-208691Y-116765D01*
X-208718Y-116698D01*
X-208752Y-116626D01*
X-208791Y-116543D01*
X-208829Y-116454D01*
X-208874Y-116359D01*
X-208974Y-116160D01*
X-209085Y-115938D01*
X-209207Y-115716D01*
X-208902Y-115516D01*
X-208896Y-115522D01*
X-208885Y-115549D01*
X-208868Y-115583D01*
X-208841Y-115632D01*
X-208813Y-115699D01*
X-208774Y-115771D01*
X-208735Y-115854D01*
X-208691Y-115949D01*
X-208641Y-116054D01*
X-208591Y-116160D01*
X-208541Y-116276D01*
X-208485Y-116398D01*
X-208374Y-116659D01*
X-208263Y-116926D01*
X-208008D01*
X-208003D01*
X-207997D01*
X-207964Y-116920D01*
X-207914Y-116914D01*
X-207858Y-116898D01*
X-207803Y-116865D01*
X-207753Y-116826D01*
X-207719Y-116765D01*
X-207714Y-116731D01*
X-207708Y-116687D01*
Y-116115D01*
X-207714Y-116082D01*
X-207719Y-116038D01*
X-207736Y-115982D01*
X-207764Y-115927D01*
X-207808Y-115877D01*
X-207864Y-115832D01*
X-207903Y-115821D01*
X-207942Y-115810D01*
X-207953D01*
X-207975Y-115805D01*
X-208019Y-115799D01*
X-208080Y-115793D01*
X-208158Y-115788D01*
X-208258Y-115777D01*
X-208369Y-115771D01*
X-208496Y-115760D01*
X-208491Y-115754D01*
X-208485Y-115732D01*
X-208474Y-115693D01*
X-208458Y-115649D01*
X-208435Y-115599D01*
X-208413Y-115538D01*
X-208369Y-115410D01*
X-208363D01*
X-208352D01*
X-208336Y-115416D01*
D02*
G37*
G36*
X-206099Y-115410D02*
X-206071D01*
X-206043Y-115416D01*
X-206005D01*
X-205916Y-115427D01*
X-205821Y-115438D01*
X-205727Y-115449D01*
X-205633Y-115460D01*
X-205555Y-115477D01*
X-205549D01*
X-205538Y-115483D01*
X-205516Y-115488D01*
X-205494Y-115494D01*
X-205433Y-115522D01*
X-205394Y-115544D01*
X-205361Y-115571D01*
X-205322Y-115599D01*
X-205283Y-115638D01*
X-205250Y-115682D01*
X-205222Y-115738D01*
X-205200Y-115799D01*
X-205178Y-115866D01*
X-205167Y-115943D01*
X-205161Y-116032D01*
Y-116798D01*
X-205167Y-116820D01*
Y-116853D01*
X-205178Y-116892D01*
X-205189Y-116937D01*
X-205205Y-116981D01*
X-205228Y-117025D01*
X-205255Y-117076D01*
X-205289Y-117120D01*
X-205327Y-117164D01*
X-205377Y-117203D01*
X-205438Y-117236D01*
X-205505Y-117259D01*
X-205588Y-117275D01*
X-205677Y-117281D01*
X-207220D01*
Y-116931D01*
X-206493D01*
X-206499Y-116926D01*
X-206504Y-116903D01*
X-206515Y-116870D01*
X-206537Y-116820D01*
X-206559Y-116765D01*
X-206587Y-116698D01*
X-206621Y-116620D01*
X-206660Y-116532D01*
X-206698Y-116437D01*
X-206748Y-116332D01*
X-206798Y-116226D01*
X-206854Y-116110D01*
X-206970Y-115871D01*
X-207109Y-115616D01*
X-206804Y-115416D01*
X-206798Y-115422D01*
X-206787Y-115449D01*
X-206765Y-115488D01*
X-206737Y-115544D01*
X-206704Y-115610D01*
X-206665Y-115688D01*
X-206626Y-115777D01*
X-206576Y-115877D01*
X-206526Y-115988D01*
X-206471Y-116104D01*
X-206415Y-116232D01*
X-206354Y-116359D01*
X-206238Y-116637D01*
X-206127Y-116931D01*
X-205744D01*
X-205738D01*
X-205733D01*
X-205699Y-116926D01*
X-205655Y-116920D01*
X-205605Y-116903D01*
X-205555Y-116876D01*
X-205511Y-116842D01*
X-205477Y-116787D01*
X-205472Y-116753D01*
X-205466Y-116715D01*
Y-116054D01*
X-205472Y-116026D01*
X-205477Y-115993D01*
X-205494Y-115949D01*
X-205516Y-115899D01*
X-205555Y-115860D01*
X-205605Y-115827D01*
X-205677Y-115805D01*
X-205688D01*
X-205716Y-115799D01*
X-205760Y-115793D01*
X-205827Y-115782D01*
X-205905Y-115777D01*
X-206010Y-115766D01*
X-206127Y-115760D01*
X-206260Y-115749D01*
X-206254Y-115744D01*
X-206249Y-115721D01*
X-206238Y-115688D01*
X-206221Y-115644D01*
X-206199Y-115594D01*
X-206182Y-115533D01*
X-206138Y-115405D01*
X-206132D01*
X-206121D01*
X-206099Y-115410D01*
D02*
G37*
G36*
X-205538Y-117714D02*
X-205500Y-117719D01*
X-205461Y-117730D01*
X-205372Y-117764D01*
X-205327Y-117786D01*
X-205283Y-117814D01*
X-205244Y-117852D01*
X-205205Y-117897D01*
X-205178Y-117947D01*
X-205155Y-118008D01*
X-205139Y-118075D01*
X-205133Y-118152D01*
Y-118285D01*
X-205128Y-118358D01*
Y-118652D01*
X-205133D01*
X-205155Y-118657D01*
X-205183Y-118663D01*
X-205222Y-118668D01*
X-205272Y-118679D01*
X-205327Y-118691D01*
X-205394Y-118702D01*
X-205466Y-118718D01*
Y-118707D01*
X-205461Y-118674D01*
Y-118624D01*
X-205455Y-118557D01*
X-205450Y-118485D01*
Y-118413D01*
X-205444Y-118341D01*
Y-118263D01*
X-205450Y-118241D01*
X-205455Y-118202D01*
X-205472Y-118163D01*
X-205500Y-118124D01*
X-205533Y-118086D01*
X-205588Y-118063D01*
X-205660Y-118052D01*
X-206032D01*
Y-119162D01*
X-205089D01*
Y-119506D01*
X-207703D01*
Y-117708D01*
X-205610D01*
X-205605D01*
X-205588D01*
X-205566D01*
X-205538Y-117714D01*
D02*
G37*
G36*
X-207997Y-117397D02*
X-207986Y-117420D01*
X-207964Y-117453D01*
X-207936Y-117492D01*
X-207903Y-117542D01*
X-207869Y-117592D01*
X-207797Y-117697D01*
X-207803Y-117703D01*
X-207825Y-117714D01*
X-207853Y-117730D01*
X-207897Y-117753D01*
X-207942Y-117780D01*
X-207997Y-117808D01*
X-208114Y-117880D01*
Y-117908D01*
X-208108Y-117930D01*
Y-117986D01*
X-208102Y-118058D01*
X-208091Y-118152D01*
X-208086Y-118258D01*
X-208075Y-118374D01*
X-208064Y-118502D01*
X-208052Y-118641D01*
X-208041Y-118779D01*
X-208019Y-119068D01*
X-208008Y-119212D01*
X-207991Y-119357D01*
X-207980Y-119490D01*
X-207969Y-119617D01*
X-208341Y-119756D01*
X-208347Y-119745D01*
X-208363Y-119723D01*
X-208391Y-119684D01*
X-208430Y-119628D01*
X-208485Y-119567D01*
X-208552Y-119495D01*
X-208641Y-119412D01*
X-208741Y-119329D01*
X-208746Y-119323D01*
X-208757Y-119318D01*
X-208774Y-119307D01*
X-208796Y-119284D01*
X-208824Y-119262D01*
X-208863Y-119240D01*
X-208946Y-119179D01*
X-209051Y-119101D01*
X-209174Y-119024D01*
X-209307Y-118935D01*
X-209451Y-118846D01*
X-209324Y-118496D01*
X-209318Y-118502D01*
X-209301Y-118513D01*
X-209274Y-118535D01*
X-209235Y-118563D01*
X-209185Y-118596D01*
X-209129Y-118635D01*
X-209068Y-118679D01*
X-208996Y-118735D01*
X-208846Y-118851D01*
X-208674Y-118979D01*
X-208496Y-119123D01*
X-208319Y-119273D01*
Y-119246D01*
X-208324Y-119207D01*
Y-119162D01*
X-208330Y-119101D01*
X-208336Y-119035D01*
X-208341Y-118957D01*
X-208347Y-118874D01*
X-208352Y-118779D01*
X-208358Y-118685D01*
X-208369Y-118480D01*
X-208385Y-118269D01*
X-208402Y-118063D01*
X-208413Y-118069D01*
X-208441Y-118086D01*
X-208480Y-118119D01*
X-208535Y-118152D01*
X-208602Y-118202D01*
X-208674Y-118252D01*
X-208752Y-118307D01*
X-208835Y-118363D01*
X-209007Y-118091D01*
X-209001Y-118086D01*
X-208985Y-118075D01*
X-208957Y-118052D01*
X-208918Y-118025D01*
X-208874Y-117986D01*
X-208818Y-117947D01*
X-208757Y-117902D01*
X-208685Y-117852D01*
X-208613Y-117797D01*
X-208535Y-117742D01*
X-208363Y-117625D01*
X-208186Y-117508D01*
X-208003Y-117392D01*
X-207997Y-117397D01*
D02*
G37*
G36*
X-207214Y-120500D02*
X-207481D01*
Y-121532D01*
X-207214D01*
Y-121865D01*
X-209029D01*
Y-120167D01*
X-207214D01*
Y-120500D01*
D02*
G37*
G36*
X-207942Y-122970D02*
X-207936D01*
X-207914Y-122981D01*
X-207886Y-122986D01*
X-207858Y-122997D01*
Y-122992D01*
X-207847Y-122975D01*
X-207836Y-122953D01*
X-207819Y-122920D01*
X-207797Y-122881D01*
X-207775Y-122831D01*
X-207742Y-122775D01*
X-207708Y-122709D01*
X-207675Y-122642D01*
X-207631Y-122570D01*
X-207542Y-122403D01*
X-207442Y-122226D01*
X-207326Y-122037D01*
X-207065Y-122237D01*
X-207070Y-122242D01*
X-207081Y-122259D01*
X-207092Y-122281D01*
X-207115Y-122315D01*
X-207142Y-122353D01*
X-207176Y-122403D01*
X-207209Y-122459D01*
X-207248Y-122520D01*
X-207331Y-122653D01*
X-207420Y-122803D01*
X-207509Y-122958D01*
X-207597Y-123119D01*
X-207592Y-123125D01*
X-207575Y-123136D01*
X-207553Y-123153D01*
X-207520Y-123180D01*
X-207481Y-123214D01*
X-207436Y-123253D01*
X-207381Y-123302D01*
X-207326Y-123358D01*
X-207270Y-123425D01*
X-207209Y-123502D01*
X-207142Y-123580D01*
X-207081Y-123674D01*
X-207015Y-123774D01*
X-206954Y-123885D01*
X-206892Y-124002D01*
X-206837Y-124129D01*
X-206843Y-124135D01*
X-206859Y-124146D01*
X-206887Y-124163D01*
X-206926Y-124185D01*
X-206970Y-124218D01*
X-207020Y-124252D01*
X-207137Y-124335D01*
X-207142Y-124324D01*
X-207148Y-124302D01*
X-207165Y-124263D01*
X-207192Y-124207D01*
X-207220Y-124146D01*
X-207253Y-124074D01*
X-207298Y-123996D01*
X-207348Y-123913D01*
X-207398Y-123824D01*
X-207459Y-123741D01*
X-207525Y-123652D01*
X-207597Y-123574D01*
X-207675Y-123497D01*
X-207758Y-123430D01*
X-207847Y-123369D01*
X-207942Y-123325D01*
Y-124235D01*
X-208225D01*
Y-123253D01*
X-208236D01*
X-208258Y-123247D01*
X-208302Y-123241D01*
X-208358Y-123230D01*
X-208430Y-123225D01*
X-208508Y-123219D01*
X-208596Y-123214D01*
X-208696Y-123208D01*
Y-123647D01*
X-208685Y-123652D01*
X-208658Y-123674D01*
X-208608Y-123713D01*
X-208546Y-123763D01*
X-208474Y-123819D01*
X-208397Y-123891D01*
X-208319Y-123969D01*
X-208236Y-124052D01*
X-208241Y-124057D01*
X-208258Y-124068D01*
X-208286Y-124085D01*
X-208319Y-124107D01*
X-208358Y-124141D01*
X-208402Y-124174D01*
X-208502Y-124263D01*
X-208508Y-124257D01*
X-208519Y-124241D01*
X-208541Y-124218D01*
X-208574Y-124185D01*
X-208608Y-124146D01*
X-208658Y-124102D01*
X-208707Y-124057D01*
X-208763Y-124007D01*
X-208829Y-123952D01*
X-208902Y-123896D01*
X-209057Y-123791D01*
X-209235Y-123697D01*
X-209329Y-123652D01*
X-209423Y-123619D01*
X-209351Y-123297D01*
X-209340Y-123302D01*
X-209318Y-123308D01*
X-209279Y-123325D01*
X-209235Y-123341D01*
X-209174Y-123369D01*
X-209113Y-123397D01*
X-208979Y-123463D01*
Y-122137D01*
X-208696D01*
Y-122875D01*
X-208691D01*
X-208685D01*
X-208652D01*
X-208602Y-122881D01*
X-208541Y-122886D01*
X-208469Y-122892D01*
X-208385Y-122897D01*
X-208225Y-122914D01*
Y-122004D01*
X-207942D01*
Y-122970D01*
D02*
G37*
G36*
X-205022Y-120933D02*
X-205222D01*
Y-123247D01*
X-205022D01*
Y-123574D01*
X-207031D01*
Y-120605D01*
X-205022D01*
Y-120933D01*
D02*
G37*
G36*
X-205050Y-125167D02*
X-205311D01*
Y-127415D01*
X-205050D01*
Y-127748D01*
X-207448D01*
Y-126455D01*
X-207953D01*
Y-126128D01*
X-207448D01*
Y-124840D01*
X-205050D01*
Y-125167D01*
D02*
G37*
G36*
X-207797Y-125112D02*
X-208041D01*
Y-128031D01*
X-207264D01*
X-207259D01*
X-207248D01*
X-207226D01*
X-207198D01*
X-207165D01*
X-207126D01*
X-207076Y-128037D01*
X-207026D01*
X-206904Y-128048D01*
X-206765Y-128059D01*
X-206610Y-128076D01*
X-206443Y-128098D01*
X-206265Y-128126D01*
X-206088Y-128164D01*
X-205899Y-128214D01*
X-205721Y-128270D01*
X-205538Y-128331D01*
X-205372Y-128409D01*
X-205211Y-128503D01*
X-205061Y-128603D01*
X-205067Y-128608D01*
X-205089Y-128625D01*
X-205117Y-128647D01*
X-205150Y-128681D01*
X-205194Y-128714D01*
X-205244Y-128758D01*
X-205350Y-128858D01*
X-205355Y-128852D01*
X-205377Y-128836D01*
X-205416Y-128814D01*
X-205472Y-128780D01*
X-205538Y-128742D01*
X-205616Y-128703D01*
X-205716Y-128658D01*
X-205827Y-128608D01*
X-205949Y-128564D01*
X-206088Y-128520D01*
X-206238Y-128481D01*
X-206404Y-128442D01*
X-206582Y-128409D01*
X-206776Y-128386D01*
X-206981Y-128370D01*
X-207198Y-128364D01*
X-209179D01*
Y-124784D01*
X-207797D01*
Y-125112D01*
D02*
G37*
G36*
X-205272Y-133370D02*
X-205605D01*
Y-132332D01*
X-207336Y-132077D01*
Y-133087D01*
X-207675D01*
Y-132022D01*
X-208752Y-131866D01*
Y-133209D01*
X-209090D01*
Y-129191D01*
X-208752D01*
Y-131494D01*
X-207675Y-131650D01*
Y-129702D01*
X-205605D01*
Y-128980D01*
X-205272D01*
Y-133370D01*
D02*
G37*
G36*
X-207375Y-135524D02*
X-205044D01*
Y-135929D01*
X-207375D01*
Y-137888D01*
X-207736D01*
Y-135929D01*
X-209373D01*
Y-135524D01*
X-207736D01*
Y-133564D01*
X-207375D01*
Y-135524D01*
D02*
G37*
G36*
X-208724Y-139237D02*
X-208718Y-139225D01*
X-208691Y-139203D01*
X-208652Y-139164D01*
X-208608Y-139120D01*
X-208546Y-139065D01*
X-208480Y-139004D01*
X-208336Y-138876D01*
X-208147Y-139126D01*
Y-138554D01*
X-206959D01*
Y-138898D01*
X-207120D01*
Y-140102D01*
X-206676D01*
Y-138321D01*
X-206671D01*
X-206660D01*
X-206637D01*
X-206610Y-138326D01*
X-206571D01*
X-206532D01*
X-206432Y-138332D01*
X-206315Y-138338D01*
X-206188Y-138349D01*
X-206054Y-138354D01*
X-205921Y-138365D01*
X-205916D01*
X-205899D01*
X-205871Y-138371D01*
X-205833Y-138376D01*
X-205794Y-138387D01*
X-205744Y-138404D01*
X-205694Y-138421D01*
X-205644Y-138449D01*
X-205594Y-138476D01*
X-205544Y-138515D01*
X-205494Y-138559D01*
X-205455Y-138615D01*
X-205416Y-138682D01*
X-205388Y-138754D01*
X-205372Y-138837D01*
X-205366Y-138931D01*
Y-139331D01*
X-205372Y-139459D01*
Y-139603D01*
X-205377D01*
X-205400Y-139608D01*
X-205433Y-139614D01*
X-205477Y-139620D01*
X-205527Y-139631D01*
X-205583Y-139647D01*
X-205716Y-139675D01*
Y-139631D01*
X-205710Y-139603D01*
Y-139525D01*
X-205705Y-139425D01*
X-205699Y-139320D01*
Y-139209D01*
X-205694Y-139098D01*
Y-138987D01*
X-205699Y-138959D01*
X-205710Y-138915D01*
X-205727Y-138865D01*
X-205760Y-138815D01*
X-205805Y-138770D01*
X-205871Y-138732D01*
X-205910Y-138721D01*
X-205955Y-138715D01*
X-205966D01*
X-205993Y-138709D01*
X-206032D01*
X-206088Y-138704D01*
X-206149Y-138698D01*
X-206221Y-138693D01*
X-206376Y-138682D01*
Y-140102D01*
X-205022D01*
Y-140458D01*
X-206271D01*
X-206265Y-140463D01*
X-206238Y-140485D01*
X-206199Y-140524D01*
X-206149Y-140574D01*
X-206088Y-140641D01*
X-206016Y-140718D01*
X-205938Y-140813D01*
X-205849Y-140918D01*
X-205760Y-141046D01*
X-205666Y-141185D01*
X-205572Y-141334D01*
X-205477Y-141501D01*
X-205383Y-141684D01*
X-205294Y-141878D01*
X-205211Y-142089D01*
X-205133Y-142317D01*
X-205139Y-142322D01*
X-205155Y-142333D01*
X-205183Y-142350D01*
X-205216Y-142372D01*
X-205261Y-142400D01*
X-205305Y-142433D01*
X-205416Y-142506D01*
Y-142500D01*
X-205422Y-142494D01*
X-205427Y-142478D01*
X-205433Y-142456D01*
X-205450Y-142400D01*
X-205477Y-142328D01*
X-205511Y-142234D01*
X-205549Y-142128D01*
X-205599Y-142012D01*
X-205655Y-141884D01*
X-205716Y-141751D01*
X-205788Y-141612D01*
X-205866Y-141468D01*
X-205955Y-141323D01*
X-206049Y-141185D01*
X-206149Y-141046D01*
X-206260Y-140913D01*
X-206376Y-140791D01*
Y-142139D01*
X-206676D01*
X-207420Y-141923D01*
Y-140458D01*
X-207842D01*
Y-142006D01*
X-208147D01*
Y-141135D01*
X-208152D01*
X-208158Y-141140D01*
X-208186Y-141168D01*
X-208236Y-141201D01*
X-208291Y-141251D01*
X-208358Y-141307D01*
X-208435Y-141368D01*
X-208591Y-141501D01*
X-208724Y-141323D01*
Y-141651D01*
X-208718Y-141656D01*
X-208707Y-141662D01*
X-208691Y-141679D01*
X-208663Y-141695D01*
X-208635Y-141723D01*
X-208596Y-141751D01*
X-208513Y-141828D01*
X-208413Y-141917D01*
X-208308Y-142023D01*
X-208191Y-142134D01*
X-208080Y-142261D01*
X-208086Y-142267D01*
X-208097Y-142278D01*
X-208119Y-142295D01*
X-208152Y-142322D01*
X-208186Y-142356D01*
X-208225Y-142395D01*
X-208319Y-142483D01*
X-208324Y-142478D01*
X-208341Y-142456D01*
X-208363Y-142428D01*
X-208402Y-142389D01*
X-208447Y-142345D01*
X-208496Y-142289D01*
X-208558Y-142228D01*
X-208630Y-142161D01*
X-208702Y-142095D01*
X-208785Y-142023D01*
X-208879Y-141951D01*
X-208974Y-141878D01*
X-209079Y-141806D01*
X-209185Y-141740D01*
X-209301Y-141679D01*
X-209418Y-141618D01*
Y-141235D01*
X-209407Y-141240D01*
X-209379Y-141251D01*
X-209340Y-141273D01*
X-209285Y-141301D01*
X-209224Y-141334D01*
X-209151Y-141373D01*
X-209001Y-141462D01*
Y-140180D01*
X-208724D01*
Y-141240D01*
X-208718Y-141235D01*
X-208691Y-141207D01*
X-208658Y-141174D01*
X-208608Y-141129D01*
X-208552Y-141074D01*
X-208485Y-141013D01*
X-208419Y-140952D01*
X-208341Y-140885D01*
X-208147Y-141129D01*
Y-139137D01*
X-208152D01*
X-208158Y-139142D01*
X-208186Y-139164D01*
X-208236Y-139203D01*
X-208291Y-139248D01*
X-208358Y-139303D01*
X-208435Y-139359D01*
X-208591Y-139492D01*
X-208724Y-139303D01*
Y-139681D01*
X-208718D01*
X-208713Y-139686D01*
X-208680Y-139708D01*
X-208624Y-139747D01*
X-208563Y-139792D01*
X-208485Y-139847D01*
X-208402Y-139908D01*
X-208313Y-139975D01*
X-208230Y-140047D01*
X-208236Y-140052D01*
X-208247Y-140064D01*
X-208269Y-140086D01*
X-208291Y-140119D01*
X-208324Y-140158D01*
X-208363Y-140202D01*
X-208402Y-140258D01*
X-208447Y-140319D01*
X-208452Y-140313D01*
X-208463Y-140302D01*
X-208485Y-140280D01*
X-208513Y-140258D01*
X-208552Y-140225D01*
X-208596Y-140186D01*
X-208652Y-140147D01*
X-208713Y-140102D01*
X-208780Y-140052D01*
X-208852Y-140003D01*
X-208929Y-139953D01*
X-209018Y-139897D01*
X-209113Y-139842D01*
X-209207Y-139792D01*
X-209418Y-139692D01*
Y-139314D01*
X-209407Y-139320D01*
X-209379Y-139331D01*
X-209340Y-139348D01*
X-209285Y-139375D01*
X-209218Y-139403D01*
X-209151Y-139436D01*
X-209001Y-139514D01*
Y-138121D01*
X-208724D01*
Y-139237D01*
D02*
G37*
%LPC*%
G36*
X-207292Y-103450D02*
X-207575D01*
Y-104432D01*
X-207292D01*
Y-103450D01*
D02*
G37*
G36*
X-207825D02*
X-208108D01*
Y-104432D01*
X-207825D01*
Y-103450D01*
D02*
G37*
G36*
X-206709Y-102978D02*
X-206715Y-102990D01*
X-206737Y-103012D01*
X-206770Y-103051D01*
X-206809Y-103095D01*
X-206859Y-103150D01*
X-206915Y-103206D01*
X-207037Y-103328D01*
Y-104482D01*
X-207031Y-104488D01*
X-207009Y-104516D01*
X-206970Y-104555D01*
X-206931Y-104599D01*
X-206881Y-104660D01*
X-206826Y-104727D01*
X-206709Y-104871D01*
Y-102978D01*
D02*
G37*
G36*
X-206582Y-107241D02*
X-207242D01*
Y-109738D01*
X-206582D01*
Y-107241D01*
D02*
G37*
G36*
X-206299Y-118052D02*
X-206726D01*
Y-119162D01*
X-206299D01*
Y-118052D01*
D02*
G37*
G36*
X-206993D02*
X-207420D01*
Y-119162D01*
X-206993D01*
Y-118052D01*
D02*
G37*
G36*
X-207764Y-120500D02*
X-208741D01*
Y-121532D01*
X-207764D01*
Y-120500D01*
D02*
G37*
G36*
X-205511Y-120933D02*
X-205988D01*
Y-123247D01*
X-205511D01*
Y-120933D01*
D02*
G37*
G36*
X-206260D02*
X-206748D01*
Y-123247D01*
X-206260D01*
Y-120933D01*
D02*
G37*
G36*
X-205610Y-125167D02*
X-206226D01*
Y-126128D01*
X-205610D01*
Y-125167D01*
D02*
G37*
G36*
X-206526D02*
X-207148D01*
Y-126128D01*
X-206526D01*
Y-125167D01*
D02*
G37*
G36*
X-205610Y-126455D02*
X-206226D01*
Y-127415D01*
X-205610D01*
Y-126455D01*
D02*
G37*
G36*
X-206526D02*
X-207148D01*
Y-127415D01*
X-206526D01*
Y-126455D01*
D02*
G37*
G36*
X-208352Y-125112D02*
X-208868D01*
Y-128031D01*
X-208352D01*
Y-125112D01*
D02*
G37*
G36*
X-205605Y-130074D02*
X-207336D01*
Y-131700D01*
X-205605Y-131960D01*
Y-130074D01*
D02*
G37*
G36*
X-207420Y-138898D02*
X-207842D01*
Y-140102D01*
X-207420D01*
Y-138898D01*
D02*
G37*
G36*
X-206676Y-140458D02*
X-207120D01*
Y-141651D01*
X-206676Y-141773D01*
Y-140458D01*
D02*
G37*
%LPD*%
D10*
X-183370Y-110013D02*
X-183961Y-109422D01*
X-184552Y-110013D01*
X-183961Y-110604D01*
X-183370Y-110013D01*
X-157454Y-133217D02*
X-157195Y-133476D01*
X-165681Y-124991D02*
X-165422Y-125249D01*
X-165614Y-141894D02*
X-157195Y-133476D01*
X-165873Y-141636D02*
X-165614Y-141894D01*
X-174099Y-133409D02*
X-165681Y-124991D01*
X-174099Y-133409D02*
X-173841Y-133667D01*
X-165547Y-100771D02*
X-157129Y-109189D01*
X-157387Y-109448D02*
X-157129Y-109189D01*
X-165806Y-101030D02*
X-165547Y-100771D01*
X-165614Y-117675D02*
X-165356Y-117416D01*
X-174032Y-109256D02*
X-173774Y-108998D01*
X-174032Y-109256D02*
X-165614Y-117675D01*
X-114422Y-73415D02*
X-116421D01*
X-115421D01*
Y-78413D01*
X-116421Y-79413D01*
X-117421D01*
X-118421Y-78413D01*
X-112422Y-74415D02*
X-111423Y-73415D01*
X-109423D01*
X-108424Y-74415D01*
Y-75414D01*
X-109423Y-76414D01*
X-110423D01*
X-109423D01*
X-108424Y-77414D01*
Y-78413D01*
X-109423Y-79413D01*
X-111423D01*
X-112422Y-78413D01*
X-144000Y-160501D02*
X-145999D01*
X-144999D01*
Y-165499D01*
X-145999Y-166499D01*
X-146999D01*
X-147998Y-165499D01*
X-138002Y-160501D02*
X-140001Y-161501D01*
X-142000Y-163500D01*
Y-165499D01*
X-141001Y-166499D01*
X-139001D01*
X-138002Y-165499D01*
Y-164500D01*
X-139001Y-163500D01*
X-142000D01*
X-152000Y-81001D02*
X-153999D01*
X-152999D01*
Y-85999D01*
X-153999Y-86999D01*
X-154999D01*
X-155998Y-85999D01*
X-146002Y-81001D02*
X-150000D01*
Y-84000D01*
X-148001Y-83000D01*
X-147001D01*
X-146002Y-84000D01*
Y-85999D01*
X-147001Y-86999D01*
X-149001D01*
X-150000Y-85999D01*
X-138500Y-76414D02*
X-140499D01*
X-139499D01*
Y-81413D01*
X-140499Y-82412D01*
X-141499D01*
X-142498Y-81413D01*
X-132502Y-82412D02*
X-136500D01*
X-132502Y-78413D01*
Y-77414D01*
X-133501Y-76414D01*
X-135501D01*
X-136500Y-77414D01*
X-125500Y-160501D02*
X-127499D01*
X-126500D01*
Y-165499D01*
X-127499Y-166499D01*
X-128499D01*
X-129499Y-165499D01*
X-123501Y-166499D02*
X-121501D01*
X-122501D01*
Y-160501D01*
X-123501Y-161501D01*
X-243998Y-103379D02*
Y-108377D01*
X-242999Y-109377D01*
X-240999D01*
X-240000Y-108377D01*
Y-103379D01*
X-234002D02*
X-236001Y-104378D01*
X-238000Y-106378D01*
Y-108377D01*
X-237001Y-109377D01*
X-235001D01*
X-234002Y-108377D01*
Y-107378D01*
X-235001Y-106378D01*
X-238000D01*
X-169354Y-162501D02*
Y-167499D01*
X-168354Y-168499D01*
X-166355D01*
X-165355Y-167499D01*
Y-162501D01*
X-159357D02*
X-163356D01*
Y-165500D01*
X-161356Y-164500D01*
X-160357D01*
X-159357Y-165500D01*
Y-167499D01*
X-160357Y-168499D01*
X-162356D01*
X-163356Y-167499D01*
X-188959Y-82500D02*
Y-87498D01*
X-187960Y-88498D01*
X-185960D01*
X-184960Y-87498D01*
Y-82500D01*
X-179962Y-88498D02*
Y-82500D01*
X-182961Y-85499D01*
X-178962D01*
X-47723Y-79413D02*
Y-73415D01*
X-44724D01*
X-43724Y-74415D01*
Y-76414D01*
X-44724Y-77414D01*
X-47723D01*
X-45723D02*
X-43724Y-79413D01*
X-38726D02*
Y-73415D01*
X-41725Y-76414D01*
X-37726D01*
X-57498Y-167499D02*
Y-161501D01*
X-54499D01*
X-53500Y-162501D01*
Y-164500D01*
X-54499Y-165500D01*
X-57498D01*
X-55499D02*
X-53500Y-167499D01*
X-51500Y-162501D02*
X-50501Y-161501D01*
X-48501D01*
X-47502Y-162501D01*
Y-163500D01*
X-48501Y-164500D01*
X-49501D01*
X-48501D01*
X-47502Y-165500D01*
Y-166499D01*
X-48501Y-167499D01*
X-50501D01*
X-51500Y-166499D01*
X-91999Y-79501D02*
Y-85499D01*
X-89000D01*
X-88000Y-84499D01*
Y-80501D01*
X-89000Y-79501D01*
X-91999D01*
X-86001Y-85499D02*
X-84001D01*
X-85001D01*
Y-79501D01*
X-86001Y-80501D01*
X-211999Y-161501D02*
X-212999Y-160501D01*
X-214998D01*
X-215998Y-161501D01*
Y-165499D01*
X-214998Y-166499D01*
X-212999D01*
X-211999Y-165499D01*
X-209999Y-166499D02*
X-208000D01*
X-209000D01*
Y-160501D01*
X-209999Y-161501D01*
X-201002Y-160501D02*
X-205001D01*
Y-163500D01*
X-203002Y-162500D01*
X-202002D01*
X-201002Y-163500D01*
Y-165499D01*
X-202002Y-166499D01*
X-204001D01*
X-205001Y-165499D01*
X-237999Y-130001D02*
X-238999Y-129001D01*
X-240998D01*
X-241998Y-130001D01*
Y-133999D01*
X-240998Y-134999D01*
X-238999D01*
X-237999Y-133999D01*
X-235999Y-134999D02*
X-234000D01*
X-235000D01*
Y-129001D01*
X-235999Y-130001D01*
X-228002Y-134999D02*
Y-129001D01*
X-231001Y-132000D01*
X-227002D01*
X-170499Y-80413D02*
X-171499Y-79413D01*
X-173498D01*
X-174498Y-80413D01*
Y-84412D01*
X-173498Y-85411D01*
X-171499D01*
X-170499Y-84412D01*
X-168500Y-85411D02*
X-166500D01*
X-167500D01*
Y-79413D01*
X-168500Y-80413D01*
X-163501D02*
X-162501Y-79413D01*
X-160502D01*
X-159502Y-80413D01*
Y-81413D01*
X-160502Y-82412D01*
X-161502D01*
X-160502D01*
X-159502Y-83412D01*
Y-84412D01*
X-160502Y-85411D01*
X-162501D01*
X-163501Y-84412D01*
X-244499Y-117809D02*
X-245498Y-116809D01*
X-247498D01*
X-248498Y-117809D01*
Y-121808D01*
X-247498Y-122808D01*
X-245498D01*
X-244499Y-121808D01*
X-242499Y-122808D02*
X-240500D01*
X-241500D01*
Y-116809D01*
X-242499Y-117809D01*
X-233502Y-122808D02*
X-237501D01*
X-233502Y-118809D01*
Y-117809D01*
X-234502Y-116809D01*
X-236502D01*
X-237501Y-117809D01*
X-197822Y-70501D02*
X-198822Y-69501D01*
X-200821D01*
X-201821Y-70501D01*
Y-74499D01*
X-200821Y-75499D01*
X-198822D01*
X-197822Y-74499D01*
X-195823Y-75499D02*
X-193823D01*
X-194823D01*
Y-69501D01*
X-195823Y-70501D01*
X-190824Y-75499D02*
X-188825D01*
X-189825D01*
Y-69501D01*
X-190824Y-70501D01*
X-211999Y-82001D02*
X-212999Y-81001D01*
X-214998D01*
X-215998Y-82001D01*
Y-85999D01*
X-214998Y-86999D01*
X-212999D01*
X-211999Y-85999D01*
X-209999Y-86999D02*
X-208000D01*
X-209000D01*
Y-81001D01*
X-209999Y-82001D01*
X-205001D02*
X-204001Y-81001D01*
X-202002D01*
X-201002Y-82001D01*
Y-85999D01*
X-202002Y-86999D01*
X-204001D01*
X-205001Y-85999D01*
Y-82001D01*
X-187876Y-161501D02*
X-188876Y-160501D01*
X-190875D01*
X-191875Y-161501D01*
Y-165499D01*
X-190875Y-166499D01*
X-188876D01*
X-187876Y-165499D01*
X-185877D02*
X-184877Y-166499D01*
X-182878D01*
X-181878Y-165499D01*
Y-161501D01*
X-182878Y-160501D01*
X-184877D01*
X-185877Y-161501D01*
Y-162500D01*
X-184877Y-163500D01*
X-181878D01*
X-75894Y-80501D02*
X-76893Y-79501D01*
X-78893D01*
X-79892Y-80501D01*
Y-84499D01*
X-78893Y-85499D01*
X-76893D01*
X-75894Y-84499D01*
X-73894Y-85499D02*
X-71895D01*
X-72895D01*
Y-79501D01*
X-73894Y-80501D01*
D11*
X-174963Y-134470D02*
D03*
X-164355Y-118735D02*
D03*
D12*
X-192105Y-130560D02*
X-191581Y-129643D01*
X-191416Y-128600D01*
X-191631Y-127567D01*
X-192200Y-126676D01*
X-200700D02*
X-201213Y-127560D01*
X-201390Y-128566D01*
X-201212Y-129571D01*
X-200699Y-130455D01*
X-177088Y-108266D02*
X-176576Y-107383D01*
X-176398Y-106377D01*
X-176576Y-105371D01*
X-177089Y-104488D01*
X-185683Y-104383D02*
X-186207Y-105299D01*
X-186372Y-106342D01*
X-186157Y-107376D01*
X-185588Y-108266D01*
X-186381Y-102605D02*
X-187297Y-102081D01*
X-188340Y-101916D01*
X-189374Y-102131D01*
X-190264Y-102700D01*
Y-111200D02*
X-189381Y-111713D01*
X-188375Y-111890D01*
X-187369Y-111712D01*
X-186486Y-111199D01*
X-191816Y-108837D02*
X-192733Y-108313D01*
X-193776Y-108148D01*
X-194810Y-108364D01*
X-195700Y-108932D01*
Y-117432D02*
X-194817Y-117945D01*
X-193811Y-118123D01*
X-192805Y-117944D01*
X-191922Y-117431D01*
X-196704Y-125960D02*
X-195685Y-125682D01*
X-194831Y-125061D01*
X-194252Y-124178D01*
X-194025Y-123146D01*
X-200036Y-117136D02*
X-201023Y-117398D01*
X-201860Y-117984D01*
X-202445Y-118821D01*
X-202706Y-119808D01*
X-50480Y-93500D02*
X-46980D01*
X-50380Y-97500D02*
X-46980D01*
Y-93500D01*
X-56180D02*
X-52780D01*
X-56180Y-97500D02*
X-52680D01*
X-56180D02*
Y-93500D01*
X-195400Y-126676D02*
X-192200Y-126676D01*
X-195400Y-130577D02*
X-192105D01*
X-200700Y-126676D02*
X-197600D01*
X-200577Y-130577D02*
X-197600D01*
X-200699Y-130455D02*
X-200577Y-130577D01*
X-180188Y-104366D02*
X-177211D01*
X-177089Y-104488D01*
X-180188Y-108266D02*
X-177088D01*
X-185683Y-104366D02*
X-182388D01*
X-185588Y-108266D02*
X-182388Y-108266D01*
X-186364Y-105900D02*
Y-102605D01*
X-186486Y-111199D02*
X-186364Y-111077D01*
Y-108100D01*
X-190264Y-105900D02*
Y-102700D01*
Y-111200D02*
X-190264Y-108100D01*
X-191800Y-112132D02*
Y-108837D01*
X-191922Y-117431D02*
X-191800Y-117309D01*
Y-114332D01*
X-195700Y-112132D02*
Y-108932D01*
Y-117432D02*
X-195700Y-114332D01*
X-196288Y-120884D02*
X-194025Y-123146D01*
X-199046Y-123641D02*
X-196716Y-125971D01*
X-200036Y-117136D02*
X-197844Y-119328D01*
X-202706Y-119981D02*
X-200601Y-122086D01*
X-202706Y-119981D02*
Y-119808D01*
X-48820Y-146000D02*
X-45320D01*
X-48720Y-150000D02*
X-45320D01*
Y-146000D01*
X-54520D02*
X-51120D01*
X-54520Y-150000D02*
X-51020D01*
X-54520D02*
Y-146000D01*
X-221200Y-138702D02*
Y-142034D01*
X-219534Y-143700D01*
X-217868Y-142034D01*
Y-138702D01*
Y-136116D02*
X-221200D01*
X-217868Y-132784D01*
Y-131951D01*
X-218701Y-131118D01*
X-220367D01*
X-221200Y-131951D01*
X-217868Y-124056D02*
X-218701Y-123223D01*
X-220367D01*
X-221200Y-124056D01*
Y-127389D01*
X-220367Y-128221D01*
X-218701D01*
X-217868Y-127389D01*
Y-125722D01*
X-219534D01*
X-217868Y-107514D02*
X-221200D01*
Y-112512D01*
X-217868D01*
X-221200Y-110013D02*
X-219534D01*
X-220200Y-120070D02*
X-218534D01*
X-219367D01*
Y-115071D01*
X-220200Y-115904D01*
X-221200Y-100102D02*
Y-105100D01*
X-218701D01*
X-217868Y-104267D01*
Y-103434D01*
X-218701Y-102601D01*
X-221200D01*
X-218701D01*
X-217868Y-101768D01*
Y-100935D01*
X-218701Y-100102D01*
X-221200D01*
D13*
X-176571Y-147118D02*
X-177309Y-146692D01*
Y-147544D01*
X-176571Y-147118D01*
X-68610Y-145626D02*
X-69348Y-145200D01*
Y-146053D01*
X-68610Y-145626D01*
D14*
X-171433Y-120870D02*
X-170320Y-121983D01*
X-182012Y-110291D02*
X-180887Y-111417D01*
X-183126Y-111405D02*
X-182012Y-110291D01*
X-171433Y-123097D02*
X-170320Y-121983D01*
X-182115Y-133574D02*
X-181000Y-132459D01*
X-183114Y-132574D02*
X-182115Y-133574D01*
X-193693Y-121995D02*
X-192579Y-123109D01*
X-193693Y-121995D02*
X-192579Y-120882D01*
X-165547Y-141827D02*
X-157195Y-133476D01*
X-165547Y-100771D02*
X-157195Y-109123D01*
D15*
X-85000Y-119575D02*
Y-94284D01*
Y-149784D02*
Y-143134D01*
Y-119575D01*
X-119000Y-94284D02*
X-85000D01*
X-119000Y-149784D02*
X-85000D01*
X-119000D02*
Y-94284D01*
X-71425Y-93390D02*
X-69595Y-96500D01*
X-75894Y-93390D02*
X-71425D01*
Y-99610D02*
Y-93390D01*
Y-99610D02*
X-69595Y-96500D01*
X-75894Y-99610D02*
X-71425D01*
X-83512Y-93390D02*
X-79043D01*
X-83512Y-99610D02*
X-79043Y-99610D01*
X-83512Y-99610D02*
Y-93390D01*
X-143654Y-130635D02*
X-143654Y-114099D01*
X-150347D02*
X-143654D01*
X-150347D02*
X-150347Y-130635D01*
X-143654D01*
X-196354Y-150465D02*
X-183658D01*
X-179720Y-146528D01*
X-196354Y-150465D02*
X-196354Y-146528D01*
X-196354Y-133535D02*
X-196354Y-137472D01*
X-183658Y-133535D02*
X-179720Y-137472D01*
X-196354Y-133535D02*
X-183658D01*
X-42724Y-131748D02*
Y-101335D01*
X-57488D02*
X-42724D01*
X-52862Y-141886D02*
X-42724Y-131748D01*
X-57488Y-141886D02*
X-52862D01*
X-83276Y-101335D02*
X-68512D01*
X-73138Y-141886D02*
X-68512D01*
X-83276Y-131748D02*
Y-101335D01*
Y-131748D02*
X-73138Y-141886D01*
D16*
X-128800Y-143786D02*
X-120803D01*
X-124801Y-139787D02*
Y-147785D01*
X-122498Y-103166D02*
Y-95169D01*
D17*
X-88949Y-130802D02*
Y-131885D01*
Y-131343D01*
X-86241D01*
X-85700Y-131885D01*
Y-132426D01*
X-86241Y-132967D01*
X-88949Y-129719D02*
X-85700D01*
Y-127553D01*
X-88407Y-124305D02*
X-88949Y-124846D01*
Y-125929D01*
X-88407Y-126470D01*
X-86241D01*
X-85700Y-125929D01*
Y-124846D01*
X-86241Y-124305D01*
X-88949Y-121056D02*
Y-122139D01*
Y-121598D01*
X-86241D01*
X-85700Y-122139D01*
Y-122680D01*
X-86241Y-123222D01*
X-88949Y-119973D02*
X-85700D01*
Y-117807D01*
X-88407Y-114559D02*
X-88949Y-115100D01*
Y-116183D01*
X-88407Y-116725D01*
X-86241D01*
X-85700Y-116183D01*
Y-115100D01*
X-86241Y-114559D01*
X-88949Y-111310D02*
Y-112393D01*
Y-111852D01*
X-86241D01*
X-85700Y-112393D01*
Y-112935D01*
X-86241Y-113476D01*
X-88949Y-110228D02*
X-85700D01*
Y-108062D01*
X-88407Y-104813D02*
X-88949Y-105355D01*
Y-106438D01*
X-88407Y-106979D01*
X-86241D01*
X-85700Y-106438D01*
Y-105355D01*
X-86241Y-104813D01*
X-88949Y-101565D02*
Y-102648D01*
Y-102106D01*
X-86241D01*
X-85700Y-102648D01*
Y-103189D01*
X-86241Y-103730D01*
X-88949Y-100482D02*
X-85700D01*
Y-98316D01*
X-88407Y-95068D02*
X-88949Y-95609D01*
Y-96692D01*
X-88407Y-97233D01*
X-86241D01*
X-85700Y-96692D01*
Y-95609D01*
X-86241Y-95068D01*
M02*
