G04*
G04 #@! TF.GenerationSoftware,Altium Limited,Altium Designer,20.1.11 (218)*
G04*
G04 Layer_Physical_Order=3*
G04 Layer_Color=128*
%FSLAX25Y25*%
%MOIN*%
G70*
G04*
G04 #@! TF.SameCoordinates,9EE67B27-E454-41D5-82AA-807338E90DDB*
G04*
G04*
G04 #@! TF.FilePolarity,Negative*
G04*
G01*
G75*
%ADD65C,0.04000*%
%ADD66R,0.22085X0.10274*%
%ADD67C,0.05943*%
%ADD68C,0.12636*%
%ADD69C,0.03187*%
%ADD70C,0.03581*%
D65*
X-47332Y-150968D02*
X-46354Y-150908D01*
X-45390Y-150727D01*
X-44456Y-150430D01*
X-43565Y-150021D01*
X-42731Y-149505D01*
X-41967Y-148890D01*
X-41284Y-148186D01*
X-40693Y-147404D01*
X-40203Y-146555D01*
X-39820Y-145652D01*
X-39551Y-144709D01*
X-39401Y-143740D01*
X-39370Y-142760D01*
X-39366Y-100462D02*
X-39427Y-99484D01*
X-39607Y-98520D01*
X-39904Y-97585D01*
X-40314Y-96695D01*
X-40830Y-95861D01*
X-41444Y-95097D01*
X-42148Y-94414D01*
X-42930Y-93823D01*
X-43779Y-93332D01*
X-44682Y-92950D01*
X-45625Y-92681D01*
X-46594Y-92531D01*
X-47574Y-92500D01*
X-221500Y-149000D02*
Y-94538D01*
X-219462Y-92500D01*
X-47329Y-92500D01*
X-219536Y-150964D02*
X-47574Y-150964D01*
X-221500Y-149000D02*
X-219536Y-150964D01*
X-47574Y-150964D02*
X-47332Y-150968D01*
X-39370Y-142760D02*
Y-100459D01*
X-39366Y-100462D01*
X-47574Y-92500D02*
X-47329D01*
D66*
X-102000Y-138343D02*
D03*
D67*
X-214000Y-102172D02*
D03*
Y-110046D02*
D03*
Y-133668D02*
D03*
Y-117920D02*
D03*
Y-141542D02*
D03*
D68*
X-147000Y-141043D02*
D03*
X-128500Y-131086D02*
D03*
Y-112156D02*
D03*
X-147000Y-103421D02*
D03*
D69*
X-83500Y-96500D02*
D03*
X-201000Y-96000D02*
D03*
X-203470Y-95000D02*
D03*
X-49180Y-138000D02*
D03*
X-52500D02*
D03*
X-78500Y-128000D02*
D03*
X-201789Y-146750D02*
D03*
X-207301Y-129656D02*
D03*
X-203470Y-115004D02*
D03*
X-201571Y-131388D02*
D03*
X-196200Y-132000D02*
D03*
X-197000Y-117920D02*
D03*
Y-113048D02*
D03*
X-193500Y-122247D02*
D03*
X-175483Y-109304D02*
D03*
X-171398Y-113312D02*
D03*
X-173378Y-114898D02*
D03*
X-169096Y-110500D02*
D03*
X-175737Y-111852D02*
D03*
X-173106Y-129022D02*
D03*
X-176739Y-134500D02*
D03*
X-167000Y-122500D02*
D03*
X-174260Y-131054D02*
D03*
X-174135Y-136916D02*
D03*
X-165000Y-112056D02*
D03*
D70*
X-183000Y-138343D02*
D03*
X-184849Y-139915D02*
D03*
X-185480Y-102647D02*
D03*
X-186810Y-103421D02*
D03*
X-184088Y-104457D02*
D03*
X-175472Y-100500D02*
D03*
Y-103421D02*
D03*
X-182000Y-145500D02*
D03*
X-176000Y-144500D02*
D03*
X-175737Y-141542D02*
D03*
X-164888Y-138045D02*
D03*
X-158500Y-107000D02*
D03*
X-155000Y-112056D02*
D03*
X-159882Y-126876D02*
D03*
X-157323Y-126856D02*
D03*
X-45500Y-146500D02*
D03*
X-58500Y-145000D02*
D03*
Y-139951D02*
D03*
Y-134500D02*
D03*
X-67500Y-145000D02*
D03*
Y-139951D02*
D03*
Y-134500D02*
D03*
X-63000Y-130486D02*
D03*
M02*
