G04*
G04 #@! TF.GenerationSoftware,Altium Limited,Altium Designer,20.1.11 (218)*
G04*
G04 Layer_Physical_Order=4*
G04 Layer_Color=16711680*
%FSLAX25Y25*%
%MOIN*%
G70*
G04*
G04 #@! TF.SameCoordinates,9EE67B27-E454-41D5-82AA-807338E90DDB*
G04*
G04*
G04 #@! TF.FilePolarity,Positive*
G04*
G01*
G75*
%ADD15C,0.00787*%
%ADD16C,0.01200*%
G04:AMPARAMS|DCode=18|XSize=11.81mil|YSize=27.56mil|CornerRadius=0mil|HoleSize=0mil|Usage=FLASHONLY|Rotation=315.000|XOffset=0mil|YOffset=0mil|HoleType=Round|Shape=Rectangle|*
%AMROTATEDRECTD18*
4,1,4,-0.01392,-0.00557,0.00557,0.01392,0.01392,0.00557,-0.00557,-0.01392,-0.01392,-0.00557,0.0*
%
%ADD18ROTATEDRECTD18*%

G04:AMPARAMS|DCode=19|XSize=11.81mil|YSize=27.56mil|CornerRadius=0mil|HoleSize=0mil|Usage=FLASHONLY|Rotation=225.000|XOffset=0mil|YOffset=0mil|HoleType=Round|Shape=Rectangle|*
%AMROTATEDRECTD19*
4,1,4,-0.00557,0.01392,0.01392,-0.00557,0.00557,-0.01392,-0.01392,0.00557,-0.00557,0.01392,0.0*
%
%ADD19ROTATEDRECTD19*%

%ADD25R,0.03661X0.03858*%
%ADD26R,0.03000X0.02300*%
%ADD27R,0.05000X0.06000*%
%ADD28R,0.10039X0.06299*%
%ADD30R,0.02300X0.03000*%
G04:AMPARAMS|DCode=31|XSize=30mil|YSize=23mil|CornerRadius=0mil|HoleSize=0mil|Usage=FLASHONLY|Rotation=315.000|XOffset=0mil|YOffset=0mil|HoleType=Round|Shape=Rectangle|*
%AMROTATEDRECTD31*
4,1,4,-0.01874,0.00248,-0.00248,0.01874,0.01874,-0.00248,0.00248,-0.01874,-0.01874,0.00248,0.0*
%
%ADD31ROTATEDRECTD31*%

%ADD56C,0.00600*%
%ADD57C,0.01500*%
G04:AMPARAMS|DCode=58|XSize=275.59mil|YSize=157.48mil|CornerRadius=0mil|HoleSize=0mil|Usage=FLASHONLY|Rotation=90.000|XOffset=0mil|YOffset=0mil|HoleType=Round|Shape=Octagon|*
%AMOCTAGOND58*
4,1,8,0.03937,0.13780,-0.03937,0.13780,-0.07874,0.09843,-0.07874,-0.09843,-0.03937,-0.13780,0.03937,-0.13780,0.07874,-0.09843,0.07874,0.09843,0.03937,0.13780,0.0*
%
%ADD58OCTAGOND58*%

G04:AMPARAMS|DCode=59|XSize=275.59mil|YSize=157.48mil|CornerRadius=0mil|HoleSize=0mil|Usage=FLASHONLY|Rotation=0.000|XOffset=0mil|YOffset=0mil|HoleType=Round|Shape=Octagon|*
%AMOCTAGOND59*
4,1,8,0.13780,-0.03937,0.13780,0.03937,0.09843,0.07874,-0.09843,0.07874,-0.13780,0.03937,-0.13780,-0.03937,-0.09843,-0.07874,0.09843,-0.07874,0.13780,-0.03937,0.0*
%
%ADD59OCTAGOND59*%

%ADD60C,0.05906*%
%ADD61C,0.16000*%
%ADD62C,0.01772*%
%ADD63C,0.02362*%
%ADD71R,0.06693X0.03937*%
G04:AMPARAMS|DCode=72|XSize=30mil|YSize=23mil|CornerRadius=0mil|HoleSize=0mil|Usage=FLASHONLY|Rotation=45.000|XOffset=0mil|YOffset=0mil|HoleType=Round|Shape=Rectangle|*
%AMROTATEDRECTD72*
4,1,4,-0.00248,-0.01874,-0.01874,-0.00248,0.00248,0.01874,0.01874,0.00248,-0.00248,-0.01874,0.0*
%
%ADD72ROTATEDRECTD72*%

%ADD73R,0.02000X0.02500*%
%ADD74R,0.01772X0.01772*%
%ADD75R,0.10039X0.02189*%
%ADD76R,0.10039X0.04110*%
%ADD77P,0.15033X4X90.0*%
G36*
X-45413Y-93524D02*
X-44072Y-94044D01*
X-42861Y-94820D01*
X-41828Y-95822D01*
X-41016Y-97009D01*
X-40455Y-98333D01*
X-40169Y-99743D01*
Y-100462D01*
X-40173Y-142760D01*
X-40170Y-142772D01*
X-40172Y-142785D01*
X-40151Y-143503D01*
X-40394Y-144921D01*
X-40914Y-146262D01*
X-41690Y-147473D01*
X-42692Y-148506D01*
X-43879Y-149319D01*
X-45203Y-149879D01*
X-46613Y-150165D01*
X-47326D01*
X-47562Y-150162D01*
X-47568Y-150163D01*
X-47574Y-150162D01*
X-116150Y-150162D01*
Y-143142D01*
X-115650Y-142935D01*
X-112018Y-146567D01*
X-91983D01*
X-87871Y-142455D01*
Y-134231D01*
X-91983Y-130119D01*
X-112018D01*
X-116130Y-134231D01*
Y-139459D01*
X-116150Y-139951D01*
X-116630Y-139951D01*
X-124262D01*
X-124453Y-139489D01*
X-114732Y-129768D01*
X-114621Y-129500D01*
Y-124500D01*
X-114650Y-124430D01*
Y-122650D01*
X-116430D01*
X-116500Y-122621D01*
X-148500Y-122621D01*
X-148768Y-122732D01*
X-155157Y-129121D01*
X-155792D01*
Y-128801D01*
X-156018D01*
X-156239Y-128301D01*
X-156238Y-128301D01*
X-155792D01*
Y-127008D01*
X-155762Y-126856D01*
X-155792Y-126704D01*
Y-125412D01*
X-156062D01*
X-156062Y-124088D01*
X-156088Y-124027D01*
Y-122852D01*
X-157696D01*
X-157839Y-122793D01*
X-157878D01*
X-157910Y-122771D01*
X-158628Y-122628D01*
X-158666Y-122636D01*
X-158702Y-122621D01*
X-159068Y-122621D01*
X-159068Y-122621D01*
X-161632D01*
X-161705Y-122651D01*
X-161784Y-122653D01*
X-162238Y-122852D01*
X-163265D01*
X-163765Y-122852D01*
X-164177Y-122852D01*
X-164950D01*
X-164970Y-122840D01*
X-165000Y-122847D01*
X-165029Y-122835D01*
X-165069Y-122852D01*
X-165214D01*
X-165231Y-122842D01*
X-165300Y-122794D01*
X-165463Y-122656D01*
X-165479Y-122638D01*
X-165532Y-122574D01*
X-165637Y-122430D01*
X-165674Y-122369D01*
X-165750Y-122225D01*
X-165777Y-122163D01*
X-165805Y-122086D01*
X-165827Y-122063D01*
X-165836Y-122018D01*
X-166083Y-121648D01*
X-166032Y-121426D01*
X-165921Y-121163D01*
X-165874Y-121165D01*
X-165834Y-121148D01*
X-165764Y-121148D01*
X-165763Y-121148D01*
X-163764D01*
X-163764Y-118676D01*
X-163292Y-118609D01*
X-155792D01*
Y-118609D01*
X-155591Y-118456D01*
X-149369Y-120166D01*
X-149355Y-120181D01*
X-149225Y-120234D01*
X-149087Y-120291D01*
X-130445D01*
X-130137Y-120385D01*
X-128500Y-120546D01*
X-126863Y-120385D01*
X-126555Y-120291D01*
X-120350D01*
Y-120350D01*
X-114650D01*
Y-119232D01*
X-114621Y-119163D01*
Y-112953D01*
X-114732Y-112685D01*
X-123735Y-103682D01*
X-124003Y-103571D01*
X-133108D01*
X-133376Y-103682D01*
X-143660Y-113966D01*
X-154016D01*
X-154078Y-113882D01*
X-153960Y-113202D01*
X-153896Y-113160D01*
X-153558Y-112653D01*
X-153439Y-112056D01*
X-153558Y-111458D01*
X-153896Y-110952D01*
X-154403Y-110613D01*
X-154464Y-110601D01*
X-157216Y-105710D01*
X-157257Y-105677D01*
X-157278Y-105627D01*
X-157278Y-105627D01*
X-157372Y-105533D01*
X-157408Y-105519D01*
X-157429Y-105486D01*
X-157619Y-105359D01*
X-160818Y-102161D01*
X-160818Y-102161D01*
X-161514Y-101465D01*
X-161550Y-101450D01*
X-161571Y-101418D01*
X-163209Y-100323D01*
X-163247Y-100316D01*
X-163275Y-100288D01*
X-165095Y-99534D01*
X-165133D01*
X-165166Y-99513D01*
X-167098Y-99128D01*
X-167136Y-99136D01*
X-167172Y-99121D01*
X-174779D01*
X-174874Y-99058D01*
X-175351Y-98963D01*
Y-98619D01*
X-186090D01*
Y-101214D01*
X-186583Y-101543D01*
X-186797Y-101863D01*
X-186810Y-101860D01*
X-187408Y-101979D01*
X-187914Y-102317D01*
X-188253Y-102824D01*
X-188372Y-103421D01*
X-188253Y-104019D01*
X-187914Y-104525D01*
X-187408Y-104863D01*
X-186810Y-104982D01*
X-186590Y-104938D01*
X-186090Y-105337D01*
Y-105619D01*
X-185185D01*
X-184960Y-105837D01*
X-185163Y-106337D01*
X-189969D01*
X-190223Y-106388D01*
X-190438Y-106531D01*
X-190451Y-106518D01*
X-190624Y-106590D01*
X-191116Y-106608D01*
X-191946D01*
X-191956Y-106598D01*
X-191963Y-106597D01*
X-191972Y-106598D01*
X-192250Y-106604D01*
X-192274Y-106608D01*
X-192455Y-106608D01*
X-192549D01*
X-192746Y-106604D01*
X-192750Y-106604D01*
X-193028Y-106598D01*
X-193037Y-106597D01*
X-193044Y-106598D01*
X-193541Y-106608D01*
X-207301D01*
Y-106572D01*
X-209286Y-106768D01*
X-210189Y-107042D01*
X-210248Y-107031D01*
X-210372Y-107058D01*
X-210524Y-107073D01*
X-210714Y-107078D01*
X-212937Y-106843D01*
X-213450Y-106760D01*
X-213451Y-106760D01*
X-213452Y-106760D01*
X-213524Y-106777D01*
X-214000Y-106715D01*
X-214862Y-106828D01*
X-215666Y-107161D01*
X-216355Y-107690D01*
X-216885Y-108380D01*
X-217218Y-109184D01*
X-217331Y-110046D01*
X-217218Y-110908D01*
X-216885Y-111712D01*
X-216355Y-112401D01*
X-215666Y-112931D01*
X-214862Y-113264D01*
X-214000Y-113377D01*
X-213138Y-113264D01*
X-212334Y-112931D01*
X-211645Y-112401D01*
X-211115Y-111712D01*
X-210782Y-110908D01*
X-210741Y-110597D01*
X-210705Y-110540D01*
X-210633Y-110110D01*
X-210551Y-109731D01*
X-210460Y-109396D01*
X-210359Y-109106D01*
X-210251Y-108861D01*
X-210139Y-108663D01*
X-210024Y-108510D01*
X-209912Y-108401D01*
X-209824Y-108342D01*
X-209021Y-108098D01*
X-207319Y-107930D01*
X-207301Y-107934D01*
X-205605D01*
X-205435Y-108434D01*
X-205981Y-108853D01*
X-205983Y-108852D01*
X-206833Y-109887D01*
X-207464Y-111068D01*
X-207853Y-112350D01*
X-207984Y-113683D01*
X-207964D01*
Y-128242D01*
X-207980Y-128276D01*
X-207982Y-128344D01*
X-207988Y-128394D01*
X-207998Y-128441D01*
X-208011Y-128487D01*
X-208029Y-128531D01*
X-208050Y-128576D01*
X-208076Y-128619D01*
X-208107Y-128663D01*
X-208144Y-128708D01*
X-208195Y-128762D01*
X-208203Y-128781D01*
X-208465Y-129174D01*
X-208561Y-129656D01*
X-208465Y-130138D01*
X-208192Y-130547D01*
X-207783Y-130820D01*
X-207301Y-130916D01*
X-206819Y-130820D01*
X-206410Y-130547D01*
X-206137Y-130138D01*
X-206041Y-129656D01*
X-206137Y-129174D01*
X-206400Y-128781D01*
X-206407Y-128762D01*
X-206458Y-128708D01*
X-206495Y-128663D01*
X-206526Y-128619D01*
X-206552Y-128575D01*
X-206574Y-128531D01*
X-206591Y-128487D01*
X-206604Y-128441D01*
X-206614Y-128394D01*
X-206620Y-128344D01*
X-206623Y-128276D01*
X-206639Y-128242D01*
Y-118871D01*
X-206169Y-118761D01*
X-205875Y-119470D01*
X-205408Y-120078D01*
X-205423Y-120094D01*
X-204295Y-120959D01*
X-202981Y-121504D01*
X-201571Y-121689D01*
Y-121657D01*
X-198741D01*
X-198711Y-121671D01*
X-198256Y-121686D01*
X-198090Y-121703D01*
X-197997Y-121719D01*
X-197811Y-121904D01*
X-197810Y-121906D01*
X-197806Y-121909D01*
X-196448Y-123268D01*
X-195231Y-122051D01*
X-194886Y-122195D01*
X-194753Y-122281D01*
X-194664Y-122730D01*
X-194391Y-123138D01*
X-193982Y-123411D01*
X-193500Y-123507D01*
X-193183Y-123444D01*
X-193114Y-123452D01*
X-193031Y-123427D01*
X-192966Y-123412D01*
X-192908Y-123404D01*
X-192856Y-123400D01*
X-192812Y-123401D01*
X-192774Y-123406D01*
X-192763Y-123409D01*
X-192541Y-123558D01*
X-192306Y-124021D01*
X-192930Y-124645D01*
X-191600Y-125975D01*
X-189156Y-123531D01*
X-190417Y-122271D01*
X-190456Y-122000D01*
X-190416Y-121730D01*
X-189156Y-120469D01*
Y-120469D01*
X-189094Y-120408D01*
X-188055Y-119369D01*
X-187702Y-119016D01*
X-187702D01*
X-187702Y-119016D01*
X-186663Y-117977D01*
X-186372Y-117686D01*
X-186021Y-117333D01*
X-185272Y-116585D01*
X-184918Y-116232D01*
X-183880Y-115194D01*
X-183588Y-114902D01*
X-183234Y-114548D01*
X-182266Y-113579D01*
X-181996Y-113539D01*
X-181725Y-113579D01*
X-180756Y-114548D01*
X-180402Y-114902D01*
X-180402Y-114902D01*
X-179072Y-116232D01*
X-179072D01*
X-179011Y-116293D01*
X-177681Y-117623D01*
X-175237Y-115180D01*
Y-115180D01*
X-175144Y-115062D01*
X-174691Y-115114D01*
X-174588Y-115165D01*
X-174579Y-115193D01*
X-174542Y-115380D01*
X-174269Y-115788D01*
X-173860Y-116062D01*
X-173757Y-116592D01*
X-173783Y-116633D01*
X-174051Y-116877D01*
X-174055Y-116886D01*
X-174080Y-116909D01*
X-174088Y-116938D01*
X-176227Y-119077D01*
X-174897Y-120407D01*
X-174897D01*
X-174835Y-120469D01*
X-173574Y-121730D01*
X-173534Y-122001D01*
X-173574Y-122271D01*
X-174835Y-123531D01*
X-173713Y-124653D01*
X-173633Y-124773D01*
X-173513Y-124853D01*
X-172391Y-125975D01*
X-171061Y-124645D01*
X-171403Y-124303D01*
X-171405Y-124298D01*
X-171448Y-124244D01*
X-171455Y-124230D01*
X-171458Y-124214D01*
X-171457Y-124181D01*
X-171442Y-124124D01*
X-171407Y-124041D01*
X-171347Y-123936D01*
X-171258Y-123813D01*
X-171142Y-123674D01*
X-170992Y-123516D01*
X-170983Y-123492D01*
X-170755Y-123265D01*
X-170740Y-123242D01*
X-169988Y-122626D01*
X-169977Y-122617D01*
X-169973Y-122615D01*
X-169674Y-122389D01*
X-169263Y-122106D01*
X-168580Y-121740D01*
X-168344Y-121898D01*
X-168179Y-122093D01*
X-168260Y-122500D01*
X-168164Y-122982D01*
X-167891Y-123391D01*
X-167482Y-123664D01*
X-167000Y-123760D01*
X-166661Y-123693D01*
X-166425Y-123846D01*
X-166379Y-123888D01*
X-166299Y-123996D01*
X-166246Y-124110D01*
X-166248Y-124118D01*
X-166236Y-124138D01*
Y-125034D01*
X-166532Y-125412D01*
X-166532Y-125701D01*
Y-128301D01*
X-160988D01*
X-160987Y-128301D01*
X-161228Y-128801D01*
X-166532D01*
Y-130061D01*
X-166535Y-130067D01*
X-166543Y-130149D01*
X-166556Y-130195D01*
X-166583Y-130246D01*
X-166628Y-130306D01*
X-166697Y-130373D01*
X-166791Y-130446D01*
X-166912Y-130522D01*
X-167061Y-130599D01*
X-167236Y-130675D01*
X-167419Y-130743D01*
X-167486Y-130763D01*
X-168715Y-131420D01*
X-169792Y-132304D01*
Y-132304D01*
X-169793Y-132316D01*
X-170209Y-132594D01*
X-170709Y-132693D01*
Y-132699D01*
X-172359D01*
X-172373Y-132702D01*
X-173400Y-132567D01*
X-173453Y-132480D01*
X-173469Y-132011D01*
X-173370Y-131945D01*
X-173096Y-131536D01*
X-173001Y-131054D01*
X-173062Y-130744D01*
X-173080Y-130555D01*
X-172738Y-130208D01*
X-172624Y-130186D01*
X-172215Y-129912D01*
X-171942Y-129504D01*
X-171846Y-129022D01*
X-171942Y-128539D01*
X-172215Y-128130D01*
X-172624Y-127857D01*
X-173106Y-127761D01*
X-173588Y-127857D01*
X-173997Y-128130D01*
X-174270Y-128539D01*
X-174366Y-129022D01*
X-174352Y-129092D01*
X-174711Y-129537D01*
X-174896Y-129554D01*
X-175233Y-129217D01*
X-175247Y-129180D01*
X-175318Y-129105D01*
X-175369Y-129046D01*
X-175404Y-128998D01*
X-175408Y-128991D01*
X-175237Y-128820D01*
X-175481Y-128552D01*
X-175490Y-128549D01*
X-175513Y-128524D01*
X-175541Y-128516D01*
X-177681Y-126377D01*
X-178719Y-127415D01*
X-179073Y-127769D01*
X-179073Y-127769D01*
X-180111Y-128807D01*
X-180403Y-129099D01*
X-180756Y-129453D01*
X-181512Y-130208D01*
X-181601Y-130295D01*
X-181696Y-130349D01*
X-181931Y-130452D01*
X-181994Y-130461D01*
X-182060Y-130452D01*
X-182293Y-130350D01*
X-182389Y-130295D01*
X-182478Y-130209D01*
X-183526Y-129161D01*
X-183526Y-129161D01*
X-183880Y-128808D01*
X-184919Y-127769D01*
X-184980Y-127707D01*
X-186019Y-126669D01*
X-186310Y-126377D01*
X-187703Y-124985D01*
X-188339Y-125622D01*
X-188342Y-125622D01*
X-188354Y-125637D01*
X-188824Y-126107D01*
X-188944Y-126187D01*
Y-126187D01*
X-188944Y-126188D01*
X-189514Y-126625D01*
X-190346Y-127019D01*
X-190730Y-127171D01*
X-191590Y-127284D01*
X-191592Y-127284D01*
X-193008D01*
X-193031Y-127274D01*
X-193345Y-127268D01*
X-193617Y-127251D01*
X-193853Y-127224D01*
X-194053Y-127188D01*
X-194214Y-127144D01*
X-194248Y-127131D01*
X-195495Y-125883D01*
X-197617Y-128005D01*
X-195000Y-130621D01*
X-194086Y-129707D01*
X-194074Y-129702D01*
X-194071Y-129692D01*
X-193703Y-129324D01*
X-193679Y-129318D01*
X-193471Y-129282D01*
X-192891Y-129237D01*
X-192537Y-129231D01*
X-192514Y-129221D01*
X-191964D01*
X-191837Y-129721D01*
X-193869Y-131753D01*
X-191253Y-134369D01*
X-189131Y-132247D01*
X-189278Y-132056D01*
X-189283Y-132051D01*
X-189283Y-132050D01*
X-187896Y-130663D01*
X-187456Y-130930D01*
X-187501Y-131075D01*
X-187580Y-131281D01*
X-187580Y-131302D01*
X-187679Y-131541D01*
X-187840Y-132765D01*
X-188376D01*
Y-136465D01*
X-185767D01*
X-185440Y-136965D01*
X-185487Y-137149D01*
X-185543Y-137194D01*
X-185900Y-137538D01*
X-186142Y-137764D01*
X-186344Y-137928D01*
X-186520Y-138053D01*
X-186541Y-138065D01*
X-187062D01*
X-187072Y-138060D01*
X-187084Y-138065D01*
X-188376D01*
Y-141765D01*
X-185376D01*
Y-141765D01*
X-184990Y-141448D01*
X-184849Y-141476D01*
X-184252Y-141357D01*
X-183745Y-141019D01*
X-183407Y-140513D01*
X-183288Y-139915D01*
X-183062Y-139892D01*
X-183000Y-139904D01*
X-182403Y-139785D01*
X-181896Y-139447D01*
X-181558Y-138940D01*
X-181494Y-138622D01*
X-181150D01*
Y-135622D01*
X-181733D01*
X-181760Y-135607D01*
X-181830Y-135600D01*
X-181845Y-135594D01*
X-181859Y-135585D01*
X-181880Y-135562D01*
X-181911Y-135512D01*
X-181944Y-135431D01*
X-181975Y-135316D01*
X-182000Y-135168D01*
X-182016Y-134990D01*
X-182021Y-134774D01*
X-182031Y-134751D01*
Y-133663D01*
X-182010D01*
X-182170Y-132450D01*
X-182346Y-132023D01*
X-182350Y-131942D01*
X-182446Y-131739D01*
X-182519Y-131562D01*
X-182572Y-131403D01*
X-182606Y-131264D01*
X-182623Y-131147D01*
X-182625Y-131052D01*
X-182617Y-130981D01*
X-182601Y-130929D01*
X-182581Y-130892D01*
X-182532Y-130831D01*
X-182530Y-130825D01*
X-182478Y-130774D01*
X-182389Y-130687D01*
X-182295Y-130633D01*
X-182060Y-130530D01*
X-181996Y-130521D01*
X-181931Y-130530D01*
X-181698Y-130632D01*
X-181601Y-130687D01*
X-181512Y-130773D01*
X-179704Y-132581D01*
X-179656Y-132630D01*
X-179647Y-132658D01*
X-179622Y-132682D01*
X-179619Y-132690D01*
X-179351Y-132934D01*
X-178811Y-133081D01*
X-178133Y-133759D01*
X-178132Y-133767D01*
X-178105Y-133787D01*
X-178099Y-133793D01*
X-178086Y-133828D01*
X-178041Y-133878D01*
X-178013Y-133914D01*
X-177992Y-133948D01*
X-177977Y-133980D01*
X-177966Y-134011D01*
X-177959Y-134042D01*
X-177955Y-134076D01*
X-177955Y-134113D01*
X-177959Y-134154D01*
X-177971Y-134218D01*
X-177957Y-134289D01*
X-177999Y-134500D01*
X-177903Y-134982D01*
X-177630Y-135391D01*
X-177221Y-135664D01*
X-176739Y-135760D01*
X-176257Y-135664D01*
X-175848Y-135391D01*
X-175575Y-134982D01*
X-175479Y-134500D01*
X-175515Y-134318D01*
X-175071Y-133989D01*
X-174716Y-134179D01*
X-173560Y-134529D01*
X-172862Y-134598D01*
X-172760Y-135110D01*
X-173482Y-135496D01*
X-173528Y-135534D01*
X-173543Y-135544D01*
X-173595Y-135572D01*
X-173647Y-135595D01*
X-173699Y-135615D01*
X-173752Y-135631D01*
X-173806Y-135643D01*
X-173862Y-135651D01*
X-173919Y-135656D01*
X-173979Y-135657D01*
X-174053Y-135654D01*
X-174085Y-135666D01*
X-174135Y-135656D01*
X-174618Y-135752D01*
X-175027Y-136025D01*
X-175300Y-136434D01*
X-175396Y-136916D01*
X-175300Y-137398D01*
X-175027Y-137807D01*
X-174618Y-138080D01*
X-174135Y-138176D01*
X-173653Y-138080D01*
X-173245Y-137807D01*
X-172971Y-137398D01*
X-172903Y-137055D01*
X-172874Y-136999D01*
X-172867Y-136925D01*
X-172858Y-136871D01*
X-172845Y-136824D01*
X-172830Y-136782D01*
X-172812Y-136745D01*
X-172792Y-136712D01*
X-172769Y-136681D01*
X-172741Y-136652D01*
X-172710Y-136625D01*
X-172658Y-136588D01*
X-172657Y-136586D01*
X-171663Y-136054D01*
X-170507Y-135704D01*
X-169305Y-135585D01*
Y-135578D01*
X-166520D01*
X-166484Y-135594D01*
X-166379Y-135597D01*
X-166300Y-135603D01*
X-166241Y-135613D01*
X-166236Y-135614D01*
Y-136150D01*
X-165641D01*
X-165572Y-136351D01*
X-165558Y-136650D01*
X-165992Y-136941D01*
X-166331Y-137447D01*
X-166449Y-138045D01*
X-166331Y-138642D01*
X-165992Y-139148D01*
X-165486Y-139487D01*
X-164888Y-139606D01*
X-164291Y-139487D01*
X-163784Y-139148D01*
X-163446Y-138642D01*
X-163327Y-138045D01*
X-163446Y-137447D01*
X-163784Y-136941D01*
X-164219Y-136650D01*
X-164204Y-136351D01*
X-164136Y-136150D01*
X-163764D01*
Y-133679D01*
X-163292Y-133612D01*
X-155792D01*
Y-133379D01*
X-153000D01*
X-152732Y-133268D01*
X-151685Y-132221D01*
X-147716D01*
X-147691Y-132721D01*
X-148637Y-132814D01*
X-150211Y-133291D01*
X-151662Y-134067D01*
X-152933Y-135110D01*
X-153976Y-136382D01*
X-154752Y-137832D01*
X-155229Y-139406D01*
X-155390Y-141043D01*
X-155229Y-142680D01*
X-154752Y-144254D01*
X-153976Y-145705D01*
X-152933Y-146976D01*
X-151662Y-148020D01*
X-150211Y-148795D01*
X-148637Y-149272D01*
X-147000Y-149434D01*
X-145363Y-149272D01*
X-143789Y-148795D01*
X-142339Y-148020D01*
X-141067Y-146976D01*
X-140024Y-145705D01*
X-139344Y-144432D01*
X-138844Y-144558D01*
Y-150162D01*
X-219203Y-150162D01*
X-220697Y-148668D01*
Y-94870D01*
X-219130Y-93303D01*
X-203835Y-93303D01*
X-203786Y-93803D01*
X-203953Y-93836D01*
X-204361Y-94109D01*
X-204635Y-94518D01*
X-204731Y-95000D01*
X-204635Y-95482D01*
X-204361Y-95891D01*
X-203953Y-96164D01*
X-203470Y-96260D01*
X-202988Y-96164D01*
X-202732Y-95993D01*
X-202724Y-95993D01*
X-202252Y-96177D01*
X-202219Y-96206D01*
X-202164Y-96482D01*
X-201891Y-96891D01*
X-201482Y-97164D01*
X-201000Y-97260D01*
X-200518Y-97164D01*
X-200109Y-96891D01*
X-199836Y-96482D01*
X-199740Y-96000D01*
X-199836Y-95518D01*
X-200109Y-95109D01*
X-200518Y-94836D01*
X-201000Y-94740D01*
X-201482Y-94836D01*
X-201738Y-95007D01*
X-201747Y-95007D01*
X-202218Y-94823D01*
X-202251Y-94794D01*
X-202306Y-94518D01*
X-202579Y-94109D01*
X-202988Y-93836D01*
X-203155Y-93803D01*
X-203105Y-93303D01*
X-136245Y-93303D01*
Y-102213D01*
X-117150D01*
Y-93303D01*
X-47578Y-93303D01*
X-47577Y-93303D01*
X-47258Y-93303D01*
X-47203Y-93292D01*
X-46831Y-93281D01*
X-45413Y-93524D01*
D02*
G37*
G36*
X-174867Y-106023D02*
X-174828D01*
X-174796Y-106045D01*
X-173452Y-106312D01*
X-173414Y-106305D01*
X-173378Y-106319D01*
X-167117D01*
X-166945Y-106328D01*
X-166599Y-106397D01*
X-166281Y-106528D01*
X-165987Y-106725D01*
X-165860Y-106840D01*
X-165351Y-107349D01*
X-165478Y-107808D01*
X-165504Y-107849D01*
X-166236D01*
Y-108446D01*
X-166239Y-108451D01*
X-166240Y-108458D01*
X-166255Y-108473D01*
X-166287Y-108497D01*
X-166335Y-108526D01*
X-166398Y-108559D01*
X-166477Y-108593D01*
X-166579Y-108630D01*
X-166638Y-108685D01*
X-166867Y-108780D01*
X-167435Y-109216D01*
X-167441Y-109210D01*
X-167656Y-109531D01*
X-168184Y-109606D01*
X-168246Y-109582D01*
X-168614Y-109336D01*
X-169096Y-109240D01*
X-169579Y-109336D01*
X-169987Y-109609D01*
X-170261Y-110018D01*
X-170320Y-110315D01*
X-170355Y-110377D01*
X-170364Y-110450D01*
X-170375Y-110502D01*
X-170389Y-110546D01*
X-170404Y-110583D01*
X-170422Y-110616D01*
X-170442Y-110643D01*
X-170464Y-110669D01*
X-170490Y-110692D01*
X-170516Y-110711D01*
X-171339Y-111051D01*
X-172361Y-111186D01*
Y-111190D01*
X-174323D01*
X-174357Y-111174D01*
X-174425Y-111171D01*
X-174475Y-111165D01*
X-174523Y-111155D01*
X-174568Y-111142D01*
X-174613Y-111125D01*
X-174657Y-111103D01*
X-174701Y-111077D01*
X-174745Y-111046D01*
X-174789Y-111010D01*
X-174843Y-110958D01*
X-174862Y-110951D01*
X-174876Y-110941D01*
X-174899Y-110855D01*
X-174842Y-110363D01*
X-174592Y-110196D01*
X-174319Y-109787D01*
X-174223Y-109304D01*
X-174319Y-108822D01*
X-174592Y-108414D01*
X-175000Y-108140D01*
X-175483Y-108045D01*
X-175965Y-108140D01*
X-176374Y-108414D01*
X-176556Y-108687D01*
X-177033Y-108696D01*
X-177103Y-108674D01*
X-177247Y-108326D01*
X-177287Y-108229D01*
X-177528Y-107914D01*
X-177574Y-107799D01*
X-178629Y-106989D01*
X-179859Y-106480D01*
X-181178Y-106306D01*
Y-106337D01*
X-183014D01*
X-183216Y-105837D01*
X-182991Y-105619D01*
X-175844D01*
X-174867Y-106023D01*
D02*
G37*
G36*
X-165862Y-109753D02*
X-165868Y-109699D01*
X-165885Y-109654D01*
X-165913Y-109620D01*
X-165953Y-109595D01*
X-166003Y-109580D01*
X-166066Y-109575D01*
X-166139Y-109579D01*
X-166224Y-109593D01*
X-166320Y-109617D01*
X-166427Y-109651D01*
X-166448Y-108986D01*
X-166337Y-108945D01*
X-166237Y-108902D01*
X-166149Y-108857D01*
X-166073Y-108810D01*
X-166009Y-108762D01*
X-165956Y-108711D01*
X-165915Y-108658D01*
X-165885Y-108604D01*
X-165868Y-108547D01*
X-165862Y-108489D01*
Y-109753D01*
D02*
G37*
G36*
X-212987Y-107219D02*
X-210729Y-107457D01*
X-210500Y-107451D01*
X-210313Y-107432D01*
X-210168Y-107401D01*
X-209800Y-107918D01*
X-209982Y-107992D01*
X-210152Y-108106D01*
X-210310Y-108260D01*
X-210456Y-108455D01*
X-210590Y-108691D01*
X-210712Y-108967D01*
X-210822Y-109284D01*
X-210919Y-109641D01*
X-211005Y-110039D01*
X-211079Y-110477D01*
X-213511Y-107134D01*
X-212987Y-107219D01*
D02*
G37*
G36*
X-169190Y-111381D02*
X-169274Y-111374D01*
X-169358Y-111373D01*
X-169440Y-111377D01*
X-169522Y-111386D01*
X-169603Y-111399D01*
X-169683Y-111418D01*
X-169762Y-111442D01*
X-169840Y-111472D01*
X-169918Y-111506D01*
X-169994Y-111545D01*
X-170386Y-111074D01*
X-170316Y-111033D01*
X-170252Y-110987D01*
X-170195Y-110936D01*
X-170144Y-110879D01*
X-170100Y-110817D01*
X-170063Y-110749D01*
X-170032Y-110676D01*
X-170008Y-110597D01*
X-169990Y-110513D01*
X-169979Y-110424D01*
X-169190Y-111381D01*
D02*
G37*
G36*
X-185299Y-111343D02*
X-185087Y-111484D01*
X-184995Y-111536D01*
X-184912Y-111575D01*
X-184839Y-111601D01*
X-184775Y-111614D01*
X-184721Y-111615D01*
X-184676Y-111603D01*
X-184640Y-111578D01*
X-185458Y-112397D01*
X-185446Y-112373D01*
X-185448Y-112342D01*
X-185464Y-112303D01*
X-185495Y-112257D01*
X-185540Y-112203D01*
X-185600Y-112141D01*
X-185763Y-111995D01*
X-185983Y-111818D01*
X-185419Y-111253D01*
X-185299Y-111343D01*
D02*
G37*
G36*
X-175041Y-111293D02*
X-174975Y-111347D01*
X-174907Y-111396D01*
X-174837Y-111437D01*
X-174765Y-111472D01*
X-174690Y-111501D01*
X-174614Y-111523D01*
X-174535Y-111539D01*
X-174455Y-111549D01*
X-174372Y-111552D01*
Y-112152D01*
X-174455Y-112155D01*
X-174535Y-112165D01*
X-174614Y-112181D01*
X-174690Y-112204D01*
X-174765Y-112232D01*
X-174837Y-112267D01*
X-174907Y-112309D01*
X-174975Y-112357D01*
X-175041Y-112412D01*
X-175104Y-112472D01*
Y-111232D01*
X-175041Y-111293D01*
D02*
G37*
G36*
X-198114Y-111876D02*
X-197975Y-112223D01*
X-197973Y-112279D01*
X-198164Y-112566D01*
X-198260Y-113048D01*
X-198164Y-113530D01*
X-197891Y-113939D01*
X-197482Y-114212D01*
X-197019Y-114304D01*
X-197000Y-114312D01*
X-196926Y-114314D01*
X-196868Y-114320D01*
X-196815Y-114329D01*
X-196766Y-114341D01*
X-196719Y-114357D01*
X-196676Y-114376D01*
X-196634Y-114399D01*
X-196593Y-114426D01*
X-196554Y-114457D01*
X-196527Y-114482D01*
X-196428Y-114584D01*
X-196353Y-114669D01*
X-196356Y-114688D01*
X-196350Y-114696D01*
Y-116312D01*
X-196850Y-116690D01*
X-197000Y-116660D01*
X-197482Y-116756D01*
X-197891Y-117029D01*
X-198164Y-117438D01*
X-198260Y-117920D01*
X-198164Y-118402D01*
X-197891Y-118811D01*
X-197482Y-119084D01*
X-197258Y-119129D01*
X-197091Y-119669D01*
X-197459Y-120036D01*
X-197490Y-120048D01*
X-197584Y-120074D01*
X-197699Y-120095D01*
X-198019Y-120123D01*
X-198210Y-120126D01*
X-198243Y-120141D01*
X-198259D01*
X-198287Y-120136D01*
X-198294Y-120141D01*
X-201571D01*
Y-120139D01*
X-202579Y-120006D01*
X-203519Y-119616D01*
X-204322Y-119001D01*
X-204322Y-118992D01*
X-204322Y-118992D01*
X-204322Y-118992D01*
X-204626Y-118537D01*
X-204733Y-118000D01*
X-204742D01*
Y-116197D01*
X-204650Y-116124D01*
X-204242Y-115975D01*
X-203953Y-116168D01*
X-203470Y-116264D01*
X-202988Y-116168D01*
X-202579Y-115895D01*
X-202306Y-115487D01*
X-202210Y-115004D01*
X-202306Y-114522D01*
X-202348Y-114459D01*
X-202351Y-114417D01*
X-202383Y-114350D01*
X-202400Y-114305D01*
X-202411Y-114266D01*
X-202415Y-114234D01*
X-202416Y-114207D01*
X-202414Y-114184D01*
X-202413Y-114180D01*
X-202205Y-113869D01*
X-202194Y-113862D01*
X-201031Y-112699D01*
X-201024Y-112706D01*
X-200374Y-112207D01*
X-199617Y-111894D01*
X-198804Y-111787D01*
Y-111776D01*
X-198193D01*
X-198114Y-111876D01*
D02*
G37*
G36*
X-165240Y-99884D02*
X-163420Y-100638D01*
X-161782Y-101733D01*
X-161085Y-102429D01*
X-161085Y-102429D01*
X-157861Y-105654D01*
X-157861Y-105654D01*
X-157640Y-105801D01*
X-157546Y-105895D01*
X-157546D01*
X-154674Y-111000D01*
X-154561Y-111228D01*
X-154445Y-111722D01*
Y-112230D01*
X-154561Y-112725D01*
X-154674Y-112953D01*
X-154674D01*
X-154674Y-112953D01*
Y-112953D01*
X-156441D01*
X-164000Y-111000D01*
X-162692Y-109692D01*
X-162636Y-109630D01*
X-162542Y-109490D01*
X-162478Y-109335D01*
X-162445Y-109170D01*
X-162441Y-109086D01*
X-162441Y-109086D01*
X-162441Y-108814D01*
X-162402Y-108616D01*
X-163541Y-108144D01*
X-164985Y-107180D01*
X-165598Y-106566D01*
X-165598Y-106566D01*
X-165754Y-106425D01*
X-166102Y-106193D01*
X-166488Y-106033D01*
X-166899Y-105951D01*
X-167108Y-105941D01*
X-173378D01*
X-174722Y-105673D01*
X-175989Y-105149D01*
X-177128Y-104387D01*
X-177613Y-103903D01*
X-178515Y-103000D01*
X-184000Y-99500D01*
X-167172D01*
X-165240Y-99884D01*
D02*
G37*
G36*
X-177214Y-112932D02*
X-177252Y-113043D01*
X-177280Y-113148D01*
X-177300Y-113245D01*
X-177312Y-113335D01*
X-177314Y-113418D01*
X-177308Y-113495D01*
X-177294Y-113564D01*
X-177271Y-113627D01*
X-177239Y-113682D01*
X-177198Y-113730D01*
X-177959Y-112970D01*
X-177948Y-112973D01*
X-177935Y-112963D01*
X-177919Y-112943D01*
X-177899Y-112910D01*
X-177876Y-112865D01*
X-177822Y-112740D01*
X-177716Y-112465D01*
X-177214Y-112932D01*
D02*
G37*
G36*
X-180445Y-111987D02*
X-180365Y-112054D01*
X-180289Y-112109D01*
X-180218Y-112150D01*
X-180151Y-112179D01*
X-180089Y-112194D01*
X-180031Y-112197D01*
X-179978Y-112187D01*
X-179929Y-112164D01*
X-179884Y-112128D01*
X-180733Y-112976D01*
X-180696Y-112932D01*
X-180674Y-112883D01*
X-180663Y-112829D01*
X-180666Y-112771D01*
X-180682Y-112709D01*
X-180710Y-112642D01*
X-180752Y-112571D01*
X-180806Y-112496D01*
X-180873Y-112416D01*
X-180953Y-112331D01*
X-180529Y-111907D01*
X-180445Y-111987D01*
D02*
G37*
G36*
X-202661Y-113843D02*
X-202707Y-113910D01*
X-202743Y-113977D01*
X-202770Y-114047D01*
X-202788Y-114118D01*
X-202795Y-114191D01*
X-202794Y-114266D01*
X-202782Y-114343D01*
X-202762Y-114421D01*
X-202731Y-114501D01*
X-202691Y-114583D01*
X-203876Y-114217D01*
X-203805Y-114178D01*
X-203737Y-114135D01*
X-203671Y-114089D01*
X-203606Y-114038D01*
X-203544Y-113984D01*
X-203426Y-113864D01*
X-203370Y-113799D01*
X-203265Y-113656D01*
X-202661Y-113843D01*
D02*
G37*
G36*
X-196112Y-113145D02*
X-196104Y-113230D01*
X-196090Y-113312D01*
X-196070Y-113391D01*
X-196044Y-113467D01*
X-196011Y-113540D01*
X-195973Y-113610D01*
X-195929Y-113676D01*
X-195879Y-113740D01*
X-195823Y-113801D01*
X-196196Y-114174D01*
X-195449D01*
X-195363Y-114256D01*
X-195277Y-114330D01*
X-195191Y-114395D01*
X-195106Y-114452D01*
X-195021Y-114500D01*
X-194936Y-114539D01*
X-194852Y-114570D01*
X-194768Y-114592D01*
X-194684Y-114605D01*
X-194601Y-114610D01*
X-195988Y-114598D01*
X-195970Y-114594D01*
X-195964Y-114582D01*
X-195968Y-114560D01*
X-195983Y-114531D01*
X-196008Y-114492D01*
X-196045Y-114446D01*
X-196150Y-114327D01*
X-196262Y-114211D01*
X-196308Y-114169D01*
X-196371Y-114119D01*
X-196438Y-114075D01*
X-196508Y-114036D01*
X-196581Y-114004D01*
X-196657Y-113978D01*
X-196736Y-113958D01*
X-196818Y-113944D01*
X-196903Y-113936D01*
X-196991Y-113934D01*
X-196114Y-113057D01*
X-196112Y-113145D01*
D02*
G37*
G36*
X-115000Y-112953D02*
Y-119163D01*
X-115750Y-119913D01*
X-149087D01*
X-149172Y-119828D01*
X-165974Y-115207D01*
X-165000Y-117438D01*
X-166144Y-117438D01*
X-166144Y-117438D01*
X-166312Y-117446D01*
X-166643Y-117505D01*
X-166959Y-117620D01*
X-167250Y-117789D01*
X-167383Y-117892D01*
X-170992Y-119913D01*
X-170992D01*
X-171130Y-119981D01*
X-171426Y-120061D01*
X-171732Y-120084D01*
X-172036Y-120047D01*
X-172182Y-120000D01*
X-172266Y-120055D01*
X-172452Y-120130D01*
X-172649Y-120168D01*
X-172849Y-120166D01*
X-172948Y-120146D01*
Y-119913D01*
X-172948Y-119764D01*
X-172889Y-119471D01*
X-172775Y-119196D01*
X-172610Y-118948D01*
X-172504Y-118843D01*
X-169887Y-116226D01*
X-169887Y-116226D01*
X-169524Y-115862D01*
X-168669Y-115291D01*
X-167719Y-114898D01*
X-166711Y-114697D01*
X-166197Y-114697D01*
X-165845Y-114345D01*
X-143503D01*
X-133108Y-103950D01*
X-124003D01*
X-115000Y-112953D01*
D02*
G37*
G36*
X-173932Y-113981D02*
X-173902Y-113990D01*
X-173865Y-113998D01*
X-173821Y-114004D01*
X-173711Y-114012D01*
X-173573Y-114015D01*
X-173407Y-114012D01*
X-174264Y-114909D01*
X-174266Y-114825D01*
X-174277Y-114682D01*
X-174286Y-114622D01*
X-174298Y-114570D01*
X-174312Y-114525D01*
X-174328Y-114489D01*
X-174346Y-114460D01*
X-174367Y-114439D01*
X-174390Y-114426D01*
X-173956Y-113970D01*
X-173932Y-113981D01*
D02*
G37*
G36*
X-189354Y-115605D02*
X-189276Y-115671D01*
X-189202Y-115725D01*
X-189134Y-115767D01*
X-189069Y-115795D01*
X-189009Y-115812D01*
X-188954Y-115816D01*
X-188903Y-115808D01*
X-188857Y-115787D01*
X-188815Y-115754D01*
X-189634Y-116572D01*
X-189600Y-116530D01*
X-189580Y-116484D01*
X-189571Y-116433D01*
X-189575Y-116378D01*
X-189592Y-116318D01*
X-189621Y-116254D01*
X-189662Y-116185D01*
X-189716Y-116111D01*
X-189782Y-116033D01*
X-189861Y-115951D01*
X-189437Y-115526D01*
X-189354Y-115605D01*
D02*
G37*
G36*
X-193012Y-114774D02*
X-192978Y-114895D01*
X-192921Y-115014D01*
X-192842Y-115130D01*
X-192741Y-115244D01*
X-192617Y-115356D01*
X-192471Y-115465D01*
X-192303Y-115572D01*
X-192112Y-115677D01*
X-191899Y-115779D01*
X-191953Y-117152D01*
X-192074Y-117100D01*
X-192418Y-116974D01*
X-192526Y-116944D01*
X-192731Y-116900D01*
X-192828Y-116886D01*
X-192922Y-116877D01*
X-193012Y-116874D01*
X-193024Y-114651D01*
X-193012Y-114774D01*
D02*
G37*
G36*
X-172738Y-117342D02*
X-172816Y-117425D01*
X-172882Y-117503D01*
X-172936Y-117576D01*
X-172978Y-117645D01*
X-173007Y-117710D01*
X-173023Y-117770D01*
X-173027Y-117825D01*
X-173019Y-117876D01*
X-172998Y-117922D01*
X-172965Y-117964D01*
X-173783Y-117145D01*
X-173741Y-117179D01*
X-173695Y-117199D01*
X-173644Y-117208D01*
X-173589Y-117203D01*
X-173529Y-117187D01*
X-173465Y-117158D01*
X-173396Y-117117D01*
X-173322Y-117063D01*
X-173245Y-116997D01*
X-173162Y-116918D01*
X-172738Y-117342D01*
D02*
G37*
G36*
X-195778Y-119218D02*
X-195673Y-119279D01*
X-195550Y-119327D01*
X-195410Y-119364D01*
X-195253Y-119389D01*
X-195078Y-119402D01*
X-194887Y-119402D01*
X-194678Y-119391D01*
X-194209Y-119332D01*
X-193819Y-120513D01*
X-193907Y-120528D01*
X-194270Y-120613D01*
X-194302Y-120626D01*
X-194327Y-120639D01*
X-194343Y-120651D01*
X-195867Y-119145D01*
X-195778Y-119218D01*
D02*
G37*
G36*
X-165874Y-120786D02*
X-165886Y-120747D01*
X-165921Y-120717D01*
X-165980Y-120694D01*
X-166063Y-120680D01*
X-166169Y-120673D01*
X-166299Y-120675D01*
X-166630Y-120704D01*
X-167055Y-120765D01*
X-167059Y-119534D01*
X-166834Y-119494D01*
X-166301Y-119361D01*
X-166170Y-119313D01*
X-166064Y-119262D01*
X-165981Y-119210D01*
X-165921Y-119155D01*
X-165886Y-119098D01*
X-165874Y-119038D01*
Y-120786D01*
D02*
G37*
G36*
X-190652Y-121104D02*
X-190720Y-120992D01*
X-190813Y-120891D01*
X-190931Y-120802D01*
X-191074Y-120726D01*
X-191243Y-120660D01*
X-191436Y-120607D01*
X-191654Y-120566D01*
X-191898Y-120536D01*
X-192167Y-120519D01*
X-192461Y-120513D01*
X-193574Y-119313D01*
X-193181Y-119307D01*
X-192536Y-119259D01*
X-192284Y-119218D01*
X-192080Y-119165D01*
X-191922Y-119100D01*
X-191812Y-119023D01*
X-191750Y-118934D01*
X-191734Y-118833D01*
X-191766Y-118721D01*
X-190652Y-121104D01*
D02*
G37*
G36*
X-197509Y-121678D02*
X-197498Y-121605D01*
X-197517Y-121539D01*
X-197564Y-121481D01*
X-197640Y-121431D01*
X-197745Y-121389D01*
X-197878Y-121354D01*
X-198040Y-121327D01*
X-198231Y-121308D01*
X-198698Y-121293D01*
X-198203Y-120505D01*
X-197999Y-120501D01*
X-197648Y-120471D01*
X-197501Y-120444D01*
X-197372Y-120409D01*
X-197263Y-120367D01*
X-197172Y-120317D01*
X-197100Y-120259D01*
X-197047Y-120193D01*
X-197013Y-120120D01*
X-197509Y-121678D01*
D02*
G37*
G36*
X-171266Y-123255D02*
X-171425Y-123422D01*
X-171558Y-123580D01*
X-171665Y-123730D01*
X-171747Y-123871D01*
X-171803Y-124004D01*
X-171834Y-124127D01*
X-171838Y-124242D01*
X-171818Y-124349D01*
X-171771Y-124447D01*
X-171699Y-124536D01*
X-173396Y-122839D01*
X-173307Y-122911D01*
X-173209Y-122957D01*
X-173103Y-122978D01*
X-172988Y-122973D01*
X-172864Y-122943D01*
X-172731Y-122887D01*
X-172590Y-122805D01*
X-172441Y-122698D01*
X-172282Y-122565D01*
X-172115Y-122406D01*
X-171266Y-123255D01*
D02*
G37*
G36*
X-192628Y-122058D02*
X-192597Y-122128D01*
X-192561Y-122196D01*
X-192519Y-122262D01*
X-192472Y-122325D01*
X-192419Y-122387D01*
X-192361Y-122447D01*
X-192297Y-122505D01*
X-192228Y-122560D01*
X-192153Y-122614D01*
X-192435Y-123150D01*
X-192497Y-123109D01*
X-192563Y-123076D01*
X-192632Y-123051D01*
X-192706Y-123033D01*
X-192782Y-123023D01*
X-192863Y-123021D01*
X-192947Y-123027D01*
X-193035Y-123039D01*
X-193127Y-123060D01*
X-193222Y-123088D01*
X-192654Y-121986D01*
X-192628Y-122058D01*
D02*
G37*
G36*
X-166129Y-122303D02*
X-166092Y-122389D01*
X-166003Y-122557D01*
X-165951Y-122641D01*
X-165832Y-122806D01*
X-165765Y-122888D01*
X-165725Y-122930D01*
X-165531Y-123094D01*
X-165434Y-123162D01*
X-165345Y-123213D01*
X-165265Y-123247D01*
X-165193Y-123264D01*
X-165130Y-123264D01*
X-165075Y-123247D01*
X-165029Y-123214D01*
X-165874Y-124059D01*
X-165840Y-124013D01*
X-165824Y-123958D01*
X-165824Y-123895D01*
X-165841Y-123823D01*
X-165875Y-123742D01*
X-165926Y-123654D01*
X-165994Y-123556D01*
X-166078Y-123451D01*
X-166106Y-123421D01*
X-166132Y-123401D01*
X-166198Y-123361D01*
X-166265Y-123330D01*
X-166334Y-123308D01*
X-166405Y-123295D01*
X-166477Y-123291D01*
X-166550Y-123296D01*
X-166624Y-123310D01*
X-166700Y-123334D01*
X-166161Y-122217D01*
X-166129Y-122303D01*
D02*
G37*
G36*
X-191580Y-123123D02*
X-191500Y-123190D01*
X-191425Y-123244D01*
X-191353Y-123286D01*
X-191287Y-123314D01*
X-191225Y-123330D01*
X-191167Y-123333D01*
X-191113Y-123322D01*
X-191064Y-123299D01*
X-191019Y-123263D01*
X-191868Y-124112D01*
X-191832Y-124067D01*
X-191809Y-124018D01*
X-191799Y-123965D01*
X-191802Y-123907D01*
X-191817Y-123845D01*
X-191846Y-123778D01*
X-191887Y-123707D01*
X-191941Y-123631D01*
X-192008Y-123551D01*
X-192089Y-123467D01*
X-191664Y-123043D01*
X-191580Y-123123D01*
D02*
G37*
G36*
X-159068Y-123000D02*
X-158702Y-123000D01*
X-157984Y-123143D01*
X-157308Y-123423D01*
X-156700Y-123829D01*
X-156441Y-124088D01*
X-156441Y-126000D01*
Y-126000D01*
X-156500Y-126059D01*
X-156640Y-126153D01*
X-156796Y-126217D01*
X-156960Y-126250D01*
X-163346D01*
X-163346Y-123871D01*
X-163346D01*
X-163341Y-123857D01*
X-163335Y-123826D01*
Y-123795D01*
X-163341Y-123765D01*
X-163346Y-123750D01*
X-161632Y-123000D01*
X-159068D01*
X-159068Y-123000D01*
D02*
G37*
G36*
X-188816Y-128247D02*
X-188840Y-128239D01*
X-188886Y-128241D01*
X-188953Y-128252D01*
X-189041Y-128274D01*
X-189283Y-128348D01*
X-190024Y-128616D01*
X-190627Y-127538D01*
X-190196Y-127367D01*
X-189147Y-126871D01*
X-188879Y-126711D01*
X-188653Y-126554D01*
X-188468Y-126399D01*
X-188324Y-126248D01*
X-188221Y-126099D01*
X-188159Y-125953D01*
X-188816Y-128247D01*
D02*
G37*
G36*
X-206998Y-128374D02*
X-206988Y-128454D01*
X-206972Y-128533D01*
X-206950Y-128609D01*
X-206921Y-128683D01*
X-206886Y-128755D01*
X-206844Y-128826D01*
X-206796Y-128894D01*
X-206742Y-128959D01*
X-206681Y-129023D01*
X-207921D01*
X-207860Y-128959D01*
X-207806Y-128894D01*
X-207758Y-128826D01*
X-207716Y-128755D01*
X-207681Y-128683D01*
X-207652Y-128609D01*
X-207630Y-128533D01*
X-207614Y-128454D01*
X-207604Y-128374D01*
X-207601Y-128291D01*
X-207001D01*
X-206998Y-128374D01*
D02*
G37*
G36*
X-194807Y-127173D02*
X-194735Y-127274D01*
X-194632Y-127363D01*
X-194498Y-127439D01*
X-194333Y-127505D01*
X-194137Y-127558D01*
X-193909Y-127599D01*
X-193650Y-127629D01*
X-193360Y-127646D01*
X-193038Y-127652D01*
X-192543Y-128852D01*
X-192909Y-128858D01*
X-193517Y-128906D01*
X-193760Y-128947D01*
X-193961Y-129000D01*
X-194121Y-129065D01*
X-194241Y-129142D01*
X-194319Y-129231D01*
X-194356Y-129332D01*
X-194352Y-129444D01*
X-194847Y-127061D01*
X-194807Y-127173D01*
D02*
G37*
G36*
X-116500Y-123000D02*
X-115000Y-124500D01*
Y-129500D01*
X-125415Y-139915D01*
X-131585D01*
X-139658Y-131842D01*
X-151842D01*
X-153000Y-133000D01*
X-159882Y-133000D01*
X-166000Y-129500D01*
X-155000Y-129500D01*
X-148500Y-123000D01*
X-116500Y-123000D01*
D02*
G37*
G36*
X-175782Y-128862D02*
X-175803Y-128908D01*
X-175811Y-128959D01*
X-175807Y-129014D01*
X-175791Y-129074D01*
X-175761Y-129139D01*
X-175720Y-129207D01*
X-175666Y-129281D01*
X-175600Y-129359D01*
X-175522Y-129442D01*
X-175946Y-129866D01*
X-176028Y-129787D01*
X-176106Y-129721D01*
X-176180Y-129667D01*
X-176249Y-129626D01*
X-176313Y-129597D01*
X-176373Y-129580D01*
X-176428Y-129576D01*
X-176479Y-129585D01*
X-176525Y-129605D01*
X-176567Y-129639D01*
X-175749Y-128820D01*
X-175782Y-128862D01*
D02*
G37*
G36*
X-175001Y-129958D02*
X-174936Y-130008D01*
X-174870Y-130051D01*
X-174800Y-130088D01*
X-174727Y-130118D01*
X-174652Y-130142D01*
X-174573Y-130159D01*
X-174492Y-130169D01*
X-174408Y-130173D01*
X-174321Y-130170D01*
X-175145Y-131097D01*
X-175152Y-131008D01*
X-175165Y-130922D01*
X-175183Y-130840D01*
X-175206Y-130760D01*
X-175235Y-130684D01*
X-175269Y-130612D01*
X-175309Y-130542D01*
X-175354Y-130475D01*
X-175404Y-130412D01*
X-175460Y-130352D01*
X-175062Y-129901D01*
X-175001Y-129958D01*
D02*
G37*
G36*
X-184689Y-129604D02*
X-184839Y-129708D01*
X-184993Y-129853D01*
X-185149Y-130040D01*
X-185308Y-130267D01*
X-185471Y-130536D01*
X-185636Y-130846D01*
X-185977Y-131590D01*
X-186152Y-132024D01*
X-187226Y-131417D01*
X-187143Y-131200D01*
X-186842Y-130237D01*
X-186850Y-130213D01*
X-184542Y-129541D01*
X-184689Y-129604D01*
D02*
G37*
G36*
X-166158Y-132635D02*
X-166169Y-132524D01*
X-166203Y-132433D01*
X-166259Y-132361D01*
X-166339Y-132309D01*
X-166440Y-132277D01*
X-166565Y-132265D01*
X-166712Y-132273D01*
X-166881Y-132301D01*
X-167073Y-132348D01*
X-167288Y-132416D01*
X-167315Y-131108D01*
X-167095Y-131027D01*
X-166898Y-130941D01*
X-166725Y-130851D01*
X-166574Y-130757D01*
X-166447Y-130659D01*
X-166343Y-130556D01*
X-166262Y-130449D01*
X-166204Y-130338D01*
X-166169Y-130223D01*
X-166158Y-130103D01*
Y-132635D01*
D02*
G37*
G36*
X-178566Y-131646D02*
X-178587Y-131692D01*
X-178595Y-131743D01*
X-178591Y-131798D01*
X-178574Y-131858D01*
X-178545Y-131922D01*
X-178504Y-131991D01*
X-178450Y-132065D01*
X-178384Y-132143D01*
X-178305Y-132225D01*
X-178730Y-132650D01*
X-178812Y-132571D01*
X-178890Y-132505D01*
X-178964Y-132451D01*
X-179033Y-132410D01*
X-179097Y-132381D01*
X-179157Y-132364D01*
X-179212Y-132360D01*
X-179263Y-132368D01*
X-179309Y-132389D01*
X-179351Y-132422D01*
X-178533Y-131604D01*
X-178566Y-131646D01*
D02*
G37*
G36*
X-182899Y-130682D02*
X-182954Y-130786D01*
X-182989Y-130903D01*
X-183005Y-131034D01*
X-183001Y-131178D01*
X-182978Y-131337D01*
X-182936Y-131508D01*
X-182874Y-131693D01*
X-182793Y-131892D01*
X-182693Y-132104D01*
X-183668Y-133017D01*
X-183773Y-132821D01*
X-183875Y-132654D01*
X-183975Y-132516D01*
X-184072Y-132408D01*
X-184167Y-132329D01*
X-184259Y-132279D01*
X-184349Y-132258D01*
X-184437Y-132266D01*
X-184522Y-132304D01*
X-184605Y-132371D01*
X-182825Y-130591D01*
X-182899Y-130682D01*
D02*
G37*
G36*
X-177219Y-133308D02*
X-177158Y-133359D01*
X-177093Y-133406D01*
X-177025Y-133450D01*
X-176954Y-133490D01*
X-176879Y-133526D01*
X-176801Y-133559D01*
X-176719Y-133588D01*
X-176547Y-133635D01*
X-177600Y-134291D01*
X-177584Y-134210D01*
X-177576Y-134130D01*
X-177576Y-134053D01*
X-177585Y-133978D01*
X-177602Y-133905D01*
X-177626Y-133835D01*
X-177659Y-133766D01*
X-177701Y-133699D01*
X-177750Y-133635D01*
X-177807Y-133572D01*
X-177277Y-133253D01*
X-177219Y-133308D01*
D02*
G37*
G36*
X-165862Y-135515D02*
X-165868Y-135458D01*
X-165886Y-135407D01*
X-165917Y-135362D01*
X-165960Y-135323D01*
X-166015Y-135290D01*
X-166082Y-135263D01*
X-166162Y-135242D01*
X-166254Y-135227D01*
X-166358Y-135218D01*
X-166474Y-135215D01*
Y-134615D01*
X-166358Y-134612D01*
X-166254Y-134603D01*
X-166162Y-134588D01*
X-166082Y-134567D01*
X-166015Y-134540D01*
X-165960Y-134507D01*
X-165917Y-134468D01*
X-165886Y-134423D01*
X-165868Y-134372D01*
X-165862Y-134315D01*
Y-135515D01*
D02*
G37*
G36*
X-182394Y-135012D02*
X-182376Y-135216D01*
X-182346Y-135396D01*
X-182304Y-135552D01*
X-182250Y-135684D01*
X-182184Y-135792D01*
X-182106Y-135876D01*
X-182016Y-135936D01*
X-181914Y-135972D01*
X-181800Y-135984D01*
X-184200D01*
X-184086Y-135972D01*
X-183984Y-135936D01*
X-183894Y-135876D01*
X-183816Y-135792D01*
X-183750Y-135684D01*
X-183696Y-135552D01*
X-183654Y-135396D01*
X-183624Y-135216D01*
X-183606Y-135012D01*
X-183600Y-134784D01*
X-182400D01*
X-182394Y-135012D01*
D02*
G37*
G36*
X-172880Y-136280D02*
X-172946Y-136328D01*
X-173005Y-136380D01*
X-173058Y-136437D01*
X-173105Y-136498D01*
X-173146Y-136564D01*
X-173179Y-136635D01*
X-173207Y-136711D01*
X-173228Y-136791D01*
X-173243Y-136875D01*
X-173251Y-136964D01*
X-174069Y-136033D01*
X-173983Y-136036D01*
X-173899Y-136035D01*
X-173817Y-136028D01*
X-173735Y-136015D01*
X-173656Y-135997D01*
X-173578Y-135974D01*
X-173501Y-135945D01*
X-173426Y-135911D01*
X-173353Y-135871D01*
X-173281Y-135826D01*
X-172880Y-136280D01*
D02*
G37*
G36*
X-184484Y-136948D02*
X-184476Y-136974D01*
Y-138199D01*
X-184476Y-138228D01*
X-184472Y-138265D01*
X-185273Y-137464D01*
X-185122Y-137339D01*
X-184604Y-136968D01*
X-184548Y-136944D01*
X-184508Y-136938D01*
X-184484Y-136948D01*
D02*
G37*
G36*
X-184425Y-138312D02*
X-184434Y-138319D01*
X-184443Y-138321D01*
X-184451Y-138320D01*
X-184458Y-138315D01*
X-184463Y-138305D01*
X-184468Y-138292D01*
X-184471Y-138275D01*
X-184472Y-138265D01*
X-184425Y-138312D01*
D02*
G37*
G36*
X-184890Y-138777D02*
X-185113Y-139009D01*
X-185468Y-139430D01*
X-185600Y-139621D01*
X-185701Y-139797D01*
X-185772Y-139960D01*
X-185812Y-140109D01*
X-185822Y-140245D01*
X-185801Y-140366D01*
X-185750Y-140474D01*
X-187085Y-138439D01*
X-187009Y-138521D01*
X-186911Y-138566D01*
X-186793Y-138574D01*
X-186655Y-138544D01*
X-186495Y-138477D01*
X-186315Y-138372D01*
X-186115Y-138230D01*
X-185893Y-138050D01*
X-185388Y-137579D01*
X-184890Y-138777D01*
D02*
G37*
%LPC*%
G36*
X-83500Y-95240D02*
X-83982Y-95336D01*
X-84391Y-95609D01*
X-84664Y-96018D01*
X-84760Y-96500D01*
X-84664Y-96982D01*
X-84391Y-97391D01*
X-83982Y-97664D01*
X-83500Y-97760D01*
X-83018Y-97664D01*
X-82636Y-97409D01*
X-82612Y-97400D01*
X-82556Y-97347D01*
X-82512Y-97312D01*
X-82469Y-97283D01*
X-82429Y-97261D01*
X-82390Y-97244D01*
X-82352Y-97232D01*
X-82324Y-97226D01*
X-81536Y-97330D01*
X-80490Y-97763D01*
X-80490Y-97763D01*
X-80402Y-97816D01*
X-80335Y-97861D01*
X-80281Y-97904D01*
X-80238Y-97944D01*
X-80207Y-97979D01*
X-80186Y-98008D01*
X-80173Y-98031D01*
X-80167Y-98049D01*
X-80163Y-98064D01*
X-80160Y-98105D01*
X-80145Y-98137D01*
Y-99780D01*
X-77444D01*
Y-96580D01*
X-79677D01*
X-79680Y-96577D01*
X-79703Y-96580D01*
X-79742D01*
X-79782Y-96563D01*
X-79822Y-96579D01*
X-80041Y-96477D01*
X-80131Y-96427D01*
X-80182Y-96421D01*
X-80395Y-96308D01*
X-81599Y-95942D01*
X-82025Y-95900D01*
X-82079Y-95868D01*
X-82151Y-95857D01*
X-82209Y-95844D01*
X-82263Y-95828D01*
X-82315Y-95809D01*
X-82365Y-95787D01*
X-82413Y-95761D01*
X-82459Y-95732D01*
X-82504Y-95699D01*
X-82549Y-95661D01*
X-82601Y-95611D01*
X-82614Y-95606D01*
X-83018Y-95336D01*
X-83500Y-95240D01*
D02*
G37*
G36*
X-214000Y-98841D02*
X-214862Y-98954D01*
X-215666Y-99287D01*
X-216355Y-99816D01*
X-216885Y-100506D01*
X-217218Y-101310D01*
X-217331Y-102172D01*
X-217218Y-103034D01*
X-216885Y-103838D01*
X-216355Y-104527D01*
X-215666Y-105057D01*
X-214862Y-105390D01*
X-214000Y-105503D01*
X-213138Y-105390D01*
X-212334Y-105057D01*
X-211645Y-104527D01*
X-211115Y-103838D01*
X-210782Y-103034D01*
X-210669Y-102172D01*
X-210782Y-101310D01*
X-211115Y-100506D01*
X-211645Y-99816D01*
X-212334Y-99287D01*
X-213138Y-98954D01*
X-214000Y-98841D01*
D02*
G37*
G36*
X-147000Y-95031D02*
X-148637Y-95192D01*
X-150211Y-95670D01*
X-151662Y-96445D01*
X-152933Y-97488D01*
X-153976Y-98760D01*
X-154752Y-100210D01*
X-155229Y-101784D01*
X-155390Y-103421D01*
X-155229Y-105058D01*
X-154752Y-106632D01*
X-153976Y-108083D01*
X-152933Y-109354D01*
X-151662Y-110398D01*
X-150211Y-111173D01*
X-148637Y-111650D01*
X-147000Y-111812D01*
X-145363Y-111650D01*
X-143789Y-111173D01*
X-142339Y-110398D01*
X-141067Y-109354D01*
X-140024Y-108083D01*
X-139248Y-106632D01*
X-138771Y-105058D01*
X-138610Y-103421D01*
X-138771Y-101784D01*
X-139248Y-100210D01*
X-140024Y-98760D01*
X-141067Y-97488D01*
X-142339Y-96445D01*
X-143789Y-95670D01*
X-145363Y-95192D01*
X-147000Y-95031D01*
D02*
G37*
G36*
X-77444Y-101400D02*
X-80145D01*
Y-104600D01*
X-78368D01*
X-78360Y-104602D01*
X-78356Y-104600D01*
X-78198D01*
X-78163Y-104625D01*
X-77947Y-104811D01*
X-77820Y-104934D01*
X-77806Y-104940D01*
X-77799Y-104953D01*
X-77769Y-104962D01*
X-71763Y-110969D01*
X-71548Y-111112D01*
X-71294Y-111163D01*
X-57188D01*
X-57152Y-111179D01*
X-57048Y-111181D01*
X-56970Y-111188D01*
X-56911Y-111198D01*
X-56904Y-111200D01*
Y-114476D01*
X-49511D01*
Y-109838D01*
X-54858D01*
X-54865Y-109837D01*
X-56504D01*
X-56542Y-109822D01*
X-57142D01*
X-57180Y-109837D01*
X-71020D01*
X-76884Y-103974D01*
X-76899Y-103936D01*
X-77041Y-103789D01*
X-77268Y-103531D01*
X-77346Y-103430D01*
X-77404Y-103342D01*
X-77442Y-103274D01*
X-77444Y-103267D01*
Y-101400D01*
D02*
G37*
G36*
X-214000Y-114589D02*
X-214862Y-114702D01*
X-215666Y-115035D01*
X-216355Y-115564D01*
X-216885Y-116254D01*
X-217218Y-117058D01*
X-217331Y-117920D01*
X-217218Y-118782D01*
X-216885Y-119586D01*
X-216355Y-120275D01*
X-215666Y-120805D01*
X-214862Y-121138D01*
X-214000Y-121251D01*
X-213138Y-121138D01*
X-212334Y-120805D01*
X-211645Y-120275D01*
X-211115Y-119586D01*
X-210782Y-118782D01*
X-210669Y-117920D01*
X-210782Y-117058D01*
X-211115Y-116254D01*
X-211645Y-115564D01*
X-212334Y-115035D01*
X-213138Y-114702D01*
X-214000Y-114589D01*
D02*
G37*
G36*
X-44319Y-98721D02*
X-48681D01*
Y-103279D01*
X-47199D01*
X-47198Y-103284D01*
X-47188Y-103344D01*
X-47181Y-103422D01*
X-47179Y-103527D01*
X-47163Y-103563D01*
Y-116656D01*
X-51837Y-121331D01*
X-74815D01*
X-74851Y-121315D01*
X-74954Y-121313D01*
X-75029Y-121306D01*
X-75086Y-121296D01*
X-75099Y-121293D01*
Y-119676D01*
X-82492D01*
Y-124312D01*
X-79495D01*
X-79493Y-124317D01*
X-79484Y-124377D01*
X-79477Y-124455D01*
X-79474Y-124560D01*
X-79458Y-124596D01*
Y-126585D01*
X-79474Y-126620D01*
X-79482Y-126830D01*
X-79489Y-126912D01*
X-79518Y-127090D01*
X-79534Y-127160D01*
X-79581Y-127315D01*
X-79606Y-127379D01*
X-79640Y-127453D01*
X-79641Y-127484D01*
X-79664Y-127518D01*
X-79760Y-128000D01*
X-79664Y-128482D01*
X-79391Y-128891D01*
X-78982Y-129164D01*
X-78500Y-129260D01*
X-78018Y-129164D01*
X-77609Y-128891D01*
X-77336Y-128482D01*
X-77240Y-128000D01*
X-77336Y-127518D01*
X-77609Y-127109D01*
X-77913Y-126906D01*
X-77950Y-126862D01*
X-78001Y-126834D01*
X-78028Y-126816D01*
X-78049Y-126798D01*
X-78065Y-126781D01*
X-78078Y-126762D01*
X-78089Y-126740D01*
X-78100Y-126712D01*
X-78108Y-126678D01*
X-78114Y-126634D01*
X-78117Y-126566D01*
X-78120Y-126559D01*
X-78118Y-126551D01*
X-78133Y-126522D01*
Y-124596D01*
X-78117Y-124560D01*
X-78114Y-124455D01*
X-78107Y-124377D01*
X-78097Y-124318D01*
X-78096Y-124312D01*
X-75099D01*
Y-122695D01*
X-75086Y-122692D01*
X-75029Y-122682D01*
X-74954Y-122675D01*
X-74851Y-122673D01*
X-74815Y-122657D01*
X-51563D01*
X-51309Y-122606D01*
X-51094Y-122463D01*
X-46031Y-117400D01*
X-45888Y-117185D01*
X-45837Y-116931D01*
Y-103563D01*
X-45821Y-103527D01*
X-45819Y-103422D01*
X-45812Y-103344D01*
X-45802Y-103284D01*
X-45801Y-103279D01*
X-44319D01*
Y-98721D01*
D02*
G37*
G36*
X-63000Y-128925D02*
X-63597Y-129044D01*
X-64104Y-129382D01*
X-64442Y-129889D01*
X-64561Y-130486D01*
X-64442Y-131083D01*
X-64104Y-131590D01*
X-63597Y-131928D01*
X-63000Y-132047D01*
X-62403Y-131928D01*
X-61896Y-131590D01*
X-61558Y-131083D01*
X-61439Y-130486D01*
X-61558Y-129889D01*
X-61896Y-129382D01*
X-62403Y-129044D01*
X-63000Y-128925D01*
D02*
G37*
G36*
X-201571Y-130128D02*
X-202053Y-130224D01*
X-202462Y-130497D01*
X-202735Y-130905D01*
X-202831Y-131388D01*
X-202735Y-131870D01*
X-202462Y-132279D01*
X-202053Y-132552D01*
X-201571Y-132648D01*
X-201088Y-132552D01*
X-200679Y-132279D01*
X-200406Y-131870D01*
X-200310Y-131388D01*
X-200406Y-130905D01*
X-200679Y-130497D01*
X-201088Y-130224D01*
X-201571Y-130128D01*
D02*
G37*
G36*
X-49510Y-129524D02*
X-56903D01*
Y-133234D01*
X-57396Y-133396D01*
X-57903Y-133058D01*
X-58500Y-132939D01*
X-59097Y-133058D01*
X-59604Y-133396D01*
X-59942Y-133903D01*
X-60061Y-134500D01*
X-59942Y-135097D01*
X-59604Y-135604D01*
X-59097Y-135942D01*
X-58500Y-136061D01*
X-57903Y-135942D01*
X-57396Y-135604D01*
X-57058Y-135097D01*
X-56966Y-134634D01*
X-56939Y-134500D01*
X-56497Y-134160D01*
X-54305D01*
X-54098Y-134660D01*
X-56274Y-136837D01*
X-75295D01*
X-75548Y-136888D01*
X-75763Y-137031D01*
X-77769Y-139038D01*
X-77799Y-139047D01*
X-77805Y-139057D01*
X-77815Y-139061D01*
X-78063Y-139292D01*
X-78155Y-139367D01*
X-78202Y-139400D01*
X-78296D01*
X-78298Y-139399D01*
X-78311Y-139400D01*
X-78334D01*
X-78360Y-139386D01*
X-78410Y-139400D01*
X-80145D01*
Y-142600D01*
X-77444D01*
Y-140969D01*
X-77443Y-140968D01*
X-77444Y-140954D01*
Y-140750D01*
X-77432Y-140718D01*
X-77397Y-140652D01*
X-77345Y-140573D01*
X-77037Y-140206D01*
X-76898Y-140064D01*
X-76883Y-140026D01*
X-75020Y-138163D01*
X-68479D01*
X-68327Y-138663D01*
X-68604Y-138847D01*
X-68942Y-139354D01*
X-69061Y-139951D01*
X-68942Y-140549D01*
X-68604Y-141055D01*
X-68097Y-141394D01*
X-67500Y-141512D01*
X-66903Y-141394D01*
X-66396Y-141055D01*
X-66058Y-140549D01*
X-65939Y-139951D01*
X-66058Y-139354D01*
X-66396Y-138847D01*
X-66673Y-138663D01*
X-66521Y-138163D01*
X-59479D01*
X-59327Y-138663D01*
X-59604Y-138847D01*
X-59942Y-139354D01*
X-60061Y-139951D01*
X-59942Y-140549D01*
X-59604Y-141055D01*
X-59097Y-141394D01*
X-58500Y-141512D01*
X-57903Y-141394D01*
X-57396Y-141055D01*
X-57058Y-140549D01*
X-56939Y-139951D01*
X-57058Y-139354D01*
X-57396Y-138847D01*
X-57673Y-138663D01*
X-57521Y-138163D01*
X-56000D01*
X-55746Y-138112D01*
X-55531Y-137969D01*
X-52738Y-135175D01*
X-52594Y-134960D01*
X-52544Y-134706D01*
Y-134444D01*
X-52528Y-134408D01*
X-52525Y-134303D01*
X-52518Y-134225D01*
X-52508Y-134166D01*
X-52507Y-134160D01*
X-49510D01*
Y-129524D01*
D02*
G37*
G36*
X-196200Y-130740D02*
X-196682Y-130836D01*
X-197091Y-131109D01*
X-197364Y-131518D01*
X-197423Y-131816D01*
X-197738Y-132154D01*
X-197747Y-132177D01*
X-198159Y-132589D01*
X-198503Y-132933D01*
X-198891Y-133202D01*
X-199163Y-133383D01*
X-199927Y-133535D01*
X-199948Y-133531D01*
X-202816D01*
Y-133516D01*
X-204534Y-133651D01*
X-206210Y-134054D01*
X-207803Y-134713D01*
X-209272Y-135614D01*
X-210583Y-136733D01*
X-210572Y-136744D01*
X-211357Y-137529D01*
X-211377Y-137536D01*
X-211530Y-137670D01*
X-211690Y-137779D01*
X-211876Y-137878D01*
X-212090Y-137966D01*
X-212332Y-138041D01*
X-212603Y-138104D01*
X-212897Y-138152D01*
X-213589Y-138207D01*
X-213974Y-138210D01*
X-213981Y-138213D01*
X-214000Y-138211D01*
X-214862Y-138324D01*
X-215666Y-138657D01*
X-216355Y-139186D01*
X-216885Y-139876D01*
X-217218Y-140680D01*
X-217331Y-141542D01*
X-217218Y-142404D01*
X-216885Y-143208D01*
X-216355Y-143897D01*
X-215666Y-144427D01*
X-214862Y-144760D01*
X-214000Y-144873D01*
X-213138Y-144760D01*
X-212334Y-144427D01*
X-211645Y-143897D01*
X-211115Y-143208D01*
X-210782Y-142404D01*
X-210669Y-141542D01*
X-210671Y-141528D01*
X-210669Y-141524D01*
X-210645Y-140767D01*
X-210611Y-140444D01*
X-210562Y-140145D01*
X-210500Y-139874D01*
X-210424Y-139631D01*
X-210336Y-139418D01*
X-210237Y-139232D01*
X-210128Y-139072D01*
X-209994Y-138919D01*
X-209987Y-138899D01*
X-209202Y-138114D01*
X-209179Y-138079D01*
X-207840Y-136981D01*
X-206277Y-136145D01*
X-204580Y-135630D01*
X-202857Y-135460D01*
X-202816Y-135469D01*
X-199948D01*
Y-135484D01*
X-198913Y-135348D01*
X-197950Y-134949D01*
X-197122Y-134314D01*
X-197133Y-134303D01*
X-197133Y-134303D01*
X-196371Y-133541D01*
X-196347Y-133531D01*
X-196107Y-133296D01*
X-196031Y-133227D01*
X-195718Y-133164D01*
X-195309Y-132891D01*
X-195036Y-132482D01*
X-194940Y-132000D01*
X-195036Y-131518D01*
X-195309Y-131109D01*
X-195718Y-130836D01*
X-196200Y-130740D01*
D02*
G37*
G36*
X-67500Y-132939D02*
X-68097Y-133058D01*
X-68604Y-133396D01*
X-68942Y-133903D01*
X-69061Y-134500D01*
X-68942Y-135097D01*
X-68604Y-135604D01*
X-68097Y-135942D01*
X-67500Y-136061D01*
X-66903Y-135942D01*
X-66396Y-135604D01*
X-66058Y-135097D01*
X-65939Y-134500D01*
X-66058Y-133903D01*
X-66396Y-133396D01*
X-66903Y-133058D01*
X-67500Y-132939D01*
D02*
G37*
G36*
X-214000Y-130337D02*
X-214862Y-130450D01*
X-215666Y-130783D01*
X-216355Y-131312D01*
X-216885Y-132002D01*
X-217218Y-132806D01*
X-217331Y-133668D01*
X-217218Y-134530D01*
X-216885Y-135334D01*
X-216355Y-136023D01*
X-215666Y-136553D01*
X-214862Y-136886D01*
X-214000Y-136999D01*
X-213138Y-136886D01*
X-212334Y-136553D01*
X-211645Y-136023D01*
X-211115Y-135334D01*
X-210782Y-134530D01*
X-210669Y-133668D01*
X-210782Y-132806D01*
X-211115Y-132002D01*
X-211645Y-131312D01*
X-212334Y-130783D01*
X-213138Y-130450D01*
X-214000Y-130337D01*
D02*
G37*
G36*
X-49180Y-136740D02*
X-49662Y-136836D01*
X-50071Y-137109D01*
X-50287Y-137432D01*
X-50292Y-137441D01*
X-50292Y-137441D01*
X-50344Y-137518D01*
X-50393Y-137639D01*
X-50479Y-137853D01*
X-50760Y-138112D01*
X-51050Y-138044D01*
X-51247Y-137963D01*
X-51336Y-137518D01*
X-51609Y-137109D01*
X-52018Y-136836D01*
X-52500Y-136740D01*
X-52982Y-136836D01*
X-53391Y-137109D01*
X-53664Y-137518D01*
X-53760Y-138000D01*
X-53664Y-138482D01*
X-53391Y-138891D01*
X-52982Y-139164D01*
X-52500Y-139260D01*
X-52018Y-139164D01*
X-51995Y-139149D01*
X-51613Y-139495D01*
X-51784Y-139814D01*
X-51942Y-140335D01*
X-51991Y-140396D01*
X-52019Y-140496D01*
X-52046Y-140572D01*
X-52071Y-140632D01*
X-52095Y-140676D01*
X-52113Y-140703D01*
X-52116Y-140706D01*
X-52118Y-140706D01*
X-52146Y-140721D01*
X-53744D01*
Y-145279D01*
X-49382D01*
Y-140721D01*
X-50126D01*
X-50460Y-140221D01*
X-50276Y-139778D01*
X-49757Y-139101D01*
X-49662Y-139164D01*
X-49180Y-139260D01*
X-48698Y-139164D01*
X-48289Y-138891D01*
X-48016Y-138482D01*
X-47920Y-138000D01*
X-48016Y-137518D01*
X-48289Y-137109D01*
X-48698Y-136836D01*
X-49180Y-136740D01*
D02*
G37*
G36*
X-175737Y-139981D02*
X-176335Y-140100D01*
X-176841Y-140438D01*
X-177179Y-140945D01*
X-177298Y-141542D01*
X-177179Y-142139D01*
X-176841Y-142646D01*
X-176861Y-143234D01*
X-177104Y-143396D01*
X-177442Y-143903D01*
X-177561Y-144500D01*
X-177442Y-145097D01*
X-177104Y-145604D01*
X-176597Y-145942D01*
X-176000Y-146061D01*
X-175403Y-145942D01*
X-174896Y-145604D01*
X-174558Y-145097D01*
X-174439Y-144500D01*
X-174558Y-143903D01*
X-174896Y-143396D01*
X-174876Y-142808D01*
X-174633Y-142646D01*
X-174295Y-142139D01*
X-174176Y-141542D01*
X-174295Y-140945D01*
X-174633Y-140438D01*
X-175140Y-140100D01*
X-175737Y-139981D01*
D02*
G37*
G36*
X-58500Y-143439D02*
X-59097Y-143558D01*
X-59604Y-143896D01*
X-59942Y-144403D01*
X-60061Y-145000D01*
X-59942Y-145597D01*
X-59604Y-146104D01*
X-59097Y-146442D01*
X-58500Y-146561D01*
X-57903Y-146442D01*
X-57396Y-146104D01*
X-57058Y-145597D01*
X-56939Y-145000D01*
X-57058Y-144403D01*
X-57396Y-143896D01*
X-57903Y-143558D01*
X-58500Y-143439D01*
D02*
G37*
G36*
X-67500D02*
X-68097Y-143558D01*
X-68604Y-143896D01*
X-68942Y-144403D01*
X-69061Y-145000D01*
X-68942Y-145597D01*
X-68604Y-146104D01*
X-68097Y-146442D01*
X-67500Y-146561D01*
X-66903Y-146442D01*
X-66396Y-146104D01*
X-66058Y-145597D01*
X-65939Y-145000D01*
X-66058Y-144403D01*
X-66396Y-143896D01*
X-66903Y-143558D01*
X-67500Y-143439D01*
D02*
G37*
G36*
X-182000Y-143939D02*
X-182597Y-144058D01*
X-183104Y-144396D01*
X-183442Y-144903D01*
X-183561Y-145500D01*
X-183442Y-146097D01*
X-183104Y-146604D01*
X-182597Y-146942D01*
X-182000Y-147061D01*
X-181403Y-146942D01*
X-180896Y-146604D01*
X-180558Y-146097D01*
X-180439Y-145500D01*
X-180558Y-144903D01*
X-180896Y-144396D01*
X-181403Y-144058D01*
X-182000Y-143939D01*
D02*
G37*
G36*
X-201789Y-145490D02*
X-202271Y-145586D01*
X-202680Y-145859D01*
X-202953Y-146268D01*
X-203049Y-146750D01*
X-202953Y-147232D01*
X-202680Y-147641D01*
X-202271Y-147914D01*
X-201789Y-148010D01*
X-201307Y-147914D01*
X-200898Y-147641D01*
X-200625Y-147232D01*
X-200529Y-146750D01*
X-200625Y-146268D01*
X-200898Y-145859D01*
X-201307Y-145586D01*
X-201789Y-145490D01*
D02*
G37*
G36*
X-43319Y-140721D02*
X-47681D01*
Y-145279D01*
X-47107D01*
X-46960Y-145461D01*
X-46872Y-145660D01*
X-46851Y-145767D01*
X-46942Y-145903D01*
X-47061Y-146500D01*
X-46942Y-147097D01*
X-46604Y-147604D01*
X-46097Y-147942D01*
X-45500Y-148061D01*
X-44903Y-147942D01*
X-44396Y-147604D01*
X-44058Y-147097D01*
X-43939Y-146500D01*
X-44058Y-145903D01*
X-44149Y-145767D01*
X-44128Y-145660D01*
X-44040Y-145461D01*
X-43893Y-145279D01*
X-43319D01*
Y-140721D01*
D02*
G37*
%LPD*%
G36*
X-82803Y-95942D02*
X-82739Y-95996D01*
X-82673Y-96045D01*
X-82604Y-96089D01*
X-82533Y-96127D01*
X-82459Y-96160D01*
X-82382Y-96189D01*
X-82302Y-96212D01*
X-82220Y-96230D01*
X-82136Y-96242D01*
X-82138Y-96847D01*
X-82218Y-96840D01*
X-82297Y-96841D01*
X-82374Y-96849D01*
X-82450Y-96865D01*
X-82524Y-96889D01*
X-82596Y-96921D01*
X-82667Y-96960D01*
X-82737Y-97007D01*
X-82805Y-97061D01*
X-82871Y-97123D01*
X-82864Y-95883D01*
X-82803Y-95942D01*
D02*
G37*
G36*
X-80213Y-96815D02*
X-79915Y-96954D01*
X-79868Y-96968D01*
X-79830Y-96974D01*
X-79804Y-96972D01*
X-79788Y-96961D01*
X-79782Y-96942D01*
Y-98077D01*
X-79788Y-98008D01*
X-79803Y-97939D01*
X-79829Y-97872D01*
X-79865Y-97806D01*
X-79911Y-97742D01*
X-79967Y-97679D01*
X-80034Y-97616D01*
X-80111Y-97556D01*
X-80198Y-97496D01*
X-80295Y-97438D01*
X-80313Y-96759D01*
X-80213Y-96815D01*
D02*
G37*
G36*
X-77838Y-103198D02*
X-77839Y-103268D01*
X-77821Y-103347D01*
X-77784Y-103438D01*
X-77729Y-103539D01*
X-77654Y-103650D01*
X-77561Y-103772D01*
X-77319Y-104047D01*
X-77170Y-104200D01*
X-77557Y-104662D01*
X-77692Y-104531D01*
X-77929Y-104327D01*
X-78030Y-104254D01*
X-78121Y-104201D01*
X-78200Y-104167D01*
X-78268Y-104153D01*
X-78325Y-104158D01*
X-78370Y-104182D01*
X-78405Y-104226D01*
X-77819Y-103139D01*
X-77838Y-103198D01*
D02*
G37*
G36*
X-56530Y-111100D02*
X-56537Y-111043D01*
X-56556Y-110992D01*
X-56587Y-110947D01*
X-56630Y-110908D01*
X-56685Y-110875D01*
X-56752Y-110848D01*
X-56832Y-110827D01*
X-56923Y-110812D01*
X-57026Y-110803D01*
X-57142Y-110800D01*
Y-110201D01*
X-56542D01*
X-56530Y-111100D01*
D02*
G37*
G36*
X-45957Y-102911D02*
X-46008Y-102930D01*
X-46053Y-102960D01*
X-46092Y-103003D01*
X-46125Y-103058D01*
X-46152Y-103126D01*
X-46173Y-103205D01*
X-46188Y-103297D01*
X-46197Y-103401D01*
X-46200Y-103517D01*
X-46800D01*
X-46803Y-103401D01*
X-46812Y-103297D01*
X-46827Y-103205D01*
X-46848Y-103126D01*
X-46875Y-103058D01*
X-46908Y-103003D01*
X-46947Y-102960D01*
X-46992Y-102930D01*
X-47043Y-102911D01*
X-47100Y-102905D01*
X-45900D01*
X-45957Y-102911D01*
D02*
G37*
G36*
X-75455Y-121451D02*
X-75437Y-121502D01*
X-75407Y-121547D01*
X-75365Y-121586D01*
X-75311Y-121619D01*
X-75245Y-121646D01*
X-75167Y-121667D01*
X-75077Y-121682D01*
X-74975Y-121691D01*
X-74861Y-121694D01*
Y-122294D01*
X-74975Y-122297D01*
X-75077Y-122306D01*
X-75167Y-122321D01*
X-75245Y-122342D01*
X-75311Y-122369D01*
X-75365Y-122402D01*
X-75407Y-122441D01*
X-75437Y-122486D01*
X-75455Y-122537D01*
X-75461Y-122594D01*
Y-121394D01*
X-75455Y-121451D01*
D02*
G37*
G36*
X-78253Y-123945D02*
X-78303Y-123963D01*
X-78348Y-123994D01*
X-78387Y-124036D01*
X-78421Y-124091D01*
X-78448Y-124159D01*
X-78469Y-124238D01*
X-78483Y-124330D01*
X-78492Y-124434D01*
X-78496Y-124550D01*
X-79096D01*
X-79098Y-124434D01*
X-79107Y-124330D01*
X-79123Y-124238D01*
X-79144Y-124159D01*
X-79171Y-124091D01*
X-79203Y-124036D01*
X-79242Y-123994D01*
X-79287Y-123963D01*
X-79339Y-123945D01*
X-79396Y-123939D01*
X-78196D01*
X-78253Y-123945D01*
D02*
G37*
G36*
X-78492Y-126669D02*
X-78481Y-126749D01*
X-78462Y-126824D01*
X-78436Y-126893D01*
X-78403Y-126957D01*
X-78363Y-127016D01*
X-78315Y-127069D01*
X-78259Y-127117D01*
X-78197Y-127160D01*
X-78126Y-127197D01*
X-79296Y-127611D01*
X-79258Y-127527D01*
X-79224Y-127441D01*
X-79167Y-127258D01*
X-79145Y-127162D01*
X-79114Y-126960D01*
X-79103Y-126854D01*
X-79096Y-126633D01*
X-78496Y-126583D01*
X-78492Y-126669D01*
D02*
G37*
G36*
X-52663Y-133793D02*
X-52715Y-133811D01*
X-52759Y-133842D01*
X-52798Y-133884D01*
X-52832Y-133940D01*
X-52859Y-134007D01*
X-52880Y-134086D01*
X-52895Y-134178D01*
X-52903Y-134282D01*
X-52907Y-134398D01*
X-53506D01*
X-53509Y-134282D01*
X-53518Y-134178D01*
X-53534Y-134086D01*
X-53554Y-134007D01*
X-53582Y-133940D01*
X-53614Y-133884D01*
X-53654Y-133842D01*
X-53698Y-133811D01*
X-53750Y-133793D01*
X-53807Y-133786D01*
X-52606D01*
X-52663Y-133793D01*
D02*
G37*
G36*
X-77170Y-139800D02*
X-77318Y-139952D01*
X-77649Y-140347D01*
X-77722Y-140458D01*
X-77776Y-140559D01*
X-77812Y-140650D01*
X-77829Y-140730D01*
X-77827Y-140800D01*
X-77807Y-140860D01*
X-78405Y-139762D01*
X-78370Y-139807D01*
X-78323Y-139833D01*
X-78266Y-139839D01*
X-78197Y-139826D01*
X-78118Y-139793D01*
X-78028Y-139741D01*
X-77926Y-139670D01*
X-77814Y-139578D01*
X-77557Y-139338D01*
X-77170Y-139800D01*
D02*
G37*
G36*
X-196209Y-132886D02*
X-196218Y-132889D01*
X-196234Y-132901D01*
X-196257Y-132919D01*
X-196368Y-133021D01*
X-196612Y-133261D01*
X-197461Y-132412D01*
X-197086Y-132009D01*
X-196209Y-132886D01*
D02*
G37*
G36*
X-210279Y-138669D02*
X-210428Y-138840D01*
X-210562Y-139035D01*
X-210679Y-139256D01*
X-210781Y-139503D01*
X-210865Y-139775D01*
X-210934Y-140071D01*
X-210987Y-140394D01*
X-211023Y-140741D01*
X-211047Y-141512D01*
X-213970Y-138589D01*
X-213572Y-138585D01*
X-212852Y-138529D01*
X-212530Y-138476D01*
X-212233Y-138407D01*
X-211961Y-138322D01*
X-211715Y-138221D01*
X-211493Y-138104D01*
X-211298Y-137970D01*
X-211127Y-137820D01*
X-210279Y-138669D01*
D02*
G37*
G36*
X-50998Y-140504D02*
X-51023Y-140614D01*
X-51039Y-140713D01*
X-51046Y-140799D01*
X-51044Y-140875D01*
X-51033Y-140938D01*
X-51013Y-140990D01*
X-50984Y-141031D01*
X-50946Y-141060D01*
X-50899Y-141077D01*
X-50843Y-141083D01*
X-52081D01*
X-52022Y-141077D01*
X-51965Y-141060D01*
X-51912Y-141030D01*
X-51862Y-140990D01*
X-51815Y-140937D01*
X-51771Y-140873D01*
X-51730Y-140797D01*
X-51692Y-140710D01*
X-51658Y-140611D01*
X-51626Y-140500D01*
X-50998Y-140504D01*
D02*
G37*
G36*
X-44750Y-144905D02*
X-44000D01*
X-44142Y-144920D01*
X-44270Y-144966D01*
X-44383Y-145041D01*
X-44480Y-145147D01*
X-44563Y-145283D01*
X-44630Y-145449D01*
X-44682Y-145644D01*
X-44673Y-145657D01*
X-44684D01*
X-44720Y-145873D01*
X-44743Y-146130D01*
X-44750Y-146417D01*
X-46250D01*
X-46257Y-146130D01*
X-46280Y-145873D01*
X-46316Y-145657D01*
X-46327D01*
X-46318Y-145644D01*
X-46370Y-145449D01*
X-46437Y-145283D01*
X-46520Y-145147D01*
X-46617Y-145041D01*
X-46730Y-144966D01*
X-46858Y-144920D01*
X-47000Y-144905D01*
X-46250D01*
X-46250Y-144879D01*
X-44750D01*
X-44750Y-144905D01*
D02*
G37*
D15*
X-205500Y-118000D02*
X-205335Y-118831D01*
X-204864Y-119535D01*
X-204158Y-120114D01*
X-203353Y-120544D01*
X-202479Y-120809D01*
X-201571Y-120899D01*
X-204500Y-112156D02*
X-205043Y-112863D01*
X-205384Y-113686D01*
X-205500Y-114570D01*
X-198804Y-109692D02*
X-199823Y-109759D01*
X-200824Y-109958D01*
X-201791Y-110286D01*
X-202706Y-110738D01*
X-203555Y-111305D01*
X-204322Y-111978D01*
X-184415Y-112621D02*
X-185142Y-111962D01*
X-185931Y-111378D01*
X-186772Y-110873D01*
X-187659Y-110453D01*
X-188583Y-110123D01*
X-189535Y-109884D01*
X-190506Y-109740D01*
X-191486Y-109692D01*
X-201571Y-120899D02*
X-196200D01*
X-205500Y-118000D02*
Y-114570D01*
X-204500Y-112156D02*
X-204322Y-111978D01*
X-198804Y-109692D02*
X-191486D01*
X-184415Y-112621D02*
X-184083Y-112953D01*
D16*
X-199948Y-134500D02*
X-198795Y-134271D01*
X-197818Y-133618D01*
X-202816Y-134500D02*
X-203796Y-134548D01*
X-204767Y-134692D01*
X-205719Y-134931D01*
X-206643Y-135261D01*
X-207530Y-135681D01*
X-208372Y-136185D01*
X-209160Y-136770D01*
X-209887Y-137429D01*
X-193819Y-119913D02*
X-194690Y-120027D01*
X-195502Y-120364D01*
X-196200Y-120899D01*
X-190976Y-117196D02*
X-191731Y-116576D01*
X-192593Y-116116D01*
X-193528Y-115832D01*
X-194500Y-115736D01*
X-164766Y-131206D02*
X-165724Y-131281D01*
X-166658Y-131506D01*
X-167546Y-131874D01*
X-168366Y-132376D01*
X-169096Y-133000D01*
X-170709Y-133668D02*
X-169836Y-133494D01*
X-169096Y-133000D01*
X-176021Y-132151D02*
X-175236Y-132795D01*
X-174341Y-133274D01*
X-173369Y-133568D01*
X-172359Y-133668D01*
X-170495Y-121765D02*
X-170378Y-121681D01*
X-170602Y-121839D02*
X-171440Y-122580D01*
X-165000Y-119913D02*
X-165930Y-119960D01*
X-166850Y-120102D01*
X-167750Y-120338D01*
X-168622Y-120664D01*
X-169456Y-121077D01*
X-170244Y-121574D01*
X-170332Y-121642D01*
X-170495Y-121765D02*
X-170602Y-121839D01*
X-183000Y-137122D02*
X-184001Y-137321D01*
X-184849Y-137888D01*
X-183000Y-133663D02*
X-183126Y-132706D01*
X-183495Y-131814D01*
X-184083Y-131048D01*
X-185475Y-129656D02*
X-186070Y-130381D01*
X-186512Y-131207D01*
X-186784Y-132105D01*
X-186876Y-133038D01*
X-189969Y-131366D02*
X-189968Y-131366D01*
X-191500Y-132000D02*
X-190672Y-131835D01*
X-189969Y-131366D01*
X-191592Y-128252D02*
X-190672Y-128162D01*
X-189788Y-127894D01*
X-188973Y-127458D01*
X-188259Y-126872D01*
X-197818Y-133618D02*
X-196200Y-132000D01*
X-202816Y-134500D02*
X-199948D01*
X-214000Y-141542D02*
X-209887Y-137429D01*
X-164766Y-131206D02*
X-161162D01*
X-172359Y-133668D02*
X-170709D01*
X-178516Y-129656D02*
X-176021Y-132151D01*
X-193819Y-119913D02*
X-191042D01*
X-170378Y-121681D02*
X-170332Y-121642D01*
X-172948Y-124088D02*
X-171440Y-122580D01*
X-183000Y-137122D02*
Y-133663D01*
X-186876Y-139915D02*
X-184849Y-137888D01*
X-186876Y-134615D02*
Y-133038D01*
X-189968Y-131366D02*
X-186867Y-128264D01*
X-189969Y-131366D02*
X-189968Y-131366D01*
X-195248Y-128252D02*
X-191592D01*
X-190976Y-117196D02*
X-189651Y-118521D01*
X-122699Y-95664D02*
X-121699Y-94665D01*
X-119700D01*
X-118700Y-95664D01*
Y-99663D01*
X-119700Y-100663D01*
X-121699D01*
X-122699Y-99663D01*
X-128697Y-95664D02*
X-127697Y-94665D01*
X-125698D01*
X-124698Y-95664D01*
Y-96664D01*
X-125698Y-97664D01*
X-127697D01*
X-128697Y-98663D01*
Y-99663D01*
X-127697Y-100663D01*
X-125698D01*
X-124698Y-99663D01*
X-130696Y-94665D02*
Y-99663D01*
X-131696Y-100663D01*
X-133695D01*
X-134695Y-99663D01*
Y-94665D01*
X-117700Y-147099D02*
X-119566D01*
X-118633D01*
Y-143367D01*
X-117700D01*
X-122365Y-147099D02*
Y-141501D01*
X-124231Y-143367D01*
X-126097Y-141501D01*
Y-147099D01*
X-128896Y-143367D02*
X-130762D01*
X-131695Y-144300D01*
Y-147099D01*
X-128896D01*
X-127963Y-146166D01*
X-128896Y-145233D01*
X-131695D01*
X-135428Y-148965D02*
X-136361D01*
X-137294Y-148032D01*
Y-143367D01*
X-134495D01*
X-133562Y-144300D01*
Y-146166D01*
X-134495Y-147099D01*
X-137294D01*
D18*
X-175732Y-117129D02*
D03*
X-174340Y-118520D02*
D03*
X-177124Y-115736D02*
D03*
X-172948Y-119913D02*
D03*
X-178515Y-114345D02*
D03*
X-179908Y-112953D02*
D03*
X-191043Y-124088D02*
D03*
X-184083Y-131048D02*
D03*
X-188259Y-126872D02*
D03*
X-189651Y-125480D02*
D03*
X-185475Y-129656D02*
D03*
X-186867Y-128264D02*
D03*
D19*
X-172948Y-124088D02*
D03*
X-174340Y-125480D02*
D03*
X-175732Y-126872D02*
D03*
X-177124Y-128264D02*
D03*
X-178516Y-129656D02*
D03*
X-179908Y-131047D02*
D03*
X-184083Y-112953D02*
D03*
X-185475Y-114345D02*
D03*
X-186868Y-115736D02*
D03*
X-188259Y-117129D02*
D03*
X-189651Y-118521D02*
D03*
X-191042Y-119913D02*
D03*
D25*
X-45500Y-143000D02*
D03*
X-51563D02*
D03*
X-46500Y-101000D02*
D03*
X-52563D02*
D03*
D26*
X-177700Y-137122D02*
D03*
X-183000D02*
D03*
X-194500Y-115736D02*
D03*
X-199800D02*
D03*
D27*
X-117500Y-117000D02*
D03*
Y-126000D02*
D03*
D28*
X-180720Y-102119D02*
D03*
X-194500D02*
D03*
D30*
X-186876Y-134615D02*
D03*
Y-139915D02*
D03*
D31*
X-191500Y-132000D02*
D03*
X-195248Y-128252D02*
D03*
D56*
X-78794Y-98180D02*
X-79479Y-97596D01*
X-80246Y-97125D01*
X-81078Y-96781D01*
X-81953Y-96571D01*
X-82850Y-96500D01*
X-202663Y-113393D02*
X-203197Y-114133D01*
X-203470Y-115004D01*
X-49180Y-138000D02*
X-49994Y-138337D01*
X-50000Y-138343D02*
X-50664Y-139152D01*
X-51157Y-140074D01*
X-51460Y-141075D01*
X-51563Y-142116D01*
X-78795Y-127287D02*
X-78500Y-128000D01*
X-203428Y-108476D02*
X-204549Y-108700D01*
X-205500Y-109335D01*
X-206127Y-110069D01*
X-206631Y-110891D01*
X-207000Y-111783D01*
X-207225Y-112721D01*
X-207301Y-113683D01*
X-181644Y-111216D02*
X-182426Y-110517D01*
X-183282Y-109910D01*
X-184200Y-109403D01*
X-185169Y-109002D01*
X-186177Y-108711D01*
X-187211Y-108535D01*
X-188259Y-108476D01*
X-213965Y-110011D02*
X-214000Y-110046D01*
X-207301Y-107271D02*
X-208355Y-107330D01*
X-209395Y-107506D01*
X-210410Y-107796D01*
X-211386Y-108197D01*
X-212311Y-108704D01*
X-213174Y-109311D01*
X-213965Y-110011D01*
X-177371Y-110488D02*
X-177548Y-109335D01*
X-178064Y-108290D01*
X-191968Y-107271D02*
X-192092Y-107285D01*
X-191960Y-107271D02*
X-191968Y-107271D01*
X-178064Y-108290D02*
X-178785Y-107737D01*
X-179623Y-107390D01*
X-180524Y-107271D01*
X-178064Y-108290D02*
X-178976Y-107590D01*
X-180038Y-107150D01*
X-181178Y-107000D01*
X-190624Y-107271D02*
X-189969Y-107000D01*
X-193032Y-107271D02*
X-193040Y-107271D01*
X-192907Y-107285D02*
X-193032Y-107271D01*
X-192092Y-107285D02*
X-192096Y-107286D01*
X-192904Y-107286D02*
X-192096Y-107286D01*
X-192904Y-107286D02*
X-192907Y-107285D01*
X-173848Y-114427D02*
X-174722Y-114065D01*
X-175969Y-114582D01*
X-198804Y-111114D02*
X-199791Y-111244D01*
X-200710Y-111625D01*
X-201500Y-112230D01*
X-191639Y-113749D02*
X-192391Y-113076D01*
X-193214Y-112493D01*
X-194097Y-112005D01*
X-195029Y-111619D01*
X-195998Y-111339D01*
X-196993Y-111170D01*
X-198000Y-111114D01*
X-194633Y-115415D02*
X-194633Y-115414D01*
X-194500Y-115736D02*
X-194633Y-115415D01*
X-192017Y-123114D02*
X-192697Y-122660D01*
X-193500Y-122500D01*
X-178236Y-114065D02*
X-177595Y-113107D01*
X-177371Y-111976D01*
X-172361Y-111852D02*
X-171460Y-111764D01*
X-170594Y-111501D01*
X-169796Y-111074D01*
X-169096Y-110500D01*
X-169057Y-114305D02*
X-170044Y-114502D01*
X-170880Y-115061D01*
X-168074Y-113844D02*
X-167464Y-112930D01*
X-167250Y-111852D01*
X-168075Y-113844D02*
X-168074Y-113844D01*
X-169057Y-114305D02*
X-168168Y-113938D01*
X-166959Y-109692D02*
X-167250Y-110394D01*
X-165494Y-109086D02*
X-166287Y-109243D01*
X-166959Y-109692D01*
X-166297Y-122791D02*
X-167000Y-122500D01*
X-166297Y-122791D02*
X-166297Y-122791D01*
X-174385Y-131003D02*
X-174260Y-131054D01*
X-174385Y-131003D02*
X-174385Y-131003D01*
X-169305Y-134915D02*
X-170374Y-134999D01*
X-171416Y-135249D01*
X-172406Y-135660D01*
X-173320Y-136220D01*
X-174135Y-136916D01*
X-83500Y-96500D02*
X-82850D01*
X-197000Y-113048D02*
X-194633Y-115414D01*
X-203470Y-115004D02*
Y-115004D01*
Y-115385D02*
Y-115004D01*
X-50000Y-138343D02*
X-49994Y-138337D01*
X-51563Y-143000D02*
Y-142116D01*
X-78795Y-127287D02*
Y-121994D01*
X-207301Y-129656D02*
Y-113683D01*
X-203428Y-108476D02*
X-188259D01*
X-181644Y-111216D02*
X-179908Y-112953D01*
X-199163Y-107271D02*
X-193032D01*
X-207301D02*
X-199163D01*
X-189969Y-107000D02*
X-181178D01*
X-191960Y-107271D02*
X-190624D01*
X-192096Y-107286D02*
X-192096Y-107286D01*
X-191968Y-107271D02*
X-180524D01*
X-193032D02*
X-191968D01*
X-177371Y-111976D02*
Y-110488D01*
X-173848Y-114427D02*
X-173378Y-114898D01*
X-177124Y-115736D02*
X-175969Y-114582D01*
X-202663Y-113393D02*
X-201500Y-112230D01*
X-203500Y-115414D02*
X-203470Y-115385D01*
X-198804Y-111114D02*
X-198000D01*
X-191639Y-113749D02*
X-188259Y-117129D01*
X-194633Y-115414D02*
X-194633Y-115415D01*
X-193500Y-122500D02*
Y-122247D01*
X-192017Y-123114D02*
X-191043Y-124088D01*
X-178515Y-114345D02*
X-178236Y-114065D01*
X-175737Y-111852D02*
X-172361D01*
X-167250D02*
Y-110394D01*
X-168075Y-113844D02*
X-168074Y-113844D01*
X-168168Y-113938D02*
X-168075Y-113844D01*
X-174340Y-118520D02*
X-170880Y-115061D01*
X-165494Y-109086D02*
X-165000D01*
X-176500Y-134500D02*
Y-134455D01*
X-179908Y-131047D02*
X-176500Y-134455D01*
X-176739Y-134500D02*
X-176500D01*
X-166297Y-122791D02*
X-165000Y-124088D01*
X-166297Y-122791D02*
X-166297Y-122791D01*
X-174385Y-131003D02*
X-174385Y-131003D01*
X-177124Y-128264D02*
X-174385Y-131003D01*
X-169305Y-134915D02*
X-165000D01*
X-78794Y-141000D02*
Y-140750D01*
X-78095Y-140050D01*
X-77845D01*
X-75295Y-137500D01*
X-56000D01*
X-53206Y-134706D02*
Y-131842D01*
X-56000Y-137500D02*
X-53206Y-134706D01*
X-78795Y-121994D02*
X-51563D01*
X-46500Y-116931D02*
Y-101000D01*
X-51563Y-121994D02*
X-46500Y-116931D01*
X-78794Y-103250D02*
Y-103000D01*
Y-103250D02*
X-78095Y-103950D01*
X-77845D01*
X-71294Y-110500D01*
X-54865D01*
X-53207Y-112157D01*
D57*
X-45500Y-146500D02*
Y-143000D01*
D58*
X-105937Y-113508D02*
D03*
D59*
X-102000Y-138343D02*
D03*
D60*
X-214000Y-102172D02*
D03*
Y-110046D02*
D03*
Y-133668D02*
D03*
Y-117920D02*
D03*
Y-141542D02*
D03*
Y-125794D02*
D03*
D61*
X-147000Y-141043D02*
D03*
X-128500Y-131086D02*
D03*
Y-112156D02*
D03*
X-147000Y-103421D02*
D03*
D62*
X-83500Y-96500D02*
D03*
X-201000Y-96000D02*
D03*
X-203470Y-95000D02*
D03*
X-49180Y-138000D02*
D03*
X-52500D02*
D03*
X-78500Y-128000D02*
D03*
X-201789Y-146750D02*
D03*
X-207301Y-129656D02*
D03*
X-203470Y-115004D02*
D03*
X-201571Y-131388D02*
D03*
X-196200Y-132000D02*
D03*
X-197000Y-117920D02*
D03*
Y-113048D02*
D03*
X-193500Y-122247D02*
D03*
X-175483Y-109304D02*
D03*
X-171398Y-113312D02*
D03*
X-173378Y-114898D02*
D03*
X-169096Y-110500D02*
D03*
X-175737Y-111852D02*
D03*
X-173106Y-129022D02*
D03*
X-176739Y-134500D02*
D03*
X-167000Y-122500D02*
D03*
X-174260Y-131054D02*
D03*
X-174135Y-136916D02*
D03*
X-165000Y-112056D02*
D03*
D63*
X-192904Y-105411D02*
D03*
X-199318Y-105149D02*
D03*
X-178516Y-136916D02*
D03*
X-183000Y-138343D02*
D03*
X-184849Y-139915D02*
D03*
X-192500Y-145500D02*
D03*
X-196200Y-144500D02*
D03*
X-199948D02*
D03*
X-199800Y-141542D02*
D03*
Y-138343D02*
D03*
X-196200D02*
D03*
X-192500D02*
D03*
X-199000Y-130878D02*
D03*
X-202500Y-118520D02*
D03*
X-201500Y-123626D02*
D03*
X-199948Y-113938D02*
D03*
X-196200Y-105411D02*
D03*
X-199800Y-102081D02*
D03*
Y-99000D02*
D03*
X-196200D02*
D03*
X-192500D02*
D03*
X-176342Y-106864D02*
D03*
X-185480Y-102647D02*
D03*
X-186810Y-103421D02*
D03*
X-184088Y-104457D02*
D03*
X-175472Y-100500D02*
D03*
Y-103421D02*
D03*
X-182000Y-145500D02*
D03*
X-176000Y-144500D02*
D03*
X-175737Y-141542D02*
D03*
X-164888Y-138045D02*
D03*
X-158500Y-107000D02*
D03*
X-155000Y-112056D02*
D03*
X-153000Y-124647D02*
D03*
X-151842Y-121574D02*
D03*
X-154674Y-121839D02*
D03*
X-159882Y-126876D02*
D03*
X-157323Y-126856D02*
D03*
X-45500Y-146500D02*
D03*
X-58500Y-145000D02*
D03*
Y-139951D02*
D03*
Y-134500D02*
D03*
X-67500Y-145000D02*
D03*
Y-139951D02*
D03*
Y-134500D02*
D03*
X-63000Y-130486D02*
D03*
Y-113508D02*
D03*
X-58500Y-107000D02*
D03*
Y-102647D02*
D03*
Y-98500D02*
D03*
X-67500Y-107000D02*
D03*
Y-102647D02*
D03*
Y-98500D02*
D03*
X-182000Y-126876D02*
D03*
X-186876Y-122000D02*
D03*
X-182000Y-117124D02*
D03*
X-177124Y-122000D02*
D03*
X-182000D02*
D03*
D71*
X-53207Y-112157D02*
D03*
X-53206Y-131842D02*
D03*
X-78795Y-121994D02*
D03*
D72*
X-196200Y-120899D02*
D03*
X-199948Y-124647D02*
D03*
D73*
X-78794Y-98180D02*
D03*
Y-103000D02*
D03*
Y-141000D02*
D03*
Y-145820D02*
D03*
D74*
X-157323Y-124088D02*
D03*
X-162441Y-124088D02*
D03*
X-159882Y-124088D02*
D03*
X-157323Y-134915D02*
D03*
X-162441Y-134915D02*
D03*
X-159882D02*
D03*
X-165000Y-124088D02*
D03*
X-165000Y-134915D02*
D03*
X-157323Y-109085D02*
D03*
X-162441Y-109085D02*
D03*
X-159882Y-109085D02*
D03*
X-157323Y-119912D02*
D03*
X-162441Y-119912D02*
D03*
X-159882D02*
D03*
X-165000Y-109085D02*
D03*
X-165000Y-119912D02*
D03*
D75*
X-161162Y-126856D02*
D03*
X-161162Y-111854D02*
D03*
D76*
Y-131207D02*
D03*
Y-116204D02*
D03*
D77*
X-182000Y-122000D02*
D03*
M02*
