G04*
G04 #@! TF.GenerationSoftware,Altium Limited,Altium Designer,20.1.11 (218)*
G04*
G04 Layer_Color=16711935*
%FSLAX25Y25*%
%MOIN*%
G70*
G04*
G04 #@! TF.SameCoordinates,9EE67B27-E454-41D5-82AA-807338E90DDB*
G04*
G04*
G04 #@! TF.FilePolarity,Positive*
G04*
G01*
G75*
%ADD86C,0.00394*%
D86*
X-47744Y-144575D02*
Y-141425D01*
X-49319Y-144575D02*
Y-141425D01*
Y-143000D02*
X-47744Y-141425D01*
X-48512Y-145035D02*
X-47331Y-146216D01*
X-49299Y-145429D02*
X-48118Y-146610D01*
X-50106Y-143000D02*
X-46957D01*
X-49319D02*
X-47744Y-144575D01*
X-48744Y-102575D02*
Y-99425D01*
X-50319Y-102575D02*
Y-99425D01*
Y-101000D02*
X-48744Y-99425D01*
X-49512Y-103035D02*
X-48331Y-104217D01*
X-50299Y-103429D02*
X-49118Y-104610D01*
X-51106Y-101000D02*
X-47957D01*
X-50319D02*
X-48744Y-102575D01*
X-76681Y-98075D02*
Y-94925D01*
X-78256Y-98075D02*
Y-94925D01*
X-76681Y-96500D01*
X-77882Y-100110D02*
X-76701Y-98929D01*
X-79043Y-96500D02*
X-75894D01*
X-78256Y-98075D02*
X-76681Y-96500D01*
X-78669Y-99717D02*
X-77488Y-98535D01*
M02*
