G04*
G04 #@! TF.GenerationSoftware,Altium Limited,Altium Designer,20.1.11 (218)*
G04*
G04 Layer_Physical_Order=1*
G04 Layer_Color=32768*
%FSLAX25Y25*%
%MOIN*%
G70*
G04*
G04 #@! TF.SameCoordinates,9EE67B27-E454-41D5-82AA-807338E90DDB*
G04*
G04*
G04 #@! TF.FilePolarity,Positive*
G04*
G01*
G75*
%ADD15C,0.00787*%
%ADD16C,0.01200*%
G04:AMPARAMS|DCode=18|XSize=11.81mil|YSize=27.56mil|CornerRadius=0mil|HoleSize=0mil|Usage=FLASHONLY|Rotation=315.000|XOffset=0mil|YOffset=0mil|HoleType=Round|Shape=Rectangle|*
%AMROTATEDRECTD18*
4,1,4,-0.01392,-0.00557,0.00557,0.01392,0.01392,0.00557,-0.00557,-0.01392,-0.01392,-0.00557,0.0*
%
%ADD18ROTATEDRECTD18*%

G04:AMPARAMS|DCode=19|XSize=11.81mil|YSize=27.56mil|CornerRadius=0mil|HoleSize=0mil|Usage=FLASHONLY|Rotation=225.000|XOffset=0mil|YOffset=0mil|HoleType=Round|Shape=Rectangle|*
%AMROTATEDRECTD19*
4,1,4,-0.00557,0.01392,0.01392,-0.00557,0.00557,-0.01392,-0.01392,0.00557,-0.00557,0.01392,0.0*
%
%ADD19ROTATEDRECTD19*%

%ADD20P,0.15033X4X360.0*%
%ADD21P,0.02505X4X180.0*%
G04:AMPARAMS|DCode=22|XSize=100.39mil|YSize=41.1mil|CornerRadius=0mil|HoleSize=0mil|Usage=FLASHONLY|Rotation=135.000|XOffset=0mil|YOffset=0mil|HoleType=Round|Shape=Rectangle|*
%AMROTATEDRECTD22*
4,1,4,0.05003,-0.02096,0.02096,-0.05003,-0.05003,0.02096,-0.02096,0.05003,0.05003,-0.02096,0.0*
%
%ADD22ROTATEDRECTD22*%

G04:AMPARAMS|DCode=23|XSize=100.39mil|YSize=21.89mil|CornerRadius=0mil|HoleSize=0mil|Usage=FLASHONLY|Rotation=135.000|XOffset=0mil|YOffset=0mil|HoleType=Round|Shape=Rectangle|*
%AMROTATEDRECTD23*
4,1,4,0.04323,-0.02775,0.02775,-0.04323,-0.04323,0.02775,-0.02775,0.04323,0.04323,-0.02775,0.0*
%
%ADD23ROTATEDRECTD23*%

%ADD24R,0.02500X0.02000*%
%ADD25R,0.03661X0.03858*%
%ADD26R,0.03000X0.02300*%
%ADD27R,0.05000X0.06000*%
%ADD28R,0.10039X0.06299*%
%ADD29R,0.08071X0.16535*%
%ADD30R,0.02300X0.03000*%
G04:AMPARAMS|DCode=31|XSize=30mil|YSize=23mil|CornerRadius=0mil|HoleSize=0mil|Usage=FLASHONLY|Rotation=315.000|XOffset=0mil|YOffset=0mil|HoleType=Round|Shape=Rectangle|*
%AMROTATEDRECTD31*
4,1,4,-0.01874,0.00248,-0.00248,0.01874,0.01874,-0.00248,0.00248,-0.01874,-0.01874,0.00248,0.0*
%
%ADD31ROTATEDRECTD31*%

%ADD32P,0.02505X4X270.0*%
G04:AMPARAMS|DCode=33|XSize=100.39mil|YSize=21.89mil|CornerRadius=0mil|HoleSize=0mil|Usage=FLASHONLY|Rotation=225.000|XOffset=0mil|YOffset=0mil|HoleType=Round|Shape=Rectangle|*
%AMROTATEDRECTD33*
4,1,4,0.02775,0.04323,0.04323,0.02775,-0.02775,-0.04323,-0.04323,-0.02775,0.02775,0.04323,0.0*
%
%ADD33ROTATEDRECTD33*%

G04:AMPARAMS|DCode=34|XSize=100.39mil|YSize=41.1mil|CornerRadius=0mil|HoleSize=0mil|Usage=FLASHONLY|Rotation=225.000|XOffset=0mil|YOffset=0mil|HoleType=Round|Shape=Rectangle|*
%AMROTATEDRECTD34*
4,1,4,0.02096,0.05003,0.05003,0.02096,-0.02096,-0.05003,-0.05003,-0.02096,0.02096,0.05003,0.0*
%
%ADD34ROTATEDRECTD34*%

%ADD56C,0.00600*%
%ADD57C,0.01500*%
G04:AMPARAMS|DCode=58|XSize=275.59mil|YSize=157.48mil|CornerRadius=0mil|HoleSize=0mil|Usage=FLASHONLY|Rotation=90.000|XOffset=0mil|YOffset=0mil|HoleType=Round|Shape=Octagon|*
%AMOCTAGOND58*
4,1,8,0.03937,0.13780,-0.03937,0.13780,-0.07874,0.09843,-0.07874,-0.09843,-0.03937,-0.13780,0.03937,-0.13780,0.07874,-0.09843,0.07874,0.09843,0.03937,0.13780,0.0*
%
%ADD58OCTAGOND58*%

G04:AMPARAMS|DCode=59|XSize=275.59mil|YSize=157.48mil|CornerRadius=0mil|HoleSize=0mil|Usage=FLASHONLY|Rotation=0.000|XOffset=0mil|YOffset=0mil|HoleType=Round|Shape=Octagon|*
%AMOCTAGOND59*
4,1,8,0.13780,-0.03937,0.13780,0.03937,0.09843,0.07874,-0.09843,0.07874,-0.13780,0.03937,-0.13780,-0.03937,-0.09843,-0.07874,0.09843,-0.07874,0.13780,-0.03937,0.0*
%
%ADD59OCTAGOND59*%

%ADD60C,0.05906*%
%ADD61C,0.16000*%
%ADD62C,0.01772*%
%ADD63C,0.02362*%
G36*
X-45413Y-93524D02*
X-44072Y-94044D01*
X-42861Y-94820D01*
X-41828Y-95822D01*
X-41016Y-97009D01*
X-40455Y-98333D01*
X-40169Y-99743D01*
Y-100462D01*
X-40173Y-142760D01*
X-40170Y-142772D01*
X-40172Y-142785D01*
X-40151Y-143503D01*
X-40394Y-144921D01*
X-40914Y-146262D01*
X-41690Y-147473D01*
X-42692Y-148506D01*
X-43879Y-149319D01*
X-45203Y-149879D01*
X-46613Y-150165D01*
X-47326D01*
X-47562Y-150162D01*
X-47568Y-150163D01*
X-47574Y-150162D01*
X-191546Y-150162D01*
X-191579Y-149662D01*
X-190697Y-149545D01*
X-189708Y-149136D01*
X-188859Y-148484D01*
X-188858Y-148486D01*
X-188162Y-147580D01*
X-187725Y-146524D01*
X-187576Y-145392D01*
X-187601D01*
Y-140439D01*
X-187602Y-140434D01*
X-187447Y-139654D01*
X-187005Y-138993D01*
X-187001Y-138990D01*
X-186870Y-138859D01*
X-186370Y-139066D01*
Y-139712D01*
X-186410Y-139915D01*
X-186370Y-140118D01*
Y-145500D01*
X-183561D01*
X-183561Y-145500D01*
X-183442Y-146097D01*
X-183104Y-146604D01*
X-182597Y-146942D01*
X-182000Y-147061D01*
X-181403Y-146942D01*
X-180896Y-146604D01*
X-180558Y-146097D01*
X-180439Y-145500D01*
X-180439Y-145500D01*
X-177173D01*
X-177104Y-145604D01*
X-176597Y-145942D01*
X-176000Y-146061D01*
X-175403Y-145942D01*
X-174937Y-145632D01*
X-174727Y-145719D01*
X-174688D01*
X-174656Y-145740D01*
X-173996Y-145872D01*
X-173958Y-145864D01*
X-173922Y-145879D01*
X-171586D01*
X-171550Y-145864D01*
X-171512Y-145872D01*
X-170372Y-145645D01*
X-170340Y-145623D01*
X-170301D01*
X-169228Y-145179D01*
X-169200Y-145151D01*
X-169162Y-145144D01*
X-168196Y-144498D01*
X-168175Y-144466D01*
X-168139Y-144451D01*
X-164271Y-140583D01*
X-164256Y-140547D01*
X-164224Y-140526D01*
X-163834Y-139942D01*
X-163826Y-139904D01*
X-163799Y-139877D01*
X-163530Y-139229D01*
Y-139190D01*
X-163509Y-139157D01*
X-163444Y-138833D01*
X-162722Y-138110D01*
X-162666Y-138055D01*
X-162234Y-137890D01*
X-151857Y-148268D01*
X-151589Y-148379D01*
X-150989D01*
X-150211Y-148795D01*
X-148637Y-149272D01*
X-147000Y-149434D01*
X-145363Y-149272D01*
X-143789Y-148795D01*
X-143011Y-148379D01*
X-143000D01*
X-142732Y-148268D01*
X-142651Y-148186D01*
X-142339Y-148020D01*
X-141067Y-146976D01*
X-140024Y-145705D01*
X-139248Y-144254D01*
X-138771Y-142680D01*
X-138610Y-141043D01*
X-138771Y-139406D01*
X-139248Y-137832D01*
X-140024Y-136382D01*
X-140121Y-136263D01*
X-140121Y-128500D01*
X-140232Y-128232D01*
X-144150Y-124314D01*
Y-123517D01*
X-149850D01*
Y-125690D01*
X-155754Y-131595D01*
X-158886Y-134144D01*
X-159023Y-134144D01*
X-164183Y-128984D01*
X-164500Y-128615D01*
X-162753Y-126867D01*
X-164500Y-125120D01*
X-165205Y-125824D01*
X-165271Y-125780D01*
X-165334Y-125731D01*
X-165355Y-125726D01*
X-166843Y-124239D01*
X-166678Y-123696D01*
X-166518Y-123664D01*
X-166109Y-123391D01*
X-165836Y-122982D01*
X-165740Y-122500D01*
X-165836Y-122018D01*
X-166109Y-121609D01*
X-166518Y-121336D01*
X-167000Y-121240D01*
X-167482Y-121336D01*
X-167891Y-121609D01*
X-168164Y-122018D01*
X-168196Y-122178D01*
X-168738Y-122343D01*
X-170881Y-120200D01*
X-171186Y-119848D01*
X-171220Y-119504D01*
X-171066Y-119351D01*
X-172397Y-118021D01*
X-174840Y-120465D01*
X-173579Y-121725D01*
X-173539Y-121994D01*
X-173579Y-122266D01*
X-174548Y-123235D01*
X-174902Y-123589D01*
X-175193Y-123880D01*
X-176232Y-124919D01*
X-174142Y-127009D01*
X-174093Y-127058D01*
X-174084Y-127086D01*
X-174059Y-127110D01*
X-174056Y-127118D01*
X-173788Y-127362D01*
X-173551Y-127764D01*
X-173588Y-127857D01*
X-173600Y-127865D01*
X-173997Y-128130D01*
X-174270Y-128539D01*
X-174460Y-128854D01*
X-175149Y-128764D01*
X-175310Y-128691D01*
X-175427Y-128631D01*
X-175467Y-128591D01*
X-175483Y-128551D01*
X-175524Y-128533D01*
X-177685Y-126372D01*
X-179016Y-127702D01*
Y-127702D01*
X-179077Y-127764D01*
X-180116Y-128803D01*
X-180469Y-129156D01*
X-180470D01*
X-180469Y-129156D01*
X-181730Y-130417D01*
X-182001Y-130456D01*
X-182271Y-130416D01*
X-183239Y-129448D01*
X-183531Y-129156D01*
X-184632Y-128055D01*
X-184923Y-127764D01*
X-185275Y-127413D01*
X-186024Y-126664D01*
X-186377Y-126310D01*
X-187415Y-125271D01*
X-187769Y-124918D01*
X-188060Y-124627D01*
X-188807Y-123880D01*
X-189099Y-123588D01*
X-189453Y-123234D01*
X-190208Y-122478D01*
X-190295Y-122389D01*
X-190348Y-122295D01*
X-190452Y-122060D01*
X-190461Y-121996D01*
X-190452Y-121931D01*
X-190350Y-121698D01*
X-190295Y-121601D01*
X-190209Y-121512D01*
X-189161Y-120465D01*
X-191605Y-118021D01*
X-192766Y-119182D01*
X-193394Y-119120D01*
X-194542Y-118772D01*
X-195599Y-118206D01*
X-195769Y-118067D01*
X-195740Y-117920D01*
X-195836Y-117438D01*
X-196109Y-117029D01*
X-196518Y-116756D01*
X-197000Y-116660D01*
X-197482Y-116756D01*
X-197891Y-117029D01*
X-198164Y-117438D01*
X-198260Y-117920D01*
X-198164Y-118402D01*
X-197891Y-118811D01*
X-197482Y-119084D01*
X-197000Y-119180D01*
X-196630Y-119106D01*
X-196353Y-119334D01*
X-195061Y-120025D01*
X-193659Y-120450D01*
X-192201Y-120594D01*
X-192201Y-120594D01*
X-191765Y-120593D01*
X-191701Y-120594D01*
X-191692Y-120594D01*
X-190774Y-121512D01*
X-190687Y-121601D01*
X-190633Y-121696D01*
X-190530Y-121931D01*
X-190521Y-121994D01*
X-190530Y-122060D01*
X-190632Y-122293D01*
X-190687Y-122389D01*
X-190773Y-122478D01*
X-191199Y-122905D01*
X-191238Y-122925D01*
X-191366Y-122975D01*
X-191526Y-123019D01*
X-191712Y-123054D01*
X-191967Y-123078D01*
X-192116Y-122938D01*
X-192291Y-122683D01*
X-192310Y-122601D01*
X-192240Y-122247D01*
X-192336Y-121765D01*
X-192609Y-121356D01*
X-193018Y-121083D01*
X-193500Y-120987D01*
X-193982Y-121083D01*
X-194391Y-121356D01*
X-194664Y-121765D01*
X-194760Y-122247D01*
X-194719Y-122452D01*
X-194769Y-122479D01*
X-195221Y-122653D01*
X-195230Y-122649D01*
X-196748Y-121131D01*
X-198869Y-123252D01*
X-198307Y-123814D01*
X-198302Y-123850D01*
X-198412Y-124417D01*
X-198831Y-124738D01*
X-199514Y-125022D01*
X-200248Y-125118D01*
Y-125131D01*
X-201252D01*
Y-125097D01*
X-202194Y-125284D01*
X-202993Y-125818D01*
X-202984Y-125826D01*
X-203636Y-126675D01*
X-204045Y-127664D01*
X-204185Y-128725D01*
X-204163D01*
Y-130662D01*
X-204190D01*
X-204031Y-131863D01*
X-203568Y-132984D01*
X-202830Y-133945D01*
X-202830Y-133945D01*
X-202473Y-134216D01*
X-202448Y-134230D01*
X-202327Y-134294D01*
X-200738Y-135144D01*
X-200634Y-135175D01*
X-200708Y-135670D01*
X-201789D01*
Y-135659D01*
X-202607Y-135552D01*
X-203369Y-135236D01*
X-204024Y-134733D01*
X-204031Y-134741D01*
X-204886Y-133886D01*
X-204880Y-133880D01*
X-205623Y-132974D01*
X-206175Y-131942D01*
X-206489Y-130908D01*
X-206496Y-130867D01*
X-206499Y-130825D01*
X-206498Y-130786D01*
X-206493Y-130748D01*
X-206484Y-130710D01*
X-206470Y-130672D01*
X-206452Y-130631D01*
X-206427Y-130589D01*
X-206396Y-130545D01*
X-206348Y-130487D01*
X-206330Y-130426D01*
X-206137Y-130138D01*
X-206041Y-129656D01*
X-206137Y-129174D01*
X-206410Y-128765D01*
X-206819Y-128492D01*
X-207301Y-128396D01*
X-207783Y-128492D01*
X-208192Y-128765D01*
X-208337Y-128982D01*
X-208837Y-128830D01*
Y-118688D01*
X-208817D01*
X-208949Y-117017D01*
X-209340Y-115387D01*
X-209981Y-113838D01*
X-210342Y-113250D01*
X-210346Y-113191D01*
X-210413Y-113056D01*
X-210466Y-112908D01*
X-210567Y-112446D01*
X-210604Y-112171D01*
X-210674Y-110592D01*
X-210669Y-110106D01*
X-210669Y-110106D01*
X-210669Y-110106D01*
X-210675Y-110091D01*
X-210669Y-110046D01*
X-210782Y-109184D01*
X-211115Y-108380D01*
X-211645Y-107690D01*
X-212334Y-107161D01*
X-213138Y-106828D01*
X-214000Y-106715D01*
X-214862Y-106828D01*
X-215666Y-107161D01*
X-216355Y-107690D01*
X-216885Y-108380D01*
X-217218Y-109184D01*
X-217331Y-110046D01*
X-217218Y-110908D01*
X-216885Y-111712D01*
X-216355Y-112401D01*
X-215666Y-112931D01*
X-214862Y-113264D01*
X-214015Y-113375D01*
X-214010Y-113377D01*
X-213139Y-113408D01*
X-212778Y-113445D01*
X-212456Y-113496D01*
X-212179Y-113561D01*
X-211946Y-113637D01*
X-211760Y-113721D01*
X-211619Y-113809D01*
X-211520Y-113897D01*
X-211504Y-113919D01*
X-210866Y-115112D01*
X-210372Y-116742D01*
X-210843Y-116911D01*
X-211115Y-116254D01*
X-211645Y-115564D01*
X-212334Y-115035D01*
X-213138Y-114702D01*
X-214000Y-114589D01*
X-214862Y-114702D01*
X-215666Y-115035D01*
X-216355Y-115564D01*
X-216885Y-116254D01*
X-217218Y-117058D01*
X-217331Y-117920D01*
X-217218Y-118782D01*
X-216885Y-119586D01*
X-216355Y-120275D01*
X-215666Y-120805D01*
X-214862Y-121138D01*
X-214000Y-121251D01*
X-213138Y-121138D01*
X-212334Y-120805D01*
X-211645Y-120275D01*
X-211115Y-119586D01*
X-210782Y-118782D01*
X-210724Y-118337D01*
X-210219Y-118331D01*
X-210163Y-118688D01*
Y-140151D01*
X-210200D01*
X-210001Y-141658D01*
X-209420Y-143062D01*
X-208795Y-143876D01*
X-208496Y-144266D01*
X-208495Y-144267D01*
X-208469Y-144241D01*
X-206170Y-146540D01*
X-206184Y-146554D01*
X-204909Y-147643D01*
X-203480Y-148519D01*
X-201931Y-149160D01*
X-200301Y-149551D01*
X-198903Y-149662D01*
X-198923Y-150162D01*
X-219203D01*
X-220697Y-148668D01*
Y-94870D01*
X-219130Y-93303D01*
X-203835Y-93303D01*
X-203786Y-93803D01*
X-203953Y-93836D01*
X-204361Y-94109D01*
X-204635Y-94518D01*
X-204731Y-95000D01*
X-204635Y-95482D01*
X-204372Y-95875D01*
X-204365Y-95894D01*
X-204313Y-95948D01*
X-204276Y-95992D01*
X-204245Y-96036D01*
X-204219Y-96080D01*
X-204198Y-96124D01*
X-204181Y-96169D01*
X-204167Y-96214D01*
X-204158Y-96262D01*
X-204152Y-96312D01*
X-204149Y-96380D01*
X-204133Y-96414D01*
Y-113590D01*
X-204149Y-113625D01*
X-204152Y-113692D01*
X-204158Y-113742D01*
X-204167Y-113790D01*
X-204181Y-113835D01*
X-204198Y-113880D01*
X-204219Y-113924D01*
X-204245Y-113968D01*
X-204276Y-114012D01*
X-204313Y-114056D01*
X-204365Y-114110D01*
X-204372Y-114129D01*
X-204635Y-114522D01*
X-204731Y-115004D01*
X-204635Y-115487D01*
X-204361Y-115895D01*
X-203953Y-116168D01*
X-203470Y-116264D01*
X-202988Y-116168D01*
X-202579Y-115895D01*
X-202306Y-115487D01*
X-202210Y-115004D01*
X-202306Y-114522D01*
X-202569Y-114129D01*
X-202576Y-114110D01*
X-202628Y-114056D01*
X-202664Y-114012D01*
X-202695Y-113968D01*
X-202722Y-113924D01*
X-202743Y-113880D01*
X-202760Y-113835D01*
X-202774Y-113790D01*
X-202783Y-113742D01*
X-202789Y-113692D01*
X-202792Y-113625D01*
X-202808Y-113590D01*
Y-107033D01*
X-202308Y-106959D01*
X-201900Y-108305D01*
X-201201Y-109612D01*
X-200260Y-110758D01*
X-200243Y-110741D01*
X-200243Y-110741D01*
X-198468Y-112516D01*
X-198455Y-112552D01*
X-198409Y-112602D01*
X-198378Y-112641D01*
X-198352Y-112682D01*
X-198329Y-112723D01*
X-198309Y-112767D01*
X-198293Y-112813D01*
X-198281Y-112863D01*
X-198272Y-112916D01*
X-198266Y-112973D01*
X-198265Y-113048D01*
X-198256Y-113066D01*
X-198164Y-113530D01*
X-197891Y-113939D01*
X-197482Y-114212D01*
X-197000Y-114308D01*
X-196518Y-114212D01*
X-196109Y-113939D01*
X-195836Y-113530D01*
X-195740Y-113048D01*
X-195836Y-112566D01*
X-196109Y-112157D01*
X-196518Y-111884D01*
X-196981Y-111791D01*
X-197000Y-111783D01*
X-197074Y-111781D01*
X-197132Y-111776D01*
X-197185Y-111767D01*
X-197234Y-111754D01*
X-197281Y-111738D01*
X-197324Y-111719D01*
X-197366Y-111696D01*
X-197406Y-111669D01*
X-197446Y-111638D01*
X-197496Y-111592D01*
X-197531Y-111579D01*
X-199306Y-109804D01*
X-199306Y-109804D01*
X-199301Y-109799D01*
X-200073Y-108859D01*
X-200646Y-107786D01*
X-200999Y-106622D01*
X-201119Y-105411D01*
X-201126D01*
Y-97904D01*
X-201127Y-97900D01*
X-201018Y-97350D01*
X-201006Y-97335D01*
X-200990Y-97320D01*
X-200970Y-97305D01*
X-200943Y-97290D01*
X-200907Y-97275D01*
X-200861Y-97261D01*
X-200789Y-97247D01*
X-200728Y-97206D01*
X-200518Y-97164D01*
X-200109Y-96891D01*
X-199836Y-96482D01*
X-199740Y-96000D01*
X-199836Y-95518D01*
X-200109Y-95109D01*
X-200518Y-94836D01*
X-201000Y-94740D01*
X-201482Y-94836D01*
X-201738Y-95007D01*
X-201747Y-95007D01*
X-202218Y-94823D01*
X-202251Y-94794D01*
X-202306Y-94518D01*
X-202579Y-94109D01*
X-202988Y-93836D01*
X-203155Y-93803D01*
X-203105Y-93303D01*
X-47578Y-93303D01*
X-47577Y-93303D01*
X-47258Y-93303D01*
X-47203Y-93292D01*
X-46831Y-93281D01*
X-45413Y-93524D01*
D02*
G37*
G36*
X-202911Y-95696D02*
X-202966Y-95762D01*
X-203014Y-95830D01*
X-203055Y-95900D01*
X-203090Y-95973D01*
X-203119Y-96047D01*
X-203142Y-96123D01*
X-203158Y-96202D01*
X-203167Y-96282D01*
X-203170Y-96365D01*
X-203770D01*
X-203774Y-96282D01*
X-203783Y-96202D01*
X-203799Y-96123D01*
X-203822Y-96047D01*
X-203851Y-95973D01*
X-203886Y-95900D01*
X-203927Y-95830D01*
X-203975Y-95762D01*
X-204030Y-95696D01*
X-204090Y-95633D01*
X-202850D01*
X-202911Y-95696D01*
D02*
G37*
G36*
X-200863Y-96875D02*
X-200952Y-96893D01*
X-201034Y-96917D01*
X-201109Y-96948D01*
X-201176Y-96986D01*
X-201236Y-97030D01*
X-201288Y-97081D01*
X-201333Y-97139D01*
X-201371Y-97203D01*
X-201401Y-97273D01*
X-201424Y-97351D01*
X-201943Y-96982D01*
X-201917Y-96896D01*
X-201878Y-96725D01*
X-201864Y-96641D01*
X-201850Y-96476D01*
X-201849Y-96394D01*
X-201860Y-96234D01*
X-201872Y-96154D01*
X-200863Y-96875D01*
D02*
G37*
G36*
X-197692Y-111927D02*
X-197629Y-111977D01*
X-197562Y-112021D01*
X-197492Y-112059D01*
X-197419Y-112091D01*
X-197343Y-112118D01*
X-197264Y-112138D01*
X-197182Y-112152D01*
X-197097Y-112160D01*
X-197009Y-112162D01*
X-197886Y-113039D01*
X-197888Y-112951D01*
X-197896Y-112866D01*
X-197910Y-112784D01*
X-197930Y-112705D01*
X-197956Y-112629D01*
X-197989Y-112556D01*
X-198027Y-112486D01*
X-198071Y-112419D01*
X-198121Y-112355D01*
X-198177Y-112295D01*
X-197753Y-111870D01*
X-197692Y-111927D01*
D02*
G37*
G36*
X-211053Y-110599D02*
X-210982Y-112205D01*
X-210941Y-112512D01*
X-210831Y-113012D01*
X-210763Y-113205D01*
X-210685Y-113361D01*
X-211127Y-113791D01*
X-211239Y-113640D01*
X-211390Y-113505D01*
X-211580Y-113386D01*
X-211809Y-113283D01*
X-212077Y-113196D01*
X-212383Y-113124D01*
X-212729Y-113069D01*
X-213113Y-113030D01*
X-213997Y-112999D01*
X-211048Y-110102D01*
X-211053Y-110599D01*
D02*
G37*
G36*
X-203167Y-113722D02*
X-203158Y-113803D01*
X-203142Y-113881D01*
X-203119Y-113957D01*
X-203090Y-114032D01*
X-203055Y-114104D01*
X-203014Y-114174D01*
X-202966Y-114242D01*
X-202911Y-114308D01*
X-202850Y-114372D01*
X-204090D01*
X-204030Y-114308D01*
X-203975Y-114242D01*
X-203927Y-114174D01*
X-203886Y-114104D01*
X-203851Y-114032D01*
X-203822Y-113957D01*
X-203799Y-113881D01*
X-203783Y-113803D01*
X-203774Y-113722D01*
X-203770Y-113639D01*
X-203170D01*
X-203167Y-113722D01*
D02*
G37*
G36*
X-191523Y-120234D02*
X-191534Y-120229D01*
X-191557Y-120224D01*
X-191592Y-120221D01*
X-191697Y-120214D01*
X-192166Y-120208D01*
X-192201Y-119608D01*
X-192192Y-119607D01*
X-192184Y-119606D01*
X-192178Y-119604D01*
X-192175Y-119601D01*
X-192173Y-119597D01*
X-192173Y-119592D01*
X-192175Y-119586D01*
X-192179Y-119580D01*
X-192185Y-119573D01*
X-192193Y-119564D01*
X-191523Y-120234D01*
D02*
G37*
G36*
X-171853Y-119617D02*
X-171868Y-119659D01*
X-171868Y-119705D01*
X-171854Y-119755D01*
X-171826Y-119808D01*
X-171783Y-119865D01*
X-171726Y-119926D01*
X-171654Y-119990D01*
X-171568Y-120058D01*
X-171467Y-120130D01*
X-172024Y-120686D01*
X-172128Y-120618D01*
X-172316Y-120516D01*
X-172398Y-120481D01*
X-172474Y-120456D01*
X-172543Y-120443D01*
X-172604Y-120441D01*
X-172658Y-120450D01*
X-172705Y-120470D01*
X-172745Y-120501D01*
X-171823Y-119578D01*
X-171853Y-119617D01*
D02*
G37*
G36*
X-195528Y-123004D02*
X-195497Y-123105D01*
X-195423Y-123193D01*
X-195307Y-123270D01*
X-195147Y-123335D01*
X-194945Y-123389D01*
X-194700Y-123430D01*
X-194412Y-123459D01*
X-193708Y-123483D01*
X-193779Y-124683D01*
X-194206Y-124689D01*
X-195240Y-124778D01*
X-195502Y-124831D01*
X-195722Y-124896D01*
X-195900Y-124973D01*
X-196038Y-125062D01*
X-196133Y-125162D01*
X-196187Y-125275D01*
X-195896Y-124241D01*
X-196365Y-123997D01*
X-196247Y-123327D01*
X-196165Y-123397D01*
X-196079Y-123456D01*
X-195991Y-123503D01*
X-195899Y-123539D01*
X-195805Y-123564D01*
X-195709Y-123577D01*
X-195516Y-122892D01*
X-195528Y-123004D01*
D02*
G37*
G36*
X-196880Y-124729D02*
X-196925Y-124693D01*
X-196974Y-124670D01*
X-197027Y-124659D01*
X-197084Y-124661D01*
X-197146Y-124676D01*
X-197211Y-124704D01*
X-197281Y-124744D01*
X-197356Y-124797D01*
X-197434Y-124863D01*
X-197517Y-124941D01*
X-197941Y-124517D01*
X-197863Y-124434D01*
X-197797Y-124356D01*
X-197744Y-124281D01*
X-197704Y-124211D01*
X-197676Y-124146D01*
X-197661Y-124084D01*
X-197659Y-124027D01*
X-197670Y-123974D01*
X-197693Y-123925D01*
X-197729Y-123880D01*
X-196880Y-124729D01*
D02*
G37*
G36*
X-191771Y-125275D02*
X-191739Y-125162D01*
X-191754Y-125062D01*
X-191817Y-124973D01*
X-191927Y-124896D01*
X-192085Y-124831D01*
X-192289Y-124778D01*
X-192541Y-124736D01*
X-192840Y-124707D01*
X-193579Y-124683D01*
X-192465Y-123483D01*
X-192172Y-123477D01*
X-191659Y-123430D01*
X-191441Y-123389D01*
X-191247Y-123335D01*
X-191079Y-123270D01*
X-190936Y-123193D01*
X-190818Y-123105D01*
X-190725Y-123004D01*
X-190657Y-122892D01*
X-191771Y-125275D01*
D02*
G37*
G36*
X-193591Y-125062D02*
X-192864Y-125085D01*
X-192590Y-125112D01*
X-192437Y-125137D01*
X-191604Y-125970D01*
X-191899Y-126348D01*
X-191946Y-126395D01*
X-191965Y-126401D01*
X-191970Y-126410D01*
X-191978Y-126413D01*
X-192485Y-126887D01*
X-192690Y-127054D01*
X-192862Y-127176D01*
X-193369D01*
X-193373Y-127174D01*
X-193381Y-127176D01*
X-195550D01*
Y-129735D01*
X-195562Y-129755D01*
X-195555Y-129785D01*
X-195567Y-129815D01*
X-195550Y-129855D01*
Y-129921D01*
X-195832Y-130244D01*
X-195982Y-130398D01*
X-195992Y-130422D01*
X-196029Y-130459D01*
X-196053Y-130469D01*
X-196293Y-130704D01*
X-196369Y-130773D01*
X-196682Y-130836D01*
X-197091Y-131109D01*
X-197364Y-131518D01*
X-197460Y-132000D01*
X-197364Y-132482D01*
X-197091Y-132891D01*
X-196966Y-132974D01*
X-197118Y-133474D01*
X-197727D01*
Y-133466D01*
X-198590Y-133352D01*
X-199394Y-133019D01*
X-200085Y-132489D01*
X-200091Y-132495D01*
X-200530Y-132055D01*
X-200406Y-131870D01*
X-200310Y-131388D01*
X-200406Y-130905D01*
X-200679Y-130497D01*
X-201088Y-130224D01*
X-201571Y-130128D01*
X-202053Y-130224D01*
X-202337Y-130414D01*
X-202757Y-130258D01*
X-202837Y-130192D01*
Y-128725D01*
X-202823D01*
X-202730Y-128016D01*
X-202457Y-127356D01*
X-202305Y-127158D01*
X-202020Y-126791D01*
X-201621Y-126546D01*
X-201252Y-126473D01*
Y-126457D01*
X-200248D01*
Y-126480D01*
X-199162Y-126337D01*
X-198150Y-125918D01*
X-197281Y-125251D01*
X-196807Y-125314D01*
X-196253Y-125869D01*
X-195670Y-125286D01*
X-195593Y-125253D01*
X-195410Y-125199D01*
X-195186Y-125153D01*
X-194188Y-125068D01*
X-193774Y-125062D01*
X-193750Y-125052D01*
X-193614D01*
X-193591Y-125062D01*
D02*
G37*
G36*
X-165491Y-126088D02*
X-165263Y-126241D01*
X-165223Y-126261D01*
X-165189Y-126275D01*
X-165161Y-126281D01*
X-165139Y-126280D01*
X-165124Y-126273D01*
X-165736Y-126867D01*
X-165742Y-126867D01*
X-165755Y-126860D01*
X-165776Y-126847D01*
X-165880Y-126773D01*
X-166121Y-126589D01*
X-165564Y-126032D01*
X-165491Y-126088D01*
D02*
G37*
G36*
X-173003Y-126074D02*
X-173024Y-126120D01*
X-173032Y-126171D01*
X-173028Y-126226D01*
X-173012Y-126286D01*
X-172983Y-126350D01*
X-172941Y-126419D01*
X-172887Y-126493D01*
X-172821Y-126571D01*
X-172743Y-126653D01*
X-173167Y-127078D01*
X-173249Y-126999D01*
X-173327Y-126933D01*
X-173401Y-126879D01*
X-173470Y-126838D01*
X-173534Y-126809D01*
X-173594Y-126792D01*
X-173649Y-126788D01*
X-173700Y-126796D01*
X-173746Y-126817D01*
X-173788Y-126850D01*
X-172970Y-126032D01*
X-173003Y-126074D01*
D02*
G37*
G36*
X-190939Y-127607D02*
X-191237Y-127912D01*
X-191904Y-128705D01*
X-192051Y-128927D01*
X-192160Y-129129D01*
X-192233Y-129310D01*
X-192267Y-129470D01*
X-192264Y-129609D01*
X-192224Y-129728D01*
X-193417Y-127550D01*
X-193346Y-127639D01*
X-193254Y-127689D01*
X-193140Y-127700D01*
X-193003Y-127672D01*
X-192844Y-127606D01*
X-192664Y-127500D01*
X-192461Y-127356D01*
X-192236Y-127173D01*
X-191720Y-126690D01*
X-190939Y-127607D01*
D02*
G37*
G36*
X-188820Y-128242D02*
X-188862Y-128209D01*
X-188908Y-128188D01*
X-188959Y-128180D01*
X-189014Y-128184D01*
X-189074Y-128200D01*
X-189138Y-128229D01*
X-189207Y-128271D01*
X-189281Y-128324D01*
X-189359Y-128391D01*
X-189442Y-128469D01*
X-189866Y-128045D01*
X-189787Y-127962D01*
X-189721Y-127884D01*
X-189667Y-127811D01*
X-189626Y-127742D01*
X-189597Y-127678D01*
X-189580Y-127618D01*
X-189576Y-127562D01*
X-189585Y-127512D01*
X-189605Y-127465D01*
X-189638Y-127424D01*
X-188820Y-128242D01*
D02*
G37*
G36*
X-175762Y-128832D02*
X-175757Y-128851D01*
X-175741Y-128873D01*
X-175712Y-128898D01*
X-175671Y-128927D01*
X-175618Y-128959D01*
X-175474Y-129033D01*
X-175282Y-129119D01*
X-175741Y-129601D01*
X-175851Y-129556D01*
X-175954Y-129522D01*
X-176050Y-129496D01*
X-176139Y-129479D01*
X-176221Y-129472D01*
X-176296Y-129474D01*
X-176364Y-129485D01*
X-176426Y-129505D01*
X-176480Y-129535D01*
X-176528Y-129573D01*
X-175754Y-128816D01*
X-175762Y-128832D01*
D02*
G37*
G36*
X-192487Y-129823D02*
X-192657Y-129848D01*
X-192827Y-129891D01*
X-192996Y-129950D01*
X-193166Y-130027D01*
X-193336Y-130120D01*
X-193505Y-130230D01*
X-193675Y-130358D01*
X-193845Y-130502D01*
X-194015Y-130663D01*
X-195712D01*
X-195554Y-130502D01*
X-195220Y-130120D01*
X-195156Y-130027D01*
X-195116Y-129950D01*
X-195099Y-129891D01*
X-195105Y-129848D01*
X-195135Y-129823D01*
X-195188Y-129815D01*
X-192317D01*
X-192487Y-129823D01*
D02*
G37*
G36*
X-206698Y-130315D02*
X-206747Y-130385D01*
X-206788Y-130457D01*
X-206822Y-130529D01*
X-206848Y-130604D01*
X-206866Y-130679D01*
X-206876Y-130755D01*
X-206878Y-130833D01*
X-206872Y-130912D01*
X-206859Y-130992D01*
X-207464Y-131031D01*
X-207483Y-130948D01*
X-207507Y-130868D01*
X-207537Y-130791D01*
X-207571Y-130717D01*
X-207610Y-130645D01*
X-207653Y-130576D01*
X-207702Y-130510D01*
X-207756Y-130447D01*
X-207814Y-130386D01*
X-207878Y-130328D01*
X-206640Y-130246D01*
X-206698Y-130315D01*
D02*
G37*
G36*
X-177284Y-130335D02*
X-177288Y-130358D01*
X-177285Y-130384D01*
X-177274Y-130416D01*
X-177256Y-130451D01*
X-177230Y-130491D01*
X-177197Y-130536D01*
X-177156Y-130585D01*
X-177051Y-130696D01*
X-177475Y-131120D01*
X-177533Y-131064D01*
X-177680Y-130941D01*
X-177720Y-130915D01*
X-177756Y-130897D01*
X-177787Y-130886D01*
X-177814Y-130883D01*
X-177836Y-130887D01*
X-177854Y-130899D01*
X-177272Y-130317D01*
X-177284Y-130335D01*
D02*
G37*
G36*
X-179889Y-131868D02*
X-179934Y-131832D01*
X-179983Y-131809D01*
X-180036Y-131799D01*
X-180094Y-131801D01*
X-180156Y-131817D01*
X-180223Y-131846D01*
X-180294Y-131887D01*
X-180369Y-131941D01*
X-180449Y-132009D01*
X-180534Y-132089D01*
X-180958Y-131664D01*
X-180878Y-131580D01*
X-180811Y-131500D01*
X-180756Y-131425D01*
X-180715Y-131353D01*
X-180686Y-131287D01*
X-180671Y-131225D01*
X-180668Y-131167D01*
X-180678Y-131113D01*
X-180701Y-131064D01*
X-180737Y-131019D01*
X-179889Y-131868D01*
D02*
G37*
G36*
X-194939Y-131588D02*
X-195314Y-131991D01*
X-196191Y-131114D01*
X-196182Y-131111D01*
X-196166Y-131099D01*
X-196143Y-131081D01*
X-196032Y-130979D01*
X-195788Y-130739D01*
X-194939Y-131588D01*
D02*
G37*
G36*
X-184773Y-132272D02*
X-184788Y-132263D01*
X-184806Y-132262D01*
X-184829Y-132267D01*
X-184857Y-132278D01*
X-184889Y-132297D01*
X-184925Y-132323D01*
X-184965Y-132355D01*
X-185060Y-132440D01*
X-185114Y-132492D01*
X-185538Y-132068D01*
X-185485Y-132014D01*
X-185368Y-131879D01*
X-185343Y-131843D01*
X-185324Y-131811D01*
X-185312Y-131784D01*
X-185307Y-131761D01*
X-185309Y-131742D01*
X-185318Y-131728D01*
X-184773Y-132272D01*
D02*
G37*
G36*
X-174147Y-131933D02*
X-174237Y-131948D01*
X-174320Y-131970D01*
X-174396Y-131998D01*
X-174466Y-132033D01*
X-174529Y-132075D01*
X-174585Y-132123D01*
X-174635Y-132178D01*
X-174678Y-132240D01*
X-174715Y-132308D01*
X-174745Y-132383D01*
X-175244Y-132005D01*
X-175213Y-131922D01*
X-175164Y-131757D01*
X-175146Y-131675D01*
X-175133Y-131593D01*
X-175125Y-131511D01*
X-175121Y-131429D01*
X-175122Y-131348D01*
X-175127Y-131266D01*
X-175137Y-131185D01*
X-174147Y-131933D01*
D02*
G37*
G36*
X-172559Y-133387D02*
X-172539Y-133434D01*
X-172515Y-133470D01*
X-172489Y-133495D01*
X-172460Y-133510D01*
X-172428Y-133513D01*
X-172394Y-133506D01*
X-172356Y-133488D01*
X-172315Y-133459D01*
X-172272Y-133419D01*
X-173191Y-134339D01*
X-173157Y-134297D01*
X-173130Y-134247D01*
X-173110Y-134188D01*
X-173097Y-134120D01*
X-173091Y-134044D01*
X-173091Y-133958D01*
X-173099Y-133864D01*
X-173113Y-133762D01*
X-173162Y-133530D01*
X-172576Y-133329D01*
X-172559Y-133387D01*
D02*
G37*
G36*
X-174034Y-136036D02*
X-174756Y-136284D01*
X-174747Y-136272D01*
X-174742Y-136257D01*
X-174742Y-136240D01*
X-174746Y-136221D01*
X-174755Y-136199D01*
X-174768Y-136176D01*
X-174786Y-136150D01*
X-174809Y-136122D01*
X-174835Y-136091D01*
X-174867Y-136059D01*
X-174418Y-135659D01*
X-174034Y-136036D01*
D02*
G37*
G36*
X-187160Y-137275D02*
X-187937Y-138052D01*
X-187949Y-138041D01*
X-187950Y-138042D01*
X-188488Y-138743D01*
X-188827Y-139561D01*
X-188943Y-140439D01*
X-188926D01*
Y-145392D01*
X-188938D01*
X-189041Y-146172D01*
X-189342Y-146899D01*
X-189819Y-147521D01*
X-189822Y-147522D01*
X-189822Y-147522D01*
X-189822Y-147522D01*
X-190389Y-147957D01*
X-191050Y-148230D01*
X-191758Y-148323D01*
Y-148337D01*
X-198630D01*
X-198656Y-148342D01*
X-200453Y-148165D01*
X-200727Y-148082D01*
X-200824Y-147530D01*
X-200625Y-147232D01*
X-200529Y-146750D01*
X-200625Y-146268D01*
X-200887Y-145875D01*
X-200894Y-145856D01*
X-200946Y-145802D01*
X-200983Y-145757D01*
X-201014Y-145713D01*
X-201040Y-145670D01*
X-201061Y-145626D01*
X-201079Y-145581D01*
X-201092Y-145536D01*
X-201102Y-145488D01*
X-201108Y-145438D01*
X-201110Y-145370D01*
X-201126Y-145336D01*
Y-136995D01*
X-189344D01*
Y-137015D01*
X-187673Y-136884D01*
X-187414Y-136822D01*
X-187160Y-137275D01*
D02*
G37*
G36*
X-163743Y-138045D02*
Y-138395D01*
X-163880Y-139084D01*
X-164149Y-139732D01*
X-164539Y-140315D01*
X-164787Y-140563D01*
X-167996Y-143772D01*
X-168406Y-144183D01*
X-169373Y-144829D01*
X-170446Y-145273D01*
X-171586Y-145500D01*
X-173922D01*
X-174582Y-145369D01*
X-175203Y-145111D01*
X-175762Y-144738D01*
X-176000Y-144500D01*
X-176021Y-144083D01*
X-176183Y-143266D01*
X-176502Y-142496D01*
X-176965Y-141804D01*
X-177245Y-141494D01*
X-178788Y-139951D01*
X-178468Y-139632D01*
Y-139632D01*
X-178199Y-139363D01*
X-177567Y-138940D01*
X-176863Y-138648D01*
X-176117Y-138500D01*
X-175736D01*
X-175207Y-138474D01*
X-174169Y-138268D01*
X-173191Y-137863D01*
X-172311Y-137274D01*
X-171919Y-136919D01*
X-168500Y-133500D01*
X-163743Y-138045D01*
D02*
G37*
G36*
X-201485Y-145468D02*
X-201476Y-145548D01*
X-201460Y-145627D01*
X-201437Y-145703D01*
X-201409Y-145777D01*
X-201374Y-145850D01*
X-201332Y-145920D01*
X-201284Y-145988D01*
X-201230Y-146054D01*
X-201169Y-146117D01*
X-202409D01*
X-202348Y-146054D01*
X-202294Y-145988D01*
X-202246Y-145920D01*
X-202204Y-145850D01*
X-202169Y-145777D01*
X-202140Y-145703D01*
X-202117Y-145627D01*
X-202101Y-145548D01*
X-202092Y-145468D01*
X-202089Y-145385D01*
X-201489D01*
X-201485Y-145468D01*
D02*
G37*
G36*
X-159180Y-134523D02*
X-158751Y-134523D01*
X-155500Y-131876D01*
X-147707Y-124083D01*
X-144917Y-124083D01*
X-140500Y-128500D01*
X-140500Y-145500D01*
X-143000Y-148000D01*
X-151589D01*
X-169373Y-130217D01*
Y-128258D01*
X-174131Y-123500D01*
X-170203Y-123500D01*
X-159180Y-134523D01*
D02*
G37*
%LPC*%
G36*
X-52400Y-94150D02*
X-55600D01*
Y-94801D01*
X-55605Y-94802D01*
X-55665Y-94812D01*
X-55743Y-94819D01*
X-55848Y-94821D01*
X-55884Y-94837D01*
X-71973D01*
X-72009Y-94821D01*
X-72113Y-94819D01*
X-72192Y-94812D01*
X-72251Y-94802D01*
X-72256Y-94801D01*
Y-94221D01*
X-76618D01*
Y-98779D01*
X-72256D01*
Y-96199D01*
X-72251Y-96198D01*
X-72192Y-96188D01*
X-72113Y-96181D01*
X-72009Y-96179D01*
X-71973Y-96163D01*
X-55884D01*
X-55848Y-96179D01*
X-55743Y-96181D01*
X-55665Y-96188D01*
X-55605Y-96198D01*
X-55600Y-96199D01*
Y-96850D01*
X-52400D01*
Y-94150D01*
D02*
G37*
G36*
X-78319Y-94221D02*
X-82681D01*
Y-95006D01*
X-83181Y-95303D01*
X-83500Y-95240D01*
X-83982Y-95336D01*
X-84391Y-95609D01*
X-84664Y-96018D01*
X-84760Y-96500D01*
X-84664Y-96982D01*
X-84391Y-97391D01*
X-83982Y-97664D01*
X-83500Y-97760D01*
X-83181Y-97697D01*
X-82681Y-97994D01*
Y-98779D01*
X-81201D01*
X-81198Y-98792D01*
X-81188Y-98849D01*
X-81181Y-98925D01*
X-81179Y-99027D01*
X-81163Y-99063D01*
Y-115444D01*
X-81183D01*
X-81051Y-117115D01*
X-80660Y-118745D01*
X-80019Y-120294D01*
X-79143Y-121723D01*
X-78054Y-122998D01*
X-78040Y-122984D01*
X-71378Y-129645D01*
X-71570Y-130107D01*
X-112486D01*
X-112715Y-130202D01*
X-112747Y-130212D01*
X-112753Y-130218D01*
X-112754Y-130218D01*
X-112758Y-130222D01*
X-116247Y-133212D01*
X-116254Y-133226D01*
X-116268Y-133232D01*
X-116318Y-133354D01*
X-116378Y-133471D01*
X-116373Y-133486D01*
X-116379Y-133500D01*
Y-143500D01*
X-116268Y-143768D01*
X-112018Y-148018D01*
X-111750Y-148129D01*
X-58500D01*
X-58232Y-148018D01*
X-56732Y-146518D01*
X-56621Y-146250D01*
Y-132586D01*
X-56732Y-132318D01*
X-58615Y-130436D01*
Y-129725D01*
X-61667D01*
X-61896Y-129382D01*
X-62403Y-129044D01*
X-63000Y-128925D01*
X-63597Y-129044D01*
X-64104Y-129382D01*
X-64333Y-129725D01*
X-67385D01*
Y-130107D01*
X-69042D01*
X-77102Y-122047D01*
X-77125Y-122032D01*
X-78270Y-120636D01*
X-79134Y-119020D01*
X-79665Y-117267D01*
X-79842Y-115470D01*
X-79837Y-115444D01*
Y-99063D01*
X-79821Y-99027D01*
X-79819Y-98925D01*
X-79812Y-98849D01*
X-79802Y-98792D01*
X-79799Y-98779D01*
X-78319D01*
Y-94221D01*
D02*
G37*
G36*
X-175472Y-98939D02*
X-176069Y-99058D01*
X-176576Y-99396D01*
X-176914Y-99903D01*
X-177033Y-100500D01*
X-176914Y-101097D01*
X-176576Y-101604D01*
X-176492Y-101660D01*
Y-102261D01*
X-176576Y-102317D01*
X-176914Y-102824D01*
X-177033Y-103421D01*
X-176914Y-104019D01*
X-176576Y-104525D01*
X-176069Y-104863D01*
X-175472Y-104982D01*
X-174874Y-104863D01*
X-174368Y-104525D01*
X-174030Y-104019D01*
X-173911Y-103421D01*
X-174030Y-102824D01*
X-174368Y-102317D01*
X-174452Y-102261D01*
Y-101660D01*
X-174368Y-101604D01*
X-174030Y-101097D01*
X-173911Y-100500D01*
X-174030Y-99903D01*
X-174368Y-99396D01*
X-174874Y-99058D01*
X-175472Y-98939D01*
D02*
G37*
G36*
X-214000Y-98841D02*
X-214862Y-98954D01*
X-215666Y-99287D01*
X-216355Y-99816D01*
X-216885Y-100506D01*
X-217218Y-101310D01*
X-217331Y-102172D01*
X-217218Y-103034D01*
X-216885Y-103838D01*
X-216355Y-104527D01*
X-215666Y-105057D01*
X-214862Y-105390D01*
X-214000Y-105503D01*
X-213138Y-105390D01*
X-212334Y-105057D01*
X-211645Y-104527D01*
X-211115Y-103838D01*
X-210782Y-103034D01*
X-210669Y-102172D01*
X-210782Y-101310D01*
X-211115Y-100506D01*
X-211645Y-99816D01*
X-212334Y-99287D01*
X-213138Y-98954D01*
X-214000Y-98841D01*
D02*
G37*
G36*
X-147000Y-95031D02*
X-148637Y-95192D01*
X-150211Y-95670D01*
X-151056Y-96121D01*
X-162409D01*
X-162677Y-96232D01*
X-164677Y-98232D01*
X-164728Y-98356D01*
X-164787Y-98476D01*
X-165057Y-102820D01*
X-170027Y-107790D01*
X-170408Y-108076D01*
X-172156Y-106328D01*
X-173903Y-108076D01*
X-173604Y-108376D01*
X-173602Y-108381D01*
X-173584Y-108404D01*
X-173583Y-108414D01*
X-173587Y-108447D01*
X-173600Y-108499D01*
X-173627Y-108570D01*
X-173668Y-108655D01*
X-173724Y-108755D01*
X-173799Y-108870D01*
X-173959Y-108903D01*
X-174319Y-108822D01*
X-174592Y-108414D01*
X-175000Y-108140D01*
X-175483Y-108045D01*
X-175965Y-108140D01*
X-176374Y-108414D01*
X-176639Y-108811D01*
X-176641Y-108813D01*
X-176642Y-108815D01*
X-176647Y-108822D01*
X-176649Y-108836D01*
X-176652Y-108838D01*
X-176661Y-108852D01*
X-176663Y-108855D01*
X-176664Y-108856D01*
X-176664Y-108856D01*
X-176665Y-108857D01*
X-176679Y-108872D01*
X-176694Y-108887D01*
X-176879Y-109035D01*
X-176927Y-109069D01*
X-176937Y-109076D01*
X-177320Y-109365D01*
X-177293Y-109392D01*
X-178959Y-111057D01*
X-178996Y-111072D01*
X-179071Y-111143D01*
X-179130Y-111193D01*
X-179179Y-111229D01*
X-179185Y-111232D01*
X-179356Y-111061D01*
X-179624Y-111305D01*
X-179627Y-111314D01*
X-179652Y-111337D01*
X-179660Y-111366D01*
X-181517Y-113223D01*
X-181606Y-113309D01*
X-181703Y-113364D01*
X-181936Y-113466D01*
X-182001Y-113475D01*
X-182064Y-113466D01*
X-182300Y-113362D01*
X-182395Y-113309D01*
X-182483Y-113222D01*
X-182909Y-112796D01*
X-182930Y-112757D01*
X-182980Y-112629D01*
X-183024Y-112469D01*
X-183059Y-112283D01*
X-183104Y-111802D01*
X-183109Y-111522D01*
X-183111Y-111519D01*
X-183109Y-111515D01*
X-183119Y-111494D01*
Y-108637D01*
X-183109Y-108614D01*
X-183109Y-108594D01*
X-183088D01*
X-182958Y-108540D01*
X-182820Y-108483D01*
X-182778Y-108441D01*
X-182763Y-108405D01*
X-182730Y-108383D01*
X-182664Y-108283D01*
X-182656Y-108245D01*
X-182629Y-108218D01*
X-182583Y-108107D01*
Y-108068D01*
X-182561Y-108036D01*
X-182538Y-107918D01*
X-182238Y-107766D01*
Y-104766D01*
X-182238D01*
X-182531Y-104439D01*
Y-104222D01*
X-182545Y-104186D01*
X-182538Y-104148D01*
X-182614Y-103765D01*
X-182636Y-103733D01*
Y-103694D01*
X-182785Y-103333D01*
X-182813Y-103305D01*
X-182820Y-103267D01*
X-183037Y-102942D01*
X-183070Y-102921D01*
X-183085Y-102885D01*
X-183223Y-102746D01*
X-183223Y-102746D01*
X-184275Y-101695D01*
X-184376Y-101543D01*
X-184527Y-101442D01*
X-184614Y-101356D01*
X-184649Y-101341D01*
X-184671Y-101309D01*
X-184978Y-101103D01*
X-185016Y-101096D01*
X-185044Y-101068D01*
X-185385Y-100927D01*
X-185424D01*
X-185456Y-100905D01*
X-185818Y-100833D01*
X-185856Y-100841D01*
X-185892Y-100826D01*
X-186269D01*
X-186304Y-100841D01*
X-186343Y-100833D01*
X-186718Y-100908D01*
X-186751Y-100930D01*
X-186789D01*
X-187143Y-101076D01*
X-187171Y-101104D01*
X-187209Y-101111D01*
X-187527Y-101324D01*
X-187549Y-101356D01*
X-187585Y-101371D01*
X-187720Y-101507D01*
X-187720Y-101507D01*
X-188564Y-102350D01*
X-189764D01*
Y-106050D01*
X-188032D01*
X-187585Y-106235D01*
X-187088Y-106567D01*
X-186870Y-106765D01*
X-185938Y-107697D01*
Y-107766D01*
X-185869D01*
X-185601Y-108034D01*
X-185494Y-108141D01*
X-185458Y-108156D01*
X-185437Y-108188D01*
X-185186Y-108356D01*
X-185148Y-108363D01*
X-185120Y-108391D01*
X-185072Y-108411D01*
X-185067Y-108614D01*
X-185057Y-108637D01*
Y-110381D01*
X-185067Y-110404D01*
X-185090Y-111131D01*
X-185117Y-111405D01*
X-185142Y-111558D01*
X-185706Y-112122D01*
X-185708Y-112123D01*
X-186336Y-112055D01*
X-186543Y-111785D01*
X-186592Y-111669D01*
X-186664Y-111463D01*
X-186688Y-111377D01*
X-186728Y-111198D01*
X-186739Y-111125D01*
X-186745Y-111054D01*
X-186748Y-110976D01*
X-186764Y-110939D01*
Y-107650D01*
X-189764D01*
Y-110367D01*
X-190243Y-110814D01*
X-190390Y-110813D01*
X-191283Y-110128D01*
X-191283Y-110128D01*
X-191283Y-110128D01*
X-191360Y-110069D01*
X-191487Y-110017D01*
X-191651Y-109916D01*
X-191794Y-109814D01*
X-191913Y-109716D01*
X-192008Y-109623D01*
X-192079Y-109537D01*
X-192129Y-109458D01*
X-192160Y-109389D01*
X-192176Y-109327D01*
X-192185Y-109235D01*
X-192200Y-109205D01*
Y-108582D01*
X-195200D01*
Y-112282D01*
X-192628D01*
X-192601Y-112297D01*
X-192569Y-112296D01*
X-192562Y-112299D01*
X-192200Y-112282D01*
X-191700Y-112273D01*
X-189267Y-114707D01*
X-189532Y-115148D01*
X-189686Y-115100D01*
X-189892Y-115022D01*
X-189910Y-115023D01*
X-190136Y-114929D01*
X-191624Y-114733D01*
Y-114733D01*
X-192116Y-114713D01*
X-192134Y-114710D01*
X-192197Y-114691D01*
X-192200Y-114690D01*
Y-113882D01*
X-195200D01*
Y-117582D01*
X-192200D01*
Y-116775D01*
X-192197Y-116773D01*
X-192134Y-116755D01*
X-192049Y-116738D01*
X-191781Y-116714D01*
X-191617Y-116711D01*
X-191599Y-116703D01*
X-190744Y-116816D01*
X-190346Y-116975D01*
X-189620Y-117304D01*
X-189575Y-117327D01*
X-188949Y-117807D01*
X-188949Y-117809D01*
Y-117809D01*
X-188829Y-117889D01*
X-187707Y-119011D01*
X-186669Y-117972D01*
X-186377Y-117681D01*
X-186024Y-117327D01*
X-185277Y-116580D01*
X-184924Y-116227D01*
X-184632Y-115935D01*
X-183885Y-115188D01*
X-183593Y-114897D01*
X-183240Y-114543D01*
X-182483Y-113786D01*
X-182394Y-113701D01*
X-182298Y-113646D01*
X-182065Y-113544D01*
X-182000Y-113534D01*
X-181936Y-113544D01*
X-181701Y-113647D01*
X-181606Y-113701D01*
X-181517Y-113787D01*
X-180762Y-114543D01*
X-180469Y-114835D01*
X-180116Y-115189D01*
X-179078Y-116227D01*
X-179078Y-116227D01*
X-178724Y-116580D01*
X-177685Y-117619D01*
X-175595Y-115529D01*
X-175564Y-115498D01*
X-175551Y-115495D01*
X-175511Y-115454D01*
X-175486Y-115443D01*
X-175242Y-115175D01*
X-175099Y-115054D01*
X-174566Y-115258D01*
X-174542Y-115380D01*
X-174269Y-115788D01*
X-173860Y-116062D01*
X-173378Y-116157D01*
X-172896Y-116062D01*
X-172487Y-115788D01*
X-172214Y-115380D01*
X-172118Y-114898D01*
X-172084Y-114838D01*
X-171684Y-114515D01*
X-171677Y-114517D01*
X-171618Y-114557D01*
X-171564Y-114569D01*
X-171528Y-114580D01*
X-171490Y-114595D01*
X-171451Y-114615D01*
X-171411Y-114639D01*
X-171369Y-114670D01*
X-171325Y-114707D01*
X-171280Y-114750D01*
X-171233Y-114799D01*
X-171015Y-115074D01*
X-170991Y-115051D01*
X-169012Y-117030D01*
X-169033Y-117051D01*
X-169031Y-117052D01*
X-168322Y-117525D01*
X-167485Y-117692D01*
Y-117691D01*
X-166233Y-117527D01*
X-165339Y-117156D01*
X-165292Y-117151D01*
X-165198Y-117101D01*
X-165145Y-117076D01*
X-165076Y-117047D01*
X-165058Y-117040D01*
X-165008Y-117026D01*
X-164973Y-117019D01*
X-164965Y-117019D01*
X-164965Y-117019D01*
X-164959Y-117021D01*
X-164500Y-117480D01*
X-162752Y-115732D01*
X-162300Y-115617D01*
X-161567Y-115921D01*
X-161528D01*
X-161496Y-115942D01*
X-160688Y-116103D01*
X-160650Y-116095D01*
X-160614Y-116110D01*
X-157915D01*
X-157894Y-116102D01*
X-157872Y-116108D01*
X-157170Y-116027D01*
X-157150Y-116016D01*
X-157127Y-116020D01*
X-156439Y-115860D01*
X-156421Y-115847D01*
X-156398Y-115848D01*
X-155732Y-115610D01*
X-155715Y-115595D01*
X-155692Y-115593D01*
X-155375Y-115437D01*
X-155333Y-115390D01*
X-155275Y-115365D01*
X-155068Y-115159D01*
X-155053Y-115123D01*
X-155021Y-115101D01*
X-154696Y-114616D01*
X-154689Y-114577D01*
X-154661Y-114550D01*
X-154438Y-114010D01*
Y-113971D01*
X-154416Y-113939D01*
X-154317Y-113441D01*
X-153896Y-113160D01*
X-153558Y-112653D01*
X-153439Y-112056D01*
X-153470Y-111898D01*
X-153470Y-111859D01*
X-153185Y-111462D01*
X-151503Y-111240D01*
X-151503Y-111240D01*
X-151457Y-111233D01*
X-151176Y-111401D01*
X-150879Y-111661D01*
Y-117867D01*
X-150768Y-118135D01*
X-149850Y-119053D01*
Y-121217D01*
X-144150D01*
Y-119686D01*
X-138732Y-114268D01*
X-138621Y-114000D01*
Y-103539D01*
X-138610Y-103421D01*
X-138621Y-103304D01*
Y-102000D01*
X-138732Y-101732D01*
X-138810Y-101654D01*
X-139248Y-100210D01*
X-140024Y-98760D01*
X-141067Y-97488D01*
X-142339Y-96445D01*
X-143789Y-95670D01*
X-145363Y-95192D01*
X-147000Y-95031D01*
D02*
G37*
G36*
X-128500Y-103765D02*
X-130137Y-103927D01*
X-131711Y-104404D01*
X-133161Y-105179D01*
X-134433Y-106223D01*
X-135476Y-107494D01*
X-136252Y-108945D01*
X-136729Y-110519D01*
X-136890Y-112156D01*
X-136729Y-113793D01*
X-136252Y-115367D01*
X-135476Y-116817D01*
X-134433Y-118089D01*
X-133161Y-119132D01*
X-131711Y-119907D01*
X-130137Y-120385D01*
X-128500Y-120546D01*
X-126863Y-120385D01*
X-125289Y-119907D01*
X-123838Y-119132D01*
X-122567Y-118089D01*
X-121524Y-116817D01*
X-120748Y-115367D01*
X-120271Y-113793D01*
X-120110Y-112156D01*
X-120271Y-110519D01*
X-120748Y-108945D01*
X-121524Y-107494D01*
X-122567Y-106223D01*
X-123838Y-105179D01*
X-125289Y-104404D01*
X-126863Y-103927D01*
X-128500Y-103765D01*
D02*
G37*
G36*
X-157323Y-125295D02*
X-157920Y-125414D01*
X-158263Y-125643D01*
X-158778Y-125772D01*
X-159285Y-125434D01*
X-159882Y-125315D01*
X-160479Y-125434D01*
X-160986Y-125772D01*
X-161324Y-126279D01*
X-161443Y-126876D01*
X-161324Y-127474D01*
X-160986Y-127980D01*
X-160479Y-128319D01*
X-159882Y-128437D01*
X-159285Y-128319D01*
X-158942Y-128089D01*
X-158427Y-127960D01*
X-157920Y-128298D01*
X-157323Y-128417D01*
X-156726Y-128298D01*
X-156219Y-127960D01*
X-155881Y-127453D01*
X-155762Y-126856D01*
X-155881Y-126259D01*
X-156219Y-125752D01*
X-156726Y-125414D01*
X-157323Y-125295D01*
D02*
G37*
G36*
X-78500Y-126740D02*
X-78982Y-126836D01*
X-79391Y-127109D01*
X-79664Y-127518D01*
X-79760Y-128000D01*
X-79664Y-128482D01*
X-79391Y-128891D01*
X-78982Y-129164D01*
X-78500Y-129260D01*
X-78018Y-129164D01*
X-77609Y-128891D01*
X-77336Y-128482D01*
X-77240Y-128000D01*
X-77336Y-127518D01*
X-77609Y-127109D01*
X-78018Y-126836D01*
X-78500Y-126740D01*
D02*
G37*
G36*
X-214000Y-130337D02*
X-214862Y-130450D01*
X-215666Y-130783D01*
X-216355Y-131312D01*
X-216885Y-132002D01*
X-217218Y-132806D01*
X-217331Y-133668D01*
X-217218Y-134530D01*
X-216885Y-135334D01*
X-216355Y-136023D01*
X-215666Y-136553D01*
X-214862Y-136886D01*
X-214000Y-136999D01*
X-213138Y-136886D01*
X-212334Y-136553D01*
X-211645Y-136023D01*
X-211115Y-135334D01*
X-210782Y-134530D01*
X-210669Y-133668D01*
X-210782Y-132806D01*
X-211115Y-132002D01*
X-211645Y-131312D01*
X-212334Y-130783D01*
X-213138Y-130450D01*
X-214000Y-130337D01*
D02*
G37*
G36*
X-49180Y-136740D02*
X-49662Y-136836D01*
X-50071Y-137109D01*
X-50344Y-137518D01*
X-50440Y-138000D01*
X-50344Y-138482D01*
X-50071Y-138891D01*
X-49662Y-139164D01*
X-49180Y-139260D01*
X-48698Y-139164D01*
X-48289Y-138891D01*
X-48016Y-138482D01*
X-47920Y-138000D01*
X-48016Y-137518D01*
X-48289Y-137109D01*
X-48698Y-136836D01*
X-49180Y-136740D01*
D02*
G37*
G36*
X-128500Y-122696D02*
X-130137Y-122857D01*
X-131711Y-123335D01*
X-133161Y-124110D01*
X-134433Y-125153D01*
X-135476Y-126425D01*
X-136252Y-127875D01*
X-136729Y-129449D01*
X-136890Y-131086D01*
X-136729Y-132723D01*
X-136252Y-134297D01*
X-135476Y-135748D01*
X-134433Y-137019D01*
X-133161Y-138063D01*
X-131711Y-138838D01*
X-130137Y-139315D01*
X-128500Y-139477D01*
X-126863Y-139315D01*
X-125289Y-138838D01*
X-123838Y-138063D01*
X-122567Y-137019D01*
X-121524Y-135748D01*
X-120748Y-134297D01*
X-120271Y-132723D01*
X-120110Y-131086D01*
X-120271Y-129449D01*
X-120748Y-127875D01*
X-121524Y-126425D01*
X-122567Y-125153D01*
X-123838Y-124110D01*
X-125289Y-123335D01*
X-126863Y-122857D01*
X-128500Y-122696D01*
D02*
G37*
G36*
X-214000Y-138211D02*
X-214862Y-138324D01*
X-215666Y-138657D01*
X-216355Y-139186D01*
X-216885Y-139876D01*
X-217218Y-140680D01*
X-217331Y-141542D01*
X-217218Y-142404D01*
X-216885Y-143208D01*
X-216355Y-143897D01*
X-215666Y-144427D01*
X-214862Y-144760D01*
X-214000Y-144873D01*
X-213138Y-144760D01*
X-212334Y-144427D01*
X-211645Y-143897D01*
X-211115Y-143208D01*
X-210782Y-142404D01*
X-210669Y-141542D01*
X-210782Y-140680D01*
X-211115Y-139876D01*
X-211645Y-139186D01*
X-212334Y-138657D01*
X-213138Y-138324D01*
X-214000Y-138211D01*
D02*
G37*
G36*
X-45500Y-144939D02*
X-46097Y-145058D01*
X-46604Y-145396D01*
X-46942Y-145903D01*
X-47028Y-146334D01*
X-47153Y-146445D01*
X-47287Y-146552D01*
X-47393Y-146628D01*
X-47429Y-146650D01*
X-47430Y-146650D01*
X-49100D01*
Y-149350D01*
X-45900D01*
Y-148660D01*
X-45899Y-148658D01*
X-45900Y-148653D01*
Y-148575D01*
X-45864Y-148515D01*
X-45465Y-148054D01*
X-44903Y-147942D01*
X-44396Y-147604D01*
X-44058Y-147097D01*
X-43939Y-146500D01*
X-44058Y-145903D01*
X-44396Y-145396D01*
X-44903Y-145058D01*
X-45500Y-144939D01*
D02*
G37*
G36*
X-52500Y-136740D02*
X-52982Y-136836D01*
X-53391Y-137109D01*
X-53664Y-137518D01*
X-53760Y-138000D01*
X-53664Y-138482D01*
X-53391Y-138891D01*
X-53235Y-138996D01*
X-53197Y-139055D01*
X-53143Y-139093D01*
X-53110Y-139121D01*
X-53083Y-139149D01*
X-53061Y-139178D01*
X-53043Y-139207D01*
X-53029Y-139238D01*
X-53017Y-139273D01*
X-53007Y-139312D01*
X-53001Y-139358D01*
X-52999Y-139425D01*
X-52984Y-139457D01*
X-52990Y-139491D01*
X-52983Y-139501D01*
Y-146366D01*
X-52999Y-146402D01*
X-53001Y-146507D01*
X-53008Y-146585D01*
X-53018Y-146645D01*
X-53019Y-146650D01*
X-53920D01*
Y-149350D01*
X-50720D01*
Y-146650D01*
X-51621D01*
X-51622Y-146645D01*
X-51632Y-146585D01*
X-51639Y-146507D01*
X-51641Y-146402D01*
X-51657Y-146366D01*
Y-139323D01*
X-51641Y-139288D01*
X-51639Y-139220D01*
X-51634Y-139165D01*
X-51625Y-139109D01*
X-51612Y-139053D01*
X-51596Y-138997D01*
X-51575Y-138941D01*
X-51553Y-138888D01*
X-51485Y-138760D01*
X-51445Y-138697D01*
X-51432Y-138627D01*
X-51336Y-138482D01*
X-51240Y-138000D01*
X-51336Y-137518D01*
X-51609Y-137109D01*
X-52018Y-136836D01*
X-52500Y-136740D01*
D02*
G37*
%LPD*%
G36*
X-55226Y-96100D02*
X-55232Y-96043D01*
X-55251Y-95992D01*
X-55281Y-95947D01*
X-55324Y-95908D01*
X-55379Y-95875D01*
X-55446Y-95848D01*
X-55526Y-95827D01*
X-55618Y-95812D01*
X-55722Y-95803D01*
X-55838Y-95800D01*
Y-95200D01*
X-55722Y-95197D01*
X-55618Y-95188D01*
X-55526Y-95173D01*
X-55446Y-95152D01*
X-55379Y-95125D01*
X-55324Y-95092D01*
X-55281Y-95053D01*
X-55251Y-95008D01*
X-55232Y-94957D01*
X-55226Y-94900D01*
Y-96100D01*
D02*
G37*
G36*
X-72624Y-94957D02*
X-72606Y-95008D01*
X-72575Y-95053D01*
X-72532Y-95092D01*
X-72477Y-95125D01*
X-72410Y-95152D01*
X-72330Y-95173D01*
X-72239Y-95188D01*
X-72135Y-95197D01*
X-72018Y-95200D01*
Y-95800D01*
X-72135Y-95803D01*
X-72239Y-95812D01*
X-72330Y-95827D01*
X-72410Y-95848D01*
X-72477Y-95875D01*
X-72532Y-95908D01*
X-72575Y-95947D01*
X-72606Y-95992D01*
X-72624Y-96043D01*
X-72630Y-96100D01*
Y-94900D01*
X-72624Y-94957D01*
D02*
G37*
G36*
X-82804Y-95941D02*
X-82738Y-95995D01*
X-82670Y-96043D01*
X-82600Y-96085D01*
X-82527Y-96120D01*
X-82487Y-96136D01*
X-82460Y-96125D01*
X-82405Y-96092D01*
X-82362Y-96053D01*
X-82331Y-96008D01*
X-82313Y-95957D01*
X-82307Y-95900D01*
Y-96185D01*
X-82298Y-96187D01*
X-82218Y-96197D01*
X-82135Y-96200D01*
Y-96800D01*
X-82218Y-96803D01*
X-82298Y-96813D01*
X-82307Y-96815D01*
Y-97100D01*
X-82313Y-97043D01*
X-82331Y-96992D01*
X-82362Y-96947D01*
X-82405Y-96908D01*
X-82460Y-96875D01*
X-82487Y-96864D01*
X-82527Y-96880D01*
X-82600Y-96915D01*
X-82670Y-96957D01*
X-82738Y-97005D01*
X-82804Y-97059D01*
X-82867Y-97120D01*
Y-96801D01*
X-82919Y-96800D01*
Y-96200D01*
X-82867Y-96199D01*
Y-95880D01*
X-82804Y-95941D01*
D02*
G37*
G36*
X-79957Y-98423D02*
X-80008Y-98441D01*
X-80053Y-98471D01*
X-80092Y-98513D01*
X-80125Y-98567D01*
X-80152Y-98633D01*
X-80173Y-98711D01*
X-80188Y-98801D01*
X-80197Y-98903D01*
X-80200Y-99017D01*
X-80800D01*
X-80803Y-98903D01*
X-80812Y-98801D01*
X-80827Y-98711D01*
X-80848Y-98633D01*
X-80875Y-98567D01*
X-80908Y-98513D01*
X-80947Y-98471D01*
X-80992Y-98441D01*
X-81043Y-98423D01*
X-81100Y-98417D01*
X-79900D01*
X-79957Y-98423D01*
D02*
G37*
G36*
X-57000Y-132586D02*
Y-146250D01*
X-58500Y-147750D01*
X-111750D01*
X-116000Y-143500D01*
Y-133500D01*
X-112500Y-130500D01*
X-112486Y-130486D01*
X-59100D01*
X-57000Y-132586D01*
D02*
G37*
G36*
X-185530Y-101277D02*
X-185189Y-101418D01*
X-184881Y-101624D01*
X-184751Y-101754D01*
X-183491Y-103014D01*
X-183491Y-103014D01*
X-183352Y-103153D01*
X-183135Y-103478D01*
X-182986Y-103839D01*
X-182909Y-104222D01*
Y-104418D01*
Y-107392D01*
X-182888D01*
X-182909Y-107394D01*
Y-107784D01*
Y-107844D01*
X-182933Y-107962D01*
X-182979Y-108073D01*
X-183045Y-108173D01*
X-183088Y-108215D01*
X-183468D01*
X-183482Y-108374D01*
X-183488Y-108604D01*
X-184688D01*
X-184694Y-108374D01*
X-184712Y-108168D01*
X-184715Y-108148D01*
X-184975Y-108041D01*
X-185226Y-107873D01*
X-185333Y-107766D01*
X-186609Y-106491D01*
X-186609D01*
X-186855Y-106268D01*
X-187406Y-105899D01*
X-188018Y-105646D01*
X-188669Y-105516D01*
X-189000Y-105500D01*
X-189099Y-103421D01*
X-187452Y-101775D01*
Y-101775D01*
X-187317Y-101639D01*
X-186998Y-101426D01*
X-186644Y-101280D01*
X-186269Y-101205D01*
X-185892D01*
X-185530Y-101277D01*
D02*
G37*
G36*
X-172176Y-109274D02*
X-172234Y-109228D01*
X-172295Y-109200D01*
X-172359Y-109191D01*
X-172427Y-109201D01*
X-172498Y-109229D01*
X-172573Y-109276D01*
X-172651Y-109342D01*
X-172732Y-109427D01*
X-172817Y-109530D01*
X-172906Y-109652D01*
X-173484Y-109080D01*
X-173401Y-108952D01*
X-173332Y-108831D01*
X-173278Y-108718D01*
X-173238Y-108613D01*
X-173213Y-108515D01*
X-173203Y-108425D01*
X-173207Y-108343D01*
X-173226Y-108268D01*
X-173260Y-108202D01*
X-173308Y-108142D01*
X-172176Y-109274D01*
D02*
G37*
G36*
X-176094Y-109946D02*
X-176132Y-109914D01*
X-176172Y-109892D01*
X-176215Y-109878D01*
X-176259Y-109872D01*
X-176304Y-109876D01*
X-176352Y-109888D01*
X-176402Y-109909D01*
X-176453Y-109938D01*
X-176506Y-109977D01*
X-176561Y-110024D01*
X-176721Y-109386D01*
X-176653Y-109339D01*
X-176442Y-109171D01*
X-176405Y-109135D01*
X-176374Y-109100D01*
X-176349Y-109068D01*
X-176331Y-109038D01*
X-176318Y-109011D01*
X-176094Y-109946D01*
D02*
G37*
G36*
X-178310Y-111770D02*
X-178389Y-111853D01*
X-178455Y-111931D01*
X-178509Y-112004D01*
X-178550Y-112073D01*
X-178579Y-112138D01*
X-178596Y-112198D01*
X-178600Y-112253D01*
X-178592Y-112304D01*
X-178571Y-112350D01*
X-178538Y-112391D01*
X-179356Y-111573D01*
X-179314Y-111607D01*
X-179268Y-111627D01*
X-179217Y-111636D01*
X-179162Y-111632D01*
X-179102Y-111615D01*
X-179038Y-111586D01*
X-178969Y-111545D01*
X-178895Y-111491D01*
X-178817Y-111425D01*
X-178735Y-111346D01*
X-178310Y-111770D01*
D02*
G37*
G36*
X-192551Y-109393D02*
X-192518Y-109516D01*
X-192463Y-109639D01*
X-192386Y-109760D01*
X-192288Y-109880D01*
X-192167Y-109998D01*
X-192024Y-110116D01*
X-191859Y-110232D01*
X-191673Y-110347D01*
X-191464Y-110461D01*
X-191559Y-111894D01*
X-191749Y-111801D01*
X-191920Y-111730D01*
X-192070Y-111679D01*
X-192201Y-111650D01*
X-192311Y-111642D01*
X-192402Y-111655D01*
X-192472Y-111690D01*
X-192522Y-111745D01*
X-192552Y-111822D01*
X-192562Y-111920D01*
Y-109268D01*
X-192551Y-109393D01*
D02*
G37*
G36*
X-187126Y-110988D02*
X-187123Y-111077D01*
X-187115Y-111170D01*
X-187101Y-111266D01*
X-187056Y-111470D01*
X-187025Y-111578D01*
X-186946Y-111805D01*
X-186845Y-112046D01*
X-188219Y-112101D01*
X-188322Y-111888D01*
X-188427Y-111697D01*
X-188534Y-111529D01*
X-188644Y-111383D01*
X-188756Y-111259D01*
X-188870Y-111158D01*
X-188987Y-111079D01*
X-189105Y-111022D01*
X-189227Y-110988D01*
X-189350Y-110976D01*
X-187126Y-110988D01*
D02*
G37*
G36*
X-183488Y-111530D02*
X-183482Y-111823D01*
X-183435Y-112336D01*
X-183393Y-112554D01*
X-183340Y-112748D01*
X-183275Y-112916D01*
X-183198Y-113059D01*
X-183109Y-113177D01*
X-183009Y-113270D01*
X-182897Y-113338D01*
X-185280Y-112224D01*
X-185167Y-112256D01*
X-185067Y-112241D01*
X-184978Y-112178D01*
X-184901Y-112068D01*
X-184836Y-111910D01*
X-184783Y-111706D01*
X-184741Y-111454D01*
X-184712Y-111155D01*
X-184688Y-110416D01*
X-183488Y-111530D01*
D02*
G37*
G36*
X-175955Y-112711D02*
X-176036Y-112694D01*
X-176115Y-112686D01*
X-176191Y-112686D01*
X-176266Y-112694D01*
X-176339Y-112710D01*
X-176409Y-112735D01*
X-176478Y-112767D01*
X-176545Y-112808D01*
X-176609Y-112858D01*
X-176672Y-112915D01*
X-176986Y-112380D01*
X-176931Y-112322D01*
X-176880Y-112261D01*
X-176833Y-112196D01*
X-176789Y-112128D01*
X-176748Y-112057D01*
X-176712Y-111983D01*
X-176678Y-111905D01*
X-176649Y-111824D01*
X-176600Y-111651D01*
X-175955Y-112711D01*
D02*
G37*
G36*
X-176919Y-113162D02*
X-176997Y-113244D01*
X-177064Y-113322D01*
X-177117Y-113396D01*
X-177159Y-113465D01*
X-177188Y-113529D01*
X-177204Y-113589D01*
X-177208Y-113645D01*
X-177200Y-113695D01*
X-177179Y-113741D01*
X-177146Y-113783D01*
X-177964Y-112965D01*
X-177923Y-112998D01*
X-177876Y-113019D01*
X-177826Y-113027D01*
X-177770Y-113023D01*
X-177710Y-113007D01*
X-177646Y-112978D01*
X-177577Y-112936D01*
X-177504Y-112882D01*
X-177426Y-112816D01*
X-177343Y-112738D01*
X-176919Y-113162D01*
D02*
G37*
G36*
X-175328Y-114488D02*
X-175432Y-114595D01*
X-175663Y-114865D01*
X-175713Y-114938D01*
X-175748Y-115003D01*
X-175770Y-115059D01*
X-175779Y-115106D01*
X-175773Y-115145D01*
X-175754Y-115175D01*
X-176572Y-114357D01*
X-176541Y-114376D01*
X-176503Y-114382D01*
X-176455Y-114374D01*
X-176399Y-114352D01*
X-176335Y-114316D01*
X-176262Y-114267D01*
X-176180Y-114203D01*
X-175992Y-114036D01*
X-175884Y-113931D01*
X-175328Y-114488D01*
D02*
G37*
G36*
X-170543Y-113574D02*
X-170553Y-113671D01*
X-170556Y-113763D01*
X-170554Y-113850D01*
X-170545Y-113932D01*
X-170530Y-114008D01*
X-170509Y-114079D01*
X-170481Y-114145D01*
X-170448Y-114206D01*
X-170408Y-114262D01*
X-170889Y-114621D01*
X-170949Y-114549D01*
X-171010Y-114483D01*
X-171072Y-114424D01*
X-171136Y-114371D01*
X-171201Y-114324D01*
X-171266Y-114284D01*
X-171333Y-114250D01*
X-171401Y-114222D01*
X-171470Y-114201D01*
X-171540Y-114187D01*
X-170527Y-113472D01*
X-170543Y-113574D01*
D02*
G37*
G36*
X-154870Y-108720D02*
X-154870Y-108720D01*
X-154604Y-108986D01*
X-154204Y-109623D01*
X-153959Y-110334D01*
X-153879Y-111082D01*
X-153924Y-111456D01*
X-153937Y-111677D01*
X-154049Y-112104D01*
X-154242Y-112501D01*
X-154509Y-112853D01*
X-154674Y-113000D01*
X-154674Y-113000D01*
X-154674Y-113292D01*
X-154788Y-113865D01*
X-155011Y-114405D01*
X-155336Y-114891D01*
X-155543Y-115098D01*
X-155860Y-115253D01*
X-156525Y-115491D01*
X-157213Y-115651D01*
X-157915Y-115732D01*
X-160614D01*
X-161422Y-115571D01*
X-162182Y-115256D01*
X-162867Y-114798D01*
X-163158Y-114507D01*
X-163743Y-113922D01*
X-164584D01*
X-165192Y-113801D01*
X-165765Y-113564D01*
X-166281Y-113219D01*
X-166500Y-113000D01*
X-160881Y-107600D01*
X-160288Y-107007D01*
X-160193Y-106864D01*
X-159950Y-106621D01*
X-159665Y-106431D01*
X-159348Y-106300D01*
X-159180Y-106266D01*
X-158500Y-106266D01*
X-154870Y-108720D01*
D02*
G37*
G36*
X-192553Y-114858D02*
X-192525Y-114916D01*
X-192478Y-114966D01*
X-192412Y-115010D01*
X-192327Y-115048D01*
X-192224Y-115078D01*
X-192102Y-115102D01*
X-191962Y-115119D01*
X-191802Y-115129D01*
X-191624Y-115132D01*
Y-116332D01*
X-191802Y-116336D01*
X-192102Y-116363D01*
X-192224Y-116386D01*
X-192327Y-116417D01*
X-192412Y-116454D01*
X-192478Y-116498D01*
X-192525Y-116549D01*
X-192553Y-116606D01*
X-192562Y-116670D01*
Y-114794D01*
X-192553Y-114858D01*
D02*
G37*
G36*
X-164725Y-116726D02*
X-164771Y-116688D01*
X-164823Y-116661D01*
X-164882Y-116645D01*
X-164947Y-116638D01*
X-165018Y-116642D01*
X-165096Y-116657D01*
X-165180Y-116681D01*
X-165271Y-116717D01*
X-165368Y-116762D01*
X-165472Y-116818D01*
X-165916Y-116365D01*
X-165817Y-116306D01*
X-165734Y-116248D01*
X-165666Y-116192D01*
X-165612Y-116137D01*
X-165574Y-116085D01*
X-165550Y-116034D01*
X-165541Y-115984D01*
X-165547Y-115937D01*
X-165568Y-115891D01*
X-165603Y-115847D01*
X-164725Y-116726D01*
D02*
G37*
G36*
X-189810Y-115459D02*
X-188845Y-115757D01*
X-188821Y-115749D01*
X-188147Y-118042D01*
X-188210Y-117898D01*
X-188314Y-117750D01*
X-188459Y-117599D01*
X-188646Y-117445D01*
X-188873Y-117288D01*
X-189143Y-117127D01*
X-189453Y-116963D01*
X-190198Y-116626D01*
X-190632Y-116452D01*
X-190027Y-115376D01*
X-189810Y-115459D01*
D02*
G37*
G36*
X-139000Y-102000D02*
Y-114000D01*
X-145000Y-120000D01*
X-148367D01*
X-150500Y-117867D01*
Y-111000D01*
X-157300Y-104200D01*
X-160203Y-104200D01*
X-165066Y-109064D01*
X-164409Y-98500D01*
X-162409Y-96500D01*
X-144500D01*
X-139000Y-102000D01*
D02*
G37*
G36*
X-45201Y-147202D02*
X-45431Y-147435D01*
X-46171Y-148291D01*
X-46238Y-148401D01*
X-46277Y-148490D01*
X-46289Y-148559D01*
X-46274Y-148607D01*
X-47476Y-147024D01*
X-47437Y-147047D01*
X-47375Y-147042D01*
X-47291Y-147008D01*
X-47186Y-146946D01*
X-47058Y-146855D01*
X-46909Y-146735D01*
X-46543Y-146410D01*
X-46090Y-145970D01*
X-45201Y-147202D01*
D02*
G37*
G36*
X-51813Y-138570D02*
X-51895Y-138724D01*
X-51928Y-138802D01*
X-51956Y-138880D01*
X-51979Y-138958D01*
X-51997Y-139037D01*
X-52010Y-139116D01*
X-52017Y-139196D01*
X-52020Y-139276D01*
X-52620Y-139409D01*
X-52624Y-139324D01*
X-52634Y-139244D01*
X-52652Y-139167D01*
X-52677Y-139095D01*
X-52710Y-139026D01*
X-52749Y-138962D01*
X-52796Y-138902D01*
X-52850Y-138846D01*
X-52911Y-138794D01*
X-52979Y-138745D01*
X-51764Y-138493D01*
X-51813Y-138570D01*
D02*
G37*
G36*
X-52017Y-146528D02*
X-52008Y-146632D01*
X-51993Y-146724D01*
X-51972Y-146804D01*
X-51945Y-146871D01*
X-51912Y-146926D01*
X-51873Y-146969D01*
X-51828Y-147000D01*
X-51777Y-147018D01*
X-51720Y-147024D01*
X-52920D01*
X-52863Y-147018D01*
X-52812Y-147000D01*
X-52767Y-146969D01*
X-52728Y-146926D01*
X-52695Y-146871D01*
X-52668Y-146804D01*
X-52647Y-146724D01*
X-52632Y-146632D01*
X-52623Y-146528D01*
X-52620Y-146412D01*
X-52020D01*
X-52017Y-146528D01*
D02*
G37*
D15*
X-172357Y-108276D02*
X-172989Y-109038D01*
X-173469Y-109903D01*
X-173783Y-110842D01*
X-173917Y-111823D01*
X-173917D02*
X-173817Y-111000D01*
X-174821Y-113425D02*
X-174260Y-112686D01*
X-173917Y-111823D01*
X-165843Y-126311D02*
X-164500Y-126867D01*
X-171746Y-120408D02*
X-172953Y-119908D01*
X-177129Y-115732D02*
X-174821Y-113425D01*
X-172357Y-108276D02*
X-172156Y-108076D01*
X-171746Y-120408D02*
X-165843Y-126311D01*
D16*
X-193700Y-128676D02*
X-192922Y-128522D01*
X-192262Y-128081D01*
X-188264Y-117124D02*
X-188984Y-116533D01*
X-189806Y-116094D01*
X-190697Y-115823D01*
X-191624Y-115732D01*
X-191090Y-111513D02*
X-191855Y-110927D01*
X-192745Y-110558D01*
X-193700Y-110432D01*
X-188264Y-109500D02*
X-188169Y-110468D01*
X-187886Y-111399D01*
X-187428Y-112258D01*
X-186810Y-113010D01*
X-196200Y-132000D02*
X-193417Y-129217D01*
X-195092Y-124083D02*
X-191047D01*
X-192262Y-128081D02*
X-189656Y-125475D01*
X-193700Y-115732D02*
X-191624D01*
X-191090Y-111513D02*
X-186872Y-115732D01*
X-184088Y-112948D02*
Y-106266D01*
X-186810Y-113010D02*
X-185480Y-114340D01*
D18*
X-175737Y-117124D02*
D03*
X-174345Y-118516D02*
D03*
X-177129Y-115732D02*
D03*
X-172953Y-119908D02*
D03*
X-178521Y-114340D02*
D03*
X-179913Y-112948D02*
D03*
X-184088Y-131043D02*
D03*
X-185480Y-129651D02*
D03*
X-189656Y-125475D02*
D03*
X-191047Y-124083D02*
D03*
X-186873Y-128259D02*
D03*
X-188263Y-126867D02*
D03*
D19*
X-172952Y-124083D02*
D03*
X-174345Y-125475D02*
D03*
X-175736Y-126867D02*
D03*
X-177129Y-128259D02*
D03*
X-178520Y-129651D02*
D03*
X-179913Y-131043D02*
D03*
X-184088Y-112948D02*
D03*
X-185480Y-114340D02*
D03*
X-186872Y-115732D02*
D03*
X-188264Y-117124D02*
D03*
X-189656Y-118515D02*
D03*
X-191048Y-119908D02*
D03*
D20*
X-182005Y-121996D02*
D03*
D21*
X-160881Y-130486D02*
D03*
X-162691Y-128677D02*
D03*
X-164500Y-126867D02*
D03*
X-159072Y-132296D02*
D03*
X-166728Y-139951D02*
D03*
X-172156Y-134523D02*
D03*
X-170347Y-136332D02*
D03*
X-168537Y-138142D02*
D03*
D22*
X-164408Y-132203D02*
D03*
D23*
X-167485Y-135280D02*
D03*
D24*
X-49180Y-95500D02*
D03*
X-54000D02*
D03*
X-47500Y-148000D02*
D03*
X-52320D02*
D03*
D25*
X-74437Y-96500D02*
D03*
X-80500D02*
D03*
D26*
X-193700Y-128676D02*
D03*
X-199000D02*
D03*
X-178788Y-106266D02*
D03*
X-184088D02*
D03*
D27*
X-147000Y-117867D02*
D03*
Y-126867D02*
D03*
D28*
X-181000Y-142000D02*
D03*
X-194780D02*
D03*
D29*
X-63000Y-104878D02*
D03*
Y-138343D02*
D03*
D30*
X-188264Y-109500D02*
D03*
Y-104200D02*
D03*
X-193700Y-115732D02*
D03*
Y-110432D02*
D03*
D31*
X-196500Y-123500D02*
D03*
X-200248Y-119752D02*
D03*
D32*
X-159072Y-110303D02*
D03*
X-160881Y-112113D02*
D03*
X-162690Y-113923D02*
D03*
X-164500Y-115732D02*
D03*
X-166727Y-102647D02*
D03*
X-168537Y-104457D02*
D03*
X-170346Y-106266D02*
D03*
X-172156Y-108076D02*
D03*
D33*
X-163743Y-111060D02*
D03*
D34*
X-166820Y-107984D02*
D03*
D56*
X-80500Y-115444D02*
X-80452Y-116424D01*
X-80308Y-117395D01*
X-80069Y-118347D01*
X-79739Y-119271D01*
X-79319Y-120158D01*
X-78815Y-121000D01*
X-78230Y-121788D01*
X-77571Y-122515D01*
X-201000Y-96000D02*
X-201584Y-96874D01*
X-201789Y-97904D01*
Y-105411D02*
X-201704Y-106487D01*
X-201452Y-107536D01*
X-201039Y-108533D01*
X-200476Y-109452D01*
X-199775Y-110273D01*
X-52320Y-138435D02*
X-52500Y-138000D01*
X-204500Y-135209D02*
X-203706Y-135819D01*
X-202781Y-136202D01*
X-201789Y-136332D01*
X-207301Y-129656D02*
X-207219Y-130695D01*
X-206976Y-131709D01*
X-206577Y-132672D01*
X-206032Y-133561D01*
X-205355Y-134354D01*
X-209500Y-118688D02*
X-209548Y-117708D01*
X-209692Y-116737D01*
X-209931Y-115785D01*
X-210261Y-114861D01*
X-210681Y-113974D01*
X-211185Y-113132D01*
X-211770Y-112344D01*
X-212429Y-111617D01*
X-208001Y-143772D02*
X-208000Y-143772D01*
X-209500Y-140151D02*
X-209402Y-141150D01*
X-209110Y-142110D01*
X-208637Y-142996D01*
X-208001Y-143772D01*
X-205701Y-146071D02*
X-204974Y-146730D01*
X-204186Y-147315D01*
X-203344Y-147819D01*
X-202457Y-148239D01*
X-201533Y-148569D01*
X-200581Y-148808D01*
X-199610Y-148952D01*
X-198630Y-149000D01*
X-189344Y-148000D02*
X-188758Y-147236D01*
X-188389Y-146346D01*
X-188263Y-145392D01*
X-191758Y-149000D02*
X-190875Y-148884D01*
X-190051Y-148543D01*
X-189344Y-148000D01*
X-187470Y-138522D02*
X-188057Y-139402D01*
X-188263Y-140439D01*
X-187469Y-138521D02*
X-187470Y-138522D01*
X-182273Y-135847D02*
X-183225Y-135922D01*
X-184154Y-136145D01*
X-185037Y-136511D01*
X-185852Y-137010D01*
X-186578Y-137630D01*
X-181452Y-135847D02*
X-180619Y-135681D01*
X-179913Y-135209D01*
X-189344Y-136332D02*
X-188364Y-136284D01*
X-187393Y-136140D01*
X-186441Y-135902D01*
X-185517Y-135571D01*
X-184630Y-135152D01*
X-183788Y-134647D01*
X-183000Y-134062D01*
X-182273Y-133403D01*
X-174200Y-129519D02*
X-174096Y-129515D01*
X-174200Y-129519D02*
X-174460Y-129531D01*
X-176844Y-128544D02*
X-176146Y-129079D01*
X-175333Y-129416D01*
X-174460Y-129531D01*
X-196319Y-118515D02*
X-195389Y-119112D01*
X-194375Y-119550D01*
X-193302Y-119818D01*
X-192201Y-119908D01*
X-194282Y-130082D02*
X-193851Y-129437D01*
X-193700Y-128676D01*
X-198964Y-133941D02*
X-197727Y-134137D01*
X-200559Y-132964D02*
X-199820Y-133547D01*
X-198964Y-133941D01*
X-201500Y-131820D02*
X-201171Y-132352D01*
X-201571Y-131388D02*
X-201500Y-131820D01*
X-202342Y-133458D02*
X-201527Y-133981D01*
X-200662Y-134417D01*
X-199757Y-134761D01*
X-198821Y-135009D01*
X-197864Y-135159D01*
X-196897Y-135209D01*
X-203500Y-130662D02*
X-203365Y-131685D01*
X-202970Y-132639D01*
X-202342Y-133458D01*
X-202500Y-126311D02*
X-203043Y-127018D01*
X-203384Y-127841D01*
X-203500Y-128725D01*
X-201252Y-125794D02*
X-202500Y-126311D01*
X-200248Y-125794D02*
X-199339Y-125674D01*
X-198493Y-125324D01*
X-197766Y-124766D01*
X-196500Y-123500D02*
X-195854Y-123932D01*
X-195092Y-124083D01*
X-192397Y-135209D02*
X-191417Y-135161D01*
X-190446Y-135017D01*
X-189494Y-134779D01*
X-188570Y-134448D01*
X-187683Y-134028D01*
X-186841Y-133524D01*
X-186053Y-132939D01*
X-185326Y-132280D01*
X-191799Y-132798D02*
X-191274Y-132012D01*
X-191090Y-131086D01*
X-192634Y-133458D02*
X-191799Y-132798D01*
X-195033Y-134137D02*
X-194196Y-134060D01*
X-193387Y-133831D01*
X-192634Y-133458D01*
X-190106Y-128710D02*
X-190640Y-129406D01*
X-190976Y-130217D01*
X-191090Y-131086D01*
X-190106Y-128709D02*
X-190106Y-128710D01*
X-197000Y-117920D02*
X-196319Y-118515D01*
X-175483Y-109304D02*
X-176825Y-109860D01*
X-171398Y-113268D02*
X-171428Y-113080D01*
X-171303Y-113104D02*
X-171440Y-113048D01*
X-171016Y-113391D02*
X-170523Y-114582D01*
X-170523Y-114582D01*
X-168542Y-116562D02*
X-167485Y-117000D01*
X-168543Y-116561D02*
X-168542Y-116562D01*
X-167485Y-117000D02*
X-166412Y-116859D01*
X-165413Y-116445D01*
X-164555Y-115787D01*
X-175696Y-111515D02*
X-175696Y-111514D01*
X-177426Y-132743D02*
X-176965Y-131629D01*
X-177427Y-132743D02*
X-177426Y-132743D01*
X-176965Y-131629D02*
X-177263Y-130908D01*
X-174096Y-129515D02*
X-173106Y-129022D01*
X-174260Y-131054D02*
X-174772Y-131720D01*
X-175093Y-132497D01*
X-175203Y-133329D01*
X-172876D02*
X-172542Y-134137D01*
X-172172Y-131629D02*
X-172693Y-132409D01*
X-172876Y-133329D01*
X-171016Y-129651D02*
X-171171Y-128869D01*
X-171614Y-128206D01*
X-171586Y-131043D02*
X-171164Y-130411D01*
X-171016Y-129667D01*
X-174169Y-136835D02*
X-174135Y-136916D01*
X-175203Y-134523D02*
X-174655Y-135847D01*
X-77571Y-122515D02*
X-67500Y-132586D01*
X-80500Y-115444D02*
Y-96500D01*
X-83500D02*
X-80500D01*
X-201789Y-105411D02*
Y-97904D01*
X-199775Y-110273D02*
X-197000Y-113048D01*
X-203470Y-115004D02*
Y-95000D01*
X-52320Y-148000D02*
Y-138435D01*
X-201171Y-132352D02*
X-200559Y-132964D01*
X-201789Y-146750D02*
Y-136332D01*
X-189344D01*
X-205355Y-134354D02*
X-204500Y-135209D01*
X-214000Y-110046D02*
X-212429Y-111617D01*
X-209500Y-140151D02*
Y-118688D01*
X-208000Y-143772D02*
X-205701Y-146071D01*
X-208001Y-143772D02*
X-208000Y-143772D01*
X-198630Y-149000D02*
X-191758D01*
X-188263Y-145392D02*
Y-140439D01*
X-187470Y-138522D02*
X-187469Y-138521D01*
X-182273Y-135847D02*
X-181452D01*
X-179893Y-135209D02*
X-177427Y-132743D01*
X-179913Y-135209D02*
X-179893D01*
X-187469Y-138521D02*
X-186578Y-137630D01*
X-182273Y-133403D02*
X-179913Y-131043D01*
X-177129Y-128259D02*
X-176844Y-128544D01*
X-174200Y-129519D02*
Y-129519D01*
X-174460Y-129531D02*
X-174460Y-129531D01*
X-192201Y-119908D02*
X-191048D01*
X-197727Y-134137D02*
X-195033D01*
X-203500Y-130662D02*
Y-128725D01*
X-201252Y-125794D02*
X-200248D01*
X-197766Y-124766D02*
X-196500Y-123500D01*
X-196897Y-135209D02*
X-192397D01*
X-185326Y-132280D02*
X-184088Y-131043D01*
X-190106Y-128709D02*
X-188263Y-126867D01*
X-190106Y-128710D02*
X-190106Y-128709D01*
X-171303Y-113104D02*
X-171016Y-113391D01*
X-171440Y-113048D02*
X-171438Y-113050D01*
X-171398Y-113312D02*
Y-113268D01*
X-179913Y-112948D02*
X-176825Y-109860D01*
X-170523Y-114582D02*
X-168543Y-116561D01*
X-170523Y-114582D02*
X-170523Y-114582D01*
X-168543Y-116561D02*
X-168542Y-116562D01*
X-164555Y-115787D02*
X-164500Y-115732D01*
X-171438Y-113050D02*
X-171428Y-113080D01*
X-175696Y-111515D02*
X-175696Y-111514D01*
X-178521Y-114340D02*
X-175696Y-111515D01*
X-177427Y-132743D02*
X-177426Y-132743D01*
X-178520Y-129651D02*
X-177263Y-130908D01*
X-172542Y-134137D02*
X-172156Y-134523D01*
X-172172Y-131629D02*
X-171586Y-131043D01*
X-171016Y-129667D02*
Y-129651D01*
X-174345Y-125475D02*
X-171614Y-128206D01*
X-174169Y-136835D02*
X-174169Y-136835D01*
X-174135Y-136916D02*
X-174135Y-136916D01*
X-174169Y-136835D02*
Y-136332D01*
Y-136835D02*
Y-136835D01*
X-175203Y-134523D02*
Y-133329D01*
X-174655Y-135847D02*
X-174169Y-136332D01*
X-73437Y-95500D02*
X-54000D01*
X-74437Y-96500D02*
X-73437Y-95500D01*
D57*
X-47500Y-148000D02*
X-47250Y-147750D01*
X-46810D01*
X-45560Y-146500D01*
X-45500D01*
D58*
X-105937Y-113508D02*
D03*
D59*
X-102000Y-138343D02*
D03*
D60*
X-214000Y-102172D02*
D03*
Y-110046D02*
D03*
Y-133668D02*
D03*
Y-117920D02*
D03*
Y-141542D02*
D03*
Y-125794D02*
D03*
D61*
X-147000Y-141043D02*
D03*
X-128500Y-131086D02*
D03*
Y-112156D02*
D03*
X-147000Y-103421D02*
D03*
D62*
X-83500Y-96500D02*
D03*
X-201000Y-96000D02*
D03*
X-203470Y-95000D02*
D03*
X-49180Y-138000D02*
D03*
X-52500D02*
D03*
X-78500Y-128000D02*
D03*
X-201789Y-146750D02*
D03*
X-207301Y-129656D02*
D03*
X-203470Y-115004D02*
D03*
X-201571Y-131388D02*
D03*
X-196200Y-132000D02*
D03*
X-197000Y-117920D02*
D03*
Y-113048D02*
D03*
X-193500Y-122247D02*
D03*
X-175483Y-109304D02*
D03*
X-171398Y-113312D02*
D03*
X-173378Y-114898D02*
D03*
X-169096Y-110500D02*
D03*
X-175737Y-111852D02*
D03*
X-173106Y-129022D02*
D03*
X-176739Y-134500D02*
D03*
X-167000Y-122500D02*
D03*
X-174260Y-131054D02*
D03*
X-174135Y-136916D02*
D03*
X-165000Y-112056D02*
D03*
D63*
X-192904Y-105411D02*
D03*
X-199318Y-105149D02*
D03*
X-178516Y-136916D02*
D03*
X-183000Y-138343D02*
D03*
X-184849Y-139915D02*
D03*
X-192500Y-145500D02*
D03*
X-196200Y-144500D02*
D03*
X-199948D02*
D03*
X-199800Y-141542D02*
D03*
Y-138343D02*
D03*
X-196200D02*
D03*
X-192500D02*
D03*
X-199000Y-130878D02*
D03*
X-202500Y-118520D02*
D03*
X-201500Y-123626D02*
D03*
X-199948Y-113938D02*
D03*
X-196200Y-105411D02*
D03*
X-199800Y-102081D02*
D03*
Y-99000D02*
D03*
X-196200D02*
D03*
X-192500D02*
D03*
X-176342Y-106864D02*
D03*
X-185480Y-102647D02*
D03*
X-186810Y-103421D02*
D03*
X-184088Y-104457D02*
D03*
X-175472Y-100500D02*
D03*
Y-103421D02*
D03*
X-182000Y-145500D02*
D03*
X-176000Y-144500D02*
D03*
X-175737Y-141542D02*
D03*
X-164888Y-138045D02*
D03*
X-158500Y-107000D02*
D03*
X-155000Y-112056D02*
D03*
X-153000Y-124647D02*
D03*
X-151842Y-121574D02*
D03*
X-154674Y-121839D02*
D03*
X-159882Y-126876D02*
D03*
X-157323Y-126856D02*
D03*
X-45500Y-146500D02*
D03*
X-58500Y-145000D02*
D03*
Y-139951D02*
D03*
Y-134500D02*
D03*
X-67500Y-145000D02*
D03*
Y-139951D02*
D03*
Y-134500D02*
D03*
X-63000Y-130486D02*
D03*
Y-113508D02*
D03*
X-58500Y-107000D02*
D03*
Y-102647D02*
D03*
Y-98500D02*
D03*
X-67500Y-107000D02*
D03*
Y-102647D02*
D03*
Y-98500D02*
D03*
X-182000Y-126876D02*
D03*
X-186876Y-122000D02*
D03*
X-182000Y-117124D02*
D03*
X-177124Y-122000D02*
D03*
X-182000D02*
D03*
M02*
