M48
;Layer_Color=9474304
;FILE_FORMAT=2:5
INCH,LZ
;TYPE=PLATED
T1F00S00C0.00787
T2F00S00C0.01181
T3F00S00C0.03543
T5F00S00C0.10236
%
T01
X-0201789Y-014675
X-0201571Y-0131388
X-01962Y-0132
X-01935Y-0122247
X-0197Y-011792
Y-0113048
X-020347Y-0115004
X-0207301Y-0129656
X-017426Y-0131054
X-0173106Y-0129022
X-0174135Y-0136916
X-0176739Y-01345
X-0167Y-01225
X-0165Y-0112056
X-0169096Y-01105
X-0171398Y-0113312
X-0173378Y-0114898
X-0175737Y-0111852
X-0175483Y-0109304
X-0201Y-0096
X-020347Y-0095
X-00835Y-00965
X-00785Y-0128
X-00525Y-0138
X-004918
T02
X-0199948Y-01445
X-01998Y-0141542
Y-0138343
X-01962
X-01925
Y-01455
X-01962Y-01445
X-0182Y-01455
X-0176Y-01445
X-0175737Y-0141542
X-0178516Y-0136916
X-0183Y-0138343
X-0184849Y-0139915
X-0182Y-0126876
Y-0122
X-0186876
X-0182Y-0117124
X-0177124Y-0122
X-0176342Y-0106864
X-0175472Y-0103421
Y-01005
X-018548Y-0102647
X-018681Y-0103421
X-0184088Y-0104457
X-0192904Y-0105411
X-01962
X-0199318Y-0105149
X-01998Y-0102081
Y-0099
X-01962
X-01925
X-0199948Y-0113938
X-02025Y-011852
X-02015Y-0123626
X-0199Y-0130878
X-0164888Y-0138045
X-0159882Y-0126876
X-0157323Y-0126856
X-0153Y-0124647
X-0151842Y-0121574
X-0154674Y-0121839
X-0155Y-0112056
X-01585Y-0107
X-00675
Y-0102647
Y-00985
X-00585
Y-0102647
Y-0107
X-0063Y-0113508
Y-0130486
X-00585Y-01345
Y-0139951
Y-0145
X-00675
Y-0139951
Y-01345
X-00455Y-01465
T03
X-0214Y-0141542
Y-0133668
Y-0125794
Y-011792
Y-0110046
Y-0102172
T05
X-0147Y-0141043
Y-0103421
X-01285Y-0112156
Y-0131086
M30
