G04*
G04 #@! TF.GenerationSoftware,Altium Limited,Altium Designer,20.1.11 (218)*
G04*
G04 Layer_Color=16711935*
%FSLAX25Y25*%
%MOIN*%
G70*
G04*
G04 #@! TF.SameCoordinates,9EE67B27-E454-41D5-82AA-807338E90DDB*
G04*
G04*
G04 #@! TF.FilePolarity,Negative*
G04*
G01*
G75*
G04:AMPARAMS|DCode=35|XSize=19.81mil|YSize=35.56mil|CornerRadius=0mil|HoleSize=0mil|Usage=FLASHONLY|Rotation=315.000|XOffset=0mil|YOffset=0mil|HoleType=Round|Shape=Rectangle|*
%AMROTATEDRECTD35*
4,1,4,-0.01958,-0.00557,0.00557,0.01958,0.01958,0.00557,-0.00557,-0.01958,-0.01958,-0.00557,0.0*
%
%ADD35ROTATEDRECTD35*%

G04:AMPARAMS|DCode=36|XSize=19.81mil|YSize=35.56mil|CornerRadius=0mil|HoleSize=0mil|Usage=FLASHONLY|Rotation=225.000|XOffset=0mil|YOffset=0mil|HoleType=Round|Shape=Rectangle|*
%AMROTATEDRECTD36*
4,1,4,-0.00557,0.01958,0.01958,-0.00557,0.00557,-0.01958,-0.01958,0.00557,-0.00557,0.01958,0.0*
%
%ADD36ROTATEDRECTD36*%

%ADD42R,0.04461X0.04658*%
%ADD43R,0.03800X0.03100*%
%ADD44R,0.05800X0.06800*%
%ADD45R,0.10839X0.07099*%
%ADD47R,0.03100X0.03800*%
G04:AMPARAMS|DCode=48|XSize=38mil|YSize=31mil|CornerRadius=0mil|HoleSize=0mil|Usage=FLASHONLY|Rotation=315.000|XOffset=0mil|YOffset=0mil|HoleType=Round|Shape=Rectangle|*
%AMROTATEDRECTD48*
4,1,4,-0.02439,0.00248,-0.00248,0.02439,0.02439,-0.00248,0.00248,-0.02439,-0.02439,0.00248,0.0*
%
%ADD48ROTATEDRECTD48*%

G04:AMPARAMS|DCode=52|XSize=283.59mil|YSize=165.48mil|CornerRadius=0mil|HoleSize=0mil|Usage=FLASHONLY|Rotation=90.000|XOffset=0mil|YOffset=0mil|HoleType=Round|Shape=Octagon|*
%AMOCTAGOND52*
4,1,8,0.04137,0.14179,-0.04137,0.14179,-0.08274,0.10043,-0.08274,-0.10043,-0.04137,-0.14179,0.04137,-0.14179,0.08274,-0.10043,0.08274,0.10043,0.04137,0.14179,0.0*
%
%ADD52OCTAGOND52*%

G04:AMPARAMS|DCode=53|XSize=283.59mil|YSize=165.48mil|CornerRadius=0mil|HoleSize=0mil|Usage=FLASHONLY|Rotation=0.000|XOffset=0mil|YOffset=0mil|HoleType=Round|Shape=Octagon|*
%AMOCTAGOND53*
4,1,8,0.14179,-0.04137,0.14179,0.04137,0.10043,0.08274,-0.10043,0.08274,-0.14179,0.04137,-0.14179,-0.04137,-0.10043,-0.08274,0.10043,-0.08274,0.14179,-0.04137,0.0*
%
%ADD53OCTAGOND53*%

%ADD54C,0.06706*%
%ADD55C,0.16800*%
%ADD78R,0.07493X0.04737*%
G04:AMPARAMS|DCode=79|XSize=38mil|YSize=31mil|CornerRadius=0mil|HoleSize=0mil|Usage=FLASHONLY|Rotation=45.000|XOffset=0mil|YOffset=0mil|HoleType=Round|Shape=Rectangle|*
%AMROTATEDRECTD79*
4,1,4,-0.00248,-0.02439,-0.02439,-0.00248,0.00248,0.02439,0.02439,0.00248,-0.00248,-0.02439,0.0*
%
%ADD79ROTATEDRECTD79*%

%ADD80R,0.02800X0.03300*%
%ADD81R,0.02572X0.02572*%
%ADD82R,0.10839X0.02989*%
%ADD83R,0.10839X0.04910*%
%ADD84P,0.16165X4X90.0*%
D35*
X-175732Y-117129D02*
D03*
X-174340Y-118520D02*
D03*
X-177124Y-115736D02*
D03*
X-172948Y-119913D02*
D03*
X-178515Y-114345D02*
D03*
X-179908Y-112953D02*
D03*
X-191043Y-124088D02*
D03*
X-184083Y-131048D02*
D03*
X-188259Y-126872D02*
D03*
X-189651Y-125480D02*
D03*
X-185475Y-129656D02*
D03*
X-186867Y-128264D02*
D03*
D36*
X-172948Y-124088D02*
D03*
X-174340Y-125480D02*
D03*
X-175732Y-126872D02*
D03*
X-177124Y-128264D02*
D03*
X-178516Y-129656D02*
D03*
X-179908Y-131047D02*
D03*
X-184083Y-112953D02*
D03*
X-185475Y-114345D02*
D03*
X-186868Y-115736D02*
D03*
X-188259Y-117129D02*
D03*
X-189651Y-118521D02*
D03*
X-191042Y-119913D02*
D03*
D42*
X-45500Y-143000D02*
D03*
X-51563D02*
D03*
X-46500Y-101000D02*
D03*
X-52563D02*
D03*
D43*
X-177700Y-137122D02*
D03*
X-183000D02*
D03*
X-194500Y-115736D02*
D03*
X-199800D02*
D03*
D44*
X-117500Y-117000D02*
D03*
Y-126000D02*
D03*
D45*
X-180720Y-102119D02*
D03*
X-194500D02*
D03*
D47*
X-186876Y-134615D02*
D03*
Y-139915D02*
D03*
D48*
X-191500Y-132000D02*
D03*
X-195248Y-128252D02*
D03*
D52*
X-105937Y-113508D02*
D03*
D53*
X-102000Y-138343D02*
D03*
D54*
X-214000Y-102172D02*
D03*
Y-110046D02*
D03*
Y-133668D02*
D03*
Y-117920D02*
D03*
Y-141542D02*
D03*
Y-125794D02*
D03*
D55*
X-147000Y-141043D02*
D03*
X-128500Y-131086D02*
D03*
Y-112156D02*
D03*
X-147000Y-103421D02*
D03*
D78*
X-53207Y-112157D02*
D03*
X-53206Y-131842D02*
D03*
X-78795Y-121994D02*
D03*
D79*
X-196200Y-120899D02*
D03*
X-199948Y-124647D02*
D03*
D80*
X-78794Y-98180D02*
D03*
Y-103000D02*
D03*
Y-141000D02*
D03*
Y-145820D02*
D03*
D81*
X-157323Y-124088D02*
D03*
X-162441Y-124088D02*
D03*
X-159882Y-124088D02*
D03*
X-157323Y-134915D02*
D03*
X-162441Y-134915D02*
D03*
X-159882D02*
D03*
X-165000Y-124088D02*
D03*
X-165000Y-134915D02*
D03*
X-157323Y-109085D02*
D03*
X-162441Y-109085D02*
D03*
X-159882Y-109085D02*
D03*
X-157323Y-119912D02*
D03*
X-162441Y-119912D02*
D03*
X-159882D02*
D03*
X-165000Y-109085D02*
D03*
X-165000Y-119912D02*
D03*
D82*
X-161162Y-126856D02*
D03*
X-161162Y-111854D02*
D03*
D83*
Y-131207D02*
D03*
Y-116204D02*
D03*
D84*
X-182000Y-122000D02*
D03*
M02*
