G04*
G04 #@! TF.GenerationSoftware,Altium Limited,Altium Designer,20.1.11 (218)*
G04*
G04 Layer_Color=65535*
%FSLAX25Y25*%
%MOIN*%
G70*
G04*
G04 #@! TF.SameCoordinates,67DEA893-D948-4B9D-9317-8289C47B3BC5*
G04*
G04*
G04 #@! TF.FilePolarity,Positive*
G04*
G01*
G75*
%ADD10C,0.01000*%
%ADD11C,0.02600*%
G36*
X158500Y-184000D02*
X137500D01*
Y-89000D01*
X158500D01*
Y-184000D01*
D02*
G37*
%LPC*%
G36*
X146532Y-97507D02*
X145592D01*
X145111Y-97529D01*
X144870D01*
X144695D01*
X144564D01*
X144542D01*
X144520D01*
X144149D01*
X143842Y-97551D01*
X143580D01*
X143383D01*
X143208D01*
X143099D01*
X143033D01*
X143011D01*
X142836Y-97573D01*
X142683Y-97595D01*
X142552Y-97639D01*
X142443Y-97704D01*
X142355Y-97770D01*
X142289Y-97814D01*
X142246Y-97835D01*
X142224Y-97857D01*
X142115Y-97989D01*
X142049Y-98120D01*
X141962Y-98404D01*
X141940Y-98514D01*
X141918Y-98601D01*
D01*
Y-98688D01*
X141940Y-98863D01*
X141962Y-99016D01*
X142005Y-99148D01*
X142071Y-99279D01*
X142136Y-99366D01*
X142180Y-99432D01*
X142202Y-99476D01*
X142224Y-99498D01*
X142355Y-99607D01*
X142486Y-99694D01*
X142618Y-99738D01*
X142727Y-99782D01*
X142836Y-99804D01*
X142924Y-99826D01*
X142989D01*
X143011D01*
X143208D01*
X143449D01*
X143930D01*
X144170Y-99804D01*
X144345D01*
X144476D01*
X144498D01*
X144520D01*
X144892D01*
X145198Y-99782D01*
X145461D01*
X145679D01*
X145833D01*
X145942D01*
X146007D01*
X146029D01*
X146314D01*
X146642Y-99804D01*
X146948D01*
X147232Y-99826D01*
X147473D01*
X147691Y-99848D01*
X147823D01*
X147845D01*
X147866D01*
X148260Y-99869D01*
X148632Y-99891D01*
X148938Y-99913D01*
X149222Y-99935D01*
X149441D01*
X149594D01*
X149682D01*
X149725D01*
X149900Y-99913D01*
X150053Y-99891D01*
X150185Y-99826D01*
X150294Y-99782D01*
X150381Y-99716D01*
X150469Y-99651D01*
X150491Y-99629D01*
X150513Y-99607D01*
X150622Y-99476D01*
X150709Y-99344D01*
X150753Y-99213D01*
X150797Y-99082D01*
X150819Y-98973D01*
X150841Y-98885D01*
Y-98798D01*
X150819Y-98623D01*
X150797Y-98448D01*
X150731Y-98317D01*
X150688Y-98185D01*
X150622Y-98098D01*
X150556Y-98032D01*
X150534Y-97989D01*
X150513Y-97967D01*
X150381Y-97857D01*
X150272Y-97792D01*
X150010Y-97704D01*
X149900Y-97682D01*
X149813Y-97660D01*
X149747D01*
X149725D01*
X149441D01*
X149113Y-97639D01*
X148807D01*
X148522Y-97617D01*
X148260Y-97595D01*
X148063D01*
X147910Y-97573D01*
X147888D01*
X147866D01*
X147473Y-97551D01*
X147123Y-97529D01*
X146795D01*
X146532Y-97507D01*
D02*
G37*
G36*
X154559D02*
Y-99060D01*
X154537Y-98863D01*
X154493Y-98688D01*
X154449Y-98535D01*
X154384Y-98404D01*
X154296Y-98295D01*
X154252Y-98207D01*
X154209Y-98163D01*
X154187Y-98142D01*
X154056Y-98010D01*
X153902Y-97923D01*
X153771Y-97857D01*
X153640Y-97814D01*
X153509Y-97792D01*
X153421Y-97770D01*
X153356D01*
X153334D01*
X153137Y-97792D01*
X152984Y-97835D01*
X152831Y-97879D01*
X152700Y-97967D01*
X152590Y-98032D01*
X152525Y-98076D01*
X152481Y-98120D01*
X152459Y-98142D01*
X152350Y-98295D01*
X152262Y-98448D01*
X152197Y-98601D01*
X152153Y-98754D01*
X152131Y-98863D01*
X152109Y-98973D01*
Y-99060D01*
X152131Y-99257D01*
X152175Y-99432D01*
X152218Y-99585D01*
X152284Y-99716D01*
X152350Y-99826D01*
X152415Y-99913D01*
X152437Y-99957D01*
X152459Y-99979D01*
X152590Y-100110D01*
X152743Y-100197D01*
X152896Y-100285D01*
X153028Y-100329D01*
X153159Y-100350D01*
X153246Y-100372D01*
X154559D01*
Y-97507D01*
D02*
G37*
G36*
X154865Y-101685D02*
X141480D01*
Y-115747D01*
D01*
Y-114522D01*
X141502Y-114697D01*
X141524Y-114850D01*
X141633Y-115113D01*
X141699Y-115222D01*
X141743Y-115288D01*
X141765Y-115331D01*
X141787Y-115353D01*
X141918Y-115485D01*
X142049Y-115572D01*
X142180Y-115659D01*
X142311Y-115703D01*
X142421Y-115725D01*
X142508Y-115747D01*
X141480D01*
X142661D01*
X142771Y-115725D01*
X142924Y-115681D01*
X143121Y-115638D01*
X143339Y-115572D01*
X143580Y-115506D01*
X144061Y-115375D01*
X144542Y-115244D01*
X144783Y-115178D01*
X144980Y-115113D01*
X145133Y-115069D01*
X145264Y-115025D01*
X145351Y-115003D01*
X145373D01*
X145854Y-114872D01*
X146357Y-114741D01*
X147385Y-114500D01*
X148391Y-114282D01*
X148872Y-114194D01*
X149332Y-114107D01*
X149769Y-114041D01*
X150163Y-113976D01*
X150513Y-113910D01*
X150819Y-113866D01*
X151059Y-113822D01*
X151256Y-113801D01*
X151366Y-113779D01*
X151409D01*
X151672Y-113735D01*
X151934Y-113713D01*
X152372Y-113647D01*
X152722Y-113582D01*
X153006Y-113516D01*
X153225Y-113472D01*
X153378Y-113429D01*
X153465Y-113407D01*
X153487D01*
X153727Y-113319D01*
X153946Y-113210D01*
X154121Y-113123D01*
X154274Y-112991D01*
X154427Y-112882D01*
X154537Y-112773D01*
X154690Y-112554D01*
X154799Y-112357D01*
X154843Y-112204D01*
X154865Y-112095D01*
Y-112051D01*
X154843Y-111876D01*
X154821Y-111723D01*
X154668Y-111439D01*
X154493Y-111198D01*
X154274Y-111001D01*
X154034Y-110870D01*
X153859Y-110761D01*
X153706Y-110695D01*
X153684Y-110673D01*
X153662D01*
X151759Y-110192D01*
X150688Y-109886D01*
X150163Y-109733D01*
X149682Y-109580D01*
X149200Y-109427D01*
X148763Y-109274D01*
X148347Y-109142D01*
X147954Y-109011D01*
X147604Y-108902D01*
X147298Y-108792D01*
X147013Y-108683D01*
X146795Y-108596D01*
X146598Y-108530D01*
X146467Y-108486D01*
X146379Y-108464D01*
X146357Y-108442D01*
X147276Y-108202D01*
X148129Y-107983D01*
X148544Y-107874D01*
X148938Y-107786D01*
X149288Y-107721D01*
X149616Y-107655D01*
X149922Y-107589D01*
X150206Y-107524D01*
X150447Y-107480D01*
X150644Y-107436D01*
X150797Y-107414D01*
X150928Y-107393D01*
X150994Y-107371D01*
X151016D01*
X151409Y-107305D01*
X151781Y-107240D01*
X152109Y-107174D01*
X152415Y-107108D01*
X152700Y-107043D01*
X152940Y-106977D01*
X153137Y-106933D01*
X153334Y-106890D01*
X153487Y-106846D01*
X153618Y-106802D01*
X153727Y-106758D01*
X153815Y-106737D01*
X153924Y-106693D01*
X153968Y-106671D01*
X154230Y-106518D01*
X154405Y-106343D01*
X154537Y-106146D01*
X154646Y-105971D01*
X154690Y-105818D01*
X154712Y-105687D01*
X154734Y-105599D01*
Y-105556D01*
X154712Y-105315D01*
X154646Y-105096D01*
X154537Y-104900D01*
X154449Y-104746D01*
X154340Y-104615D01*
X154230Y-104528D01*
X154165Y-104462D01*
X154143Y-104440D01*
X154012Y-104353D01*
X153881Y-104287D01*
X153531Y-104134D01*
X153137Y-104003D01*
X152743Y-103893D01*
X152393Y-103784D01*
X152218Y-103762D01*
X152087Y-103718D01*
X151978Y-103697D01*
X151891Y-103675D01*
X151825Y-103653D01*
X151803D01*
X151322Y-103565D01*
X150863Y-103456D01*
X150447Y-103369D01*
X150053Y-103303D01*
X149725Y-103237D01*
X149572Y-103216D01*
X149463Y-103194D01*
X149375Y-103172D01*
X149310D01*
X149266Y-103150D01*
X149244D01*
X149157Y-103128D01*
X149025Y-103084D01*
X148829Y-103041D01*
X148610Y-102975D01*
X148369Y-102909D01*
X148107Y-102844D01*
X147538Y-102669D01*
X146992Y-102516D01*
X146729Y-102450D01*
X146510Y-102384D01*
X146314Y-102341D01*
X146182Y-102297D01*
X146095Y-102253D01*
X146051D01*
X145351Y-102056D01*
X144717Y-101925D01*
X144170Y-101816D01*
X143908Y-101794D01*
X143689Y-101750D01*
X143492Y-101728D01*
X143296Y-101707D01*
X143142D01*
X143011Y-101685D01*
X154865D01*
D02*
G37*
G36*
X150797Y-116513D02*
Y-121499D01*
X150775Y-121127D01*
X150731Y-120755D01*
X150666Y-120405D01*
X150578Y-120077D01*
X150338Y-119487D01*
X150228Y-119224D01*
X150097Y-118962D01*
X149944Y-118743D01*
X149835Y-118546D01*
X149704Y-118371D01*
X149594Y-118240D01*
X149507Y-118131D01*
X149441Y-118043D01*
X149397Y-118000D01*
X149375Y-117978D01*
X149113Y-117715D01*
X148829Y-117497D01*
X148522Y-117300D01*
X148238Y-117125D01*
X147954Y-116994D01*
X147670Y-116862D01*
X147123Y-116687D01*
X146882Y-116644D01*
X146663Y-116600D01*
X146445Y-116556D01*
X146270Y-116534D01*
X146139Y-116513D01*
X145942D01*
X145548Y-116534D01*
X145198Y-116556D01*
X144870Y-116600D01*
X144542Y-116666D01*
X144258Y-116731D01*
X143995Y-116819D01*
X143755Y-116906D01*
X143558Y-117016D01*
X143361Y-117103D01*
X143208Y-117190D01*
X143055Y-117278D01*
X142946Y-117343D01*
X142858Y-117409D01*
X142792Y-117453D01*
X142771Y-117497D01*
X142749D01*
X142574Y-117693D01*
X142399Y-117912D01*
X142136Y-118393D01*
X141962Y-118896D01*
X141830Y-119377D01*
X141765Y-119815D01*
X141721Y-120012D01*
Y-120165D01*
X141699Y-120296D01*
Y-120493D01*
X141721Y-120821D01*
X141808Y-121149D01*
X141830Y-121280D01*
X141874Y-121389D01*
X141896Y-121455D01*
Y-121477D01*
X142071Y-121936D01*
X142158Y-122155D01*
X142224Y-122374D01*
X142311Y-122549D01*
X142377Y-122680D01*
X142399Y-122789D01*
X142421Y-122811D01*
X142180Y-123095D01*
X142005Y-123358D01*
X141874Y-123555D01*
X141787Y-123730D01*
X141743Y-123861D01*
X141721Y-123970D01*
X141699Y-124014D01*
Y-124036D01*
X141721Y-124189D01*
X141743Y-124342D01*
X141852Y-124583D01*
X141896Y-124670D01*
X141940Y-124736D01*
X141962Y-124779D01*
X141983Y-124801D01*
X142093Y-124910D01*
X142224Y-124998D01*
X142333Y-125064D01*
X142443Y-125107D01*
X142552Y-125129D01*
X142640Y-125151D01*
X141699D01*
X150797D01*
Y-116513D01*
D02*
G37*
G36*
X150644Y-125632D02*
Y-130859D01*
X150622Y-130422D01*
X150578Y-130006D01*
X150513Y-129613D01*
X150425Y-129241D01*
X150316Y-128891D01*
X150185Y-128585D01*
X150053Y-128279D01*
X149922Y-128016D01*
X149791Y-127797D01*
X149660Y-127579D01*
X149529Y-127404D01*
X149419Y-127272D01*
X149332Y-127163D01*
X149266Y-127076D01*
X149222Y-127032D01*
X149200Y-127010D01*
X148938Y-126769D01*
X148632Y-126573D01*
X148347Y-126376D01*
X148041Y-126223D01*
X147735Y-126092D01*
X147429Y-125982D01*
X146860Y-125829D01*
X146576Y-125763D01*
X146335Y-125720D01*
X146117Y-125698D01*
X145920Y-125676D01*
X145767Y-125654D01*
X145658D01*
X145570D01*
X145548D01*
X145242Y-125676D01*
X144958Y-125698D01*
X144411Y-125807D01*
X143952Y-125982D01*
X143558Y-126157D01*
X143252Y-126332D01*
X143121Y-126420D01*
X143011Y-126507D01*
X142924Y-126573D01*
X142858Y-126616D01*
X142836Y-126660D01*
X142814D01*
X142618Y-126857D01*
X142464Y-127076D01*
X142311Y-127294D01*
X142202Y-127513D01*
X142005Y-127951D01*
X141874Y-128388D01*
X141808Y-128760D01*
X141787Y-128913D01*
X141765Y-129066D01*
X141743Y-129175D01*
Y-129328D01*
X141787Y-129788D01*
X141808Y-129984D01*
X141852Y-130138D01*
X141896Y-130291D01*
X141918Y-130400D01*
X141962Y-130465D01*
Y-130487D01*
X142049Y-130684D01*
X142136Y-130859D01*
X142246Y-131034D01*
X142355Y-131165D01*
X142443Y-131275D01*
X142530Y-131384D01*
X142574Y-131428D01*
X142596Y-131450D01*
X142049Y-131384D01*
X141568Y-131297D01*
X141152Y-131187D01*
X140846Y-131078D01*
X140584Y-130968D01*
X140409Y-130859D01*
X140321Y-130794D01*
X140278Y-130772D01*
X140015Y-130531D01*
X139840Y-130247D01*
X139709Y-129941D01*
X139600Y-129656D01*
X139556Y-129372D01*
X139534Y-129153D01*
X139512Y-129066D01*
Y-128956D01*
X139534Y-128541D01*
X139556Y-128344D01*
X139600Y-128147D01*
X139621Y-127972D01*
X139643Y-127841D01*
X139665Y-127754D01*
Y-127732D01*
X139709Y-127491D01*
X139753Y-127272D01*
X139775Y-127076D01*
Y-126944D01*
X139796Y-126813D01*
Y-126507D01*
X139753Y-126354D01*
X139665Y-126113D01*
X139621Y-126026D01*
X139578Y-125960D01*
X139556Y-125938D01*
X139534Y-125917D01*
X139425Y-125829D01*
X139293Y-125763D01*
X139053Y-125676D01*
X138943Y-125654D01*
X138878Y-125632D01*
X138790D01*
X138572Y-125676D01*
X138375Y-125763D01*
X138200Y-125938D01*
X138047Y-126135D01*
X137916Y-126376D01*
X137806Y-126638D01*
X137653Y-127229D01*
X137566Y-127819D01*
X137544Y-128082D01*
X137522Y-128322D01*
X137500Y-128541D01*
Y-128388D01*
Y-130203D01*
Y-128825D01*
X137522Y-129328D01*
X137566Y-129788D01*
X137653Y-130203D01*
X137762Y-130597D01*
X137872Y-130947D01*
X138003Y-131253D01*
X138156Y-131537D01*
X138309Y-131778D01*
X138462Y-131996D01*
X138615Y-132193D01*
X138747Y-132346D01*
X138856Y-132456D01*
X138965Y-132565D01*
X139053Y-132631D01*
X139096Y-132652D01*
X139118Y-132674D01*
X139359Y-132827D01*
X139643Y-132937D01*
X140234Y-133156D01*
X140890Y-133309D01*
X141524Y-133418D01*
X141808Y-133462D01*
X142093Y-133505D01*
X142333Y-133527D01*
X142552Y-133549D01*
X142727D01*
X142880Y-133571D01*
X142967D01*
X142989D01*
X143799Y-133615D01*
X144542Y-133659D01*
X145242Y-133724D01*
X145570Y-133768D01*
X145854Y-133812D01*
X146139Y-133834D01*
X146379Y-133877D01*
X146576Y-133899D01*
X146773Y-133921D01*
X146904Y-133965D01*
X147013D01*
X147079Y-133987D01*
X147101D01*
X147451Y-134052D01*
X147757Y-134096D01*
X148020Y-134118D01*
X148238Y-134140D01*
X148391Y-134162D01*
X137500D01*
X150644D01*
Y-125632D01*
D02*
G37*
G36*
X150906Y-142013D02*
Y-143194D01*
X150884Y-143019D01*
X150863Y-142866D01*
X150753Y-142603D01*
X150688Y-142516D01*
X150622Y-142428D01*
X150600Y-142385D01*
X150578Y-142363D01*
X150469Y-142253D01*
X150338Y-142166D01*
X150206Y-142100D01*
X150097Y-142057D01*
X149988Y-142035D01*
X149900Y-142013D01*
X150906D01*
X141830D01*
X149835D01*
X149660Y-142035D01*
X149507Y-142057D01*
X149397Y-142078D01*
X149375Y-142100D01*
X149354D01*
X148544Y-142428D01*
X147801Y-142756D01*
X147101Y-143041D01*
X146445Y-143325D01*
X145833Y-143566D01*
X145286Y-143784D01*
X144805Y-144003D01*
X144345Y-144178D01*
X143974Y-144331D01*
X143624Y-144484D01*
X143339Y-144594D01*
X143099Y-144681D01*
X142924Y-144769D01*
X142792Y-144812D01*
X142705Y-144856D01*
X142683D01*
X142399Y-145009D01*
X142180Y-145184D01*
X142049Y-145359D01*
X141940Y-145556D01*
X141874Y-145731D01*
X141852Y-145884D01*
X141830Y-145971D01*
Y-146015D01*
X141852Y-146168D01*
X141874Y-146321D01*
X141962Y-146562D01*
X142005Y-146649D01*
X142049Y-146715D01*
X142093Y-146737D01*
Y-146759D01*
X142202Y-146868D01*
X142311Y-146934D01*
X142530Y-147043D01*
X142618Y-147087D01*
X142705Y-147109D01*
X142749D01*
X142771D01*
X143033Y-147240D01*
X143296Y-147371D01*
X143886Y-147634D01*
X144520Y-147918D01*
X145111Y-148202D01*
X145395Y-148333D01*
X145658Y-148443D01*
X145876Y-148552D01*
X146095Y-148640D01*
X146248Y-148705D01*
X146379Y-148771D01*
X146467Y-148793D01*
X146489Y-148814D01*
X147013Y-149055D01*
X147495Y-149252D01*
X147888Y-149449D01*
X148260Y-149602D01*
X148566Y-149733D01*
X148829Y-149842D01*
X149069Y-149930D01*
X149244Y-149995D01*
X149397Y-150061D01*
X149507Y-150105D01*
X149616Y-150127D01*
X149682Y-150148D01*
X149747Y-150170D01*
X141830D01*
X149769D01*
X149944Y-150148D01*
X150075Y-150105D01*
X150316Y-149995D01*
X150403Y-149908D01*
X150491Y-149864D01*
X150513Y-149820D01*
X150534Y-149799D01*
X150644Y-149667D01*
X150709Y-149514D01*
X150797Y-149252D01*
X150819Y-149143D01*
X150841Y-149055D01*
Y-148968D01*
X150819Y-148727D01*
X150731Y-148530D01*
X150622Y-148355D01*
X150513Y-148202D01*
X150381Y-148093D01*
X150272Y-148027D01*
X150185Y-147983D01*
X150163Y-147961D01*
X149769Y-147787D01*
X149397Y-147634D01*
X149113Y-147502D01*
X148851Y-147415D01*
X148654Y-147327D01*
X148501Y-147283D01*
X148413Y-147262D01*
X148391Y-147240D01*
X148041Y-147109D01*
X147713Y-146977D01*
X147429Y-146846D01*
X147145Y-146737D01*
X146882Y-146627D01*
X146663Y-146518D01*
X146445Y-146431D01*
X146248Y-146343D01*
X146095Y-146277D01*
X145942Y-146212D01*
X145833Y-146168D01*
X145723Y-146124D01*
X145658Y-146081D01*
X145592Y-146059D01*
X145570Y-146037D01*
X145548D01*
X146204Y-145796D01*
X146817Y-145578D01*
X147363Y-145359D01*
X147845Y-145184D01*
X148282Y-145009D01*
X148654Y-144878D01*
X149004Y-144747D01*
X149288Y-144615D01*
X149529Y-144528D01*
X149747Y-144440D01*
X149900Y-144375D01*
X150031Y-144309D01*
X150141Y-144265D01*
X150206Y-144244D01*
X150228Y-144222D01*
X150250D01*
X150469Y-144090D01*
X150622Y-143916D01*
X150753Y-143763D01*
X150819Y-143588D01*
X150863Y-143434D01*
X150906Y-143303D01*
Y-149252D01*
Y-142013D01*
D02*
G37*
G36*
X155062Y-152029D02*
D01*
Y-155725D01*
X155040Y-155507D01*
X154996Y-155288D01*
X154909Y-155091D01*
X154843Y-154894D01*
X154755Y-154741D01*
X154668Y-154632D01*
X154624Y-154544D01*
X154602Y-154523D01*
X153793Y-153516D01*
X153115Y-152598D01*
X152940Y-152423D01*
X152765Y-152292D01*
X152612Y-152182D01*
X152459Y-152117D01*
X152350Y-152073D01*
X152262Y-152051D01*
X152197D01*
X152175D01*
X152022Y-152073D01*
X151869Y-152095D01*
X151628Y-152226D01*
X151541Y-152270D01*
X151475Y-152336D01*
X151431Y-152357D01*
X151409Y-152379D01*
X151300Y-152510D01*
X151213Y-152664D01*
X151169Y-152795D01*
X151125Y-152926D01*
X151103Y-153035D01*
X151081Y-153123D01*
Y-153188D01*
X151103Y-153298D01*
X151147Y-153429D01*
X151234Y-153582D01*
X151322Y-153735D01*
X151409Y-153888D01*
X151497Y-154019D01*
X151541Y-154107D01*
X151562Y-154129D01*
X144236D01*
Y-153757D01*
X144214Y-153451D01*
X144192Y-153188D01*
X144127Y-152948D01*
X144061Y-152751D01*
X143974Y-152598D01*
X143886Y-152445D01*
X143777Y-152336D01*
X143689Y-152248D01*
X143471Y-152117D01*
X143296Y-152051D01*
X143164Y-152029D01*
X143121D01*
X142946Y-152051D01*
X142814Y-152095D01*
X142683Y-152182D01*
X142574Y-152270D01*
X142399Y-152510D01*
X142289Y-152817D01*
X142202Y-153101D01*
X142180Y-153341D01*
X142158Y-153429D01*
Y-156863D01*
X142180Y-157038D01*
X142202Y-157191D01*
X142246Y-157322D01*
X142311Y-157453D01*
X142355Y-157541D01*
X142399Y-157606D01*
X142421Y-157650D01*
X142443Y-157672D01*
X142574Y-157781D01*
X142683Y-157869D01*
X142814Y-157912D01*
X142946Y-157956D01*
X143055Y-157978D01*
X143142Y-158000D01*
X143208D01*
X143383Y-157978D01*
X143514Y-157956D01*
X143755Y-157847D01*
X143842Y-157781D01*
X143930Y-157715D01*
X143952Y-157694D01*
X143974Y-157672D01*
X144083Y-157541D01*
X144149Y-157409D01*
X144236Y-157147D01*
X144258Y-157038D01*
X144280Y-156950D01*
Y-156316D01*
X146270D01*
X146882D01*
X147451D01*
X147976D01*
X148479Y-156338D01*
X148938D01*
X149354D01*
X149725D01*
X150075Y-156360D01*
X150381D01*
X150644D01*
X150863D01*
X151059Y-156381D01*
X151191D01*
X151300D01*
X151366D01*
X151387D01*
X152022Y-156403D01*
X152568Y-156425D01*
X153050Y-156447D01*
X153443Y-156469D01*
X153749D01*
X153881D01*
X153990D01*
X154056D01*
X154121D01*
X154165D01*
X154471Y-156447D01*
X154690Y-156360D01*
X154843Y-156228D01*
X154952Y-156097D01*
X155018Y-155966D01*
X155040Y-155835D01*
X155062Y-155747D01*
Y-158000D01*
D01*
Y-152029D01*
D02*
G37*
G36*
X143558Y-162680D02*
X142399D01*
X142246Y-162702D01*
X142115Y-162746D01*
X141874Y-162877D01*
X141787Y-162943D01*
X141721Y-163008D01*
X141677Y-163052D01*
X141655Y-163074D01*
X141546Y-163227D01*
X141458Y-163402D01*
X141393Y-163555D01*
X141349Y-163708D01*
X141327Y-163839D01*
X141305Y-163949D01*
Y-162680D01*
D01*
Y-165392D01*
Y-164036D01*
X141327Y-164233D01*
X141371Y-164408D01*
X141415Y-164583D01*
X141480Y-164714D01*
X141546Y-164823D01*
X141612Y-164911D01*
X141633Y-164954D01*
X141655Y-164976D01*
X141787Y-165108D01*
X141918Y-165217D01*
X142027Y-165283D01*
X142158Y-165348D01*
X142246Y-165370D01*
X142333Y-165392D01*
X141305D01*
X143558D01*
X142399D01*
X142574Y-165370D01*
X142727Y-165326D01*
X142858Y-165261D01*
X142989Y-165195D01*
X143077Y-165129D01*
X143142Y-165064D01*
X143186Y-165020D01*
X143208Y-164998D01*
X143317Y-164845D01*
X143405Y-164692D01*
X143471Y-164539D01*
X143514Y-164386D01*
X143536Y-164233D01*
X143558Y-164145D01*
Y-164036D01*
X143536Y-163839D01*
X143492Y-163664D01*
X143449Y-163489D01*
X143383Y-163358D01*
X143296Y-163227D01*
X143252Y-163139D01*
X143208Y-163096D01*
X143186Y-163074D01*
X143055Y-162943D01*
X142924Y-162855D01*
X142792Y-162768D01*
X142661Y-162724D01*
X142552Y-162702D01*
X142464Y-162680D01*
X143558D01*
D02*
G37*
G36*
X143164Y-169722D02*
X143121D01*
X142946Y-169744D01*
X142814Y-169788D01*
X142683Y-169875D01*
X142574Y-169963D01*
X142399Y-170203D01*
X142289Y-170510D01*
X142202Y-170794D01*
X142180Y-171034D01*
X142158Y-171122D01*
Y-169722D01*
Y-175693D01*
Y-174555D01*
X142180Y-174730D01*
X142202Y-174883D01*
X142246Y-175015D01*
X142311Y-175146D01*
X142355Y-175233D01*
X142399Y-175299D01*
X142421Y-175343D01*
X142443Y-175365D01*
X142574Y-175474D01*
X142683Y-175561D01*
X142814Y-175605D01*
X142946Y-175649D01*
X143055Y-175671D01*
X143142Y-175693D01*
X143208D01*
X143383Y-175671D01*
X143514Y-175649D01*
X143755Y-175540D01*
X143842Y-175474D01*
X143930Y-175408D01*
X143952Y-175387D01*
X143974Y-175365D01*
X144083Y-175233D01*
X144149Y-175102D01*
X144236Y-174840D01*
X144258Y-174730D01*
X144280Y-174643D01*
Y-174009D01*
X146270D01*
X146882D01*
X147451D01*
X147976D01*
X148479Y-174031D01*
X148938D01*
X149354D01*
X149725D01*
X150075Y-174052D01*
X150381D01*
X150644D01*
X150863D01*
X151059Y-174074D01*
X151191D01*
X151300D01*
X151366D01*
X151387D01*
X152022Y-174096D01*
X152568Y-174118D01*
X153050Y-174140D01*
X153443Y-174162D01*
X153749D01*
X153881D01*
X153990D01*
X154056D01*
X154121D01*
X154165D01*
X154471Y-174140D01*
X154690Y-174052D01*
X154843Y-173921D01*
X154952Y-173790D01*
X155018Y-173659D01*
X155040Y-173528D01*
X155062Y-173440D01*
Y-173418D01*
X155040Y-173199D01*
X154996Y-172981D01*
X154909Y-172784D01*
X154843Y-172587D01*
X154755Y-172434D01*
X154668Y-172325D01*
X154624Y-172237D01*
X154602Y-172215D01*
X153793Y-171209D01*
X153115Y-170291D01*
X152940Y-170116D01*
X152765Y-169985D01*
X152612Y-169875D01*
X152459Y-169810D01*
X152350Y-169766D01*
X152262Y-169744D01*
X152197D01*
X152175D01*
X152022Y-169766D01*
X151869Y-169788D01*
X151628Y-169919D01*
X151541Y-169963D01*
X151475Y-170028D01*
X151431Y-170050D01*
X151409Y-170072D01*
X151300Y-170203D01*
X151213Y-170356D01*
X151169Y-170488D01*
X151125Y-170619D01*
X151103Y-170728D01*
X151081Y-170816D01*
Y-170881D01*
X151103Y-170991D01*
X151147Y-171122D01*
X151234Y-171275D01*
X151322Y-171428D01*
X151409Y-171581D01*
X151497Y-171712D01*
X151541Y-171800D01*
X151562Y-171822D01*
X144236D01*
Y-171450D01*
X144214Y-171144D01*
X144192Y-170881D01*
X144127Y-170641D01*
X144061Y-170444D01*
X143974Y-170291D01*
X143886Y-170138D01*
X143777Y-170028D01*
X143689Y-169941D01*
X143471Y-169810D01*
X143296Y-169744D01*
X143164Y-169722D01*
D02*
G37*
%LPD*%
G36*
X154559Y-100372D02*
X153334D01*
X153509Y-100350D01*
X153684Y-100307D01*
X153815Y-100241D01*
X153946Y-100176D01*
X154056Y-100110D01*
X154121Y-100044D01*
X154165Y-100001D01*
X154187Y-99979D01*
X154318Y-99826D01*
X154405Y-99673D01*
X154471Y-99519D01*
X154515Y-99366D01*
X154537Y-99257D01*
X154559Y-99148D01*
Y-100372D01*
D02*
G37*
G36*
X142596Y-101707D02*
X142464Y-101728D01*
X142224Y-101816D01*
X142136Y-101860D01*
X142071Y-101903D01*
X142027Y-101947D01*
X142005D01*
X141874Y-102078D01*
X141787Y-102231D01*
X141699Y-102384D01*
X141655Y-102516D01*
X141633Y-102647D01*
X141612Y-102756D01*
Y-102844D01*
X141633Y-103019D01*
X141655Y-103172D01*
X141787Y-103434D01*
X141983Y-103653D01*
X142202Y-103828D01*
X142399Y-103959D01*
X142596Y-104047D01*
X142727Y-104090D01*
X142749Y-104112D01*
X142771D01*
X143121Y-104156D01*
X143449Y-104221D01*
X143777Y-104265D01*
X144061Y-104309D01*
X144280Y-104353D01*
X144476Y-104375D01*
X144586Y-104396D01*
X144630D01*
X145133Y-104528D01*
X145592Y-104637D01*
X146007Y-104746D01*
X146401Y-104856D01*
X146773Y-104943D01*
X147101Y-105031D01*
X147407Y-105096D01*
X147691Y-105184D01*
X147910Y-105249D01*
X148129Y-105293D01*
X148304Y-105337D01*
X148435Y-105381D01*
X148544Y-105403D01*
X148632Y-105424D01*
X148676Y-105446D01*
X148697D01*
X147845Y-105643D01*
X147013Y-105840D01*
X146248Y-106037D01*
X145920Y-106146D01*
X145592Y-106234D01*
X145286Y-106299D01*
X145023Y-106387D01*
X144805Y-106452D01*
X144608Y-106496D01*
X144455Y-106540D01*
X144323Y-106583D01*
X144258Y-106605D01*
X144236D01*
X142705Y-107087D01*
X142399Y-107261D01*
X142180Y-107436D01*
X142005Y-107633D01*
X141896Y-107830D01*
X141830Y-108005D01*
X141808Y-108136D01*
X141787Y-108224D01*
Y-108267D01*
X141830Y-108552D01*
X141918Y-108792D01*
X142027Y-109011D01*
X142180Y-109186D01*
X142311Y-109317D01*
X142443Y-109405D01*
X142530Y-109470D01*
X142552Y-109492D01*
X142771Y-109623D01*
X143011Y-109733D01*
X143274Y-109842D01*
X143492Y-109930D01*
X143711Y-110017D01*
X143864Y-110083D01*
X143974Y-110105D01*
X144017Y-110126D01*
X145548Y-110608D01*
X145986Y-110761D01*
X146379Y-110914D01*
X146751Y-111045D01*
X147101Y-111176D01*
X147407Y-111285D01*
X147691Y-111395D01*
X147954Y-111482D01*
X148173Y-111570D01*
X148391Y-111635D01*
X148544Y-111701D01*
X148697Y-111745D01*
X148829Y-111788D01*
X148916Y-111810D01*
X148982Y-111832D01*
X149004Y-111854D01*
X149025D01*
X148522Y-111942D01*
X148041Y-112029D01*
X147604Y-112095D01*
X147188Y-112182D01*
X146817Y-112248D01*
X146467Y-112335D01*
X146139Y-112401D01*
X145854Y-112445D01*
X145592Y-112510D01*
X145373Y-112554D01*
X145198Y-112598D01*
X145045Y-112642D01*
X144914Y-112663D01*
X144826Y-112685D01*
X144783Y-112707D01*
X144761D01*
X142749Y-113188D01*
X142530Y-113276D01*
X142333Y-113363D01*
X142158Y-113472D01*
X142027Y-113582D01*
X141896Y-113691D01*
X141787Y-113801D01*
X141633Y-114019D01*
X141546Y-114216D01*
X141502Y-114369D01*
X141480Y-114479D01*
Y-101685D01*
X142771D01*
X142596Y-101707D01*
D02*
G37*
G36*
X146314Y-118852D02*
X146707Y-118940D01*
X147057Y-119071D01*
X147342Y-119224D01*
X147604Y-119377D01*
X147779Y-119509D01*
X147888Y-119596D01*
X147932Y-119640D01*
X148238Y-119968D01*
X148457Y-120318D01*
X148610Y-120646D01*
X148719Y-120952D01*
X148785Y-121214D01*
X148807Y-121411D01*
X148829Y-121499D01*
Y-121608D01*
X148807Y-121761D01*
X148785Y-121805D01*
Y-121827D01*
X148741Y-121936D01*
X148697Y-122024D01*
X148676Y-122111D01*
X148654Y-122133D01*
X148369Y-122089D01*
X148107Y-122046D01*
X148020D01*
X147954Y-122024D01*
X147910D01*
X147888D01*
X147648Y-122002D01*
X147451D01*
X147320D01*
X147298D01*
X147276D01*
X147079D01*
X146882Y-122024D01*
X146401Y-122046D01*
X145920Y-122089D01*
X145439Y-122133D01*
X145001Y-122177D01*
X144805D01*
X144651Y-122199D01*
X144520Y-122221D01*
X144411Y-122242D01*
X144345D01*
X144323D01*
X144105Y-121936D01*
X143952Y-121652D01*
X143886Y-121543D01*
X143864Y-121455D01*
X143820Y-121389D01*
Y-121368D01*
X143733Y-121018D01*
X143689Y-120712D01*
X143667Y-120580D01*
Y-120383D01*
X143689Y-120099D01*
X143755Y-119859D01*
X143842Y-119662D01*
X143952Y-119509D01*
X144039Y-119377D01*
X144127Y-119268D01*
X144192Y-119224D01*
X144214Y-119202D01*
X144455Y-119071D01*
X144717Y-118984D01*
X145001Y-118896D01*
X145264Y-118852D01*
X145526Y-118831D01*
X145723Y-118809D01*
X145854D01*
X145876D01*
X145898D01*
X146314Y-118852D01*
D02*
G37*
G36*
X150797Y-125151D02*
X142705D01*
X142771Y-125129D01*
X142858Y-125107D01*
X142989Y-125042D01*
X143142Y-124998D01*
X143274Y-124932D01*
X143383Y-124867D01*
X143471Y-124845D01*
X143492Y-124823D01*
X143755Y-124714D01*
X143952Y-124626D01*
X144105Y-124561D01*
X144214Y-124517D01*
X144280Y-124473D01*
X144323Y-124451D01*
X144345D01*
X144651Y-124386D01*
X145001Y-124320D01*
X145373Y-124276D01*
X145745Y-124254D01*
X146073D01*
X146226Y-124233D01*
X146335D01*
X146445D01*
X146532D01*
X146576D01*
X146598D01*
X146838D01*
X147057D01*
X147254Y-124254D01*
X147429D01*
X147560D01*
X147670Y-124276D01*
X147735D01*
X147757D01*
X148107Y-124320D01*
X148238D01*
X148369Y-124342D01*
X148457Y-124364D01*
X148522Y-124386D01*
X148566D01*
X148588D01*
X148763Y-124495D01*
X148938Y-124561D01*
X149069Y-124583D01*
X149091D01*
X149113D01*
X149244Y-124561D01*
X149375Y-124539D01*
X149485Y-124473D01*
X149594Y-124386D01*
X149813Y-124189D01*
X149988Y-123948D01*
X150141Y-123708D01*
X150250Y-123511D01*
X150294Y-123423D01*
X150316Y-123380D01*
X150338Y-123336D01*
Y-123314D01*
X150491Y-122942D01*
X150600Y-122592D01*
X150688Y-122286D01*
X150731Y-122024D01*
X150775Y-121805D01*
X150797Y-121630D01*
Y-125151D01*
D02*
G37*
G36*
X146139Y-127951D02*
X146554Y-128038D01*
X146926Y-128147D01*
X147232Y-128279D01*
X147495Y-128388D01*
X147670Y-128497D01*
X147779Y-128585D01*
X147823Y-128607D01*
X147998Y-128760D01*
X148129Y-128935D01*
X148369Y-129285D01*
X148544Y-129634D01*
X148654Y-129984D01*
X148719Y-130291D01*
X148741Y-130553D01*
X148763Y-130640D01*
Y-130772D01*
X148741Y-130968D01*
X148719Y-131143D01*
X148697Y-131253D01*
X148676Y-131275D01*
Y-131297D01*
X148588Y-131515D01*
X148522Y-131690D01*
X148435Y-131822D01*
X148413Y-131843D01*
Y-131865D01*
X147823Y-131778D01*
X147320Y-131712D01*
X146882Y-131647D01*
X146554Y-131603D01*
X146270Y-131559D01*
X146095Y-131515D01*
X145986Y-131493D01*
X145942D01*
X145679Y-131428D01*
X145417Y-131340D01*
X145155Y-131231D01*
X144936Y-131100D01*
X144761Y-130968D01*
X144608Y-130859D01*
X144520Y-130772D01*
X144476Y-130750D01*
X144214Y-130487D01*
X144017Y-130247D01*
X143886Y-130028D01*
X143799Y-129809D01*
X143733Y-129634D01*
X143711Y-129503D01*
X143689Y-129416D01*
Y-129394D01*
X143711Y-129131D01*
X143755Y-128913D01*
X143842Y-128716D01*
X143930Y-128563D01*
X144017Y-128432D01*
X144105Y-128344D01*
X144149Y-128300D01*
X144170Y-128279D01*
X144389Y-128169D01*
X144608Y-128082D01*
X144870Y-128016D01*
X145111Y-127972D01*
X145329Y-127951D01*
X145504Y-127929D01*
X145614D01*
X145658D01*
X146139Y-127951D01*
D02*
G37*
G36*
X150644Y-134162D02*
X148632D01*
X148829Y-134140D01*
X149004Y-134118D01*
X149288Y-134009D01*
X149507Y-133834D01*
X149660Y-133637D01*
X149769Y-133440D01*
X149813Y-133287D01*
X149856Y-133156D01*
Y-133112D01*
X150119Y-132827D01*
X150294Y-132521D01*
X150360Y-132390D01*
X150403Y-132281D01*
X150447Y-132215D01*
Y-132193D01*
X150556Y-131756D01*
X150600Y-131515D01*
X150622Y-131318D01*
X150644Y-131122D01*
Y-134162D01*
D02*
G37*
D10*
X-160519Y-19148D02*
X-159639Y-19733D01*
X-158649Y-20101D01*
X-157600Y-20233D01*
X-156550Y-20120D01*
X-155553Y-19770D01*
X-154663Y-19200D01*
X-154607Y-8052D02*
X-155487Y-7467D01*
X-156477Y-7099D01*
X-157526Y-6967D01*
X-158576Y-7080D01*
X-159573Y-7430D01*
X-160463Y-8000D01*
X-322044Y-7852D02*
X-322924Y-7267D01*
X-323914Y-6899D01*
X-324963Y-6767D01*
X-326013Y-6880D01*
X-327010Y-7230D01*
X-327900Y-7800D01*
X-327956Y-18948D02*
X-327076Y-19533D01*
X-326086Y-19901D01*
X-325037Y-20033D01*
X-323987Y-19920D01*
X-322990Y-19570D01*
X-322100Y-19000D01*
X-39956Y-19648D02*
X-39076Y-20233D01*
X-38086Y-20601D01*
X-37037Y-20733D01*
X-35987Y-20620D01*
X-34990Y-20270D01*
X-34100Y-19700D01*
X-34044Y-8552D02*
X-34924Y-7967D01*
X-35914Y-7599D01*
X-36963Y-7467D01*
X-38013Y-7580D01*
X-39010Y-7930D01*
X-39900Y-8500D01*
X322544Y-19648D02*
X323424Y-20233D01*
X324414Y-20601D01*
X325463Y-20733D01*
X326513Y-20620D01*
X327510Y-20270D01*
X328400Y-19700D01*
X328456Y-8552D02*
X327576Y-7967D01*
X326586Y-7599D01*
X325537Y-7467D01*
X324487Y-7580D01*
X323490Y-7930D01*
X322600Y-8500D01*
X161519Y-8352D02*
X160639Y-7767D01*
X159649Y-7399D01*
X158600Y-7267D01*
X157550Y-7380D01*
X156553Y-7730D01*
X155663Y-8300D01*
X155607Y-19448D02*
X156487Y-20033D01*
X157477Y-20401D01*
X158526Y-20533D01*
X159576Y-20420D01*
X160573Y-20070D01*
X161463Y-19500D01*
X-27000Y-31280D02*
Y3720D01*
X23000Y-31280D02*
Y3720D01*
X-37000D02*
X23000D01*
X-37000Y-31280D02*
X23000D01*
X-37000D02*
Y3720D01*
X-160563Y-11800D02*
Y-8100D01*
X-154563Y-11800D02*
Y-8100D01*
Y-19100D02*
Y-15300D01*
X-160563Y-19000D02*
Y-15300D01*
X339500Y-31280D02*
Y3720D01*
X389500Y-31280D02*
Y3720D01*
X329500D02*
X389500D01*
X329500Y-31280D02*
X389500D01*
X329500D02*
Y3720D01*
X150000Y-68000D02*
Y-33000D01*
X100000Y-68000D02*
Y-33000D01*
Y-68000D02*
X160000D01*
X100000Y-33000D02*
X160000D01*
Y-68000D02*
Y-33000D01*
X-150000Y-68000D02*
Y-33000D01*
X-100000Y-68000D02*
Y-33000D01*
X-160000D02*
X-100000D01*
X-160000Y-68000D02*
X-100000D01*
X-160000D02*
Y-33000D01*
X-322000Y-18900D02*
Y-15200D01*
X-328000Y-18900D02*
Y-15200D01*
Y-11700D02*
Y-7900D01*
X-322000Y-11700D02*
Y-8000D01*
X-339500Y-31280D02*
Y3720D01*
X-389500Y-31280D02*
Y3720D01*
Y-31280D02*
X-329500D01*
X-389500Y3720D02*
X-329500D01*
Y-31280D02*
Y3720D01*
X-40000Y-12300D02*
Y-8600D01*
X-34000Y-12300D02*
Y-8600D01*
Y-19600D02*
Y-15800D01*
X-40000Y-19500D02*
Y-15800D01*
X322500Y-12300D02*
Y-8600D01*
X328500Y-12300D02*
Y-8600D01*
Y-19600D02*
Y-15800D01*
X322500Y-19500D02*
Y-15800D01*
X161563Y-19400D02*
Y-15700D01*
X155563Y-19400D02*
Y-15700D01*
Y-12200D02*
Y-8400D01*
X161563Y-12200D02*
Y-8500D01*
X-51498Y-5001D02*
Y-10999D01*
X-47500D01*
X-45500Y-5001D02*
X-41502D01*
Y-6001D01*
X-45500Y-9999D01*
Y-10999D01*
X309502Y-4001D02*
Y-9999D01*
X313500D01*
X319498Y-4001D02*
X317499Y-5001D01*
X315500Y-7000D01*
Y-8999D01*
X316499Y-9999D01*
X318499D01*
X319498Y-8999D01*
Y-8000D01*
X318499Y-7000D01*
X315500D01*
X141502Y-72001D02*
Y-77999D01*
X145500D01*
X150499D02*
Y-72001D01*
X147500Y-75000D01*
X151498D01*
X-150498Y-70501D02*
Y-76499D01*
X-146500D01*
X-144500Y-71501D02*
X-143501Y-70501D01*
X-141501D01*
X-140502Y-71501D01*
Y-72500D01*
X-141501Y-73500D01*
X-142501D01*
X-141501D01*
X-140502Y-74500D01*
Y-75499D01*
X-141501Y-76499D01*
X-143501D01*
X-144500Y-75499D01*
X-319499Y-2501D02*
Y-8499D01*
X-315500D01*
X-313501D02*
X-311501D01*
X-312501D01*
Y-2501D01*
X-313501Y-3501D01*
D11*
X-151939Y-115029D02*
X-153907Y-116996D01*
Y-120932D01*
X-151939Y-122900D01*
X-144068D01*
X-142100Y-120932D01*
Y-116996D01*
X-144068Y-115029D01*
X-151939Y-103221D02*
X-153907Y-105189D01*
Y-109125D01*
X-151939Y-111093D01*
X-149971D01*
X-148004Y-109125D01*
Y-105189D01*
X-146036Y-103221D01*
X-144068D01*
X-142100Y-105189D01*
Y-109125D01*
X-144068Y-111093D01*
X-153907Y-99286D02*
X-144068D01*
X-142100Y-97318D01*
Y-93382D01*
X-144068Y-91414D01*
X-153907D01*
M02*
