G04*
G04 #@! TF.GenerationSoftware,Altium Limited,Altium Designer,20.1.11 (218)*
G04*
G04 Layer_Physical_Order=2*
G04 Layer_Color=16711680*
%FSLAX25Y25*%
%MOIN*%
G70*
G04*
G04 #@! TF.SameCoordinates,67DEA893-D948-4B9D-9317-8289C47B3BC5*
G04*
G04*
G04 #@! TF.FilePolarity,Positive*
G04*
G01*
G75*
%ADD12R,0.03500X0.03800*%
%ADD17C,0.03150*%
%ADD19C,0.05906*%
%ADD20C,0.02400*%
%ADD21C,0.05000*%
G04:AMPARAMS|DCode=22|XSize=59.06mil|YSize=118.11mil|CornerRadius=14.76mil|HoleSize=0mil|Usage=FLASHONLY|Rotation=0.000|XOffset=0mil|YOffset=0mil|HoleType=Round|Shape=RoundedRectangle|*
%AMROUNDEDRECTD22*
21,1,0.05906,0.08858,0,0,0.0*
21,1,0.02953,0.11811,0,0,0.0*
1,1,0.02953,0.01476,-0.04429*
1,1,0.02953,-0.01476,-0.04429*
1,1,0.02953,-0.01476,0.04429*
1,1,0.02953,0.01476,0.04429*
%
%ADD22ROUNDEDRECTD22*%
G36*
X342000Y-26783D02*
X337193D01*
X337089Y-26478D01*
X337055Y-26283D01*
X337602Y-25570D01*
X337960Y-24707D01*
X338082Y-23779D01*
X338034Y-23416D01*
X338075Y-23345D01*
X338153Y-23230D01*
X338799Y-22478D01*
X339019Y-22253D01*
X339019Y-22252D01*
X339237Y-22034D01*
X339293Y-21951D01*
X340027Y-21057D01*
X340592Y-19998D01*
X341348D01*
Y-15002D01*
X336652D01*
Y-18493D01*
X336317Y-18995D01*
X336246Y-19042D01*
X336032Y-19256D01*
X336031Y-19256D01*
X335583Y-19686D01*
X335211Y-20005D01*
X335063Y-20118D01*
X334934Y-20205D01*
X334863Y-20245D01*
X334500Y-20198D01*
X333573Y-20320D01*
X332709Y-20678D01*
X331967Y-21247D01*
X331398Y-21989D01*
X331040Y-22852D01*
X330918Y-23779D01*
X331040Y-24707D01*
X331398Y-25570D01*
X331945Y-26283D01*
X331911Y-26478D01*
X331807Y-26783D01*
X162992D01*
X162972Y-26787D01*
X162953Y-26784D01*
X162569Y-26803D01*
X162511Y-26817D01*
X162451Y-26817D01*
X161700Y-26967D01*
X161627Y-26997D01*
X161549Y-27013D01*
X160841Y-27306D01*
X160775Y-27350D01*
X160702Y-27380D01*
X160065Y-27806D01*
X160009Y-27862D01*
X159943Y-27906D01*
X159401Y-28448D01*
X159357Y-28514D01*
X159301Y-28569D01*
X158876Y-29207D01*
X158845Y-29280D01*
X158802Y-29346D01*
X158508Y-30054D01*
X158493Y-30131D01*
X158463Y-30204D01*
X158313Y-30956D01*
Y-31016D01*
X158299Y-31073D01*
X158280Y-31457D01*
X158283Y-31476D01*
X158279Y-31496D01*
Y-38118D01*
X157779Y-38288D01*
X157533Y-37967D01*
X156791Y-37398D01*
X155927Y-37040D01*
X155000Y-36918D01*
X154073Y-37040D01*
X153209Y-37398D01*
X152467Y-37967D01*
X151898Y-38709D01*
X151540Y-39573D01*
X151418Y-40500D01*
X151540Y-41427D01*
X151801Y-42057D01*
X151898Y-42291D01*
X151899Y-42292D01*
X152012Y-42496D01*
X150739Y-43727D01*
X150130Y-44263D01*
X149907Y-44440D01*
X149819Y-44502D01*
X148152D01*
Y-44751D01*
X146685Y-44848D01*
X146076Y-44808D01*
X145848Y-44780D01*
Y-44502D01*
X141615D01*
X141115Y-44017D01*
Y-20642D01*
X141096Y-20546D01*
X141239Y-19098D01*
X141689Y-17614D01*
X142420Y-16246D01*
X143343Y-15122D01*
X143425Y-15067D01*
X144913Y-13579D01*
X145594Y-13322D01*
X146530Y-12998D01*
X150911D01*
Y-9550D01*
X150986Y-9439D01*
X151275Y-9059D01*
X151621Y-8714D01*
X152033Y-8301D01*
X152034Y-8301D01*
X152257Y-8085D01*
X152667Y-7727D01*
X152843Y-7594D01*
X153008Y-7482D01*
X153155Y-7397D01*
X153283Y-7336D01*
X153306Y-7327D01*
X153563Y-7361D01*
X154490Y-7239D01*
X155354Y-6882D01*
X156096Y-6312D01*
X156665Y-5570D01*
X157023Y-4707D01*
X157145Y-3779D01*
X157023Y-2853D01*
X156665Y-1989D01*
X156118Y-1276D01*
X156152Y-1081D01*
X156255Y-776D01*
X342000D01*
Y-26783D01*
D02*
G37*
G36*
X153533Y-6732D02*
X153391Y-6743D01*
X153238Y-6777D01*
X153075Y-6835D01*
X152903Y-6918D01*
X152720Y-7024D01*
X152527Y-7154D01*
X152325Y-7307D01*
X151890Y-7687D01*
X151658Y-7912D01*
X149431Y-5685D01*
X149656Y-5452D01*
X150035Y-5018D01*
X150189Y-4815D01*
X150319Y-4623D01*
X150425Y-4440D01*
X150507Y-4267D01*
X150565Y-4105D01*
X150600Y-3952D01*
X150610Y-3809D01*
X153533Y-6732D01*
D02*
G37*
G36*
X146825Y-12388D02*
X146803Y-12374D01*
X146737Y-12378D01*
X146626Y-12403D01*
X146471Y-12446D01*
X145410Y-12813D01*
X144614Y-13113D01*
X143825Y-9792D01*
X146825Y-8612D01*
Y-12388D01*
D02*
G37*
G36*
X-331537Y-3952D02*
X-331502Y-4105D01*
X-331444Y-4267D01*
X-331362Y-4440D01*
X-331256Y-4623D01*
X-331126Y-4815D01*
X-330972Y-5018D01*
X-330593Y-5452D01*
X-330473Y-5576D01*
X-330140Y-5906D01*
X-327409Y-8311D01*
X-327140Y-8478D01*
X-326924Y-8579D01*
X-326762Y-8612D01*
X-330238Y-12388D01*
X-330260Y-11963D01*
X-330327Y-11536D01*
X-330438Y-11107D01*
X-330594Y-10675D01*
X-330795Y-10242D01*
X-331040Y-9806D01*
X-331329Y-9368D01*
X-331663Y-8928D01*
X-332042Y-8486D01*
X-332465Y-8042D01*
X-332064Y-7381D01*
X-332595Y-7912D01*
X-332827Y-7687D01*
X-333262Y-7307D01*
X-333464Y-7154D01*
X-333657Y-7024D01*
X-333840Y-6918D01*
X-334012Y-6835D01*
X-334175Y-6777D01*
X-334328Y-6743D01*
X-334471Y-6732D01*
X-331547Y-3809D01*
X-331537Y-3952D01*
D02*
G37*
G36*
X150974Y-1081D02*
X151008Y-1276D01*
X150461Y-1989D01*
X150103Y-2853D01*
X149981Y-3779D01*
X150015Y-4036D01*
X150007Y-4059D01*
X149946Y-4187D01*
X149860Y-4335D01*
X149749Y-4500D01*
X149615Y-4676D01*
X149257Y-5086D01*
X149042Y-5308D01*
X149042Y-5309D01*
X148284Y-6067D01*
X148224Y-6156D01*
X147513Y-7023D01*
X146990Y-8002D01*
X146215D01*
Y-8271D01*
X145042Y-8732D01*
X144354Y-8941D01*
X143914Y-9176D01*
X143627Y-9289D01*
X143533Y-9380D01*
X143104Y-9609D01*
X142055Y-10470D01*
X142005Y-10503D01*
X140433Y-12075D01*
X140418Y-12099D01*
X139201Y-13523D01*
X138208Y-15143D01*
X137481Y-16899D01*
X137037Y-18747D01*
X136890Y-20615D01*
X136884Y-20642D01*
X136884Y-287000D01*
Y-300773D01*
X136884Y-300774D01*
X136869Y-301434D01*
X136824Y-301997D01*
X136753Y-302472D01*
X136735Y-302544D01*
X136235Y-302483D01*
X136209Y-31496D01*
X136205Y-31476D01*
X136208Y-31457D01*
X136190Y-31073D01*
X136175Y-31016D01*
Y-30956D01*
X136026Y-30204D01*
X135995Y-30131D01*
X135980Y-30054D01*
X135687Y-29346D01*
X135643Y-29280D01*
X135612Y-29207D01*
X135187Y-28569D01*
X135131Y-28514D01*
X135087Y-28448D01*
X134545Y-27906D01*
X134479Y-27862D01*
X134423Y-27806D01*
X133786Y-27380D01*
X133713Y-27350D01*
X133647Y-27306D01*
X132939Y-27013D01*
X132862Y-26997D01*
X132789Y-26967D01*
X132037Y-26817D01*
X131977Y-26817D01*
X131920Y-26803D01*
X131536Y-26784D01*
X131517Y-26787D01*
X131497Y-26783D01*
X-29307D01*
X-29411Y-26478D01*
X-29445Y-26283D01*
X-28898Y-25570D01*
X-28540Y-24707D01*
X-28418Y-23779D01*
X-28487Y-23258D01*
X-27616Y-22387D01*
X-27593Y-22354D01*
X-27318Y-22018D01*
X-27221Y-21958D01*
X-27217Y-21944D01*
X-27205Y-21936D01*
X-27031Y-21668D01*
X-26672Y-21230D01*
X-26330Y-20590D01*
X-26064Y-20182D01*
X-25585Y-19498D01*
X-25152D01*
Y-14502D01*
X-29848D01*
Y-18212D01*
X-29969Y-18502D01*
X-29980Y-18514D01*
X-29995Y-18550D01*
X-30028Y-18570D01*
X-30472Y-19168D01*
X-30476Y-19185D01*
X-30491Y-19195D01*
X-30649Y-19437D01*
X-31479Y-20266D01*
X-32000Y-20198D01*
X-32927Y-20320D01*
X-33791Y-20678D01*
X-34533Y-21247D01*
X-35102Y-21989D01*
X-35460Y-22852D01*
X-35582Y-23779D01*
X-35460Y-24707D01*
X-35102Y-25570D01*
X-34555Y-26283D01*
X-34589Y-26478D01*
X-34692Y-26783D01*
X-131496D01*
X-131516Y-26787D01*
X-131535Y-26784D01*
X-131920Y-26803D01*
X-131977Y-26817D01*
X-132037Y-26817D01*
X-132789Y-26967D01*
X-132862Y-26997D01*
X-132939Y-27013D01*
X-133647Y-27306D01*
X-133713Y-27350D01*
X-133786Y-27380D01*
X-134423Y-27806D01*
X-134479Y-27862D01*
X-134545Y-27906D01*
X-135087Y-28448D01*
X-135131Y-28514D01*
X-135187Y-28569D01*
X-135612Y-29207D01*
X-135643Y-29280D01*
X-135687Y-29346D01*
X-135980Y-30054D01*
X-135995Y-30131D01*
X-136026Y-30204D01*
X-136175Y-30956D01*
Y-31016D01*
X-136190Y-31073D01*
X-136208Y-31457D01*
X-136205Y-31476D01*
X-136209Y-31496D01*
Y-301239D01*
X-136709Y-301408D01*
X-136796Y-301296D01*
X-137441Y-300800D01*
X-138193Y-300489D01*
X-139000Y-300383D01*
X-139807Y-300489D01*
X-140559Y-300800D01*
X-141204Y-301296D01*
X-141700Y-301941D01*
X-142011Y-302693D01*
X-142117Y-303500D01*
X-142054Y-303980D01*
X-142534Y-304161D01*
X-142697Y-303918D01*
X-143383Y-303459D01*
X-143549Y-303426D01*
X-143409Y-302358D01*
X-142876Y-301074D01*
X-142097Y-300058D01*
X-142004Y-299996D01*
X-139979Y-297971D01*
X-139979Y-297971D01*
Y-297971D01*
X-139941Y-297914D01*
X-138909Y-296705D01*
X-138043Y-295293D01*
X-137409Y-293762D01*
X-137023Y-292151D01*
X-136898Y-290567D01*
X-136884Y-290500D01*
Y-41985D01*
X-136890Y-41957D01*
X-137037Y-40090D01*
X-137481Y-38242D01*
X-138208Y-36486D01*
X-139201Y-34865D01*
X-140418Y-33441D01*
X-140433Y-33418D01*
X-148542Y-25309D01*
X-148542Y-25308D01*
X-148757Y-25086D01*
X-149115Y-24676D01*
X-149249Y-24500D01*
X-149360Y-24335D01*
X-149446Y-24187D01*
X-149507Y-24059D01*
X-149515Y-24036D01*
X-149481Y-23779D01*
X-149515Y-23523D01*
X-149507Y-23500D01*
X-149446Y-23372D01*
X-149360Y-23224D01*
X-149249Y-23059D01*
X-149115Y-22883D01*
X-148757Y-22473D01*
X-148542Y-22251D01*
X-148542Y-22250D01*
X-146972Y-20680D01*
X-146972Y-20680D01*
X-146969Y-20683D01*
X-146141Y-19604D01*
X-146098Y-19498D01*
X-145215D01*
Y-14502D01*
X-149911D01*
Y-17627D01*
X-149943Y-17675D01*
X-149964Y-17688D01*
X-151533Y-19258D01*
X-151534Y-19259D01*
X-151757Y-19474D01*
X-152167Y-19832D01*
X-152343Y-19965D01*
X-152508Y-20077D01*
X-152655Y-20162D01*
X-152783Y-20223D01*
X-152806Y-20232D01*
X-153063Y-20198D01*
X-153990Y-20320D01*
X-154854Y-20678D01*
X-155596Y-21247D01*
X-156165Y-21989D01*
X-156523Y-22852D01*
X-156645Y-23779D01*
X-156523Y-24707D01*
X-156165Y-25570D01*
X-155596Y-26312D01*
X-154854Y-26882D01*
X-153990Y-27239D01*
X-153063Y-27361D01*
X-152806Y-27328D01*
X-152783Y-27336D01*
X-152655Y-27397D01*
X-152508Y-27483D01*
X-152343Y-27594D01*
X-152167Y-27727D01*
X-151757Y-28085D01*
X-151534Y-28300D01*
X-151533Y-28301D01*
X-143425Y-36409D01*
X-143343Y-36464D01*
X-142420Y-37588D01*
X-141689Y-38956D01*
X-141239Y-40441D01*
X-141096Y-41888D01*
X-141115Y-41985D01*
Y-290500D01*
X-141101Y-290571D01*
X-141216Y-291740D01*
X-141578Y-292932D01*
X-142165Y-294031D01*
X-142910Y-294938D01*
X-142971Y-294979D01*
X-144996Y-297004D01*
X-145000Y-297001D01*
X-146184Y-298444D01*
X-147065Y-300091D01*
X-147607Y-301878D01*
X-147759Y-303420D01*
X-147955Y-303459D01*
X-148642Y-303918D01*
X-149100Y-304604D01*
X-149261Y-305413D01*
Y-314168D01*
X-157472Y-314174D01*
X-157826Y-313821D01*
Y-305413D01*
X-157986Y-304604D01*
X-158360Y-304045D01*
X-158406Y-303693D01*
X-158718Y-302941D01*
X-159213Y-302296D01*
X-159651Y-301960D01*
X-159511Y-301437D01*
X-159481Y-301433D01*
X-158146Y-300880D01*
X-156999Y-300001D01*
X-157004Y-299996D01*
X-156433Y-299425D01*
X-156418Y-299401D01*
X-155201Y-297977D01*
X-154208Y-296357D01*
X-153481Y-294601D01*
X-153037Y-292753D01*
X-152890Y-290885D01*
X-152885Y-290858D01*
Y-288000D01*
X-152884Y-64779D01*
X-152884Y-64778D01*
X-152879Y-64468D01*
X-152842Y-63925D01*
X-152812Y-63706D01*
X-152774Y-63511D01*
X-152731Y-63346D01*
X-152683Y-63212D01*
X-152673Y-63190D01*
X-152467Y-63033D01*
X-151898Y-62291D01*
X-151540Y-61427D01*
X-151418Y-60500D01*
X-151540Y-59573D01*
X-151898Y-58709D01*
X-152200Y-58315D01*
X-152096Y-58153D01*
X-151780Y-57723D01*
X-151468Y-57359D01*
X-151162Y-57059D01*
X-150864Y-56821D01*
X-150575Y-56644D01*
X-150297Y-56524D01*
X-150200Y-56498D01*
X-149152D01*
Y-56249D01*
X-147685Y-56152D01*
X-147076Y-56192D01*
X-146848Y-56220D01*
Y-56498D01*
X-142152D01*
Y-51502D01*
X-146848D01*
Y-51751D01*
X-148315Y-51848D01*
X-148924Y-51808D01*
X-149152Y-51780D01*
Y-51502D01*
X-153848D01*
Y-52122D01*
X-155290Y-54991D01*
X-155542Y-55299D01*
X-156143Y-56423D01*
X-156210Y-56482D01*
X-156305Y-56677D01*
X-156482Y-57011D01*
X-156644Y-57274D01*
X-156707Y-57363D01*
X-156791Y-57398D01*
X-157533Y-57967D01*
X-157779Y-58288D01*
X-158279Y-58118D01*
Y-31496D01*
X-158283Y-31476D01*
X-158280Y-31457D01*
X-158299Y-31073D01*
X-158313Y-31016D01*
Y-30956D01*
X-158463Y-30204D01*
X-158493Y-30131D01*
X-158508Y-30054D01*
X-158802Y-29346D01*
X-158845Y-29280D01*
X-158876Y-29207D01*
X-159301Y-28569D01*
X-159358Y-28514D01*
X-159401Y-28448D01*
X-159943Y-27906D01*
X-160009Y-27862D01*
X-160065Y-27806D01*
X-160702Y-27380D01*
X-160775Y-27350D01*
X-160841Y-27306D01*
X-161549Y-27013D01*
X-161627Y-26997D01*
X-161700Y-26967D01*
X-162451Y-26817D01*
X-162511Y-26817D01*
X-162569Y-26803D01*
X-162952Y-26784D01*
X-162972Y-26787D01*
X-162991Y-26783D01*
X-339000D01*
Y-13500D01*
X-321819D01*
X-321483Y-13871D01*
X-321496Y-14000D01*
X-321371Y-15275D01*
X-320999Y-16501D01*
X-320395Y-17631D01*
X-319582Y-18621D01*
X-318591Y-19434D01*
X-317462Y-20038D01*
X-316236Y-20410D01*
X-314961Y-20535D01*
X-185039D01*
X-183764Y-20410D01*
X-182538Y-20038D01*
X-181409Y-19434D01*
X-180418Y-18621D01*
X-179605Y-17631D01*
X-179001Y-16501D01*
X-178630Y-15275D01*
X-178504Y-14000D01*
X-178517Y-13871D01*
X-178181Y-13500D01*
X-164674D01*
X-162742Y-13116D01*
X-160922Y-12362D01*
X-159285Y-11268D01*
X-158588Y-10571D01*
X-158588D01*
X-156896Y-8879D01*
X-156755Y-8738D01*
X-156534Y-8408D01*
X-156382Y-8040D01*
X-156305Y-7650D01*
Y-776D01*
X150871D01*
X150974Y-1081D01*
D02*
G37*
G36*
X-29278Y-18713D02*
X-29248Y-18778D01*
X-29238Y-18888D01*
X-25762D01*
X-25806Y-18915D01*
X-25883Y-18998D01*
X-25992Y-19136D01*
X-26512Y-19879D01*
X-27659Y-21641D01*
X-30225Y-19778D01*
X-30038Y-19490D01*
X-29594Y-18892D01*
X-29485Y-18781D01*
X-29396Y-18714D01*
X-29327Y-18692D01*
X-29278Y-18713D01*
D02*
G37*
G36*
X338632Y-21874D02*
X338400Y-22111D01*
X337721Y-22901D01*
X337615Y-23059D01*
X337534Y-23201D01*
X337478Y-23326D01*
X337448Y-23436D01*
X337442Y-23529D01*
X334750Y-20837D01*
X334844Y-20832D01*
X334953Y-20801D01*
X335079Y-20746D01*
X335221Y-20664D01*
X335378Y-20558D01*
X335552Y-20426D01*
X335947Y-20087D01*
X336405Y-19647D01*
X338632Y-21874D01*
D02*
G37*
G36*
X-148931D02*
X-149156Y-22106D01*
X-149535Y-22541D01*
X-149689Y-22744D01*
X-149819Y-22937D01*
X-149925Y-23119D01*
X-150007Y-23292D01*
X-150065Y-23455D01*
X-150100Y-23607D01*
X-150110Y-23750D01*
X-153033Y-20827D01*
X-152891Y-20816D01*
X-152738Y-20782D01*
X-152575Y-20724D01*
X-152403Y-20641D01*
X-152220Y-20535D01*
X-152027Y-20405D01*
X-151825Y-20252D01*
X-151390Y-19873D01*
X-151158Y-19647D01*
X-148931Y-21874D01*
D02*
G37*
G36*
X-150100Y-23952D02*
X-150065Y-24105D01*
X-150007Y-24267D01*
X-149925Y-24440D01*
X-149819Y-24623D01*
X-149689Y-24815D01*
X-149535Y-25018D01*
X-149156Y-25453D01*
X-148931Y-25685D01*
X-151158Y-27912D01*
X-151390Y-27687D01*
X-151825Y-27307D01*
X-152027Y-27154D01*
X-152220Y-27024D01*
X-152403Y-26918D01*
X-152575Y-26835D01*
X-152738Y-26777D01*
X-152891Y-26743D01*
X-153033Y-26732D01*
X-150110Y-23809D01*
X-150100Y-23952D01*
D02*
G37*
G36*
X154465Y-45262D02*
X154002Y-45730D01*
X152346Y-47611D01*
X152256Y-47771D01*
X152220Y-47886D01*
X152238Y-47958D01*
X149692Y-45112D01*
X149759Y-45134D01*
X149871Y-45102D01*
X150028Y-45015D01*
X150230Y-44874D01*
X150477Y-44679D01*
X151106Y-44125D01*
X152388Y-42885D01*
X154465Y-45262D01*
D02*
G37*
G36*
X148762Y-48888D02*
X148731Y-48829D01*
X148636Y-48775D01*
X148478Y-48728D01*
X148258Y-48688D01*
X147975Y-48653D01*
X147315Y-48609D01*
X145521Y-48728D01*
X145364Y-48775D01*
X145270Y-48829D01*
X145238Y-48888D01*
Y-45112D01*
X145270Y-45171D01*
X145364Y-45225D01*
X145521Y-45272D01*
X145742Y-45312D01*
X146025Y-45347D01*
X146685Y-45391D01*
X148478Y-45272D01*
X148636Y-45225D01*
X148731Y-45171D01*
X148762Y-45112D01*
Y-48888D01*
D02*
G37*
G36*
X158279Y-42882D02*
Y-292913D01*
X158283Y-292933D01*
X158280Y-292953D01*
X158299Y-293336D01*
X158313Y-293394D01*
Y-293453D01*
X158463Y-294205D01*
X158493Y-294278D01*
X158508Y-294356D01*
X158802Y-295064D01*
X158845Y-295129D01*
X158876Y-295203D01*
X159301Y-295840D01*
X159357Y-295896D01*
X159401Y-295961D01*
X159943Y-296504D01*
X160009Y-296548D01*
X160065Y-296603D01*
X160702Y-297029D01*
X160775Y-297060D01*
X160841Y-297104D01*
X161549Y-297397D01*
X161627Y-297412D01*
X161700Y-297443D01*
X162451Y-297592D01*
X162511Y-297592D01*
X162569Y-297607D01*
X162952Y-297626D01*
X162972Y-297623D01*
X162991Y-297627D01*
X179839Y-297627D01*
X180449Y-297748D01*
X181025Y-297986D01*
X181542Y-298332D01*
X181983Y-298773D01*
X182328Y-299290D01*
X182567Y-299866D01*
X182688Y-300476D01*
Y-307860D01*
X171678Y-307885D01*
X171525Y-307916D01*
X171373Y-307946D01*
X171372Y-307947D01*
X171371Y-307947D01*
X171243Y-308033D01*
X171112Y-308120D01*
X171112Y-308121D01*
X171111Y-308122D01*
X171025Y-308251D01*
X170938Y-308381D01*
X170938Y-308382D01*
X170938Y-308382D01*
X170907Y-308537D01*
X170877Y-308688D01*
Y-314158D01*
X165363Y-314162D01*
X165009Y-313809D01*
Y-305413D01*
X164848Y-304604D01*
X164465Y-304030D01*
X164534Y-303500D01*
X164428Y-302693D01*
X164117Y-301941D01*
X163621Y-301296D01*
X162976Y-300800D01*
X162224Y-300489D01*
X161417Y-300383D01*
X160610Y-300489D01*
X159859Y-300800D01*
X159213Y-301296D01*
X158718Y-301941D01*
X158406Y-302693D01*
X158300Y-303500D01*
X158370Y-304030D01*
X157986Y-304604D01*
X157826Y-305413D01*
Y-313798D01*
X157604Y-313890D01*
X157135Y-313543D01*
Y-305413D01*
X156974Y-304604D01*
X156555Y-303976D01*
X156617Y-303500D01*
X156511Y-302693D01*
X156200Y-301941D01*
X155704Y-301296D01*
X155059Y-300800D01*
X154307Y-300489D01*
X153500Y-300383D01*
X152693Y-300489D01*
X151941Y-300800D01*
X151296Y-301296D01*
X150800Y-301941D01*
X150489Y-302693D01*
X150383Y-303500D01*
X150460Y-304084D01*
X150112Y-304604D01*
X149952Y-305413D01*
Y-314174D01*
X141741Y-314180D01*
X141387Y-313826D01*
Y-305413D01*
X141226Y-304604D01*
X141225Y-304602D01*
X141116Y-301564D01*
X141115Y-301563D01*
Y-287000D01*
X141115Y-49984D01*
X141152Y-49498D01*
X145848D01*
Y-49249D01*
X147315Y-49152D01*
X147924Y-49192D01*
X148152Y-49220D01*
Y-49498D01*
X152848D01*
Y-47859D01*
X154398Y-46099D01*
X154850Y-45643D01*
X154850Y-45641D01*
X155082Y-45410D01*
X155082Y-45410D01*
Y-45410D01*
X155122Y-45349D01*
X155939Y-44354D01*
X156213Y-43841D01*
X156791Y-43602D01*
X157533Y-43033D01*
X157779Y-42712D01*
X158279Y-42882D01*
D02*
G37*
G36*
X-146238Y-55888D02*
X-146270Y-55828D01*
X-146364Y-55775D01*
X-146521Y-55728D01*
X-146742Y-55688D01*
X-147025Y-55653D01*
X-147685Y-55609D01*
X-149478Y-55728D01*
X-149636Y-55775D01*
X-149731Y-55828D01*
X-149762Y-55888D01*
Y-52112D01*
X-149731Y-52171D01*
X-149636Y-52225D01*
X-149478Y-52272D01*
X-149258Y-52312D01*
X-148975Y-52347D01*
X-148315Y-52391D01*
X-146521Y-52272D01*
X-146364Y-52225D01*
X-146270Y-52171D01*
X-146238Y-52112D01*
Y-55888D01*
D02*
G37*
G36*
X-149762D02*
X-150119Y-55919D01*
X-150474Y-56010D01*
X-150826Y-56163D01*
X-151175Y-56377D01*
X-151521Y-56653D01*
X-151864Y-56989D01*
X-152204Y-57387D01*
X-152542Y-57845D01*
X-152758Y-58180D01*
X-152757Y-58277D01*
X-152735Y-58426D01*
X-152693Y-58572D01*
X-152630Y-58716D01*
X-152547Y-58857D01*
X-153092Y-58743D01*
X-153208Y-58947D01*
X-156168Y-58103D01*
X-156594Y-58014D01*
X-156519Y-57959D01*
X-156441Y-57887D01*
X-156361Y-57799D01*
X-156278Y-57694D01*
X-156192Y-57573D01*
X-156013Y-57281D01*
X-155822Y-56923D01*
X-155723Y-56719D01*
X-155567Y-56748D01*
X-153238Y-52112D01*
X-149762Y-55888D01*
D02*
G37*
G36*
X-153027Y-62717D02*
X-153110Y-62849D01*
X-153184Y-63006D01*
X-153248Y-63186D01*
X-153302Y-63390D01*
X-153347Y-63618D01*
X-153381Y-63870D01*
X-153420Y-64446D01*
X-153425Y-64769D01*
X-156575D01*
X-156580Y-64446D01*
X-156619Y-63870D01*
X-156653Y-63618D01*
X-156698Y-63390D01*
X-156752Y-63186D01*
X-156816Y-63006D01*
X-156890Y-62849D01*
X-156973Y-62717D01*
X-157067Y-62609D01*
X-152933D01*
X-153027Y-62717D01*
D02*
G37*
G36*
X-166386Y-302114D02*
X-166509Y-302374D01*
X-166604Y-302641D01*
X-166672Y-302915D01*
X-166712Y-303196D01*
X-166726Y-303485D01*
X-166713Y-303780D01*
X-166672Y-304082D01*
X-166605Y-304392D01*
X-166510Y-304708D01*
X-166388Y-305031D01*
X-171812Y-304369D01*
X-171641Y-304222D01*
X-171458Y-304033D01*
X-171264Y-303804D01*
X-170837Y-303220D01*
X-170363Y-302472D01*
X-169562Y-301039D01*
X-166386Y-302114D01*
D02*
G37*
G36*
X163134Y-305333D02*
X163104Y-305407D01*
X163078Y-305507D01*
X163055Y-305633D01*
X163036Y-305785D01*
X163008Y-306169D01*
X162992Y-306942D01*
X159843D01*
X159841Y-306658D01*
X159779Y-305633D01*
X159757Y-305507D01*
X159730Y-305407D01*
X159701Y-305333D01*
X159667Y-305285D01*
X163167D01*
X163134Y-305333D01*
D02*
G37*
G36*
X155217D02*
X155187Y-305407D01*
X155161Y-305507D01*
X155138Y-305633D01*
X155119Y-305785D01*
X155091Y-306169D01*
X155075Y-306942D01*
X151925D01*
X151923Y-306658D01*
X151862Y-305633D01*
X151839Y-305507D01*
X151813Y-305407D01*
X151783Y-305333D01*
X151750Y-305285D01*
X155250D01*
X155217Y-305333D01*
D02*
G37*
G36*
X-166994Y-298127D02*
X-167896Y-298609D01*
X-168947Y-299471D01*
X-168996Y-299504D01*
X-169002Y-299513D01*
X-170019Y-300752D01*
X-170029Y-300771D01*
X-170034Y-300775D01*
X-170828Y-302195D01*
X-171285Y-302916D01*
X-171689Y-303469D01*
X-171816Y-303619D01*
X-172264Y-303918D01*
X-172722Y-304604D01*
X-172883Y-305413D01*
Y-307885D01*
X-182665D01*
X-182688Y-300785D01*
Y-300476D01*
X-182567Y-299865D01*
X-182329Y-299290D01*
X-181983Y-298773D01*
X-181542Y-298332D01*
X-181025Y-297986D01*
X-180449Y-297748D01*
X-179839Y-297627D01*
X-167119D01*
X-166994Y-298127D01*
D02*
G37*
G36*
X385179Y-2402D02*
X385648D01*
Y-3299D01*
X385179D01*
Y-5109D01*
X381500D01*
Y-4229D01*
X381827D01*
Y-1472D01*
X381500D01*
Y-583D01*
X385179D01*
Y-2402D01*
D02*
G37*
G36*
X387835Y-6223D02*
X385673D01*
X385363D01*
X385087Y-6232D01*
X384827Y-6240D01*
X384592Y-6257D01*
X384374Y-6273D01*
X384190Y-6290D01*
X384022Y-6307D01*
X383872Y-6324D01*
X383746Y-6340D01*
X383637Y-6357D01*
X383545Y-6374D01*
X383478Y-6391D01*
X383419Y-6399D01*
X383385Y-6408D01*
X383360Y-6416D01*
X383352D01*
X383134Y-6491D01*
X382941Y-6567D01*
X382765Y-6642D01*
X382623Y-6709D01*
X382506Y-6776D01*
X382422Y-6826D01*
X382388Y-6843D01*
X382363Y-6860D01*
X382355Y-6868D01*
X382346D01*
X382221Y-6751D01*
X382095Y-6617D01*
X381961Y-6500D01*
X381835Y-6382D01*
X381718Y-6273D01*
X381634Y-6198D01*
X381601Y-6165D01*
X381575Y-6139D01*
X381559Y-6131D01*
X381550Y-6123D01*
X381785Y-5988D01*
X382036Y-5871D01*
X382271Y-5762D01*
X382497Y-5678D01*
X382598Y-5645D01*
X382690Y-5611D01*
X382774Y-5586D01*
X382849Y-5561D01*
X382908Y-5544D01*
X382950Y-5528D01*
X382975Y-5519D01*
X382983D01*
X383151Y-5477D01*
X383344Y-5444D01*
X383545Y-5410D01*
X383763Y-5385D01*
X384224Y-5335D01*
X384450Y-5327D01*
X384676Y-5310D01*
X384886Y-5301D01*
X385087Y-5293D01*
X385271Y-5285D01*
X385430D01*
X385556Y-5276D01*
X385615D01*
X385656D01*
X385690D01*
X385715D01*
X385732D01*
X385740D01*
Y-575D01*
X387835D01*
Y-6223D01*
D02*
G37*
G36*
X382589Y-8058D02*
X385606D01*
Y-10790D01*
X386947Y-10556D01*
Y-7380D01*
X387785D01*
Y-13447D01*
X386947D01*
Y-11553D01*
X385606Y-11796D01*
Y-13254D01*
X384760D01*
Y-11947D01*
X382589Y-12324D01*
Y-13690D01*
X381760D01*
Y-7061D01*
X382589D01*
Y-8058D01*
D02*
G37*
G36*
X385799Y-16715D02*
X388078D01*
Y-17779D01*
X385799D01*
Y-20486D01*
X384844D01*
Y-17779D01*
X381525D01*
Y-16715D01*
X384844D01*
Y-14008D01*
X385799D01*
Y-16715D01*
D02*
G37*
G36*
X387668Y-22623D02*
X387835Y-22547D01*
X387911Y-22514D01*
X387986Y-22489D01*
X388045Y-22464D01*
X388087Y-22447D01*
X388120Y-22430D01*
X388129D01*
Y-23352D01*
X387919Y-23444D01*
X387718Y-23553D01*
X387534Y-23654D01*
X387374Y-23754D01*
X387240Y-23846D01*
X387190Y-23888D01*
X387140Y-23922D01*
X387106Y-23947D01*
X387081Y-23972D01*
X387064Y-23980D01*
X387056Y-23989D01*
X387668D01*
Y-25648D01*
X387835Y-25564D01*
X387911Y-25522D01*
X387986Y-25489D01*
X388045Y-25464D01*
X388087Y-25438D01*
X388120Y-25430D01*
X388129Y-25422D01*
Y-26335D01*
X387978Y-26411D01*
X387827Y-26494D01*
X387550Y-26687D01*
X387299Y-26880D01*
X387190Y-26972D01*
X387081Y-27064D01*
X386989Y-27156D01*
X386905Y-27232D01*
X386830Y-27307D01*
X386771Y-27374D01*
X386721Y-27425D01*
X386687Y-27466D01*
X386662Y-27492D01*
X386654Y-27500D01*
X386436Y-27299D01*
X386335Y-27207D01*
X386235Y-27131D01*
X386159Y-27064D01*
X386101Y-27006D01*
X386059Y-26972D01*
X386042Y-26964D01*
X386092Y-26905D01*
X386134Y-26855D01*
X386168Y-26821D01*
X386176Y-26805D01*
X385606D01*
Y-24508D01*
X385204D01*
Y-26729D01*
X383352Y-27048D01*
Y-25464D01*
X383243Y-25606D01*
X383142Y-25765D01*
X382950Y-26084D01*
X382782Y-26411D01*
X382707Y-26578D01*
X382640Y-26729D01*
X382581Y-26871D01*
X382531Y-27006D01*
X382481Y-27123D01*
X382439Y-27232D01*
X382413Y-27316D01*
X382388Y-27383D01*
X382380Y-27416D01*
X382371Y-27433D01*
X382195Y-27324D01*
X382045Y-27224D01*
X381902Y-27140D01*
X381785Y-27064D01*
X381693Y-27006D01*
X381617Y-26964D01*
X381575Y-26939D01*
X381559Y-26930D01*
X381684Y-26645D01*
X381810Y-26377D01*
X381944Y-26126D01*
X382087Y-25891D01*
X382221Y-25673D01*
X382355Y-25472D01*
X382481Y-25296D01*
X382606Y-25128D01*
X382723Y-24986D01*
X382832Y-24860D01*
X382925Y-24751D01*
X383008Y-24668D01*
X383075Y-24600D01*
X383126Y-24550D01*
X383159Y-24517D01*
X383168Y-24508D01*
X381525D01*
Y-23595D01*
X383352D01*
Y-21860D01*
X383235Y-21869D01*
X383126Y-21877D01*
X383050Y-21885D01*
X382983Y-21894D01*
X382933Y-21902D01*
X382899D01*
X382883Y-21911D01*
X382874D01*
X382832Y-21927D01*
X382790Y-21944D01*
X382723Y-21994D01*
X382690Y-22045D01*
X382673Y-22053D01*
Y-22061D01*
X382648Y-22112D01*
X382631Y-22170D01*
X382606Y-22288D01*
Y-22338D01*
X382598Y-22380D01*
Y-22514D01*
X382606Y-22573D01*
Y-22640D01*
X382614Y-22715D01*
X382623Y-22883D01*
Y-23050D01*
X382631Y-23126D01*
Y-23193D01*
X382640Y-23251D01*
Y-23335D01*
X382489Y-23285D01*
X382338Y-23235D01*
X382195Y-23201D01*
X382078Y-23167D01*
X381978Y-23134D01*
X381894Y-23117D01*
X381844Y-23100D01*
X381835D01*
X381827D01*
Y-22631D01*
X381835Y-22438D01*
Y-22263D01*
X381844Y-22120D01*
X381860Y-21986D01*
X381869Y-21877D01*
X381877Y-21785D01*
X381894Y-21709D01*
X381902Y-21651D01*
X381911Y-21600D01*
X381927Y-21567D01*
X381936Y-21542D01*
Y-21525D01*
X381944Y-21517D01*
X382053Y-21374D01*
X382103Y-21316D01*
X382162Y-21257D01*
X382204Y-21215D01*
X382237Y-21181D01*
X382263Y-21165D01*
X382271Y-21156D01*
X382321Y-21123D01*
X382405Y-21098D01*
X382514Y-21072D01*
X382631Y-21056D01*
X382774Y-21031D01*
X382925Y-21014D01*
X383251Y-20989D01*
X383411Y-20980D01*
X383561Y-20972D01*
X383704Y-20964D01*
X383830Y-20955D01*
X383930D01*
X384014Y-20947D01*
X384064D01*
X384073D01*
X384081D01*
Y-23595D01*
X384483D01*
Y-21265D01*
X386318D01*
Y-21986D01*
X386654Y-21575D01*
X386796Y-21718D01*
X386855Y-21793D01*
X386913Y-21852D01*
X386964Y-21911D01*
X386997Y-21952D01*
X387022Y-21978D01*
X387031Y-21986D01*
Y-20846D01*
X387668D01*
Y-22623D01*
D02*
G37*
G36*
X-383668Y-1481D02*
X-384154D01*
Y-2989D01*
X-382000D01*
Y-4003D01*
X-384154D01*
Y-5511D01*
X-383693D01*
Y-6500D01*
X-387447D01*
Y-4003D01*
X-388629D01*
Y-2989D01*
X-387447D01*
Y-492D01*
X-383668D01*
Y-1481D01*
D02*
G37*
G36*
X-383391Y-9919D02*
X-382184D01*
Y-10799D01*
X-383391D01*
Y-12224D01*
X-384095D01*
Y-10799D01*
X-384589D01*
Y-12115D01*
X-385302D01*
Y-11503D01*
X-385461Y-11620D01*
X-385528Y-11679D01*
X-385595Y-11729D01*
X-385645Y-11763D01*
X-385687Y-11796D01*
X-385712Y-11813D01*
X-385721Y-11821D01*
X-385989Y-11025D01*
X-385855Y-10950D01*
X-385737Y-10874D01*
X-385620Y-10799D01*
X-385511Y-10732D01*
X-385427Y-10673D01*
X-385360Y-10631D01*
X-385318Y-10598D01*
X-385302Y-10589D01*
Y-10129D01*
X-385553Y-9978D01*
X-385670Y-9902D01*
X-385771Y-9844D01*
X-385863Y-9785D01*
X-385930Y-9743D01*
X-385972Y-9710D01*
X-385989Y-9701D01*
X-385746Y-8930D01*
X-385587Y-9031D01*
X-385511Y-9081D01*
X-385444Y-9123D01*
X-385385Y-9156D01*
X-385344Y-9182D01*
X-385310Y-9198D01*
X-385302Y-9207D01*
Y-8612D01*
X-384589D01*
Y-9919D01*
X-384095D01*
Y-8495D01*
X-383391D01*
Y-9919D01*
D02*
G37*
G36*
X-387279Y-9911D02*
X-386785D01*
Y-7413D01*
X-382033D01*
Y-8327D01*
X-386006D01*
Y-12425D01*
X-383341D01*
X-383265Y-12416D01*
X-383207Y-12408D01*
X-383148Y-12383D01*
X-383098Y-12358D01*
X-383022Y-12282D01*
X-382972Y-12207D01*
X-382947Y-12123D01*
X-382930Y-12048D01*
X-382922Y-11997D01*
Y-11821D01*
X-382930Y-11671D01*
Y-11536D01*
X-382939Y-11411D01*
X-382947Y-11310D01*
Y-11235D01*
X-382955Y-11185D01*
Y-11168D01*
X-382788Y-11210D01*
X-382628Y-11252D01*
X-382478Y-11285D01*
X-382344Y-11310D01*
X-382235Y-11335D01*
X-382142Y-11352D01*
X-382109D01*
X-382084Y-11361D01*
X-382075D01*
X-382067D01*
X-382059Y-11578D01*
Y-12098D01*
X-382067Y-12224D01*
Y-12316D01*
X-382075Y-12349D01*
Y-12391D01*
X-382101Y-12559D01*
X-382134Y-12701D01*
X-382193Y-12827D01*
X-382268Y-12936D01*
X-382344Y-13028D01*
X-382436Y-13104D01*
X-382528Y-13171D01*
X-382628Y-13221D01*
X-382721Y-13263D01*
X-382813Y-13288D01*
X-382897Y-13313D01*
X-382972Y-13321D01*
X-383039Y-13330D01*
X-383089Y-13338D01*
X-383123D01*
X-383131D01*
X-386785D01*
Y-10891D01*
X-387279D01*
Y-13598D01*
X-388050D01*
Y-10891D01*
X-388629D01*
Y-9911D01*
X-388050D01*
Y-7112D01*
X-387279D01*
Y-9911D01*
D02*
G37*
G36*
X-382687Y-14067D02*
X-382520Y-14218D01*
X-382369Y-14352D01*
X-382243Y-14461D01*
X-382142Y-14545D01*
X-382067Y-14604D01*
X-382025Y-14645D01*
X-382008Y-14654D01*
X-382109Y-14838D01*
X-382218Y-15014D01*
X-382436Y-15341D01*
X-382662Y-15634D01*
X-382888Y-15902D01*
X-383123Y-16137D01*
X-383358Y-16347D01*
X-383584Y-16531D01*
X-383802Y-16690D01*
X-384011Y-16824D01*
X-384204Y-16933D01*
X-384371Y-17025D01*
X-384522Y-17101D01*
X-384640Y-17151D01*
X-384690Y-17176D01*
X-384732Y-17193D01*
X-384765Y-17201D01*
X-384790Y-17210D01*
X-384799Y-17218D01*
X-384807D01*
X-384464Y-17361D01*
X-384145Y-17528D01*
X-383852Y-17721D01*
X-383575Y-17914D01*
X-383332Y-18123D01*
X-383106Y-18333D01*
X-382905Y-18551D01*
X-382721Y-18752D01*
X-382561Y-18953D01*
X-382427Y-19146D01*
X-382318Y-19313D01*
X-382226Y-19464D01*
X-382151Y-19581D01*
X-382126Y-19632D01*
X-382101Y-19673D01*
X-382084Y-19715D01*
X-382067Y-19740D01*
X-382059Y-19749D01*
Y-19757D01*
X-382209Y-19875D01*
X-382360Y-20000D01*
X-382511Y-20126D01*
X-382654Y-20243D01*
X-382779Y-20352D01*
X-382838Y-20403D01*
X-382880Y-20444D01*
X-382922Y-20478D01*
X-382947Y-20503D01*
X-382964Y-20511D01*
X-382972Y-20520D01*
X-383048Y-20319D01*
X-383131Y-20126D01*
X-383224Y-19942D01*
X-383324Y-19766D01*
X-383425Y-19598D01*
X-383534Y-19447D01*
X-383651Y-19296D01*
X-383768Y-19154D01*
X-384011Y-18894D01*
X-384263Y-18668D01*
X-384514Y-18475D01*
X-384765Y-18299D01*
X-385008Y-18157D01*
X-385235Y-18039D01*
X-385436Y-17939D01*
X-385620Y-17863D01*
X-385696Y-17830D01*
X-385771Y-17805D01*
X-385830Y-17788D01*
X-385880Y-17771D01*
X-385922Y-17754D01*
X-385955Y-17746D01*
X-385972Y-17738D01*
X-385981D01*
Y-20428D01*
X-386902D01*
Y-17662D01*
X-387171Y-17671D01*
X-387455Y-17687D01*
X-387740Y-17696D01*
X-388008Y-17704D01*
X-388126D01*
X-388235D01*
X-388335D01*
X-388419Y-17713D01*
X-388494D01*
X-388545D01*
X-388578D01*
X-388587D01*
Y-16699D01*
X-388243D01*
X-387925D01*
X-387774Y-16690D01*
X-387631D01*
X-387506Y-16682D01*
X-387388D01*
X-387279Y-16673D01*
X-387187D01*
X-387103Y-16665D01*
X-387028D01*
X-386978D01*
X-386936Y-16657D01*
X-386911D01*
X-386902D01*
Y-14017D01*
X-385981D01*
Y-16565D01*
X-385796Y-16539D01*
X-385612Y-16497D01*
X-385436Y-16447D01*
X-385268Y-16380D01*
X-385101Y-16313D01*
X-384941Y-16229D01*
X-384640Y-16045D01*
X-384363Y-15844D01*
X-384112Y-15618D01*
X-383877Y-15383D01*
X-383668Y-15140D01*
X-383483Y-14905D01*
X-383324Y-14679D01*
X-383190Y-14461D01*
X-383073Y-14277D01*
X-383022Y-14193D01*
X-382989Y-14118D01*
X-382947Y-14051D01*
X-382922Y-14000D01*
X-382897Y-13950D01*
X-382888Y-13916D01*
X-382872Y-13900D01*
Y-13891D01*
X-382687Y-14067D01*
D02*
G37*
G36*
X-385763Y-21877D02*
X-386592D01*
Y-26252D01*
X-385763D01*
Y-27190D01*
X-387414D01*
Y-26227D01*
X-388059Y-26763D01*
X-388553Y-25866D01*
X-388369Y-25741D01*
X-388168Y-25607D01*
X-387983Y-25481D01*
X-387799Y-25355D01*
X-387648Y-25246D01*
X-387581Y-25204D01*
X-387522Y-25162D01*
X-387480Y-25129D01*
X-387439Y-25104D01*
X-387422Y-25095D01*
X-387414Y-25087D01*
Y-24266D01*
X-387623Y-24735D01*
X-387858Y-24601D01*
X-388067Y-24484D01*
X-388243Y-24375D01*
X-388394Y-24282D01*
X-388520Y-24207D01*
X-388570Y-24182D01*
X-388603Y-24157D01*
X-388637Y-24132D01*
X-388662Y-24115D01*
X-388670Y-24106D01*
X-388679D01*
X-388318Y-23285D01*
X-388176Y-23377D01*
X-388025Y-23470D01*
X-387874Y-23553D01*
X-387732Y-23637D01*
X-387606Y-23704D01*
X-387548Y-23729D01*
X-387506Y-23754D01*
X-387464Y-23780D01*
X-387439Y-23796D01*
X-387422Y-23805D01*
X-387414D01*
Y-22690D01*
X-387615Y-22984D01*
X-387816Y-22833D01*
X-388008Y-22682D01*
X-388184Y-22548D01*
X-388335Y-22422D01*
X-388453Y-22321D01*
X-388503Y-22280D01*
X-388553Y-22238D01*
X-388587Y-22213D01*
X-388612Y-22187D01*
X-388620Y-22179D01*
X-388629Y-22171D01*
X-388151Y-21467D01*
X-387891Y-21676D01*
X-387774Y-21768D01*
X-387656Y-21852D01*
X-387556Y-21928D01*
X-387480Y-21986D01*
X-387430Y-22020D01*
X-387422Y-22037D01*
X-387414D01*
Y-20939D01*
X-385763D01*
Y-21877D01*
D02*
G37*
G36*
X-383718Y-23754D02*
X-383316D01*
X-383249Y-23746D01*
X-383182Y-23738D01*
X-383081Y-23679D01*
X-383014Y-23604D01*
X-382964Y-23520D01*
X-382939Y-23436D01*
X-382922Y-23361D01*
X-382913Y-23302D01*
Y-22967D01*
X-382922Y-22808D01*
Y-22539D01*
X-382930Y-22489D01*
Y-22355D01*
X-382620Y-22447D01*
X-382478Y-22489D01*
X-382344Y-22523D01*
X-382226Y-22548D01*
X-382134Y-22565D01*
X-382101Y-22573D01*
X-382075Y-22581D01*
X-382067D01*
X-382059D01*
Y-23176D01*
X-382067Y-23336D01*
Y-23671D01*
X-382075Y-23855D01*
X-382109Y-24014D01*
X-382151Y-24148D01*
X-382201Y-24266D01*
X-382243Y-24350D01*
X-382285Y-24408D01*
X-382318Y-24450D01*
X-382327Y-24458D01*
X-382427Y-24542D01*
X-382545Y-24609D01*
X-382662Y-24651D01*
X-382771Y-24685D01*
X-382872Y-24701D01*
X-382955Y-24718D01*
X-382989D01*
X-383014D01*
X-383022D01*
X-383031D01*
X-383718D01*
Y-27316D01*
X-384547D01*
Y-24819D01*
X-385310Y-25967D01*
X-386123D01*
Y-22204D01*
X-385302D01*
Y-24651D01*
X-384723Y-23754D01*
X-384547D01*
Y-20830D01*
X-383718D01*
Y-23754D01*
D02*
G37*
%LPC*%
G36*
X313866Y-6965D02*
X172134D01*
X170859Y-7090D01*
X169633Y-7462D01*
X168503Y-8066D01*
X167513Y-8879D01*
X166700Y-9869D01*
X166096Y-10999D01*
X165724Y-12225D01*
X165598Y-13500D01*
X165724Y-14775D01*
X166096Y-16001D01*
X166700Y-17131D01*
X167513Y-18121D01*
X168503Y-18934D01*
X169633Y-19538D01*
X170859Y-19910D01*
X172134Y-20035D01*
X313866D01*
X315141Y-19910D01*
X316367Y-19538D01*
X317497Y-18934D01*
X318487Y-18121D01*
X319300Y-17131D01*
X319904Y-16001D01*
X320276Y-14775D01*
X320402Y-13500D01*
X320276Y-12225D01*
X319904Y-10999D01*
X319300Y-9869D01*
X318487Y-8879D01*
X317497Y-8066D01*
X316367Y-7462D01*
X315141Y-7090D01*
X313866Y-6965D01*
D02*
G37*
G36*
X126366D02*
X-15366D01*
X-16641Y-7090D01*
X-17867Y-7462D01*
X-18997Y-8066D01*
X-19987Y-8879D01*
X-20800Y-9869D01*
X-21404Y-10999D01*
X-21776Y-12225D01*
X-21902Y-13500D01*
X-21776Y-14775D01*
X-21404Y-16001D01*
X-20800Y-17131D01*
X-19987Y-18121D01*
X-18997Y-18934D01*
X-17867Y-19538D01*
X-16641Y-19910D01*
X-15366Y-20035D01*
X126366D01*
X127641Y-19910D01*
X128867Y-19538D01*
X129997Y-18934D01*
X130987Y-18121D01*
X131800Y-17131D01*
X132404Y-16001D01*
X132776Y-14775D01*
X132902Y-13500D01*
X132776Y-12225D01*
X132404Y-10999D01*
X131800Y-9869D01*
X130987Y-8879D01*
X129997Y-8066D01*
X128867Y-7462D01*
X127641Y-7090D01*
X126366Y-6965D01*
D02*
G37*
G36*
X-47224D02*
X-137776D01*
X-139051Y-7090D01*
X-140277Y-7462D01*
X-141407Y-8066D01*
X-142397Y-8879D01*
X-143210Y-9869D01*
X-143814Y-10999D01*
X-144185Y-12225D01*
X-144311Y-13500D01*
X-144185Y-14775D01*
X-143814Y-16001D01*
X-143210Y-17131D01*
X-142397Y-18121D01*
X-141407Y-18934D01*
X-140277Y-19538D01*
X-139051Y-19910D01*
X-137776Y-20035D01*
X-47224D01*
X-45949Y-19910D01*
X-44723Y-19538D01*
X-43593Y-18934D01*
X-42603Y-18121D01*
X-41790Y-17131D01*
X-41186Y-16001D01*
X-40815Y-14775D01*
X-40689Y-13500D01*
X-40815Y-12225D01*
X-41186Y-10999D01*
X-41790Y-9869D01*
X-42603Y-8879D01*
X-43593Y-8066D01*
X-44723Y-7462D01*
X-45949Y-7090D01*
X-47224Y-6965D01*
D02*
G37*
G36*
X384450Y-1472D02*
X383855D01*
Y-2402D01*
X384450D01*
Y-1472D01*
D02*
G37*
G36*
X383151D02*
X382556D01*
Y-2402D01*
X383151D01*
Y-1472D01*
D02*
G37*
G36*
X384450Y-3299D02*
X383855D01*
Y-4229D01*
X384450D01*
Y-3299D01*
D02*
G37*
G36*
X383151D02*
X382556D01*
Y-4229D01*
X383151D01*
Y-3299D01*
D02*
G37*
G36*
X387056Y-1514D02*
X386511D01*
Y-5276D01*
X387056D01*
Y-1514D01*
D02*
G37*
G36*
X384760Y-9056D02*
X382589D01*
Y-11327D01*
X384760Y-10941D01*
Y-9056D01*
D02*
G37*
G36*
X386318Y-22237D02*
Y-23478D01*
X386444Y-23377D01*
X386570Y-23277D01*
X386687Y-23184D01*
X386796Y-23109D01*
X386888Y-23050D01*
X386964Y-23000D01*
X387014Y-22966D01*
X387031Y-22958D01*
Y-22522D01*
X386830Y-22765D01*
X386729Y-22656D01*
X386637Y-22556D01*
X386553Y-22464D01*
X386478Y-22388D01*
X386411Y-22321D01*
X386360Y-22279D01*
X386327Y-22246D01*
X386318Y-22237D01*
D02*
G37*
G36*
X385606Y-22170D02*
X385204D01*
Y-23595D01*
X385606D01*
Y-22170D01*
D02*
G37*
G36*
X386318Y-23519D02*
Y-24902D01*
X386612Y-24550D01*
X386771Y-24726D01*
X386838Y-24802D01*
X386905Y-24869D01*
X386955Y-24936D01*
X386997Y-24978D01*
X387022Y-25011D01*
X387031Y-25019D01*
Y-24005D01*
X386939Y-24073D01*
X386863Y-24140D01*
X386830Y-24165D01*
X386805Y-24182D01*
X386796Y-24190D01*
X386788Y-24198D01*
X386696Y-24064D01*
X386612Y-23930D01*
X386536Y-23821D01*
X386461Y-23721D01*
X386402Y-23637D01*
X386360Y-23570D01*
X386327Y-23536D01*
X386318Y-23519D01*
D02*
G37*
G36*
X384483Y-24508D02*
X384081D01*
Y-26033D01*
X384483Y-25967D01*
Y-24508D01*
D02*
G37*
G36*
X386318Y-25279D02*
Y-26662D01*
X386444Y-26545D01*
X386570Y-26427D01*
X386687Y-26327D01*
X386796Y-26235D01*
X386888Y-26159D01*
X386964Y-26109D01*
X387014Y-26067D01*
X387031Y-26059D01*
Y-25497D01*
X386813Y-25774D01*
X386712Y-25673D01*
X386620Y-25581D01*
X386536Y-25497D01*
X386469Y-25422D01*
X386402Y-25363D01*
X386360Y-25321D01*
X386327Y-25288D01*
X386318Y-25279D01*
D02*
G37*
G36*
X-385075Y-1481D02*
X-386517D01*
Y-2989D01*
X-385075D01*
Y-1481D01*
D02*
G37*
G36*
Y-4003D02*
X-386517D01*
Y-5511D01*
X-385075D01*
Y-4003D01*
D02*
G37*
%LPD*%
D12*
X-147563Y-17000D02*
D03*
Y-10100D02*
D03*
X-328500Y-10500D02*
D03*
Y-17400D02*
D03*
X339000Y-17500D02*
D03*
Y-10600D02*
D03*
X143500Y-47000D02*
D03*
Y-53900D02*
D03*
X150500Y-47000D02*
D03*
Y-53900D02*
D03*
X148563Y-10500D02*
D03*
Y-17400D02*
D03*
X-27500Y-17000D02*
D03*
Y-10100D02*
D03*
X-144500Y-54000D02*
D03*
Y-47100D02*
D03*
X-151500Y-54000D02*
D03*
Y-47100D02*
D03*
D17*
X-143500Y-298500D02*
X-144139Y-299228D01*
X-144677Y-300034D01*
X-145106Y-300903D01*
X-145417Y-301820D01*
X-145606Y-302770D01*
X-145669Y-303737D01*
X-141475Y-296475D02*
X-140843Y-295768D01*
X-140295Y-294995D01*
X-139837Y-294166D01*
X-139474Y-293291D01*
X-139212Y-292380D01*
X-139053Y-291446D01*
X-139000Y-290500D01*
Y-306934D02*
X-138860Y-307999D01*
X-138449Y-308991D01*
X-137795Y-309842D01*
X-157929Y-297929D02*
X-157270Y-297202D01*
X-156685Y-296414D01*
X-156181Y-295572D01*
X-155761Y-294685D01*
X-155431Y-293761D01*
X-155192Y-292809D01*
X-155048Y-291838D01*
X-155000Y-290858D01*
X-160914Y-299500D02*
X-160030Y-299384D01*
X-159207Y-299043D01*
X-158500Y-298500D01*
X-163879Y-299500D02*
X-164878Y-299598D01*
X-165839Y-299890D01*
X-166724Y-300363D01*
X-167500Y-301000D01*
X-168123Y-301730D01*
X-168625Y-302548D01*
X-168992Y-303435D01*
X-169216Y-304368D01*
X-169291Y-305325D01*
X153500Y-309738D02*
X153543Y-309842D01*
X137795D02*
X138449Y-308991D01*
X138860Y-307999D01*
X139000Y-306934D01*
X149779Y-7563D02*
X149119Y-8423D01*
X148705Y-9425D01*
X148563Y-10500D01*
X147121D02*
X146123Y-10598D01*
X145162Y-10890D01*
X144277Y-11363D01*
X143501Y-11999D01*
X143500Y-12000D01*
X141929Y-13571D02*
X141270Y-14298D01*
X140685Y-15086D01*
X140181Y-15928D01*
X139761Y-16815D01*
X139431Y-17739D01*
X139192Y-18691D01*
X139048Y-19662D01*
X139000Y-20642D01*
X-29112Y-20891D02*
X-28427Y-20057D01*
X-27919Y-19106D01*
X-27606Y-18074D01*
X-27500Y-17000D01*
X-152879Y-55379D02*
X-153503Y-56091D01*
X-154030Y-56879D01*
X-154449Y-57728D01*
X-154753Y-58626D01*
X-154938Y-59555D01*
X-155000Y-60500D01*
X-328500Y-10500D02*
X-329009Y-9271D01*
X-139000Y-41985D02*
X-139048Y-41004D01*
X-139192Y-40034D01*
X-139431Y-39082D01*
X-139761Y-38158D01*
X-140181Y-37271D01*
X-140685Y-36429D01*
X-141270Y-35641D01*
X-141929Y-34914D01*
X-148468Y-19184D02*
X-147798Y-18182D01*
X-147563Y-17000D01*
X337742Y-20538D02*
X338424Y-19648D01*
X338854Y-18612D01*
X339000Y-17500D01*
X153586Y-43914D02*
X154186Y-43183D01*
X154632Y-42348D01*
X154907Y-41442D01*
X155000Y-40500D01*
X-329009Y-9271D02*
X-329010Y-9270D01*
X-139000Y-290500D02*
Y-41985D01*
X-143500Y-298500D02*
X-141475Y-296475D01*
X-145669Y-309842D02*
Y-303737D01*
X-139000Y-306934D02*
Y-303500D01*
X-155000Y-288000D02*
X-155000Y-60500D01*
X-158500Y-298500D02*
X-157929Y-297929D01*
X-163879Y-299500D02*
X-160914D01*
X-169291Y-309842D02*
Y-305325D01*
X-155000Y-290858D02*
Y-288000D01*
X153500Y-309738D02*
Y-303500D01*
X161417Y-309842D02*
Y-303500D01*
X139000Y-287000D02*
X139000Y-20642D01*
X139000Y-306934D02*
Y-287000D01*
X149779Y-7563D02*
X153563Y-3779D01*
X147121Y-10500D02*
X148563D01*
X143500Y-12000D02*
X143501Y-11999D01*
X141929Y-13571D02*
X143500Y-12000D01*
X-32000Y-23779D02*
X-29112Y-20891D01*
X-152879Y-55379D02*
X-151500Y-54000D01*
X-329010Y-9270D02*
X-329009Y-9271D01*
X-334500Y-3779D02*
X-329010Y-9270D01*
X-153063Y-23779D02*
X-141929Y-34914D01*
X-153063Y-23779D02*
X-148468Y-19184D01*
X334500Y-23779D02*
X337742Y-20538D01*
X143500Y-47000D02*
X150500D01*
X153586Y-43914D01*
X-151500Y-54000D02*
X-144500D01*
D19*
X-32000Y-23779D02*
D03*
Y-3779D02*
D03*
X-153063Y-23779D02*
D03*
Y-3779D02*
D03*
X334500Y-23779D02*
D03*
Y-3779D02*
D03*
X153563D02*
D03*
Y-23779D02*
D03*
X155000Y-40500D02*
D03*
Y-60500D02*
D03*
X-155000D02*
D03*
Y-40500D02*
D03*
X-334500Y-3779D02*
D03*
Y-23779D02*
D03*
D20*
X244500Y-4335D02*
D03*
X184500Y-4036D02*
D03*
X98000Y-4500D02*
D03*
X77000Y-23806D02*
D03*
X13500Y-23779D02*
D03*
X37000Y-4000D02*
D03*
X-6000D02*
D03*
X-48500Y-3779D02*
D03*
X-94000D02*
D03*
X-211500Y-24500D02*
D03*
X-275500D02*
D03*
X-183819Y-24707D02*
D03*
X-178291Y-21478D02*
D03*
X169291Y-312500D02*
D03*
X146000Y-311000D02*
D03*
X-153500Y-312500D02*
D03*
X333500Y-13500D02*
D03*
X344500Y-23779D02*
D03*
X175500Y-305059D02*
D03*
X179839Y-303359D02*
D03*
X173500Y-300476D02*
D03*
X165500Y-299866D02*
D03*
X144061Y-301296D02*
D03*
X155059Y-287500D02*
D03*
X156665Y-49098D02*
D03*
Y-34500D02*
D03*
X164000Y-3000D02*
D03*
X145828Y-24906D02*
D03*
X143000Y-6965D02*
D03*
X153343Y-14000D02*
D03*
X-32000Y-13500D02*
D03*
X-22000Y-22852D02*
D03*
X-320500Y-20535D02*
D03*
X-152843Y-14000D02*
D03*
X-144019Y-22852D02*
D03*
Y-26708D02*
D03*
X-138208Y-32099D02*
D03*
X-156896Y-50500D02*
D03*
X-137441Y-297592D02*
D03*
X-146385Y-292975D02*
D03*
X-148500Y-297592D02*
D03*
X-153000Y-300785D02*
D03*
X-173000Y-299901D02*
D03*
X-178000Y-301657D02*
D03*
X-175500Y-306200D02*
D03*
X-180000Y-306059D02*
D03*
D21*
X-139000Y-303500D02*
D03*
X-161417Y-304500D02*
D03*
X153500Y-303500D02*
D03*
X161417D02*
D03*
D22*
X145669Y-309842D02*
D03*
X153543D02*
D03*
X161417D02*
D03*
X169291D02*
D03*
X137795D02*
D03*
X-137795D02*
D03*
X-169291D02*
D03*
X-161417D02*
D03*
X-153543D02*
D03*
X-145669D02*
D03*
M02*
