G04*
G04 #@! TF.GenerationSoftware,Altium Limited,Altium Designer,20.1.11 (218)*
G04*
G04 Layer_Color=8388736*
%FSLAX25Y25*%
%MOIN*%
G70*
G04*
G04 #@! TF.SameCoordinates,67DEA893-D948-4B9D-9317-8289C47B3BC5*
G04*
G04*
G04 #@! TF.FilePolarity,Negative*
G04*
G01*
G75*
%ADD13R,0.04300X0.04600*%
%ADD14R,0.00800X0.00800*%
%ADD15C,0.06706*%
%ADD16C,0.05800*%
D13*
X-157563Y-17000D02*
D03*
Y-10100D02*
D03*
X-325000Y-10000D02*
D03*
Y-16900D02*
D03*
X-37000Y-17500D02*
D03*
Y-10600D02*
D03*
X325500Y-17500D02*
D03*
Y-10600D02*
D03*
X158563Y-10500D02*
D03*
Y-17400D02*
D03*
D14*
X-92500Y-13500D02*
D03*
X55500D02*
D03*
X243000D02*
D03*
X-250000Y-14000D02*
D03*
X366000Y-13500D02*
D03*
X-366000Y-14000D02*
D03*
D15*
X-32000Y-23779D02*
D03*
Y-3779D02*
D03*
X-153063Y-23779D02*
D03*
Y-3779D02*
D03*
X334500Y-23779D02*
D03*
Y-3779D02*
D03*
X153563D02*
D03*
Y-23779D02*
D03*
X155000Y-40500D02*
D03*
Y-60500D02*
D03*
X-155000D02*
D03*
Y-40500D02*
D03*
X-334500Y-3779D02*
D03*
Y-23779D02*
D03*
D16*
X-139000Y-303500D02*
D03*
X-161417Y-304500D02*
D03*
X153500Y-303500D02*
D03*
X161417D02*
D03*
M02*
