G04*
G04 #@! TF.GenerationSoftware,Altium Limited,Altium Designer,20.1.11 (218)*
G04*
G04 Layer_Physical_Order=1*
G04 Layer_Color=32768*
%FSLAX25Y25*%
%MOIN*%
G70*
G04*
G04 #@! TF.SameCoordinates,67DEA893-D948-4B9D-9317-8289C47B3BC5*
G04*
G04*
G04 #@! TF.FilePolarity,Positive*
G04*
G01*
G75*
%ADD12R,0.03500X0.03800*%
%ADD17C,0.03150*%
%ADD18R,0.03000X0.08000*%
%ADD19C,0.05906*%
%ADD20C,0.02400*%
%ADD21C,0.05000*%
G36*
X-332283Y-1806D02*
X-332151Y-1890D01*
X-331994Y-1964D01*
X-331814Y-2028D01*
X-331610Y-2082D01*
X-331382Y-2126D01*
X-331130Y-2160D01*
X-330554Y-2200D01*
X-330231Y-2205D01*
Y-5354D01*
X-330554Y-5359D01*
X-331130Y-5399D01*
X-331382Y-5433D01*
X-331610Y-5477D01*
X-331814Y-5531D01*
X-331994Y-5596D01*
X-332151Y-5669D01*
X-332283Y-5753D01*
X-332391Y-5847D01*
Y-1713D01*
X-332283Y-1806D01*
D02*
G37*
G36*
X156526Y-3952D02*
X156561Y-4105D01*
X156619Y-4267D01*
X156701Y-4440D01*
X156807Y-4623D01*
X156937Y-4815D01*
X157091Y-5018D01*
X157470Y-5452D01*
X157695Y-5685D01*
X155468Y-7912D01*
X155236Y-7687D01*
X154801Y-7307D01*
X154599Y-7154D01*
X154406Y-7024D01*
X154223Y-6918D01*
X154051Y-6835D01*
X153888Y-6777D01*
X153735Y-6743D01*
X153593Y-6732D01*
X156516Y-3809D01*
X156526Y-3952D01*
D02*
G37*
G36*
X-320276Y-5354D02*
X-320874Y-5386D01*
X-321409Y-5480D01*
X-321882Y-5638D01*
X-322291Y-5858D01*
X-322638Y-6142D01*
X-322921Y-6488D01*
X-323142Y-6898D01*
X-323299Y-7370D01*
X-323300Y-7376D01*
X-323262Y-8112D01*
X-323405D01*
X-323425Y-8504D01*
X-326575D01*
X-326595Y-8112D01*
X-326738D01*
X-326707Y-8081D01*
X-326679Y-7986D01*
X-326655Y-7829D01*
X-326642Y-7701D01*
X-326701Y-7370D01*
X-326858Y-6898D01*
X-327079Y-6488D01*
X-327362Y-6142D01*
X-327709Y-5858D01*
X-328118Y-5638D01*
X-328591Y-5480D01*
X-329126Y-5386D01*
X-329724Y-5354D01*
X-325000Y-2205D01*
X-320276Y-5354D01*
D02*
G37*
G36*
X339500Y-26783D02*
X337193D01*
X337089Y-26478D01*
X337055Y-26283D01*
X337602Y-25570D01*
X337960Y-24707D01*
X338082Y-23779D01*
X337960Y-22852D01*
X337602Y-21989D01*
X337033Y-21247D01*
X336291Y-20678D01*
X335427Y-20320D01*
X334500Y-20198D01*
X333573Y-20320D01*
X332709Y-20678D01*
X331967Y-21247D01*
X331810Y-21452D01*
X331788Y-21463D01*
X331654Y-21510D01*
X331489Y-21554D01*
X331294Y-21592D01*
X331075Y-21622D01*
X330532Y-21659D01*
X330222Y-21664D01*
X330221Y-21664D01*
X327541D01*
Y-19998D01*
X327848D01*
Y-15002D01*
X323152D01*
Y-19998D01*
X323459D01*
Y-21664D01*
X164979D01*
X164927Y-21674D01*
X163229Y-21808D01*
X161523Y-22218D01*
X159902Y-22889D01*
X158406Y-23806D01*
X157118Y-24906D01*
X157071Y-24937D01*
X157070Y-24940D01*
X157067Y-24941D01*
X144333Y-37676D01*
X144312Y-37707D01*
X143136Y-39083D01*
X142172Y-40657D01*
X141465Y-42364D01*
X141034Y-44159D01*
X140892Y-45964D01*
X140884Y-46000D01*
X140884Y-291500D01*
X140876D01*
X141072Y-292987D01*
X141646Y-294373D01*
X142559Y-295563D01*
X142565Y-295556D01*
X142565Y-295556D01*
X149562Y-302554D01*
X149562Y-302555D01*
X150088Y-303102D01*
X150321Y-303372D01*
X150388Y-303459D01*
X150383Y-303500D01*
X150489Y-304307D01*
X150800Y-305059D01*
X151296Y-305704D01*
X151941Y-306200D01*
X152693Y-306511D01*
X153500Y-306617D01*
X154307Y-306511D01*
X155059Y-306200D01*
X155704Y-305704D01*
X156200Y-305059D01*
X156511Y-304307D01*
X156617Y-303500D01*
X156511Y-302693D01*
X156200Y-301941D01*
X156058Y-301757D01*
X156435Y-301426D01*
X157485Y-302476D01*
X157485Y-302477D01*
X157486Y-302477D01*
X157487Y-302479D01*
X157488Y-302480D01*
X158011Y-303027D01*
X158241Y-303297D01*
X158314Y-303393D01*
X158300Y-303500D01*
X158406Y-304307D01*
X158718Y-305059D01*
X159213Y-305704D01*
X159859Y-306200D01*
X160610Y-306511D01*
X161417Y-306617D01*
X162224Y-306511D01*
X162976Y-306200D01*
X163621Y-305704D01*
X164117Y-305059D01*
X164428Y-304307D01*
X164534Y-303500D01*
X164428Y-302693D01*
X164117Y-301941D01*
X163621Y-301296D01*
X162976Y-300800D01*
X162224Y-300489D01*
X161476Y-300391D01*
X160744Y-299749D01*
X160554Y-299561D01*
X160552Y-299561D01*
X153425Y-292433D01*
X153343Y-292378D01*
X152420Y-291254D01*
X151689Y-289886D01*
X151239Y-288402D01*
X151096Y-286954D01*
X151116Y-286858D01*
Y-50642D01*
X151096Y-50546D01*
X151239Y-49098D01*
X151689Y-47614D01*
X152420Y-46246D01*
X153343Y-45122D01*
X153425Y-45067D01*
X153475Y-45017D01*
X153476Y-45016D01*
X153926Y-44569D01*
X154503Y-44016D01*
X155000Y-44082D01*
X155927Y-43960D01*
X156791Y-43602D01*
X157533Y-43033D01*
X157779Y-42712D01*
X158279Y-42882D01*
Y-292913D01*
X158283Y-292933D01*
X158280Y-292953D01*
X158299Y-293336D01*
X158313Y-293394D01*
Y-293453D01*
X158463Y-294205D01*
X158493Y-294278D01*
X158508Y-294356D01*
X158802Y-295064D01*
X158845Y-295129D01*
X158876Y-295203D01*
X159301Y-295840D01*
X159357Y-295896D01*
X159401Y-295961D01*
X159943Y-296504D01*
X160009Y-296548D01*
X160065Y-296603D01*
X160702Y-297029D01*
X160775Y-297060D01*
X160841Y-297104D01*
X161549Y-297397D01*
X161627Y-297412D01*
X161700Y-297443D01*
X162451Y-297592D01*
X162511Y-297592D01*
X162569Y-297607D01*
X162952Y-297626D01*
X162972Y-297623D01*
X162991Y-297627D01*
X179839Y-297627D01*
X180449Y-297748D01*
X181025Y-297986D01*
X181542Y-298332D01*
X181983Y-298773D01*
X182328Y-299290D01*
X182567Y-299866D01*
X182688Y-300476D01*
Y-307860D01*
X171678Y-307885D01*
X171525Y-307916D01*
X171373Y-307946D01*
X171372Y-307947D01*
X171371Y-307947D01*
X171243Y-308033D01*
X171112Y-308120D01*
X171112Y-308121D01*
X171111Y-308122D01*
X171025Y-308251D01*
X170938Y-308381D01*
X170938Y-308382D01*
X170938Y-308382D01*
X170907Y-308537D01*
X170877Y-308688D01*
Y-314158D01*
X136590Y-314183D01*
X136236Y-313830D01*
X136209Y-31496D01*
X136205Y-31476D01*
X136208Y-31457D01*
X136190Y-31073D01*
X136175Y-31016D01*
Y-30956D01*
X136026Y-30204D01*
X135995Y-30131D01*
X135980Y-30054D01*
X135687Y-29346D01*
X135643Y-29280D01*
X135612Y-29207D01*
X135187Y-28569D01*
X135131Y-28514D01*
X135087Y-28448D01*
X134545Y-27906D01*
X134479Y-27862D01*
X134423Y-27806D01*
X133786Y-27380D01*
X133713Y-27350D01*
X133647Y-27306D01*
X132939Y-27013D01*
X132862Y-26997D01*
X132789Y-26967D01*
X132037Y-26817D01*
X131977Y-26817D01*
X131920Y-26803D01*
X131536Y-26784D01*
X131517Y-26787D01*
X131497Y-26783D01*
X-29307D01*
X-29411Y-26478D01*
X-29445Y-26283D01*
X-28898Y-25570D01*
X-28540Y-24707D01*
X-28418Y-23779D01*
X-28540Y-22852D01*
X-28898Y-21989D01*
X-29467Y-21247D01*
X-30209Y-20678D01*
X-30977Y-20360D01*
X-32977Y-18520D01*
X-33059Y-18435D01*
X-33749Y-17637D01*
X-34017Y-17277D01*
X-34243Y-16935D01*
X-34424Y-16616D01*
X-34559Y-16323D01*
X-34651Y-16058D01*
X-34652Y-16056D01*
Y-15002D01*
X-39348D01*
Y-19998D01*
X-38295D01*
X-38292Y-19999D01*
X-38027Y-20091D01*
X-37734Y-20226D01*
X-37415Y-20407D01*
X-37073Y-20633D01*
X-36713Y-20901D01*
X-36409Y-21164D01*
X-36595Y-21664D01*
X-131137D01*
X-131165Y-21670D01*
X-133032Y-21816D01*
X-134880Y-22260D01*
X-136636Y-22987D01*
X-138257Y-23981D01*
X-139681Y-25197D01*
X-139704Y-25213D01*
X-141067Y-26575D01*
X-141083Y-26599D01*
X-142299Y-28023D01*
X-143292Y-29643D01*
X-144019Y-31399D01*
X-144463Y-33247D01*
X-144610Y-35115D01*
X-144615Y-35142D01*
X-144615Y-292000D01*
Y-296158D01*
X-144610Y-296186D01*
X-144463Y-298053D01*
X-144019Y-299901D01*
X-143292Y-301657D01*
X-142837Y-302399D01*
X-142814Y-302515D01*
X-142108Y-303569D01*
X-142011Y-304307D01*
X-141700Y-305059D01*
X-141204Y-305704D01*
X-140559Y-306200D01*
X-139807Y-306511D01*
X-139000Y-306617D01*
X-138193Y-306511D01*
X-137441Y-306200D01*
X-136796Y-305704D01*
X-136709Y-305592D01*
X-136209Y-305761D01*
Y-314158D01*
X-170854Y-314184D01*
X-170877Y-308685D01*
X-170908Y-308533D01*
X-170938Y-308381D01*
X-170939Y-308379D01*
X-170940Y-308378D01*
X-171027Y-308248D01*
X-171112Y-308120D01*
X-171114Y-308119D01*
X-171115Y-308118D01*
X-171245Y-308032D01*
X-171373Y-307946D01*
X-171374Y-307946D01*
X-171376Y-307945D01*
X-171529Y-307915D01*
X-171680Y-307885D01*
X-182665D01*
X-182688Y-300785D01*
Y-300476D01*
X-182567Y-299865D01*
X-182329Y-299290D01*
X-181983Y-298773D01*
X-181542Y-298332D01*
X-181025Y-297986D01*
X-180449Y-297748D01*
X-179839Y-297627D01*
X-162992D01*
X-162972Y-297623D01*
X-162953Y-297626D01*
X-162569Y-297607D01*
X-162511Y-297592D01*
X-162451Y-297592D01*
X-161700Y-297443D01*
X-161627Y-297412D01*
X-161549Y-297397D01*
X-160841Y-297104D01*
X-160775Y-297060D01*
X-160702Y-297029D01*
X-160065Y-296603D01*
X-160009Y-296548D01*
X-159943Y-296504D01*
X-159401Y-295961D01*
X-159358Y-295896D01*
X-159301Y-295840D01*
X-158876Y-295203D01*
X-158845Y-295129D01*
X-158802Y-295064D01*
X-158508Y-294356D01*
X-158493Y-294278D01*
X-158463Y-294205D01*
X-158313Y-293453D01*
Y-293394D01*
X-158299Y-293336D01*
X-158280Y-292953D01*
X-158283Y-292933D01*
X-158279Y-292913D01*
Y-62882D01*
X-157779Y-62712D01*
X-157533Y-63033D01*
X-156791Y-63602D01*
X-155927Y-63960D01*
X-155000Y-64082D01*
X-154073Y-63960D01*
X-153209Y-63602D01*
X-152467Y-63033D01*
X-151898Y-62291D01*
X-151540Y-61427D01*
X-151418Y-60500D01*
X-151540Y-59573D01*
X-151898Y-58709D01*
X-152467Y-57967D01*
X-153209Y-57398D01*
X-154073Y-57040D01*
X-155000Y-56918D01*
X-155927Y-57040D01*
X-156791Y-57398D01*
X-157533Y-57967D01*
X-157779Y-58288D01*
X-158279Y-58118D01*
Y-31496D01*
X-158283Y-31476D01*
X-158280Y-31457D01*
X-158299Y-31073D01*
X-158313Y-31016D01*
Y-30956D01*
X-158455Y-30244D01*
X-158421Y-30201D01*
X-157930Y-30062D01*
X-152925Y-35067D01*
X-152843Y-35122D01*
X-151920Y-36246D01*
X-151189Y-37614D01*
X-150739Y-39098D01*
X-150596Y-40545D01*
X-150616Y-40642D01*
Y-287000D01*
X-150601Y-287071D01*
X-150716Y-288240D01*
X-151078Y-289432D01*
X-151665Y-290531D01*
X-152410Y-291439D01*
X-152471Y-291479D01*
X-162662Y-301670D01*
X-162976Y-301800D01*
X-163621Y-302296D01*
X-164117Y-302941D01*
X-164428Y-303693D01*
X-164534Y-304500D01*
X-164428Y-305307D01*
X-164117Y-306059D01*
X-163621Y-306704D01*
X-162976Y-307200D01*
X-162224Y-307511D01*
X-161417Y-307617D01*
X-160610Y-307511D01*
X-159859Y-307200D01*
X-159213Y-306704D01*
X-158718Y-306059D01*
X-158406Y-305307D01*
X-158300Y-304500D01*
X-158406Y-303693D01*
X-158458Y-303570D01*
X-158418Y-303507D01*
X-158338Y-303397D01*
X-157911Y-302908D01*
X-157725Y-302717D01*
X-157724Y-302716D01*
X-149479Y-294471D01*
X-149479Y-294471D01*
Y-294471D01*
X-149441Y-294413D01*
X-148409Y-293205D01*
X-147543Y-291793D01*
X-146909Y-290262D01*
X-146523Y-288651D01*
X-146398Y-287068D01*
X-146385Y-287000D01*
Y-40642D01*
X-146390Y-40615D01*
X-146537Y-38747D01*
X-146981Y-36899D01*
X-147708Y-35143D01*
X-148701Y-33523D01*
X-149917Y-32099D01*
X-149933Y-32075D01*
X-154396Y-27612D01*
X-154113Y-27189D01*
X-153990Y-27239D01*
X-153063Y-27361D01*
X-152136Y-27239D01*
X-151272Y-26882D01*
X-150530Y-26312D01*
X-149961Y-25570D01*
X-149603Y-24707D01*
X-149481Y-23779D01*
X-149603Y-22852D01*
X-149961Y-21989D01*
X-150530Y-21247D01*
X-151272Y-20678D01*
X-152136Y-20320D01*
X-153063Y-20198D01*
X-153585Y-20266D01*
X-154418Y-19432D01*
X-154613Y-19150D01*
X-154630Y-19139D01*
X-154635Y-19121D01*
X-154741Y-18987D01*
X-154755Y-18979D01*
X-154761Y-18964D01*
X-154864Y-18848D01*
X-154882Y-18839D01*
X-154890Y-18821D01*
X-154990Y-18723D01*
X-154998Y-18720D01*
X-155011Y-18704D01*
X-155215Y-18212D01*
Y-14502D01*
X-159911D01*
Y-19498D01*
X-159538D01*
X-158554Y-20926D01*
X-158391Y-21230D01*
X-158098Y-21588D01*
X-157850Y-21948D01*
X-157844Y-21951D01*
X-157842Y-21958D01*
X-157745Y-22018D01*
X-157469Y-22354D01*
X-157447Y-22387D01*
X-156576Y-23258D01*
X-156645Y-23779D01*
X-156523Y-24707D01*
X-156472Y-24829D01*
X-156896Y-25113D01*
X-163419Y-18589D01*
X-162144Y-17313D01*
X-161049Y-15675D01*
X-160296Y-13856D01*
X-159911Y-11924D01*
Y-10939D01*
Y-776D01*
X150871D01*
X150974Y-1081D01*
X151008Y-1276D01*
X150461Y-1989D01*
X150103Y-2853D01*
X149981Y-3779D01*
X150103Y-4707D01*
X150461Y-5570D01*
X151030Y-6312D01*
X151772Y-6882D01*
X152636Y-7239D01*
X153563Y-7361D01*
X153820Y-7327D01*
X153843Y-7336D01*
X153971Y-7397D01*
X154118Y-7482D01*
X154283Y-7594D01*
X154459Y-7727D01*
X154869Y-8085D01*
X155092Y-8301D01*
X155093Y-8301D01*
X155505Y-8714D01*
X155851Y-9059D01*
X156140Y-9439D01*
X156215Y-9550D01*
Y-12998D01*
X160911D01*
Y-8002D01*
X160136D01*
X159613Y-7023D01*
X158902Y-6156D01*
X158842Y-6067D01*
X158084Y-5309D01*
X158084Y-5308D01*
X157869Y-5086D01*
X157511Y-4676D01*
X157377Y-4500D01*
X157266Y-4335D01*
X157180Y-4187D01*
X157119Y-4059D01*
X157111Y-4036D01*
X157145Y-3779D01*
X157023Y-2853D01*
X156665Y-1989D01*
X156118Y-1276D01*
X156152Y-1081D01*
X156255Y-776D01*
X339500D01*
Y-26783D01*
D02*
G37*
G36*
X-155740Y-18897D02*
X-155651Y-18924D01*
X-155560Y-18968D01*
X-155465Y-19030D01*
X-155368Y-19110D01*
X-155268Y-19208D01*
X-155165Y-19324D01*
X-155059Y-19457D01*
X-154838Y-19778D01*
X-157404Y-21641D01*
X-159301Y-18888D01*
X-155825D01*
X-155740Y-18897D01*
D02*
G37*
G36*
X332391Y-25846D02*
X332283Y-25753D01*
X332151Y-25669D01*
X331994Y-25596D01*
X331814Y-25532D01*
X331610Y-25477D01*
X331382Y-25433D01*
X331130Y-25399D01*
X330554Y-25359D01*
X330231Y-25354D01*
Y-22205D01*
X330554Y-22200D01*
X331130Y-22160D01*
X331382Y-22126D01*
X331610Y-22082D01*
X331814Y-22028D01*
X331994Y-21964D01*
X332151Y-21890D01*
X332283Y-21806D01*
X332391Y-21713D01*
Y-25846D01*
D02*
G37*
G36*
X-35240Y-15900D02*
X-35173Y-16205D01*
X-35062Y-16526D01*
X-34906Y-16864D01*
X-34705Y-17218D01*
X-34460Y-17589D01*
X-34171Y-17976D01*
X-33458Y-18801D01*
X-33355Y-18907D01*
X-31123Y-20960D01*
X-34109Y-22491D01*
Y-25846D01*
X-34217Y-25753D01*
X-34350Y-25669D01*
X-34506Y-25596D01*
X-34686Y-25532D01*
X-34890Y-25477D01*
X-35118Y-25433D01*
X-35370Y-25399D01*
X-35946Y-25359D01*
X-36269Y-25354D01*
Y-22205D01*
X-35946Y-22200D01*
X-35370Y-22160D01*
X-35118Y-22126D01*
X-34903Y-22084D01*
X-34926Y-22031D01*
X-35036Y-21838D01*
X-35175Y-21635D01*
X-35341Y-21423D01*
X-35511Y-21229D01*
X-35549Y-21192D01*
X-36374Y-20479D01*
X-36761Y-20190D01*
X-37132Y-19945D01*
X-37486Y-19744D01*
X-37824Y-19588D01*
X-38145Y-19477D01*
X-38450Y-19410D01*
X-38738Y-19388D01*
X-35262Y-15612D01*
X-35240Y-15900D01*
D02*
G37*
G36*
X-131137Y-25895D02*
X-36279D01*
X-36278Y-25896D01*
X-35968Y-25900D01*
X-35425Y-25937D01*
X-35206Y-25967D01*
X-35011Y-26005D01*
X-34846Y-26049D01*
X-34712Y-26096D01*
X-34690Y-26107D01*
X-34555Y-26283D01*
X-34589Y-26478D01*
X-34692Y-26783D01*
X-131496D01*
X-131516Y-26787D01*
X-131535Y-26784D01*
X-131920Y-26803D01*
X-131977Y-26817D01*
X-132037Y-26817D01*
X-132789Y-26967D01*
X-132862Y-26997D01*
X-132939Y-27013D01*
X-133647Y-27306D01*
X-133713Y-27350D01*
X-133786Y-27380D01*
X-134423Y-27806D01*
X-134479Y-27862D01*
X-134545Y-27906D01*
X-135087Y-28448D01*
X-135131Y-28514D01*
X-135187Y-28569D01*
X-135612Y-29207D01*
X-135643Y-29280D01*
X-135687Y-29346D01*
X-135980Y-30054D01*
X-135995Y-30131D01*
X-136026Y-30204D01*
X-136175Y-30956D01*
Y-31016D01*
X-136190Y-31073D01*
X-136208Y-31457D01*
X-136205Y-31476D01*
X-136209Y-31496D01*
Y-301239D01*
X-136709Y-301408D01*
X-136796Y-301296D01*
X-137441Y-300800D01*
X-138193Y-300489D01*
X-139000Y-300383D01*
X-139095Y-300395D01*
X-139149Y-300338D01*
X-139231Y-300232D01*
X-139320Y-300100D01*
X-139379Y-299995D01*
X-139613Y-299557D01*
X-139643Y-299496D01*
X-139648Y-299492D01*
X-139811Y-299187D01*
X-140261Y-297702D01*
X-140404Y-296255D01*
X-140385Y-296158D01*
Y-292000D01*
X-140384Y-35142D01*
X-140404Y-35045D01*
X-140261Y-33598D01*
X-139811Y-32114D01*
X-139080Y-30746D01*
X-138157Y-29622D01*
X-138075Y-29567D01*
X-136713Y-28204D01*
X-136658Y-28122D01*
X-135534Y-27200D01*
X-134166Y-26469D01*
X-132681Y-26018D01*
X-131234Y-25876D01*
X-131137Y-25895D01*
D02*
G37*
G36*
X-337089Y-1081D02*
X-337055Y-1276D01*
X-337602Y-1989D01*
X-337960Y-2853D01*
X-338082Y-3779D01*
X-337960Y-4707D01*
X-337602Y-5570D01*
X-337033Y-6312D01*
X-336291Y-6882D01*
X-335427Y-7239D01*
X-334500Y-7361D01*
X-333573Y-7239D01*
X-332709Y-6882D01*
X-331967Y-6312D01*
X-331810Y-6107D01*
X-331788Y-6096D01*
X-331654Y-6049D01*
X-331489Y-6005D01*
X-331294Y-5967D01*
X-331075Y-5937D01*
X-330532Y-5900D01*
X-330222Y-5895D01*
X-330221Y-5895D01*
X-329749D01*
X-329187Y-5925D01*
X-328724Y-6006D01*
X-328333Y-6137D01*
X-328011Y-6310D01*
X-327747Y-6526D01*
X-327531Y-6791D01*
X-327404Y-7025D01*
X-327348Y-7502D01*
X-327348Y-7502D01*
Y-12498D01*
X-322652D01*
Y-7502D01*
X-322652Y-7502D01*
X-322596Y-7025D01*
X-322469Y-6791D01*
X-322253Y-6526D01*
X-321989Y-6310D01*
X-321667Y-6137D01*
X-321276Y-6006D01*
X-320813Y-5925D01*
X-320251Y-5895D01*
X-185363D01*
X-185266Y-5876D01*
X-183819Y-6018D01*
X-182334Y-6469D01*
X-180966Y-7200D01*
X-179842Y-8122D01*
X-179787Y-8204D01*
X-177500Y-10492D01*
Y-17561D01*
X-177303Y-18550D01*
X-176917Y-19482D01*
X-176357Y-20321D01*
X-176000Y-20678D01*
X-176000Y-20678D01*
Y-20678D01*
X-175646Y-21031D01*
X-175348Y-21330D01*
X-174231Y-22076D01*
X-172989Y-22590D01*
X-171672Y-22852D01*
X-170211D01*
X-168664Y-22545D01*
X-167207Y-21941D01*
X-166514Y-21478D01*
X-161562Y-26430D01*
X-161697Y-26925D01*
X-161740Y-26959D01*
X-162451Y-26817D01*
X-162511Y-26817D01*
X-162569Y-26803D01*
X-162952Y-26784D01*
X-162972Y-26787D01*
X-162991Y-26783D01*
X-339500D01*
X-339500Y-776D01*
X-337193D01*
X-337089Y-1081D01*
D02*
G37*
G36*
X158421Y-30201D02*
X158455Y-30244D01*
X158313Y-30956D01*
Y-31016D01*
X158299Y-31073D01*
X158280Y-31457D01*
X158283Y-31476D01*
X158279Y-31496D01*
Y-38118D01*
X157779Y-38288D01*
X157533Y-37967D01*
X156791Y-37398D01*
X155927Y-37040D01*
X155000Y-36918D01*
X154073Y-37040D01*
X153209Y-37398D01*
X152467Y-37967D01*
X151898Y-38709D01*
X151540Y-39573D01*
X151418Y-40500D01*
X151480Y-40973D01*
X150475Y-42033D01*
X150475Y-42034D01*
X150433Y-42075D01*
X150417Y-42099D01*
X149201Y-43523D01*
X148208Y-45143D01*
X147481Y-46899D01*
X147037Y-48747D01*
X146890Y-50615D01*
X146885Y-50642D01*
Y-286858D01*
X146890Y-286885D01*
X147037Y-288753D01*
X147481Y-290601D01*
X148208Y-292357D01*
X149201Y-293977D01*
X150417Y-295401D01*
X150433Y-295425D01*
X155574Y-300566D01*
X155243Y-300942D01*
X155059Y-300800D01*
X154307Y-300489D01*
X153500Y-300383D01*
X153463Y-300388D01*
X152752Y-299757D01*
X152560Y-299568D01*
X152559Y-299567D01*
X145556Y-292565D01*
X145514Y-292536D01*
X145212Y-292084D01*
X145106Y-291550D01*
X145115Y-291500D01*
X145115Y-46000D01*
X145097Y-45909D01*
X145234Y-44524D01*
X145665Y-43104D01*
X146364Y-41795D01*
X146992Y-41030D01*
X147324Y-40667D01*
X147324D01*
X147672Y-40320D01*
X157929Y-30062D01*
X158421Y-30201D01*
D02*
G37*
G36*
X154402Y-43392D02*
X154379Y-43402D01*
X154332Y-43438D01*
X154261Y-43499D01*
X153548Y-44182D01*
X153095Y-44633D01*
X150867Y-42405D01*
X152108Y-41098D01*
X154402Y-43392D01*
D02*
G37*
G36*
X160375Y-300146D02*
X161241Y-300904D01*
X161327Y-300957D01*
X161397Y-300989D01*
X161451Y-301000D01*
X158919Y-303416D01*
X158910Y-303356D01*
X158880Y-303280D01*
X158829Y-303189D01*
X158756Y-303081D01*
X158663Y-302958D01*
X158413Y-302664D01*
X157879Y-302106D01*
X160173Y-299946D01*
X160375Y-300146D01*
D02*
G37*
G36*
X152382Y-300152D02*
X153150Y-300834D01*
X153255Y-300907D01*
X153345Y-300959D01*
X153418Y-300990D01*
X153475Y-301000D01*
X151000Y-303475D01*
X150990Y-303418D01*
X150959Y-303345D01*
X150907Y-303255D01*
X150834Y-303150D01*
X150740Y-303029D01*
X150488Y-302737D01*
X149953Y-302180D01*
X152180Y-299953D01*
X152382Y-300152D01*
D02*
G37*
G36*
X-140010Y-299976D02*
X-139781Y-300384D01*
X-139670Y-300550D01*
X-139561Y-300689D01*
X-139455Y-300803D01*
X-139351Y-300891D01*
X-139250Y-300953D01*
X-139151Y-300990D01*
X-139054Y-301001D01*
X-141500Y-303504D01*
X-142365Y-302214D01*
X-140129Y-299734D01*
X-140010Y-299976D01*
D02*
G37*
G36*
X-158112Y-302339D02*
X-158309Y-302540D01*
X-158762Y-303059D01*
X-158867Y-303203D01*
X-158948Y-303333D01*
X-159007Y-303449D01*
X-159043Y-303551D01*
X-159056Y-303638D01*
X-159045Y-303711D01*
X-162159Y-302113D01*
X-161390Y-301163D01*
X-158112Y-302339D01*
D02*
G37*
%LPC*%
G36*
X313866Y-6965D02*
X172134D01*
X170859Y-7090D01*
X169633Y-7462D01*
X168503Y-8066D01*
X167513Y-8879D01*
X166700Y-9869D01*
X166096Y-10999D01*
X165724Y-12225D01*
X165598Y-13500D01*
X165724Y-14775D01*
X166096Y-16001D01*
X166700Y-17131D01*
X167513Y-18121D01*
X168503Y-18934D01*
X169633Y-19538D01*
X170859Y-19910D01*
X172134Y-20035D01*
X313866D01*
X315141Y-19910D01*
X316367Y-19538D01*
X317497Y-18934D01*
X318487Y-18121D01*
X319300Y-17131D01*
X319904Y-16001D01*
X320276Y-14775D01*
X320402Y-13500D01*
X320276Y-12225D01*
X319904Y-10999D01*
X319300Y-9869D01*
X318487Y-8879D01*
X317497Y-8066D01*
X316367Y-7462D01*
X315141Y-7090D01*
X313866Y-6965D01*
D02*
G37*
G36*
X126366D02*
X-15366D01*
X-16641Y-7090D01*
X-17867Y-7462D01*
X-18997Y-8066D01*
X-19987Y-8879D01*
X-20800Y-9869D01*
X-21404Y-10999D01*
X-21776Y-12225D01*
X-21902Y-13500D01*
X-21776Y-14775D01*
X-21404Y-16001D01*
X-20800Y-17131D01*
X-19987Y-18121D01*
X-18997Y-18934D01*
X-17867Y-19538D01*
X-16641Y-19910D01*
X-15366Y-20035D01*
X126366D01*
X127641Y-19910D01*
X128867Y-19538D01*
X129997Y-18934D01*
X130987Y-18121D01*
X131800Y-17131D01*
X132404Y-16001D01*
X132776Y-14775D01*
X132902Y-13500D01*
X132776Y-12225D01*
X132404Y-10999D01*
X131800Y-9869D01*
X130987Y-8879D01*
X129997Y-8066D01*
X128867Y-7462D01*
X127641Y-7090D01*
X126366Y-6965D01*
D02*
G37*
G36*
X-47224D02*
X-137776D01*
X-139051Y-7090D01*
X-140277Y-7462D01*
X-141407Y-8066D01*
X-142397Y-8879D01*
X-143210Y-9869D01*
X-143814Y-10999D01*
X-144185Y-12225D01*
X-144311Y-13500D01*
X-144185Y-14775D01*
X-143814Y-16001D01*
X-143210Y-17131D01*
X-142397Y-18121D01*
X-141407Y-18934D01*
X-140277Y-19538D01*
X-139051Y-19910D01*
X-137776Y-20035D01*
X-47224D01*
X-45949Y-19910D01*
X-44723Y-19538D01*
X-43593Y-18934D01*
X-42603Y-18121D01*
X-41790Y-17131D01*
X-41186Y-16001D01*
X-40815Y-14775D01*
X-40689Y-13500D01*
X-40815Y-12225D01*
X-41186Y-10999D01*
X-41790Y-9869D01*
X-42603Y-8879D01*
X-43593Y-8066D01*
X-44723Y-7462D01*
X-45949Y-7090D01*
X-47224Y-6965D01*
D02*
G37*
G36*
X-185039Y-7465D02*
X-314961D01*
X-316236Y-7590D01*
X-317462Y-7962D01*
X-318591Y-8566D01*
X-319582Y-9379D01*
X-320395Y-10369D01*
X-320999Y-11499D01*
X-321371Y-12725D01*
X-321496Y-14000D01*
X-321371Y-15275D01*
X-320999Y-16501D01*
X-320395Y-17631D01*
X-319582Y-18621D01*
X-318591Y-19434D01*
X-317462Y-20038D01*
X-316236Y-20410D01*
X-314961Y-20535D01*
X-185039D01*
X-183764Y-20410D01*
X-182538Y-20038D01*
X-181409Y-19434D01*
X-180418Y-18621D01*
X-179605Y-17631D01*
X-179001Y-16501D01*
X-178630Y-15275D01*
X-178504Y-14000D01*
X-178630Y-12725D01*
X-179001Y-11499D01*
X-179605Y-10369D01*
X-180418Y-9379D01*
X-181409Y-8566D01*
X-182538Y-7962D01*
X-183764Y-7590D01*
X-185039Y-7465D01*
D02*
G37*
%LPD*%
D12*
X-157563Y-17000D02*
D03*
Y-10100D02*
D03*
X-325000Y-10000D02*
D03*
Y-16900D02*
D03*
X-37000Y-17500D02*
D03*
Y-10600D02*
D03*
X325500Y-17500D02*
D03*
Y-10600D02*
D03*
X158563Y-10500D02*
D03*
Y-17400D02*
D03*
D17*
X-142500Y-296158D02*
X-142452Y-297138D01*
X-142308Y-298109D01*
X-142069Y-299061D01*
X-141739Y-299985D01*
X-141319Y-300872D01*
X-140815Y-301714D01*
X-140230Y-302502D01*
X-139571Y-303229D01*
X-139000Y-303500D02*
X-138788Y-304012D01*
X-161500Y-304300D02*
X-161417Y-304500D01*
X-150975Y-292975D02*
X-150344Y-292268D01*
X-149795Y-291495D01*
X-149337Y-290666D01*
X-148974Y-289791D01*
X-148712Y-288880D01*
X-148553Y-287946D01*
X-148500Y-287000D01*
X143000Y-291500D02*
X143123Y-292437D01*
X143485Y-293311D01*
X144061Y-294061D01*
X161359Y-303359D02*
X161359Y-303359D01*
X161417Y-303500D02*
X161359Y-303359D01*
X149000Y-286858D02*
X149048Y-287838D01*
X149192Y-288809D01*
X149431Y-289761D01*
X149761Y-290685D01*
X150181Y-291572D01*
X150685Y-292414D01*
X151270Y-293202D01*
X151929Y-293929D01*
X158563Y-10500D02*
X158422Y-9425D01*
X158007Y-8423D01*
X157346Y-7563D01*
X164979Y-23779D02*
X163964Y-23836D01*
X162961Y-24007D01*
X161984Y-24288D01*
X161045Y-24677D01*
X160155Y-25168D01*
X159326Y-25756D01*
X158567Y-26433D01*
X145828Y-39172D02*
X145192Y-39874D01*
X144627Y-40635D01*
X144140Y-41448D01*
X143735Y-42305D01*
X143416Y-43197D01*
X143185Y-44116D01*
X143046Y-45053D01*
X143000Y-46000D01*
X-32000Y-23779D02*
X-32235Y-22597D01*
X-32905Y-21595D01*
X-131137Y-23779D02*
X-132118Y-23828D01*
X-133088Y-23972D01*
X-134040Y-24210D01*
X-134964Y-24541D01*
X-135851Y-24960D01*
X-136693Y-25465D01*
X-137481Y-26049D01*
X-138208Y-26708D01*
X-139571Y-28071D02*
X-140230Y-28798D01*
X-140815Y-29586D01*
X-141319Y-30428D01*
X-141739Y-31315D01*
X-142069Y-32239D01*
X-142308Y-33191D01*
X-142452Y-34162D01*
X-142500Y-35142D01*
X158567Y-26433D02*
X158563Y-26437D01*
X-148500Y-40642D02*
X-148548Y-39662D01*
X-148692Y-38691D01*
X-148931Y-37739D01*
X-149261Y-36815D01*
X-149681Y-35928D01*
X-150185Y-35086D01*
X-150770Y-34298D01*
X-151429Y-33571D01*
X-178291Y-6708D02*
X-179019Y-6049D01*
X-179807Y-5465D01*
X-180649Y-4960D01*
X-181536Y-4541D01*
X-182460Y-4210D01*
X-183412Y-3972D01*
X-184382Y-3828D01*
X-185363Y-3779D01*
X-157563Y-17000D02*
X-157457Y-18074D01*
X-157144Y-19106D01*
X-156635Y-20057D01*
X-155951Y-20891D01*
X151929Y-43571D02*
X151270Y-44298D01*
X150685Y-45086D01*
X150181Y-45928D01*
X149761Y-46815D01*
X149431Y-47739D01*
X149192Y-48691D01*
X149048Y-49662D01*
X149000Y-50642D01*
X-142500Y-292000D02*
X-142500Y-35142D01*
X-142500Y-296158D02*
Y-292000D01*
X-138788Y-304012D02*
X-138788Y-304012D01*
X-139571Y-303229D02*
X-138788Y-304012D01*
X-148500Y-287000D02*
Y-40642D01*
X-161500Y-304300D02*
Y-303500D01*
X-150975Y-292975D01*
X143000Y-291500D02*
X143000Y-46000D01*
X144061Y-294061D02*
X153500Y-303500D01*
X161359Y-303359D02*
X161359Y-303359D01*
X151929Y-293929D02*
X161359Y-303359D01*
X149000Y-286858D02*
Y-50642D01*
X153563Y-3779D02*
X157346Y-7563D01*
X164979Y-23779D02*
X334500D01*
X145828Y-39172D02*
X158563Y-26437D01*
X-131137Y-23779D02*
X-32000D01*
X-139571Y-28071D02*
X-138208Y-26708D01*
X-37000Y-17500D02*
X-32905Y-21595D01*
X-178291Y-6708D02*
X-151429Y-33571D01*
X-325000Y-3779D02*
X-185363D01*
X-334500D02*
X-325000D01*
Y-10000D02*
Y-3779D01*
X-155951Y-20891D02*
X-153063Y-23779D01*
X151929Y-43571D02*
X155000Y-40500D01*
D18*
X325500Y-20000D02*
D03*
D19*
X-32000Y-23779D02*
D03*
Y-3779D02*
D03*
X-153063Y-23779D02*
D03*
Y-3779D02*
D03*
X334500Y-23779D02*
D03*
Y-3779D02*
D03*
X153563D02*
D03*
Y-23779D02*
D03*
X155000Y-40500D02*
D03*
Y-60500D02*
D03*
X-155000D02*
D03*
Y-40500D02*
D03*
X-334500Y-3779D02*
D03*
Y-23779D02*
D03*
D20*
X244500Y-4335D02*
D03*
X184500Y-4036D02*
D03*
X98000Y-4500D02*
D03*
X77000Y-23806D02*
D03*
X13500Y-23779D02*
D03*
X37000Y-4000D02*
D03*
X-6000D02*
D03*
X-48500Y-3779D02*
D03*
X-94000D02*
D03*
X-211500Y-24500D02*
D03*
X-275500D02*
D03*
X-183819Y-24707D02*
D03*
X-178291Y-21478D02*
D03*
X169291Y-312500D02*
D03*
X146000Y-311000D02*
D03*
X-153500Y-312500D02*
D03*
X333500Y-13500D02*
D03*
X344500Y-23779D02*
D03*
X175500Y-305059D02*
D03*
X179839Y-303359D02*
D03*
X173500Y-300476D02*
D03*
X165500Y-299866D02*
D03*
X144061Y-301296D02*
D03*
X155059Y-287500D02*
D03*
X156665Y-49098D02*
D03*
Y-34500D02*
D03*
X164000Y-3000D02*
D03*
X145828Y-24906D02*
D03*
X143000Y-6965D02*
D03*
X153343Y-14000D02*
D03*
X-32000Y-13500D02*
D03*
X-22000Y-22852D02*
D03*
X-320500Y-20535D02*
D03*
X-152843Y-14000D02*
D03*
X-144019Y-22852D02*
D03*
Y-26708D02*
D03*
X-138208Y-32099D02*
D03*
X-156896Y-50500D02*
D03*
X-137441Y-297592D02*
D03*
X-146385Y-292975D02*
D03*
X-148500Y-297592D02*
D03*
X-153000Y-300785D02*
D03*
X-173000Y-299901D02*
D03*
X-178000Y-301657D02*
D03*
X-175500Y-306200D02*
D03*
X-180000Y-306059D02*
D03*
D21*
X-139000Y-303500D02*
D03*
X-161417Y-304500D02*
D03*
X153500Y-303500D02*
D03*
X161417D02*
D03*
M02*
