G04*
G04 #@! TF.GenerationSoftware,Altium Limited,Altium Designer,20.1.11 (218)*
G04*
G04 Layer_Color=32896*
%FSLAX25Y25*%
%MOIN*%
G70*
G04*
G04 #@! TF.SameCoordinates,67DEA893-D948-4B9D-9317-8289C47B3BC5*
G04*
G04*
G04 #@! TF.FilePolarity,Positive*
G04*
G01*
G75*
%ADD10C,0.01000*%
%ADD11C,0.02600*%
D10*
X-150463Y-19200D02*
X-149573Y-19770D01*
X-148576Y-20120D01*
X-147526Y-20233D01*
X-146477Y-20101D01*
X-145487Y-19733D01*
X-144607Y-19148D01*
X-144663Y-8000D02*
X-145553Y-7430D01*
X-146550Y-7080D01*
X-147600Y-6967D01*
X-148649Y-7099D01*
X-149639Y-7467D01*
X-150519Y-8052D01*
X-325600Y-8300D02*
X-326490Y-7730D01*
X-327487Y-7380D01*
X-328537Y-7267D01*
X-329586Y-7399D01*
X-330576Y-7767D01*
X-331456Y-8352D01*
X-331400Y-19500D02*
X-330510Y-20070D01*
X-329513Y-20420D01*
X-328463Y-20533D01*
X-327414Y-20401D01*
X-326424Y-20033D01*
X-325544Y-19448D01*
X336100Y-19700D02*
X336990Y-20270D01*
X337987Y-20620D01*
X339037Y-20733D01*
X340086Y-20601D01*
X341076Y-20233D01*
X341956Y-19648D01*
X341900Y-8500D02*
X341010Y-7930D01*
X340013Y-7580D01*
X338963Y-7467D01*
X337914Y-7599D01*
X336924Y-7967D01*
X336044Y-8552D01*
X146400Y-44800D02*
X145510Y-44230D01*
X144513Y-43880D01*
X143463Y-43767D01*
X142414Y-43899D01*
X141424Y-44267D01*
X140544Y-44852D01*
X140600Y-56000D02*
X141490Y-56570D01*
X142487Y-56920D01*
X143537Y-57033D01*
X144586Y-56901D01*
X145576Y-56533D01*
X146456Y-55948D01*
X153400Y-44800D02*
X152510Y-44230D01*
X151513Y-43880D01*
X150463Y-43767D01*
X149414Y-43899D01*
X148424Y-44267D01*
X147544Y-44852D01*
X147600Y-56000D02*
X148490Y-56570D01*
X149487Y-56920D01*
X150537Y-57033D01*
X151586Y-56901D01*
X152576Y-56533D01*
X153456Y-55948D01*
X151463Y-8300D02*
X150573Y-7730D01*
X149576Y-7380D01*
X148526Y-7267D01*
X147477Y-7399D01*
X146487Y-7767D01*
X145607Y-8352D01*
X145663Y-19500D02*
X146553Y-20070D01*
X147550Y-20420D01*
X148600Y-20533D01*
X149649Y-20401D01*
X150639Y-20033D01*
X151519Y-19448D01*
X-30400Y-19200D02*
X-29510Y-19770D01*
X-28513Y-20120D01*
X-27463Y-20233D01*
X-26414Y-20101D01*
X-25424Y-19733D01*
X-24544Y-19148D01*
X-24600Y-8000D02*
X-25490Y-7430D01*
X-26487Y-7080D01*
X-27537Y-6967D01*
X-28586Y-7099D01*
X-29576Y-7467D01*
X-30456Y-8052D01*
X-147400Y-56200D02*
X-146510Y-56770D01*
X-145513Y-57120D01*
X-144463Y-57233D01*
X-143414Y-57101D01*
X-142424Y-56733D01*
X-141544Y-56148D01*
X-141600Y-45000D02*
X-142490Y-44430D01*
X-143487Y-44080D01*
X-144537Y-43967D01*
X-145586Y-44099D01*
X-146576Y-44467D01*
X-147456Y-45052D01*
X-154400Y-56200D02*
X-153510Y-56770D01*
X-152513Y-57120D01*
X-151463Y-57233D01*
X-150414Y-57101D01*
X-149424Y-56733D01*
X-148544Y-56148D01*
X-148600Y-45000D02*
X-149490Y-44430D01*
X-150487Y-44080D01*
X-151537Y-43967D01*
X-152586Y-44099D01*
X-153576Y-44467D01*
X-154456Y-45052D01*
X-158063Y-31280D02*
Y3720D01*
X-208063Y-31280D02*
Y3720D01*
X-148063D01*
X-208063Y-31280D02*
X-148063D01*
Y3720D01*
X-144563Y-11800D02*
Y-8100D01*
X-150563Y-11800D02*
Y-8100D01*
Y-19100D02*
Y-15300D01*
X-144563Y-19000D02*
Y-15300D01*
X158563Y-31280D02*
Y3720D01*
X208563Y-31280D02*
Y3720D01*
X148563Y-31280D02*
X208563D01*
X148563Y3720D02*
X208563D01*
X148563Y-31280D02*
Y3720D01*
X-331500Y-19400D02*
Y-15700D01*
X-325500Y-19400D02*
Y-15700D01*
Y-12200D02*
Y-8400D01*
X-331500Y-12200D02*
Y-8500D01*
X342000Y-12300D02*
Y-8600D01*
X336000Y-12300D02*
Y-8600D01*
Y-19600D02*
Y-15800D01*
X342000Y-19500D02*
Y-15800D01*
X140500Y-55900D02*
Y-52200D01*
X146500Y-55900D02*
Y-52200D01*
Y-48700D02*
Y-44900D01*
X140500Y-48700D02*
Y-45000D01*
X147500Y-55900D02*
Y-52200D01*
X153500Y-55900D02*
Y-52200D01*
Y-48700D02*
Y-44900D01*
X147500Y-48700D02*
Y-45000D01*
X145563Y-19400D02*
Y-15700D01*
X151563Y-19400D02*
Y-15700D01*
Y-12200D02*
Y-8400D01*
X145563Y-12200D02*
Y-8500D01*
X-24500Y-11800D02*
Y-8100D01*
X-30500Y-11800D02*
Y-8100D01*
Y-19100D02*
Y-15300D01*
X-24500Y-19000D02*
Y-15300D01*
X-141500Y-48800D02*
Y-45100D01*
X-147500Y-48800D02*
Y-45100D01*
Y-56100D02*
Y-52300D01*
X-141500Y-56000D02*
Y-52300D01*
X-148500Y-48800D02*
Y-45100D01*
X-154500Y-48800D02*
Y-45100D01*
Y-56100D02*
Y-52300D01*
X-148500Y-56000D02*
Y-52300D01*
X-210065Y-2501D02*
Y-8499D01*
X-214063D01*
X-220061D02*
X-216063D01*
X-220061Y-4500D01*
Y-3501D01*
X-219062Y-2501D01*
X-217062D01*
X-216063Y-3501D01*
X142563Y-5301D02*
Y-11299D01*
X138564D01*
X132566Y-5301D02*
X136565D01*
Y-8300D01*
X134566Y-7300D01*
X133566D01*
X132566Y-8300D01*
Y-10299D01*
X133566Y-11299D01*
X135565D01*
X136565Y-10299D01*
D11*
X-142600Y-104972D02*
Y-97100D01*
X-150471Y-104972D01*
X-152439D01*
X-154407Y-103004D01*
Y-99068D01*
X-152439Y-97100D01*
Y-108907D02*
X-154407Y-110875D01*
Y-114811D01*
X-152439Y-116779D01*
X-144568D01*
X-142600Y-114811D01*
Y-110875D01*
X-144568Y-108907D01*
X-152439D01*
X-142600Y-128586D02*
Y-120714D01*
X-150471Y-128586D01*
X-152439D01*
X-154407Y-126618D01*
Y-122682D01*
X-152439Y-120714D01*
Y-132522D02*
X-154407Y-134490D01*
Y-138425D01*
X-152439Y-140393D01*
X-144568D01*
X-142600Y-138425D01*
Y-134490D01*
X-144568Y-132522D01*
X-152439D01*
X-142600Y-144329D02*
X-150471Y-152200D01*
X-154407Y-156136D02*
Y-164007D01*
X-152439D01*
X-144568Y-156136D01*
X-142600D01*
Y-167943D02*
X-150471Y-175815D01*
X-142600Y-179750D02*
Y-183686D01*
Y-181718D01*
X-154407D01*
X-152439Y-179750D01*
X155400Y-75036D02*
Y-77004D01*
X153432Y-78971D01*
X143593D01*
Y-73068D01*
X145561Y-71100D01*
X149496D01*
X151464Y-73068D01*
Y-78971D01*
Y-82907D02*
Y-86843D01*
Y-84875D01*
X143593D01*
Y-82907D01*
X141625Y-94714D02*
X143593D01*
Y-92747D01*
Y-96682D01*
Y-94714D01*
X149496D01*
X151464Y-96682D01*
X139657Y-102586D02*
X151464D01*
X145561D01*
X143593Y-104554D01*
Y-108490D01*
X145561Y-110457D01*
X151464D01*
X143593Y-114393D02*
X149496D01*
X151464Y-116361D01*
Y-122265D01*
X143593D01*
X139657Y-126200D02*
X151464D01*
Y-132104D01*
X149496Y-134072D01*
X147529D01*
X145561D01*
X143593Y-132104D01*
Y-126200D01*
X151464Y-138007D02*
X149496D01*
Y-139975D01*
X151464D01*
Y-138007D01*
X143593Y-155718D02*
Y-149815D01*
X145561Y-147847D01*
X149496D01*
X151464Y-149815D01*
Y-155718D01*
Y-161622D02*
Y-165558D01*
X149496Y-167525D01*
X145561D01*
X143593Y-165558D01*
Y-161622D01*
X145561Y-159654D01*
X149496D01*
X151464Y-161622D01*
Y-171461D02*
X143593D01*
Y-173429D01*
X145561Y-175397D01*
X151464D01*
X145561D01*
X143593Y-177365D01*
X145561Y-179333D01*
X151464D01*
Y-183268D02*
X143593Y-191140D01*
X141625Y-202947D02*
X139657Y-200979D01*
Y-197044D01*
X141625Y-195076D01*
X149496D01*
X151464Y-197044D01*
Y-200979D01*
X149496Y-202947D01*
X141625Y-214754D02*
X139657Y-212786D01*
Y-208851D01*
X141625Y-206883D01*
X143593D01*
X145561Y-208851D01*
Y-212786D01*
X147529Y-214754D01*
X149496D01*
X151464Y-212786D01*
Y-208851D01*
X149496Y-206883D01*
X139657Y-218690D02*
X149496D01*
X151464Y-220658D01*
Y-224594D01*
X149496Y-226561D01*
X139657D01*
X145561Y-230497D02*
Y-238369D01*
X151464Y-242304D02*
Y-246240D01*
Y-244272D01*
X143593D01*
Y-242304D01*
X151464Y-252144D02*
X139657D01*
X143593Y-256080D01*
X139657Y-260015D01*
X151464D01*
X143593Y-265919D02*
Y-269855D01*
X145561Y-271822D01*
X151464D01*
Y-265919D01*
X149496Y-263951D01*
X147529Y-265919D01*
Y-271822D01*
X155400Y-279694D02*
Y-281662D01*
X153432Y-283630D01*
X143593D01*
Y-277726D01*
X145561Y-275758D01*
X149496D01*
X151464Y-277726D01*
Y-283630D01*
M02*
