M48
;Layer_Color=9474304
;FILE_FORMAT=2:5
INCH,LZ
;TYPE=PLATED
T1F00S00C0.01200
T2F00S00C0.02800
T3F00S00C0.03543
%
T01
X-018Y-0306059
X-01755Y-03062
X-0178Y-0301657
X-0173Y-0299901
X-0153Y-0300785
X-01485Y-0297592
X-0146385Y-0292975
X-01535Y-03125
X-0137441Y-0297592
X0144061Y-0301296
X0146Y-0311
X01655Y-0299866
X0155059Y-02875
X01735Y-0300476
X01755Y-0305059
X0179839Y-0303359
X0169291Y-03125
X-03205Y-0020535
X-02755Y-00245
X-02115
X-0183819Y-0024707
X-0178291Y-0021478
X-0152843Y-0014
X-0156896Y-00505
X-0144019Y-0026708
Y-0022852
X-0138208Y-0032099
X-0094Y-0003779
X-00485
X-0032Y-00135
X-0022Y-0022852
X-0006Y-0004
X00135Y-0023779
X0037Y-0004
X0077Y-0023806
X0098Y-00045
X0143Y-0006965
X0153343Y-0014
X0145828Y-0024906
X0156665Y-00345
Y-0049098
X0164Y-0003
X01845Y-0004036
X02445Y-0004335
X03335Y-00135
X03445Y-0023779
T02
X-0161417Y-03045
X-0139Y-03035
X01535
X0161417
T03
X-03345Y-0023779
Y-0003779
X-0153063
Y-0023779
X-0155Y-00405
Y-00605
X-0032Y-0023779
Y-0003779
X0153563
Y-0023779
X0155Y-00405
Y-00605
X03345Y-0023779
Y-0003779
M30
