G04*
G04 #@! TF.GenerationSoftware,Altium Limited,Altium Designer,20.1.11 (218)*
G04*
G04 Layer_Color=2752767*
%FSLAX25Y25*%
%MOIN*%
G70*
G04*
G04 #@! TF.SameCoordinates,67DEA893-D948-4B9D-9317-8289C47B3BC5*
G04*
G04*
G04 #@! TF.FilePolarity,Positive*
G04*
G01*
G75*
%ADD25C,0.00200*%
%ADD26C,0.00267*%
D25*
X-93300Y-14300D02*
Y-12700D01*
X-91700D01*
Y-14300D01*
X-93300D01*
X-250000Y-14800D02*
X-250800Y-13200D01*
X-249200D01*
X-250000Y-14800D01*
X366000Y-14300D02*
X366400Y-13900D01*
X366800D01*
X366400Y-13500D01*
X366800Y-13100D01*
X366400D01*
X366000Y-12700D01*
X365600Y-13100D01*
X365200D01*
X365600Y-13500D01*
X365200Y-13900D01*
X365600D01*
X366000Y-14300D01*
X-366000Y-14800D02*
X-365600Y-14400D01*
X-365200D01*
X-365600Y-14000D01*
X-365200Y-13600D01*
X-365600D01*
X-366000Y-13200D01*
X-366400Y-13600D01*
X-366800D01*
X-366400Y-14000D01*
X-366800Y-14400D01*
X-366400D01*
X-366000Y-14800D01*
X-32800Y-24579D02*
X-32400Y-23779D01*
X-32800Y-22979D01*
X-32000Y-23380D01*
X-31200Y-22979D01*
X-31600Y-23779D01*
X-31200Y-24579D01*
X-32000Y-24180D01*
X-32800Y-24579D01*
Y-4580D02*
X-32400Y-3779D01*
X-32800Y-2980D01*
X-32000Y-3379D01*
X-31200Y-2980D01*
X-31600Y-3779D01*
X-31200Y-4580D01*
X-32000Y-4180D01*
X-32800Y-4580D01*
X-153863Y-24579D02*
X-153463Y-23779D01*
X-153863Y-22979D01*
X-153063Y-23380D01*
X-152263Y-22979D01*
X-152663Y-23779D01*
X-152263Y-24579D01*
X-153063Y-24180D01*
X-153863Y-24579D01*
Y-4580D02*
X-153463Y-3779D01*
X-153863Y-2980D01*
X-153063Y-3379D01*
X-152263Y-2980D01*
X-152663Y-3779D01*
X-152263Y-4580D01*
X-153063Y-4180D01*
X-153863Y-4580D01*
X333700Y-24579D02*
X334100Y-23779D01*
X333700Y-22979D01*
X334500Y-23380D01*
X335300Y-22979D01*
X334900Y-23779D01*
X335300Y-24579D01*
X334500Y-24180D01*
X333700Y-24579D01*
Y-4580D02*
X334100Y-3779D01*
X333700Y-2980D01*
X334500Y-3379D01*
X335300Y-2980D01*
X334900Y-3779D01*
X335300Y-4580D01*
X334500Y-4180D01*
X333700Y-4580D01*
X152763D02*
X153163Y-3779D01*
X152763Y-2980D01*
X153563Y-3379D01*
X154363Y-2980D01*
X153963Y-3779D01*
X154363Y-4580D01*
X153563Y-4180D01*
X152763Y-4580D01*
Y-24579D02*
X153163Y-23779D01*
X152763Y-22979D01*
X153563Y-23380D01*
X154363Y-22979D01*
X153963Y-23779D01*
X154363Y-24579D01*
X153563Y-24180D01*
X152763Y-24579D01*
X154200Y-41300D02*
X154600Y-40500D01*
X154200Y-39700D01*
X155000Y-40100D01*
X155800Y-39700D01*
X155400Y-40500D01*
X155800Y-41300D01*
X155000Y-40900D01*
X154200Y-41300D01*
Y-61300D02*
X154600Y-60500D01*
X154200Y-59700D01*
X155000Y-60100D01*
X155800Y-59700D01*
X155400Y-60500D01*
X155800Y-61300D01*
X155000Y-60900D01*
X154200Y-61300D01*
X-155800D02*
X-155400Y-60500D01*
X-155800Y-59700D01*
X-155000Y-60100D01*
X-154200Y-59700D01*
X-154600Y-60500D01*
X-154200Y-61300D01*
X-155000Y-60900D01*
X-155800Y-61300D01*
Y-41300D02*
X-155400Y-40500D01*
X-155800Y-39700D01*
X-155000Y-40100D01*
X-154200Y-39700D01*
X-154600Y-40500D01*
X-154200Y-41300D01*
X-155000Y-40900D01*
X-155800Y-41300D01*
X-335300Y-4580D02*
X-334900Y-3779D01*
X-335300Y-2980D01*
X-334500Y-3379D01*
X-333700Y-2980D01*
X-334100Y-3779D01*
X-333700Y-4580D01*
X-334500Y-4180D01*
X-335300Y-4580D01*
Y-24579D02*
X-334900Y-23779D01*
X-335300Y-22979D01*
X-334500Y-23380D01*
X-333700Y-22979D01*
X-334100Y-23779D01*
X-333700Y-24579D01*
X-334500Y-24180D01*
X-335300Y-24579D01*
X244100Y-4735D02*
Y-5135D01*
X244900D01*
Y-4735D01*
X245300D01*
Y-3935D01*
X244900D01*
Y-3535D01*
X244100D01*
Y-3935D01*
X243700D01*
Y-4735D01*
X244100D01*
X184100Y-4436D02*
Y-4836D01*
X184900D01*
Y-4436D01*
X185300D01*
Y-3636D01*
X184900D01*
Y-3236D01*
X184100D01*
Y-3636D01*
X183700D01*
Y-4436D01*
X184100D01*
X97600Y-4900D02*
Y-5300D01*
X98400D01*
Y-4900D01*
X98800D01*
Y-4100D01*
X98400D01*
Y-3700D01*
X97600D01*
Y-4100D01*
X97200D01*
Y-4900D01*
X97600D01*
X76600Y-24206D02*
Y-24606D01*
X77400D01*
Y-24206D01*
X77800D01*
Y-23406D01*
X77400D01*
Y-23006D01*
X76600D01*
Y-23406D01*
X76200D01*
Y-24206D01*
X76600D01*
X13100Y-24180D02*
Y-24579D01*
X13900D01*
Y-24180D01*
X14300D01*
Y-23380D01*
X13900D01*
Y-22979D01*
X13100D01*
Y-23380D01*
X12700D01*
Y-24180D01*
X13100D01*
X36600Y-4400D02*
Y-4800D01*
X37400D01*
Y-4400D01*
X37800D01*
Y-3600D01*
X37400D01*
Y-3200D01*
X36600D01*
Y-3600D01*
X36200D01*
Y-4400D01*
X36600D01*
X-6400D02*
Y-4800D01*
X-5600D01*
Y-4400D01*
X-5200D01*
Y-3600D01*
X-5600D01*
Y-3200D01*
X-6400D01*
Y-3600D01*
X-6800D01*
Y-4400D01*
X-6400D01*
X-48900Y-4180D02*
Y-4580D01*
X-48100D01*
Y-4180D01*
X-47700D01*
Y-3379D01*
X-48100D01*
Y-2980D01*
X-48900D01*
Y-3379D01*
X-49300D01*
Y-4180D01*
X-48900D01*
X-94400D02*
Y-4580D01*
X-93600D01*
Y-4180D01*
X-93200D01*
Y-3379D01*
X-93600D01*
Y-2980D01*
X-94400D01*
Y-3379D01*
X-94800D01*
Y-4180D01*
X-94400D01*
X-211900Y-24900D02*
Y-25300D01*
X-211100D01*
Y-24900D01*
X-210700D01*
Y-24100D01*
X-211100D01*
Y-23700D01*
X-211900D01*
Y-24100D01*
X-212300D01*
Y-24900D01*
X-211900D01*
X-275900D02*
Y-25300D01*
X-275100D01*
Y-24900D01*
X-274700D01*
Y-24100D01*
X-275100D01*
Y-23700D01*
X-275900D01*
Y-24100D01*
X-276300D01*
Y-24900D01*
X-275900D01*
X-184219Y-25107D02*
Y-25507D01*
X-183419D01*
Y-25107D01*
X-183019D01*
Y-24307D01*
X-183419D01*
Y-23907D01*
X-184219D01*
Y-24307D01*
X-184619D01*
Y-25107D01*
X-184219D01*
X-178691Y-21878D02*
Y-22278D01*
X-177892D01*
Y-21878D01*
X-177491D01*
Y-21078D01*
X-177892D01*
Y-20678D01*
X-178691D01*
Y-21078D01*
X-179092D01*
Y-21878D01*
X-178691D01*
X168891Y-312900D02*
Y-313300D01*
X169691D01*
Y-312900D01*
X170091D01*
Y-312100D01*
X169691D01*
Y-311700D01*
X168891D01*
Y-312100D01*
X168491D01*
Y-312900D01*
X168891D01*
X145600Y-311400D02*
Y-311800D01*
X146400D01*
Y-311400D01*
X146800D01*
Y-310600D01*
X146400D01*
Y-310200D01*
X145600D01*
Y-310600D01*
X145200D01*
Y-311400D01*
X145600D01*
X-153900Y-312900D02*
Y-313300D01*
X-153100D01*
Y-312900D01*
X-152700D01*
Y-312100D01*
X-153100D01*
Y-311700D01*
X-153900D01*
Y-312100D01*
X-154300D01*
Y-312900D01*
X-153900D01*
X333100Y-13900D02*
Y-14300D01*
X333900D01*
Y-13900D01*
X334300D01*
Y-13100D01*
X333900D01*
Y-12700D01*
X333100D01*
Y-13100D01*
X332700D01*
Y-13900D01*
X333100D01*
X344100Y-24180D02*
Y-24579D01*
X344900D01*
Y-24180D01*
X345300D01*
Y-23380D01*
X344900D01*
Y-22979D01*
X344100D01*
Y-23380D01*
X343700D01*
Y-24180D01*
X344100D01*
X175100Y-305459D02*
Y-305859D01*
X175900D01*
Y-305459D01*
X176300D01*
Y-304659D01*
X175900D01*
Y-304259D01*
X175100D01*
Y-304659D01*
X174700D01*
Y-305459D01*
X175100D01*
X179439Y-303759D02*
Y-304159D01*
X180239D01*
Y-303759D01*
X180639D01*
Y-302959D01*
X180239D01*
Y-302559D01*
X179439D01*
Y-302959D01*
X179039D01*
Y-303759D01*
X179439D01*
X173100Y-300876D02*
Y-301276D01*
X173900D01*
Y-300876D01*
X174300D01*
Y-300076D01*
X173900D01*
Y-299676D01*
X173100D01*
Y-300076D01*
X172700D01*
Y-300876D01*
X173100D01*
X165100Y-300266D02*
Y-300665D01*
X165900D01*
Y-300266D01*
X166300D01*
Y-299465D01*
X165900D01*
Y-299065D01*
X165100D01*
Y-299465D01*
X164700D01*
Y-300266D01*
X165100D01*
X143661Y-301696D02*
Y-302096D01*
X144461D01*
Y-301696D01*
X144861D01*
Y-300896D01*
X144461D01*
Y-300496D01*
X143661D01*
Y-300896D01*
X143261D01*
Y-301696D01*
X143661D01*
X154659Y-287900D02*
Y-288300D01*
X155459D01*
Y-287900D01*
X155859D01*
Y-287100D01*
X155459D01*
Y-286700D01*
X154659D01*
Y-287100D01*
X154259D01*
Y-287900D01*
X154659D01*
X156265Y-49498D02*
Y-49898D01*
X157065D01*
Y-49498D01*
X157465D01*
Y-48698D01*
X157065D01*
Y-48298D01*
X156265D01*
Y-48698D01*
X155865D01*
Y-49498D01*
X156265D01*
Y-34900D02*
Y-35300D01*
X157065D01*
Y-34900D01*
X157465D01*
Y-34100D01*
X157065D01*
Y-33700D01*
X156265D01*
Y-34100D01*
X155865D01*
Y-34900D01*
X156265D01*
X163600Y-3400D02*
Y-3800D01*
X164400D01*
Y-3400D01*
X164800D01*
Y-2600D01*
X164400D01*
Y-2200D01*
X163600D01*
Y-2600D01*
X163200D01*
Y-3400D01*
X163600D01*
X145428Y-25306D02*
Y-25706D01*
X146228D01*
Y-25306D01*
X146628D01*
Y-24506D01*
X146228D01*
Y-24106D01*
X145428D01*
Y-24506D01*
X145028D01*
Y-25306D01*
X145428D01*
X142600Y-7365D02*
Y-7765D01*
X143400D01*
Y-7365D01*
X143800D01*
Y-6565D01*
X143400D01*
Y-6165D01*
X142600D01*
Y-6565D01*
X142200D01*
Y-7365D01*
X142600D01*
X152943Y-14400D02*
Y-14800D01*
X153743D01*
Y-14400D01*
X154143D01*
Y-13600D01*
X153743D01*
Y-13200D01*
X152943D01*
Y-13600D01*
X152543D01*
Y-14400D01*
X152943D01*
X-32400Y-13900D02*
Y-14300D01*
X-31600D01*
Y-13900D01*
X-31200D01*
Y-13100D01*
X-31600D01*
Y-12700D01*
X-32400D01*
Y-13100D01*
X-32800D01*
Y-13900D01*
X-32400D01*
X-22400Y-23253D02*
Y-23652D01*
X-21600D01*
Y-23253D01*
X-21200D01*
Y-22453D01*
X-21600D01*
Y-22052D01*
X-22400D01*
Y-22453D01*
X-22800D01*
Y-23253D01*
X-22400D01*
X-320900Y-20935D02*
Y-21335D01*
X-320100D01*
Y-20935D01*
X-319700D01*
Y-20135D01*
X-320100D01*
Y-19735D01*
X-320900D01*
Y-20135D01*
X-321300D01*
Y-20935D01*
X-320900D01*
X-153243Y-14400D02*
Y-14800D01*
X-152443D01*
Y-14400D01*
X-152043D01*
Y-13600D01*
X-152443D01*
Y-13200D01*
X-153243D01*
Y-13600D01*
X-153643D01*
Y-14400D01*
X-153243D01*
X-144419Y-23253D02*
Y-23652D01*
X-143619D01*
Y-23253D01*
X-143219D01*
Y-22453D01*
X-143619D01*
Y-22052D01*
X-144419D01*
Y-22453D01*
X-144819D01*
Y-23253D01*
X-144419D01*
Y-27108D02*
Y-27509D01*
X-143619D01*
Y-27108D01*
X-143219D01*
Y-26309D01*
X-143619D01*
Y-25908D01*
X-144419D01*
Y-26309D01*
X-144819D01*
Y-27108D01*
X-144419D01*
X-138609Y-32499D02*
Y-32899D01*
X-137809D01*
Y-32499D01*
X-137408D01*
Y-31699D01*
X-137809D01*
Y-31299D01*
X-138609D01*
Y-31699D01*
X-139008D01*
Y-32499D01*
X-138609D01*
X-157296Y-50900D02*
Y-51300D01*
X-156496D01*
Y-50900D01*
X-156096D01*
Y-50100D01*
X-156496D01*
Y-49700D01*
X-157296D01*
Y-50100D01*
X-157696D01*
Y-50900D01*
X-157296D01*
X-137841Y-297992D02*
Y-298392D01*
X-137041D01*
Y-297992D01*
X-136641D01*
Y-297192D01*
X-137041D01*
Y-296792D01*
X-137841D01*
Y-297192D01*
X-138241D01*
Y-297992D01*
X-137841D01*
X-146784Y-293375D02*
Y-293775D01*
X-145984D01*
Y-293375D01*
X-145584D01*
Y-292575D01*
X-145984D01*
Y-292175D01*
X-146784D01*
Y-292575D01*
X-147185D01*
Y-293375D01*
X-146784D01*
X-148900Y-297992D02*
Y-298392D01*
X-148100D01*
Y-297992D01*
X-147700D01*
Y-297192D01*
X-148100D01*
Y-296792D01*
X-148900D01*
Y-297192D01*
X-149300D01*
Y-297992D01*
X-148900D01*
X-153400Y-301185D02*
Y-301585D01*
X-152600D01*
Y-301185D01*
X-152200D01*
Y-300385D01*
X-152600D01*
Y-299985D01*
X-153400D01*
Y-300385D01*
X-153800D01*
Y-301185D01*
X-153400D01*
X-173400Y-300301D02*
Y-300701D01*
X-172600D01*
Y-300301D01*
X-172200D01*
Y-299501D01*
X-172600D01*
Y-299101D01*
X-173400D01*
Y-299501D01*
X-173800D01*
Y-300301D01*
X-173400D01*
X-178400Y-302057D02*
Y-302457D01*
X-177600D01*
Y-302057D01*
X-177200D01*
Y-301257D01*
X-177600D01*
Y-300857D01*
X-178400D01*
Y-301257D01*
X-178800D01*
Y-302057D01*
X-178400D01*
X-175900Y-306600D02*
Y-307000D01*
X-175100D01*
Y-306600D01*
X-174700D01*
Y-305800D01*
X-175100D01*
Y-305400D01*
X-175900D01*
Y-305800D01*
X-176300D01*
Y-306600D01*
X-175900D01*
X-180400Y-306459D02*
Y-306859D01*
X-179600D01*
Y-306459D01*
X-179200D01*
Y-305659D01*
X-179600D01*
Y-305259D01*
X-180400D01*
Y-305659D01*
X-180800D01*
Y-306459D01*
X-180400D01*
X-139800Y-304300D02*
X-139400D01*
X-139000Y-303900D01*
X-138600Y-304300D01*
X-138200D01*
Y-303900D01*
X-138600Y-303500D01*
X-138200Y-303100D01*
Y-302700D01*
X-138600D01*
X-139000Y-303100D01*
X-139400Y-302700D01*
X-139800D01*
Y-303100D01*
X-139400Y-303500D01*
X-139800Y-303900D01*
Y-304300D01*
X-162217Y-305300D02*
X-161817D01*
X-161417Y-304900D01*
X-161017Y-305300D01*
X-160617D01*
Y-304900D01*
X-161017Y-304500D01*
X-160617Y-304100D01*
Y-303700D01*
X-161017D01*
X-161417Y-304100D01*
X-161817Y-303700D01*
X-162217D01*
Y-304100D01*
X-161817Y-304500D01*
X-162217Y-304900D01*
Y-305300D01*
X152700Y-304300D02*
X153100D01*
X153500Y-303900D01*
X153900Y-304300D01*
X154300D01*
Y-303900D01*
X153900Y-303500D01*
X154300Y-303100D01*
Y-302700D01*
X153900D01*
X153500Y-303100D01*
X153100Y-302700D01*
X152700D01*
Y-303100D01*
X153100Y-303500D01*
X152700Y-303900D01*
Y-304300D01*
X160617D02*
X161017D01*
X161417Y-303900D01*
X161817Y-304300D01*
X162217D01*
Y-303900D01*
X161817Y-303500D01*
X162217Y-303100D01*
Y-302700D01*
X161817D01*
X161417Y-303100D01*
X161017Y-302700D01*
X160617D01*
Y-303100D01*
X161017Y-303500D01*
X160617Y-303900D01*
Y-304300D01*
D26*
X56300Y-13500D02*
X55747Y-12739D01*
X54853Y-13030D01*
Y-13970D01*
X55747Y-14261D01*
X56300Y-13500D01*
X243800D02*
X243247Y-12739D01*
X242353Y-13030D01*
Y-13970D01*
X243247Y-14261D01*
X243800Y-13500D01*
M02*
